<svg version="1.1" xmlns="http://www.w3.org/2000/svg" xmlns:xlink="http://www.w3.org/1999/xlink" width="187.57774" height="160.29229" viewBox="0,0,187.57774,160.29229"><g transform="translate(-118.14862,1.94324)"><g data-paper-data="{&quot;isPaintingLayer&quot;:true}" fill="#0077ff" fill-rule="nonzero" stroke="none" stroke-width="0.5" stroke-linecap="butt" stroke-linejoin="miter" stroke-miterlimit="10" stroke-dasharray="" stroke-dashoffset="0" style="mix-blend-mode: normal"><path d="M163.84701,146.67032c-1.0676,-0.38414 -2.07337,-0.82344 -2.9699,-1.34475c-9.60708,-5.58626 -17.93133,-13.87085 -26.10169,-21.28951c-0.0261,-0.0237 -8.16149,-7.41051 -8.16995,-7.4186c-1.17365,-1.12306 -2.73502,-1.99895 -3.41948,-3.47212c-0.28462,-0.61259 -1.78279,-10.62671 -1.95165,-11.72427c-1.0613,-6.89844 -2.17833,-13.77152 -2.9499,-20.70874c-0.54686,-5.27916 0.67153,-9.95664 1.62884,-15.15351c0.52718,-2.86185 0.54301,-5.8733 1.61181,-8.57992c0.14053,-0.35589 4.97217,-9.57842 5.25858,-10.12633c1.94115,-3.71351 3.80581,-9.72273 6.74823,-12.76124c5.01451,-5.17826 12.29818,-9.26062 18.08223,-13.5757c4.18592,-3.12283 8.99034,-7.95336 13.70665,-10.15421c1.83,-0.85396 3.91931,-0.97558 5.8822,-1.45014c5.34568,-1.29242 10.70491,-2.53209 16.05693,-3.79803c7.13641,-1.68801 14.27283,-3.37602 21.40924,-5.06404c2.7345,-0.6468 5.40234,-1.79688 8.20988,-1.9132c10.95207,-0.45376 22.39452,1.16321 33.34545,1.7457c4.49543,0.23912 10.09741,-0.32611 14.4742,0.80378c3.31875,0.85675 7.63557,3.07132 10.70844,4.5886c1.85025,0.91359 3.95706,1.44552 5.53153,2.77936c4.06012,3.43962 6.25387,10.30739 8.56537,14.9304c3.20151,6.41815 5.39478,13.22212 7.84417,19.95794c1.87434,5.15443 4.3448,10.48536 5.46868,15.87079c1.8511,8.87007 2.47261,18.88453 2.50595,27.91865c0.0186,5.03974 0.88705,11.11283 0.01739,16.07974c-0.43851,2.5045 -2.98712,8.49467 -3.96149,10.91118c-2.66203,6.60205 -5.42033,12.30184 -9.18463,18.35827c-6.17196,3.45005 -12.4524,7.53589 -18.963,10.31232c-5.07224,2.16305 -10.58209,3.68064 -15.79321,5.48859c-5.74435,1.99294 -11.77416,4.63562 -17.78024,5.69159c-7.20956,1.26756 -14.71582,0.9355 -21.90732,2.28428c-2.80395,0.52589 -5.41948,1.97094 -8.25928,2.24332c-5.67693,0.54451 -11.6455,0.02447 -17.36604,0.02447c-0.00939,0 -10.20595,0.01812 -10.52005,-0.04962c-6.75674,-1.45721 -12.53558,-6.74875 -17.75794,-11.40506z"/></g></g></svg>