<svg version="1.1" xmlns="http://www.w3.org/2000/svg" xmlns:xlink="http://www.w3.org/1999/xlink" width="135.57773" height="160.29229" viewBox="0,0,135.57773,160.29229"><g transform="translate(-134.64862,1.94326)"><g data-paper-data="{&quot;isPaintingLayer&quot;:true}" fill="#0077ff" fill-rule="nonzero" stroke="none" stroke-width="0.5" stroke-linecap="butt" stroke-linejoin="miter" stroke-miterlimit="10" stroke-dasharray="" stroke-dashoffset="0" style="mix-blend-mode: normal"><path d="M167.67858,146.67032c-0.77164,-0.38414 -1.49859,-0.82344 -2.14659,-1.34475c-6.94382,-5.58626 -12.96044,-13.87085 -18.86582,-21.28951c-0.01886,-0.0237 -5.89897,-7.41051 -5.90509,-7.4186c-0.84829,-1.12306 -1.97682,-1.99895 -2.47154,-3.47212c-0.20572,-0.61259 -1.28857,-10.62671 -1.41062,-11.72427c-0.76709,-6.89844 -1.57446,-13.77152 -2.13213,-20.70874c-0.39526,-5.27916 0.48537,-9.95664 1.1773,-15.15351c0.38104,-2.86185 0.39248,-5.8733 1.16499,-8.57992c0.10157,-0.35589 3.59379,-9.57842 3.8008,-10.12633c1.40303,-3.71351 2.75077,-9.72273 4.8775,-12.76124c3.6244,-5.17826 8.8889,-9.26062 13.0695,-13.5757c3.02551,-3.12283 6.49805,-7.95336 9.90691,-10.15421c1.32269,-0.85396 2.83281,-0.97558 4.25155,-1.45014c3.86376,-1.29242 7.73731,-2.53209 11.60565,-3.79803c5.15807,-1.68801 10.31614,-3.37602 15.4742,-5.06404c1.97645,-0.6468 3.90471,-1.79688 5.93395,-1.9132c7.91595,-0.45376 16.18635,1.16321 24.10148,1.7457c3.24921,0.23912 7.29822,-0.32611 10.46169,0.80378c2.39873,0.85675 5.51885,3.07132 7.73986,4.5886c1.33733,0.91359 2.86009,1.44552 3.99809,2.77936c2.93458,3.43962 4.52018,10.30739 6.19089,14.9304c2.31399,6.41815 3.89925,13.22212 5.66962,19.95794c1.35474,5.15443 3.14034,10.48536 3.95266,15.87079c1.33794,8.87007 1.78716,18.88453 1.81125,27.91865c0.01344,5.03974 0.64114,11.11283 0.01257,16.07974c-0.31695,2.5045 -2.15904,8.49467 -2.86329,10.91118c-1.92407,6.60205 -3.91771,12.30184 -6.63848,18.35827c-4.46098,3.45005 -9.00037,7.53589 -13.70611,10.31232c-3.66612,2.16305 -7.64854,3.68064 -11.41504,5.48859c-4.15191,1.99294 -8.51015,4.63562 -12.85123,5.69159c-5.21094,1.26756 -10.63632,0.9355 -15.83421,2.28428c-2.02664,0.52589 -3.9171,1.97094 -5.96966,2.24332c-4.10318,0.54451 -8.41715,0.02447 -12.55185,0.02447c-0.00679,0 -7.37667,0.01812 -7.6037,-0.04962c-4.88365,-1.45721 -9.06049,-6.74875 -12.83511,-11.40506z"/></g></g></svg>