<svg version="1.1" xmlns="http://www.w3.org/2000/svg" xmlns:xlink="http://www.w3.org/1999/xlink" width="95.03718" height="160.29229" viewBox="0,0,95.03718,160.29229"><g transform="translate(-134.64862,1.94325)"><g data-paper-data="{&quot;isPaintingLayer&quot;:true}" fill="#0077ff" fill-rule="nonzero" stroke="none" stroke-width="0.5" stroke-linecap="butt" stroke-linejoin="miter" stroke-miterlimit="10" stroke-dasharray="" stroke-dashoffset="0" style="mix-blend-mode: normal"><path d="M157.80194,146.67032c-0.5409,-0.38414 -1.05048,-0.82344 -1.50472,-1.34475c-4.86747,-5.58626 -9.085,-13.87085 -13.22455,-21.28951c-0.01322,-0.0237 -4.13506,-7.41051 -4.13935,-7.4186c-0.59463,-1.12306 -1.38571,-1.99895 -1.7325,-3.47212c-0.14421,-0.61259 -0.90326,-10.62671 -0.98882,-11.72427c-0.53771,-6.89844 -1.10366,-13.77152 -1.49458,-20.70874c-0.27707,-5.27916 0.34023,-9.95664 0.82526,-15.15351c0.2671,-2.86185 0.27512,-5.8733 0.81663,-8.57992c0.0712,-0.35589 2.51917,-9.57842 2.66428,-10.12633c0.9835,-3.71351 1.92823,-9.72273 3.41903,-12.76124c2.54063,-5.17826 6.23094,-9.26062 9.16145,-13.5757c2.12082,-3.12283 4.555,-7.95336 6.94454,-10.15421c0.92718,-0.85396 1.98574,-0.97558 2.98025,-1.45014c2.70842,-1.29242 5.42369,-2.53209 8.13532,-3.79803c3.6157,-1.68801 7.2314,-3.37602 10.84709,-5.06404c1.38545,-0.6468 2.73712,-1.79688 4.15958,-1.9132c5.54892,-0.45376 11.3463,1.16321 16.89464,1.7457c2.27763,0.23912 5.1159,-0.32611 7.33343,0.80378c1.68146,0.85675 3.8686,3.07132 5.42548,4.5886c0.93744,0.91359 2.00486,1.44552 2.80258,2.77936c2.05708,3.43962 3.16855,10.30739 4.33969,14.9304c1.62206,6.41815 2.73329,13.22212 3.97429,19.95794c0.94964,5.15443 2.20131,10.48536 2.77073,15.87079c0.93787,8.87007 1.25276,18.88453 1.26965,27.91865c0.00942,5.03974 0.44943,11.11283 0.00881,16.07974c-0.22218,2.5045 -1.51344,8.49467 -2.00711,10.91118c-1.34873,6.60205 -2.74623,12.30184 -4.65344,18.35827c-3.12705,3.45005 -6.30907,7.53589 -9.6077,10.31232c-2.56987,2.16305 -5.36147,3.68064 -8.00171,5.48859c-2.9104,1.99294 -5.96544,4.63562 -9.00845,5.69159c-3.65276,1.26756 -7.45584,0.9355 -11.09945,2.28428c-1.42063,0.52589 -2.74581,1.97094 -4.18461,2.24332c-2.87624,0.54451 -5.90025,0.02447 -8.79859,0.02447c-0.00476,0 -5.17089,0.01812 -5.33004,-0.04962c-3.42334,-1.45721 -6.35122,-6.74875 -8.99715,-11.40506z"/></g></g></svg>