<svg version="1.1" xmlns="http://www.w3.org/2000/svg" xmlns:xlink="http://www.w3.org/1999/xlink" width="210.3246" height="155.0183" viewBox="0,0,210.3246,155.0183"><g transform="translate(-87.81209,-92.35482)"><g data-paper-data="{&quot;isPaintingLayer&quot;:true}" fill-rule="nonzero" stroke-linejoin="miter" stroke-miterlimit="10" stroke-dasharray="" stroke-dashoffset="0" style="mix-blend-mode: normal"><path d="M88.6212,234.66671c-0.24882,-0.36162 -0.31902,-0.69022 -0.29381,-0.97418c-0.00315,-0.002 -0.00629,-0.00401 -0.00943,-0.00603c-1.0524,-0.6782 -0.14799,-2.50541 -0.07454,-3.75526c0.21599,-3.6749 1.3944,-7.54689 2.06302,-11.16568c0.73801,-3.99415 1.75094,-7.76583 2.7673,-11.67772c0.41057,-1.58024 0.30973,-3.29349 0.90499,-4.81382c0.69361,-1.77152 2.10775,-3.21183 2.74265,-5.00523c0.92745,-2.61978 1.14638,-5.71431 2.23776,-8.29525c0.38361,-0.90717 1.19692,-1.58926 1.58134,-2.49609c0.929,-2.19144 0.52567,-5.00438 1.42883,-7.2428c0.39161,-0.97057 1.15098,-1.75064 1.65957,-2.66535c1.2859,-2.31274 1.98821,-4.93233 3.16302,-7.28816c0.68327,-1.37016 1.73908,-2.52039 2.61577,-3.77561c0.64108,-1.78313 0.91176,-3.6801 1.45954,-5.49407c0.50233,-1.66343 1.09701,-3.30121 1.51604,-4.98755c0.16839,-0.67768 0.69422,-1.2836 0.67916,-1.98174c-0.00521,-0.24125 -0.4815,-0.03656 -0.72277,-0.04075c-0.92863,-0.01612 -1.86196,0.07079 -2.78627,-0.02018c-0.96858,-0.09531 -1.8993,-0.4665 -2.87004,-0.53646c-0.8167,-0.05886 -1.63366,0.18901 -2.45168,0.15287c-2.54048,-0.11223 -5.30759,-0.92811 -7.79715,-1.42929c-1.86418,-0.37527 -3.69432,-0.40695 -4.44708,-2.83333c-0.74226,-2.39252 0.87991,-3.9573 2.07831,-5.56889c2.07537,-2.79092 4.29609,-5.46104 6.48971,-8.1592c0.78565,-1.18237 1.71047,-2.28105 2.37167,-3.53726c0.76537,-1.45412 0.76798,-3.22704 1.51238,-4.69201c0.7111,-1.39943 2.25515,-2.19769 3.2227,-3.43378c1.10367,-1.40998 1.4926,-3.28859 2.57815,-4.71254c1.02094,-1.3392 2.56063,-2.18793 3.85578,-3.26419c4.46624,-3.7114 9.28029,-6.90168 14.0752,-10.20105c0,0 1.22701,-0.84431 2.07132,0.38271c0.8443,1.22701 -0.3827,2.07133 -0.3827,2.07133c-4.7369,3.25946 -9.4939,6.40919 -13.90549,10.07517c-1.37362,1.14145 -2.07726,1.03933 -3.30176,2.68367c-1.08986,1.46353 -1.52216,3.35342 -2.6404,4.79538c-0.88511,1.14134 -2.3832,1.81649 -3.00814,3.11862c-0.67456,1.4055 -0.67342,3.08137 -1.39127,4.46524c-0.08769,0.16904 -2.1694,3.28198 -2.65892,4.01529c-2.19938,2.71141 -4.38587,5.41729 -6.51023,8.18673c-0.35707,0.46549 -1.83091,1.91796 -1.61824,2.86976c0.21542,0.96413 3.33763,1.02844 3.90783,1.1338c3.75669,0.69411 7.34882,1.06772 11.11783,1.45349c1.47461,0.15094 4.95845,-0.49033 5.8647,1.67101c0.5024,1.19819 -0.22119,2.59042 -0.40329,3.87685c-0.26058,1.84067 -1.06638,3.56185 -1.60411,5.34141c-0.59688,1.97527 -0.94612,4.02711 -1.65379,5.96545c-0.87523,1.27556 -1.95588,2.42972 -2.63814,3.8181c-1.16246,2.3656 -1.87245,4.98086 -3.16653,7.29469c-0.45853,0.81985 -1.16454,1.50321 -1.5213,2.3722c-0.91638,2.23211 -0.50243,4.9783 -1.4141,7.20587c-0.37914,0.9264 -1.20719,1.62058 -1.59952,2.54146c-1.07622,2.52614 -1.26394,5.59968 -2.18842,8.16663c-0.64455,1.78968 -2.03581,3.23837 -2.74238,5.00447c-0.57381,1.43425 -0.44006,3.06439 -0.82694,4.55993c-0.99519,3.84706 -1.99585,7.54378 -2.72157,11.47143c-0.54335,2.94074 -1.08669,5.88149 -1.63003,8.82223c-0.07967,0.43123 -0.10971,0.87728 -0.17231,1.3136c0.0512,-0.0479 0.1037,-0.09456 0.15766,-0.13986c0.39579,-0.33228 0.9585,-0.35364 1.46943,-0.48499c1.16111,-0.81663 2.4083,-1.51931 3.39372,-1.97081c0.38824,-0.17789 0.82572,-0.20933 1.25637,-0.26093c0.72351,-0.34231 1.45265,-0.67164 2.19434,-0.97808c1.19939,-0.87333 2.25463,-2.00091 3.61046,-2.59126c1.43116,-0.62314 3.0866,-0.54567 4.56312,-1.05205c0.68808,-0.23598 1.30598,-0.66248 2.00686,-0.8572c1.4771,-0.41036 3.08587,-0.29719 4.54702,-0.73472c1.61573,-0.87013 3.16841,-1.90627 4.76757,-2.67377c4.10414,-1.96974 8.40974,-3.08298 12.83087,-3.22346l0.12294,-0.05586c0,0 0.76614,-0.34527 1.40681,0.05834c0.38315,0.05476 1.33866,0.31161 1.3176,1.51135c-0.02633,1.49977 -1.5261,1.47343 -1.5261,1.47343c-0.19639,-0.00406 -0.3923,-0.024 -0.58787,-0.05274l-1.08983,0.48771c-1.96193,0.52677 -3.93521,1.01351 -5.91869,1.45222c-2.33419,0.67402 -4.98145,1.29507 -7.21993,2.25473c-0.94461,0.40497 -1.76051,1.08637 -2.72357,1.44525c-0.30893,0.11513 -0.62345,0.2191 -0.94256,0.31402c-0.28038,0.14163 -0.55909,0.28063 -0.83607,0.41633c-3.2049,1.57021 -7.0325,1.81578 -10.14863,3.52638c-1.08482,0.31217 -2.12203,0.69889 -3.13442,1.12844c-0.35065,0.24766 -0.71443,0.47225 -1.10198,0.65496c-0.2587,0.12196 -0.53957,0.17866 -0.82627,0.21842c-1.20579,0.57441 -2.39651,1.18221 -3.61337,1.76612c-0.95855,0.73154 -1.93663,1.48727 -2.66788,1.7551c-0.11223,0.04111 -0.22662,0.08626 -0.34275,0.13413c-0.36444,0.58776 -0.69963,1.20381 -1.17393,1.69715l-0.51709,0.39117c0,0 -1.23571,0.85029 -2.08601,-0.38542z" fill="#000000" stroke="none" stroke-width="0.5" stroke-linecap="butt"/><path d="M140.13672,102.56446c-0.24632,0 -0.45218,-0.04045 -0.62425,-0.10806c-0.06265,0.14601 -0.13055,0.29174 -0.20342,0.43665c-0.10549,2.14623 -0.85667,4.3783 -1.64329,5.26277c-0.54394,0.6116 -1.52585,0.59285 -2.28877,0.88927l-0.24027,-0.06314v0.0825h-1.5v0c-0.14411,0 -0.28348,-0.02032 -0.41539,-0.05826c-0.02053,0.03969 -0.04208,0.07836 -0.06449,0.11601c0.13803,0.3962 0.17807,0.83258 0.09639,1.27466l-0.10572,0.57218l0.13065,1.56003l-0.09392,0.00787l0.10263,0.20012c-0.4156,5.15198 -1.12019,10.10556 -2.00706,15.16172c0.12664,1.65427 0.41247,3.28539 0.33691,4.99331c-0.19971,4.51434 -0.52728,8.94962 -0.48323,13.48265c0.01281,1.31844 -0.04443,2.6309 -0.15022,3.93945l-0.04758,2.71008l-0.07273,-0.00127l0.0606,0.20729c-0.28089,1.54516 -0.60824,3.09959 -0.94073,4.65912c-0.00089,0.10254 -0.00131,0.20526 -0.00122,0.30817c-0.16323,3.98804 0.09677,8.21111 -0.43542,12.14902c-0.25681,1.90034 -1.02579,3.73544 -1.0695,5.65256c-0.05012,2.19796 0.67564,4.35297 0.78412,6.54882c0.19346,3.91609 -0.88909,7.26228 -0.34697,11.13803c0.73699,5.26889 0.21197,11.93274 4.47411,15.80452c0,0 1.21147,1.17639 0.67625,2.59117c-0.04821,0.71562 -0.38499,1.20283 -0.77212,1.52994c-0.33957,1.35215 -1.8516,1.72847 -1.8516,1.72847c-2.72585,0.67665 -5.52573,1.1448 -8.3263,1.59064c-2.33354,0.90303 -4.63591,1.8699 -7.01543,2.72059c-2.0568,1.03577 -4.15743,2.00584 -6.37545,2.76964c-0.87446,0.30113 -6.69067,1.90843 -6.94739,1.82411c-0.13233,-0.04346 -0.26103,-0.09344 -0.38645,-0.14923c-2.17277,0.90041 -3.85437,1.61709 -5.77634,3.96246l-0.17155,0.06525l0.0502,0.05448l-1.81701,1.67446c-0.56007,0.52747 -1.35527,0.79019 -2.1698,0.6397c-1.35773,-0.25086 -2.25503,-1.55489 -2.00417,-2.91262c0.04909,-0.26567 0.1385,-0.51369 0.26074,-0.73895l1.16521,-2.27043l0.02513,0.0129c0.00906,-0.03697 0.01835,-0.07389 0.02788,-0.11077c0.097,-0.37533 0.23992,-0.73772 0.41584,-1.0911c-0.15098,-0.40803 -0.19734,-0.86079 -0.11256,-1.31968l0.54507,-2.95006c-0.2713,-0.79516 0.44624,-3.10501 1.07748,-4.92958c0.73701,-2.98254 1.59513,-5.88333 2.51568,-8.92758c0.66667,-2.20466 0.73417,-4.57575 1.52218,-6.74001c1.21253,-3.3302 3.0902,-5.75127 4.30613,-8.80546l-0.02815,-0.09102c0,0 -0.0771,-0.5509 0.1013,-1.16934c-0.10568,-0.36272 -0.13045,-0.75499 -0.05712,-1.15184l0.49965,-2.70423l0.11748,0.0217l-0.05595,-0.27817c0.97406,-2.35772 1.34486,-4.94657 2.41698,-7.26135c2.49851,-5.39444 6.68655,-10.54123 8.30584,-16.3953c0.79457,-2.87253 1.22303,-5.99781 1.54651,-9.01159c-0.19651,-0.11995 -0.38816,-0.21815 -0.57373,-0.28702c-4.94046,-1.83344 -10.93224,-0.2369 -15.72001,-2.37712c-1.36633,-0.61077 -2.50614,-1.6367 -3.75921,-2.45505c0.12559,-1.5379 0.00807,-3.11537 0.37676,-4.6137c0.44142,-1.79385 2.12092,-3.03662 2.98569,-4.66908c0.37049,-0.6994 0.29247,-1.57501 0.638,-2.28707c3.75243,-7.73298 9.75567,-13.71156 16.53559,-18.67302c2.47514,-1.81127 4.3148,-4.22595 6.57516,-6.21904c2.2306,-1.96685 5.03611,-3.27262 7.73155,-4.436c0.0393,-0.17023 0.07521,-0.34208 0.1076,-0.51668c-0.85112,-2.29371 -0.41156,-6.69271 0.58256,-7.63015c0.2861,-0.26978 0.65636,-0.48454 1.07406,-0.64074c0.09839,-0.73319 0.72646,-1.2986 1.48659,-1.2986c0.15684,0 0.30804,0.02407 0.45014,0.06872l0.34986,-0.46872c0,0 0.9,-1.2 2.1,-0.3c0.05045,0.03784 0.09719,0.0762 0.14044,0.11499c0.65231,-0.53496 1.26791,-0.9077 1.60736,-0.9077c1.56807,0 2.95857,2.68752 3.55128,4.59133c0.18893,0.25093 0.30092,0.56307 0.30092,0.90137c0,0.09051 -0.00802,0.17916 -0.02338,0.26526c0.01161,0.08492 0.01945,0.16346 0.02338,0.23474v1c0,0 0,1.5 -1.5,1.5zM137.21346,98.18972c0.00847,0.00302 0.0169,0.00607 0.02531,0.00916c0.10523,-0.03084 0.20733,-0.05612 0.30687,-0.07625c-0.0241,-0.03555 -0.04715,-0.07126 -0.06893,-0.10719c-0.16563,-0.27316 0.33166,-0.95828 0.0122,-0.95828c-0.32579,0 -0.05312,0.66366 -0.19218,0.95828c-0.02491,0.05279 -0.05282,0.11155 -0.08327,0.17428z" fill="#0077ff" stroke="none" stroke-width="0.5" stroke-linecap="butt"/><path d="M133.55967,214.68837l-17.07764,5.74276l17.59601,-7.17237l3.1342,-0.73728l-2,3.16667" fill="none" stroke="#000000" stroke-width="3" stroke-linecap="round"/><path d="M116.5916,221.21407l-16.94137,5.00524l-8.73784,6.0125l1.18895,-9.18689l3.73539,-16.08911l6.74682,-21.38003l3.31862,-11.08148" fill="none" stroke="#000000" stroke-width="3" stroke-linecap="round"/><path d="M96.62921,140.74783l-3.15566,8.82351l15.24201,2.81619l5.07178,1.44554l-8.78565,22.78294" fill="none" stroke="#000000" stroke-width="3" stroke-linecap="round"/><path d="M94.71071,147.00338l8.04017,-20.12414l12.80474,-12.88802l14.62722,-8.99205l-0.47059,-4.97768l2.83333,-5.66667l5,-0.5" fill="none" stroke="#000000" stroke-width="3" stroke-linecap="round"/><path d="M295.2416,247.05213l-0.5171,-0.39117c-0.4743,-0.49335 -0.80949,-1.10939 -1.17393,-1.69715c-0.11613,-0.04787 -0.23052,-0.09302 -0.34275,-0.13413c-0.73126,-0.26783 -1.70933,-1.02357 -2.66788,-1.7551c-1.21686,-0.58391 -2.40758,-1.1917 -3.61337,-1.76612c-0.2867,-0.03976 -0.56758,-0.09646 -0.82627,-0.21842c-0.38755,-0.18271 -0.75134,-0.4073 -1.10199,-0.65496c-1.01239,-0.42955 -2.0496,-0.81627 -3.13442,-1.12844c-3.11613,-1.7106 -6.94373,-1.95616 -10.14863,-3.52638c-0.27697,-0.1357 -0.5557,-0.2747 -0.83607,-0.41633c-0.31911,-0.09491 -0.63363,-0.19889 -0.94256,-0.31402c-0.96305,-0.35888 -1.77895,-1.04028 -2.72357,-1.44525c-2.23847,-0.95965 -4.88573,-1.5807 -7.21993,-2.25473c-1.98348,-0.43872 -3.95677,-0.92546 -5.91869,-1.45222l-1.08983,-0.48771c-0.19557,0.02874 -0.39148,0.04868 -0.58787,0.05274c0,0 -1.49977,0.02634 -1.5261,-1.47343c-0.02107,-1.19974 0.93445,-1.4566 1.3176,-1.51135c0.64067,-0.40362 1.40681,-0.05834 1.40681,-0.05834l0.12295,0.05586c4.42113,0.14048 8.72673,1.25372 12.83087,3.22346c1.59915,0.7675 3.15184,1.80364 4.76756,2.67377c1.46115,0.43753 3.06992,0.32437 4.54702,0.73472c0.70087,0.19472 1.31878,0.62122 2.00685,0.8572c1.47652,0.50638 3.13196,0.4289 4.56312,1.05205c1.35584,0.59035 2.41107,1.71793 3.61046,2.59126c0.7417,0.30644 1.47084,0.63577 2.19434,0.97808c0.43065,0.0516 0.86812,0.08305 1.25637,0.26093c0.98542,0.4515 2.23261,1.15418 3.39372,1.97081c0.51093,0.13135 1.07364,0.15271 1.46943,0.48499c0.05396,0.0453 0.10647,0.09196 0.15767,0.13986c-0.06261,-0.43633 -0.09264,-0.88237 -0.17231,-1.3136c-0.54335,-2.94073 -1.08669,-5.88148 -1.63004,-8.82223c-0.72572,-3.92765 -1.72637,-7.62437 -2.72156,-11.47143c-0.38689,-1.49554 -0.25313,-3.12569 -0.82694,-4.55993c-0.70657,-1.7661 -2.09783,-3.21479 -2.74239,-5.00447c-0.92449,-2.56695 -1.11221,-5.64049 -2.18842,-8.16663c-0.39233,-0.92087 -1.22038,-1.61506 -1.59952,-2.54146c-0.91167,-2.22758 -0.49772,-4.97376 -1.4141,-7.20587c-0.35676,-0.86899 -1.06277,-1.55235 -1.5213,-2.3722c-1.29408,-2.31383 -2.00406,-4.92908 -3.16653,-7.29469c-0.68226,-1.38838 -1.76292,-2.54254 -2.63814,-3.8181c-0.70767,-1.93833 -1.05691,-3.99018 -1.65379,-5.96545c-0.53773,-1.77956 -1.34353,-3.50074 -1.60411,-5.34141c-0.18211,-1.28644 -0.9057,-2.67866 -0.4033,-3.87685c0.90625,-2.16134 4.39009,-1.52007 5.8647,-1.67101c3.769,-0.38576 7.36114,-0.75938 11.11783,-1.45349c0.5702,-0.10536 3.69241,-0.16966 3.90783,-1.1338c0.21267,-0.9518 -1.26117,-2.40427 -1.61824,-2.86976c-2.12435,-2.76944 -4.31085,-5.47531 -6.51023,-8.18673c-0.48952,-0.73332 -2.57123,-3.84625 -2.65892,-4.01529c-0.71786,-1.38387 -0.71672,-3.05974 -1.39128,-4.46524c-0.62495,-1.30213 -2.12304,-1.97728 -3.00815,-3.11862c-1.11824,-1.44196 -1.55054,-3.33184 -2.6404,-4.79538c-1.2245,-1.64434 -1.92814,-1.54221 -3.30176,-2.68366c-4.41159,-3.66598 -9.16859,-6.81572 -13.90548,-10.07517c0,0 -1.22701,-0.84431 -0.3827,-2.07133c0.8443,-1.22701 2.07132,-0.38271 2.07132,-0.38271c4.79491,3.29937 9.60896,6.48964 14.0752,10.20105c1.29515,1.07626 2.83484,1.92499 3.85578,3.26419c1.08555,1.42395 1.47449,3.30257 2.57815,4.71254c0.96755,1.23609 2.5116,2.03435 3.2227,3.43378c0.7444,1.46497 0.74701,3.23789 1.51238,4.69201c0.6612,1.2562 1.58603,2.35489 2.37167,3.53726c2.19362,2.69816 4.41434,5.36828 6.48971,8.1592c1.1984,1.61159 2.82057,3.17637 2.07831,5.56889c-0.75277,2.42638 -2.5829,2.45805 -4.44708,2.83333c-2.48956,0.50118 -5.25667,1.31705 -7.79715,1.42929c-0.81802,0.03615 -1.63498,-0.21173 -2.45168,-0.15287c-0.97073,0.06996 -1.90146,0.44115 -2.87004,0.53646c-0.92432,0.09097 -1.85764,0.00406 -2.78627,0.02018c-0.24128,0.00419 -0.71757,-0.2005 -0.72278,0.04075c-0.01506,0.69814 0.51078,1.30405 0.67917,1.98174c0.41903,1.68634 1.01371,3.32412 1.51604,4.98755c0.54779,1.81397 0.81847,3.71094 1.45954,5.49407c0.8767,1.25522 1.9325,2.40546 2.61577,3.77561c1.17481,2.35583 1.87711,4.97542 3.16302,7.28816c0.50859,0.91471 1.26795,1.69477 1.65956,2.66535c0.90316,2.23842 0.49984,5.05136 1.42883,7.2428c0.38443,0.90684 1.19774,1.58892 1.58134,2.49609c1.09137,2.58094 1.31031,5.67547 2.23775,8.29525c0.6349,1.79341 2.04904,3.23371 2.74266,5.00523c0.59526,1.52033 0.49443,3.23357 0.90499,4.81382c1.01636,3.91189 2.02929,7.68357 2.76729,11.67772c0.66863,3.6188 1.84704,7.49078 2.06303,11.16568c0.07345,1.24984 0.97785,3.07705 -0.07454,3.75526c-0.00314,0.00203 -0.00628,0.00403 -0.00943,0.00603c0.02521,0.28395 -0.04499,0.61256 -0.29381,0.97418c-0.8503,1.23571 -2.08601,0.38542 -2.08601,0.38542z" data-paper-data="{&quot;index&quot;:null}" fill="#000000" stroke="none" stroke-width="0.5" stroke-linecap="butt"/><path d="M244.31208,113.06446v-1c0.00393,-0.07129 0.01177,-0.14982 0.02338,-0.23474c-0.01537,-0.0861 -0.02338,-0.17474 -0.02338,-0.26526c0,-0.3383 0.11199,-0.65044 0.30092,-0.90137c0.5927,-1.90381 1.9832,-4.59133 3.55128,-4.59133c0.33945,0 0.95505,0.37273 1.60736,0.9077c0.04325,-0.03879 0.08999,-0.07715 0.14044,-0.11499c1.2,-0.9 2.1,0.3 2.1,0.3l0.34985,0.46872c0.1421,-0.04465 0.29331,-0.06872 0.45014,-0.06872c0.76013,0 1.38821,0.56541 1.4866,1.2986c0.4177,0.1562 0.78796,0.37096 1.07406,0.64074c0.99412,0.93744 1.43368,5.33644 0.58256,7.63015c0.03239,0.17459 0.0683,0.34645 0.1076,0.51668c2.69544,1.16338 5.50095,2.46915 7.73155,4.436c2.26036,1.99309 4.10002,4.40776 6.57516,6.21904c6.77992,4.96146 12.78316,10.94004 16.53559,18.67302c0.34553,0.71206 0.26751,1.58767 0.638,2.28707c0.86476,1.63246 2.54427,2.87524 2.98569,4.66908c0.3687,1.49832 0.25117,3.07579 0.37676,4.6137c-1.25307,0.81835 -2.39288,1.84428 -3.75921,2.45505c-4.78777,2.14022 -10.77955,0.54368 -15.72001,2.37712c-0.18558,0.06887 -0.37723,0.16708 -0.57374,0.28702c0.32349,3.01378 0.75195,6.13905 1.54651,9.01159c1.61929,5.85407 5.80734,11.00086 8.30585,16.3953c1.07212,2.31479 1.44292,4.90363 2.41698,7.26135l-0.05595,0.27817l0.11748,-0.0217l0.49964,2.70423c0.07333,0.39685 0.04856,0.78912 -0.05712,1.15184c0.1784,0.61844 0.10131,1.16934 0.10131,1.16934l-0.02815,0.09102c1.21593,3.05419 3.0936,5.47526 4.30613,8.80546c0.78801,2.16426 0.85551,4.53536 1.52218,6.74002c0.92056,3.04425 1.77867,5.94504 2.51568,8.92758c0.63125,1.82457 1.34879,4.13441 1.07748,4.92958l0.54507,2.95006c0.08479,0.45889 0.03842,0.91165 -0.11255,1.31968c0.17591,0.35339 0.31884,0.71578 0.41584,1.0911c0.00953,0.03688 0.01882,0.0738 0.02788,0.11077l0.02513,-0.0129l1.16521,2.27043c0.12224,0.22526 0.21165,0.47328 0.26074,0.73895c0.25086,1.35773 -0.64644,2.66176 -2.00417,2.91262c-0.81453,0.1505 -1.60972,-0.11223 -2.1698,-0.6397l-1.81702,-1.67446l0.0502,-0.05448l-0.17155,-0.06525c-1.92198,-2.34537 -3.60357,-3.06205 -5.77634,-3.96246c-0.12543,0.05579 -0.25412,0.10577 -0.38646,0.14923c-0.25673,0.08432 -6.07294,-1.52298 -6.9474,-1.82411c-2.21802,-0.7638 -4.31864,-1.73387 -6.37545,-2.76964c-2.37952,-0.8507 -4.68189,-1.81757 -7.01543,-2.72059c-2.80057,-0.44584 -5.60044,-0.91399 -8.3263,-1.59064c0,0 -1.51203,-0.37632 -1.8516,-1.72846c-0.38712,-0.32711 -0.7239,-0.81432 -0.77211,-1.52994c-0.53522,-1.41478 0.67625,-2.59117 0.67625,-2.59117c4.26215,-3.87178 3.73713,-10.53563 4.47411,-15.80452c0.54212,-3.87575 -0.54043,-7.22194 -0.34697,-11.13803c0.10847,-2.19585 0.83423,-4.35086 0.78411,-6.54882c-0.04371,-1.91711 -0.81268,-3.75222 -1.0695,-5.65256c-0.53218,-3.93791 -0.27218,-8.16098 -0.43542,-12.14902c0.00009,-0.1029 -0.00033,-0.20562 -0.00122,-0.30817c-0.33249,-1.55953 -0.65984,-3.11395 -0.94073,-4.65912l0.0606,-0.20729l-0.07273,0.00127l-0.04759,-2.71008c-0.10579,-1.30855 -0.16303,-2.621 -0.15022,-3.93945c0.04404,-4.53303 -0.28352,-8.96831 -0.48323,-13.48265c-0.07556,-1.70792 0.21027,-3.33904 0.33691,-4.99331c-0.88687,-5.05616 -1.59146,-10.00973 -2.00706,-15.16172l0.10263,-0.20013l-0.09392,-0.00786l0.13065,-1.56004l-0.10572,-0.57218c-0.08168,-0.44209 -0.04164,-0.87847 0.09639,-1.27466c-0.02241,-0.03765 -0.04396,-0.07632 -0.06449,-0.11601c-0.13191,0.03794 -0.27128,0.05826 -0.41539,0.05826v0h-1.5v-0.0825l-0.24027,0.06314c-0.76292,-0.29642 -1.74483,-0.27768 -2.28877,-0.88927c-0.78662,-0.88447 -1.53779,-3.11653 -1.64329,-5.26277c-0.07287,-0.14491 -0.14077,-0.29064 -0.20342,-0.43665c-0.17207,0.06761 -0.37793,0.10806 -0.62425,0.10806c-1.5,0 -1.5,-1.5 -1.5,-1.5zM248.65207,110.01544c-0.13906,-0.29462 0.13361,-0.95828 -0.19218,-0.95828c-0.31946,0 0.17783,0.68512 0.0122,0.95828c-0.02178,0.03593 -0.04483,0.07164 -0.06893,0.10719c0.09954,0.02013 0.20164,0.04541 0.30687,0.07625c0.00841,-0.00309 0.01684,-0.00614 0.02531,-0.00916c-0.03045,-0.06273 -0.05836,-0.12149 -0.08327,-0.17428z" data-paper-data="{&quot;index&quot;:null}" fill="#0077ff" stroke="none" stroke-width="0.5" stroke-linecap="butt"/><path d="M250.73656,227.68815l-2,-3.16666l3.13421,0.73727l17.59601,7.17237l-17.07764,-5.74276" data-paper-data="{&quot;index&quot;:null}" fill="none" stroke="#000000" stroke-width="3" stroke-linecap="round"/><path d="M280.04664,186.49431l3.31862,11.08148l6.74682,21.38003l3.73539,16.08911l1.18895,9.18689l-8.73784,-6.0125l-16.94137,-5.00524" data-paper-data="{&quot;index&quot;:null}" fill="none" stroke="#000000" stroke-width="3" stroke-linecap="round"/><path d="M280.94711,188.61601l-8.78564,-22.78294l5.07178,-1.44554l15.24201,-2.81619l-3.15566,-8.82351" data-paper-data="{&quot;index&quot;:null}" fill="none" stroke="#000000" stroke-width="3" stroke-linecap="round"/><path d="M248.40323,105.85482l5,0.5l2.83334,5.66666l-0.47059,4.97768l14.62722,8.99205l12.80474,12.88802l8.04017,20.12414" data-paper-data="{&quot;index&quot;:null}" fill="none" stroke="#000000" stroke-width="3" stroke-linecap="round"/><path d="M131.37801,185.36371v3.02238c0,1.38071 -1.11929,2.5 -2.5,2.5c-1.34873,0 -2.44801,-1.06804 -2.49821,-2.40448l-0.21662,-4.9822c-0.11251,-0.46789 -0.21005,-0.94875 -0.29395,-1.44055c-0.64175,-0.45253 -1.06093,-1.19958 -1.06093,-2.04454c0,0 0,-0.52324 0,-0.52324l0,-4.09004c-0.22426,-2.18872 0.03801,-4.39559 1.04834,-6.88269c0.16349,-1.69318 0.35154,-3.32479 0.52136,-4.82981c0,0 0,-3.03394 0,-3.03394c0,-0.52324 0,-1.04647 0,-1.56971c0,0 0,-2.5 2.5,-2.5c0.35996,0 0.66809,0.05183 0.93185,0.14056l0.53972,-0.93828c0.42546,-0.77212 1.24718,-1.29523 2.19108,-1.29523c1.38071,0 2.5,1.11929 2.5,2.5v4.2497c1.74739,1.36127 1.15302,4.43678 1.00446,6.67141c-0.02064,0.31053 -0.0768,0.6129 -0.15799,0.90962c0.81868,3.22938 -0.07075,7.47073 -0.33853,9.89801l-0.77188,1.88843c0,0 -1.00385,2.0077 -3.01154,1.26706l-0.20598,0.61733c-0.0468,0.15202 -0.10771,0.29786 -0.1812,0.43599c0,0.81141 0,1.62282 0,2.43422z" fill="#0077ff" stroke="none" stroke-width="0.5" stroke-linecap="butt"/></g></g></svg>