<svg version="1.1" xmlns="http://www.w3.org/2000/svg" xmlns:xlink="http://www.w3.org/1999/xlink" width="249.69819" height="209.42376" viewBox="0,0,249.69819,209.42376"><g transform="translate(-79.5569,-98.47713)"><g data-paper-data="{&quot;isPaintingLayer&quot;:true}" fill-rule="nonzero" stroke-linejoin="miter" stroke-miterlimit="10" stroke-dasharray="" stroke-dashoffset="0" style="mix-blend-mode: normal"><path d="M137.71065,296.18546c0.66721,0.15468 1.35863,0.20307 2.05422,0.22416c-0.73567,-0.39482 -1.45844,-0.82524 -2.19523,-1.22853c0.10539,-0.68525 0.21119,-1.36983 0.31604,-2.05343c1.60658,0.86117 3.13892,1.88554 4.83419,2.41574c10.6807,3.34046 21.16729,7.78584 32.33966,9.59754c14.46294,2.3453 26.82149,-0.89296 39.72524,-7.51535c12.4503,-6.38969 24.9459,-12.70121 37.30951,-19.25718c3.25161,-1.72235 7.21464,-3.78592 9.98873,-6.21351c1.95329,-1.70931 3.29928,-4.19761 5.12782,-6.04681c2.84612,-2.87826 5.87957,-4.97536 8.05186,-8.49109c1.59145,-2.57566 4.0698,-5.26561 4.15293,-8.3196c0.13974,-2.83217 1.13978,-5.238 1.87687,-7.95291c2.67913,-9.86791 7.47566,-22.58684 4.49958,-32.67474c-0.69353,-2.48331 0.57393,-3.76679 0.29917,-5.97561c-0.1505,-1.20979 -1.16677,-2.14123 -1.72327,-3.22592c-1.2175,-2.37311 -2.43484,-4.74629 -3.64856,-7.12134c-0.1225,-0.23971 -0.24481,-0.47911 -0.36688,-0.71821c-0.13743,0.15832 -0.2692,0.31875 -0.38008,0.48687c0,0 -0.59156,0.80626 -1.39782,0.21471c-0.80626,-0.59156 -0.21471,-1.39782 -0.21471,-1.39782c0.33257,-0.38333 0.92747,-0.64739 0.99773,-1.15c0.00463,-0.03312 0.00664,-0.06581 0.00628,-0.09813c-0.15209,-0.30086 -0.30352,-0.60148 -0.45419,-0.90197c-0.07665,-0.10649 -0.14905,-0.2136 -0.20403,-0.32338c-0.19715,-0.39367 -0.39026,-0.82274 -0.58581,-1.26675c-0.48904,-0.99513 -0.96732,-1.99064 -1.43055,-2.99012c-0.18548,-0.31588 -0.38118,-0.61308 -0.59013,-0.88206c-1.7524,-2.25594 -4.54917,-2.49877 -6.47959,-4.27642c-0.97446,-0.89735 -0.93575,-2.5995 -1.93157,-3.47311c-1.64679,-1.4447 -6.31309,-1.97251 -7.44824,0.47321c-0.5244,1.12985 -0.3828,2.46239 -0.62582,3.68406c-0.0418,0.21006 -0.78804,3.98366 -0.82928,4.08988c-0.47866,1.23269 -1.62274,2.14236 -2.0598,3.39041c-0.43181,1.23308 -0.16236,2.62428 -0.49213,3.88848c-0.67006,2.56879 -1.58348,5.03225 -2.25431,7.62731c-0.48309,1.86884 -1.56565,5.51308 -4.25223,5.46404c-1.73175,-0.0316 -2.78386,-2.17332 -3.52226,-3.31476c-2.20319,-3.4058 -4.02038,-6.95468 -5.87363,-10.55977c-2.13368,-4.15057 -4.26305,-8.30337 -6.39392,-12.45539c-0.55142,-1.07443 -1.49281,-4.22916 -2.39759,-4.95797c-0.8038,-0.64747 -3.48802,1.35792 -3.82515,1.91662c-0.65149,1.07968 -0.24738,2.5315 -0.64831,3.72707c-0.82055,2.44682 -2.33259,4.53659 -2.32252,7.25089c0.00513,1.38058 0.5048,2.71486 0.72842,4.07722c-1.6361,3.38988 -3.74217,5.11129 -6.66316,7.34126l0.12944,1.59071c0.04165,0.39856 -0.1603,0.79992 -0.53824,0.99389c-0.48233,0.24753 -1.072,0.06524 -1.33202,-0.40631l-0.97205,-1.74306l0.18091,-0.10089c-3.15176,-4.22484 -5.20466,-9.48871 -7.58256,-14.12196c-0.98686,-1.92287 -1.9688,-5.32801 -3.45951,-6.85639c-2.86293,-2.93528 -8.63992,2.59806 -10.03543,4.78253c-1.28616,2.57979 -2.23063,5.09996 -4.69031,6.78879c-0.75428,0.51789 -1.43893,1.57365 -2.34262,1.43052c-2.17845,-0.34503 -3.44036,-5.76021 -4.69287,-7.19735c-0.48664,-0.55837 -1.02901,-1.02492 -1.61324,-1.41931c-0.02766,2.10389 -0.85582,3.99223 -0.8443,6.14087c0.01033,1.92589 1.42294,3.8705 1.48406,5.78457c0.04196,1.31399 -0.97451,2.54431 -0.84444,3.85253c0.23803,2.39387 1.41739,5.31093 1.86638,7.79064c-0.12969,1.25151 0.45997,2.47515 0.62615,3.72234c0.25093,1.88321 -0.67819,4.25561 -0.81341,6.15581c-0.4238,5.9555 -0.16781,12.47941 -2.85686,18.03885c-1.88494,3.89701 -5.44505,8.13825 -7.93984,11.67909c-1.44724,2.04264 -2.87211,5.01838 -4.65368,6.73551c-1.8412,1.7746 -4.383,2.94577 -6.1654,4.92692c-1.33131,1.47974 -2.15527,3.42493 -3.51138,4.88473c-0.90574,0.97499 -2.1648,1.57867 -3.06297,2.56064c-1.33635,1.46104 -2.02979,3.62902 -3.48039,4.98274c-2.19717,2.05044 -5.95553,4.16475 -8.62516,5.54117c-0.56514,0.2902 -1.1303,0.58029 -1.69542,0.87044c0.107,-0.29668 0.21588,-0.6079 0.32686,-0.93531c-1.19059,0.58146 -2.07695,1.44626 -3.40531,2.0112c-3.49166,1.48497 -7.45732,3.30691 -11.19786,4.06377c-4.71306,0.95364 -9.42336,0.30736 -14.12433,1.40425c-7.63052,1.78046 -15.53707,1.36724 -23.33186,1.36724c-1.3025,0 -4.70061,-0.65113 -5.86732,-0.07612c-0.43619,0.21497 -1.24577,0.68995 -1.77339,0.83361c0.21144,0.26135 0.44125,0.59703 0.58668,0.77444c9.28155,6.87187 22.85337,9.49832 34.21774,9.71758c7.14717,0.86034 13.96658,0.78792 20.93645,2.40373zM142.36794,271.31207c0,0 0.44088,-0.11022 0.80252,0.11516c2.39908,-1.27317 5.33183,-3.00317 7.12856,-4.6799c1.38942,-1.29663 2.07997,-3.46091 3.36915,-4.87038c0.90161,-0.98575 2.16424,-1.59329 3.07346,-2.57202c1.3456,-1.44847 2.16565,-3.38934 3.48986,-4.86118c1.81548,-2.01791 4.38506,-3.24419 6.26905,-5.03383c1.68442,-1.60006 3.03999,-4.52064 4.40495,-6.44716c1.19486,-1.67603 1.91893,-3.42717 3.13631,-5.09576c1.4446,-1.98004 3.57111,-4.09845 4.63499,-6.29795c2.57161,-5.31665 2.2573,-11.61794 2.66234,-17.30996c0.12008,-1.68741 1.08371,-4.07093 0.82842,-5.73134c-0.20085,-1.30632 -0.74974,-2.5949 -0.64407,-3.91233c-0.46064,-2.41377 -1.65976,-5.35409 -1.8602,-7.70091c-0.11505,-1.34711 0.88378,-2.6175 0.83722,-3.96872c-0.06632,-1.9245 -1.47455,-3.86871 -1.48512,-5.83991c-0.01347,-2.51087 1.27371,-4.64371 0.76278,-7.22523c-0.58825,-0.23031 -1.19751,-0.42066 -1.81793,-0.58495l0.4106,-1.87008c0.0797,0.02035 0.15928,0.04104 0.23871,0.06208l0.00007,-0.00004c-0.06402,-0.09735 -0.12693,-0.19541 -0.18758,-0.29494l0.18918,-0.86164c0,0 -0.19596,-0.84 -0.81032,-1.58872c0.08411,-1.71578 0.91231,-3.5895 1.20058,-5.16244c0.37763,-2.06053 0.50756,-4.16399 0.59366,-6.25102c0.55226,-0.3797 1.31787,-0.56093 1.65678,-1.13912c0.67504,-1.15161 -0.56741,-2.83216 0.07195,-4.00396c1.18571,-2.17312 4.61373,-2.6568 5.71683,-5.3103c1.02649,-2.46922 1.90926,-5.23067 4.15836,-7.15489c1.92966,-1.65093 4.87358,-2.10697 6.54097,-4.21006c0.83519,-1.05345 0.8526,-2.62205 1.72325,-3.64639c1.58092,-1.86 4.77195,-3.31586 6.79325,-4.70245c2.24323,-1.53883 4.41191,-3.12323 6.82838,-4.37803c1.57431,-0.81749 3.78771,-1.53898 5.17089,-2.64184c1.50338,-1.1987 2.37888,-3.26237 3.81431,-4.55479c5.28705,-4.7603 13.17158,-7.55673 19.44614,-10.77706c3.5587,-1.82639 7.11741,-3.65277 10.67611,-5.47914c1.63686,-0.84006 3.78911,-2.42026 5.57337,-2.82509c1.30405,-0.29588 2.70398,0.39569 4.01011,0.10911c1.92983,-0.42343 3.70011,-1.8363 5.78715,-1.98326c2.58643,-0.18213 5.3382,1.48117 7.87635,1.22649c2.28647,-0.22942 3.44212,-1.42122 5.96024,-1.2503c3.92858,0.66426 8.2752,-0.53761 12.04611,0.3507c0.61795,0.14557 1.03837,0.83427 1.66735,0.92055c0.65879,0.09037 1.29098,-0.51878 1.9492,-0.4244c0.75291,0.10796 1.35471,0.69414 2.05193,0.99812c1.6634,0.72523 4.46529,0.98268 5.8824,2.05828c0.57628,0.43741 0.72439,1.26269 1.19669,1.81074c1.11799,1.2973 1.27726,0.97891 2.9177,1.09314l1.618,1.19974c0,0 0.73989,0.67273 0.06716,1.41262c-0.67273,0.73989 -1.41262,0.06716 -1.41262,0.06716l-0.45839,-0.68818c-1.51124,-0.16812 -3.17256,-0.63669 -4.21545,-1.74325c-0.41851,-0.44406 -0.46175,-1.19103 -0.93876,-1.57155c-1.19728,-0.9551 -4.03296,-1.15229 -5.4725,-1.81263c-0.52108,-0.23903 -0.93072,-0.77278 -1.49986,-0.84165c-0.66354,-0.08031 -1.2981,0.51553 -1.96003,0.42293c-0.69188,-0.09679 -1.18636,-0.78852 -1.86412,-0.95794c-2.39011,-0.59747 -5.36663,0.48312 -7.80188,0.36574c-0.08998,-0.00434 -3.83285,-0.64369 -4.01817,-0.67521c-2.35546,-0.21495 -3.26572,1.02969 -5.51533,1.2554c-2.59756,0.26063 -5.33171,-1.40832 -7.93434,-1.22152c-1.95779,0.14051 -3.68095,1.55939 -5.50963,1.94386c-1.30102,0.27353 -2.69025,-0.40843 -3.98677,-0.11425c-1.61799,0.36711 -3.62095,1.89355 -5.10274,2.65402c-3.55871,1.82637 -7.1174,3.65274 -10.67609,5.47913c-6.10684,3.13424 -13.87562,5.85118 -19.02111,10.48404c-1.4734,1.32661 -2.35186,3.39331 -3.9057,4.63224c-3.49718,2.78843 -8.35224,4.5243 -12.11475,7.10535c-1.86496,1.27934 -4.9475,2.63874 -6.40071,4.34847c-1.50203,1.76718 -1.40869,3.39593 -3.41124,4.9977c-2.97776,2.38182 -6.80819,3.64446 -8.39118,7.51885c-0.86361,2.11368 -1.1156,3.75419 -2.97371,5.49563c-0.90009,0.84357 -2.54068,0.88923 -3.13154,1.97212c-0.6379,1.1691 0.5319,2.80531 -0.06702,3.99485c-0.29822,0.5923 -1.09704,0.74533 -1.64555,1.118c0.20443,2.60347 -0.26871,5.15068 -0.87482,7.6814c-0.1037,0.43302 -0.77698,2.9328 -0.66346,3.5178c0.21683,1.11741 1.15007,1.98 1.61313,3.01732c1.306,0.59899 2.51185,1.41194 3.53766,2.58499c1.12445,1.28585 2.25723,3.78998 3.03895,5.33847c0.19205,0.38043 0.02626,1.14114 0.44872,1.19715c0.43323,0.05744 0.49377,-0.72953 0.81096,-1.03015c2.0106,-1.90551 2.92683,-3.69213 4.1842,-6.20433c2.26837,-3.45974 8.94641,-9.1769 13.16476,-5.22544c0.14695,0.13765 1.85376,3.49656 2.01961,3.81973c1.52195,2.96555 3.04378,5.93115 4.56616,8.89648c1.09825,2.1392 3.53058,5.3778 4.26412,8.10827c2.264,-2.05997 4.49519,-3.61037 6.01477,-6.37108c-1.04933,-4.74639 0.19495,-7.28782 1.67812,-11.68122c0.44923,-1.33067 0.10198,-2.93213 0.83577,-4.12965c1.07186,-1.74921 4.60577,-3.74381 6.62873,-2.54969c1.14262,0.67448 2.45492,4.4972 3.08152,5.71814c2.13066,4.15162 4.25983,8.304 6.3933,12.45418c1.82589,3.55186 3.63906,7.02263 5.77871,10.3949c0.04697,0.07401 1.311,2.37972 1.87925,2.39443c1.8072,0.0468 2.54737,-4.77774 2.75617,-5.8421c0.40567,-2.06791 1.2505,-3.74637 1.77432,-5.75447c0.23446,-0.89886 0.25474,-3.23075 0.53977,-4.04469c0.44431,-1.26876 1.59641,-2.20019 2.08302,-3.45335c0.46176,-1.18915 0.48315,-2.50515 0.73213,-3.75627c0.27741,-1.39344 0.13939,-2.92804 0.79793,-4.18699c1.85782,-3.5517 7.78422,-3.4872 10.55141,-1.08793c1.01304,0.87835 0.97904,2.6036 1.96966,3.50715c0.94816,0.86483 2.40829,0.94338 3.47576,1.65573c0.04544,0.03032 0.09046,0.06079 0.13506,0.09141c-1.1881,-3.00885 -2.18541,-6.10249 -2.88207,-9.37277c-1.4663,-6.88312 -5.41497,-14.68732 -4.03855,-21.87307c0.34313,-1.79131 1.9003,-3.99009 2.68991,-5.64609c2.0537,-4.30708 4.3061,-8.33707 6.78254,-12.41666c1.65445,-2.04961 3.23737,-4.59695 5.17245,-6.38003c6.67401,-6.14977 16.63209,-9.69195 24.62394,-13.79347c0,0 0.88968,-0.4566 1.34627,0.43308c0.4566,0.88968 -0.43308,1.34627 -0.43308,1.34627c-7.81563,4.01108 -17.65499,7.47073 -24.18186,13.48492c-1.83163,1.68776 -3.31901,4.12039 -4.89111,6.05881c-2.40954,3.99008 -4.60798,7.92107 -6.61387,12.12788c-0.70893,1.48678 -2.22686,3.5475 -2.5304,5.15892c-1.29085,6.85283 2.63015,14.51214 4.02986,21.08273c1.68486,7.90909 5.18738,14.75413 8.84399,21.90945c1.21325,2.3741 2.43009,4.74635 3.64711,7.11851c0.18053,0.35188 1.90044,3.66646 1.92849,3.89199c0.29334,2.35813 -1.12651,3.24504 -0.3656,5.65658c3.10234,10.51588 -1.69577,23.48123 -4.48772,33.7647c-0.69474,2.55891 -1.69861,4.85469 -1.80909,7.52007c-0.2127,3.54705 -2.60122,6.29869 -4.45025,9.28102c-2.26284,3.64975 -5.37539,5.85643 -8.33032,8.84474c-1.86608,1.88716 -3.23619,4.39835 -5.23287,6.14564c-2.89085,2.52977 -6.9846,4.67898 -10.36886,6.47539c-12.37149,6.56015 -24.87501,12.87582 -37.33327,19.26958c-13.27902,6.815 -26.07452,10.12379 -40.95856,7.71021c-9.9316,-1.6105 -19.38716,-5.21943 -28.85167,-8.41821c-0.29469,0.33522 -0.77725,0.33522 -0.77725,0.33522l-1.22975,-0.02675c-1.95484,-0.97741 -4.41894,-0.36606 -6.57568,-0.86157c-6.89109,-1.58321 -13.60465,-1.50725 -20.66983,-2.367c-3.53858,-0.06369 -6.63702,-0.34634 -10.02765,-1.27719c-3.68385,-1.01136 -7.95706,-0.7438 -11.53688,-2.0104c-4.77956,-1.6911 -9.78887,-3.87104 -13.90619,-6.98903c-0.60079,-0.76304 -2.15164,-2.1779 -1.41152,-3.48256c0.42124,-0.74255 1.69847,-0.30424 2.47481,-0.65938c1.31296,-0.60062 1.7346,-0.82612 3.38268,-0.82612c8.90188,0 18.16096,0.71892 26.87741,-1.31492c4.72632,-1.10281 9.44046,-0.46247 14.1664,-1.41359c3.62156,-0.72887 7.40671,-2.54212 10.80214,-3.93623c1.80884,-0.74268 2.91314,-2.05137 4.91151,-2.5554z" data-paper-data="{&quot;index&quot;:null}" fill="#000000" stroke="none" stroke-width="0.5" stroke-linecap="butt"/><path d="M139.79564,296.37022c-0.6956,-0.02108 -1.44951,0.00858 -2.11672,-0.1461c-6.96987,-1.61581 -13.7965,-1.55068 -20.94367,-2.41101c-11.36436,-0.21926 -24.94303,-2.85696 -34.22458,-9.72883c-0.14543,-0.17741 -0.3754,-0.51348 -0.58685,-0.77483c0.52761,-0.14365 1.4291,-0.65805 1.86529,-0.87303c1.1667,-0.57501 4.56435,0.07507 5.86685,0.07507c7.79479,0 15.69898,0.40869 23.32951,-1.37177c4.70098,-1.09689 9.40898,-0.45416 14.12204,-1.4078c3.74054,-0.75687 7.70461,-2.58094 11.19626,-4.06592c1.32836,-0.56495 2.21442,-1.43012 3.40501,-2.01158c-0.11098,0.32741 -0.22016,0.63827 -0.32716,0.93494c0.56512,-0.29015 1.13005,-0.58054 1.69518,-0.87073c2.66963,-1.37642 6.3521,-3.42563 8.54927,-5.47607c1.4506,-1.35372 2.14281,-3.52314 3.47916,-4.98418c0.89817,-0.98197 2.15719,-1.5857 3.06293,-2.56069c1.35611,-1.4598 2.17836,-3.40721 3.50967,-4.88695c1.7824,-1.98115 4.32368,-3.15305 6.16488,-4.92765c1.78157,-1.71713 3.20107,-4.70277 4.64831,-6.74541c2.49479,-3.54084 6.07676,-7.84443 7.9617,-11.74144c2.68905,-5.55944 2.45551,-12.08971 2.87931,-18.04521c0.13522,-1.9002 1.06671,-4.17264 0.81578,-6.05585c-0.16618,-1.24719 -0.75498,-2.47084 -0.62529,-3.72235c-0.44899,-2.47971 -1.62638,-5.39686 -1.86441,-7.79073c-0.13007,-1.30822 0.88523,-2.53848 0.84327,-3.85247c-0.06112,-1.91407 -1.47891,-3.95854 -1.48924,-5.88443c-0.01152,-2.14864 0.81769,-4.03704 0.84535,-6.14093c0.58423,0.39439 1.12796,0.8609 1.6146,1.41927c1.25251,1.43714 2.51901,6.85246 4.69746,7.19749c0.90369,0.14313 1.59049,-0.91242 2.34477,-1.43031c2.45968,-1.68883 3.40737,-4.20851 4.69353,-6.7883c1.39551,-2.18447 7.17909,-7.71611 10.04202,-4.78083c1.49071,1.52838 2.47682,4.93512 3.46368,6.85799c2.3779,4.63325 4.44119,9.90323 7.59295,14.12807l-0.18097,0.10084l0.97344,1.74416c0.26002,0.47155 0.85064,0.65463 1.33297,0.4071c0.37794,-0.19397 0.51481,-0.51941 0.47316,-0.91797l-0.06533,-1.66745c2.92099,-2.22997 4.96344,-3.87423 6.59954,-7.26411c-0.22362,-1.36236 -0.72144,-2.69517 -0.72657,-4.07575c-0.01007,-2.7143 1.50334,-4.80307 2.32389,-7.24989c0.40093,-1.19557 0.05345,-2.7298 0.70494,-3.80948c0.33713,-0.5587 3.02241,-2.56336 3.82621,-1.91589c0.90478,0.72881 1.84861,3.88539 2.40003,4.95982c2.13087,4.15202 4.26647,8.3108 6.40015,12.46137c1.85325,3.60509 3.67528,7.16051 5.87847,10.56631c0.7384,1.14144 1.79209,3.28589 3.52384,3.31749c2.68658,0.04904 3.68191,-3.54633 4.165,-5.41517c0.67083,-2.59506 1.58592,-5.05585 2.25598,-7.62464c0.32977,-1.2642 0.06127,-2.65404 0.49308,-3.88712c0.43706,-1.24805 1.58163,-2.15705 2.06029,-3.38974c0.04124,-0.10622 0.78836,-3.87867 0.83016,-4.08873c0.24302,-1.22167 0.17901,-2.61728 0.70341,-3.74713c1.13515,-2.44572 5.80276,-1.91627 7.44955,-0.47157c0.99582,0.87361 0.95823,2.57728 1.93269,3.47463c1.93042,1.77765 4.72904,2.02329 6.48144,4.27923c0.20895,0.26898 0.4049,0.5666 0.59038,0.88248c0.46323,0.99948 0.94228,1.99632 1.43132,2.99145c0.19555,0.44401 0.38897,0.87365 0.58612,1.26732c0.05498,0.10978 0.12746,0.21705 0.20411,0.32354c0.15067,0.30049 0.30232,0.60153 0.45441,0.90239c0.00036,0.03232 -0.00163,0.06504 -0.00626,0.09816c-0.07026,0.50261 -0.66504,0.7669 -0.99761,1.15023c0,0 -0.59126,0.80683 0.215,1.39839c0.80626,0.59155 1.30825,-0.17025 1.30825,-0.17025c0.11088,-0.16812 0.33226,-0.37294 0.46969,-0.53126c0.12207,0.2391 0.24455,0.47884 0.36705,0.71855c1.21372,2.37505 2.43256,4.75163 3.65006,7.12474c0.5565,1.08469 1.57337,2.0177 1.72387,3.22749c0.27476,2.20882 -0.99188,3.49477 -0.29835,5.97808c2.97608,10.0879 -1.81832,22.82233 -4.49745,32.69024c-0.73709,2.71491 -1.73739,5.12492 -1.87713,7.95709c-0.08313,3.05399 -2.56219,5.74859 -4.15364,8.32425c-2.17229,3.51573 -5.20718,5.61835 -8.0533,8.49661c-1.82854,1.8492 -3.17605,4.34158 -5.12934,6.05089c-2.77409,2.42759 -6.73986,4.49667 -9.99147,6.21902c-12.36361,6.55597 -24.87939,12.88685 -37.32969,19.27654c-12.90375,6.62239 -25.29243,9.86584 -39.75537,7.52054c-11.17237,-1.8117 -21.68173,-6.26641 -32.36243,-9.60687c-1.69528,-0.5302 -3.23054,-1.55691 -4.83712,-2.41808c-0.10485,0.6836 -0.14586,1.29201 -0.25125,1.97726c0.73679,0.40329 1.45823,0.83264 2.1939,1.22746z" data-paper-data="{&quot;noHover&quot;:false,&quot;origItem&quot;:[&quot;Path&quot;,{&quot;applyMatrix&quot;:true,&quot;segments&quot;:[[[270.34319,296.18546],[-0.66721,0.15468],[6.96987,-1.61581]],[[291.27964,293.78174],[-7.14717,0.86033],[11.36437,-0.21926]],[[325.49738,284.06416],[-9.28155,6.87187],[0.14543,-0.17741]],[[326.08407,283.28972],[-0.21145,0.26135],[-0.52762,-0.14366]],[[324.31068,282.45611],[0.43619,0.21498],[-1.16671,-0.57501]],[[318.44336,282.53223],[1.3025,0],[-7.79479,0]],[[295.11149,281.16499],[7.63053,1.78046],[-4.70097,-1.09689]],[[280.98717,279.76074],[4.71306,0.95364],[-3.74054,-0.75686]],[[269.78931,275.69696],[3.49165,1.48498],[-1.32836,-0.56494]],[[266.384,273.68576],[1.19059,0.58146],[0.11098,0.32741]],[[266.71086,274.62107],[-0.107,-0.29667],[-0.56512,-0.29015]],[[265.01545,273.75063],[0.56513,0.29019],[-2.66963,-1.37642]],[[256.39029,268.20946],[2.19717,2.05044],[-1.4506,-1.35372]],[[252.9099,263.22672],[1.33635,1.46104],[-0.89817,-0.98197]],[[249.84693,260.66608],[0.90574,0.97499],[-1.35611,-1.4598]],[[246.33555,255.78135],[1.33131,1.47974],[-1.7824,-1.98115]],[[240.17015,250.85443],[1.8412,1.7746],[-1.78157,-1.71713]],[[235.51647,244.11892],[1.44724,2.04264],[-2.49479,-3.54084]],[[227.57663,232.43983],[1.88494,3.89701],[-2.68905,-5.55944]],[[224.71977,214.40098],[0.4238,5.9555],[-0.13522,-1.9002]],[[223.90636,208.24517],[-0.25093,1.88321],[0.16618,-1.24719]],[[224.53251,204.52283],[0.12969,1.25151],[0.44899,-2.47971]],[[226.39889,196.73219],[-0.23803,2.39387],[0.13007,-1.30822]],[[225.55445,192.87966],[-0.04196,1.31399],[0.06112,-1.91407]],[[227.03851,187.09509],[-0.01033,1.92589],[0.01152,-2.14864]],[[226.19421,180.95422],[0.02766,2.10389],[-0.58423,0.39439]],[[224.58097,182.37353],[0.48664,-0.55837],[-1.25251,1.43714]],[[219.8881,189.57088],[2.17845,-0.34503],[-0.90369,0.14313]],[[217.54548,188.14036],[0.75428,0.51789],[-2.45968,-1.68883]],[[212.85517,181.35157],[1.28616,2.57979],[-1.39551,-2.18447]],[[202.81974,176.56904],[2.86293,-2.93528],[-1.49071,1.52838]],[[199.36023,183.42543],[0.98686,-1.92287],[-2.3779,4.63325]],[[191.77767,197.54739],[3.15176,-4.22484],[0,0]],[191.95858,197.64828],[[190.98653,199.39134],[0,0],[-0.26002,0.47155]],[[189.65451,199.79765],[0.48233,0.24753],[-0.37794,-0.19397]],[[189.11627,198.80376],[-0.04165,0.39856],[0,0]],[[189.24571,197.21305],[0,0],[-2.92099,-2.22997]],[[182.58255,189.87179],[1.6361,3.38988],[0.22362,-1.36236]],[[183.31097,185.79457],[-0.00513,1.38058],[0.01007,-2.7143]],[[180.98845,178.54368],[0.82055,2.44682],[-0.40093,-1.19557]],[[180.34014,174.81661],[0.65149,1.07968],[-0.33713,-0.5587]],[[176.51499,172.89999],[0.8038,-0.64747],[-0.90478,0.72881]],[[174.1174,177.85796],[0.55142,-1.07443],[-2.13087,4.15202]],[[167.72348,190.31335],[2.13368,-4.15057],[-1.85325,3.60509]],[[161.84984,200.87312],[2.20319,-3.4058],[-0.7384,1.14144]],[[158.32759,204.18788],[1.73175,-0.0316],[-2.68658,0.04904]],[[154.07536,198.72384],[0.48309,1.86884],[-0.67083,-2.59506]],[[151.82105,191.09653],[0.67006,2.56879],[-0.32977,-1.2642]],[[151.32892,187.20805],[0.43181,1.23308],[-0.43706,-1.24805]],[[149.26912,183.81764],[0.47866,1.23269],[-0.04124,-0.10622]],[[148.43983,179.72776],[0.0418,0.21006],[-0.24302,-1.22167]],[[147.81402,176.0437],[0.5244,1.12985],[-1.13515,-2.44572]],[[140.36578,175.57049],[1.64679,-1.4447],[-0.99582,0.87361]],[[138.43421,179.0436],[0.97446,-0.89735],[-1.93042,1.77765]],[[131.95461,183.32002],[1.7524,-2.25594],[-0.20895,0.26898]],[[131.36449,184.20208],[0.18548,-0.31588],[-0.46323,0.99948]],[[129.93394,187.1922],[0.48904,-0.99513],[-0.19555,0.44401]],[[129.34813,188.45895],[0.19715,-0.39367],[-0.05498,0.10978]],[[129.1441,188.78233],[0.07665,-0.10649],[-0.15067,0.30049]],[[128.68991,189.6843],[0.15209,-0.30086],[-0.00036,0.03232]],[[128.69619,189.78243],[-0.00463,-0.03312],[0.07026,0.50261]],[[129.69392,190.93243],[-0.33257,-0.38333],[0,0]],[[129.47921,192.33025],[0.80626,-0.59156],[-0.80626,0.59155]],[[128.08139,192.11554],[0,0],[-0.11088,-0.16812]],[[127.70131,191.62867],[0.13743,0.15832],[-0.12207,0.2391]],[[127.33443,192.34688],[0.1225,-0.23971],[-1.21372,2.37505]],[[123.68587,199.46822],[1.2175,-2.37311],[-0.5565,1.08469]],[[121.9626,202.69414],[0.1505,-1.20979],[-0.27476,2.20882]],[[122.26177,208.66975],[0.69353,-2.48331],[-2.97608,10.0879]],[[126.76135,241.34449],[-2.67913,-9.86791],[0.73709,2.71491]],[[128.63822,249.2974],[-0.13974,-2.83217],[0.08313,3.05399]],[[132.79115,257.617],[-1.59145,-2.57566],[2.17229,3.51573]],[[140.84301,266.10809],[-2.84612,-2.87826],[1.82854,1.8492]],[[145.97083,272.1549],[-1.95329,-1.70931],[2.77409,2.42759]],[[155.95956,278.36841],[-3.25161,-1.72235],[12.36361,6.55597]],[[193.26907,297.62559],[-12.4503,-6.38969],[12.90375,6.62239]],[[232.99431,305.14094],[-14.46294,2.3453],[11.17237,-1.8117]],[[265.33396,295.5434],[-10.6807,3.34046],[1.69527,-0.5302]],[[270.16816,293.12766],[-1.60658,0.86117],[0.10485,0.6836]],[[270.4842,295.18109],[-0.10539,-0.68525],[-0.73679,0.40329]],[[268.28897,296.40962],[0.73567,-0.39482],[0.69559,-0.02109]]],&quot;closed&quot;:true}],&quot;index&quot;:null}" fill="#ffd200" stroke="none" stroke-width="0.5" stroke-linecap="butt"/><path d="M125.38611,282.97996c-0.01288,0.00689 -0.02577,0.01378 -0.03866,0.02067c0,-0.04901 0,-0.09803 0,-0.14704c0.01288,0.04212 0.02576,0.08425 0.03866,0.12637z" data-paper-data="{&quot;index&quot;:null}" fill="#000000" stroke="none" stroke-width="0.5" stroke-linecap="butt"/><path d="M279.92915,192.14061c0.11088,-0.16812 0.32909,-0.37882 0.46652,-0.53715c0.12207,0.2391 0.24459,0.47887 0.3671,0.71859c1.21372,2.37505 2.43306,4.7521 3.65055,7.12521c0.55649,1.0847 1.57355,2.01795 1.72405,3.22774c0.27477,2.20882 -0.99163,3.4951 -0.29809,5.97842c2.97608,10.0879 -1.81776,22.82521 -4.49688,32.69313c-0.73709,2.71491 -1.73759,5.12578 -1.87733,7.95795c-0.08313,3.05398 -2.56262,5.74956 -4.15408,8.32522c-2.17229,3.51573 -5.20804,5.61959 -8.05416,8.49785c-1.82855,1.8492 -3.1769,4.34234 -5.13019,6.05167c-2.77409,2.42759 -6.74149,4.49774 -9.9931,6.22009c-12.36361,6.55597 -24.88711,12.88525 -37.33741,19.27494c-12.90375,6.6224 -25.29162,9.85866 -39.75456,7.51335c-11.17238,-1.8117 -21.67658,-6.26858 -32.35728,-9.60905c-1.68462,-0.52687 -3.20969,-1.5432 -4.80614,-2.40194c0.01149,-0.07489 0.02298,-0.14976 0.03444,-0.22462c1.14508,-1.1961 0.82857,-3.22882 0.9153,-4.95706c0.12907,-0.8854 0.18616,-1.80618 0.19916,-2.74815c0.22568,-1.2732 0.49445,-2.54463 0.44015,-3.82933l0.4108,-3.28644c0.4608,-0.95039 0.94119,-2.05725 1.46693,-3.51544c0.57861,-0.2971 1.15728,-0.59414 1.73592,-0.89127c2.66964,-1.37641 6.34285,-3.43827 8.54002,-5.4887c1.4506,-1.35372 2.14287,-3.5237 3.47922,-4.98474c0.89817,-0.98197 2.15685,-1.58634 3.06259,-2.56133c1.35611,-1.4598 2.1787,-3.40777 3.51,-4.88752c1.78241,-1.98115 4.32314,-3.15486 6.16434,-4.92945c1.78157,-1.71713 3.20415,-4.70049 4.65139,-6.74313c2.49479,-3.54084 6.05555,-7.80586 7.9405,-11.70285c2.68905,-5.55943 2.45152,-12.11031 2.87532,-18.06581c0.13522,-1.9002 1.06966,-4.27604 0.81874,-6.15925c-0.16618,-1.24719 -0.75436,-2.47162 -0.62467,-3.72313c-0.44899,-2.47971 -1.62646,-5.39771 -1.86448,-7.79158c-0.13007,-1.30822 0.88866,-2.53951 0.8467,-3.85351c-0.06112,-1.91407 -1.47305,-3.85895 -1.48338,-5.78483c-0.01152,-2.14864 0.819,-4.03783 0.84666,-6.14172c0.58422,0.39439 1.12748,0.86065 1.61412,1.41903c1.25252,1.43714 2.51667,6.85168 4.69512,7.1967c0.9037,0.14313 1.59085,-0.91322 2.34514,-1.43112c2.45968,-1.68883 3.40935,-4.20979 4.69551,-6.78958c1.39551,-2.18447 7.18102,-7.71793 10.04395,-4.78265c1.49071,1.52839 2.47621,4.93391 3.46307,6.85677c2.37789,4.63325 4.4415,9.8999 7.59326,14.12474l-0.18105,0.10084l0.97375,1.74374c0.26002,0.47155 0.8512,0.65451 1.33353,0.40697c0.37794,-0.19396 0.53803,-0.50452 0.49637,-0.90308l-0.0883,-1.68186c2.92099,-2.22997 4.98411,-3.86112 6.62021,-7.251c-0.22362,-1.36235 -0.72133,-2.69568 -0.72646,-4.07627c-0.01008,-2.7143 1.5026,-4.80379 2.32315,-7.25061c0.40094,-1.19557 0.03659,-2.73914 0.68808,-3.81882c0.33713,-0.55869 3.02311,-2.5633 3.82691,-1.91584c0.90478,0.72881 1.84895,3.88496 2.40036,4.95939c2.13087,4.15202 4.26803,8.31011 6.40171,12.46069c1.85326,3.60509 3.67724,7.16081 5.88044,10.56661c0.73839,1.14144 1.79294,3.28638 3.52468,3.31798c2.68658,0.04904 3.68781,-3.53703 4.1709,-5.40587c0.67083,-2.59507 1.58629,-5.05593 2.25636,-7.62472c0.32976,-1.2642 0.06148,-2.65408 0.49329,-3.88716c0.43706,-1.24804 1.58162,-2.1572 2.06028,-3.38989c0.04125,-0.10622 0.7885,-3.87877 0.8303,-4.08882c0.24302,-1.22167 0.17153,-2.62549 0.69593,-3.75534c1.13515,-2.44572 5.80339,-1.91594 7.45018,-0.47124c0.99581,0.87361 0.95852,2.57735 1.93299,3.47469c1.93042,1.77765 4.72968,2.02363 6.48208,4.27957c0.20895,0.26898 0.40498,0.56664 0.59047,0.88252c0.46323,0.99948 0.94251,1.99646 1.43155,2.99159c0.19556,0.44401 0.38907,0.87371 0.58622,1.26737c0.05498,0.10978 0.1275,0.21706 0.20414,0.32356c0.15067,0.30048 0.30238,0.60157 0.45447,0.90243c0.00036,0.03233 -0.00163,0.06505 -0.00625,0.09818c-0.07026,0.50261 -0.66503,0.76688 -0.9976,1.15021c0,0 -0.59118,0.80689 0.21508,1.39845c0.80626,0.59155 1.31146,-0.1643 1.31146,-0.1643z" data-paper-data="{&quot;noHover&quot;:false,&quot;origItem&quot;:[&quot;Path&quot;,{&quot;applyMatrix&quot;:true,&quot;segments&quot;:[[276.65244,393.46895],[[279.33572,394.36337],[-0.89442,-1.78884],[0.89442,1.78886]],[[278.4413,397.04665],[0,0],[-0.94182,0.37838]],[[275.61582,398.18179],[0.584,-0.83016],[-0.03848,0.0547]],[[275.51504,398.35067],[0.02888,-0.05784],[-0.00412,0.67422]],[[275.49954,400.37035],[0.0063,-0.67226],[0.03914,0.25948]],[[275.56728,401.13207],[0.00242,-0.24554],[-0.0087,0.8805]],[[275.45286,403.92101],[0.0575,-0.96862],[-0.03856,2.21728]],[[275.26778,410.54785],[0.08846,-2.20144],[0.04158,0.73144]],[[275.51234,412.65625],[-0.12616,-0.66942],[1.05804,5.61438]],[[283.13664,426.18257],[-1.81158,-4.9259],[0.91448,2.48656]],[[283.402,434.12633],[-0.97414,-2.46382],[1.61094,4.07446]],[[297.08716,440.08595],[-4.25322,3.3152],[1.96486,-1.53152]],[[301.56494,434.10221],[-1.54802,1.95186],[0.2662,-0.33558]],[[306.77534,427.58217],[-0.17038,0.15134],[1.97738,-1.75628]],[[313.53652,423.43041],[-1.91738,1.8216],[1.89438,-1.79976]],[[317.9631,416.96085],[-1.74122,1.94832],[3.53806,-3.95888]],[[328.93946,405.44779],[-3.56342,4.00494],[2.5662,-2.88418]],[[341.49536,399.60841],[-4.7356,-2.5406],[3.05252,1.63764]],[[344.7357,408.72301],[-0.27152,-2.70532],[0.81014,8.07204]],[[345.54394,432.87627],[-0.00548,-8.10708],[0.00632,9.33378]],[[345.5469,460.87763],[0,-9.33378],[0,2.41534]],[[345.2855,471.88905],[-0.94438,-2.12304],[0.83898,1.88608]],[[353.84202,471.97177],[-1.11006,0.68626],[2.14518,-1.3262]],[[358.3991,465.93203],[-1.80518,1.76122],[3.69444,-3.60444]],[[369.15308,455.15103],[-2.46074,4.8389],[1.2516,-2.46122]],[[371.58022,447.23103],[-0.84618,2.62832],[6.00678,-4.53772]],[[390.14026,440.25305],[-7.23384,1.3005],[0,0]],[[391.36256,437.30441],[0,0],[0.28984,-0.74722]],[[393.22788,436.02743],[-0.84962,0],[1.08428,0]],[[395.22698,437.96677],[-0.03206,-1.0765],[0,0]],[395.36486,441.95595],[[394.95082,441.97027],[0,0],[1.75002,10.39562]],[[395.5469,474.02249],[-0.0001,-10.41564],[0.00004,4.32264]],[[395.44144,489.38159],[-1.2568,-4.08082],[2.4137,7.83728]],[[417.66534,490.03599],[-4.47792,2.61258],[4.64436,-3.41584]],[[432.21048,482.23947],[-5.91884,0.75888],[1.81506,-0.23272]],[[437.68516,481.83331],[-1.47728,-1.07992],[3.56116,2.60326]],[[439.46292,498.92539],[-0.91628,-3.70096],[0.356,1.43794]],[[441.03734,502.92403],[-0.6794,-1.23526],[1.97046,-3.7183]],[[448.1474,492.76827],[-1.9416,3.8337],[1.74032,-3.43626]],[[450.78912,481.12027],[-1.63914,3.46162],[1.12526,-2.37638]],[[455.80976,475.03639],[-0.9632,2.44656],[1.76252,-4.4769]],[[459.60312,459.46975],[-1.46552,4.82228],[1.37362,-2.10844]],[[461.88816,452.27461],[-0.84322,2.37094],[1.27324,-3.58004]],[[468.9569,442.06405],[-1.97584,3.25764],[6.19256,-10.20992]],[[490.51306,412.57543],[-9.86156,7.4366],[6.91266,-5.21284]],[[515.306,399.04477],[-7.67256,4.0222],[4.44046,-2.31298]],[[529.7373,391.30959],[-4.7381,1.42848],[4.89668,-1.47628]],[[545.2069,388.17301],[-4.98068,1.8975],[3.72014,-1.41726]],[[555.91554,382.68789],[-3.74606,1.35912],[2.50198,-0.90774]],[[563.70398,380.92867],[-2.49488,0.92708],[3.71204,-1.37936]],[[574.44698,375.24087],[-3.81732,1.08408],[5.78196,-1.64202]],[[594.85428,373.25755],[-6.00714,0.01126],[11.98628,-0.00276]],[[630.80726,373.00349],[-11.98366,0.26764],[3.52444,-0.07872]],[[641.97938,372.26179],[-3.44798,0.81822],[0.6499,-0.15422]],[[643.7346,371.29501],[0.1226,0.65662],[-0.40992,-2.19542]],[[638.70346,366.87017],[1.4597,1.69034],[-5.22112,-6.04602]],[[624.94548,347.48073],[5.67054,5.63866],[-3.7752,-3.7932]],[[615.32186,334.77141],[3.72696,3.66692],[-15.95426,-15.69732]],[[566.54256,288.16191],[18.22516,13.4261],[-23.59296,-17.38046]],[[488.99448,265.25787],[29.00778,-0.00006],[-27.98844,0.00008]],[[405.02236,265.45269],[27.98602,-0.37512],[-7.35858,0.09534]],[[381.57482,267.38715],[7.15292,-1.78628],[-5.03652,1.25776]],[[366.92876,273.46391],[4.94228,-1.62058],[-7.69262,2.5224]],[[344.84774,281.21971],[7.07578,-4.27202],[-5.1838,3.12972]],[[329.86088,292.23081],[2.93678,-5.3582],[-2.83494,4.91182]],[[319.25878,304.66791],[3.79076,-4.15768],[-13.77834,15.11196]],[[281.41436,358.69883],[3.91662,-20.66764],[-1.03368,5.05202]],[[275.4252,369.05835],[1.52816,-4.18118],[-0.83698,2.29008]],[[275.54564,376.37207],[0.00032,-2.43824],[-0.00074,5.3344]],[[275.5346,392.37525],[0.00922,-5.3344],[-0.00092,0.5384]],[[275.53156,393.98823],[0.00114,-0.53692],[0.38912,-0.15622]],[[276.65246,393.46899],[-0.35082,0.1979],[0,0]]],&quot;closed&quot;:true,&quot;fillColor&quot;:[0,0,0],&quot;strokeWidth&quot;:0.5}],&quot;index&quot;:null}" fill="#ffd200" stroke="none" stroke-width="0.25" stroke-linecap="butt"/><path d="M125.34745,282.99951c0.01279,-0.00687 0.02557,-0.01373 0.03835,-0.02058c0.00962,0.03142 0.01925,0.06284 0.02888,0.09426c-0.02198,0.12908 -0.04442,0.25815 -0.06723,0.38718c0,-0.15362 0,-0.30724 0,-0.46086z" data-paper-data="{&quot;noHover&quot;:false,&quot;origItem&quot;:[&quot;Path&quot;,{&quot;applyMatrix&quot;:true,&quot;segments&quot;:[[276.65244,393.46895],[[279.33572,394.36337],[-0.89442,-1.78884],[0.89442,1.78886]],[[278.4413,397.04665],[0,0],[-0.94182,0.37838]],[[275.61582,398.18179],[0.584,-0.83016],[-0.03848,0.0547]],[[275.51504,398.35067],[0.02888,-0.05784],[-0.00412,0.67422]],[[275.49954,400.37035],[0.0063,-0.67226],[0.03914,0.25948]],[[275.56728,401.13207],[0.00242,-0.24554],[-0.0087,0.8805]],[[275.45286,403.92101],[0.0575,-0.96862],[-0.03856,2.21728]],[[275.26778,410.54785],[0.08846,-2.20144],[0.04158,0.73144]],[[275.51234,412.65625],[-0.12616,-0.66942],[1.05804,5.61438]],[[283.13664,426.18257],[-1.81158,-4.9259],[0.91448,2.48656]],[[283.402,434.12633],[-0.97414,-2.46382],[1.61094,4.07446]],[[297.08716,440.08595],[-4.25322,3.3152],[1.96486,-1.53152]],[[301.56494,434.10221],[-1.54802,1.95186],[0.2662,-0.33558]],[[306.77534,427.58217],[-0.17038,0.15134],[1.97738,-1.75628]],[[313.53652,423.43041],[-1.91738,1.8216],[1.89438,-1.79976]],[[317.9631,416.96085],[-1.74122,1.94832],[3.53806,-3.95888]],[[328.93946,405.44779],[-3.56342,4.00494],[2.5662,-2.88418]],[[341.49536,399.60841],[-4.7356,-2.5406],[3.05252,1.63764]],[[344.7357,408.72301],[-0.27152,-2.70532],[0.81014,8.07204]],[[345.54394,432.87627],[-0.00548,-8.10708],[0.00632,9.33378]],[[345.5469,460.87763],[0,-9.33378],[0,2.41534]],[[345.2855,471.88905],[-0.94438,-2.12304],[0.83898,1.88608]],[[353.84202,471.97177],[-1.11006,0.68626],[2.14518,-1.3262]],[[358.3991,465.93203],[-1.80518,1.76122],[3.69444,-3.60444]],[[369.15308,455.15103],[-2.46074,4.8389],[1.2516,-2.46122]],[[371.58022,447.23103],[-0.84618,2.62832],[6.00678,-4.53772]],[[390.14026,440.25305],[-7.23384,1.3005],[0,0]],[[391.36256,437.30441],[0,0],[0.28984,-0.74722]],[[393.22788,436.02743],[-0.84962,0],[1.08428,0]],[[395.22698,437.96677],[-0.03206,-1.0765],[0,0]],[395.36486,441.95595],[[394.95082,441.97027],[0,0],[1.75002,10.39562]],[[395.5469,474.02249],[-0.0001,-10.41564],[0.00004,4.32264]],[[395.44144,489.38159],[-1.2568,-4.08082],[2.4137,7.83728]],[[417.66534,490.03599],[-4.47792,2.61258],[4.64436,-3.41584]],[[432.21048,482.23947],[-5.91884,0.75888],[1.81506,-0.23272]],[[437.68516,481.83331],[-1.47728,-1.07992],[3.56116,2.60326]],[[439.46292,498.92539],[-0.91628,-3.70096],[0.356,1.43794]],[[441.03734,502.92403],[-0.6794,-1.23526],[1.97046,-3.7183]],[[448.1474,492.76827],[-1.9416,3.8337],[1.74032,-3.43626]],[[450.78912,481.12027],[-1.63914,3.46162],[1.12526,-2.37638]],[[455.80976,475.03639],[-0.9632,2.44656],[1.76252,-4.4769]],[[459.60312,459.46975],[-1.46552,4.82228],[1.37362,-2.10844]],[[461.88816,452.27461],[-0.84322,2.37094],[1.27324,-3.58004]],[[468.9569,442.06405],[-1.97584,3.25764],[6.19256,-10.20992]],[[490.51306,412.57543],[-9.86156,7.4366],[6.91266,-5.21284]],[[515.306,399.04477],[-7.67256,4.0222],[4.44046,-2.31298]],[[529.7373,391.30959],[-4.7381,1.42848],[4.89668,-1.47628]],[[545.2069,388.17301],[-4.98068,1.8975],[3.72014,-1.41726]],[[555.91554,382.68789],[-3.74606,1.35912],[2.50198,-0.90774]],[[563.70398,380.92867],[-2.49488,0.92708],[3.71204,-1.37936]],[[574.44698,375.24087],[-3.81732,1.08408],[5.78196,-1.64202]],[[594.85428,373.25755],[-6.00714,0.01126],[11.98628,-0.00276]],[[630.80726,373.00349],[-11.98366,0.26764],[3.52444,-0.07872]],[[641.97938,372.26179],[-3.44798,0.81822],[0.6499,-0.15422]],[[643.7346,371.29501],[0.1226,0.65662],[-0.40992,-2.19542]],[[638.70346,366.87017],[1.4597,1.69034],[-5.22112,-6.04602]],[[624.94548,347.48073],[5.67054,5.63866],[-3.7752,-3.7932]],[[615.32186,334.77141],[3.72696,3.66692],[-15.95426,-15.69732]],[[566.54256,288.16191],[18.22516,13.4261],[-23.59296,-17.38046]],[[488.99448,265.25787],[29.00778,-0.00006],[-27.98844,0.00008]],[[405.02236,265.45269],[27.98602,-0.37512],[-7.35858,0.09534]],[[381.57482,267.38715],[7.15292,-1.78628],[-5.03652,1.25776]],[[366.92876,273.46391],[4.94228,-1.62058],[-7.69262,2.5224]],[[344.84774,281.21971],[7.07578,-4.27202],[-5.1838,3.12972]],[[329.86088,292.23081],[2.93678,-5.3582],[-2.83494,4.91182]],[[319.25878,304.66791],[3.79076,-4.15768],[-13.77834,15.11196]],[[281.41436,358.69883],[3.91662,-20.66764],[-1.03368,5.05202]],[[275.4252,369.05835],[1.52816,-4.18118],[-0.83698,2.29008]],[[275.54564,376.37207],[0.00032,-2.43824],[-0.00074,5.3344]],[[275.5346,392.37525],[0.00922,-5.3344],[-0.00092,0.5384]],[[275.53156,393.98823],[0.00114,-0.53692],[0.38912,-0.15622]],[[276.65246,393.46899],[-0.35082,0.1979],[0,0]]],&quot;closed&quot;:true,&quot;fillColor&quot;:[0,0,0],&quot;strokeWidth&quot;:0.5}],&quot;index&quot;:null}" fill="#ffd200" stroke="none" stroke-width="0.25" stroke-linecap="butt"/><path d="M324.27536,107.87358l2.36772,1.87587l-2.7773,1.70634" data-paper-data="{&quot;index&quot;:null}" fill="none" stroke="#000000" stroke-width="3" stroke-linecap="round"/><path d="M186.65079,150.96068c2.13989,-3.25487 6.30842,-5.72998 10.60959,-7.81763c2.36642,-1.50486 4.80735,-2.58191 7.1697,-4.29264c0.85374,-0.61825 1.36067,-1.63848 2.21244,-2.25945c1.53352,-1.11798 3.47166,-1.62203 4.95145,-2.81021c2.73524,-2.19621 5.0019,-4.98785 7.95295,-6.93034c1.57441,-1.03633 3.63532,-1.29348 5.05593,-2.53229c2.29263,-1.99924 3.79259,-4.68561 6.27084,-6.65531c5.12385,-2.66053 10.26573,-5.28627 15.40219,-7.92237c3.38389,-1.73665 6.96898,-3.85001 10.66878,-4.82849c3.84379,-1.01655 7.68835,-0.13858 11.51554,-0.74739c3.05875,-0.48658 5.74455,-1.94206 8.68424,-2.5315c4.37084,-0.8764 9.07241,0.1114 13.44732,0.41603c1.20151,0.32206 2.40301,0.64411 3.60453,0.96617l2.45564,0.28077c1.06139,0.10572 2.04909,0.7312 2.57234,1.75076c0.19919,0.38811 0.31274,0.79761 0.34759,1.20694c0.86655,-0.05561 1.72626,-0.14397 2.57113,-0.30278c0,0 3.19591,-0.5905 3.7864,2.60542c0.5905,3.19591 -2.60542,3.7864 -2.60542,3.7864c-0.69761,0.127 -1.42952,0.19478 -2.17954,0.23333c-0.25999,0.77646 -0.81179,1.45591 -1.59783,1.85931c-0.7418,0.3807 -1.56172,0.44858 -2.30927,0.25203l-1.80745,-0.46629c-1.39926,1.25815 -4.5215,3.42227 -6.15264,3.45171c-0.05759,0.00104 -0.11512,0.00145 -0.17259,0.00127c-1.17939,1.08145 -2.31952,2.22978 -3.18661,3.22887c-3.02054,3.4804 -5.82715,7.4731 -8.67539,11.09149c-4.85004,6.16146 -9.7926,12.06645 -10.05129,20.28465c0.54846,6.13888 2.40158,13.97086 5.25688,19.44528l1.39666,1.75726c0.14782,0.17866 0.27868,0.37597 0.38892,0.59078c0.81955,1.5969 0.18939,3.55582 -1.40752,4.37537c-1.27349,0.65357 -2.77722,0.38516 -3.74972,-0.56027l-2.05276,-1.90418c-1.32936,-0.5578 -2.86377,-2.97062 -4.64844,-2.80248c-2.12176,0.1999 -2.64188,3.41843 -4.34298,4.7527c-0.22601,2.52071 -0.41461,5.03909 -1.29216,7.44616c-0.34776,0.95389 -1.85893,3.34398 -2.9257,4.99965l-0.29153,2.99063c-0.0756,0.92482 -0.54567,1.79926 -1.32762,2.36667c0.1193,0.23412 0.23894,0.46811 0.35895,0.70195c0,0 1.48393,2.89144 -1.40752,4.37537c-2.89144,1.48393 -4.37537,-1.40752 -4.37537,-1.40752c-4.33649,-8.44971 -9.42034,-17.12882 -13.17166,-26.13135c-1.54362,0.62883 -3.33884,-0.01667 -4.11421,-1.52749l-0.34814,-0.67836c-0.17531,0.35662 -0.30994,0.63849 -0.3599,0.79204c-1.16698,3.58647 -0.9714,7.51177 -2.64291,10.99398c-0.79264,1.65129 -2.40169,2.84242 -3.10499,4.5337c-0.4516,1.086 -0.37568,5.51777 -0.574,5.76263c-1.37357,1.69599 -3.44375,3.57855 -5.61583,3.36607c-1.83345,-0.17935 -2.42917,-2.77602 -3.52093,-4.25984c-2.44822,-3.32739 -4.23064,-7.46472 -5.77047,-11.26853c-0.69513,-1.74951 -1.05749,-3.61364 -1.60777,-5.41396c-0.16681,-0.54575 -0.43061,-1.05573 -0.67733,-1.57227c-0.29285,0.85188 -0.86525,1.7247 -1.34677,2.36594c-0.99219,1.32132 -4.65438,3.02055 -6.09675,3.76182c-1.30146,0.66885 -2.60318,1.33718 -3.90503,2.00526c0.88959,3.45702 -1.61082,7.46543 -5.35626,7.71532c-2.20712,0.14725 -3.62796,-1.09281 -4.68267,-2.63533c-1.45977,0.41476 -3.05713,-0.2421 -3.77655,-1.64389c-0.70149,-1.36685 -0.34086,-2.99894 0.77901,-3.95473c-0.70573,-1.42863 -1.4271,-3.02702 -1.59145,-3.90945c-0.83547,-4.48583 1.27281,-8.94568 2.99556,-12.94509c0.67437,-1.56556 1.8668,-5.75859 3.80241,-6.75622c-3.10385,-1.12042 -2.02698,-3.102 0.56602,-7.04608zM259.39238,145.04464c-0.03977,0.04693 -0.07974,0.09363 -0.11991,0.1401c0.03211,0.06621 0.06437,0.13238 0.09673,0.19851c0.00861,-0.11239 0.0163,-0.22529 0.02318,-0.33861zM277.64408,113.97053c0.0374,0.04052 0.07432,0.08138 0.11076,0.12256c0.02459,-0.06078 0.04776,-0.12159 0.06973,-0.18241c-0.06019,0.01982 -0.12036,0.03978 -0.1805,0.05985zM241.65588,128.01425c-0.04571,0.02569 -0.0914,0.05135 -0.13708,0.07701c0.013,0.01434 0.02591,0.02881 0.03868,0.04341c0.0326,-0.04024 0.0654,-0.08039 0.09841,-0.12042zM266.07533,111.66956c0.95375,-0.33326 1.9071,-0.67054 2.86025,-1.01297c-1.07694,0.12291 -2.16388,0.13239 -3.25297,0.11572c0.16377,0.28018 0.29342,0.58063 0.39272,0.89726zM231.79025,125.8857c0.44939,-0.23063 0.89879,-0.46127 1.34818,-0.6919c0.04282,-0.35356 0.07649,-0.70977 0.14339,-1.04894c-0.53361,0.552 -1.01793,1.14281 -1.49157,1.74084zM243.36292,148.14337c0.04758,-0.55192 0.11165,-1.15229 0.20756,-1.76113c-0.30282,0.20254 -0.60659,0.40348 -0.91131,0.60282c0.22273,0.38896 0.45703,0.77665 0.70374,1.1583zM218.15179,182.79377c0.00563,-0.00848 0.01127,-0.01695 0.01691,-0.02542c-0.00704,0.0015 -0.01406,0.00298 -0.02109,0.00443c0.00142,0.007 0.00281,0.014 0.00418,0.02101zM199.18237,171.36791c-1.1958,0.84626 -2.36512,1.7168 -3.49783,2.64346c1.16275,-0.38549 2.47458,-0.60182 3.07363,-1.59719c0.21084,-0.35032 0.34152,-0.6999 0.4242,-1.04627z" data-paper-data="{&quot;index&quot;:null}" fill="#ffffff" stroke="none" stroke-width="0.5" stroke-linecap="butt"/><path d="M260.38511,175.55974l-8.69693,23.57145l-2.54313,2.71017l-11.77149,-13.62881l-7.77383,-16.24246l-11.57075,26.73234l-15.02053,-24.88742l-6.41489,6.66421l-6.82446,10.24643l-7.63277,-2.8268l-2.377,-13.39216l2.96693,-15.57273l9.01926,-14.18284l12.97919,-9.75209l12.88267,-8.29755l16.30959,-12.0233l14.57726,-6.63822l13.69346,-5.62264l18.42303,-2.42989l21.37913,2.23503l6.91014,8.53668l-15.148,5.52613l-15.73298,13.69438l-9.79479,14.86185l0.85533,17.54511l7.46665,18.92912z" data-paper-data="{&quot;index&quot;:null}" fill="none" stroke="#000000" stroke-width="3" stroke-linecap="round"/><path d="M120.36046,283.28223l0.92911,0.00252c3.12463,-0.45101 7.53801,0.06969 10.23618,-1.56376c0.42309,-0.25614 0.88646,-1.82607 0.99987,-1.98925c0.64809,-0.93251 1.83099,-1.34384 2.75013,-2.01075c2.42732,-1.76123 3.37297,-3.18876 6.58471,-3.18876c0,0 1,0 1,1c0,1 -1,1 -1,1c-2.76405,0 -3.26689,1.24532 -5.41529,2.81124c-1.01323,0.73852 -1.60466,0.46331 -2.24987,1.48925c-0.51902,0.82528 -0.70372,1.94843 -1.50013,2.51075c-2.84923,2.01172 -7.87797,1.45712 -11.26382,1.93624l-1.07089,0.00252c0,0 -1,0 -1,-1c0,-1 1,-1 1,-1z" data-paper-data="{&quot;index&quot;:null}" fill="#ffd200" stroke="none" stroke-width="0.5" stroke-linecap="butt"/></g></g></svg>