<svg version="1.1" xmlns="http://www.w3.org/2000/svg" xmlns:xlink="http://www.w3.org/1999/xlink" width="675.31043" height="270.65355" viewBox="0,0,675.31043,270.65355"><g transform="translate(56.55819,-233.09647)"><g data-paper-data="{&quot;isPaintingLayer&quot;:true}" fill-rule="nonzero" stroke="none" stroke-linecap="butt" stroke-linejoin="miter" stroke-miterlimit="10" stroke-dasharray="" stroke-dashoffset="0" style="mix-blend-mode: normal"><path d="M-33,448.25c0,2.25 -2.25,2.25 -2.25,2.25h-1c-2.33333,0 -4.66744,0.06017 -7,0c-0.665,-0.01716 -1.37727,-0.40058 -2,-0.22161c0,2.2489 0,4.49779 0,6.74669c0.51536,0.53374 1.07646,1.01223 1.71656,1.39626c1.01598,0.60954 2.32407,0.49578 3.50515,0.58961c3.27309,0.26004 6.76139,0.11361 10.00532,-0.35194c12.59007,-1.80685 24.94683,-6.31967 37.56686,-7.64669c5.92384,-0.62291 12.27328,-0.02065 18.23374,-0.02477c13.46956,-0.00861 26.95606,-0.66451 40.41984,-1.0605c10.40312,-0.30597 20.9529,-0.12624 31.32867,-0.91588c6.59162,-0.50165 13.34335,-2.29494 19.86284,-3.41348c8.82432,-1.51398 17.88337,-3.8278 26.80004,-4.58989c7.43959,-0.63585 15.22017,-0.0173 22.69023,-0.02184c14.98004,-0.0091 29.90348,0.06185 44.86444,-0.72557c31.44838,-1.65518 63.01355,-4.26038 94.5063,-4.26038c31.5,0 63,0 94.5,0c31.5,0 63,0 94.5,0c7.26651,0.00893 14.46314,-1.40318 21.65542,-2.40057c13.40205,-1.85854 26.78066,-3.71374 40.23309,-5.16805c4.47393,-0.48367 8.94786,-0.96734 13.4218,-1.451c2.73509,-0.29569 5.60947,0.11406 8.21803,-0.75975c0.57766,-0.1935 0.7755,-0.9414 1.19869,-1.37963c0.96748,-1.00187 1.98053,-1.95872 2.97079,-2.93807c1.29351,-2.41039 2.88886,-4.67677 3.91515,-7.21249c3.24703,-8.02267 4.78688,-17.35219 6.7011,-25.77478c4.21375,-18.54051 7.55864,-37.31777 8.67557,-56.30554c1.08237,-18.33187 0.23796,-36.92478 0.21207,-55.28913c-0.00634,-4.49728 -0.64228,-8.67592 -1.1635,-13.13395c-0.14626,-1.251 0.1828,-2.63033 -0.37423,-3.75998c-0.55703,-1.12965 -1.83664,-1.72404 -2.75497,-2.58606c0,0 -0.42892,-0.42892 -0.61864,-1.06404c-0.92562,-0.31453 -1.84995,-0.62064 -2.77343,-0.9101c-11.2754,-3.53532 -22.56904,-7.09886 -34.46041,-8.12519c-1.77543,-0.15324 -7.54815,0.20229 -9.16087,-0.01974c-8.43143,-1.16081 -16.30134,-6.41144 -24.65153,-8.05586c-7.0693,-1.39217 -14.97406,-1.0723 -22.16919,-1.59558c-11.54242,-0.84334 -23.25123,-0.32048 -34.82494,-0.32048c-19.16667,0 -38.33333,0 -57.5,0c-30.4624,0 -60.9251,-0.03721 -91.38747,0.00892c-11.94887,0.01809 -23.98178,-0.38054 -35.92172,0.05303c-19.41891,0.70515 -38.88977,2.77027 -58.27414,4.15041c-31.43616,2.23821 -62.87577,4.16832 -94.33947,5.97658c-10.48932,0.60283 -21.01092,1.50862 -31.51263,1.81014c-20.98208,0.60244 -42.07264,0.00093 -63.06458,0.00093c-19,0 -38,0 -57,0c-4.49558,0 -9.00553,0.09458 -13.5,0c-1.21406,-0.02555 -2.46755,-0.49126 -3.63896,-0.17127c-0.63501,0.17347 -0.8467,1.00817 -1.27005,1.51226c0,0 -0.42534,0.42534 -1.0561,0.61625c-2.35744,9.42071 -2.90952,19.05728 -3.18465,28.83359c-0.14915,5.29993 0.56082,10.93073 -0.11189,16.18794c-0.56931,4.4491 -2.16929,8.79308 -2.64882,13.24977c-0.4654,4.32541 -0.14267,8.94403 -0.21654,13.29554c-0.51313,30.22901 -0.12298,60.49227 -0.12298,90.72592c0,10.58116 0,21.16232 0,31.74347c2.84757,-0.35272 6.43184,0.25653 9,0.25653h1c0,0 2.25,0 2.25,2.25zM605.74976,263.60003c0.66563,4.6197 1.19051,9.04367 1.20194,13.71223c0.04517,18.45455 0.85991,37.1398 -0.21983,55.5621c-1.13144,19.23448 -4.51124,38.25735 -8.7797,57.03858c-1.96811,8.65967 -3.5785,18.21488 -6.9179,26.46575c-0.16092,0.3976 -4.2356,7.77082 -4.48208,8.2184c-1.90973,1.92814 -3.29856,4.70555 -5.83052,5.68229c-0.59592,0.22989 -8.68869,1.06801 -9.67769,1.17493c-4.47393,0.48367 -8.94786,0.96734 -13.4218,1.451c-13.40751,1.44946 -26.7413,3.29913 -40.09863,5.15147c-7.40606,1.02704 -14.79056,2.43465 -22.27354,2.44323c-31.5,0 -63,0 -94.5,0c-31.5,0 -63,0 -94.5,0c-31.41354,0 -62.90044,2.60314 -94.26979,4.25416c-15.039,0.79153 -30.0402,0.72264 -45.09823,0.73179c-7.34177,0.00446 -14.9988,-0.61936 -22.30976,0.0055c-8.78757,0.75106 -17.72473,3.04919 -26.42231,4.54143c-6.62997,1.1375 -13.47237,2.93159 -20.17606,3.45596c-8.98743,0.70301 -18.13377,0.5389 -27.14604,0.80397c-15.00425,0.4413 -30.03646,1.1836 -45.04709,1.19474c-5.8027,0.00401 -12.00016,-0.60622 -17.76625,0.0001c-12.55958,1.32067 -24.86422,5.84287 -37.40105,7.62614c-4.38737,0.62407 -11.58325,1.49871 -15.86343,-0.51991c0,4.46871 0,8.93742 0,13.40613c0,4.5 0,9 0,13.5c0,3.28479 0.75561,7.38446 -0.65901,10.40901l2.40901,-0.65901c0,0 2.25,0 2.25,2.25c0,2.25 -2.25,2.25 -2.25,2.25l-5.59099,-0.65901c-1.4839,-10.33758 -0.65901,-21.15063 -0.65901,-31.59099c0,-4.34149 0,-8.68298 0,-13.02447c-0.80387,-1.03518 -1.58966,-2.09497 -2.4848,-3.0198l-3.43921,-2.68287c-0.53749,-0.41116 -0.88418,-1.05918 -0.88418,-1.78817c0,-1.07766 0.75763,-1.97837 1.7693,-2.19854l3.01329,-0.72391l0.0089,0.03707c0.08354,-0.02907 0.16755,-0.057 0.25205,-0.0837c0.55554,-0.17554 1.18054,0.14897 1.76463,0.22172c0,-11.41245 0,-22.82489 0,-34.23734c0,-30.25912 -0.38993,-60.54782 0.12363,-90.80229c0.07617,-4.48718 -0.23813,-9.2409 0.24171,-13.70057c0.47921,-4.45374 2.06316,-8.78587 2.64632,-13.22591c0.6737,-5.12941 -0.05532,-10.68076 0.09035,-15.85698c0.3416,-12.13826 1.16108,-24.03376 5.01345,-35.62576c0,0 0.71151,-2.13454 2.84605,-1.42302c1.14196,0.38065 1.46933,1.16859 1.52687,1.81909c1.38865,-0.16469 2.85222,0.08994 4.26161,0.06546c4.49623,-0.07809 9.00301,0 13.5,0c19,0 38,0 57,0c20.94879,0 41.99653,0.60212 62.93542,0.00093c10.45855,-0.30029 20.93732,-1.20422 31.38359,-1.80458c31.44324,-1.80708 62.86237,-3.73587 94.27808,-5.97263c19.43657,-1.38386 38.95913,-3.45176 58.43043,-4.15881c11.99229,-0.43547 24.07702,-0.03782 36.0782,-0.05599c30.46464,-0.04612 60.9296,-0.00892 91.39428,-0.00892c19.16667,0 38.33333,0 57.5,0c11.6846,0 23.49764,-0.51142 35.15135,0.33234c7.38131,0.53682 15.45745,0.23982 22.71227,1.66853c5.81446,1.14506 11.73495,3.82302 17.37223,5.66796c2.37576,0.77753 4.64066,2.02893 7.11849,2.35925c2.92055,0.38934 5.90366,-0.2731 8.83913,-0.01974c12.21176,1.05398 23.83655,4.68513 35.41939,8.31451c6.55746,2.05539 13.38586,5.23983 20.2079,5.65971l0.33228,0.02265c0,0 2.24479,0.15304 2.09174,2.39783l0.00002,-0.00001c-0.15304,2.24479 -2.39783,2.09174 -2.39783,2.09174l-0.33228,-0.02265c-3.61999,-0.26735 -7.18099,-1.18127 -10.70637,-2.30139c0.34242,1.33221 0.24337,2.8046 0.44144,4.17929z" fill="#ff9c9c" stroke-width="0.5"/><path d="M-33.04762,448.26529c0,-2.25 -2.25013,-2.25041 -2.25013,-2.25041l-1.00001,-0.00004c-2.56816,0 -6.15256,-0.60966 -9.00013,-0.25694c0,-10.58115 -0.00112,-21.16677 -0.00112,-31.74793c0,-30.23365 -0.391,-60.5107 0.12213,-90.73971c0.07387,-4.35151 -0.24866,-8.97216 0.21674,-13.29757c0.47953,-4.45669 2.0798,-8.80272 2.64911,-13.25182c0.67271,-5.25721 -0.03681,-10.89041 0.11234,-16.19034c0.27513,-9.77631 0.82829,-19.41709 3.18573,-28.8378c0.63076,-0.19091 1.05614,-0.61638 1.05614,-0.61638c0.42335,-0.50409 0.63512,-1.33905 1.27013,-1.51252c1.17141,-0.31999 2.42494,0.14559 3.639,0.17114c4.49447,0.09458 9.00462,-0.00062 13.5002,-0.00062c19,0 38.00119,-0.00322 57.00119,-0.00322c20.99194,0 42.08504,0.59622 63.06712,-0.00622c10.50171,-0.30152 21.0258,-1.21135 31.51512,-1.81418c31.4637,-1.80826 62.92251,-3.75499 94.35867,-5.9932c19.38437,-1.38014 38.87999,-3.45031 58.2989,-4.15546c11.93994,-0.43357 23.98786,-0.03177 35.93673,-0.04986c30.46237,-0.04613 60.94583,0.00591 91.40823,0.00591c19.16667,0 38.33811,0.00685 57.50478,0.00685c11.57371,0 23.28418,-0.51974 34.8266,0.3236c7.19513,0.52328 15.10076,0.20528 22.17006,1.59745c8.35019,1.64442 16.22121,6.89781 24.65264,8.05862c1.61272,0.22203 7.38562,-0.133 9.16105,0.02024c11.89137,1.02633 23.18591,4.59265 34.46131,8.12797c0.92348,0.28946 1.84788,0.59581 2.7735,0.91034c0.18972,0.63512 0.61869,1.06421 0.61869,1.06421c0.91833,0.86202 2.19807,1.45688 2.7551,2.58653c0.55703,1.12965 0.22811,2.50952 0.37437,3.76052c0.52122,4.45803 1.15762,8.63858 1.16396,13.13586c0.02589,18.36435 0.8714,36.96555 -0.21097,55.29742c-1.11693,18.98777 -4.46217,37.77385 -8.67592,56.31436c-1.91422,8.42259 -3.45478,17.75624 -6.70181,25.77891c-1.02629,2.53572 -2.62192,4.80333 -3.91543,7.21372c-0.99026,0.97935 -2.00345,1.93675 -2.97093,2.93862c-0.42319,0.43823 -0.6211,1.18638 -1.19876,1.37988c-2.60856,0.87381 -5.48306,0.46451 -8.21815,0.7602c-4.47394,0.48366 -8.9481,0.96814 -13.42203,1.45181c-13.45243,1.45431 -26.83202,3.31254 -40.23407,5.17108c-7.19228,0.99739 -14.38964,2.41141 -21.65615,2.40248c-31.5,0 -63.00573,0.01041 -94.50573,0.01041c-31.5,0 -63.02562,0.01854 -94.52562,0.01854c-31.49275,0 -63.10236,2.59791 -94.55074,4.25309c-14.96096,0.78742 -29.89346,0.70795 -44.8735,0.71705c-7.47006,0.00454 -15.25331,-0.61754 -22.6929,0.01831c-8.91667,0.76209 -17.97736,3.07336 -26.80168,4.58734c-6.51949,1.11854 -13.27211,2.9103 -19.86373,3.41195c-10.37577,0.78964 -20.92695,0.60719 -31.33007,0.91316c-13.46378,0.39599 -26.9515,1.04913 -40.42106,1.05774c-5.96046,0.00412 -12.31033,-0.59924 -18.23417,0.02367c-12.62003,1.32702 -24.97711,5.83896 -37.56718,7.64581c-3.24393,0.46555 -6.73238,0.61156 -10.00547,0.35152c-1.18108,-0.09383 -2.48925,0.01969 -3.50523,-0.58985c-0.6401,-0.38403 -1.20129,-0.86278 -1.71665,-1.39652c0,-2.2489 -0.00029,-4.49869 -0.00029,-6.74759c0.62273,-0.17897 1.43035,0.17433 2.09535,0.19149c2.33256,0.06017 4.66657,-0.0003 6.9999,-0.0003l0.99999,-0.00004c0,0 2.15484,0.03073 2.15484,-2.21927z" data-paper-data="{&quot;noHover&quot;:false,&quot;origItem&quot;:[&quot;Path&quot;,{&quot;applyMatrix&quot;:true,&quot;segments&quot;:[[[-33,448.25],[0,0],[0,2.25]],[-35.25,450.5],[[-36.25,450.5],[0,0],[-2.33333,0]],[[-43.25,450.5],[2.33256,0.06017],[-0.665,-0.01716]],[[-45.25,450.27839],[0.62273,-0.17897],[0,2.2489]],[[-45.25,457.02508],[0,-2.2489],[0.51536,0.53374]],[[-43.53344,458.42134],[-0.6401,-0.38403],[1.01598,0.60954]],[[-40.02829,459.01095],[-1.18108,-0.09383],[3.27309,0.26004]],[[-30.02297,458.65901],[-3.24393,0.46555],[12.59007,-1.80685]],[[7.54389,451.01232],[-12.62003,1.32702],[5.92384,-0.62291]],[[25.77763,450.98755],[-5.96046,0.00412],[13.46956,-0.00861]],[[66.19747,449.92705],[-13.46378,0.39599],[10.40312,-0.30597]],[[97.52614,449.01117],[-10.37577,0.78964],[6.59162,-0.50165]],[[117.38898,445.59769],[-6.51949,1.11854],[8.82432,-1.51398]],[[144.18902,441.0078],[-8.91667,0.76209],[7.43959,-0.63585]],[[166.87925,440.98596],[-7.47006,0.00454],[14.98004,-0.0091]],[[211.74369,440.26039],[-14.96096,0.78742],[31.44838,-1.65518]],[[306.24999,436.00001],[-31.49275,0],[31.5,0]],[[400.74999,436.00001],[-31.5,0],[31.5,0]],[[495.24999,436.00001],[-31.5,0],[7.26651,0.00893]],[[516.90541,433.59944],[-7.19228,0.99739],[13.40205,-1.85854]],[[557.1385,428.43139],[-13.45243,1.45431],[4.47393,-0.48367]],[[570.5603,426.98039],[-4.47394,0.48366],[2.73509,-0.29569]],[[578.77833,426.22064],[-2.60856,0.87381],[0.57766,-0.1935]],[[579.97702,424.84101],[-0.42319,0.43823],[0.96748,-1.00187]],[[582.94781,421.90294],[-0.99026,0.97935],[1.29351,-2.41039]],[[586.86296,414.69045],[-1.02629,2.53572],[3.24703,-8.02267]],[[593.56406,388.91567],[-1.91422,8.42259],[4.21375,-18.54051]],[[602.23963,332.61013],[-1.11693,18.98777],[1.08237,-18.33187]],[[602.4517,277.321],[0.02589,18.36435],[-0.00634,-4.49728]],[[601.2882,264.18705],[0.52122,4.45803],[-0.14626,-1.251]],[[600.91397,260.42707],[0.55703,1.12965],[-0.55703,-1.12965]],[[598.159,257.84101],[0.91833,0.86202],[0,0]],[[597.54036,256.77697],[0.18972,0.63512],[-0.92562,-0.31453]],[[594.76693,255.86687],[0.92348,0.28946],[-11.2754,-3.53532]],[[560.30652,247.74168],[11.89137,1.02633],[-1.77543,-0.15324]],[[551.14565,247.72194],[1.61272,0.22203],[-8.43143,-1.16081]],[[526.49412,239.66608],[8.35019,1.64442],[-7.0693,-1.39217]],[[504.32493,238.0705],[7.19513,0.52328],[-11.54242,-0.84334]],[[469.49999,237.75002],[11.57371,0],[-19.16667,0]],[[411.99999,237.75002],[19.16667,0],[-30.4624,0]],[[320.61252,237.75894],[30.46237,-0.04613],[-11.94887,0.01809]],[[284.6908,237.81197],[11.93994,-0.43357],[-19.41891,0.70515]],[[226.41666,241.96238],[19.38437,-1.38014],[-31.43616,2.23821]],[[132.07719,247.93896],[31.4637,-1.80826],[-10.48932,0.60283]],[[100.56456,249.7491],[10.50171,-0.30152],[-20.98208,0.60244]],[[37.49998,249.75003],[20.99194,0],[-19,0]],[[-19.50002,249.75003],[19,0],[-4.49558,0]],[[-33.00002,249.75003],[4.49447,0.09458],[-1.21406,-0.02555]],[[-36.63898,249.57876],[1.17141,-0.31999],[-0.63501,0.17347]],[[-37.90903,251.09102],[0.42335,-0.50409],[0,0]],[[-38.96513,251.70727],[0.63076,-0.19091],[-2.35744,9.42071]],[[-42.14978,280.54086],[0.27513,-9.77631],[-0.14915,5.29993]],[[-42.26167,296.7288],[0.67271,-5.25721],[-0.56931,4.4491]],[[-44.91049,309.97857],[0.47953,-4.45669],[-0.4654,4.32541]],[[-45.12703,323.27411],[0.07387,-4.35151],[-0.51313,30.22901]],[[-45.25001,414.00003],[0,-30.23365],[0,10.58116]],[[-45.25001,445.7435],[0,-10.58115],[2.84757,-0.35272]],[[-36.25001,446.00003],[-2.56816,0],[0,0]],[-35.25001,446.00003],[[-33.00001,448.25003],[0,-2.25],[0,0]]],&quot;closed&quot;:true,&quot;fillColor&quot;:[0,0,0],&quot;strokeWidth&quot;:0.5}]}" fill="#00e3e3" stroke-width="0.25"/></g></g></svg>