<svg version="1.1" xmlns="http://www.w3.org/2000/svg" xmlns:xlink="http://www.w3.org/1999/xlink" width="32.2673" height="17.2198" viewBox="0,0,32.2673,17.2198"><g transform="translate(-235.0636,-184.43022)"><g data-paper-data="{&quot;isPaintingLayer&quot;:true}" fill-rule="nonzero" stroke-linecap="butt" stroke-linejoin="miter" stroke-miterlimit="10" stroke-dasharray="" stroke-dashoffset="0" style="mix-blend-mode: normal"><path d="M265.70983,199.64179c-1.51409,0.1888 -3.08512,0.4298 -4.64609,0.48077c0.04749,0.1716 0.02582,0.31611 -0.02608,0.43354c-0.65336,-0.10665 -1.3136,-0.19249 -1.97591,-0.27208c0.0762,-0.06584 0.15236,-0.13222 0.22853,-0.19914h-0.00002c-0.16214,-0.01351 -0.32391,-0.03014 -0.4852,-0.05017c-1.8897,-0.23464 -4.1232,-0.78416 -5.86926,-1.52416c-1.25934,-0.53372 -2.54234,-1.42326 -3.84598,-1.82569c-0.26939,-0.08315 -0.58433,0.00662 -0.83764,-0.11716c-0.02472,-0.01208 -0.04934,-0.02434 -0.07386,-0.03676c-0.54112,-0.49551 -1.0803,-0.99519 -1.67584,-1.41567c-0.66076,-0.46654 -1.35341,-0.84322 -2.05862,-1.1818c-0.74747,-0.63844 -1.38222,-1.40014 -2.0966,-2.07599c-0.56016,-0.52994 -1.57009,-1.02558 -2.03644,-1.69074c-0.60199,-0.85863 -1.04102,-3.26832 -2.24493,-3.63836c-0.55568,-0.1708 -1.00809,0.88277 -1.29017,1.68641l-0.44117,-0.55146c-0.17536,-0.22309 -0.39274,-0.41161 -0.64019,-0.55364c0.48794,-1.17291 1.11671,-2.1992 2.76274,-1.99373c0.3878,0.04841 0.6002,0.50083 0.89334,0.75928c1.20668,1.06391 1.27606,2.15462 2.1378,3.41878c0.44927,0.65908 1.28582,0.9507 1.86574,1.49835c0.68002,0.64218 1.26547,1.38505 1.98202,1.9862c1.22831,0.6742 2.21801,1.83154 3.45287,2.42535c3.05068,1.46699 6.75171,2.94972 10.1606,3.37235c2.17345,0.26946 4.43573,-0.12024 6.57855,-0.38873c0,0 0.72713,-0.09089 0.81802,0.63624c0.09089,0.72713 -0.63624,0.81802 -0.63624,0.81802z" data-paper-data="{&quot;index&quot;:null}" fill="#000000" stroke="#000000" stroke-width="1"/><path d="M242.32141,191.82666c0.73241,0.69291 1.38298,1.47458 2.1553,2.12261c-1.42046,-0.68477 -2.89313,-1.21149 -4.25986,-2.00371c-1.08073,-0.62644 -1.5571,-2.01628 -2.6088,-2.69033l-0.85961,-1.07451c0.28394,-0.80439 0.7379,-1.85368 1.29189,-1.6834c1.20391,0.37004 1.69567,2.84036 2.29767,3.69899c0.46635,0.66516 1.42323,1.10043 1.98339,1.63037z" data-paper-data="{&quot;index&quot;:null}" fill="#ffffff" stroke="none" stroke-width="0.5"/><path d="M259.32972,200.09234c-0.07521,0.06608 -0.15044,0.13167 -0.22572,0.19677c-3.0414,-0.36679 -6.12859,-0.59514 -8.79474,-2.0942c-0.83179,-0.46768 -1.53645,-1.1194 -2.24478,-1.76823c0.06971,0.03746 0.14003,0.07359 0.21103,0.10829c0.25331,0.12378 0.57848,0.04465 0.84787,0.12781c1.30365,0.40243 2.59295,1.31895 3.85228,1.85266c1.74606,0.74 3.97913,1.29223 5.86884,1.52687h0.00001c0.16129,0.02003 0.32308,0.03652 0.48523,0.05004z" data-paper-data="{&quot;index&quot;:null}" fill="#ffffff" stroke="none" stroke-width="0.5"/><path d="M267.25308,199.74124c0.38133,1.144 -0.76266,1.52533 -0.76266,1.52533l-1.34603,0.38345c-1.73605,-0.00882 -2.77864,-0.54794 -4.36113,-1.01408c-2.34186,-0.68983 -4.72521,-0.87692 -7.02177,-1.80619c-1.80115,-0.72881 -3.31084,-1.79671 -5.21975,-2.11547c-0.0415,0.05198 -0.07011,0.08059 -0.07011,0.08059l-0.9647,0.9647c0,0 -0.49175,0.49174 -1.1018,0.35493l-0.40136,0.06155c-2.03259,0.86914 -4.79226,2.17889 -6.95973,0.84073c-1.01206,-0.62482 -1.27663,-2.55878 -1.57648,-3.50777c-0.84821,-2.68444 -1.27072,-5.38413 -1.49345,-8.20888c-0.10698,-0.08545 -0.22206,-0.16117 -0.34392,-0.22583c0.11285,-0.52802 0.30948,-1.06377 0.65158,-1.69902l0.86044,-0.72664c0,0 1.00336,-0.66891 1.67226,0.33445c0.21663,0.32495 0.25786,0.61482 0.21459,0.85825c1.49957,1.80646 2.96198,3.61476 4.6779,5.19802c0.7564,0.56137 1.54497,1.10657 2.35927,1.6687c0.36072,0.24901 1.68836,0.96021 2.5718,1.58965c3.06684,0.50253 5.52084,2.34869 8.48712,3.22128c1.37147,0.40345 2.9664,0.40013 4.34117,0.80392c1.46299,0.42971 2.09795,0.92519 3.67807,0.91533l0.58337,-0.25968c0,0 1.144,-0.38133 1.52533,0.76266zM243.69609,193.86404c-0.34207,-0.24438 -0.67493,-0.48115 -0.99934,-0.71407c-0.15576,-0.06794 -0.31137,-0.13607 -0.46661,-0.20494c-0.21609,-0.1977 -0.42846,-0.39847 -0.6376,-0.60199c-1.05388,-0.78949 -2.01833,-1.58536 -2.92522,-2.54142c-0.00019,0.00099 -0.00038,0.00198 -0.00057,0.00297c0.23417,1.67939 0.57821,3.32288 1.09577,4.96292c0.23857,0.75595 -0.01961,1.89758 0.6745,2.28045c1.21698,0.67127 3.53343,-0.62327 4.61672,-1.08868l0.92624,-0.20869c0.04135,-0.05895 0.08185,-0.10807 0.11558,-0.14581c-1.08356,-0.43288 -1.47346,-1.07921 -2.39948,-1.74076z" data-paper-data="{&quot;index&quot;:null}" fill="#000000" stroke="none" stroke-width="0.5"/><path d="M242.72283,193.11938c0.32441,0.23292 0.67004,0.51044 1.01211,0.75482c0.92602,0.66156 1.31208,1.31737 2.39564,1.75025c-0.03373,0.03774 -0.07511,0.08836 -0.11646,0.14732l-0.93071,0.21461c-1.08328,0.46541 -3.44882,1.76805 -4.6658,1.09678c-0.69412,-0.38287 -0.45283,-1.54242 -0.69139,-2.29837c-0.51756,-1.64004 -0.85373,-3.32924 -1.0879,-5.00864c0.00019,-0.00099 0.0004,-0.00199 0.00058,-0.00298c0.90689,0.95606 1.87737,1.74699 2.93125,2.53647c0.20915,0.20352 0.43367,0.39881 0.64976,0.59651c0.15524,0.06888 0.34718,0.14532 0.50294,0.21325z" data-paper-data="{&quot;noHover&quot;:false,&quot;origItem&quot;:[&quot;Path&quot;,{&quot;applyMatrix&quot;:true,&quot;segments&quot;:[[[513.25935,381.12996],[0.851,-0.60796],[-2.30376,1.64582]],[[507.28991,385.46063],[2.69568,-1.07692],[0.08392,0.09388]],[[507.57745,385.82339],[-0.10286,-0.14668],[0,0]],[[509.88176,386.34256],[0,0],[2.69502,1.15784]],[[521.36728,389.05098],[-3.02762,1.67],[1.72682,-0.9525]],[[523.04531,383.37765],[-0.5935,1.88067],[1.2876,-4.08011]],[[525.77138,371.03085],[-0.58257,4.17801],[-0.00048,-0.00246]],[[525.76996,371.02346],[0.00047,0.00246],[-2.25617,2.37849]],[[518.49256,377.34603],[2.62186,-1.96408],[-0.52031,0.50631]],[[516.90634,378.84367],[0.53758,-0.49184],[-0.38622,0.17135]],[[515.74551,379.35351],[0.3875,-0.16899],[-0.80708,0.57946]]],&quot;closed&quot;:true}],&quot;index&quot;:null}" fill="#ffffff" stroke="none" stroke-width="0.5"/><path d="" data-paper-data="{&quot;index&quot;:null}" fill="#000000" stroke="none" stroke-width="0.5"/></g></g></svg>