<svg version="1.1" xmlns="http://www.w3.org/2000/svg" xmlns:xlink="http://www.w3.org/1999/xlink" width="15.48174" height="23.23907" viewBox="0,0,15.48174,23.23907"><g transform="translate(-238.45703,-187.82027)"><g data-paper-data="{&quot;isPaintingLayer&quot;:true}" fill-rule="nonzero" stroke="none" stroke-width="0.5" stroke-linecap="butt" stroke-linejoin="miter" stroke-miterlimit="10" stroke-dasharray="" stroke-dashoffset="0" style="mix-blend-mode: normal"><path d="" data-paper-data="{&quot;index&quot;:null}" fill="#000000"/><path d="M245.94842,204.57695c-0.75985,-0.75985 0,-1.5197 0,-1.5197l0.28656,-0.28656c2.10101,-1.78537 -1.29843,-6.62502 -3.68178,-6.47571c0,0 -0.33464,0 -0.63043,-0.18674c-0.75642,2.17891 -1.30675,4.38491 -1.30383,6.84918c0.00209,1.7618 -0.64549,3.81889 1.27437,4.5695l1.06379,0.26241c0,0 0.31371,0.07843 0.55393,0.32133c1.66596,-1.09165 3.13235,-2.49624 4.44499,-4.02261c-0.06992,0.06563 -0.13766,0.13267 -0.20136,0.20233l-0.28656,0.28656c0,0 -0.75985,0.75985 -1.5197,0zM241.20717,209.56365c-3.08199,-1.38433 -2.74073,-3.63698 -2.73742,-6.60621c0.0069,-6.18361 2.50074,-10.72711 6.64824,-15.01983c1.65766,-0.10011 3.26522,-0.35292 4.81127,0.45654c3.80198,1.99059 4.54939,7.30336 3.68635,11.13429c-0.26555,1.17874 -1.70058,2.98952 -2.42383,3.95504c-2.25693,3.01294 -4.94125,5.7544 -8.30131,7.45572c0,0 -0.96114,0.48057 -1.44171,-0.48057c-0.17314,-0.34628 -0.15914,-0.63018 -0.07038,-0.8517z" data-paper-data="{&quot;index&quot;:null}" fill="#000000"/><path d="M245.97974,203.0746c0,0 -0.81161,0.71308 -0.05176,1.47293c0.75985,0.75985 1.51165,0.00769 1.51165,0.00769l0.28458,-0.28369c0.0637,-0.06966 0.19352,-0.10101 0.26343,-0.16664c-1.31263,1.52637 -2.81494,2.9497 -4.48091,4.04135c-0.24022,-0.24291 -0.55751,-0.32195 -0.55751,-0.32195l-1.07014,-0.26448c-1.91986,-0.75061 -1.29294,-2.8324 -1.29503,-4.5942c-0.00292,-2.46428 0.5694,-4.71187 1.32582,-6.89078c0.29579,0.18673 0.63335,0.18575 0.63335,0.18575c2.38335,-0.14931 5.82675,4.73599 3.72574,6.52136l-0.28922,0.29265z" data-paper-data="{&quot;noHover&quot;:false,&quot;origItem&quot;:[&quot;Path&quot;,{&quot;applyMatrix&quot;:true,&quot;selected&quot;:true,&quot;segments&quot;:[[[238.6474,209.17694],[0.75985,-0.75985],[-0.75985,0.75985],7],[[237.1277,209.17694],[0,0],[0,0],7],[[236.84115,208.89039],[0,0],[-0.0637,-0.06966],7],[[236.63979,208.68806],[0.06991,0.06563],[1.31264,1.52637],7],[[241.08478,212.71067],[-1.66597,-1.09165],[0.24022,-0.2429],7],[[241.63872,212.38933],[0,0],[0,0],7],[[242.70251,212.12692],[0,0],[1.91986,-0.75061],7],[[243.97688,207.55743],[-0.00209,1.7618],[0.00292,-2.46427],7],[[242.67305,200.70825],[0.75642,2.17891],[-0.29579,0.18674],7],[[242.04262,200.89499],[0,0],[-2.38335,-0.14931],7],[[238.36084,207.37069],[-2.10101,-1.78537],[0,0],7],[[238.6474,207.65725],[0,0],[0,0],7]],&quot;closed&quot;:true}],&quot;index&quot;:null}" fill="#770000"/></g></g></svg>