<svg version="1.1" xmlns="http://www.w3.org/2000/svg" xmlns:xlink="http://www.w3.org/1999/xlink" width="41.2686" height="27.14768" viewBox="0,0,41.2686,27.14768"><g transform="translate(-227.96252,-178.83022)"><g data-paper-data="{&quot;isPaintingLayer&quot;:true}" fill-rule="nonzero" stroke-linecap="butt" stroke-linejoin="miter" stroke-miterlimit="10" stroke-dasharray="" stroke-dashoffset="0" style="mix-blend-mode: normal"><path d="M267.9397,197.752c-1.88339,0.23485 -3.8376,0.53463 -5.7793,0.59803c0.18713,0.67618 -0.48905,1.01426 -0.48905,1.01426l-0.28821,0.10907c-1.8005,1.59955 -3.60324,2.97039 -5.60152,4.17532c-0.31309,-0.49131 -0.77094,-0.94369 -1.26987,-1.36406c1.95519,-1.1462 3.69836,-2.44898 5.44264,-3.98146h-0.00002c-0.20169,-0.01681 -0.40291,-0.0375 -0.60354,-0.06241c-2.35061,-0.29187 -5.12888,-0.97542 -7.30081,-1.89591c-1.56649,-0.6639 -3.16242,-1.7704 -4.78403,-2.27099c-0.33509,-0.10344 -0.72685,0.00823 -1.04194,-0.14574c-1.68167,-0.82176 -2.99817,-2.29803 -4.65638,-3.2084c-0.96513,-0.80775 -1.77453,-1.78573 -2.68878,-2.65067c-0.69679,-0.6592 -1.95304,-1.27573 -2.53314,-2.10312c-0.74882,-1.06805 -1.29493,-4.06547 -2.79248,-4.52577c-1.01848,-0.31304 -1.75805,2.68044 -1.9519,3.1139c-1.26925,2.83805 -1.44723,6.12432 -1.29577,9.34411c-0.48658,-0.1042 -0.97976,-0.19483 -1.4803,-0.27051l0.02596,-0.23575c0,0 -0.14674,-0.08804 -0.38895,-0.18359c-0.09513,-3.25044 0.18926,-6.52392 1.47486,-9.39855c0.86454,-1.93312 1.2877,-4.47792 4.10273,-4.12652c0.48238,0.06022 0.74659,0.62298 1.11123,0.94447c1.50099,1.3234 1.5873,2.68015 2.65922,4.25264c0.55885,0.81983 1.59945,1.18257 2.32081,1.8638c0.84588,0.79881 1.57413,1.72287 2.46545,2.47064c1.5279,0.83864 2.75899,2.27826 4.29504,3.0169c3.79476,1.82479 8.39849,3.66917 12.63883,4.19488c2.70357,0.33519 5.51763,-0.14957 8.1831,-0.48354c0,0 0.90448,-0.11306 1.01754,0.79142c0.11306,0.90448 -0.79142,1.01754 -0.79142,1.01754z" data-paper-data="{&quot;index&quot;:null}" fill="#000000" stroke="#000000" stroke-width="1"/><path d="M237.06973,195.84596c0.38047,-0.19596 0.76667,-0.19596 0.76667,-0.19596h0.4c0.64852,0.00408 1.31922,0.03474 2.00434,0.09155c-1.41494,-0.45094 -2.76254,-0.67705 -3.88712,-0.46017c0.23797,0.18847 0.47659,0.37697 0.7161,0.56458zM230.90815,194.03481c-0.21545,-0.05158 -0.43215,-0.10056 -0.65018,-0.14681c-0.14756,-3.22819 0.03659,-6.5303 1.30453,-9.36544c0.19385,-0.43345 0.94052,-3.43409 1.959,-3.12105c1.49755,0.46029 2.10926,3.53314 2.85809,4.60119c0.58009,0.82739 1.77036,1.36882 2.46715,2.02802c0.91425,0.86494 1.72599,1.84107 2.69113,2.64882c1.65821,0.91037 3.03355,2.3861 4.71523,3.20786c0.31509,0.15397 0.71958,0.05554 1.05467,0.15898c1.62161,0.50059 3.22538,1.64065 4.79187,2.30454c2.17193,0.92049 4.94966,1.60741 7.30028,1.89928h0.00001c0.20063,0.02491 0.40188,0.04542 0.60358,0.06224c-1.74402,1.53224 -3.49535,2.85033 -5.45426,4.00389c-0.24691,-0.20972 -0.50461,-0.4115 -0.76038,-0.60618c-0.12442,0.14919 -0.27726,0.27384 -0.45021,0.36564l-1.77381,0.98545l-0.02809,-0.05057l-0.14951,0.13452c-8.36092,2.09735 -13.63709,-3.43071 -19.82272,-7.77459c0,0 -0.73818,-0.52727 -0.65638,-1.33579zM247.47854,200.68447c-0.10157,-0.03914 -0.20013,-0.07449 -0.29488,-0.10443c-1.87533,-0.59263 -3.67156,-1.21199 -5.5348,-1.58457c1.80722,0.98819 3.72497,1.65584 5.82968,1.68901z" data-paper-data="{&quot;index&quot;:null}" fill="#ffffff" stroke="none" stroke-width="0.5"/><path d="M242.62044,190.67089c-0.38595,0.49622 -0.81811,0.62273 -1.18996,0.60226c-0.00412,0.00378 -0.00632,0.0057 -0.00632,0.0057c-0.91401,0.75905 -1.78752,2.63057 -2.86799,4.0384c-1.02499,-0.17795 -1.97284,-0.17081 -2.77296,0.12035c-0.09722,0.03537 -0.19678,0.0717 -0.29819,0.10906c-0.81167,-0.33665 -1.63552,-0.64549 -2.47614,-0.91838c-0.12668,-0.37813 -0.2633,-0.76304 -0.46915,-1.1242c-1.34802,-2.3651 -2.05528,-5.11645 -2.18262,-7.9365c-0.02072,-0.13126 -0.02072,-0.2176 -0.02072,-0.2176c0,-0.32864 -0.00134,-0.63498 0,-0.92497v-0.07503c0,0 0,-0.00775 0.00056,-0.02213c0.01099,-1.58408 0.11743,-2.68864 0.99708,-4.32207l1.07031,-0.90387c0,0 1.24808,-0.83205 2.08013,0.41603c0.26947,0.40421 0.32076,0.76478 0.26693,1.06758c2.36418,2.84801 4.65411,5.69971 7.6059,7.98045c0,0 1.18403,0.92091 0.26312,2.10494zM238.84582,189.52439c-2.02543,-1.83614 -3.78591,-3.89042 -5.54113,-5.99056c-0.006,0.17266 -0.00475,0.34938 -0.00032,0.53391c0.03202,0.16683 0.03202,0.28226 0.03202,0.28226v0.4c-0.01785,2.56766 0.59898,5.15647 1.79666,7.2459c0.35991,0.62789 0.02783,2.31385 0.70334,2.0541c0.67414,-0.25923 1.4736,-2.95953 1.76656,-3.3536c0.34031,-0.45776 0.79326,-0.81336 1.24287,-1.17201z" data-paper-data="{&quot;index&quot;:null}" fill="#000000" stroke="none" stroke-width="0.5"/><path d="M256.72264,202.77825c0.77175,1.28624 -0.51449,2.05799 -0.51449,2.05799l-1.5857,0.80218c-8.03748,0.99082 -16.20255,0.03226 -22.04671,-5.82775c-1.9548,-1.96011 -3.57568,-3.47327 -3.64279,-6.1665c-0.03584,-0.00559 -0.07173,-0.01109 -0.10764,-0.01652l0.02596,-0.23575c0,0 -0.00946,-0.00566 -0.02752,-0.01569c0.03659,-0.01798 0.07274,-0.03424 0.10844,-0.04891c0.00232,-0.11882 0.00756,-0.23988 0.0158,-0.36334c0,0 0.18605,-1.48842 1.67446,-1.30237c1.48841,0.18604 1.30236,1.67446 1.30236,1.67446c-0.43579,1.69831 1.60347,3.18806 2.77224,4.35329c5.17459,5.15892 12.43524,5.87581 19.55329,4.97225l0.4143,-0.39783c0,0 1.28624,-0.77174 2.05799,0.5145z" data-paper-data="{&quot;index&quot;:null}" fill="#000000" stroke="none" stroke-width="0.5"/></g></g></svg>