<svg version="1.1" xmlns="http://www.w3.org/2000/svg" xmlns:xlink="http://www.w3.org/1999/xlink" width="39.98366" height="21.41979" viewBox="0,0,39.98366,21.41979"><g transform="translate(-226.67921,-178.83021)"><g data-paper-data="{&quot;isPaintingLayer&quot;:true}" fill-rule="nonzero" stroke-linecap="butt" stroke-linejoin="miter" stroke-miterlimit="10" stroke-dasharray="" stroke-dashoffset="0" style="mix-blend-mode: normal"><path d="M264.64637,197.752c-1.88339,0.23485 -3.8376,0.53463 -5.7793,0.59803c0.05907,0.21345 0.03212,0.39321 -0.03244,0.53928c-0.81271,-0.13266 -1.63399,-0.23944 -2.45784,-0.33844c0.09478,-0.0819 0.18952,-0.16447 0.28427,-0.24771h-0.00002c-0.20169,-0.01681 -0.40291,-0.0375 -0.60354,-0.06241c-2.35061,-0.29187 -5.12888,-0.97542 -7.30081,-1.89591c-1.56649,-0.6639 -3.16242,-1.7704 -4.78403,-2.27099c-0.33509,-0.10344 -0.72685,0.00823 -1.04194,-0.14574c-0.03074,-0.01502 -0.06137,-0.03027 -0.09187,-0.04572c-0.67311,-0.61637 -1.34379,-1.23792 -2.08459,-1.76096c-0.82193,-0.58033 -1.68352,-1.04889 -2.56073,-1.47005c-0.92978,-0.79416 -1.71935,-1.74165 -2.60797,-2.58234c-0.69679,-0.6592 -1.95304,-1.27573 -2.53314,-2.10312c-0.74882,-1.06805 -1.29493,-4.06547 -2.79248,-4.52577c-0.69122,-0.21245 -1.25397,1.09809 -1.60485,2.09774l-0.54877,-0.68596c-0.21814,-0.27751 -0.48853,-0.51201 -0.79634,-0.68868c0.60696,-1.45899 1.38908,-2.7356 3.43659,-2.48001c0.48238,0.06022 0.74659,0.62298 1.11123,0.94447c1.50099,1.3234 1.5873,2.68015 2.65922,4.25264c0.55885,0.81983 1.59945,1.18257 2.32081,1.8638c0.84588,0.79881 1.57413,1.72287 2.46545,2.47064c1.5279,0.83864 2.75899,2.27826 4.29504,3.0169c3.79476,1.82479 8.39849,3.66917 12.63883,4.19488c2.70357,0.33519 5.51763,-0.14957 8.1831,-0.48354c0,0 0.90448,-0.11306 1.01754,0.79142c0.11306,0.90448 -0.79142,1.01754 -0.79142,1.01754z" data-paper-data="{&quot;index&quot;:null}" fill="#000000" stroke="#000000" stroke-width="1"/><path d="M235.55342,188.03072c0.91105,0.86191 1.7203,1.83423 2.68099,2.64032c-1.76691,-0.85179 -3.59878,-1.50698 -5.29886,-2.49243c-1.34433,-0.77923 -1.93689,-2.50806 -3.2451,-3.34652l-1.06927,-1.33659c0.3532,-1.00059 0.91788,-2.3058 1.60699,-2.09399c1.49755,0.46029 2.10926,3.53314 2.85809,4.60119c0.58009,0.82739 1.77036,1.36882 2.46715,2.02802z" data-paper-data="{&quot;index&quot;:null}" fill="#ffffff" stroke="none" stroke-width="0.5"/><path d="M256.71017,198.31244c-0.09356,0.0822 -0.18714,0.16378 -0.28078,0.24476c-3.78321,-0.45625 -7.62338,-0.7403 -10.93982,-2.60499c-1.03468,-0.58175 -1.91121,-1.39243 -2.7923,-2.19951c0.08671,0.04659 0.17418,0.09154 0.2625,0.1347c0.31509,0.15397 0.71958,0.05554 1.05467,0.15898c1.62161,0.50059 3.22538,1.64065 4.79187,2.30454c2.17193,0.92049 4.94966,1.60741 7.30028,1.89928h0.00001c0.20063,0.02491 0.40188,0.04542 0.60358,0.06224z" data-paper-data="{&quot;index&quot;:null}" fill="#ffffff" stroke="none" stroke-width="0.5"/><path d="M266.56607,197.87565c0.47434,1.42303 -0.94868,1.89737 -0.94868,1.89737l-1.67434,0.47698c-2.15948,-0.01097 -3.45636,-0.68158 -5.42483,-1.26142c-2.91306,-0.85808 -5.87772,-1.0908 -8.73442,-2.24673c-2.24046,-0.90657 -4.11838,-2.23493 -6.49288,-2.63144c-0.05162,0.06466 -0.08721,0.10025 -0.08721,0.10025l-1.2,1.2c0,0 -0.61168,0.61168 -1.37053,0.4415l-0.49925,0.07656c-2.52835,1.08113 -5.96111,2.71033 -8.65724,1.04579c-1.2589,-0.77722 -1.588,-3.18289 -1.96099,-4.36334c-1.05509,-3.33919 -1.58066,-6.69735 -1.85771,-10.21107c-0.13307,-0.10629 -0.27622,-0.20048 -0.4278,-0.28091c0.14037,-0.65681 0.38496,-1.32323 0.8105,-2.11342l1.07031,-0.90387c0,0 1.24808,-0.83205 2.08013,0.41603c0.26947,0.40421 0.32076,0.76478 0.26693,1.06758c1.86533,2.24707 3.68443,4.49643 5.81887,6.46585c0.94089,0.69829 1.9218,1.37647 2.93471,2.07571c0.44869,0.30975 2.10015,1.19441 3.19907,1.97738c3.81485,0.6251 6.8674,2.92155 10.55717,4.00697c1.70597,0.50185 3.68991,0.49772 5.4,1c1.81982,0.53451 2.60965,1.15084 4.57517,1.13858l0.72566,-0.32302c0,0 1.42303,-0.47434 1.89737,0.94868zM237.26341,190.565c-0.4255,-0.30398 -0.83954,-0.5985 -1.24308,-0.88823c-0.19375,-0.0845 -0.38731,-0.16925 -0.58042,-0.25492c-0.26879,-0.24592 -0.53296,-0.49566 -0.79311,-0.74882c-1.31093,-0.98204 -2.51062,-1.97203 -3.6387,-3.16128c-0.00024,0.00123 -0.00047,0.00246 -0.00071,0.00369c0.29128,2.089 0.71923,4.13335 1.36303,6.1734c0.29675,0.94033 -0.0244,2.36041 0.83901,2.83666c1.51381,0.835 4.39525,-0.77529 5.74276,-1.35421l1.15215,-0.25959c0.05143,-0.07334 0.10181,-0.13444 0.14377,-0.18138c-1.34784,-0.53846 -1.83284,-1.34243 -2.98472,-2.16534z" data-paper-data="{&quot;index&quot;:null}" fill="#000000" stroke="none" stroke-width="0.5"/><path d="M236.05277,189.63873c0.40354,0.28973 0.83347,0.63494 1.25897,0.93892c1.15188,0.82291 1.63211,1.63868 2.97995,2.17714c-0.04196,0.04694 -0.09344,0.10991 -0.14487,0.18325l-1.15772,0.26695c-1.34751,0.57892 -4.29001,2.19929 -5.80382,1.36429c-0.86341,-0.47625 -0.56327,-1.91862 -0.86002,-2.85895c-0.6438,-2.04005 -1.06196,-4.14126 -1.35325,-6.23027c0.00023,-0.00123 0.00049,-0.00248 0.00072,-0.00371c1.12809,1.18925 2.33527,2.17309 3.6462,3.15513c0.26016,0.25316 0.53945,0.49608 0.80824,0.742c0.19311,0.08568 0.43186,0.18076 0.62561,0.26526z" data-paper-data="{&quot;noHover&quot;:false,&quot;origItem&quot;:[&quot;Path&quot;,{&quot;applyMatrix&quot;:true,&quot;segments&quot;:[[[513.25935,381.12996],[0.851,-0.60796],[-2.30376,1.64582]],[[507.28991,385.46063],[2.69568,-1.07692],[0.08392,0.09388]],[[507.57745,385.82339],[-0.10286,-0.14668],[0,0]],[[509.88176,386.34256],[0,0],[2.69502,1.15784]],[[521.36728,389.05098],[-3.02762,1.67],[1.72682,-0.9525]],[[523.04531,383.37765],[-0.5935,1.88067],[1.2876,-4.08011]],[[525.77138,371.03085],[-0.58257,4.17801],[-0.00048,-0.00246]],[[525.76996,371.02346],[0.00047,0.00246],[-2.25617,2.37849]],[[518.49256,377.34603],[2.62186,-1.96408],[-0.52031,0.50631]],[[516.90634,378.84367],[0.53758,-0.49184],[-0.38622,0.17135]],[[515.74551,379.35351],[0.3875,-0.16899],[-0.80708,0.57946]]],&quot;closed&quot;:true}],&quot;index&quot;:null}" fill="#ffffff" stroke="none" stroke-width="0.5"/><path d="" data-paper-data="{&quot;index&quot;:null}" fill="#000000" stroke="none" stroke-width="0.5"/></g></g></svg>