<svg version="1.1" xmlns="http://www.w3.org/2000/svg" xmlns:xlink="http://www.w3.org/1999/xlink" width="41.3121" height="29.51319" viewBox="0,0,41.3121,29.51319"><g transform="translate(-228.44549,-178.83022)"><g data-paper-data="{&quot;isPaintingLayer&quot;:true}" fill-rule="nonzero" stroke-linecap="butt" stroke-linejoin="miter" stroke-miterlimit="10" stroke-dasharray="" stroke-dashoffset="0" style="mix-blend-mode: normal"><path d="M268.46616,197.75199c-1.88339,0.23485 -3.8376,0.53463 -5.7793,0.59803c0.18713,0.67618 -0.48905,1.01426 -0.48905,1.01426l-0.28821,0.10907c-2.47886,2.20221 -4.96198,3.97088 -7.95378,5.46996c-0.85694,0.4901 -1.71336,0.97284 -2.57163,1.45019c-0.78497,-0.28134 -1.61549,-0.53152 -2.3809,-0.77015c1.36837,-0.75038 2.73006,-1.50954 4.09233,-2.28735c2.78586,-1.38986 5.08458,-3.01155 7.38524,-5.03285h-0.00002c-0.20169,-0.01681 -0.40291,-0.0375 -0.60354,-0.06241c-2.35061,-0.29187 -5.12888,-0.97542 -7.30081,-1.89591c-1.56649,-0.6639 -3.16242,-1.7704 -4.78403,-2.27099c-0.33509,-0.10344 -0.72685,0.00823 -1.04194,-0.14574c-1.68167,-0.82176 -2.99817,-2.29803 -4.65638,-3.2084c-0.96513,-0.80775 -1.77453,-1.78573 -2.68878,-2.65067c-0.69679,-0.6592 -1.95304,-1.27573 -2.53314,-2.10312c-0.74882,-1.06805 -1.29493,-4.06547 -2.79248,-4.52577c-1.01848,-0.31304 -1.75805,2.68044 -1.9519,3.1139c-1.3823,3.09085 -1.47028,6.71332 -1.24799,10.20255c-0.2868,-0.10142 -0.59545,-0.1566 -0.91699,-0.1566c-0.31619,0 -0.61991,0.05336 -0.90265,0.15157c-0.23159,-3.74523 -0.08608,-7.61122 1.40343,-10.9418c0.86454,-1.93312 1.2877,-4.47792 4.10273,-4.12652c0.48238,0.06022 0.74659,0.62298 1.11123,0.94447c1.50099,1.3234 1.5873,2.68015 2.65922,4.25264c0.55885,0.81983 1.59945,1.18257 2.32081,1.8638c0.84588,0.79881 1.57413,1.72287 2.46545,2.47064c1.5279,0.83864 2.75899,2.27826 4.29504,3.0169c3.79476,1.82479 8.39849,3.66917 12.63883,4.19488c2.70357,0.33519 5.51763,-0.14957 8.1831,-0.48354c0,0 0.90448,-0.11306 1.01754,0.79142c0.11306,0.90448 -0.79142,1.01754 -0.79142,1.01754z" data-paper-data="{&quot;index&quot;:null}" fill="#000000" stroke="#000000" stroke-width="1"/><path d="M236.82117,199.13156c-0.98463,-0.6482 -1.96062,-1.2967 -2.93105,-1.92783l-2.07035,-1.88214c-0.28198,-0.25827 -0.61797,-0.45853 -0.98908,-0.58185c-0.21785,-3.49404 -0.12144,-7.13208 1.25829,-10.21718c0.19385,-0.43345 0.94052,-3.43409 1.959,-3.12105c1.49755,0.46029 2.10926,3.53314 2.85809,4.60119c0.58009,0.82739 1.77036,1.36882 2.46715,2.02802c0.91425,0.86494 1.72599,1.84107 2.69113,2.64882c1.65821,0.91037 3.03355,2.3861 4.71523,3.20786c0.31509,0.15397 0.71958,0.05554 1.05467,0.15898c1.62161,0.50059 3.22538,1.64065 4.79187,2.30454c2.17193,0.92049 4.94966,1.60741 7.30028,1.89928h0.00001c0.20063,0.02491 0.40188,0.04542 0.60358,0.06224c-2.30066,2.02129 -4.61404,3.66991 -7.39991,5.05977c-1.34573,0.76837 -2.70483,1.52562 -4.06369,2.2708c-0.66018,-0.20544 -1.2746,-0.40196 -1.7732,-0.60198c-0.08091,0.00897 -0.13034,0.00897 -0.13034,0.00897h-1.2c-4.19414,0 -6.86294,-0.1213 -9.75233,-3.53972c0,0 -0.96027,-1.15233 0.19206,-2.11261c0.14297,-0.11915 0.28299,-0.20577 0.41859,-0.26611z" data-paper-data="{&quot;index&quot;:null}" fill="#ffffff" stroke="none" stroke-width="0.5"/><path d="M243.1469,190.67089c-0.38595,0.49622 -0.81811,0.62273 -1.18996,0.60226c-0.00412,0.00378 -0.00632,0.0057 -0.00632,0.0057c-1.56636,1.30082 -3.01378,5.86879 -5.58776,5.77113c-2.78654,-0.10572 -2.43486,-2.03387 -3.29666,-3.5459c-1.34802,-2.3651 -2.05528,-5.11645 -2.18262,-7.9365c-0.02072,-0.13126 -0.02072,-0.2176 -0.02072,-0.2176c0,-0.32864 -0.00134,-0.63498 0,-0.92497v-0.07503c0,0 0,-0.00775 0.00056,-0.02213c0.01099,-1.58408 0.11743,-2.68864 0.99708,-4.32207l1.07031,-0.90387c0,0 1.24808,-0.83205 2.08013,0.41603c0.26947,0.40421 0.32076,0.76478 0.26693,1.06758c2.36418,2.84801 4.65411,5.69971 7.6059,7.98045c0,0 1.18403,0.92091 0.26312,2.10494zM239.37229,189.52439c-2.02543,-1.83614 -3.78591,-3.89042 -5.54113,-5.99056c-0.006,0.17266 -0.00475,0.34938 -0.00032,0.53391c0.03202,0.16683 0.03202,0.28226 0.03202,0.28226v0.4c-0.01785,2.56766 0.59898,5.15647 1.79666,7.2459c0.35991,0.62789 0.02783,2.31385 0.70334,2.0541c0.67414,-0.25923 1.4736,-2.95953 1.76656,-3.3536c0.34031,-0.45776 0.79326,-0.81336 1.24287,-1.17201z" data-paper-data="{&quot;index&quot;:null}" fill="#000000" stroke="none" stroke-width="0.5"/><path d="M252.46285,206.35c0,1.5 -1.5,1.5 -1.5,1.5l-0.05074,-0.00744c-3.75808,0.37242 -9.08384,1.03896 -12.67524,-0.2878c-3.96004,-1.46295 -7.36886,-8.53982 -9.54601,-12.00976c0,0 -0.795,-1.272 0.477,-2.067c1.272,-0.795 2.067,0.477 2.067,0.477c1.53514,2.4669 3.2162,4.96452 4.93838,7.30901c0.80961,1.10216 1.70744,3.0228 3.1156,3.48123c3.25669,1.06022 7.95153,0.4528 11.32476,0.1122l0.34926,-0.00744c0,0 1.5,0 1.5,1.5z" data-paper-data="{&quot;index&quot;:null}" fill="#000000" stroke="none" stroke-width="0.5"/></g></g></svg>