<svg version="1.1" xmlns="http://www.w3.org/2000/svg" xmlns:xlink="http://www.w3.org/1999/xlink" width="40.89308" height="33.22831" viewBox="0,0,40.89308,33.22831"><g transform="translate(-228.33803,-178.83023)"><g data-paper-data="{&quot;isPaintingLayer&quot;:true}" fill-rule="nonzero" stroke-linecap="butt" stroke-linejoin="miter" stroke-miterlimit="10" stroke-dasharray="" stroke-dashoffset="0" style="mix-blend-mode: normal"><path d="M262.16038,198.35c0.18715,0.67619 -0.48904,1.01428 -0.48904,1.01428l-0.28821,0.10907c-2.47886,2.20221 -4.96198,3.97088 -7.95378,5.46996c-1.81566,1.03841 -3.62894,2.04375 -5.46256,3.03486c-1.96649,1.06293 -3.7108,2.56376 -5.89069,3.23401c-7.57891,2.3303 -11.19982,-7.66853 -13.23807,-12.94495c-0.4925,-4.74766 -0.8641,-10.06763 1.09913,-14.45747c0.86454,-1.93312 1.2877,-4.47792 4.10273,-4.12652c0.48238,0.06022 0.74659,0.62298 1.11123,0.94447c1.50099,1.3234 1.5873,2.68015 2.65922,4.25264c0.55885,0.81983 1.59945,1.18257 2.32081,1.8638c0.84588,0.79881 1.57413,1.72287 2.46545,2.47064c1.5279,0.83864 2.75899,2.27826 4.29504,3.0169c3.79476,1.82479 8.39849,3.66917 12.63883,4.19488c2.70357,0.33519 5.51763,-0.14957 8.1831,-0.48354c0,0 0.90448,-0.11306 1.01754,0.79142c0.11306,0.90448 -0.79142,1.01754 -0.79142,1.01754c-1.8834,0.23485 -3.83761,0.53463 -5.77931,0.59803zM259.95436,198.30315c-0.20169,-0.01681 -0.40291,-0.0375 -0.60354,-0.06241c-2.35061,-0.29187 -5.12888,-0.97542 -7.30081,-1.89591c-1.56649,-0.6639 -3.16242,-1.7704 -4.78403,-2.27099c-0.33509,-0.10344 -0.72685,0.00823 -1.04194,-0.14574c-1.68167,-0.82176 -2.99817,-2.29803 -4.65638,-3.2084c-0.96513,-0.80775 -1.77453,-1.78573 -2.68878,-2.65067c-0.69679,-0.6592 -1.95304,-1.27573 -2.53314,-2.10312c-0.74882,-1.06805 -1.29493,-4.06547 -2.79248,-4.52577c-1.01848,-0.31304 -1.75805,2.68044 -1.9519,3.1139c-1.79663,4.01731 -1.40674,8.93272 -0.99096,13.28636c0.78744,1.98348 1.63333,3.85914 2.55043,5.78525c0.73149,1.53628 1.76133,3.55427 3.13619,4.65305c3.81628,3.04995 7.35334,-0.03196 10.79645,-1.90076c1.83573,-0.99637 3.65519,-2.00251 5.47567,-3.04194c2.78586,-1.38986 5.08458,-3.01155 7.38524,-5.03285z" data-paper-data="{&quot;index&quot;:null}" fill="#000000" stroke="#000000" stroke-width="1"/><path d="M259.39994,198.2502c0.20063,0.02491 0.40188,0.04542 0.60358,0.06224c-2.30066,2.02129 -4.61404,3.66991 -7.39991,5.05977c-1.82049,1.03943 -3.66543,2.05853 -5.50116,3.0549c-3.44311,1.8688 -7.01751,4.9427 -10.83379,1.89274c-1.37486,-1.09878 -2.41766,-3.1298 -3.14915,-4.66608c-0.9171,-1.92611 -1.77101,-3.82192 -2.55846,-5.80539c-0.41578,-4.35364 -0.79517,-9.30851 1.00146,-13.32582c0.19385,-0.43345 0.94052,-3.43409 1.959,-3.12105c1.49755,0.46029 2.10926,3.53314 2.85809,4.60119c0.58009,0.82739 1.77036,1.36882 2.46715,2.02802c0.91425,0.86494 1.72599,1.84107 2.69113,2.64882c1.65821,0.91037 3.03355,2.3861 4.71523,3.20786c0.31509,0.15397 0.71958,0.05554 1.05467,0.15898c1.62161,0.50059 3.22538,1.64065 4.79187,2.30454c2.17193,0.92049 4.94966,1.60741 7.30028,1.89928z" data-paper-data="{&quot;noHover&quot;:false,&quot;origItem&quot;:[&quot;Path&quot;,{&quot;applyMatrix&quot;:true,&quot;segments&quot;:[[[237.232,198.30315],[0.2017,-0.01682],[2.30066,2.0213]],[[244.61724,203.336],[-2.78587,-1.38986],[1.82048,1.03943]],[[250.09291,206.37794],[-1.83573,-0.99637],[3.44311,1.8688]],[[260.88936,208.27869],[-3.81628,3.04996],[1.37486,-1.09878]],[[264.02555,203.62564],[-0.73149,1.53628],[0.9171,-1.92611]],[[266.57598,197.8404],[-0.78745,1.98347],[0.41578,-4.35364]],[[265.58502,184.55404],[1.79663,4.01731],[-0.19385,-0.43346]],[[263.63312,181.44014],[1.01848,-0.31304],[-1.49755,0.4603]],[[260.84064,185.96591],[0.74883,-1.06805],[-0.5801,0.82739]],[[258.3075,188.06903],[0.69679,-0.6592],[-0.91425,0.86494]],[[255.61872,190.7197],[0.96513,-0.80775],[-1.65821,0.91037]],[[250.96233,193.9281],[1.68168,-0.82176],[-0.31509,0.15397]],[[249.92039,194.07384],[0.33509,-0.10344],[-1.62161,0.50059]],[[245.13636,196.34483],[1.56649,-0.66389],[-2.17193,0.92049]],[[237.83555,198.24073],[2.35062,-0.29187],[-0.20063,0.02491]]],&quot;closed&quot;:true}],&quot;index&quot;:null}" fill="#ffffff" stroke="none" stroke-width="0.5"/><path d="M242.62042,190.67089c-0.38595,0.49622 -0.81811,0.62273 -1.18996,0.60226c-0.00412,0.00378 -0.00632,0.0057 -0.00632,0.0057c-1.56636,1.30082 -3.01378,5.86879 -5.58776,5.77113c-2.78654,-0.10572 -2.43486,-2.03387 -3.29666,-3.5459c-1.34802,-2.3651 -2.05528,-5.11645 -2.18262,-7.9365c-0.02072,-0.13126 -0.02072,-0.2176 -0.02072,-0.2176c0,-0.32864 -0.00134,-0.63498 0,-0.92497v-0.07503c0,0 0,-0.00775 0.00056,-0.02213c0.01099,-1.58408 0.11743,-2.68864 0.99708,-4.32207l1.07031,-0.90387c0,0 1.24808,-0.83205 2.08013,0.41603c0.26947,0.40421 0.32076,0.76478 0.26693,1.06758c2.36418,2.84801 4.65411,5.69971 7.6059,7.98045c0,0 1.18403,0.92091 0.26312,2.10494zM238.84581,189.52439c-2.02543,-1.83614 -3.78591,-3.89042 -5.54113,-5.99056c-0.006,0.17266 -0.00475,0.34938 -0.00032,0.53391c0.03202,0.16683 0.03202,0.28226 0.03202,0.28226v0.4c-0.01785,2.56766 0.59898,5.15647 1.79666,7.2459c0.35991,0.62789 0.02783,2.31385 0.70334,2.0541c0.67414,-0.25923 1.4736,-2.95953 1.76656,-3.3536c0.34031,-0.45776 0.79326,-0.81336 1.24287,-1.17201z" data-paper-data="{&quot;index&quot;:null}" fill="#000000" stroke="none" stroke-width="0.5"/></g></g></svg>