<svg version="1.1" xmlns="http://www.w3.org/2000/svg" xmlns:xlink="http://www.w3.org/1999/xlink" width="17.88175" height="26.84162" viewBox="0,0,17.88175,26.84162"><g transform="translate(-241.45705,-182.81773)"><g data-paper-data="{&quot;isPaintingLayer&quot;:true}" fill-rule="nonzero" stroke="none" stroke-width="0.5" stroke-linecap="butt" stroke-linejoin="miter" stroke-miterlimit="10" stroke-dasharray="" stroke-dashoffset="0" style="mix-blend-mode: normal"><path d="" data-paper-data="{&quot;index&quot;:null}" fill="#000000"/><path d="M250.10977,202.17204c-0.87765,-0.87763 0,-1.75528 0,-1.75528l0.33099,-0.33099c2.4267,-2.06214 -1.49972,-7.65204 -4.25254,-7.47959c0,0 -0.38651,0 -0.72816,-0.21569c-0.87368,2.51669 -1.50933,5.06466 -1.50595,7.91095c0.00242,2.03491 -0.74555,4.4109 1.47193,5.27787l1.2287,0.30309c0,0 0.36234,0.09059 0.6398,0.37115c1.92422,-1.26088 3.61794,-2.88321 5.13406,-4.6462c-0.08076,0.0758 -0.15899,0.15323 -0.23257,0.23369l-0.33099,0.33099c0,0 -0.87763,0.87765 -1.75528,0zM244.63352,207.9318c-3.55976,-1.59893 -3.16561,-4.20079 -3.16178,-7.63032c0.00797,-7.1422 2.88841,-12.39004 7.67886,-17.34823c1.91464,-0.11563 3.7714,-0.40763 5.55712,0.52732c4.39137,2.29918 5.25465,8.43555 4.25782,12.86035c-0.30671,1.36147 -1.9642,3.45296 -2.79957,4.56815c-2.6068,3.48001 -5.70725,6.64645 -9.58819,8.61151c0,0 -1.11013,0.55506 -1.6652,-0.55507c-0.19998,-0.39996 -0.18381,-0.72787 -0.08129,-0.98373z" data-paper-data="{&quot;index&quot;:null}" fill="#000000"/><path d="M250.14595,200.43684c0,0 -0.93744,0.82361 -0.05979,1.70126c0.87764,0.87764 1.74599,0.00888 1.74599,0.00888l0.32869,-0.32767c0.07357,-0.08046 0.22351,-0.11667 0.30426,-0.19248c-1.51611,1.76299 -3.25131,3.40696 -5.17554,4.66784c-0.27746,-0.28056 -0.64393,-0.37186 -0.64393,-0.37186l-1.23604,-0.30548c-2.21747,-0.86697 -1.49336,-3.27149 -1.49578,-5.3064c-0.00338,-2.8463 0.65767,-5.44231 1.53135,-7.959c0.34165,0.21567 0.73154,0.21454 0.73154,0.21454c2.75282,-0.17245 6.73002,5.47017 4.30331,7.53231l-0.33405,0.33801z" data-paper-data="{&quot;noHover&quot;:false,&quot;origItem&quot;:[&quot;Path&quot;,{&quot;applyMatrix&quot;:true,&quot;selected&quot;:true,&quot;segments&quot;:[[[238.6474,209.17694],[0.75985,-0.75985],[-0.75985,0.75985],7],[[237.1277,209.17694],[0,0],[0,0],7],[[236.84115,208.89039],[0,0],[-0.0637,-0.06966],7],[[236.63979,208.68806],[0.06991,0.06563],[1.31264,1.52637],7],[[241.08478,212.71067],[-1.66597,-1.09165],[0.24022,-0.2429],7],[[241.63872,212.38933],[0,0],[0,0],7],[[242.70251,212.12692],[0,0],[1.91986,-0.75061],7],[[243.97688,207.55743],[-0.00209,1.7618],[0.00292,-2.46427],7],[[242.67305,200.70825],[0.75642,2.17891],[-0.29579,0.18674],7],[[242.04262,200.89499],[0,0],[-2.38335,-0.14931],7],[[238.36084,207.37069],[-2.10101,-1.78537],[0,0],7],[[238.6474,207.65725],[0,0],[0,0],7]],&quot;closed&quot;:true}],&quot;index&quot;:null}" fill="#770000"/></g></g></svg>