<svg version="1.1" xmlns="http://www.w3.org/2000/svg" xmlns:xlink="http://www.w3.org/1999/xlink" width="20.28175" height="30.44418" viewBox="0,0,20.28175,30.44418"><g transform="translate(-241.45704,-183.41516)"><g data-paper-data="{&quot;isPaintingLayer&quot;:true}" fill-rule="nonzero" stroke="none" stroke-width="0.5" stroke-linecap="butt" stroke-linejoin="miter" stroke-miterlimit="10" stroke-dasharray="" stroke-dashoffset="0" style="mix-blend-mode: normal"><path d="" data-paper-data="{&quot;index&quot;:null}" fill="#000000"/><path d="M251.2711,205.36713c-0.99544,-0.99543 0,-1.99087 0,-1.99087l0.37541,-0.37541c2.75241,-2.33891 -1.701,-8.67906 -4.82329,-8.48346c0,0 -0.43839,0 -0.82589,-0.24464c-0.99094,2.85447 -1.7119,5.74442 -1.70807,8.97272c0.00274,2.30803 -0.84562,5.00291 1.66948,5.98624l1.39361,0.34377c0,0 0.41097,0.10275 0.72567,0.42096c2.18248,-1.43011 4.10352,-3.27018 5.82313,-5.26979c-0.0916,0.08598 -0.18034,0.1738 -0.26379,0.26506l-0.37541,0.37541c0,0 -0.99543,0.99544 -1.99087,0zM245.05985,211.89992c-4.03754,-1.81353 -3.59048,-4.7646 -3.58614,-8.65442c0.00904,-8.10079 3.27608,-14.05297 8.70948,-19.67662c2.17161,-0.13115 4.27758,-0.46234 6.30297,0.59809c4.98076,2.60776 5.9599,9.56772 4.82928,14.5864c-0.34788,1.5442 -2.22783,3.9164 -3.17532,5.18127c-2.95667,3.94708 -6.47325,7.53851 -10.87507,9.76731c0,0 -1.25913,0.62956 -1.8887,-0.62957c-0.22682,-0.45364 -0.20848,-0.82556 -0.0922,-1.11576z" data-paper-data="{&quot;index&quot;:null}" fill="#000000"/><path d="M251.31212,203.39902c0,0 -1.06325,0.93416 -0.06781,1.9296c0.99544,0.99543 1.98033,0.01007 1.98033,0.01007l0.37281,-0.37165c0.08345,-0.09126 0.25351,-0.13233 0.3451,-0.21831c-1.7196,1.99961 -3.68769,3.86423 -5.87018,5.29434c-0.3147,-0.31822 -0.73036,-0.42177 -0.73036,-0.42177l-1.40193,-0.34648c-2.51509,-0.98333 -1.6938,-3.71057 -1.69654,-6.0186c-0.00383,-3.22832 0.74594,-6.17275 1.73688,-9.02722c0.3875,0.24462 0.82972,0.24334 0.82972,0.24334c3.12229,-0.1956 7.63329,6.20435 4.88088,8.54326l-0.37889,0.38338z" data-paper-data="{&quot;noHover&quot;:false,&quot;origItem&quot;:[&quot;Path&quot;,{&quot;applyMatrix&quot;:true,&quot;selected&quot;:true,&quot;segments&quot;:[[[238.6474,209.17694],[0.75985,-0.75985],[-0.75985,0.75985],7],[[237.1277,209.17694],[0,0],[0,0],7],[[236.84115,208.89039],[0,0],[-0.0637,-0.06966],7],[[236.63979,208.68806],[0.06991,0.06563],[1.31264,1.52637],7],[[241.08478,212.71067],[-1.66597,-1.09165],[0.24022,-0.2429],7],[[241.63872,212.38933],[0,0],[0,0],7],[[242.70251,212.12692],[0,0],[1.91986,-0.75061],7],[[243.97688,207.55743],[-0.00209,1.7618],[0.00292,-2.46427],7],[[242.67305,200.70825],[0.75642,2.17891],[-0.29579,0.18674],7],[[242.04262,200.89499],[0,0],[-2.38335,-0.14931],7],[[238.36084,207.37069],[-2.10101,-1.78537],[0,0],7],[[238.6474,207.65725],[0,0],[0,0],7]],&quot;closed&quot;:true}],&quot;index&quot;:null}" fill="#770000"/></g></g></svg>