<svg version="1.1" xmlns="http://www.w3.org/2000/svg" xmlns:xlink="http://www.w3.org/1999/xlink" width="41.33334" height="13.18946" viewBox="0,0,41.33334,13.18946"><g transform="translate(-225.99999,-174.50001)"><g data-paper-data="{&quot;isPaintingLayer&quot;:true}" fill="#000000" fill-rule="nonzero" stroke="none" stroke-width="0.5" stroke-linecap="butt" stroke-linejoin="miter" stroke-miterlimit="10" stroke-dasharray="" stroke-dashoffset="0" style="mix-blend-mode: normal"><path d="M254.44217,181.21498c-0.18879,0.10888 -0.38937,0.20253 -0.59015,0.29591c-0.01547,0.01518 -0.03125,0.03 -0.04737,0.04442c-0.09556,0.08552 -0.63892,0.49792 -1.36165,1.03841c-0.48093,1.00181 0.38582,2.30358 -0.56985,3.21694c-0.78738,0.75253 -3.15156,0.68457 -5.08282,0.56415c-5.56363,1.99712 -12.59268,1.1252 -18.29035,1.1252c0,0 -2.5,0 -2.5,-2.5c0,-1.19621 0.57237,-1.82005 1.16936,-2.1454c-0.17472,-0.08831 -1.29566,-0.71415 -0.7224,-1.97532c0.6207,-1.36555 1.98625,-0.74485 1.98625,-0.74485c1.74314,0.82964 2.74013,0.4725 4.73086,0.61899c3.63942,0.26781 7.09746,1.2134 10.69661,1.30989c0.67977,-0.18067 1.33318,-0.40413 1.95222,-0.67892c2.77962,-1.23389 4.70671,-4.86477 7.39705,-6.02743c1.01658,-0.43933 2.22117,-0.01795 3.31792,-0.17157c1.87513,-0.26264 3.7454,-0.67347 5.63879,-0.6854h2.66667c0,0 2.49999,0 2.5,2.49999l0,0.00001c-0.00001,2.49999 -2.5,2.49999 -2.5,2.49999h-2.66667c-1.68976,-0.0134 -3.34743,0.47024 -5.02788,0.64794c-0.3853,0.04074 -0.78818,-0.10858 -1.17908,-0.19322z"/></g></g></svg>