<svg version="1.1" xmlns="http://www.w3.org/2000/svg" xmlns:xlink="http://www.w3.org/1999/xlink" width="31.54145" height="22.24706" viewBox="0,0,31.54145,22.24706"><g transform="translate(-234.067,-168.3751)"><g data-paper-data="{&quot;isPaintingLayer&quot;:true}" fill-rule="nonzero" stroke="none" stroke-linecap="butt" stroke-linejoin="miter" stroke-miterlimit="10" stroke-dasharray="" stroke-dashoffset="0" style="mix-blend-mode: normal"><path d="M235.7498,178.99368c1.52947,-3.49099 3.9423,-6.70775 6.99398,-8.75053c1.86857,-1.25082 4.91799,-1.45049 7.00567,-1.68981c6.9024,-0.79125 11.56227,0.92882 14.45939,7.64871c0.91702,2.58083 2.56085,7.78821 0.12945,10.14238c-1.25504,1.21517 -5.43609,1.38559 -7.15598,1.52578c-3.97624,0.32413 -7.96173,0.79214 -11.87482,1.48465c-3.72068,0.65846 -6.13311,2.20532 -9.78583,0.47525c-0.69792,-1.3346 -1.02538,-2.59508 -1.15862,-3.87629c-0.37724,-0.50068 -0.28646,-1.15878 -0.28646,-1.15878c0.05916,-0.42106 0.13284,-0.84521 0.22062,-1.2709c0.02682,-0.90403 0.09212,-1.84408 0.14218,-2.84905l1.18609,-1.5964c0,0 0.04497,-0.03598 0.12434,-0.08502zM237.15369,184.5307c-0.03216,1.12412 0.05326,2.22354 0.44966,3.13919c2.10594,0.81019 5.11978,-0.89766 7.21417,-1.27475c3.98857,-0.71812 8.06925,-1.19738 12.12518,-1.51535c1.00001,-0.0784 4.63641,-0.09921 5.34402,-0.72422c1.22356,-1.08074 -0.4752,-5.75729 -0.87055,-6.85762c-2.35208,-5.52756 -5.77054,-6.3893 -11.32731,-5.76388c-1.48268,0.16688 -4.32892,0.2566 -5.70763,1.22278c-3.77245,2.64367 -6.4359,7.29975 -7.22754,11.77385z" fill="#000000" stroke-width="0.5"/><path d="M244.34978,172.71798c1.37871,-0.96618 4.25735,-1.06702 5.74003,-1.2339c5.55677,-0.62542 9.02329,0.27639 11.37537,5.80395c0.39535,1.10033 2.09204,5.80403 0.86848,6.88477c-0.70761,0.62501 -4.35095,0.6586 -5.35096,0.737c-4.05593,0.31797 -8.20675,0.80712 -12.19532,1.52524c-2.09439,0.37709 -5.11996,2.07237 -7.2259,1.26218c-0.3964,-0.91565 -0.48662,-2.02447 -0.45446,-3.14859c0.79164,-4.4741 3.47032,-9.18698 7.24277,-11.83065z" data-paper-data="{&quot;noHover&quot;:false,&quot;origItem&quot;:[&quot;Path&quot;,{&quot;applyMatrix&quot;:true,&quot;segments&quot;:[[[236.90369,181.7807],[0.79164,-4.4741],[-0.03216,1.12412]],[[237.35335,184.91989],[-0.3964,-0.91565],[2.10594,0.81019]],[[244.56752,183.64514],[-2.09439,0.37709],[3.98857,-0.71812]],[[256.6927,182.12979],[-4.05593,0.31797],[1.00001,-0.0784]],[[262.03672,181.40557],[-0.70761,0.62501],[1.22356,-1.08074]],[[261.16617,174.54795],[0.39535,1.10033],[-2.35208,-5.52756]],[[249.83886,168.78407],[5.55677,-0.62542],[-1.48268,0.16688]],[[244.13123,170.00685],[1.37871,-0.96618],[-3.77245,2.64367]]],&quot;closed&quot;:true,&quot;fillColor&quot;:[0,0,0],&quot;strokeWidth&quot;:0.5}]}" fill="#ea0000" stroke-width="0.25"/></g></g></svg>