<svg version="1.1" xmlns="http://www.w3.org/2000/svg" xmlns:xlink="http://www.w3.org/1999/xlink" width="33.26303" height="15.03128" viewBox="0,0,33.26303,15.03128"><g transform="translate(-225.52877,-175.61824)"><g data-paper-data="{&quot;isPaintingLayer&quot;:true}" fill-rule="nonzero" stroke="none" stroke-linecap="butt" stroke-linejoin="miter" stroke-miterlimit="10" stroke-dasharray="" stroke-dashoffset="0" style="mix-blend-mode: normal"><path d="M231.14168,187.59164l-0.38449,-0.20115c-0.90159,-0.57654 -1.85071,-1.08204 -2.82327,-1.52855c0,0 -1.36194,-0.62859 -0.73335,-1.99053c0.62859,-1.36194 1.99053,-0.73335 1.99053,-0.73335c0.05956,0.02762 0.11904,0.05542 0.17844,0.08342c-0.20941,-1.26013 -0.06734,-2.68441 -0.05755,-3.85071c-0.44277,0.22163 -0.86069,0.50602 -1.24603,0.86917c0,0 -1.11494,1.00345 -2.11839,-0.11149c-1.00345,-1.11494 0.11149,-2.11839 0.11149,-2.11839c3.21606,-2.8033 6.96988,-2.26006 11.00345,-2.26006c7.6379,0 17.5686,-1.6729 21.17391,6.90331c0.30861,1.25479 0.80191,2.61317 0.41097,3.94132c-1.36115,4.62416 -7.22453,4.02967 -11.08487,4.03037c-4.12783,0.00075 -10.77684,-0.35502 -14.93241,-3.07876c-0.67643,0.45139 -1.48842,0.0454 -1.48842,0.0454zM233.33083,178.63242c0.12531,0.97282 -0.84751,1.45923 -0.84751,1.45923l-0.17082,-0.84164c0,1.02771 -0.35933,3.08294 0.19263,4.03317c0.66489,1.14465 2.60003,1.87057 3.73468,2.32221c3.97388,1.58178 7.06657,2.01882 11.32269,2.01962c3.57408,0.00067 9.09188,0.91649 7.82609,-4.02831c-2.79818,-6.80212 -12.51393,-4.84669 -18.32609,-4.84669c-1.19408,0 -2.47409,-0.11431 -3.73167,-0.11758z" fill="#000000" stroke-width="0.5"/><path d="M233.28477,178.61298c1.25758,0.00327 2.54146,0.1102 3.73554,0.1102c5.81216,0 15.62005,-1.92639 18.41823,4.87573c1.26579,4.9448 -4.27047,4.06562 -7.84455,4.06495c-4.25612,-0.0008 -7.4278,-0.46105 -11.40168,-2.04283c-1.13465,-0.45164 -3.07229,-1.19234 -3.73718,-2.33699c-0.55196,-0.95023 -0.19009,-3.02205 -0.19009,-4.04976l0.16992,0.84467c0,0 0.97512,-0.49315 0.84981,-1.46597z" data-paper-data="{&quot;noHover&quot;:false,&quot;origItem&quot;:[&quot;Path&quot;,{&quot;applyMatrix&quot;:true,&quot;segments&quot;:[[[233.33083,174.63242],[0,0],[0.12531,0.97282]],[232.48332,176.09165],[[232.3125,175.25001],[0,0],[0,1.02771]],[[232.50513,179.28318],[-0.55196,-0.95023],[0.66489,1.14465]],[[236.23981,181.60539],[-1.13465,-0.45164],[3.97388,1.58178]],[[247.5625,183.62501],[-4.25612,-0.0008],[3.57408,0.00067]],[[255.38859,179.5967],[1.26579,4.9448],[-2.79818,-6.80212]],[[237.0625,174.75001],[5.81216,0],[-1.19408,0]],[[233.33083,174.63243],[1.25758,0.00327],[0,0]]],&quot;closed&quot;:true,&quot;fillColor&quot;:[0,0,0],&quot;strokeWidth&quot;:0.5}]}" fill="#ea0000" stroke-width="0.25"/></g></g></svg>