<svg version="1.1" xmlns="http://www.w3.org/2000/svg" xmlns:xlink="http://www.w3.org/1999/xlink" width="35.5888" height="12.75968" viewBox="0,0,35.5888,12.75968"><g transform="translate(-231.65089,-176.88593)"><g data-paper-data="{&quot;isPaintingLayer&quot;:true}" fill="#000000" fill-rule="nonzero" stroke="none" stroke-width="0.5" stroke-linecap="butt" stroke-linejoin="miter" stroke-miterlimit="10" stroke-dasharray="" stroke-dashoffset="0" style="mix-blend-mode: normal"><path d="M250.74931,187.11699c-0.31366,-0.41735 -0.62732,-0.83472 -0.94098,-1.25207c0,0 -0.23256,-0.30944 -0.30419,-0.73207c-3.00166,0.53625 -6.05372,0.936 -8.95946,1.36017l0.53114,0.76036c0,0 0.8578,1.23052 -0.37271,2.08832c-1.23052,0.8578 -2.08832,-0.37271 -2.08832,-0.37271l-0.67028,-0.96331c-0.22242,-0.34566 -0.44482,-0.69131 -0.66724,-1.03695c-1.40869,0.19409 -2.78167,0.36199 -2.96797,0.30608c-2.34265,-0.70301 -2.84807,-2.36731 -2.6021,-4.27126l0.97722,-0.49257l-0.09481,-0.18811l0.69989,-0.4879l-0.01592,-0.02283c0.60643,0.11276 1.13826,-0.08693 1.8293,-0.42872c-0.00735,0.02577 -0.01465,0.05132 -0.0219,0.07663c-0.05483,0.19161 -0.84691,2.95635 0.03244,2.92453c3.91753,-0.14175 8.00928,-1.46806 11.83804,-2.23505c2.89126,-0.57917 5.83695,-0.63525 8.66142,-1.50989c2.90942,-0.74 5.57403,-1.89158 8.3242,-3.07297l1.1404,-0.53292c0,0 1.3593,-0.63428 1.99358,0.72502c0.63428,1.3593 -0.72502,1.99358 -0.72502,1.99358l-1.22485,0.57076c-2.87064,1.23314 -5.66135,2.42666 -8.69684,3.20471c-1.25378,0.38166 -2.54885,0.71046 -3.86749,1.00084c0.1969,0.262 0.3938,0.52399 0.5907,0.78599l0.56504,0.80915c-1.1418,0.29998 -1.9522,0.53255 -2.89901,1.08558z"/></g></g></svg>