<svg version="1.1" xmlns="http://www.w3.org/2000/svg" xmlns:xlink="http://www.w3.org/1999/xlink" width="232.27991" height="209.42376" viewBox="0,0,232.27991,209.42376"><g transform="translate(-117.7825,-98.47712)"><g data-paper-data="{&quot;isPaintingLayer&quot;:true}" fill-rule="nonzero" stroke-linejoin="miter" stroke-miterlimit="10" stroke-dasharray="" stroke-dashoffset="0" style="mix-blend-mode: normal"><path d="M291.90868,296.18546c6.96987,-1.61581 13.78928,-1.54339 20.93645,-2.40373c11.36437,-0.21926 24.93619,-2.84571 34.21774,-9.71758c0.14543,-0.17741 0.37524,-0.51309 0.58668,-0.77444c-0.52762,-0.14366 -1.3372,-0.61864 -1.77339,-0.83361c-1.16671,-0.57501 -4.56482,0.07612 -5.86732,0.07612c-7.79479,0 -15.70134,0.41322 -23.33186,-1.36724c-4.70097,-1.09689 -9.41127,-0.45061 -14.12433,-1.40425c-3.74054,-0.75686 -7.7062,-2.5788 -11.19786,-4.06377c-1.32836,-0.56494 -2.21472,-1.42974 -3.40531,-2.0112c0.11098,0.32741 0.21986,0.63863 0.32686,0.93531c-0.56512,-0.29015 -1.13028,-0.58024 -1.69542,-0.87044c-2.66963,-1.37642 -6.42799,-3.49073 -8.62516,-5.54117c-1.4506,-1.35372 -2.14404,-3.5217 -3.48039,-4.98274c-0.89817,-0.98197 -2.15723,-1.58565 -3.06297,-2.56064c-1.35611,-1.4598 -2.18007,-3.40499 -3.51138,-4.88473c-1.7824,-1.98115 -4.3242,-3.15232 -6.1654,-4.92692c-1.78157,-1.71713 -3.20644,-4.69287 -4.65368,-6.73551c-2.49479,-3.54084 -6.0549,-7.78208 -7.93984,-11.67909c-2.68905,-5.55944 -2.43306,-12.08335 -2.85686,-18.03885c-0.13522,-1.9002 -1.06434,-4.2726 -0.81341,-6.15581c0.16618,-1.24719 0.75584,-2.47083 0.62615,-3.72234c0.44899,-2.47971 1.62835,-5.39677 1.86638,-7.79064c0.13007,-1.30822 -0.8864,-2.53854 -0.84444,-3.85253c0.06112,-1.91407 1.47373,-3.85868 1.48406,-5.78457c0.01152,-2.14864 -0.81664,-4.03698 -0.8443,-6.14087c-0.58423,0.39439 -1.1266,0.86094 -1.61324,1.41931c-1.25251,1.43714 -2.51442,6.85232 -4.69287,7.19735c-0.90369,0.14313 -1.58834,-0.91263 -2.34262,-1.43052c-2.45968,-1.68883 -3.40415,-4.209 -4.69031,-6.78879c-1.39551,-2.18447 -7.1725,-7.71781 -10.03543,-4.78253c-1.49071,1.52838 -2.47265,4.93352 -3.45951,6.85639c-2.3779,4.63325 -4.4308,9.89712 -7.58256,14.12196l0.18091,0.10089l-0.97205,1.74306c-0.26002,0.47155 -0.84969,0.65384 -1.33202,0.40631c-0.37794,-0.19397 -0.57989,-0.59533 -0.53824,-0.99389l0.12944,-1.59071c-2.92099,-2.22997 -5.02706,-3.95138 -6.66316,-7.34126c0.22362,-1.36236 0.72329,-2.69664 0.72842,-4.07722c0.01007,-2.7143 -1.50197,-4.80407 -2.32252,-7.25089c-0.40093,-1.19557 0.00318,-2.64739 -0.64831,-3.72707c-0.33713,-0.5587 -3.02135,-2.56409 -3.82515,-1.91662c-0.90478,0.72881 -1.84617,3.88354 -2.39759,4.95797c-2.13087,4.15202 -4.26024,8.30482 -6.39392,12.45539c-1.85325,3.60509 -3.67044,7.15397 -5.87363,10.55977c-0.7384,1.14144 -1.79051,3.28316 -3.52226,3.31476c-2.68658,0.04904 -3.76914,-3.5952 -4.25223,-5.46404c-0.67083,-2.59506 -1.58425,-5.05852 -2.25431,-7.62731c-0.32977,-1.2642 -0.06032,-2.6554 -0.49213,-3.88848c-0.43706,-1.24805 -1.58114,-2.15772 -2.0598,-3.39041c-0.04124,-0.10622 -0.78748,-3.87982 -0.82928,-4.08988c-0.24302,-1.22167 -0.10142,-2.55421 -0.62582,-3.68406c-1.13515,-2.44572 -5.80145,-1.91791 -7.44824,-0.47321c-0.99582,0.87361 -0.95711,2.57576 -1.93157,3.47311c-1.93042,1.77765 -4.72719,2.02048 -6.47959,4.27642c-0.20895,0.26898 -0.40465,0.56618 -0.59013,0.88206c-0.46323,0.99948 -0.94151,1.99499 -1.43055,2.99012c-0.19555,0.44401 -0.38866,0.87308 -0.58581,1.26675c-0.05498,0.10978 -0.12738,0.21689 -0.20403,0.32338c-0.15067,0.30049 -0.3021,0.60111 -0.45419,0.90197c-0.00036,0.03232 0.00165,0.06501 0.00628,0.09813c0.07026,0.50261 0.66516,0.76667 0.99773,1.15c0,0 0.59155,0.80626 -0.21471,1.39782c-0.80626,0.59155 -1.39782,-0.21471 -1.39782,-0.21471c-0.11088,-0.16812 -0.24265,-0.32855 -0.38008,-0.48687c-0.12207,0.2391 -0.24438,0.4785 -0.36688,0.71821c-1.21372,2.37505 -2.43106,4.74823 -3.64856,7.12134c-0.5565,1.08469 -1.57277,2.01613 -1.72327,3.22592c-0.27476,2.20882 0.9927,3.4923 0.29917,5.97561c-2.97608,10.0879 1.82045,22.80683 4.49958,32.67474c0.73709,2.71491 1.73713,5.12074 1.87687,7.95291c0.08313,3.05399 2.56148,5.74394 4.15293,8.3196c2.17229,3.51573 5.20574,5.61283 8.05186,8.49109c1.82854,1.8492 3.17453,4.3375 5.12782,6.04681c2.77409,2.42759 6.73712,4.49116 9.98873,6.21351c12.36361,6.55597 24.85921,12.86749 37.30951,19.25718c12.90375,6.62239 25.2623,9.86065 39.72524,7.51535c11.17237,-1.8117 21.65896,-6.25708 32.33966,-9.59754c1.69527,-0.5302 3.22761,-1.55457 4.83419,-2.41574c0.10485,0.6836 0.21065,1.36818 0.31604,2.05343c-0.73679,0.40329 -1.45956,0.83371 -2.19523,1.22853c0.69559,-0.02109 1.38701,-0.06948 2.05422,-0.22416zM287.25139,271.31208c1.99837,0.50403 3.10267,1.81272 4.91151,2.5554c3.39543,1.39411 7.18058,3.20736 10.80214,3.93623c4.72594,0.95112 9.44008,0.31078 14.1664,1.41359c8.71645,2.03384 17.97553,1.31492 26.87741,1.31492c1.64808,0 2.06972,0.2255 3.38268,0.82612c0.77634,0.35514 2.05357,-0.08317 2.47481,0.65938c0.74012,1.30466 -0.81073,2.71952 -1.41152,3.48256c-4.11732,3.11799 -9.12663,5.29793 -13.90619,6.98903c-3.57982,1.2666 -7.85303,0.99904 -11.53688,2.0104c-3.39063,0.93085 -6.48907,1.2135 -10.02765,1.27719c-7.06518,0.85975 -13.77874,0.78379 -20.66983,2.367c-2.15674,0.49551 -4.62084,-0.11584 -6.57568,0.86157l-1.22975,0.02675c0,0 -0.48256,0 -0.77725,-0.33522c-9.46451,3.19878 -18.92007,6.80771 -28.85167,8.41821c-14.88404,2.41358 -27.67954,-0.89521 -40.95856,-7.71021c-12.45826,-6.39376 -24.96178,-12.70943 -37.33327,-19.26958c-3.38426,-1.79641 -7.47801,-3.94562 -10.36886,-6.47539c-1.99668,-1.74729 -3.36679,-4.25848 -5.23287,-6.14564c-2.95493,-2.98831 -6.06748,-5.19499 -8.33032,-8.84474c-1.84903,-2.98233 -4.23755,-5.73397 -4.45025,-9.28102c-0.11048,-2.66538 -1.11435,-4.96116 -1.80909,-7.52007c-2.79195,-10.28347 -7.59006,-23.24882 -4.48772,-33.7647c0.76091,-2.41154 -0.65894,-3.29845 -0.3656,-5.65658c0.02805,-0.22553 1.74796,-3.54011 1.92849,-3.89199c1.21702,-2.37216 2.43386,-4.74441 3.64711,-7.11851c3.65661,-7.15532 7.15913,-14.00036 8.84399,-21.90945c1.39971,-6.57059 5.32071,-14.2299 4.02986,-21.08273c-0.30354,-1.61142 -1.82147,-3.67214 -2.5304,-5.15892c-2.00589,-4.20681 -4.20433,-8.1378 -6.61387,-12.12788c-1.5721,-1.93842 -3.05948,-4.37105 -4.89111,-6.05881c-6.52687,-6.01419 -16.36623,-9.47384 -24.18186,-13.48492c0,0 -0.88968,-0.45659 -0.43308,-1.34627c0.45659,-0.88968 1.34627,-0.43308 1.34627,-0.43308c7.99185,4.10152 17.94993,7.6437 24.62394,13.79347c1.93508,1.78308 3.518,4.33042 5.17245,6.38003c2.47644,4.07959 4.72884,8.10958 6.78254,12.41666c0.78961,1.656 2.34678,3.85478 2.68991,5.64609c1.37642,7.18575 -2.57225,14.98995 -4.03855,21.87307c-0.69666,3.27028 -1.69397,6.36392 -2.88207,9.37277c0.0446,-0.03062 0.08962,-0.06109 0.13506,-0.09141c1.06747,-0.71235 2.5276,-0.7909 3.47576,-1.65573c0.99062,-0.90355 0.95662,-2.6288 1.96966,-3.50715c2.76719,-2.39927 8.69359,-2.46377 10.55141,1.08793c0.65854,1.25895 0.52052,2.79355 0.79793,4.18699c0.24898,1.25112 0.27037,2.56712 0.73213,3.75627c0.48661,1.25316 1.63871,2.18459 2.08302,3.45335c0.28503,0.81394 0.30531,3.14583 0.53977,4.04469c0.52382,2.0081 1.36865,3.68656 1.77432,5.75447c0.2088,1.06436 0.94897,5.8889 2.75617,5.8421c0.56825,-0.01471 1.83228,-2.32042 1.87925,-2.39443c2.13965,-3.37227 3.95282,-6.84304 5.77871,-10.3949c2.13347,-4.15018 4.26264,-8.30256 6.3933,-12.45418c0.6266,-1.22094 1.9389,-5.04366 3.08152,-5.71814c2.02296,-1.19412 5.55687,0.80048 6.62873,2.54969c0.73379,1.19752 0.38654,2.79898 0.83577,4.12965c1.48317,4.3934 2.72745,6.93483 1.67812,11.68122c1.51958,2.76071 3.75077,4.31111 6.01477,6.37108c0.73354,-2.73047 3.16587,-5.96907 4.26412,-8.10827c1.52238,-2.96533 3.04421,-5.93093 4.56616,-8.89648c0.16585,-0.32317 1.87266,-3.68208 2.01961,-3.81973c4.21835,-3.95146 10.89639,1.7657 13.16476,5.22544c1.25737,2.5122 2.1736,4.29882 4.1842,6.20433c0.31719,0.30062 0.37773,1.08759 0.81096,1.03015c0.42246,-0.05601 0.25667,-0.81672 0.44872,-1.19715c0.78172,-1.54849 1.9145,-4.05262 3.03895,-5.33847c1.02581,-1.17305 2.23166,-1.986 3.53766,-2.58499c0.46306,-1.03732 1.3963,-1.89991 1.61313,-3.01732c0.11352,-0.585 -0.55976,-3.08478 -0.66346,-3.5178c-0.60611,-2.53072 -1.07925,-5.07793 -0.87482,-7.6814c-0.54851,-0.37267 -1.34733,-0.5257 -1.64555,-1.118c-0.59892,-1.18954 0.57088,-2.82575 -0.06702,-3.99485c-0.59086,-1.08289 -2.23145,-1.12855 -3.13154,-1.97212c-1.85811,-1.74144 -2.1101,-3.38195 -2.97371,-5.49563c-1.58299,-3.87439 -5.41342,-5.13703 -8.39118,-7.51885c-2.00255,-1.60177 -1.90921,-3.23052 -3.41124,-4.9977c-1.45321,-1.70973 -4.53575,-3.06913 -6.40071,-4.34847c-3.76251,-2.58105 -8.61757,-4.31692 -12.11475,-7.10535c-1.55384,-1.23893 -2.4323,-3.30563 -3.9057,-4.63224c-5.14549,-4.63286 -12.91427,-7.3498 -19.02111,-10.48404c-3.55869,-1.82639 -7.11738,-3.65276 -10.67609,-5.47913c-1.48179,-0.76047 -3.48475,-2.28691 -5.10274,-2.65402c-1.29652,-0.29418 -2.68575,0.38778 -3.98677,0.11425c-1.82868,-0.38447 -3.55184,-1.80335 -5.50963,-1.94386c-2.60263,-0.1868 -5.33678,1.48215 -7.93434,1.22152c-2.24961,-0.22571 -3.15987,-1.47035 -5.51533,-1.2554c-0.18532,0.03152 -3.92819,0.67087 -4.01817,0.67521c-2.43525,0.11738 -5.41177,-0.96321 -7.80188,-0.36574c-0.67776,0.16942 -1.17224,0.86115 -1.86412,0.95794c-0.66193,0.0926 -1.29649,-0.50324 -1.96003,-0.42293c-0.56914,0.06887 -0.97878,0.60262 -1.49986,0.84165c-1.43954,0.66034 -4.27522,0.85753 -5.4725,1.81263c-0.47701,0.38052 -0.52025,1.12749 -0.93876,1.57155c-1.04289,1.10656 -2.70421,1.57513 -4.21545,1.74325l-0.45839,0.68818c0,0 -0.73989,0.67273 -1.41262,-0.06716c-0.67273,-0.73989 0.06716,-1.41262 0.06716,-1.41262l1.618,-1.19974c1.64044,-0.11423 1.79971,0.20416 2.9177,-1.09314c0.4723,-0.54805 0.62041,-1.37333 1.19669,-1.81074c1.41711,-1.0756 4.219,-1.33305 5.8824,-2.05828c0.69722,-0.30398 1.29902,-0.89016 2.05193,-0.99812c0.65822,-0.09438 1.29041,0.51477 1.9492,0.4244c0.62898,-0.08628 1.0494,-0.77498 1.66735,-0.92055c3.77091,-0.88831 8.11753,0.31356 12.04611,-0.3507c2.51812,-0.17092 3.67377,1.02088 5.96024,1.2503c2.53815,0.25468 5.28992,-1.40862 7.87635,-1.22649c2.08704,0.14696 3.85732,1.55983 5.78715,1.98326c1.30613,0.28658 2.70606,-0.40499 4.01011,-0.10911c1.78426,0.40483 3.93651,1.98503 5.57337,2.82509c3.5587,1.82637 7.11741,3.65275 10.67611,5.47914c6.27456,3.22033 14.15909,6.01676 19.44614,10.77706c1.43543,1.29242 2.31093,3.35609 3.81431,4.55479c1.38318,1.10286 3.59658,1.82435 5.17089,2.64184c2.41647,1.2548 4.58515,2.8392 6.82838,4.37803c2.0213,1.38659 5.21233,2.84245 6.79325,4.70245c0.87065,1.02434 0.88806,2.59294 1.72325,3.64639c1.66739,2.10309 4.61131,2.55913 6.54097,4.21006c2.2491,1.92422 3.13187,4.68567 4.15836,7.15489c1.1031,2.6535 4.53112,3.13718 5.71683,5.3103c0.63936,1.1718 -0.60309,2.85235 0.07195,4.00396c0.33891,0.57819 1.10452,0.75942 1.65678,1.13912c0.0861,2.08703 0.21603,4.19049 0.59366,6.25102c0.28827,1.57294 1.11647,3.44666 1.20058,5.16244c-0.61436,0.74872 -0.81032,1.58872 -0.81032,1.58872l0.18918,0.86164c-0.06065,0.09953 -0.12356,0.19759 -0.18758,0.29494l0.00007,0.00004c0.07943,-0.02104 0.15901,-0.04173 0.23871,-0.06208l0.4106,1.87008c-0.62042,0.16429 -1.22968,0.35464 -1.81793,0.58495c-0.51093,2.58152 0.77625,4.71436 0.76278,7.22523c-0.01057,1.9712 -1.4188,3.91541 -1.48512,5.83991c-0.04656,1.35122 0.95227,2.62161 0.83722,3.96872c-0.20044,2.34682 -1.39956,5.28714 -1.8602,7.70091c0.10567,1.31743 -0.44322,2.60601 -0.64407,3.91233c-0.25529,1.66041 0.70834,4.04393 0.82842,5.73134c0.40504,5.69202 0.09073,11.99331 2.66234,17.30996c1.06388,2.1995 3.19039,4.31791 4.63499,6.29795c1.21738,1.66859 1.94145,3.41973 3.13631,5.09576c1.36496,1.92652 2.72053,4.8471 4.40495,6.44716c1.88399,1.78964 4.45357,3.01592 6.26905,5.03383c1.32421,1.47184 2.14426,3.41271 3.48986,4.86118c0.90922,0.97873 2.17185,1.58627 3.07346,2.57202c1.28918,1.40947 1.97973,3.57375 3.36915,4.87038c1.79673,1.67673 4.72948,3.40673 7.12856,4.6799c0.36164,-0.22538 0.80252,-0.11516 0.80252,-0.11516z" fill="#000000" stroke="none" stroke-width="0.5" stroke-linecap="butt"/><path d="M289.82368,296.37022c0.73567,-0.39482 1.45711,-0.82417 2.1939,-1.22746c-0.10539,-0.68525 -0.1464,-1.29366 -0.25125,-1.97726c-1.60658,0.86117 -3.14184,1.88788 -4.83712,2.41808c-10.6807,3.34046 -21.19006,7.79517 -32.36243,9.60687c-14.46294,2.3453 -26.85162,-0.89815 -39.75537,-7.52054c-12.4503,-6.38969 -24.96608,-12.72057 -37.32969,-19.27654c-3.25161,-1.72235 -7.21738,-3.79143 -9.99147,-6.21902c-1.95329,-1.70931 -3.3008,-4.20169 -5.12934,-6.05089c-2.84612,-2.87826 -5.88101,-4.98088 -8.0533,-8.49661c-1.59145,-2.57566 -4.07051,-5.27026 -4.15364,-8.32425c-0.13974,-2.83217 -1.14004,-5.24218 -1.87713,-7.95709c-2.67913,-9.86791 -7.47353,-22.60234 -4.49745,-32.69024c0.69353,-2.48331 -0.57311,-3.76926 -0.29835,-5.97808c0.1505,-1.20979 1.16737,-2.1428 1.72387,-3.22749c1.2175,-2.37311 2.43634,-4.74969 3.65006,-7.12474c0.1225,-0.23971 0.24498,-0.47945 0.36705,-0.71855c0.13743,0.15832 0.35881,0.36314 0.46969,0.53126c0,0 0.50199,0.7618 1.30825,0.17025c0.80626,-0.59156 0.215,-1.39839 0.215,-1.39839c-0.33257,-0.38333 -0.92735,-0.64762 -0.99761,-1.15023c-0.00463,-0.03312 -0.00662,-0.06584 -0.00626,-0.09816c0.15209,-0.30086 0.30374,-0.6019 0.45441,-0.90239c0.07665,-0.10649 0.14913,-0.21376 0.20411,-0.32354c0.19715,-0.39367 0.39057,-0.82331 0.58612,-1.26732c0.48904,-0.99513 0.96809,-1.99197 1.43132,-2.99145c0.18548,-0.31588 0.38143,-0.6135 0.59038,-0.88248c1.7524,-2.25594 4.55102,-2.50158 6.48144,-4.27923c0.97446,-0.89735 0.93687,-2.60102 1.93269,-3.47463c1.64679,-1.4447 6.3144,-1.97415 7.44955,0.47157c0.5244,1.12985 0.46039,2.52546 0.70341,3.74713c0.0418,0.21006 0.78892,3.98251 0.83016,4.08873c0.47866,1.23269 1.62323,2.14169 2.06029,3.38974c0.43181,1.23308 0.16331,2.62292 0.49308,3.88712c0.67006,2.56879 1.58515,5.02958 2.25598,7.62464c0.48309,1.86884 1.47842,5.46421 4.165,5.41517c1.73175,-0.0316 2.78544,-2.17605 3.52384,-3.31749c2.20319,-3.4058 4.02522,-6.96122 5.87847,-10.56631c2.13368,-4.15057 4.26928,-8.30935 6.40015,-12.46137c0.55142,-1.07443 1.49525,-4.23101 2.40003,-4.95982c0.8038,-0.64747 3.48908,1.35719 3.82621,1.91589c0.65149,1.07968 0.30401,2.61391 0.70494,3.80948c0.82055,2.44682 2.33396,4.53559 2.32389,7.24989c-0.00513,1.38058 -0.50295,2.71339 -0.72657,4.07575c1.6361,3.38988 3.67855,5.03414 6.59954,7.26411l-0.06533,1.66745c-0.04165,0.39856 0.09522,0.724 0.47316,0.91797c0.48233,0.24753 1.07295,0.06445 1.33297,-0.4071l0.97344,-1.74416l-0.18097,-0.10084c3.15176,-4.22484 5.21505,-9.49482 7.59295,-14.12807c0.98686,-1.92287 1.97297,-5.32961 3.46368,-6.85799c2.86293,-2.93528 8.64651,2.59636 10.04202,4.78083c1.28616,2.57979 2.23385,5.09947 4.69353,6.7883c0.75428,0.51789 1.44108,1.57344 2.34477,1.43031c2.17845,-0.34503 3.44495,-5.76035 4.69746,-7.19749c0.48664,-0.55837 1.03037,-1.02488 1.6146,-1.41927c0.02766,2.10389 0.85687,3.99229 0.84535,6.14093c-0.01033,1.92589 -1.42812,3.97036 -1.48924,5.88443c-0.04196,1.31399 0.97334,2.54425 0.84327,3.85247c-0.23803,2.39387 -1.41542,5.31102 -1.86441,7.79073c0.12969,1.25151 -0.45911,2.47516 -0.62529,3.72235c-0.25093,1.88321 0.68056,4.15565 0.81578,6.05585c0.4238,5.9555 0.19026,12.48577 2.87931,18.04521c1.88494,3.89701 5.46691,8.2006 7.9617,11.74144c1.44724,2.04264 2.86674,5.02828 4.64831,6.74541c1.8412,1.7746 4.38248,2.9465 6.16488,4.92765c1.33131,1.47974 2.15356,3.42715 3.50967,4.88695c0.90574,0.97499 2.16476,1.57872 3.06293,2.56069c1.33635,1.46104 2.02856,3.63046 3.47916,4.98418c2.19717,2.05044 5.87964,4.09965 8.54927,5.47607c0.56513,0.29019 1.13006,0.58058 1.69518,0.87073c-0.107,-0.29667 -0.21618,-0.60753 -0.32716,-0.93494c1.19059,0.58146 2.07665,1.44663 3.40501,2.01158c3.49165,1.48498 7.45572,3.30905 11.19626,4.06592c4.71306,0.95364 9.42106,0.31091 14.12204,1.4078c7.63053,1.78046 15.53472,1.37177 23.32951,1.37177c1.3025,0 4.70015,-0.65008 5.86685,-0.07507c0.43619,0.21498 1.33768,0.72938 1.86529,0.87303c-0.21145,0.26135 -0.44142,0.59742 -0.58685,0.77483c-9.28155,6.87187 -22.86022,9.50957 -34.22458,9.72883c-7.14717,0.86033 -13.9738,0.7952 -20.94367,2.41101c-0.66721,0.15468 -1.42112,0.12502 -2.11672,0.1461z" data-paper-data="{&quot;noHover&quot;:false,&quot;origItem&quot;:[&quot;Path&quot;,{&quot;applyMatrix&quot;:true,&quot;segments&quot;:[[[270.34319,296.18546],[-0.66721,0.15468],[6.96987,-1.61581]],[[291.27964,293.78174],[-7.14717,0.86033],[11.36437,-0.21926]],[[325.49738,284.06416],[-9.28155,6.87187],[0.14543,-0.17741]],[[326.08407,283.28972],[-0.21145,0.26135],[-0.52762,-0.14366]],[[324.31068,282.45611],[0.43619,0.21498],[-1.16671,-0.57501]],[[318.44336,282.53223],[1.3025,0],[-7.79479,0]],[[295.11149,281.16499],[7.63053,1.78046],[-4.70097,-1.09689]],[[280.98717,279.76074],[4.71306,0.95364],[-3.74054,-0.75686]],[[269.78931,275.69696],[3.49165,1.48498],[-1.32836,-0.56494]],[[266.384,273.68576],[1.19059,0.58146],[0.11098,0.32741]],[[266.71086,274.62107],[-0.107,-0.29667],[-0.56512,-0.29015]],[[265.01545,273.75063],[0.56513,0.29019],[-2.66963,-1.37642]],[[256.39029,268.20946],[2.19717,2.05044],[-1.4506,-1.35372]],[[252.9099,263.22672],[1.33635,1.46104],[-0.89817,-0.98197]],[[249.84693,260.66608],[0.90574,0.97499],[-1.35611,-1.4598]],[[246.33555,255.78135],[1.33131,1.47974],[-1.7824,-1.98115]],[[240.17015,250.85443],[1.8412,1.7746],[-1.78157,-1.71713]],[[235.51647,244.11892],[1.44724,2.04264],[-2.49479,-3.54084]],[[227.57663,232.43983],[1.88494,3.89701],[-2.68905,-5.55944]],[[224.71977,214.40098],[0.4238,5.9555],[-0.13522,-1.9002]],[[223.90636,208.24517],[-0.25093,1.88321],[0.16618,-1.24719]],[[224.53251,204.52283],[0.12969,1.25151],[0.44899,-2.47971]],[[226.39889,196.73219],[-0.23803,2.39387],[0.13007,-1.30822]],[[225.55445,192.87966],[-0.04196,1.31399],[0.06112,-1.91407]],[[227.03851,187.09509],[-0.01033,1.92589],[0.01152,-2.14864]],[[226.19421,180.95422],[0.02766,2.10389],[-0.58423,0.39439]],[[224.58097,182.37353],[0.48664,-0.55837],[-1.25251,1.43714]],[[219.8881,189.57088],[2.17845,-0.34503],[-0.90369,0.14313]],[[217.54548,188.14036],[0.75428,0.51789],[-2.45968,-1.68883]],[[212.85517,181.35157],[1.28616,2.57979],[-1.39551,-2.18447]],[[202.81974,176.56904],[2.86293,-2.93528],[-1.49071,1.52838]],[[199.36023,183.42543],[0.98686,-1.92287],[-2.3779,4.63325]],[[191.77767,197.54739],[3.15176,-4.22484],[0,0]],[191.95858,197.64828],[[190.98653,199.39134],[0,0],[-0.26002,0.47155]],[[189.65451,199.79765],[0.48233,0.24753],[-0.37794,-0.19397]],[[189.11627,198.80376],[-0.04165,0.39856],[0,0]],[[189.24571,197.21305],[0,0],[-2.92099,-2.22997]],[[182.58255,189.87179],[1.6361,3.38988],[0.22362,-1.36236]],[[183.31097,185.79457],[-0.00513,1.38058],[0.01007,-2.7143]],[[180.98845,178.54368],[0.82055,2.44682],[-0.40093,-1.19557]],[[180.34014,174.81661],[0.65149,1.07968],[-0.33713,-0.5587]],[[176.51499,172.89999],[0.8038,-0.64747],[-0.90478,0.72881]],[[174.1174,177.85796],[0.55142,-1.07443],[-2.13087,4.15202]],[[167.72348,190.31335],[2.13368,-4.15057],[-1.85325,3.60509]],[[161.84984,200.87312],[2.20319,-3.4058],[-0.7384,1.14144]],[[158.32759,204.18788],[1.73175,-0.0316],[-2.68658,0.04904]],[[154.07536,198.72384],[0.48309,1.86884],[-0.67083,-2.59506]],[[151.82105,191.09653],[0.67006,2.56879],[-0.32977,-1.2642]],[[151.32892,187.20805],[0.43181,1.23308],[-0.43706,-1.24805]],[[149.26912,183.81764],[0.47866,1.23269],[-0.04124,-0.10622]],[[148.43983,179.72776],[0.0418,0.21006],[-0.24302,-1.22167]],[[147.81402,176.0437],[0.5244,1.12985],[-1.13515,-2.44572]],[[140.36578,175.57049],[1.64679,-1.4447],[-0.99582,0.87361]],[[138.43421,179.0436],[0.97446,-0.89735],[-1.93042,1.77765]],[[131.95461,183.32002],[1.7524,-2.25594],[-0.20895,0.26898]],[[131.36449,184.20208],[0.18548,-0.31588],[-0.46323,0.99948]],[[129.93394,187.1922],[0.48904,-0.99513],[-0.19555,0.44401]],[[129.34813,188.45895],[0.19715,-0.39367],[-0.05498,0.10978]],[[129.1441,188.78233],[0.07665,-0.10649],[-0.15067,0.30049]],[[128.68991,189.6843],[0.15209,-0.30086],[-0.00036,0.03232]],[[128.69619,189.78243],[-0.00463,-0.03312],[0.07026,0.50261]],[[129.69392,190.93243],[-0.33257,-0.38333],[0,0]],[[129.47921,192.33025],[0.80626,-0.59156],[-0.80626,0.59155]],[[128.08139,192.11554],[0,0],[-0.11088,-0.16812]],[[127.70131,191.62867],[0.13743,0.15832],[-0.12207,0.2391]],[[127.33443,192.34688],[0.1225,-0.23971],[-1.21372,2.37505]],[[123.68587,199.46822],[1.2175,-2.37311],[-0.5565,1.08469]],[[121.9626,202.69414],[0.1505,-1.20979],[-0.27476,2.20882]],[[122.26177,208.66975],[0.69353,-2.48331],[-2.97608,10.0879]],[[126.76135,241.34449],[-2.67913,-9.86791],[0.73709,2.71491]],[[128.63822,249.2974],[-0.13974,-2.83217],[0.08313,3.05399]],[[132.79115,257.617],[-1.59145,-2.57566],[2.17229,3.51573]],[[140.84301,266.10809],[-2.84612,-2.87826],[1.82854,1.8492]],[[145.97083,272.1549],[-1.95329,-1.70931],[2.77409,2.42759]],[[155.95956,278.36841],[-3.25161,-1.72235],[12.36361,6.55597]],[[193.26907,297.62559],[-12.4503,-6.38969],[12.90375,6.62239]],[[232.99431,305.14094],[-14.46294,2.3453],[11.17237,-1.8117]],[[265.33396,295.5434],[-10.6807,3.34046],[1.69527,-0.5302]],[[270.16816,293.12766],[-1.60658,0.86117],[0.10485,0.6836]],[[270.4842,295.18109],[-0.10539,-0.68525],[-0.73679,0.40329]],[[268.28897,296.40962],[0.73567,-0.39482],[0.69559,-0.02109]]],&quot;closed&quot;:true}]}" fill="#ffd200" stroke="none" stroke-width="0.5" stroke-linecap="butt"/><path d="M282.70637,282.85359c0,0.04901 0,0.09803 0,0.14704c-0.01289,-0.00689 -0.02578,-0.01378 -0.03866,-0.02067c0.0129,-0.04212 0.02578,-0.08425 0.03866,-0.12637z" data-paper-data="{&quot;index&quot;:null}" fill="#000000" stroke="none" stroke-width="0.5" stroke-linecap="butt"/><path d="M149.69011,192.14063c0,0 0.5052,0.75585 1.31146,0.1643c0.80626,-0.59156 0.21508,-1.39845 0.21508,-1.39845c-0.33257,-0.38333 -0.92734,-0.6476 -0.9976,-1.15021c-0.00462,-0.03313 -0.00661,-0.06585 -0.00625,-0.09818c0.15209,-0.30086 0.3038,-0.60195 0.45447,-0.90243c0.07664,-0.1065 0.14916,-0.21378 0.20414,-0.32356c0.19715,-0.39366 0.39066,-0.82336 0.58622,-1.26737c0.48904,-0.99513 0.96832,-1.99211 1.43155,-2.99159c0.18549,-0.31588 0.38152,-0.61354 0.59047,-0.88252c1.7524,-2.25594 4.55166,-2.50192 6.48208,-4.27957c0.97447,-0.89734 0.93718,-2.60108 1.93299,-3.47469c1.64679,-1.4447 6.31503,-1.97448 7.45018,0.47124c0.5244,1.12985 0.45291,2.53367 0.69593,3.75534c0.0418,0.21005 0.78905,3.9826 0.8303,4.08882c0.47866,1.23269 1.62322,2.14185 2.06028,3.38989c0.43181,1.23308 0.16353,2.62296 0.49329,3.88716c0.67007,2.56879 1.58553,5.02965 2.25636,7.62472c0.48309,1.86884 1.48432,5.45491 4.1709,5.40587c1.73174,-0.0316 2.78629,-2.17654 3.52468,-3.31798c2.2032,-3.4058 4.02718,-6.96152 5.88044,-10.56661c2.13368,-4.15058 4.27084,-8.30867 6.40171,-12.46069c0.55141,-1.07443 1.49558,-4.23058 2.40036,-4.95939c0.8038,-0.64746 3.48978,1.35715 3.82691,1.91584c0.65149,1.07968 0.28714,2.62325 0.68808,3.81882c0.82055,2.44682 2.33323,4.53631 2.32315,7.25061c-0.00513,1.38059 -0.50284,2.71392 -0.72646,4.07627c1.6361,3.38988 3.69922,5.02103 6.62021,7.251l-0.0883,1.68186c-0.04166,0.39856 0.11843,0.70912 0.49637,0.90308c0.48233,0.24754 1.07351,0.06458 1.33353,-0.40697l0.97375,-1.74374l-0.18105,-0.10084c3.15176,-4.22484 5.21537,-9.49149 7.59326,-14.12474c0.98686,-1.92286 1.97236,-5.32838 3.46307,-6.85677c2.86293,-2.93528 8.64844,2.59818 10.04395,4.78265c1.28616,2.57979 2.23583,5.10075 4.69551,6.78958c0.75429,0.5179 1.44144,1.57425 2.34514,1.43112c2.17845,-0.34502 3.4426,-5.75956 4.69512,-7.1967c0.48664,-0.55838 1.0299,-1.02464 1.61412,-1.41903c0.02766,2.10389 0.85818,3.99308 0.84666,6.14172c-0.01033,1.92588 -1.42226,3.87076 -1.48338,5.78483c-0.04196,1.314 0.97677,2.54529 0.8467,3.85351c-0.23802,2.39387 -1.41549,5.31187 -1.86448,7.79158c0.12969,1.25151 -0.45849,2.47594 -0.62467,3.72313c-0.25092,1.88321 0.68352,4.25905 0.81874,6.15925c0.4238,5.9555 0.18627,12.50638 2.87532,18.06581c1.88495,3.89699 5.44571,8.16201 7.9405,11.70285c1.44724,2.04264 2.86982,5.026 4.65139,6.74313c1.8412,1.77459 4.38193,2.9483 6.16434,4.92945c1.3313,1.47975 2.15389,3.42772 3.51,4.88752c0.90574,0.97499 2.16442,1.57936 3.06259,2.56133c1.33635,1.46104 2.02862,3.63102 3.47922,4.98474c2.19717,2.05043 5.87038,4.11229 8.54002,5.4887c0.57864,0.29713 1.15731,0.59417 1.73592,0.89127c0.52574,1.45819 1.00613,2.56505 1.46693,3.51544l0.4108,3.28644c-0.0543,1.2847 0.21447,2.55613 0.44015,3.82933c0.013,0.94197 0.07009,1.86275 0.19916,2.74815c0.08673,1.72824 -0.22978,3.76096 0.9153,4.95706c0.01146,0.07486 0.02295,0.14973 0.03444,0.22462c-1.59645,0.85874 -3.12152,1.87507 -4.80614,2.40194c-10.6807,3.34047 -21.1849,7.79735 -32.35728,9.60905c-14.46294,2.34531 -26.85081,-0.89095 -39.75456,-7.51335c-12.4503,-6.38969 -24.9738,-12.71897 -37.33741,-19.27494c-3.25161,-1.72235 -7.21901,-3.7925 -9.9931,-6.22009c-1.95329,-1.70933 -3.30164,-4.20247 -5.13019,-6.05167c-2.84612,-2.87826 -5.88187,-4.98212 -8.05416,-8.49785c-1.59146,-2.57566 -4.07095,-5.27124 -4.15408,-8.32522c-0.13974,-2.83217 -1.14024,-5.24304 -1.87733,-7.95795c-2.67912,-9.86792 -7.47296,-22.60523 -4.49688,-32.69313c0.69354,-2.48332 -0.57286,-3.7696 -0.29809,-5.97842c0.1505,-1.20979 1.16756,-2.14304 1.72405,-3.22774c1.21749,-2.37311 2.43683,-4.75016 3.65055,-7.12521c0.12251,-0.23972 0.24503,-0.47949 0.3671,-0.71859c0.13743,0.15833 0.35564,0.36903 0.46652,0.53715z" data-paper-data="{&quot;noHover&quot;:false,&quot;origItem&quot;:[&quot;Path&quot;,{&quot;applyMatrix&quot;:true,&quot;segments&quot;:[[276.65244,393.46895],[[279.33572,394.36337],[-0.89442,-1.78884],[0.89442,1.78886]],[[278.4413,397.04665],[0,0],[-0.94182,0.37838]],[[275.61582,398.18179],[0.584,-0.83016],[-0.03848,0.0547]],[[275.51504,398.35067],[0.02888,-0.05784],[-0.00412,0.67422]],[[275.49954,400.37035],[0.0063,-0.67226],[0.03914,0.25948]],[[275.56728,401.13207],[0.00242,-0.24554],[-0.0087,0.8805]],[[275.45286,403.92101],[0.0575,-0.96862],[-0.03856,2.21728]],[[275.26778,410.54785],[0.08846,-2.20144],[0.04158,0.73144]],[[275.51234,412.65625],[-0.12616,-0.66942],[1.05804,5.61438]],[[283.13664,426.18257],[-1.81158,-4.9259],[0.91448,2.48656]],[[283.402,434.12633],[-0.97414,-2.46382],[1.61094,4.07446]],[[297.08716,440.08595],[-4.25322,3.3152],[1.96486,-1.53152]],[[301.56494,434.10221],[-1.54802,1.95186],[0.2662,-0.33558]],[[306.77534,427.58217],[-0.17038,0.15134],[1.97738,-1.75628]],[[313.53652,423.43041],[-1.91738,1.8216],[1.89438,-1.79976]],[[317.9631,416.96085],[-1.74122,1.94832],[3.53806,-3.95888]],[[328.93946,405.44779],[-3.56342,4.00494],[2.5662,-2.88418]],[[341.49536,399.60841],[-4.7356,-2.5406],[3.05252,1.63764]],[[344.7357,408.72301],[-0.27152,-2.70532],[0.81014,8.07204]],[[345.54394,432.87627],[-0.00548,-8.10708],[0.00632,9.33378]],[[345.5469,460.87763],[0,-9.33378],[0,2.41534]],[[345.2855,471.88905],[-0.94438,-2.12304],[0.83898,1.88608]],[[353.84202,471.97177],[-1.11006,0.68626],[2.14518,-1.3262]],[[358.3991,465.93203],[-1.80518,1.76122],[3.69444,-3.60444]],[[369.15308,455.15103],[-2.46074,4.8389],[1.2516,-2.46122]],[[371.58022,447.23103],[-0.84618,2.62832],[6.00678,-4.53772]],[[390.14026,440.25305],[-7.23384,1.3005],[0,0]],[[391.36256,437.30441],[0,0],[0.28984,-0.74722]],[[393.22788,436.02743],[-0.84962,0],[1.08428,0]],[[395.22698,437.96677],[-0.03206,-1.0765],[0,0]],[395.36486,441.95595],[[394.95082,441.97027],[0,0],[1.75002,10.39562]],[[395.5469,474.02249],[-0.0001,-10.41564],[0.00004,4.32264]],[[395.44144,489.38159],[-1.2568,-4.08082],[2.4137,7.83728]],[[417.66534,490.03599],[-4.47792,2.61258],[4.64436,-3.41584]],[[432.21048,482.23947],[-5.91884,0.75888],[1.81506,-0.23272]],[[437.68516,481.83331],[-1.47728,-1.07992],[3.56116,2.60326]],[[439.46292,498.92539],[-0.91628,-3.70096],[0.356,1.43794]],[[441.03734,502.92403],[-0.6794,-1.23526],[1.97046,-3.7183]],[[448.1474,492.76827],[-1.9416,3.8337],[1.74032,-3.43626]],[[450.78912,481.12027],[-1.63914,3.46162],[1.12526,-2.37638]],[[455.80976,475.03639],[-0.9632,2.44656],[1.76252,-4.4769]],[[459.60312,459.46975],[-1.46552,4.82228],[1.37362,-2.10844]],[[461.88816,452.27461],[-0.84322,2.37094],[1.27324,-3.58004]],[[468.9569,442.06405],[-1.97584,3.25764],[6.19256,-10.20992]],[[490.51306,412.57543],[-9.86156,7.4366],[6.91266,-5.21284]],[[515.306,399.04477],[-7.67256,4.0222],[4.44046,-2.31298]],[[529.7373,391.30959],[-4.7381,1.42848],[4.89668,-1.47628]],[[545.2069,388.17301],[-4.98068,1.8975],[3.72014,-1.41726]],[[555.91554,382.68789],[-3.74606,1.35912],[2.50198,-0.90774]],[[563.70398,380.92867],[-2.49488,0.92708],[3.71204,-1.37936]],[[574.44698,375.24087],[-3.81732,1.08408],[5.78196,-1.64202]],[[594.85428,373.25755],[-6.00714,0.01126],[11.98628,-0.00276]],[[630.80726,373.00349],[-11.98366,0.26764],[3.52444,-0.07872]],[[641.97938,372.26179],[-3.44798,0.81822],[0.6499,-0.15422]],[[643.7346,371.29501],[0.1226,0.65662],[-0.40992,-2.19542]],[[638.70346,366.87017],[1.4597,1.69034],[-5.22112,-6.04602]],[[624.94548,347.48073],[5.67054,5.63866],[-3.7752,-3.7932]],[[615.32186,334.77141],[3.72696,3.66692],[-15.95426,-15.69732]],[[566.54256,288.16191],[18.22516,13.4261],[-23.59296,-17.38046]],[[488.99448,265.25787],[29.00778,-0.00006],[-27.98844,0.00008]],[[405.02236,265.45269],[27.98602,-0.37512],[-7.35858,0.09534]],[[381.57482,267.38715],[7.15292,-1.78628],[-5.03652,1.25776]],[[366.92876,273.46391],[4.94228,-1.62058],[-7.69262,2.5224]],[[344.84774,281.21971],[7.07578,-4.27202],[-5.1838,3.12972]],[[329.86088,292.23081],[2.93678,-5.3582],[-2.83494,4.91182]],[[319.25878,304.66791],[3.79076,-4.15768],[-13.77834,15.11196]],[[281.41436,358.69883],[3.91662,-20.66764],[-1.03368,5.05202]],[[275.4252,369.05835],[1.52816,-4.18118],[-0.83698,2.29008]],[[275.54564,376.37207],[0.00032,-2.43824],[-0.00074,5.3344]],[[275.5346,392.37525],[0.00922,-5.3344],[-0.00092,0.5384]],[[275.53156,393.98823],[0.00114,-0.53692],[0.38912,-0.15622]],[[276.65246,393.46899],[-0.35082,0.1979],[0,0]]],&quot;closed&quot;:true,&quot;fillColor&quot;:[0,0,0],&quot;strokeWidth&quot;:0.5}],&quot;index&quot;:null}" fill="#ffd200" stroke="none" stroke-width="0.25" stroke-linecap="butt"/><path d="M282.70637,283.46037c-0.02281,-0.12903 -0.04525,-0.2581 -0.06723,-0.38718c0.00963,-0.03142 0.01926,-0.06284 0.02888,-0.09426c0.01278,0.00685 0.02556,0.01371 0.03835,0.02058c0,0.15362 0,0.30724 0,0.46086z" data-paper-data="{&quot;noHover&quot;:false,&quot;origItem&quot;:[&quot;Path&quot;,{&quot;applyMatrix&quot;:true,&quot;segments&quot;:[[276.65244,393.46895],[[279.33572,394.36337],[-0.89442,-1.78884],[0.89442,1.78886]],[[278.4413,397.04665],[0,0],[-0.94182,0.37838]],[[275.61582,398.18179],[0.584,-0.83016],[-0.03848,0.0547]],[[275.51504,398.35067],[0.02888,-0.05784],[-0.00412,0.67422]],[[275.49954,400.37035],[0.0063,-0.67226],[0.03914,0.25948]],[[275.56728,401.13207],[0.00242,-0.24554],[-0.0087,0.8805]],[[275.45286,403.92101],[0.0575,-0.96862],[-0.03856,2.21728]],[[275.26778,410.54785],[0.08846,-2.20144],[0.04158,0.73144]],[[275.51234,412.65625],[-0.12616,-0.66942],[1.05804,5.61438]],[[283.13664,426.18257],[-1.81158,-4.9259],[0.91448,2.48656]],[[283.402,434.12633],[-0.97414,-2.46382],[1.61094,4.07446]],[[297.08716,440.08595],[-4.25322,3.3152],[1.96486,-1.53152]],[[301.56494,434.10221],[-1.54802,1.95186],[0.2662,-0.33558]],[[306.77534,427.58217],[-0.17038,0.15134],[1.97738,-1.75628]],[[313.53652,423.43041],[-1.91738,1.8216],[1.89438,-1.79976]],[[317.9631,416.96085],[-1.74122,1.94832],[3.53806,-3.95888]],[[328.93946,405.44779],[-3.56342,4.00494],[2.5662,-2.88418]],[[341.49536,399.60841],[-4.7356,-2.5406],[3.05252,1.63764]],[[344.7357,408.72301],[-0.27152,-2.70532],[0.81014,8.07204]],[[345.54394,432.87627],[-0.00548,-8.10708],[0.00632,9.33378]],[[345.5469,460.87763],[0,-9.33378],[0,2.41534]],[[345.2855,471.88905],[-0.94438,-2.12304],[0.83898,1.88608]],[[353.84202,471.97177],[-1.11006,0.68626],[2.14518,-1.3262]],[[358.3991,465.93203],[-1.80518,1.76122],[3.69444,-3.60444]],[[369.15308,455.15103],[-2.46074,4.8389],[1.2516,-2.46122]],[[371.58022,447.23103],[-0.84618,2.62832],[6.00678,-4.53772]],[[390.14026,440.25305],[-7.23384,1.3005],[0,0]],[[391.36256,437.30441],[0,0],[0.28984,-0.74722]],[[393.22788,436.02743],[-0.84962,0],[1.08428,0]],[[395.22698,437.96677],[-0.03206,-1.0765],[0,0]],[395.36486,441.95595],[[394.95082,441.97027],[0,0],[1.75002,10.39562]],[[395.5469,474.02249],[-0.0001,-10.41564],[0.00004,4.32264]],[[395.44144,489.38159],[-1.2568,-4.08082],[2.4137,7.83728]],[[417.66534,490.03599],[-4.47792,2.61258],[4.64436,-3.41584]],[[432.21048,482.23947],[-5.91884,0.75888],[1.81506,-0.23272]],[[437.68516,481.83331],[-1.47728,-1.07992],[3.56116,2.60326]],[[439.46292,498.92539],[-0.91628,-3.70096],[0.356,1.43794]],[[441.03734,502.92403],[-0.6794,-1.23526],[1.97046,-3.7183]],[[448.1474,492.76827],[-1.9416,3.8337],[1.74032,-3.43626]],[[450.78912,481.12027],[-1.63914,3.46162],[1.12526,-2.37638]],[[455.80976,475.03639],[-0.9632,2.44656],[1.76252,-4.4769]],[[459.60312,459.46975],[-1.46552,4.82228],[1.37362,-2.10844]],[[461.88816,452.27461],[-0.84322,2.37094],[1.27324,-3.58004]],[[468.9569,442.06405],[-1.97584,3.25764],[6.19256,-10.20992]],[[490.51306,412.57543],[-9.86156,7.4366],[6.91266,-5.21284]],[[515.306,399.04477],[-7.67256,4.0222],[4.44046,-2.31298]],[[529.7373,391.30959],[-4.7381,1.42848],[4.89668,-1.47628]],[[545.2069,388.17301],[-4.98068,1.8975],[3.72014,-1.41726]],[[555.91554,382.68789],[-3.74606,1.35912],[2.50198,-0.90774]],[[563.70398,380.92867],[-2.49488,0.92708],[3.71204,-1.37936]],[[574.44698,375.24087],[-3.81732,1.08408],[5.78196,-1.64202]],[[594.85428,373.25755],[-6.00714,0.01126],[11.98628,-0.00276]],[[630.80726,373.00349],[-11.98366,0.26764],[3.52444,-0.07872]],[[641.97938,372.26179],[-3.44798,0.81822],[0.6499,-0.15422]],[[643.7346,371.29501],[0.1226,0.65662],[-0.40992,-2.19542]],[[638.70346,366.87017],[1.4597,1.69034],[-5.22112,-6.04602]],[[624.94548,347.48073],[5.67054,5.63866],[-3.7752,-3.7932]],[[615.32186,334.77141],[3.72696,3.66692],[-15.95426,-15.69732]],[[566.54256,288.16191],[18.22516,13.4261],[-23.59296,-17.38046]],[[488.99448,265.25787],[29.00778,-0.00006],[-27.98844,0.00008]],[[405.02236,265.45269],[27.98602,-0.37512],[-7.35858,0.09534]],[[381.57482,267.38715],[7.15292,-1.78628],[-5.03652,1.25776]],[[366.92876,273.46391],[4.94228,-1.62058],[-7.69262,2.5224]],[[344.84774,281.21971],[7.07578,-4.27202],[-5.1838,3.12972]],[[329.86088,292.23081],[2.93678,-5.3582],[-2.83494,4.91182]],[[319.25878,304.66791],[3.79076,-4.15768],[-13.77834,15.11196]],[[281.41436,358.69883],[3.91662,-20.66764],[-1.03368,5.05202]],[[275.4252,369.05835],[1.52816,-4.18118],[-0.83698,2.29008]],[[275.54564,376.37207],[0.00032,-2.43824],[-0.00074,5.3344]],[[275.5346,392.37525],[0.00922,-5.3344],[-0.00092,0.5384]],[[275.53156,393.98823],[0.00114,-0.53692],[0.38912,-0.15622]],[[276.65246,393.46899],[-0.35082,0.1979],[0,0]]],&quot;closed&quot;:true,&quot;fillColor&quot;:[0,0,0],&quot;strokeWidth&quot;:0.5}],&quot;index&quot;:null}" fill="#ffd200" stroke="none" stroke-width="0.25" stroke-linecap="butt"/><path d="M123.17181,111.45579l-2.7773,-1.70634l2.36772,-1.87587" data-paper-data="{&quot;index&quot;:null}" fill="none" stroke="#000000" stroke-width="3" stroke-linecap="round"/><path d="M242.96848,150.96068c2.593,3.94408 3.66987,5.92566 0.56602,7.04608c1.93561,0.99763 3.12804,5.19066 3.80241,6.75622c1.72275,3.99941 3.83103,8.45926 2.99556,12.94509c-0.16435,0.88243 -0.88572,2.48082 -1.59145,3.90945c1.11987,0.95579 1.4805,2.58788 0.77901,3.95473c-0.71942,1.40179 -2.31678,2.05865 -3.77655,1.64389c-1.05471,1.54252 -2.47555,2.78258 -4.68267,2.63533c-3.74544,-0.24989 -6.24585,-4.2583 -5.35626,-7.71532c-1.30185,-0.66808 -2.60357,-1.33641 -3.90503,-2.00526c-1.44237,-0.74127 -5.10456,-2.4405 -6.09675,-3.76182c-0.48152,-0.64124 -1.05392,-1.51406 -1.34677,-2.36594c-0.24672,0.51654 -0.51052,1.02652 -0.67733,1.57227c-0.55028,1.80032 -0.91264,3.66445 -1.60777,5.41396c-1.53983,3.80381 -3.32225,7.94114 -5.77047,11.26853c-1.09176,1.48382 -1.68748,4.08049 -3.52093,4.25984c-2.17208,0.21248 -4.24226,-1.67008 -5.61583,-3.36607c-0.19832,-0.24486 -0.1224,-4.67663 -0.574,-5.76263c-0.7033,-1.69128 -2.31235,-2.88241 -3.10499,-4.5337c-1.67151,-3.48221 -1.47593,-7.40751 -2.64291,-10.99398c-0.04996,-0.15355 -0.18459,-0.43542 -0.3599,-0.79204l-0.34814,0.67836c-0.77537,1.51082 -2.57059,2.15632 -4.11421,1.52749c-3.75132,9.00253 -8.83517,17.68164 -13.17166,26.13135c0,0 -1.48393,2.89145 -4.37537,1.40752c-2.89145,-1.48393 -1.40752,-4.37537 -1.40752,-4.37537c0.12001,-0.23384 0.23965,-0.46783 0.35895,-0.70195c-0.78195,-0.56741 -1.25202,-1.44185 -1.32762,-2.36667l-0.29153,-2.99063c-1.06677,-1.65567 -2.57794,-4.04576 -2.9257,-4.99965c-0.87755,-2.40707 -1.06615,-4.92545 -1.29216,-7.44616c-1.7011,-1.33427 -2.22122,-4.5528 -4.34298,-4.7527c-1.78467,-0.16814 -3.31908,2.24468 -4.64844,2.80248l-2.05276,1.90418c-0.9725,0.94543 -2.47623,1.21384 -3.74972,0.56027c-1.59691,-0.81955 -2.22707,-2.77847 -1.40752,-4.37537c0.11024,-0.21481 0.2411,-0.41212 0.38892,-0.59078l1.39666,-1.75726c2.8553,-5.47442 4.70842,-13.3064 5.25688,-19.44528c-0.25869,-8.2182 -5.20125,-14.12319 -10.05129,-20.28465c-2.84824,-3.61839 -5.65485,-7.61109 -8.67539,-11.09149c-0.86709,-0.99909 -2.00722,-2.14742 -3.18661,-3.22887c-0.05747,0.00018 -0.115,-0.00023 -0.17259,-0.00127c-1.63114,-0.02944 -4.75338,-2.19356 -6.15264,-3.45171l-1.80745,0.46629c-0.74755,0.19655 -1.56747,0.12867 -2.30927,-0.25203c-0.78604,-0.4034 -1.33784,-1.08285 -1.59783,-1.85931c-0.75002,-0.03855 -1.48193,-0.10633 -2.17954,-0.23333c0,0 -3.19592,-0.59049 -2.60542,-3.7864c0.59049,-3.19592 3.7864,-2.60542 3.7864,-2.60542c0.84487,0.15881 1.70458,0.24717 2.57113,0.30278c0.03485,-0.40933 0.1484,-0.81883 0.34759,-1.20694c0.52325,-1.01956 1.51095,-1.64504 2.57234,-1.75076l2.45564,-0.28077c1.20152,-0.32206 2.40302,-0.64411 3.60453,-0.96617c4.37491,-0.30463 9.07648,-1.29243 13.44732,-0.41603c2.93969,0.58944 5.62549,2.04492 8.68424,2.5315c3.82719,0.60881 7.67175,-0.26916 11.51554,0.74739c3.6998,0.97848 7.28489,3.09184 10.66878,4.82849c5.13646,2.6361 10.27834,5.26184 15.40219,7.92237c2.47825,1.9697 3.97821,4.65607 6.27084,6.65531c1.42061,1.23881 3.48152,1.49596 5.05593,2.53229c2.95105,1.94249 5.21771,4.73413 7.95295,6.93034c1.47979,1.18818 3.41793,1.69223 4.95145,2.81021c0.85177,0.62097 1.3587,1.6412 2.21244,2.25945c2.36235,1.71073 4.80328,2.78778 7.1697,4.29264c4.30117,2.08765 8.4697,4.56276 10.60959,7.81763zM170.25011,145.38325c0.03236,-0.06613 0.06462,-0.1323 0.09673,-0.19851c-0.04017,-0.04647 -0.08014,-0.09317 -0.11991,-0.1401c0.00688,0.11332 0.01457,0.22622 0.02318,0.33861zM151.97524,113.97053c-0.06014,-0.02007 -0.12031,-0.04003 -0.1805,-0.05985c0.02197,0.06082 0.04514,0.12163 0.06973,0.18241c0.03644,-0.04118 0.07336,-0.08204 0.11076,-0.12256zM187.96342,128.01425c0.03301,0.04003 0.06581,0.08018 0.09841,0.12042c0.01277,-0.0146 0.02568,-0.02907 0.03868,-0.04341c-0.04568,-0.02566 -0.09137,-0.05132 -0.13708,-0.07701zM163.54398,111.66957c0.0993,-0.31663 0.22895,-0.61708 0.39272,-0.89726c-1.08909,0.01667 -2.17603,0.00719 -3.25297,-0.11572c0.95315,0.34243 1.9065,0.67971 2.86025,1.01297zM196.33749,124.14486c0.0669,0.33917 0.10057,0.69538 0.14339,1.04894c0.44939,0.23063 0.89879,0.46127 1.34818,0.6919c-0.47364,-0.59803 -0.95796,-1.18884 -1.49157,-1.74084zM186.2564,148.14336c0.24671,-0.38165 0.48101,-0.76934 0.70374,-1.1583c-0.30472,-0.19934 -0.60849,-0.40028 -0.91131,-0.60282c0.09591,0.60884 0.15998,1.20921 0.20756,1.76113zM211.46752,182.79379c0.00137,-0.00701 0.00276,-0.01401 0.00418,-0.02101c-0.00703,-0.00145 -0.01405,-0.00293 -0.02109,-0.00443c0.00564,0.00847 0.01128,0.01694 0.01691,0.02542zM230.86114,172.41418c0.59905,0.99537 1.91088,1.2117 3.07363,1.59719c-1.13271,-0.92666 -2.30203,-1.7972 -3.49783,-2.64346c0.08268,0.34637 0.21336,0.69595 0.4242,1.04627z" data-paper-data="{&quot;index&quot;:null}" fill="#ffffff" stroke="none" stroke-width="0.5" stroke-linecap="butt"/><path d="M153.07311,181.31573l7.46665,-18.92912l0.85533,-17.54511l-9.79479,-14.86185l-15.73298,-13.69438l-15.148,-5.52613l6.91014,-8.53668l21.37913,-2.23503l18.42303,2.42989l13.69346,5.62264l14.57726,6.63822l16.30959,12.0233l12.88267,8.29755l12.97919,9.75209l9.01926,14.18284l2.96693,15.57273l-2.377,13.39216l-7.63277,2.8268l-6.82446,-10.24643l-6.41489,-6.66421l-15.02053,24.88742l-11.57075,-26.73234l-7.77383,16.24246l-11.77149,13.62881l-2.54313,-2.71017l-8.69693,-23.57145z" data-paper-data="{&quot;index&quot;:null}" fill="none" stroke="#000000" stroke-width="3" stroke-linecap="round"/><path d="M310.25885,284.28223c0,1 -1,1 -1,1l-1.07089,-0.00252c-3.38585,-0.47912 -8.41459,0.07548 -11.26382,-1.93624c-0.79641,-0.56232 -0.98111,-1.68547 -1.50013,-2.51075c-0.64521,-1.02594 -1.23664,-0.75073 -2.24987,-1.48925c-2.1484,-1.56592 -2.65124,-2.81124 -5.41529,-2.81124c0,0 -1,0 -1,-1c0,-1 1,-1 1,-1c3.21174,0 4.15739,1.42753 6.58471,3.18876c0.91914,0.66691 2.10204,1.07824 2.75013,2.01075c0.11341,0.16318 0.57678,1.73311 0.99987,1.98925c2.69817,1.63345 7.11155,1.11275 10.23618,1.56376l0.92911,-0.00252c0,0 1,0 1,1z" fill="#ffd200" stroke="none" stroke-width="0.5" stroke-linecap="butt"/></g></g></svg>