<svg version="1.1" xmlns="http://www.w3.org/2000/svg" xmlns:xlink="http://www.w3.org/1999/xlink" width="23.62024" height="18.73216" viewBox="0,0,23.62024,18.73216"><g transform="translate(-232.90874,-179.77544)"><g data-paper-data="{&quot;isPaintingLayer&quot;:true}" fill-rule="nonzero" stroke="none" stroke-width="0.5" stroke-linecap="butt" stroke-linejoin="miter" stroke-miterlimit="10" stroke-dasharray="" stroke-dashoffset="0" style="mix-blend-mode: normal"><path d="" fill="#000000"/><path d="" fill="#000000"/><path d="" fill="#000000"/><path d="" fill="#000000"/><path d="" fill="#000000"/><path d="" fill="#b70000"/><path d="M250.07792,196.45083c-0.37337,1.43199 -6.97539,2.73522 -8.13886,1.66211c-3.20527,-2.95632 -1.39557,-7.95001 -5.51716,-10.31706c-0.1731,-0.00049 -0.34427,-0.03695 -0.50212,-0.10641c-0.96897,0.75276 -2.12901,1.05765 -2.82011,0.15737c-0.84072,-1.09521 1.28815,-3.02787 2.62905,-3.48485c1.40817,-1.16744 3.55432,-2.18458 3.64962,-2.23958c3.17123,-1.83024 9.84616,-3.65995 13.1547,-1.03945c0.09552,0.03987 0.19441,0.0938 0.29644,0.16331c1.50777,1.02728 3.45367,4.41292 3.65046,5.89719c0.48206,3.6359 -2.65785,7.57549 -6.40166,9.30596c-0.00012,0.00048 -0.00025,0.00094 -0.00037,0.00142zM250.07458,193.09721c4.3639,-3.03368 4.58041,-4.21706 1.93122,-8.8492c-0.62041,3.9904 -7.64702,0.29061 -7.73738,-1.06222c-0.01271,-0.01918 -0.02495,-0.03882 -0.03673,-0.05891c-0.0519,-0.08852 -0.09169,-0.1808 -0.11983,-0.27492c-1.04578,0.31124 -2.05468,0.71604 -2.86288,1.11247c-1.01963,-0.01225 -1.96155,0.65129 -2.68184,1.5707c-0.09428,0.03703 -0.18737,0.0796 -0.27888,0.12785c0.41169,0.24185 0.80156,0.57022 1.11827,0.95565c1.62815,1.98136 2.01988,3.93777 2.57226,5.89618c-0.05423,0.55699 0.06051,1.1356 0.36522,1.65526c0.10838,0.18484 0.23501,0.35233 0.37626,0.50157c0.13948,0.31915 0.29673,0.63861 0.47778,0.95849c0.00945,-0.00755 0.01904,-0.01498 0.02875,-0.02228c0.03771,-0.14249 0.07852,-0.29037 0.12233,-0.44217c0.21833,0.1248 0.45219,0.21869 0.69439,0.27981c0.61641,0.59329 1.62905,0.38702 2.6934,-0.16102c0.03694,-0.01461 0.07389,-0.02918 0.11082,-0.0437c-0.00186,-0.00384 -0.00371,-0.00767 -0.00557,-0.01151c1.10955,-0.59256 2.26275,-1.53813 3.07261,-2.32248c0.05856,0.05707 0.1122,0.12064 0.1598,0.19042zM249.24622,183.64995c0.02259,0.00662 0.26013,-0.29308 0.58834,-0.64357c-0.48725,-0.24806 -0.95033,-0.48886 -1.34541,-0.58547c-0.38488,-0.09412 -0.81865,-0.13029 -1.28254,-0.12023c0.63014,0.5398 1.31473,1.13685 2.0396,1.34929z" fill="#000000"/><path d="M249.94353,192.9477c-0.80986,0.78435 -1.98913,1.73894 -3.09868,2.33149c0.00186,0.00384 0.00375,0.00768 0.0056,0.01151c-0.03694,0.01451 -0.07465,0.02912 -0.11159,0.04373c-1.06435,0.54804 -2.09429,0.75192 -2.7107,0.15863c-0.24219,-0.06112 -0.48053,-0.1567 -0.69885,-0.28149c-0.04382,0.15179 -0.04529,0.20774 -0.083,0.35022c-0.00971,0.0073 -0.05838,0.10678 -0.06783,0.11432c-0.18104,-0.31989 -0.34308,-0.6417 -0.48256,-0.96084c-0.14124,-0.14922 -0.27117,-0.31874 -0.37955,-0.50358c-0.30471,-0.51966 -0.42692,-1.10435 -0.37269,-1.66133c-0.55237,-1.9584 -0.95807,-3.95989 -2.58622,-5.94125c-0.31672,-0.38543 -0.7056,-0.71796 -1.11728,-0.95981c0.0915,-0.04825 0.18494,-0.09198 0.27922,-0.12901c0.72029,-0.91941 1.67039,-1.59869 2.69001,-1.58644c0.8082,-0.39643 1.83591,-0.81616 2.88169,-1.1274c0.02815,0.09412 0.06789,0.18643 0.11979,0.27495c0.01178,0.02009 0.0241,0.0397 0.03681,0.05888c0.09036,1.35283 7.17919,5.0702 7.7996,1.0798c2.64919,4.63214 2.42008,5.88425 -1.94382,8.91792c-0.0476,-0.06978 -0.10138,-0.13324 -0.15994,-0.19032z" data-paper-data="{&quot;noHover&quot;:false,&quot;origItem&quot;:[&quot;Path&quot;,{&quot;applyMatrix&quot;:true,&quot;segments&quot;:[[[247.3023,194.6726],[-0.00577,-0.08427],[5.29897,-0.40959]],[[253.44439,188.01582],[-0.05777,5.33588],[-2.55363,3.12844]],[[247.30715,183.18575],[-0.60635,1.21271],[-0.00126,-0.02297]],[[247.30526,183.11635],[0,0.02329],[0,-0.10261]],[[247.34095,182.81858],[-0.02333,0.09543],[-1.05956,-0.2605]],[[244.30861,182.33012],[0.89771,0.06683],[-0.87337,-0.52632]],[[241.20066,182.32852],[1.08641,-0.42877],[-0.10006,-0.01575]],[[240.89542,182.29775],[0.10334,0.00466],[0.2328,0.41687]],[[241.37669,183.68778],[-0.07825,-0.49269],[0.40228,2.53275]],[[240.61318,190.07515],[0.51411,-1.96879],[-0.32852,0.45305]],[[240.09096,191.68778],[0,-0.60241],[0,0.21427]],[[240.16183,192.31077],[-0.04636,-0.20017],[-0.04111,0.34586]],[[240.08915,193.37927],[0.00564,-0.36752],[0.01197,-0.00173]],[[240.12522,193.37459],[-0.01207,0.00139],[0.1046,-0.10384]],[[240.4544,193.05504],[-0.11458,0.10877],[0.12521,0.21809]],[[240.91187,193.64765],[-0.17801,-0.17523],[0.23164,0.82359]],[[243.31674,194.87115],[-1.19536,-0.06562],[0.03926,0.00608]],[[243.43444,194.88951],[-0.0392,-0.00617],[0.00034,-0.00425]],[[243.43545,194.87676],[-0.00034,0.00425],[1.25687,0.05008]],[[247.26076,194.42751],[-1.09536,0.26696],[0.02165,0.07885]]],&quot;closed&quot;:true}]}" fill="#b70000"/></g></g></svg>