<svg version="1.1" xmlns="http://www.w3.org/2000/svg" xmlns:xlink="http://www.w3.org/1999/xlink" width="21.41031" height="16.29614" viewBox="0,0,21.41031,16.29614"><g transform="translate(-231.71955,-179.65302)"><g data-paper-data="{&quot;isPaintingLayer&quot;:true}" fill-rule="nonzero" stroke="none" stroke-linecap="butt" stroke-linejoin="miter" stroke-miterlimit="10" stroke-dasharray="" stroke-dashoffset="0" style="mix-blend-mode: normal"><path d="" fill="#000000" stroke-width="0.5"/><path d="" fill="#000000" stroke-width="0.5"/><path d="" fill="#000000" stroke-width="0.5"/><path d="" fill="#000000" stroke-width="0.5"/><path d="" fill="#000000" stroke-width="0.5"/><path d="" fill="#b70000" stroke-width="0.5"/><path d="M241.37487,191.95337c-0.27411,0.18467 -0.68029,0.68663 -1.1326,1.24279l1.52451,-0.39965l0.31329,-0.22138l0.20838,-0.08086l0.19601,-0.10742l0.21904,-0.05742c-0.57873,-0.32044 -1.08201,-0.54218 -1.32861,-0.37605zM245.77959,184.8304c0.41675,-0.37147 0.52496,-1.02254 0.61625,-1.67939l-0.04894,0.02683l-0.2454,0.06433l-0.19128,0.08577l-0.39927,0.28213l-0.08283,0.03214l-0.0668,0.05858l-0.50763,0.26109l-0.42679,0.30157l-0.0952,0.03695l-0.07819,0.06569l-0.17415,0.08494c0.60481,0.32052 1.20775,0.81833 1.70022,0.37937zM242.95923,186.84102c-0.41153,-0.11691 -0.7523,-0.44218 -0.86863,-0.88596c-0.0416,-0.1587 -0.05076,-0.31827 -0.03158,-0.4717l-0.1395,0.03657l-0.76199,0.26913l-0.05281,0.005l-0.04652,0.02549l-1.7727,0.46471l-0.56065,0.32297l-0.16056,0.04576l-0.14641,0.08024l-0.35653,0.09346l-0.01929,0.01258l-0.18989,0.06571l-0.17621,0.09657l-1.83575,0.48124l0.48562,0.84301l-0.12581,0.43094l0.00095,0.0828l0.76935,2.93479l0.31435,0.42496l0.06719,0.16257l0.09947,0.14508l0.01871,0.05033c1.25782,-3.07152 6.91379,-4.66179 7.97438,-1.26344l0.06653,-0.03527l0.10105,-0.02499l0.08774,-0.05599l1.0183,-0.34079l0.04242,-0.00331l0.03731,-0.02045l0.62947,-0.16501l0.03104,-0.0287l0.21701,-0.22202l0.02282,0.00022l0.00522,-0.00482l0.25826,-0.14155l0.14885,-0.03902l0.13495,-0.07396l0.10703,-0.02806l0.2968,-0.17577l0.16709,-0.04981l0.13595,-0.07451l0.02618,-0.02297l0.03913,-0.02012l0.02748,-0.03436l0.73856,-0.56282l0.08719,-0.03751l0.06969,-0.06445l0.21291,-0.11668l0.27618,-0.47242l0.01779,-0.05548l0.02847,-0.19891l0.06741,-0.16536l-0.64021,-2.44217l-0.04451,-0.08122l-0.0438,-0.06713l-0.01137,-0.00306l-0.01726,-0.03148l-0.02297,-0.02618l-0.13137,-0.25542l-0.13804,-0.25187l-0.00883,-0.03369l-0.01642,-0.03193l0.00457,-0.01327l-0.02695,-0.10281l-0.05467,-0.07391l-0.07104,-0.08098l-0.07636,-0.14847l-0.1074,-0.12783l-0.20591,-0.42218l-0.0111,-0.012c-0.7182,2.59508 -3.32506,5.67553 -5.96038,2.98764zM231.76071,187.11233c-0.17506,-0.6678 0.22437,-1.35106 0.89217,-1.52612c0.02253,-0.00591 0.04507,-0.01115 0.06761,-0.01577l0.01451,-0.01274l0.03739,0.00325c0.163,-0.02627 0.32505,-0.0194 0.47856,0.01616l3.59485,-0.94238l0.01929,-0.01258l0.18989,-0.06571l0.17621,-0.09657l0.39082,-0.10245l0.56065,-0.32297l0.16056,-0.04576l0.14641,-0.08024l1.88434,-0.49398l0.76199,-0.26913l0.05281,-0.005l0.04652,-0.02549l0.20729,-0.05434l0.09243,-0.05065l0.08748,-0.0895l0.01182,-0.04394l0.14085,-0.07719l0.11227,-0.11486l0.09558,0.00094l0.21625,-0.11852l0.19662,-0.05154l0.38158,-0.20914l0.02948,-0.00773l0.02334,-0.01961l0.23651,-0.11535l0.41587,-0.29385l0.08283,-0.03214l0.0668,-0.05858l0.50763,-0.26109l0.42679,-0.30157l0.11389,-0.04419l0.09602,-0.07553l0.39645,-0.17777l0.02115,-0.00378l0.02334,-0.03589l0.01434,-0.05334l0.0316,-0.01732l0.01965,-0.03021l0.05427,-0.0103l0.45942,-0.2518l0.11235,-0.02945l0.0332,-0.03282l0.44743,-0.26498l0.12428,-0.03705l0.00909,-0.03379l0.24691,-0.13533l0.23249,-0.15885l0.04144,0.00872l0.0441,-0.02417l0.48366,-0.12679l0.05029,-0.00057l0.03184,-0.02793l0.28052,0.02436l0.28155,-0.00321l0.02965,0.03024l0.0501,0.00436l0.16992,0.05851l0.08014,0.01686l0.0918,0.0446l0.06111,-0.01244l0.20369,0.14109l0.22287,0.10827l0.01914,0.05936l0.0839,0.05811l0.05401,0.06157l0.00154,0.00137l0.29558,0.1436l0.01515,0.04697l0.04767,0.01282l0.23896,0.436l0.19996,0.19545l-0.00041,0.04235l0.03235,0.0385l0.03537,0.07252l0.05766,0.04576l0.06216,0.08094l0.06023,0.0162l0.11909,0.21728l0.15092,0.19652l-0.00943,0.06165l0.04905,0.0895l0.01532,0.05843l0.07459,0.13608l0.10301,0.12261l0.20136,0.19681l-0.00041,0.04235l0.03235,0.0385l0.26679,0.54702l0.03929,0.03235l0.22875,0.30924l0.09043,0.21879l0.11378,0.2076l0.04176,0.15932l0.00994,0.00922l0.12343,0.18917l0.01603,0.04632l0.03327,0.03599l0.14155,0.25826l0.03902,0.14885l0.07396,0.13495l0.79697,3.04013l0.00281,0.24659l0.04771,0.08283l-0.04501,0.15418l0.00184,0.1606l-0.06825,0.06691l-0.06911,0.23672l-0.05713,0.09772l-0.02472,0.06062l-0.0015,0.02298l-0.08772,0.27349l-0.08049,0.27571l-0.01758,0.03007l-0.01096,0.03419l-0.01262,0.00615l-0.51963,0.88886l-0.00496,0.00508l-0.00041,0.02282l-0.22794,0.21079l-0.21701,0.22202l-0.02282,-0.00022l-0.00522,0.00482l-0.43426,0.23801l-0.62971,0.47987l-0.14647,0.12847l-0.00365,0.01356l-0.03148,0.01726l-0.02618,0.02297l-0.25542,0.13137l-0.25187,0.13804l-0.03369,0.00883l-0.03193,0.01642l-0.01327,-0.00457l-0.02814,0.00738l-0.2968,0.17577l-0.16709,0.04981l-0.1529,0.0838l-0.03466,0.00909l-0.06314,0.06459l-0.02483,0.0923l-0.14085,0.07719l-0.11227,0.11486l-0.09558,-0.00094l-0.21625,0.11852l-0.99615,0.26114l-0.8811,0.29487l-1.01109,0.53602l-0.10576,0.02616l-0.0923,0.05788l-1.15649,0.37701l-0.0375,0.00263l-0.03297,0.01807l-0.81715,0.21421l-0.31329,0.22138l-0.20838,0.08086l-0.19601,0.10742l-2.41829,0.63395l-0.11362,0.00129l-0.1078,0.0359l-0.79626,0.06105l-0.12473,-0.02122l-0.1256,0.01526l-0.14282,-0.01782l-0.04352,0.01141l-0.12449,0.00141l-0.11879,0.03726l-0.36358,0.02147l-0.04942,-0.0093l-0.0367,0.02114l-0.27028,-0.07891l-0.27671,-0.05207l-0.02314,-0.03547l-0.04828,-0.0141l-0.04157,-0.0243l-0.25209,-0.07359l-0.20772,-0.12143l-0.21911,-0.09942l-0.55946,-0.44408l-0.04811,-0.06265l-0.06733,-0.04131l-0.31209,-0.31831l-0.0058,-0.00096l-0.01132,-0.01651l-0.07395,-0.07542l-0.13178,-0.22462l-0.14727,-0.21478l-0.03682,-0.09901l-0.01013,-0.01727l0.00161,-0.00566l-0.14328,-0.38529l-0.35243,-0.47644l-0.09043,-0.21879l-0.11378,-0.2076l-0.86942,-3.31651l-0.00176,-0.15387l-0.03902,-0.14885l-0.00335,-0.29448l0.01134,-0.04768l-0.00876,-0.04823l0.00943,-0.14401l-0.00701,-0.01217l0.01006,-0.03447l0.00227,-0.03475l0.08772,-0.27349l0.03673,-0.12583l-0.31099,0.08153l-0.05029,0.00057l-0.03184,0.02793l-0.28052,-0.02436l-0.28155,0.00321l-0.02965,-0.03024l-0.0501,-0.00436l-0.22517,-0.07754c-0.20086,-0.06591 -0.3829,-0.18201 -0.52747,-0.33742l-0.03093,-0.02011l-0.00351,-0.01847c-0.11895,-0.139 -0.20909,-0.30638 -0.25859,-0.49522z" fill="#000000" stroke-width="0.5"/><path d="M242.94688,186.79254c2.63532,2.68788 5.21619,-0.31204 5.93439,-2.90712l0.08788,-0.05207l0.20787,0.4247l0.10807,0.12879l0.07702,0.14943l0.07145,0.08161l0.05501,0.07445l0.02733,0.10341l-0.00454,0.01333l0.01655,0.03214l0.00895,0.0339l0.13903,0.25363l0.13229,0.25722l0.02307,0.02639l0.01737,0.03171l0.01139,0.0031l0.04404,0.06763l0.04478,0.08181l0.64435,2.45932l-0.06735,0.16649l-0.02844,0.20031l-0.01779,0.05587l-0.2763,0.4759l-0.21299,0.11768l-0.06973,0.06499l-0.08723,0.03786l-0.73944,0.56825l-0.02756,0.03469l-0.03918,0.02036l-0.02624,0.02321l-0.13617,0.0754l-0.16731,0.0506l-0.29749,0.17804l-0.10722,0.02861l-0.13532,0.07502l-0.14917,0.03986l-0.25917,0.14375l-0.00524,0.00488l-0.02286,-0.00013l-0.21839,0.22487l-0.03124,0.02908l-0.63224,0.1696l-0.03758,0.02083l-0.0426,0.00358l-1.02653,0.34987l-0.08886,0.05692l-0.1021,0.02582l-0.06739,0.03591c-1.0606,-3.39835 -6.78737,-1.82 -8.04519,1.25152l-0.01892,-0.05063l-0.10014,-0.1461l-0.06783,-0.1636l-0.31613,-0.42815l-0.7748,-2.95516l-0.00097,-0.08337l0.12578,-0.43396l-0.4852,-0.84847l1.83693,-0.48724l0.17653,-0.09773l0.19019,-0.0667l0.01933,-0.01273l0.35711,-0.09523l0.14682,-0.08137l0.16093,-0.04668l0.56298,-0.32793l1.78391,-0.47874l0.04707,-0.02597l0.05328,-0.0054l0.77171,-0.2754l0.1817,0.05406c-0.01918,0.15343 -0.00746,0.31179 0.03414,0.47049c0.11634,0.44378 0.42206,0.67605 0.83358,0.79296z" data-paper-data="{&quot;noHover&quot;:false,&quot;origItem&quot;:[&quot;Path&quot;,{&quot;applyMatrix&quot;:true,&quot;segments&quot;:[[[246.13511,186.97933],[0,0],[-0.36843,-0.21744]],[[245.51953,185.90206],[0,0.45878],[0,-0.16406]],[[245.6086,185.43777],[-0.05746,0.14355],[0,0]],[245.46439,185.43777],[244.65906,185.50488],[244.60671,185.49633],[244.55525,185.50919],[242.72265,185.50919],[242.09843,185.67943],[241.93151,185.68298],[241.76954,185.72347],[241.40096,185.72347],[241.37911,185.73075],[241.17876,185.74616],[240.98382,185.79489],[239.08604,185.79489],[239.34202,186.73349],[239.11105,187.11844],[239.09097,187.19877],[239.09097,190.23273],[239.28728,190.72351],[239.31105,190.8978],[239.37048,191.06336],[[239.37582,191.11679],[0,0],[1.99558,-2.65217]],[[247.40994,191.91679],[-0.16418,-3.55622],[0,0]],[247.48324,191.89954],[247.58732,191.90099],[247.68639,191.86908],[248.75782,191.79765],[248.79969,191.8052],[248.84097,191.79488],[249.49171,191.79488],[249.52901,191.77499],[249.79523,191.61526],[249.81725,191.62126],[249.82352,191.61792],[250.10923,191.54649],[250.26311,191.54649],[250.4124,191.50917],[250.52305,191.50917],[250.85472,191.41441],[251.02898,191.4086],[251.17938,191.371],[251.21053,191.35542],[251.25348,191.34588],[251.28878,191.31961],[252.14592,190.96247],[252.23977,190.9483],[252.32352,190.90363],[252.55906,190.84475],[252.94601,190.4578],[252.97729,190.40865],[253.05527,190.22346],[253.16241,190.0806],[253.16241,187.55591],[253.13995,187.46606],[253.1146,187.39002],[253.10438,187.38418],[253.09567,187.34935],[253.08009,187.3182],[253.01778,187.03782],[252.94812,186.75918],[252.94812,186.72435],[252.94033,186.6893],[252.94812,186.67762],[252.94812,186.57134],[252.91398,186.48598],[252.8658,186.38963],[252.82958,186.22665],[252.75811,186.07576],[252.66599,185.61517],[[252.6583,185.60075],[0,0],[-1.35279,2.32814]],[[246.13513,186.97931],[1.86759,3.26829],[0,0]]],&quot;closed&quot;:true,&quot;fillColor&quot;:[0,0,0,1],&quot;strokeWidth&quot;:0.5}]}" fill="#b70000" stroke-width="0.25"/></g></g></svg>