<svg version="1.1" xmlns="http://www.w3.org/2000/svg" xmlns:xlink="http://www.w3.org/1999/xlink" width="22.44022" height="14.98517" viewBox="0,0,22.44022,14.98517"><g transform="translate(-232.1543,-181.97038)"><g data-paper-data="{&quot;isPaintingLayer&quot;:true}" fill-rule="nonzero" stroke="none" stroke-width="0.5" stroke-linecap="butt" stroke-linejoin="miter" stroke-miterlimit="10" stroke-dasharray="" stroke-dashoffset="0" style="mix-blend-mode: normal"><path d="" fill="#000000"/><path d="" fill="#000000"/><path d="" fill="#000000"/><path d="" fill="#000000"/><path d="" fill="#000000"/><path d="" fill="#b70000"/><path d="M240.68847,184.75489c1.16889,-0.58732 3.14057,-1.2043 4.40027,-1.45802c0.60127,-0.12111 7.33139,-2.83573 6.78524,-0.13216c1.95087,1.68772 3.30756,4.49034 2.46657,6.60388c-1.13862,2.86154 -6.58588,5.31155 -9.19137,5.97106c-0.6898,0.1746 -2.06516,0.62672 -3.25851,0.69701c-1.27626,0.75227 -3.01764,0.80202 -3.95044,-0.62886c-1.29855,-1.99196 0.03144,-2.40397 -0.06321,-4.18633c-0.01775,-0.33416 -0.1145,-0.7583 -0.19367,-1.18531c-1.34995,0.81296 -2.56605,1.27055 -3.51731,0.86645c-0.54427,0.14005 -1.05914,0.1566 -1.25789,-0.18212c-0.24294,-0.13906 -0.44979,-0.34764 -0.58738,-0.61509c-0.37897,-0.73667 -0.089,-1.64106 0.64767,-2.02003c0.1865,-0.09594 0.38375,-0.14901 0.5805,-0.16281c1.61431,-1.66735 4.31557,-2.14874 7.13953,-3.56766zM248.93139,188.30607c-0.49856,0.45625 -2.11966,5.22886 -3.86846,1.82941c-0.57546,-1.11862 0.77987,-3.14593 2.45081,-4.4958c-2.40551,0.94592 -4.58435,1.77205 -6.82521,2.72713c-0.24571,0.17717 -0.49027,0.35437 -0.73306,0.52925c0.78711,0.6247 0.94883,2.37313 0.93209,3.1985c-0.01201,0.5924 -1.12,1.53844 -0.5475,1.69114c0.00456,0.00122 0.00914,0.00237 0.01374,0.00347c0.50649,-0.29994 1.18396,-0.44352 1.66684,-0.52968c2.85845,-0.50998 9.39085,-2.47183 9.02587,-5.68129c-0.63706,0.0794 -1.39644,0.07018 -2.11512,0.72787z" fill="#000000"/><path d="M251.09418,187.56312c0.36499,3.20945 -6.24624,5.22549 -9.10469,5.73549c-0.48287,0.08615 -1.16598,0.22451 -1.67246,0.52444c-0.0046,-0.0011 -0.00924,-0.00232 -0.01381,-0.00354c-0.57251,-0.1527 0.53004,-1.10587 0.54205,-1.69827c0.01673,-0.82536 -0.15236,-2.60621 -0.93948,-3.23091c0.24279,-0.17489 0.48859,-0.35879 0.7343,-0.53595c2.24086,-0.95507 4.49528,-1.81075 6.9008,-2.75667c-1.67093,1.34987 -3.05602,3.36923 -2.48056,4.48785c1.74879,3.39945 3.32462,-1.3088 3.82318,-1.76505c0.71868,-0.65769 1.57361,-0.67797 2.21066,-0.75737z" data-paper-data="{&quot;noHover&quot;:false,&quot;origItem&quot;:[&quot;Path&quot;,{&quot;applyMatrix&quot;:true,&quot;segments&quot;:[[[252.9035,192.18778],[0.93994,-0.25608],[-0.65205,0.17765]],[[248.62667,192.04492],[0,3.8229],[0,-1.25796]],[[252.86263,189.16823],[-2.10335,0.43598],[-2.57178,-0.25926]],[[245.54589,188.47108],[2.42955,0.17581],[-0.29954,0.04514]],[[244.65191,188.60637],[0.2959,-0.04445],[0.41416,0.91557]],[[244.01761,191.87697],[0.39244,-0.72629],[-0.28167,0.52129]],[[242.75714,193.13034],[-0.43924,-0.39768],[0.0035,0.00317]],[[242.76777,193.1397],[-0.00359,-0.00308],[0.58759,-0.03502]],[[244.49228,193.43119],[-0.4688,-0.14428],[2.77512,0.85411]],[[255.1173,192.5081],[-1.14361,3.02092],[-0.60282,-0.22082]]],&quot;closed&quot;:true}]}" fill="#ffffff"/></g></g></svg>