<svg version="1.1" xmlns="http://www.w3.org/2000/svg" xmlns:xlink="http://www.w3.org/1999/xlink" width="26.44957" height="16.15178" viewBox="0,0,26.44957,16.15178"><g transform="translate(-229.49417,-179.60924)"><g data-paper-data="{&quot;isPaintingLayer&quot;:true}" fill-rule="nonzero" stroke-linejoin="miter" stroke-miterlimit="10" stroke-dasharray="" stroke-dashoffset="0" style="mix-blend-mode: normal"><path d="" fill="#000000" stroke="none" stroke-width="0.5" stroke-linecap="butt"/><path d="" fill="#000000" stroke="none" stroke-width="0.5" stroke-linecap="butt"/><path d="" fill="#000000" stroke="none" stroke-width="0.5" stroke-linecap="butt"/><path d="" fill="#000000" stroke="none" stroke-width="0.5" stroke-linecap="butt"/><path d="" fill="#000000" stroke="none" stroke-width="0.5" stroke-linecap="butt"/><path d="" fill="#b70000" stroke="none" stroke-width="0.5" stroke-linecap="butt"/><path d="M249.65883,188.4626c-0.54166,0.47188 -2.63926,1.42638 -3.41591,1.67902c-1.27283,0.41403 -2.00394,-0.63038 -1.56838,-1.8504c0.47711,-1.33639 7.33571,-4.01697 7.86162,-4.10586c0.08342,-0.0141 0.18839,-0.01287 0.30479,0.00209c-1.16556,-2.16019 -4.91503,-1.25124 -7.35413,0.56104c-0.29936,0.10416 -0.57171,0.25697 -0.80975,0.44747l-0.54286,0.15649l-0.05301,0.00189l-0.04794,0.02271l-1.79697,0.35961l-0.57868,0.28942l-0.16298,0.03624l-0.15088,0.07149l-0.36141,0.07233l-0.02,0.01143l-0.19343,0.05443l-0.18159,0.08604l-1.28637,0.25743c0.06374,0.10581 0.11652,0.21657 0.15993,0.33162c0.51512,1.36509 -0.2875,3.33554 0.27394,4.83678c0.17413,0.4656 1.05168,0.81555 1.4073,1.33838c2.0757,0.56542 5.07407,-1.10889 6.20675,-2.07119c0.12766,-0.10846 0.33465,-0.23957 0.596,-0.38963c0.05765,0.13679 0.10624,0.28285 0.14493,0.43848l0.06849,-0.0313l0.10234,-0.019l0.09088,-0.05073l1.03658,-0.28029l0.04254,-0.00081l0.03845,-0.01822l0.63809,-0.12769l0.03267,-0.02682l0.2297,-0.20886l0.02277,0.00156l0.00549,-0.00451l0.26614,-0.12611l0.15089,-0.0302l0.13906,-0.06589l0.1085,-0.02171l0.30663,-0.158l0.16973,-0.03989l0.1401,-0.06638l0.02749,-0.02139l0.04024,-0.01778l0.02946,-0.03269l0.77039,-0.51839l0.08924,-0.03231l0.07336,-0.06024l0.21941,-0.10396l0.3035,-0.45536l0.02103,-0.05433l0.04012,-0.19689l0.07702,-0.16111l-0.23777,-1.18815c-0.9349,0.5594 -2.51365,0.98826 -3.31533,0.89059c-0.00407,0.23172 -0.01634,0.466 -0.1582,0.58958zM240.07445,195.31239c-0.89563,0.17923 -1.58566,-0.64115 -2.09129,-1.84716l-0.12416,-0.20611l-0.03093,-0.101l-0.0091,-0.01783l0.00194,-0.00556l-0.12037,-0.39305l-0.32378,-0.49635l-0.0774,-0.22373l-0.10137,-0.21394l-0.67279,-3.36191l0.0073,-0.15371l-0.0302,-0.15089l0.01398,-0.29417l0.01412,-0.04693l-0.0059,-0.04866l0.01789,-0.1432l-0.00628,-0.01256l0.01207,-0.03382l0.00431,-0.03456l0.10365,-0.26786l0.04407,-0.12345l-0.31525,0.06309l-0.05024,-0.00239l-0.03343,0.026l-0.2786,-0.04082l-0.28125,-0.01336l-0.02782,-0.03193l-0.04976,-0.0073l-0.22022,-0.09065c-0.19663,-0.07761 -0.37153,-0.20423 -0.50671,-0.36787l-0.02969,-0.0219l-0.00242,-0.01865c-0.11056,-0.14576 -0.1907,-0.31815 -0.22901,-0.50958l-0.00003,0c-0.13547,-0.67694 0.30347,-1.33552 0.98041,-1.47098c0.02284,-0.00457 0.04565,-0.00848 0.06842,-0.01177l0.01524,-0.01186l0.03713,0.00544c0.16426,-0.01664 0.32563,-0.00024 0.47678,0.04428l3.64407,-0.72925l0.02,-0.01143l0.19343,-0.05443l0.18159,-0.08604l0.39617,-0.07928l0.57868,-0.28942l0.16298,-0.03624l0.15088,-0.07149l1.91014,-0.38226l0.7765,-0.22384l0.05301,-0.00189l0.04794,-0.02271l0.21012,-0.04205l0.09525,-0.04513l0.0926,-0.0842l0.01439,-0.04317l0.14515,-0.06877l0.11884,-0.10806l0.09536,0.00656l0.22285,-0.10559l0.19931,-0.03989l0.39322,-0.18632l0.02989,-0.00598l0.02445,-0.0182l0.24289,-0.10124l0.43244,-0.26887l0.08457,-0.02722l0.07013,-0.05455l0.52211,-0.23077l0.44379,-0.27594l0.11629,-0.03742l0.10029,-0.06975l0.40622,-0.15414l0.02134,-0.00253l0.02541,-0.03446l0.01746,-0.0524l0.03257,-0.01543l0.02139,-0.029l0.05478,-0.00709l0.47344,-0.22434l0.11389,-0.02279l0.03508,-0.03081l0.46225,-0.2382l0.12624,-0.02967l0.01106,-0.0332l0.25445,-0.12056l0.24143,-0.14489l0.04086,0.01114l0.04545,-0.02154l0.49028,-0.09811l0.05024,0.00239l0.03343,-0.026l0.2786,0.04082l0.28125,0.01336l0.02782,0.03193l0.04976,0.0073l0.16618,0.06841l0.07901,0.02154l0.08902,0.04992l0.06174,-0.00883l0.19503,0.15283l0.21611,0.1212l0.01561,0.06038l0.08033,0.06295l0.05029,0.06464l0.00145,0.00145l0.28661,0.16074l0.01236,0.04778l0.04683,0.0156l0.2129,0.44931l0.18811,0.20688l-0.00291,0.04225l0.03003,0.04034l0.03104,0.07448l0.05487,0.04908l0.05729,0.08446l0.05917,0.01971l0.1061,0.22391l0.13909,0.20506l-0.01304,0.06098l0.0437,0.09223l0.01185,0.05923l0.06645,0.14024l0.09562,0.12845l0.18943,0.20832l-0.00291,0.04225l0.03003,0.04034l0.23415,0.56177l0.03732,0.03461l0.21016,0.32216l0.0774,0.22373l0.10137,0.21394l0.03232,0.1615l0.00938,0.00979l0.11209,0.19611l0.01328,0.04718l0.0311,0.03788l0.12611,0.26614l0.0302,0.15089l0.06589,0.13906l0.61672,3.08176l-0.0117,0.24633l0.04276,0.08549l-0.05401,0.15127l-0.00762,0.16043l-0.07207,0.06278l-0.08292,0.23225l-0.06278,0.09419l-0.02824,0.05906l-0.00285,0.02285l-0.10365,0.26786l-0.09657,0.2705l-0.01932,0.02898l-0.01295,0.03348l-0.01296,0.0054l-0.57102,0.85675l-0.00525,0.00478l-0.00175,0.02276l-0.23994,0.19701l-0.2297,0.20886l-0.02277,-0.00156l-0.00549,0.00451l-0.44751,0.21205l-0.65685,0.44199l-0.15377,0.11963l-0.00444,0.01332l-0.03244,0.01538l-0.02749,0.02139l-0.2627,0.11612l-0.25955,0.12298l-0.03415,0.00683l-0.03284,0.01452l-0.01298,-0.00535l-0.02852,0.00571l-0.30663,0.158l-0.16973,0.03989l-0.15756,0.07466l-0.03513,0.00703l-0.06684,0.06077l-0.03021,0.09068l-0.14515,0.06877l-0.11884,0.10806l-0.09536,-0.00656l-0.22285,0.10559l-1.00979,0.20208l-0.89692,0.24252l-1.04088,0.47561l-0.10712,0.0199l-0.09555,0.05235l-1.17666,0.30832l-0.03759,0.00042l-0.03397,0.0161l-0.82834,0.16577l-0.32577,0.20256l-0.21277,0.06846l-0.20199,0.09571l-2.45139,0.49057l-0.11349,-0.00539l-0.10973,0.02949l-0.79847,0.0141l-0.12326,-0.02852l-0.12628,0.00784l-0.14152,-0.02619l-0.04412,0.00883l-0.12436,-0.00591l-0.12078,0.03021l-0.36421,0.00004l-0.04879,-0.01219l-0.03788,0.01894l-0.13918,-0.0497c-0.07049,0.01726 -0.14544,0.03377 -0.22506,0.0497z" fill="#000000" stroke="none" stroke-width="0.5" stroke-linecap="butt"/><path d="M249.60918,188.45668c0.14187,-0.12358 0.15386,-0.34929 0.15793,-0.58102c0.80167,0.09767 2.47975,-0.34162 3.41465,-0.90102l0.23837,1.1967l-0.07706,0.16227l-0.0402,0.19831l-0.02106,0.05473l-0.30389,0.45889l-0.21957,0.10498l-0.07345,0.06078l-0.08931,0.03268l-0.77176,0.52391l-0.02956,0.03302l-0.04032,0.01802l-0.02756,0.02163l-0.14041,0.06729l-0.17002,0.0407l-0.30753,0.16028l-0.10874,0.02227l-0.13955,0.06694l-0.15129,0.03104l-0.26727,0.12828l-0.00553,0.00456l-0.02282,-0.00147l-0.23135,0.21161l-0.03291,0.02719l-0.64138,0.13215l-0.03876,0.01858l-0.04276,0.00107l-1.04579,0.28866l-0.09208,0.05154l-0.10348,0.01973l-0.12047,-0.05412c-0.03869,-0.15562 -0.03482,-0.21657 -0.09248,-0.35335c-0.26135,0.15006 -0.47848,0.28614 -0.60614,0.3946c-1.13268,0.96229 -4.18346,2.62458 -6.25916,2.05916c-0.35562,-0.52282 -1.24101,-0.88314 -1.41514,-1.34874c-0.56144,-1.50125 0.23531,-3.50446 -0.27981,-4.86955c-0.04341,-0.11506 -0.0958,-0.22789 -0.15954,-0.3337l1.28743,-0.26162l0.18194,-0.08715l0.19374,-0.05536l0.02005,-0.01157l0.36203,-0.07399l0.15131,-0.07257l0.16335,-0.03711l0.58109,-0.29419l1.8082,-0.37302l0.0485,-0.02318l0.05348,-0.00227l0.54948,-0.16093c0.23804,-0.19049 0.52314,-0.34831 0.8225,-0.45247c2.4391,-1.81228 6.24332,-2.69805 7.40888,-0.53786c-0.1164,-0.01496 -0.30691,0.03558 -0.39033,0.04968c-0.52591,0.08889 -7.29253,2.73605 -7.76963,4.07244c-0.43556,1.22002 0.24704,2.22151 1.51987,1.80749c0.77665,-0.25263 2.8236,-1.16305 3.36527,-1.63493z" data-paper-data="{&quot;noHover&quot;:false,&quot;origItem&quot;:[&quot;Path&quot;,{&quot;applyMatrix&quot;:true,&quot;segments&quot;:[[[249.46596,189.63867],[0,0],[-0.62373,0.35642]],[[245.78699,190.61474],[0.81112,-0.09532],[-1.32933,0.15621]],[[244.61221,188.49255],[-0.6665,1.11083],[0.73007,-1.21679]],[[253.12668,186.0092],[-0.53313,-0.01604],[0.08457,0.00254]],[[253.42513,186.07106],[-0.1112,-0.03751],[-0.719,-2.34691]],[[246.10389,185.17809],[2.7473,-1.29842],[-0.31398,0.04339]],[[245.22208,185.45796],[0.27079,-0.14008],[0,0]],[244.65907,185.50488],[244.60672,185.49633],[244.55526,185.50919],[242.72266,185.50919],[242.09844,185.67943],[241.93152,185.68298],[241.76955,185.72347],[241.40097,185.72347],[241.37912,185.73075],[241.17877,185.74616],[240.98383,185.79489],[[239.67195,185.79489],[0,0],[0.04174,0.11626]],[[239.7637,186.15145],[-0.01999,-0.12134],[0.23723,1.43963]],[[239.08319,190.94795],[-0.25593,-1.58223],[0.07938,0.49072]],[[240.2005,192.53646],[-0.24611,-0.58244],[1.92439,0.96174]],[[246.69301,191.72349],[-1.29949,0.72132],[0.14646,-0.0813]],[[247.35388,191.45839],[-0.28572,0.09586],[0.02969,0.14544]],[[247.40995,191.91678],[-0.0074,-0.16019],[0,0]],[247.48325,191.89953],[247.58733,191.90098],[247.6864,191.86907],[248.75783,191.79764],[248.7997,191.80519],[248.84098,191.79487],[249.49172,191.79487],[249.52902,191.77498],[249.79524,191.61525],[249.81726,191.62125],[249.82353,191.61791],[250.10924,191.54648],[250.26312,191.54648],[250.41241,191.50916],[250.52306,191.50916],[250.85473,191.4144],[251.02899,191.40859],[251.17939,191.37099],[251.21054,191.35541],[251.25349,191.34587],[251.28879,191.3196],[252.14593,190.96246],[252.23978,190.94829],[252.32353,190.90362],[252.55907,190.84474],[252.94602,190.45779],[252.9773,190.40864],[253.05528,190.22345],[253.16242,190.08059],[[253.16242,188.86888],[0,0],[-1.02649,0.36507]],[[249.73679,189.09159],[0.76692,0.25308],[-0.04946,0.22642]],[[249.46597,189.63866],[0.16336,-0.09334],[0,0]]],&quot;closed&quot;:true,&quot;fillColor&quot;:[0,0,0,1],&quot;strokeWidth&quot;:0.5}]}" fill="#ffffff" stroke="none" stroke-width="0.25" stroke-linecap="butt"/><path d="M234.67734,185.83458l-3.68317,0.44688" fill="none" stroke="#000000" stroke-width="3" stroke-linecap="round"/><path d="M237.52445,194.26102l2.28804,-0.16768" fill="none" stroke="#000000" stroke-width="3" stroke-linecap="round"/></g></g></svg>