<svg version="1.1" xmlns="http://www.w3.org/2000/svg" xmlns:xlink="http://www.w3.org/1999/xlink" width="20.03723" height="8.70862" viewBox="0,0,20.03723,8.70862"><g transform="translate(-236.21028,-185.12407)"><g data-paper-data="{&quot;isPaintingLayer&quot;:true}" fill-rule="nonzero" stroke="none" stroke-width="0.5" stroke-linecap="butt" stroke-linejoin="miter" stroke-miterlimit="10" stroke-dasharray="" stroke-dashoffset="0" style="mix-blend-mode: normal"><path d="" fill="#000000"/><path d="" fill="#000000"/><path d="" fill="#000000"/><path d="" fill="#000000"/><path d="" fill="#000000"/><path d="" fill="#b70000"/><path d="M246.13385,190.56541c-1.01685,0.4012 -2.05417,0.80757 -3.09271,1.13036c0.16521,0.5827 0.23968,1.07951 0.24277,1.48489c-0.2877,0.0645 -0.57795,0.12198 -0.87118,0.17131c0,0 -0.52688,0.09199 -0.89647,0.48071c-0.31031,-0.36338 -0.62569,-0.88498 -0.91316,-1.57427c-1.21658,0.16201 -2.41373,0.10968 -3.55958,-0.30379c-0.52438,-0.18922 -0.82029,-1.99792 -0.83325,-3.81621c0.87855,-0.04115 1.76623,-0.12259 2.65527,-0.23682c-0.2811,0.68177 -0.7039,1.46356 -0.19875,1.39041c2.29939,-0.33295 4.58058,-0.78197 6.86626,-1.19876c1.82088,-0.33204 10.26267,-4.70708 10.70131,-2.19461c0.31234,1.78901 -5.03142,2.97196 -6.57085,3.40056c-0.28463,0.07924 -0.57326,0.1687 -0.86534,0.2659c-0.00554,0.15031 -0.03822,0.29564 -0.094,0.43022c0.16883,0.38167 0.30275,0.79144 0.37819,1.19152c-0.81533,0.32141 -1.62568,0.6498 -2.44274,0.95561c-0.23425,-0.49424 -0.41915,-1.05999 -0.50578,-1.57704z" fill="#000000"/><path d="" fill="#000000"/></g></g></svg>