<svg version="1.1" xmlns="http://www.w3.org/2000/svg" xmlns:xlink="http://www.w3.org/1999/xlink" width="20.88092" height="19.08275" viewBox="0,0,20.88092,19.08275"><g transform="translate(-230.60519,-179.22047)"><g data-paper-data="{&quot;isPaintingLayer&quot;:true}" fill-rule="nonzero" stroke="none" stroke-linecap="butt" stroke-linejoin="miter" stroke-miterlimit="10" stroke-dasharray="" stroke-dashoffset="0" style="mix-blend-mode: normal"><path d="" fill="#000000" stroke-width="0.5"/><path d="" fill="#000000" stroke-width="0.5"/><path d="" fill="#000000" stroke-width="0.5"/><path d="" fill="#000000" stroke-width="0.5"/><path d="" fill="#000000" stroke-width="0.5"/><path d="" fill="#b70000" stroke-width="0.5"/><path d="M241.33773,187.06251c-0.34311,1.76718 -2.89948,2.59318 -2.85022,4.7368c0.01315,0.57212 0.3202,2.39083 0.15286,3.36551c0.331,0.38638 0.69254,0.75769 1.09664,1.13068c0.64183,0.59242 3.45079,-1.3962 4.00217,-1.68767c1.22623,-0.64821 2.19411,-1.70332 3.21007,-2.64758c0.74276,-0.69034 2.97989,-1.2836 2.5741,-2.83661c-0.17352,-0.66407 -0.68705,-1.18877 -1.00881,-1.79505c-0.79384,-1.49586 -1.48689,-2.86105 -2.53203,-4.03117c-0.85411,0.95164 -0.29714,2.21567 -1.34144,3.24144c-0.78172,0.76784 -2.08821,0.60348 -3.30014,0.21415c0.01749,0.09828 0.01763,0.20213 -0.00321,0.30951zM239.62682,186.27674c0.04206,-0.05209 0.08994,-0.10025 0.14329,-0.1434c-0.20896,-0.09408 -0.4008,-0.1835 -0.56969,-0.26157l-0.45631,0.00959c0,0 -0.53848,-0.05409 -0.76941,-0.48413c-0.49304,0.27235 -0.99806,0.52997 -1.51162,0.77022c0.12327,0.43418 -0.16312,0.83594 -0.16312,0.83594l-0.39002,0.37125c-0.13651,0.77894 -0.00078,1.59385 0.16773,2.3665c-0.08423,1.10012 0.14282,1.57523 0.56087,2.30883c0.22609,-2.29739 1.16579,-3.61999 2.98827,-5.77324zM242.23479,184.78904c0.35233,0.11221 0.88885,0.71314 1.04321,0.37713c0.60189,-1.31018 0.48413,-2.21242 1.3569,-3.21452c-0.28963,-0.39186 -0.55307,-0.84504 -0.98161,-0.79725c-1.57399,0.17555 -2.5057,2.0688 -3.62845,2.96737c0.69385,0.33261 1.47675,0.43376 2.20994,0.66727zM233.9869,187.16265c-0.73254,0.24635 -1.47097,0.45175 -2.2063,0.60923c0,0 -0.94608,0.20125 -1.14732,-0.74483c-0.20125,-0.94608 0.74483,-1.14732 0.74483,-1.14732c2.61114,-0.55135 5.11171,-1.79519 7.3728,-3.21944c1.48454,-0.9351 2.66636,-3.44703 4.8555,-3.4398c1.24596,0.00411 1.7834,0.94361 2.59618,1.61595c1.87898,1.55428 2.86657,3.41047 4.02074,5.58533c0.19442,0.36634 1.17579,2.19185 1.20787,2.38195c0.43454,2.57473 -1.81078,3.28282 -3.20679,4.61124c-1.51192,1.43872 -2.58535,2.37465 -4.52772,3.40543c-1.39884,0.74234 -3.31831,2.14139 -4.96802,1.12601c-0.48242,-0.29692 -0.6316,-0.95271 -1.04444,-1.3406c-1.07023,-1.00553 -1.56049,-1.446 -2.2819,-2.80541c-0.78715,-1.48325 -1.30935,-2.21483 -1.25317,-3.90748c-0.18528,-0.89211 -0.27821,-1.82632 -0.16225,-2.73025z" fill="#000000" stroke-width="0.5"/><path d="M239.99337,184.12873c1.12275,-0.89856 2.09888,-2.82831 3.67286,-3.00385c0.42854,-0.04779 0.70438,0.41497 0.994,0.80682c-0.87278,1.0021 -0.7679,1.95406 -1.36979,3.26424c-0.15435,0.33601 -0.71255,-0.26377 -1.06487,-0.37598c-0.73319,-0.23351 -1.53835,-0.35861 -2.2322,-0.69122z" data-paper-data="{&quot;noHover&quot;:false,&quot;origItem&quot;:[&quot;Path&quot;,{&quot;applyMatrix&quot;:true,&quot;segments&quot;:[[[253.33491,186.16567],[-0.83462,-0.85289],[0.40106,0.40984]],[[254.4898,187.44066],[-0.45571,0.34807],[1.77695,-1.3572]],[[258.68541,184.02364],[-1.92408,0.73826],[-0.11188,-0.74733]],[[257.92032,182.21794],[0.62178,0.24606],[-2.28375,-0.90376]],[[250.79269,183.64506],[2.19123,-0.4147],[0.70868,0.96004]]],&quot;closed&quot;:true,&quot;fillColor&quot;:[0,0,0,1],&quot;strokeWidth&quot;:0.5}]}" fill="#ffffff" stroke-width="0.25"/><path d="M236.62836,192.08056c-0.41804,-0.7336 -0.66076,-1.22003 -0.57653,-2.32014c-0.16851,-0.77265 -0.30676,-1.62219 -0.17025,-2.40113l0.39462,-0.37771c0,0 0.29328,-0.40745 0.17001,-0.84163c0.51356,-0.24024 1.03681,-0.5026 1.52985,-0.77495c0.23092,0.43004 0.77877,0.48595 0.77877,0.48595l0.46069,-0.00766c0.16889,0.07807 0.36636,0.17128 0.57532,0.26536c-0.05336,0.04315 -0.10138,0.09118 -0.14345,0.14327c-1.82248,2.15324 -2.79297,3.53123 -3.01905,5.82862z" data-paper-data="{&quot;noHover&quot;:false,&quot;origItem&quot;:[&quot;Path&quot;,{&quot;applyMatrix&quot;:true,&quot;segments&quot;:[[[248.68086,186.3077],[-4.06187,1.62475],[0.09549,-0.04078]],[[248.9814,186.21543],[-0.10446,0.02032],[-0.21784,-0.28079]],[[248.39115,185.44297],[0.17461,0.22972],[0,0]],[247.7591,185.12438],[[247.05707,183.90186],[0.00371,0.75697],[-0.87337,0.01465]],[[244.42645,183.85806],[0.87815,0.04424],[-0.14678,0.68437]],[243.5953,184.88461],[[242.79115,185.10964],[0,0],[-0.75326,0.9678]],[[241.30055,188.47334],[0.33085,-1.18092],[-0.91513,1.44577]],[[240.39042,192.04384],[-0.03936,-1.30883],[1.97983,-2.98275]]],&quot;closed&quot;:true,&quot;fillColor&quot;:[0,0,0,1],&quot;strokeWidth&quot;:0.5}]}" fill="#2b2b2b" stroke-width="0.25"/><path d="M244.90905,186.23441c0.82344,-0.57599 -0.12731,-3.41174 1.58112,-3.10261c0.64353,0.11645 4.48432,6.51853 3.36719,7.52405c-2.29839,2.06877 -5.01255,3.72846 -7.77298,5.23132c-0.15448,0.0841 -1.8216,1.10244 -2.17677,0.96616c-3.61366,-1.38649 -0.9363,-8.07679 0.81172,-9.9117l0.00859,-0.01204c0.08556,-0.12551 0.20202,-0.23266 0.34552,-0.30881c0.24086,-0.12782 0.51135,-0.14362 0.75175,-0.0657c0.96415,-0.02885 2.12725,0.34847 3.08387,-0.32069z" fill="#b70000" stroke-width="0.5"/></g></g></svg>