<svg version="1.1" xmlns="http://www.w3.org/2000/svg" xmlns:xlink="http://www.w3.org/1999/xlink" width="13.59579" height="19.3875" viewBox="0,0,13.59579,19.3875"><g transform="translate(-233.99895,-179.03803)"><g data-paper-data="{&quot;isPaintingLayer&quot;:true}" fill-rule="nonzero" stroke="none" stroke-linecap="butt" stroke-linejoin="miter" stroke-miterlimit="10" stroke-dasharray="" stroke-dashoffset="0" style="mix-blend-mode: normal"><path d="M238.31952,196.10633c-0.29853,-0.08203 -0.57198,-0.20558 -0.78888,-0.42272c-0.67984,-0.68061 -0.62126,-1.82697 -1.04975,-2.68826c-1.45872,-2.9321 -3.41234,-5.56576 -1.98423,-9.01784c1.38349,-3.34422 6.80495,-6.84214 9.90174,-3.73243c0.5092,0.51134 0.47011,1.36605 0.7565,2.02842c0.39121,0.90477 0.90493,1.75463 1.27435,2.66852c0.38788,0.95956 1.12255,3.58952 1.15921,4.59266c0.08082,2.21186 -0.62566,4.11058 -1.72441,5.94038c-0.41948,0.59334 -0.67002,1.35367 -1.25844,1.78003c-0.67173,0.48672 -1.56374,0.55427 -2.34561,0.83139l-1.56272,0.33905c-0.37195,-0.14779 -0.71532,-0.26816 -1.04099,-0.36685c0.00407,-0.18306 -0.02117,-0.36989 -0.07895,-0.55431c-0.20457,-0.65292 -0.76145,-1.09796 -1.39584,-1.19146c0.04063,-0.07542 0.08732,-0.1441 0.13802,-0.20658zM242.80161,188.46785l0.549,0.07782c-1.77843,-0.46632 -3.12079,-0.10407 -3.87393,1.60634c0,0 -0.2026,0.38749 -0.59846,0.64627c0.16925,0.29893 0.3228,0.58958 0.44481,0.87029c0.23019,0.52964 -0.01796,1.23748 0.32567,1.70161c0.06218,0.08398 0.15307,0.1098 0.25807,0.10708c-0.04207,0.1903 -0.10922,0.49769 -0.10829,0.51854c0.04395,0.97921 0.35533,1.12761 0.68645,0.88686c0.12519,0.44008 0.30051,0.95017 0.48456,0.98175c0.07772,0.01334 0.22613,-0.12386 0.38769,-0.31625l0.04712,0.08556c0.03456,0.06581 0.11223,0.09959 0.18568,0.07658c0.08265,-0.0259 0.12866,-0.1139 0.10277,-0.19655v0l-0.08938,-0.28526c0.07522,-0.10503 0.14697,-0.21166 0.2093,-0.31005c-0.00062,0.00943 -0.00133,0.01891 -0.0021,0.02845l-0.00001,0.00001c0.57947,-0.21645 1.12463,-0.62215 1.4052,-1.15249c0.82566,-1.24755 1.27959,-2.63564 1.23689,-4.19082c-0.00296,-0.10796 -0.02993,-0.27842 -0.0732,-0.48776c-0.94389,0.23 -1.57784,-0.64798 -1.57784,-0.64798zM237.8303,186.71464c1.48926,-1.40752 3.52684,-1.60052 5.39542,-1.36114c-0.38417,-1.04499 -0.71623,-2.1131 -1.23368,-3.0966c-0.34022,-0.64664 -1.4469,0.07141 -1.63616,0.18604c-0.94128,0.57008 -2.5262,1.79008 -3.00192,2.8284c-0.35059,0.76524 -0.32729,1.53612 -0.11225,2.29348c0.15636,-0.31471 0.33581,-0.61127 0.58859,-0.85018z" fill="#000000" stroke-width="0.5"/><path d="M237.85123,186.69127c-0.25278,0.23891 -0.47328,0.58289 -0.62964,0.89759c-0.21505,-0.75736 -0.24856,-1.54432 0.10204,-2.30955c0.47571,-1.03832 2.10022,-2.29628 3.04151,-2.86636c0.18925,-0.11463 1.30848,-0.82527 1.6487,-0.17863c0.51745,0.98351 0.85851,2.08017 1.24268,3.12516c-1.86856,-0.23937 -3.95786,-0.029 -5.44713,1.37852z" data-paper-data="{&quot;noHover&quot;:false,&quot;origItem&quot;:[&quot;Path&quot;,{&quot;applyMatrix&quot;:true,&quot;segments&quot;:[[[242.49277,181.96385],[0,0],[2.93628,-1.43129]],[[251.34891,182.46482],[-2.72834,-1.2547],[-0.08634,-1.77272]],[[250.94813,177.16634],[0.31839,1.74271],[-0.20934,-1.1458]],[[248.37056,176.66952],[0.34253,-0.08417],[-1.70356,0.41857]],[[242.45606,179.54128],[1.21852,-1.35274],[-0.89804,0.99696]],[[241.19221,182.97658],[0.03385,-1.25457],[0.38784,-0.40421]],[[242.49277,181.96384],[-0.49839,0.24294],[0,0]]],&quot;closed&quot;:true,&quot;fillColor&quot;:[0,0,0,1],&quot;strokeWidth&quot;:0.5}]}" fill="#2b2b2b" stroke-width="0.25"/><path d="M241.03434,195.55754c-0.01011,-0.00514 -0.12658,-0.42971 -0.18822,-0.64937c0.07964,0.08459 0.17474,0.14613 0.2764,0.18125c0.03449,0.05756 0.07068,0.11365 0.10808,0.16786c-0.03222,0.19909 -0.06412,0.36747 -0.19628,0.30025z" fill="#000000" stroke-width="0.5"/><path d="M240.32235,194.28357c0.0205,0.06459 0.05373,0.19704 0.0968,0.35908c-0.13325,0.10969 -0.2499,0.01203 -0.29431,-0.46668c0.0436,-0.03182 0.09863,-0.04699 0.15716,-0.05685c0.01346,0.06506 0.02739,0.12132 0.04037,0.16445z" fill="#000000" stroke-width="0.5"/><path d="M240.21159,193.52728c0.00279,0.1085 0.01267,0.22088 0.02636,0.32694c-0.04009,0.00881 -0.08109,0.01576 -0.1214,0.02374c0.01514,-0.11836 0.05998,-0.23402 0.09504,-0.3507z" fill="#000000" stroke-width="0.5"/><path d="M241.22849,193.67903l0.00561,0.00236l-0.01273,0.01866c-0.00439,0.03663 -0.0089,0.072 -0.01344,0.10628c-0.0043,-0.01159 -0.00865,-0.02314 -0.01305,-0.03462c0.01242,-0.03581 0.02417,-0.07174 0.03516,-0.10769c0.00122,0.00089 0.00243,0.00177 0.00365,0.00267z" fill="#000000" stroke-width="0.5"/><path d="M240.96916,196.03911c-0.17859,-0.09338 -0.32223,-0.1977 -0.43695,-0.30863c-1.48319,0.10387 -1.64361,-1.40042 -1.64361,-1.40042c-0.19656,-1.95306 -0.77887,-7.90397 3.27106,-7.25395c2.71439,0.43567 2.83594,1.87918 2.2764,3.21223c0.62445,0.04418 1.18777,0.46242 1.38626,1.09593c0.17965,0.57337 0.01325,1.17245 -0.38145,1.5721l-1.46168,1.53767l-0.25526,-0.24265c-0.11643,0.29722 -0.36497,0.56913 -0.50131,0.86255l-0.13702,0.26205c0,0 -0.72666,1.38978 -2.11644,0.66312z" fill="#b70000" stroke-width="0.5"/></g></g></svg>