<svg version="1.1" xmlns="http://www.w3.org/2000/svg" xmlns:xlink="http://www.w3.org/1999/xlink" width="18.92541" height="11.45345" viewBox="0,0,18.92541,11.45345"><g transform="translate(-227.38449,-181.10975)"><g data-paper-data="{&quot;isPaintingLayer&quot;:true}" fill="#000000" fill-rule="nonzero" stroke="none" stroke-width="0.5" stroke-linecap="butt" stroke-linejoin="miter" stroke-miterlimit="10" stroke-dasharray="" stroke-dashoffset="0" style="mix-blend-mode: normal"><path d="M244.8099,181.10975c1.5,0 1.5,1.5 1.5,1.5l-0.2869,1.63226c-2.91675,4.01023 -5.86433,6.0995 -10.79393,7.08861c0,0 -0.15094,0.03019 -0.36578,0.02287c0.00384,0.11695 0.01281,0.23007 0.02721,0.33896c-1.91054,0.44109 -3.99421,0.48037 -5.87118,0.84995c0,0 -1.33846,0.26231 -1.60077,-1.07615c-0.26231,-1.33846 1.07615,-1.60077 1.07615,-1.60077c1.59593,-0.3114 3.38847,-0.35108 5.05247,-0.66109c0.30821,-0.65845 1.09355,-0.81551 1.09355,-0.81551c4.20992,-0.83908 6.47967,-2.50608 8.95607,-5.91139l-0.2869,0.13226c0,0 0,-1.5 1.5,-1.5z"/></g></g></svg>