<svg version="1.1" xmlns="http://www.w3.org/2000/svg" xmlns:xlink="http://www.w3.org/1999/xlink" width="16.78014" height="15.08595" viewBox="0,0,16.78014,15.08595"><g transform="translate(-97.87814,-226.49999)"><g data-paper-data="{&quot;isPaintingLayer&quot;:true}" fill="#000000" fill-rule="nonzero" stroke-width="0.5" stroke-linecap="butt" stroke-linejoin="miter" stroke-miterlimit="10" stroke-dasharray="" stroke-dashoffset="0" style="mix-blend-mode: normal"><path d="M114.40828,235.65409c-0.26626,0.26486 -0.53112,-0.00139 -0.53112,-0.00139l-0.19854,-0.19958c-0.35357,-0.35543 -0.70665,-0.71136 -1.05922,-1.06777c-0.93103,-0.94867 -1.48094,-1.98423 -2.27809,-3.01414c-0.82121,-1.06099 -1.7872,-1.36139 -2.94913,-1.78347c-0.82868,-0.30102 -1.18345,-0.9866 -1.81376,-1.42221c-0.69088,-0.47747 -2.6334,-0.67017 -3.45287,-0.66442c0,0 -0.37556,0 -0.37556,-0.37556c0,-0.37556 0.37556,-0.37556 0.37556,-0.37556c0.98773,0.0059 3.0165,0.23354 3.87071,0.79137c0.60171,0.39294 0.87563,1.067 1.64902,1.33919c1.2964,0.45626 2.38503,0.86571 3.2896,2.0304c0.783,1.00814 1.30847,2.01888 2.21955,2.94722c0.35174,0.35556 0.70398,0.71064 1.0567,1.06522l0.19854,0.19958c0,0 0.26486,0.26626 -0.00139,0.53112z" stroke="#000000"/><path d="M112.11775,241.50375c-0.30871,-0.18523 -0.26177,-0.45936 -0.21129,-0.59834l-0.03833,-0.03978c-0.84894,-1.24004 -1.89761,-0.81164 -3.08447,-1.32868c-2.50842,-1.09274 -4.94491,-3.09109 -6.86221,-5.00839c-0.81262,-0.81262 -4.01006,-3.56009 -4.0427,-4.51465c-0.04851,-1.41893 2.83373,-3.10415 3.99625,-3.13891c0,0 0.5,0 0.5,0.5c0,0.5 -0.5,0.5 -0.5,0.5c-1.34454,-0.06366 -2.24368,1.49336 -3.00375,2.26109c-0.1421,0.14353 0.43202,0.00661 0.59177,0.1302c0.31347,0.24252 0.43915,0.67248 0.73958,0.93098c0.89721,0.772 1.58063,1.77885 2.42595,2.62417c1.8737,1.8737 4.1447,3.63676 6.53779,4.79161c1.26082,0.60845 2.24534,0.27289 3.23234,1.32861c0.65807,-1.62721 0.87632,-2.78468 0.87632,-4.66667c0,0 0,-0.5 0.5,-0.5c0.5,0 0.5,0.5 0.5,0.5c0,2.17011 -0.30599,3.55353 -1.15482,5.52763l-0.31643,0.52962c0,0 -0.25725,0.42875 -0.68599,0.1715z" stroke="none"/></g></g></svg>