<svg version="1.1" xmlns="http://www.w3.org/2000/svg" xmlns:xlink="http://www.w3.org/1999/xlink" width="13.26231" height="9.52146" viewBox="0,0,13.26231,9.52146"><g transform="translate(-101.49999,-226.49999)"><g data-paper-data="{&quot;isPaintingLayer&quot;:true}" fill="#000000" fill-rule="nonzero" stroke="#000000" stroke-width="0.5" stroke-linecap="butt" stroke-linejoin="miter" stroke-miterlimit="10" stroke-dasharray="" stroke-dashoffset="0" style="mix-blend-mode: normal"><path d="M114.40828,235.65409c-0.26626,0.26486 -0.53112,-0.00139 -0.53112,-0.00139l-0.19854,-0.19958c-0.35357,-0.35543 -0.70665,-0.71136 -1.05922,-1.06777c-0.93103,-0.94867 -1.48094,-1.98423 -2.27809,-3.01414c-0.82121,-1.06099 -1.7872,-1.36139 -2.94913,-1.78347c-0.82868,-0.30102 -1.18345,-0.9866 -1.81376,-1.42221c-0.69088,-0.47747 -2.6334,-0.67017 -3.45287,-0.66442c0,0 -0.37556,0 -0.37556,-0.37556c0,-0.37556 0.37556,-0.37556 0.37556,-0.37556c0.98773,0.0059 3.0165,0.23354 3.87071,0.79137c0.60171,0.39294 0.87563,1.067 1.64902,1.33919c1.2964,0.45626 2.38503,0.86571 3.2896,2.0304c0.783,1.00814 1.30847,2.01888 2.21955,2.94722c0.35174,0.35556 0.70398,0.71064 1.0567,1.06522l0.19854,0.19958c0,0 0.26486,0.26626 -0.00139,0.53112z"/></g></g></svg>