<svg version="1.1" xmlns="http://www.w3.org/2000/svg" xmlns:xlink="http://www.w3.org/1999/xlink" width="7.26031" height="15.49832" viewBox="0,0,7.26031,15.49832"><g transform="translate(-235.48479,-185.99681)"><g data-paper-data="{&quot;isPaintingLayer&quot;:true}" fill-rule="nonzero" stroke="none" stroke-linecap="butt" stroke-linejoin="miter" stroke-miterlimit="10" stroke-dasharray="" stroke-dashoffset="0" style="mix-blend-mode: normal"><path d="M237.70717,199.27774c-0.15933,-0.11072 -0.3048,-0.25096 -0.41902,-0.4577c-0.35798,-0.64802 -0.31523,-1.5582 -0.53659,-2.31321c-0.75358,-2.57028 -1.77558,-4.97587 -0.9754,-7.5282c0.77517,-2.47257 3.71798,-4.46016 5.34853,-1.50075c0.26811,0.48661 0.2387,1.16593 0.3858,1.74007c0.20092,0.78425 0.46813,1.54294 0.65728,2.33121c0.1986,0.82768 0.56675,3.04668 0.57651,3.8564c0.02153,1.78535 -0.3762,3.20109 -0.98367,4.50248c-0.23088,0.41248 -0.37279,0.98427 -0.69265,1.23744c-0.36515,0.28902 -0.84432,0.2088 -1.26648,0.3132l-0.84166,0.03643c-0.19808,-0.1745 -0.38107,-0.32272 -0.55481,-0.45089c0.00399,-0.14614 -0.00771,-0.29972 -0.03688,-0.45626c-0.10329,-0.55424 -0.39763,-0.9949 -0.73702,-1.16541c0.02254,-0.05434 0.04826,-0.10236 0.07608,-0.14481zM240.18695,193.82931l0.29374,0.14508c-0.94942,-0.64171 -1.67309,-0.55348 -2.09398,0.70425c0,0 -0.11251,0.28012 -0.32742,0.42796c0.08784,0.26513 0.16735,0.52127 0.23002,0.76468c0.11825,0.45927 -0.02185,0.98934 0.15791,1.41319c0.03253,0.07668 0.08103,0.11108 0.13738,0.12472c-0.02444,0.14622 -0.0635,0.38253 -0.06321,0.39939c0.01392,0.79162 0.17949,0.9575 0.35949,0.81436c0.06281,0.37166 0.15183,0.80699 0.25025,0.86002c0.04157,0.02241 0.12253,-0.06523 0.21109,-0.19513l0.02443,0.07568c0.01789,0.05796 0.05922,0.09674 0.09885,0.08935c0.04459,-0.00831 0.07015,-0.07192 0.05706,-0.14208v0l-0.04513,-0.24214c0.04139,-0.07287 0.08093,-0.14754 0.11534,-0.21703c-0.00043,0.00746 -0.0009,0.01496 -0.00141,0.02249l-0.00001,0.00001c0.31299,-0.08624 0.60944,-0.32936 0.76519,-0.71226c0.45524,-0.87575 0.71244,-1.92017 0.70488,-3.17335c-0.00052,-0.087 -0.01331,-0.22771 -0.03445,-0.40204c-0.50861,0.04221 -0.84002,-0.75712 -0.84002,-0.75712zM237.53744,191.67503c0.81279,-0.90405 1.90773,-0.75186 2.90775,-0.27852c-0.19577,-0.8956 -0.36335,-1.80188 -0.63123,-2.66827c-0.17612,-0.56963 -0.77688,-0.16069 -0.87954,-0.0973c-0.51057,0.31524 -1.37282,1.05455 -1.63826,1.81529c-0.19563,0.56066 -0.19073,1.18217 -0.08285,1.82171c0.08698,-0.22874 0.18617,-0.43945 0.32414,-0.5929z" fill="#000000" stroke-width="0.5"/><path d="M237.5552,191.65625c-0.13796,0.15345 -0.27133,0.40289 -0.35832,0.63163c-0.10788,-0.63954 -0.12215,-1.27933 0.07348,-1.83998c0.26544,-0.76073 1.15562,-1.52749 1.66618,-1.84272c0.10266,-0.06339 0.71507,-0.46844 0.89119,0.10119c0.26787,0.86639 0.4435,1.80836 0.63927,2.70397c-1.00001,-0.47334 -2.13455,-0.62059 -2.94734,0.28346z" data-paper-data="{&quot;noHover&quot;:false,&quot;origItem&quot;:[&quot;Path&quot;,{&quot;applyMatrix&quot;:true,&quot;segments&quot;:[[[239.45591,182.49686],[0,0],[1.57245,-1.749]],[[245.08133,181.95803],[-1.93465,-0.91574],[-0.37874,-1.73266]],[[243.86013,176.79591],[0.51824,1.67614],[-0.34074,-1.10203]],[[242.15854,176.60767],[0.19861,-0.12264],[-0.98776,0.60987]],[[238.98911,180.11958],[0.51352,-1.47174],[-0.37847,1.08466]],[[238.82882,183.64391],[-0.20871,-1.23728],[0.16828,-0.44253]],[[239.4559,182.49686],[-0.2669,0.29687],[0,0]]],&quot;closed&quot;:true,&quot;fillColor&quot;:[0,0,0,1],&quot;strokeWidth&quot;:0.5}]}" fill="#2b2b2b" stroke-width="0.25"/><path d="M239.16893,199.2467c-0.00538,-0.00565 -0.06366,-0.36355 -0.09456,-0.54892c0.04189,0.07981 0.0923,0.14346 0.14649,0.18693c0.01793,0.05134 0.0368,0.10175 0.05633,0.15085c-0.01925,0.15475 -0.03803,0.28493 -0.10825,0.21114z" fill="#000000" stroke-width="0.5"/><path d="M238.79957,198.11816c0.01036,0.05486 0.02688,0.16605 0.04838,0.30244c-0.07256,0.06786 -0.13418,-0.028 -0.15327,-0.41845c0.02371,-0.01894 0.05337,-0.02281 0.08487,-0.02191c0.00658,0.05418 0.01349,0.10139 0.02003,0.13792z" fill="#000000" stroke-width="0.5"/><path d="M238.74762,197.49519c0.00042,0.0874 0.00462,0.17898 0.01091,0.26608c-0.02159,0.00103 -0.04366,0.00042 -0.06536,0.00074c0.00929,-0.09261 0.03449,-0.17857 0.05444,-0.26682z" fill="#000000" stroke-width="0.5"/><path d="M239.29162,197.77001l0.00299,0.00274l-0.00701,0.01303c-0.00272,0.0287 -0.00548,0.05638 -0.00826,0.08317c-0.00219,-0.00995 -0.00441,-0.01986 -0.00666,-0.02972c0.00701,-0.02684 0.01367,-0.05387 0.01992,-0.08104c0.00065,0.00089 0.00129,0.00179 0.00193,0.00269z" fill="#000000" stroke-width="0.5"/><path d="M239.12921,199.62294c-0.09488,-0.10175 -0.17091,-0.20702 -0.23135,-0.31322c-0.79667,-0.14013 -0.86787,-1.37024 -0.86787,-1.37024c-0.08617,-1.59531 -0.3398,-6.45368 1.82633,-5.32257c1.45181,0.75811 1.50277,1.93364 1.18945,2.91802c0.33454,0.12947 0.6326,0.54962 0.73283,1.08737c0.09071,0.48672 -0.00446,0.94191 -0.22015,1.20285l-0.79928,1.01254l-0.13454,-0.23298c-0.06539,0.22073 -0.2014,0.40128 -0.27743,0.61597l-0.07609,0.18944c0,0 -0.40353,1.0047 -1.14189,0.21282z" fill="#b70000" stroke-width="0.5"/></g></g></svg>