<svg version="1.1" xmlns="http://www.w3.org/2000/svg" xmlns:xlink="http://www.w3.org/1999/xlink" width="20.96086" height="18.11553" viewBox="0,0,20.96086,18.11553"><g transform="translate(-235.30742,-179.72286)"><g data-paper-data="{&quot;isPaintingLayer&quot;:true}" fill-rule="nonzero" stroke="none" stroke-width="0.5" stroke-linecap="butt" stroke-linejoin="miter" stroke-miterlimit="10" stroke-dasharray="" stroke-dashoffset="0" style="mix-blend-mode: normal"><path d="" fill="#000000"/><path d="" fill="#000000"/><path d="" fill="#000000"/><path d="" fill="#000000"/><path d="" fill="#000000"/><path d="" fill="#b70000"/><path d="M245.60883,197.56724c-1.04642,1.04642 -7.40076,-1.16883 -7.86161,-2.68304c-1.2696,-4.17154 2.81745,-7.56388 0.45933,-11.69059c-0.14907,-0.08798 -0.27829,-0.20602 -0.37932,-0.34578c-1.21663,0.15923 -2.37155,-0.16454 -2.51233,-1.29073c-0.17125,-1.37002 2.64278,-1.96037 4.03064,-1.67632c1.80526,-0.29479 4.1711,-0.08663 4.28113,-0.08587c3.6614,0.02526 10.34495,1.82323 11.8735,5.75731c0.06223,0.08271 0.12026,0.17925 0.17311,0.29082c0.78103,1.64884 0.74709,5.5537 0.16607,6.93362c-1.42329,3.3803 -6.12463,5.19048 -10.22949,4.78954c-0.00035,0.00035 -0.00069,0.00069 -0.00104,0.00104zM247.3023,194.6726c5.29897,-0.40959 6.08432,-1.3209 6.14209,-6.65678c-2.55363,3.12844 -6.74359,-3.61736 -6.13724,-4.83007c-0.00126,-0.02297 -0.00189,-0.04611 -0.00189,-0.0694c0,-0.10261 0.01236,-0.20234 0.03569,-0.29777c-1.05956,-0.2605 -2.13463,-0.42163 -3.03234,-0.48846c-0.87337,-0.52632 -2.02154,-0.43037 -3.10795,-0.0016c-0.10006,-0.01575 -0.2019,-0.02611 -0.30524,-0.03077c0.2328,0.41687 0.40302,0.89734 0.48127,1.39003c0.40228,2.53275 -0.2494,4.41857 -0.76351,6.38737c-0.32852,0.45305 -0.52222,1.01022 -0.52222,1.61263c0,0.21427 0.02451,0.42281 0.07087,0.62299c-0.04111,0.34586 -0.06705,0.70098 -0.07268,1.0685c0.01197,-0.00173 0.024,-0.00329 0.03607,-0.00468c0.1046,-0.10384 0.21461,-0.21077 0.32919,-0.31955c0.12521,0.21809 0.27946,0.41738 0.45747,0.59261c0.23164,0.82359 1.20951,1.15787 2.40487,1.22349c0.03926,0.00608 0.0785,0.0122 0.1177,0.01836c0.00034,-0.00425 0.00068,-0.00849 0.00102,-0.01275c1.25687,0.05008 2.72995,-0.18229 3.82531,-0.44925c0.02165,0.07885 0.03577,0.16082 0.04153,0.24509zM251.36639,186.10405c0.01614,0.01714 0.37264,-0.12124 0.83306,-0.25757c-0.29484,-0.46045 -0.57251,-0.90241 -0.86445,-1.18559c-0.2844,-0.27587 -0.64029,-0.52649 -1.04555,-0.75246c0.27054,0.78439 0.55909,1.64571 1.07693,2.19563z" fill="#000000"/><path d="M247.26487,194.47734c-1.09536,0.26696 -2.59549,0.49392 -3.85236,0.44384c-0.00034,0.00425 -0.00065,0.00852 -0.00099,0.01276c-0.0392,-0.00617 -0.07912,-0.01264 -0.11838,-0.01872c-1.19536,-0.06562 -2.18695,-0.41071 -2.41859,-1.2343c-0.17801,-0.17523 -0.33526,-0.37824 -0.46047,-0.59632c-0.11458,0.10877 -0.14415,0.15629 -0.24875,0.26013c-0.01207,0.00139 -0.10437,0.06258 -0.11634,0.06431c0.00564,-0.36752 0.02863,-0.72709 0.06974,-1.07295c-0.04636,-0.20017 -0.07269,-0.41212 -0.07269,-0.62639c0,-0.60241 0.19033,-1.1686 0.51885,-1.62164c0.51411,-1.96879 1.17655,-3.90056 0.77427,-6.43331c-0.07825,-0.49269 -0.24551,-0.97625 -0.47831,-1.39312c0.10334,0.00466 0.20606,0.0142 0.30612,0.02995c1.08641,-0.42877 2.24959,-0.53416 3.12296,-0.00784c0.89771,0.06683 1.99656,0.2246 3.05612,0.4851c-0.02333,0.09543 -0.03574,0.19516 -0.03574,0.29777c0,0.02329 0.00071,0.04644 0.00197,0.06941c-0.60635,1.21271 3.62839,8.00515 6.18202,4.87671c-0.05777,5.33588 -0.88875,6.3001 -6.18772,6.70969c-0.00577,-0.08427 -0.02006,-0.16622 -0.0417,-0.24508z" data-paper-data="{&quot;noHover&quot;:false,&quot;origItem&quot;:[&quot;Path&quot;,{&quot;applyMatrix&quot;:true,&quot;segments&quot;:[[[247.3023,194.6726],[-0.00577,-0.08427],[5.29897,-0.40959]],[[253.44439,188.01582],[-0.05777,5.33588],[-2.55363,3.12844]],[[247.30715,183.18575],[-0.60635,1.21271],[-0.00126,-0.02297]],[[247.30526,183.11635],[0,0.02329],[0,-0.10261]],[[247.34095,182.81858],[-0.02333,0.09543],[-1.05956,-0.2605]],[[244.30861,182.33012],[0.89771,0.06683],[-0.87337,-0.52632]],[[241.20066,182.32852],[1.08641,-0.42877],[-0.10006,-0.01575]],[[240.89542,182.29775],[0.10334,0.00466],[0.2328,0.41687]],[[241.37669,183.68778],[-0.07825,-0.49269],[0.40228,2.53275]],[[240.61318,190.07515],[0.51411,-1.96879],[-0.32852,0.45305]],[[240.09096,191.68778],[0,-0.60241],[0,0.21427]],[[240.16183,192.31077],[-0.04636,-0.20017],[-0.04111,0.34586]],[[240.08915,193.37927],[0.00564,-0.36752],[0.01197,-0.00173]],[[240.12522,193.37459],[-0.01207,0.00139],[0.1046,-0.10384]],[[240.4544,193.05504],[-0.11458,0.10877],[0.12521,0.21809]],[[240.91187,193.64765],[-0.17801,-0.17523],[0.23164,0.82359]],[[243.31674,194.87115],[-1.19536,-0.06562],[0.03926,0.00608]],[[243.43444,194.88951],[-0.0392,-0.00617],[0.00034,-0.00425]],[[243.43545,194.87676],[-0.00034,0.00425],[1.25687,0.05008]],[[247.26076,194.42751],[-1.09536,0.26696],[0.02165,0.07885]]],&quot;closed&quot;:true}]}" fill="#b70000"/></g></g></svg>