<svg version="1.1" xmlns="http://www.w3.org/2000/svg" xmlns:xlink="http://www.w3.org/1999/xlink" width="20.42863" height="13.72107" viewBox="0,0,20.42863,13.72107"><g transform="translate(-235.23382,-181.21676)"><g data-paper-data="{&quot;isPaintingLayer&quot;:true}" fill-rule="nonzero" stroke="none" stroke-linecap="butt" stroke-linejoin="miter" stroke-miterlimit="10" stroke-dasharray="" stroke-dashoffset="0" style="mix-blend-mode: normal"><path d="" fill="#000000" stroke-width="0.5"/><path d="" fill="#000000" stroke-width="0.5"/><path d="" fill="#000000" stroke-width="0.5"/><path d="" fill="#000000" stroke-width="0.5"/><path d="" fill="#000000" stroke-width="0.5"/><path d="" fill="#b70000" stroke-width="0.5"/><path d="M243.30615,191.52282c-0.31198,0.10912 -0.83217,0.49168 -1.41073,0.91496h1.57602l0.35919,-0.1347l0.22207,-0.02538l0.21684,-0.05421h0.22644c-0.47856,-0.45672 -0.90916,-0.79883 -1.18982,-0.70067zM249.37313,185.74962c0.49733,-0.25365 0.7671,-0.856 1.02197,-1.46823l-0.05414,0.01354h-0.25369l-0.20678,0.03446l-0.45776,0.17166l-0.08827,0.01009l-0.07947,0.03973l-0.55724,0.12383l-0.48931,0.18349l-0.10146,0.0116l-0.09229,0.04372l-0.19,0.038c0.50376,0.46341 0.96076,1.09784 1.54845,0.79811zM246.13511,186.97933c-0.36843,-0.21744 -0.61558,-0.61849 -0.61558,-1.07727c0,-0.16406 0.03161,-0.32074 0.08907,-0.46429h-0.14421l-0.80533,0.06711l-0.05235,-0.00855l-0.05146,0.01286h-1.8326l-0.62422,0.17024l-0.16692,0.00355l-0.16197,0.04049h-0.36858l-0.02185,0.00728l-0.20035,0.01541l-0.19494,0.04873h-1.89778l0.25598,0.9386l-0.23097,0.38495l-0.02008,0.08033v3.03396l0.19631,0.49078l0.02377,0.17429l0.05943,0.16556l0.00534,0.05343c1.99558,-2.65217 7.86994,-2.75622 8.03412,0.8l0.0733,-0.01725l0.10408,0.00145l0.09907,-0.03191l1.07143,-0.07143l0.04187,0.00755l0.04128,-0.01032h0.65074l0.0373,-0.01989l0.26622,-0.15973l0.02202,0.006l0.00627,-0.00334l0.28571,-0.07143h0.15388l0.14929,-0.03732h0.11065l0.33167,-0.09476l0.17426,-0.00581l0.1504,-0.0376l0.03115,-0.01558l0.04295,-0.00954l0.0353,-0.02627l0.85714,-0.35714l0.09385,-0.01417l0.08375,-0.04467l0.23554,-0.05888l0.38695,-0.38695l0.03128,-0.04915l0.07798,-0.18519l0.10714,-0.14286v-2.52469l-0.02246,-0.08985l-0.02535,-0.07604l-0.01022,-0.00584l-0.00871,-0.03483l-0.01558,-0.03115l-0.06231,-0.28038l-0.06966,-0.27864v-0.03483l-0.00779,-0.03505l0.00779,-0.01168v-0.10628l-0.03414,-0.08536l-0.04818,-0.09635l-0.03622,-0.16298l-0.07147,-0.15089l-0.09212,-0.46059l-0.00769,-0.01442c-1.35279,2.32814 -4.65558,4.64685 -6.52317,1.37856zM235.23382,184.40206c0,-0.69036 0.55964,-1.25 1.25,-1.25c0.02329,0 0.04643,0.00064 0.0694,0.00189l0.01727,-0.00864l0.03534,0.01262c0.16433,0.01592 0.31935,0.06366 0.45882,0.13698h3.71632l0.02185,-0.00728l0.20035,-0.01541l0.19494,-0.04873h0.40403l0.62422,-0.17024l0.16692,-0.00355l0.16197,-0.04049h1.94801l0.80533,-0.06711l0.05235,0.00855l0.05146,-0.01286h0.21429l0.10225,-0.02556l0.10732,-0.06439l0.02258,-0.03951l0.15582,-0.03895l0.13773,-0.08264l0.09222,0.02515l0.23924,-0.05981h0.20326l0.42214,-0.10554h0.03048l0.02755,-0.01305l0.25803,-0.05161l0.47679,-0.17879l0.08827,-0.01009l0.07947,-0.03973l0.55724,-0.12383l0.48931,-0.18349l0.12137,-0.01387l0.11203,-0.04871l0.42857,-0.07143l0.02142,0.00171l0.03168,-0.0288l0.0274,-0.04796l0.03496,-0.00874l0.02667,-0.02424l0.05511,0.0038l0.50826,-0.12707h0.11615l0.04044,-0.02333l0.5,-0.14286l0.12961,-0.00432l0.01736,-0.03038l0.27316,-0.06829l0.26517,-0.0947l0.03788,0.01894l0.04879,-0.0122h0.5l0.04879,0.0122l0.03788,-0.01894l0.26517,0.0947l0.27316,0.06829l0.02101,0.03677l0.04736,0.01692l0.14953,0.09969l0.07325,0.03663l0.07749,0.06642l0.06227,0.00346l0.16125,0.18813l0.18813,0.16125l0.00346,0.06227l0.06642,0.07749l0.03663,0.07325l0.00114,0.00171l0.2495,0.21386l0.00274,0.04928l0.04286,0.02449l0.12059,0.48235l0.14386,0.23977l-0.01114,0.04086l0.02153,0.04545l0.01582,0.07912l0.04417,0.05889l0.0396,0.09406l0.05415,0.03094l0.0601,0.24038l0.09615,0.22837l-0.02475,0.05724l0.02475,0.09901v0.0604l0.03764,0.15055l0.06855,0.14472l0.14487,0.24144l-0.01114,0.04086l0.02153,0.04545l0.11936,0.59679l0.0298,0.04126l0.14286,0.35714l0.03199,0.23457l0.05742,0.22967v0.1647l0.00728,0.01144l0.07143,0.21429l0.00376,0.04887l0.02306,0.04325l0.07143,0.28571v0.15388l0.03732,0.14929v3.14286l-0.05981,0.23924l0.02515,0.09222l-0.08264,0.13773l-0.03895,0.15582l-0.08299,0.04742l-0.12688,0.21146l-0.08004,0.08004l-0.03928,0.05237l-0.00728,0.02185l-0.1542,0.24231l-0.14777,0.24629l-0.02463,0.02463l-0.01927,0.03029l-0.01377,0.00275l-0.72804,0.72804l-0.00609,0.00366l-0.00618,0.02197l-0.27394,0.1461l-0.26622,0.15973l-0.02202,-0.006l-0.00627,0.00334l-0.48042,0.12011l-0.73081,0.3045l-0.17426,0.08713l-0.00697,0.01219l-0.03483,0.00871l-0.03115,0.01558l-0.28038,0.06231l-0.27864,0.06966h-0.03483l-0.03505,0.00779l-0.01168,-0.00779h-0.02909l-0.33167,0.09476l-0.17426,0.00581l-0.16915,0.04229h-0.03583l-0.07746,0.04647l-0.04742,0.08299l-0.15582,0.03895l-0.13773,0.08264l-0.09222,-0.02515l-0.23924,0.05981h-1.02981l-0.92707,0.0618l-1.11397,0.26211l-0.10894,-0.00151l-0.10396,0.03258l-1.21429,0.07143l-0.03694,-0.00696l-0.03647,0.00912h-0.84476l-0.35919,0.1347l-0.22207,0.02538l-0.21684,0.05421h-2.5l-0.11023,-0.02756l-0.11338,0.00739l-0.78571,-0.14286l-0.11527,-0.05215l-0.12536,-0.01709l-0.13363,-0.05345h-0.04499l-0.12078,-0.0302l-0.12436,0.00592l-0.35714,-0.07143l-0.04545,-0.02153l-0.04086,0.01114l-0.24144,-0.14487l-0.25446,-0.12054l-0.01339,-0.04018l-0.04313,-0.02588l-0.03405,-0.03405l-0.22519,-0.13511l-0.17014,-0.17014l-0.18674,-0.15173l-0.42857,-0.57143l-0.03065,-0.0728l-0.05465,-0.05703l-0.22117,-0.38705l-0.00537,-0.0024l-0.00676,-0.01884l-0.05241,-0.09171l-0.07051,-0.25069l-0.08799,-0.2451l-0.01051,-0.10511l-0.00542,-0.01927l0.00299,-0.00507l-0.0409,-0.40903l-0.22009,-0.55024l-0.03199,-0.23457l-0.05742,-0.22967v-3.42857l0.03732,-0.14929v-0.15388l0.07143,-0.28571l0.02306,-0.04325l0.00376,-0.04887l0.04564,-0.13691l-0.00369,-0.01355l0.01847,-0.03079l0.01101,-0.03304l0.1542,-0.24231l0.06744,-0.1124h-0.3215l-0.04879,-0.0122l-0.03788,0.01894l-0.26517,-0.0947l-0.27316,-0.06829l-0.02101,-0.03677l-0.04736,-0.01692l-0.19815,-0.1321c-0.17758,-0.11469 -0.32423,-0.27316 -0.42467,-0.46015l-0.02482,-0.0273l0.00129,-0.01876c-0.07981,-0.16462 -0.12456,-0.34939 -0.12456,-0.54461z" fill="#000000" stroke-width="0.5"/><path d="M246.13545,186.92931c1.86759,3.26829 5.12482,1.02088 6.47761,-1.30726l0.09821,-0.02808l0.09338,0.46353l0.07188,0.15198l0.03661,0.16408l0.04842,0.09706l0.03433,0.08597l0.00021,0.10696l-0.00777,0.01174l0.00786,0.03529l0.00006,0.03506l0.07017,0.2806l0.06274,0.28236l0.01562,0.03138l0.00876,0.03508l0.01023,0.00589l0.02545,0.07659l0.02257,0.09049l-0.00034,2.54233l-0.10737,0.14397l-0.0783,0.18655l-0.03138,0.04953l-0.38795,0.39028l-0.23587,0.05982l-0.08393,0.04518l-0.09398,0.0145l-0.85937,0.36217l-0.03546,0.02657l-0.04306,0.00976l-0.03127,0.0158l-0.15084,0.03841l-0.17467,0.00652l-0.33291,0.09678l-0.11097,0.00049l-0.14992,0.03825l-0.1544,0.00073l-0.28715,0.07333l-0.00631,0.00339l-0.02208,-0.00592l-0.26827,0.16214l-0.03759,0.02021l-0.65458,0.00373l-0.04163,0.01062l-0.04212,-0.00734l-1.0817,0.07813l-0.10039,0.03253l-0.10531,-0.00091l-0.07429,0.01765c-0.16418,-3.55622 -6.10401,-3.48165 -8.09959,-0.82948l-0.00546,-0.05377l-0.05982,-0.16672l-0.02413,-0.17545l-0.19723,-0.49432l-0.00011,-3.05504l0.0202,-0.08089l0.23171,-0.38788l-0.25419,-0.94377l1.90044,-0.00551l0.19554,-0.04977l0.20089,-0.01629l0.02193,-0.00741l0.36959,-0.00156l0.16266,-0.04148l0.16751,-0.00435l0.62773,-0.17445l1.847,-0.01073l0.05212,-0.01318l0.05291,0.00829l0.81632,-0.07071l0.16205,0.09837c-0.05746,0.14355 -0.08628,0.29971 -0.08628,0.46377c0,0.45878 0.23683,0.76098 0.60526,0.97842z" data-paper-data="{&quot;noHover&quot;:false,&quot;origItem&quot;:[&quot;Path&quot;,{&quot;applyMatrix&quot;:true,&quot;segments&quot;:[[[246.13511,186.97933],[0,0],[-0.36843,-0.21744]],[[245.51953,185.90206],[0,0.45878],[0,-0.16406]],[[245.6086,185.43777],[-0.05746,0.14355],[0,0]],[245.46439,185.43777],[244.65906,185.50488],[244.60671,185.49633],[244.55525,185.50919],[242.72265,185.50919],[242.09843,185.67943],[241.93151,185.68298],[241.76954,185.72347],[241.40096,185.72347],[241.37911,185.73075],[241.17876,185.74616],[240.98382,185.79489],[239.08604,185.79489],[239.34202,186.73349],[239.11105,187.11844],[239.09097,187.19877],[239.09097,190.23273],[239.28728,190.72351],[239.31105,190.8978],[239.37048,191.06336],[[239.37582,191.11679],[0,0],[1.99558,-2.65217]],[[247.40994,191.91679],[-0.16418,-3.55622],[0,0]],[247.48324,191.89954],[247.58732,191.90099],[247.68639,191.86908],[248.75782,191.79765],[248.79969,191.8052],[248.84097,191.79488],[249.49171,191.79488],[249.52901,191.77499],[249.79523,191.61526],[249.81725,191.62126],[249.82352,191.61792],[250.10923,191.54649],[250.26311,191.54649],[250.4124,191.50917],[250.52305,191.50917],[250.85472,191.41441],[251.02898,191.4086],[251.17938,191.371],[251.21053,191.35542],[251.25348,191.34588],[251.28878,191.31961],[252.14592,190.96247],[252.23977,190.9483],[252.32352,190.90363],[252.55906,190.84475],[252.94601,190.4578],[252.97729,190.40865],[253.05527,190.22346],[253.16241,190.0806],[253.16241,187.55591],[253.13995,187.46606],[253.1146,187.39002],[253.10438,187.38418],[253.09567,187.34935],[253.08009,187.3182],[253.01778,187.03782],[252.94812,186.75918],[252.94812,186.72435],[252.94033,186.6893],[252.94812,186.67762],[252.94812,186.57134],[252.91398,186.48598],[252.8658,186.38963],[252.82958,186.22665],[252.75811,186.07576],[252.66599,185.61517],[[252.6583,185.60075],[0,0],[-1.35279,2.32814]],[[246.13513,186.97931],[1.86759,3.26829],[0,0]]],&quot;closed&quot;:true,&quot;fillColor&quot;:[0,0,0,1],&quot;strokeWidth&quot;:0.5}]}" fill="#b70000" stroke-width="0.25"/></g></g></svg>