<svg version="1.1" xmlns="http://www.w3.org/2000/svg" xmlns:xlink="http://www.w3.org/1999/xlink" width="23.22209" height="12.00482" viewBox="0,0,23.22209,12.00482"><g transform="translate(-233.86888,-179.86304)"><g data-paper-data="{&quot;isPaintingLayer&quot;:true}" fill-rule="nonzero" stroke="none" stroke-linecap="butt" stroke-linejoin="miter" stroke-miterlimit="10" stroke-dasharray="" stroke-dashoffset="0" style="mix-blend-mode: normal"><path d="" fill="#000000" stroke-width="0.5"/><path d="" fill="#000000" stroke-width="0.5"/><path d="" fill="#000000" stroke-width="0.5"/><path d="" fill="#000000" stroke-width="0.5"/><path d="" fill="#000000" stroke-width="0.5"/><path d="" fill="#b70000" stroke-width="0.5"/><path d="M235.35545,187.07773l-0.01604,0.01069l-0.03696,-0.00821c-0.01094,0.00028 -0.02191,0.00043 -0.03292,0.00043c-0.20995,0 -0.4078,-0.05176 -0.58151,-0.14321l-0.12037,-0.06018l-0.48914,-0.41926l-0.01692,-0.3046c-0.00487,-0.01828 -0.00934,-0.03672 -0.01339,-0.05532l-0.17932,-0.26898l0.13975,-0.62889l0.21429,-0.42857l0.10982,-0.12812l0.0791,-0.14906l0.64286,-0.71429l0.02792,-0.01881l0.01732,-0.02887l0.32771,-0.32771l0.47259,-0.54011l0.08176,-0.05678l0.05873,-0.08037l0.42857,-0.35714l0.02954,-0.01426l0.02069,-0.02546l0.28571,-0.21429l0.10472,-0.04409l0.08627,-0.07394l0.52849,-0.26425l0.27317,-0.1639l0.45938,-0.32813l0.17373,-0.06844l0.15753,-0.10025l0.39372,-0.13124l0.68018,-0.27207l0.11458,-0.01562l0.10451,-0.04951l0.63797,-0.12759l0.73399,-0.24466l0.31836,-0.13644l0.00125,-0.00218l0.00923,-0.00231l0.12337,-0.05287l0.24835,-0.04006l0.24405,-0.06101h0.13423l0.00939,-0.00151l0.00201,0.00151h0.70513l0.49421,-0.06178l0.07841,0.0095l0.07663,-0.01916h3.01142l0.00452,-0.00332l0.01896,0.00332h0.10796l0.2519,0.06298l0.25577,0.04476l0.09865,0.04385l0.01867,0.00467l0.00278,0.00487l0.42355,0.18825l0.13198,0.03299l0.37933,0.06322l0.13816,0.06007l0.14874,0.02399l0.38037,0.16302l0.10815,0.02163h0.09051l0.00689,0.00172l0.0199,-0.01117l0.29701,0.09039l0.30119,0.0753l0.01132,0.01982l0.0068,0.00207l0.31598,0.18959l0.2629,0.13145l0.43831,0.10958l0.12147,0.06478l0.13438,0.02986l0.42857,0.21429l0.03721,0.0319l0.04689,0.01427l0.17148,0.10289l0.14483,0.02897l0.1816,0.08602l0.19343,0.0544l0.5,0.28571l0.03177,0.03044l0.04144,0.0148l0.14953,0.09969l0.35897,0.17948l0.04593,0.03937l0.05755,0.01866l0.57143,0.35714l0.0131,0.01359l0.01778,0.00635l0.21429,0.14286l0.08375,0.09212l0.10676,0.06406l0.07085,0.07085l0.10428,0.05214l0.15256,0.13077l0.1723,0.10338l0.12676,0.12676l0.1113,0.0742l0.16509,0.1816l0.1816,0.16509l0.04721,0.07081l0.36908,0.31635l0.00411,0.00579l0.02238,0.00448l0.16668,0.26192l0.17968,0.25318l-0.0043,0.02241l0.00381,0.00599l0.04334,0.13001l0.24599,0.49197l0.01151,0.05178l0.03106,0.043l0.14286,0.35714l0.03199,0.23457l0.05742,0.22967v0.44765l0.04715,0.23577l-0.00592,0.12436l0.0302,0.12078v1l-0.04424,0.17697l-0.00848,0.18222l-0.21429,0.71429l-0.07583,0.12754l0.00529,0.07664l-0.14701,0.16171l-0.11169,0.18785l-0.07484,0.01734l-0.09981,0.10979l-0.62384,0.41589l-0.13809,0.11836l-0.16125,0.18813l-0.06227,0.00346l-0.07749,0.06642l-0.28571,0.14286l-0.06704,0.0149l-0.03667,0.03667l-0.21146,0.12688l-0.04742,0.08299l-0.15582,0.03895l-0.13773,0.08264l-0.09222,-0.02515l-0.23924,0.05981h-0.35075l-0.31908,0.03988l-0.20393,0.0874l-0.00125,0.00218l-0.00923,0.00231l-0.12337,0.05287l-0.24835,0.04006l-0.24405,0.06101h-0.13423l-0.00939,0.00151l-0.00201,-0.00151h-6.49724l-0.19494,-0.04873l-0.20035,-0.01541l-0.23613,-0.07871h-0.1543l-0.12078,-0.0302l-0.12436,0.00592l-0.64959,-0.12992l-0.01477,0.00584l-0.03406,-0.01561l-0.01587,-0.00317l-0.26707,-0.12651l-0.26865,-0.12313l-0.01264,-0.01011l-0.00357,-0.00169h-0.06007l-0.08728,-0.02182l-0.08949,0.00926l-0.5,-0.07143l-0.18609,-0.07581l-0.19615,-0.04359l-0.14286,-0.07143l-0.05136,-0.04402l-0.02017,-0.00822l-0.00152,-0.00384l-0.00844,-0.00302l-0.15044,-0.02149l-0.01001,0.005l-0.03002,-0.01072l-0.06008,-0.00858l-0.25614,-0.10435l-0.26046,-0.09302l-0.0505,-0.03367l-0.02952,-0.01203l-0.00412,-0.0104l-0.27967,-0.18645l-0.09338,-0.04669l-0.1526,-0.03815l-0.16311,-0.08699l-0.17684,-0.05382l-0.31598,-0.18959l-0.24278,-0.12139l-0.15256,-0.13077l-0.1723,-0.10338l-0.30819,-0.30819l-0.30308,-0.24247l-0.09608,-0.12611l-0.12305,-0.09998l-0.16098,-0.21465l-0.2229,-0.2229l-0.02522,-0.04203l-0.03997,-0.02837l-0.42857,-0.5l-0.07407,-0.14814l-0.07061,-0.04035l-0.05043,-0.20174l-0.093,-0.18599l0.0188,-0.05263l-0.06777,-0.11295l-0.04008,-0.1317l-0.07391,-0.11614l-0.07143,-0.21429l-0.01541,-0.20035l-0.04873,-0.19494v-1.27523l-0.02356,0.02693l-0.03495,0.02427l-0.02189,0.03648l-0.3339,0.3339l-0.37286,0.41429c-0.03027,0.63365 -0.53234,1.14367 -1.16264,1.18645zM239.80525,186.07964l0.10758,0.1793l0.00207,0.0068l0.01982,0.01132l0.06868,0.27471l0.18397,0.21463l0.25177,0.25177l0.04629,0.07715l0.06983,0.05673l0.11907,0.15876l0.23323,0.18658l0.04266,0.05599l0.06036,0.03621l0.21371,0.21371l0.10428,0.05214l0.03721,0.0319l0.04689,0.01427l0.19764,0.11859l0.10526,0.02632l0.12147,0.06478l0.13438,0.02986l0.28571,0.14286l0.05997,0.0514l0.07439,0.02657l0.19266,0.12844l0.1192,0.01703l0.01001,-0.005l0.03002,0.01072l0.06008,0.00858l0.25614,0.10435l0.26046,0.09302l0.0505,0.03367l0.02952,0.01203l0.00228,0.00575l0.1703,0.02433h0.41117l0.12815,0.03204l0.06707,-0.02655l0.20791,0.09529l0.22188,0.05547l0.03579,0.06263l0.12008,0.05504l0.11965,0.09572l0.29468,0.05894h0.23337l0.19494,0.04873l0.20035,0.01541l0.23613,0.07871h6.18344l0.26417,-0.11322l0.17348,-0.02798l0.16387,-0.06344l0.57143,-0.07143l0.07841,0.0095l0.07663,-0.01916h0.01164l0.23593,-0.15014l0.03304,-0.01101l0.03079,-0.01847l0.01355,0.00369l0.03441,-0.01147l0.15616,-0.18218l0.01913,-0.00106l0.46885,-0.31257l0.03222,-0.10739v-0.69276l-0.04715,-0.23577l0.00592,-0.12436l-0.0302,-0.12078v-0.3307l-0.03414,-0.08536l-0.26246,-0.52492l-0.0066,-0.0297l-0.26028,-0.2231l-0.09944,-0.14012l-0.12713,-0.11558l-0.00418,-0.00627l-0.00627,-0.00418l-0.08375,-0.09212l-0.10676,-0.06406l-0.07085,-0.07085l-0.10428,-0.05214l-0.15256,-0.13077l-0.1723,-0.10338l-0.12676,-0.12676l-0.09601,-0.064l-0.50548,-0.31593l-0.37545,-0.18773l-0.05997,-0.0514l-0.07439,-0.02657l-0.17846,-0.11898l-0.2865,-0.16371l-0.15823,-0.03165l-0.19333,-0.09158l-0.20465,-0.06228l-0.31598,-0.18959l-0.2629,-0.13145l-0.43831,-0.10958l-0.12147,-0.06478l-0.13438,-0.02986l-0.42857,-0.21429l-0.03721,-0.0319l-0.04689,-0.01427l-0.10606,-0.06364l-0.0674,0.00321l-0.35714,-0.07143l-0.11817,-0.05597l-0.12909,-0.02082l-0.36161,-0.15498l-0.28006,-0.04668l-0.04672,-0.02031h-0.05095l-0.28571,-0.07143l-0.09663,-0.05154l-0.10787,-0.01888l-0.40045,-0.17798h-2.79977l-0.49421,0.06178l-0.07841,-0.0095l-0.07663,0.01916h-0.672l-0.26417,0.11322l-0.05237,0.00845l-0.04475,0.02848l-0.85714,0.28571l-0.07876,0.00606l-0.07138,0.03381l-0.43131,0.08626l0.02719,0.39424l-0.43336,0.4767l-0.44338,0.29558z" fill="#000000" stroke-width="0.5"/><path d="M239.75657,184.15508l0.44405,-0.29817l0.43467,-0.48064l-0.02624,-0.39657l0.43209,-0.08795l0.07158,-0.03422l0.07889,-0.00633l0.85976,-0.2903l0.04497,-0.02881l0.05253,-0.0087l0.26534,-0.11491l0.67428,-0.00292l0.07702,-0.01962l0.07869,0.00918l0.49683,-0.06454l2.82597,-0.01348l0.40587,0.17732l0.10948,0.0188l0.09809,0.05151l0.29018,0.07161l0.05174,0.00007l0.04748,0.02039l0.28447,0.04739l0.36757,0.15661l0.13101,0.02152l0.12009,0.05676l0.36206,0.0739l0.06815,-0.00277l0.10766,0.06464l0.04749,0.01466l0.03782,0.03232l0.43405,0.21868l0.13562,0.03105l0.12278,0.06613l0.44157,0.11343l0.26486,0.13421l0.31809,0.19308l0.20549,0.06388l0.19417,0.09332l0.15866,0.03261l0.28754,0.16632l0.17905,0.12067l0.07454,0.02704l0.06017,0.05205l0.37617,0.19038l0.50622,0.3196l0.09612,0.06467l0.12693,0.12797l0.17242,0.1044l0.15267,0.13195l0.10432,0.05262l0.07089,0.07145l0.10679,0.0646l0.08378,0.09285l0.00627,0.00421l0.00418,0.00632l0.12715,0.11648l0.09944,0.14117l0.26024,0.22467l0.00659,0.02991l0.26218,0.52841l0.03407,0.0859l-0.00032,0.33289l0.03007,0.12153l-0.00608,0.12517l0.04684,0.2372l-0.00117,0.69694l-0.03245,0.10807l-0.46991,0.31538l-0.01915,0.00111l-0.15677,0.1836l-0.03448,0.01162l-0.01356,-0.00368l-0.03087,0.01865l-0.03311,0.01116l-0.23665,0.15163l-0.01166,0.00003l-0.0768,0.01949l-0.0785,-0.00933l-0.57264,0.07362l-0.16442,0.06436l-0.17396,0.02875l-0.26525,0.11483l-6.24014,0.01892l-0.23929,-0.07987l-0.20268,-0.01643l-0.19726,-0.04989l-0.23566,-0.0013l-0.29763,-0.06086l-0.12119,-0.09684l-0.12133,-0.05602l-0.03643,-0.06316l-0.22375,-0.05712l-0.20976,-0.09709l-0.06729,0.02632l-0.12903,-0.03298l-0.41311,-0.00226l-0.17111,-0.02537l-0.00232,-0.0058l-0.02969,-0.01226l-0.05086,-0.03415l-0.26178,-0.09491l-0.25734,-0.10623l-0.06027,-0.0089l-0.03014,-0.01092l-0.01001,0.00499l-0.11955,-0.01764l-0.19357,-0.13012l-0.07463,-0.02704l-0.06027,-0.05199l-0.28664,-0.14488l-0.13465,-0.0305l-0.12181,-0.06562l-0.10545,-0.02681l-0.19815,-0.11998l-0.04697,-0.01449l-0.03732,-0.03222l-0.10449,-0.05277l-0.21431,-0.21572l-0.06046,-0.03659l-0.04279,-0.05647l-0.23365,-0.18832l-0.11934,-0.16007l-0.06992,-0.05723l-0.0464,-0.07775l-0.25207,-0.2538l-0.18415,-0.21625l-0.06883,-0.27663l-0.01982,-0.01141l-0.00207,-0.00685l-0.10763,-0.18055z" data-paper-data="{&quot;noHover&quot;:false,&quot;origItem&quot;:[&quot;Path&quot;,{&quot;applyMatrix&quot;:true,&quot;segments&quot;:[[239.80525,186.07964],[239.91283,186.25894],[239.9149,186.26574],[239.93472,186.27706],[240.0034,186.55177],[240.18737,186.7664],[240.43914,187.01817],[240.48543,187.09532],[240.55526,187.15205],[240.67433,187.31081],[240.90756,187.49739],[240.95022,187.55338],[241.01058,187.58959],[241.22429,187.8033],[241.32857,187.85544],[241.36578,187.88734],[241.41267,187.90161],[241.61031,188.0202],[241.71557,188.04652],[241.83704,188.1113],[241.97142,188.14116],[242.25713,188.28402],[242.3171,188.33542],[242.39149,188.36199],[242.58415,188.49043],[242.70335,188.50746],[242.71336,188.50246],[242.74338,188.51318],[242.80346,188.52176],[243.0596,188.62611],[243.32006,188.71913],[243.37056,188.7528],[243.40008,188.76483],[243.40236,188.77058],[243.57266,188.79491],[243.98383,188.79491],[244.11198,188.82695],[244.17905,188.8004],[244.38696,188.89569],[244.60884,188.95116],[244.64463,189.01379],[244.76471,189.06883],[244.88436,189.16455],[245.17904,189.22349],[245.41241,189.22349],[245.60735,189.27222],[245.8077,189.28763],[246.04383,189.36634],[252.22727,189.36634],[252.49144,189.25312],[252.66492,189.22514],[252.82879,189.1617],[253.40022,189.09027],[253.47863,189.09977],[253.55526,189.08061],[253.5669,189.08061],[253.80283,188.93047],[253.83587,188.91946],[253.86666,188.90099],[253.88021,188.90468],[253.91462,188.89321],[254.07078,188.71103],[254.08991,188.70997],[254.55876,188.3974],[254.59098,188.29001],[254.59098,187.59725],[254.54383,187.36148],[254.54975,187.23712],[254.51955,187.11634],[254.51955,186.78564],[254.48541,186.70028],[254.22295,186.17536],[254.21635,186.14566],[253.95607,185.92256],[253.85663,185.78244],[253.7295,185.66686],[253.72532,185.66059],[253.71905,185.65641],[253.6353,185.56429],[253.52854,185.50023],[253.45769,185.42938],[253.35341,185.37724],[253.20085,185.24647],[253.02855,185.14309],[252.90179,185.01633],[252.80578,184.95233],[252.3003,184.6364],[251.92485,184.44867],[251.86488,184.39727],[251.79049,184.3707],[251.61203,184.25172],[251.32553,184.08801],[251.1673,184.05636],[250.97397,183.96478],[250.76932,183.9025],[250.45334,183.71291],[250.19044,183.58146],[249.75213,183.47188],[249.63066,183.4071],[249.49628,183.37724],[249.06771,183.16295],[249.0305,183.13105],[248.98361,183.11678],[248.87755,183.05314],[248.81015,183.05635],[248.45301,182.98492],[248.33484,182.92895],[248.20575,182.90813],[247.84414,182.75315],[247.56408,182.70647],[247.51736,182.68616],[247.46641,182.68616],[247.1807,182.61473],[247.08407,182.56319],[246.9762,182.54431],[246.57575,182.36633],[243.77598,182.36633],[243.28177,182.42811],[243.20336,182.41861],[243.12673,182.43777],[242.45473,182.43777],[242.19056,182.55099],[242.13819,182.55944],[242.09344,182.58792],[241.2363,182.87363],[241.15754,182.87969],[241.08616,182.9135],[240.65485,182.99976],[240.68204,183.394],[240.24868,183.8707],[239.8053,184.16628]],&quot;closed&quot;:true,&quot;fillColor&quot;:[0,0,0,1],&quot;strokeWidth&quot;:0.5}]}" fill="#b70000" stroke-width="0.25"/></g></g></svg>