<svg version="1.1" xmlns="http://www.w3.org/2000/svg" xmlns:xlink="http://www.w3.org/1999/xlink" width="19.08719" height="17.6959" viewBox="0,0,19.08719,17.6959"><g transform="translate(-236.90546,-182.14393)"><g data-paper-data="{&quot;isPaintingLayer&quot;:true}" fill-rule="nonzero" stroke="none" stroke-width="0.5" stroke-linecap="butt" stroke-linejoin="miter" stroke-miterlimit="10" stroke-dasharray="" stroke-dashoffset="0" style="mix-blend-mode: normal"><path d="" fill="#000000"/><path d="" fill="#000000"/><path d="" fill="#000000"/><path d="" fill="#000000"/><path d="" fill="#000000"/><path d="" fill="#b70000"/><path d="M238.07406,186.98529c-0.4289,0 -0.80384,-0.23106 -1.00711,-0.5755l-0.01541,-0.0088l-0.00837,-0.03345c-0.08788,-0.16412 -0.13771,-0.35166 -0.13771,-0.55085v-0.16695l0.03441,-0.13763l-0.02539,-0.0681l0.08798,-0.18224l0.04908,-0.19632l0.0631,-0.03606l0.06168,-0.12776l0.27824,-0.33388l0.09581,-0.07001l0.07192,-0.09439l0.2277,-0.18216l0.26757,-0.26757l0.00414,-0.01689l0.26777,-0.15448l0.26509,-0.15905l0.01678,0.00457l0.25715,-0.07347l0.34804,-0.17402l0.02167,-0.00481l0.01737,-0.01381l0.55153,-0.2507l0.22116,-0.1327l0.04384,-0.01334l0.03479,-0.02982l0.82216,-0.41108l0.00651,-0.0114l0.03256,-0.00814l0.02912,-0.01456l0.26212,-0.05825l0.2605,-0.06512h0.03256l0.03277,-0.00728l0.01092,0.00728h0.09307l0.01894,-0.00947l0.00651,-0.0114l0.03256,-0.00814l0.02912,-0.01456l0.26212,-0.05825l0.2605,-0.06512h0.03256l0.03277,-0.00728l0.01092,0.00728h0.10528l0.23849,-0.03975l0.09736,0.00779l0.09476,-0.02369h1.2799l0.03859,0.00964l0.03915,-0.00706l0.83472,0.05565l0.13219,0.04257l0.13864,0.00804l0.72014,0.22504h0.43378l0.03859,0.00964l0.03915,-0.00706l0.83472,0.05565l0.18781,0.06048l0.19479,0.03142l0.16907,0.07245h0.31661l0.18225,0.04556l0.13112,0.01009h0.07616l0.09256,0.02314l0.05351,-0.02314l0.2135,0.08989l0.22473,0.05619l0.02893,0.05062l0.08793,0.03702l0.01053,0.0079l0.01832,0.00366l0.11744,0.05563l0.128,0.0224l0.50083,0.22259l0.02144,0.01675l0.02656,0.00591l0.55304,0.27651l0.09814,0.02453l0.16125,0.086l0.082,-0.00566l0.13144,0.11949l0.15673,0.08359l0.0208,0.07396l0.12182,0.04799l0.77907,0.55648l0.08542,0.10027l0.10877,0.07428l0.31543,0.35486l0.01585,0.00566l0.1064,0.07094l0.15752,0.07876l0.14263,0.12225l0.16108,0.09665l0.2655,0.2655l0.2955,0.21107l0.13842,0.09228l0.01789,0.001l0.19674,0.22953l0.10676,0.11744l0.03401,0.0204l0.10949,0.10949l0.07455,0.01491l0.10437,0.16401l0.13747,0.13747l-0.00162,0.07601l0.08313,0.13063l0.10446,0.31336l0.31528,0.84075l0.37697,0.86164l0.03493,0.20662l0.06144,0.20035l0.05565,1.0573l-0.00601,0.03089l0.00763,0.03053v2.2259l-0.0131,0.05242l0.0083,0.05339l-0.05565,0.61212l-0.05587,0.16015l-0.02292,0.16806l-0.08909,0.22274l-0.07294,0.25531l-0.02422,0.16952l0.00043,0.00077l-0.00102,0.00336l-0.01955,0.13686l-0.08736,0.21445l-0.06742,0.22153l-0.04003,0.06672l-0.02505,0.20041l-0.00543,0.01402l0.00932,0.02354l-0.11857,0.25871l-0.10274,0.2654l-0.02337,0.00974l-0.00626,0.01366l-0.16568,0.2071l-0.17739,0.31043l-0.05109,0.05331l-0.02865,0.06806l-0.16695,0.22259l-0.06528,0.05304l-0.04328,0.07213l-0.14077,0.14077l-0.15841,0.23761l-0.08613,0.0783l-0.05989,0.09981l-1.11295,1.11295l-0.13384,0.08031l-0.11269,0.10799l-0.32637,0.18649l-0.16438,0.12329l-0.0306,0.01289l-0.02234,0.02457l-0.33388,0.22259l-0.03874,0.01384l-0.0297,0.02846l-0.38953,0.22259l-0.11205,0.03151l-0.09819,0.06249l-0.16695,0.05565l-0.1873,0.0144l-0.18225,0.04556h-6.23253l-0.0816,-0.0204l-0.08366,0.00866l-0.38953,-0.05565l-0.05682,-0.02315h-0.06135l-0.22259,-0.05565l-0.15249,-0.08133l-0.16533,-0.05032l-0.26758,-0.16055l-0.36595,-0.20912l-0.71045,-0.38255l-0.04142,-0.03774l-0.05277,-0.01885l-0.33388,-0.22259l-0.0783,-0.08613l-0.09981,-0.05989l-0.33388,-0.33388l-0.05989,-0.09981l-0.08613,-0.0783l-0.1113,-0.16695l-0.04111,-0.11511l-0.07157,-0.0991l-0.05902,-0.14755l-0.19643,-0.27499l-0.03398,-0.08624l-0.06032,-0.07038l-0.23112,-0.46223l-0.06736,-0.08981l-0.01403,-0.00519l-0.01399,-0.03218l-0.00834,-0.01112l-0.10743,-0.25515l-0.11039,-0.25389l-0.00228,-0.0137l-0.01362,-0.03234l0.00594,-0.01373l-0.04054,-0.24326l-0.2158,-0.97112l0.00033,-0.01278l-0.00547,-0.01155l-0.1113,-0.55648l0.00302,-0.06342l-0.02092,-0.05996l-0.05565,-0.61212l0.0083,-0.05339l-0.0131,-0.05242v-3.3945l0.01372,-0.05487l-0.00845,-0.05592l0.10603,-1.11333v-0.16707l0.03489,-0.13956v-0.14386l0.22259,-0.89036l0.02156,-0.04043l0.00351,-0.04568l0.19847,-0.59543l-0.00345,-0.01266l0.01727,-0.02878l0.0103,-0.03089l0.14416,-0.22654l0.13815,-0.23025l0.02302,-0.02302l0.01802,-0.02832l0.00117,-0.00023l0.09128,-0.18256l0.06098,-0.18293l-0.34802,0.174l-0.1068,0.02374l-0.09477,0.05467l-0.09837,0.02811l-0.11977,0.11977l-0.05643,0.03386l-0.03988,0.05235l-0.16185,0.12948c-0.02301,0.08137 -0.0546,0.15915 -0.09376,0.23226l-0.00837,0.03345l-0.01541,0.0088c-0.20328,0.34443 -0.57822,0.5755 -1.00711,0.5755zM241.46856,191.05369v1.99983l0.04519,0.49716l0.09661,0.48308l0.21989,0.98952l-0.00084,0.03202l0.01277,0.02937l0.00996,0.05975l0.03603,0.08557l0.06913,0.08065l0.23723,0.47447l0.22495,0.31492l0.05162,0.13105l0.08246,0.11418l0.05931,0.14827l0.15665,0.15665l0.19185,0.12789l0.67499,0.36346l0.01119,0.01019l0.01457,0.0041l0.38953,0.22259l0.00922,0.00884l0.01222,0.00372l0.12805,0.07683l0.24412,0.03487h5.90871l0.18252,-0.1043l0.27341,-0.18227l0.19664,-0.14748l0.06806,-0.02865l0.05331,-0.05109l0.25366,-0.14495l0.92047,-0.92047l0.15841,-0.23761l0.08613,-0.0783l0.05989,-0.09981l0.16387,-0.16387l0.07346,-0.09794l0.18649,-0.32637l0.06373,-0.0665l0.03838,-0.08373l0.01392,-0.0174l-0.00059,-0.00105l0.00486,-0.01597l0.01299,-0.10392l0.08719,-0.22524l0.07032,-0.23106l0.04553,-0.07588l0.02227,-0.15591l0.03052,-0.07492l0.0027,-0.08085l0.1113,-0.38953l0.0304,-0.0527l0.00822,-0.06028l0.04795,-0.11988l0.03541,-0.38948v-2.14216l-0.04286,-0.81437l-0.30434,-0.69564l-0.00535,-0.03165l-0.01822,-0.02643l-0.32803,-0.87474l-0.13364,-0.15591l-0.19468,-0.19468l0.00019,-0.00876l-0.32007,-0.22862l-0.06334,-0.07435l-0.08375,-0.05025l-0.19979,-0.19979l-0.05298,-0.02649l-0.05607,-0.04806l-0.06954,-0.02484l-0.1064,-0.07094l-0.04622,-0.02311l-0.16804,-0.14403l-0.18277,-0.12481l-0.3579,-0.40264l-0.52917,-0.37798l-0.00024,-0.00008l-0.09372,-0.05965l-0.06342,0.00437l-0.164,-0.14909l-0.10814,-0.06881l-0.05767,-0.01282l-0.64403,-0.32201l-0.16907,-0.07514c0.00011,0.00655 0.00016,0.01312 0.00016,0.01969c0,0.04635 -0.0027,0.09209 -0.00795,0.13703c-1.06833,-0.64154 -2.80203,-0.9405 -4.26366,-0.81271c0.07447,-0.04177 0.1468,-0.08128 0.21667,-0.11839l-0.1678,-0.05245l-0.65747,-0.04383h-0.70411l-0.07549,0.3397l0.00704,0.02582l-0.02029,0.03383l-0.01503,0.06762l-0.03151,0.063c-0.85852,0.34041 -1.36686,0.94146 -1.12198,1.83932l-0.01687,0.07594c-0.26071,0.5504 -0.49089,2.38395 -0.38831,4.17052c-0.12532,0.01598 -0.24946,0.00157 -0.37692,-0.04322z" fill="#000000"/><path d="M241.80653,191.09763c-0.10258,-1.78657 0.13557,-3.64447 0.39629,-4.19487l0.01712,-0.07626c-0.24487,-0.89787 0.27184,-1.50686 1.13036,-1.84728l0.03177,-0.0632l0.01525,-0.06777l0.02045,-0.03394l-0.007,-0.02584l0.07657,-0.3404l0.70688,-0.00157l0.66032,0.04251l0.19703,0.12466c-0.06986,0.03711 -0.17201,0.00465 -0.24648,0.04642c1.46163,-0.1278 3.22129,0.16935 4.28963,0.81089c0.00525,-0.04494 -0.01271,-0.01556 -0.01271,-0.06191c0,-0.00658 0.02038,-0.08832 0.02027,-0.09487l0.17024,0.07548l0.64855,0.3237l0.05803,0.01298l0.10892,0.06918l0.1653,0.14975l0.06374,-0.0042l0.09438,0.06001l0.00024,0.00008l0.5329,0.3804l0.36075,0.40495l0.18388,0.12585l0.16911,0.14512l0.04646,0.02335l0.10698,0.07157l0.06984,0.02516l0.0564,0.04843l0.05322,0.02677l0.20098,0.20127l0.08412,0.05073l0.06372,0.07488l0.32142,0.23064l-0.00016,0.0088l0.19556,0.19617l0.13426,0.15705l0.33037,0.88026l0.01828,0.02661l0.00541,0.03185l0.30554,0.70027l0.04351,0.81949l-0.0015,2.15539l-0.03613,0.39169l-0.04822,0.12062l-0.00835,0.06061l-0.03053,0.05303l-0.11227,0.39175l-0.00289,0.08125l-0.03074,0.07535l-0.02268,0.15669l-0.04578,0.07634l-0.07101,0.23226l-0.08792,0.22641l-0.01329,0.10437l-0.00492,0.01605l0.00059,0.00105l-0.01399,0.01751l-0.03867,0.08416l-0.06403,0.06693l-0.18779,0.32807l-0.0739,0.09849l-0.16474,0.16487l-0.06033,0.10029l-0.08659,0.07878l-0.15954,0.23874l-0.92617,0.925l-0.25504,0.14581l-0.05365,0.05129l-0.06841,0.02886l-0.19784,0.14812l-0.27503,0.18307l-0.18357,0.10477l-5.94087,-0.00066l-0.24524,-0.03543l-0.12875,-0.07721l-0.01229,-0.00376l-0.00928,-0.00887l-0.3916,-0.2238l-0.01463,-0.00414l-0.01126,-0.01023l-0.67827,-0.3658l-0.19278,-0.12866l-0.15752,-0.15741l-0.05987,-0.14879l-0.08299,-0.11469l-0.05211,-0.13153l-0.22637,-0.31643l-0.23903,-0.47664l-0.06948,-0.08112l-0.03633,-0.08597l-0.01014,-0.06l-0.01287,-0.02951l0.00076,-0.03214l-0.22271,-0.99421l-0.0978,-0.48562l-0.04621,-0.49986l-0.00205,-2.01192c0.12746,0.0448 0.2516,0.05952 0.37692,0.04354z" data-paper-data="{&quot;noHover&quot;:false,&quot;origItem&quot;:[&quot;Path&quot;,{&quot;applyMatrix&quot;:true,&quot;segments&quot;:[[[241.05525,190.83851],[0.1636,0.0575],[0,0]],[241.05525,193.40547],[241.11326,194.04362],[241.23727,194.66369],[241.51952,195.93383],[241.51844,195.97493],[241.53483,196.01263],[241.54761,196.08933],[241.59386,196.19917],[241.68259,196.30269],[241.9871,196.91171],[242.27584,197.31594],[242.3421,197.48415],[242.44795,197.63071],[242.52408,197.82103],[242.72515,198.0221],[242.9714,198.18626],[243.83781,198.65279],[243.85217,198.66587],[243.87087,198.67113],[244.37087,198.95684],[244.38271,198.96819],[244.3984,198.97297],[244.56276,199.07159],[244.87611,199.11635],[252.46045,199.11635],[252.69473,198.98247],[253.04567,198.74851],[253.29808,198.55921],[253.38544,198.52243],[253.45387,198.45685],[253.77946,198.2708],[254.96096,197.0893],[255.16429,196.78431],[255.27484,196.68381],[255.35171,196.5557],[255.56205,196.34536],[255.65634,196.21964],[255.89572,195.80072],[255.97752,195.71536],[256.02678,195.60788],[256.04465,195.58554],[256.04389,195.58419],[256.05012,195.56369],[256.0668,195.4303],[256.1787,195.14119],[256.26896,194.84461],[256.32741,194.74721],[256.356,194.54708],[256.39518,194.45091],[256.39864,194.34713],[256.5415,193.84713],[256.58052,193.77949],[256.59107,193.70212],[256.65262,193.54824],[256.69807,193.04831],[256.69807,190.29866],[256.64304,189.25335],[256.25239,188.36044],[256.24553,188.31981],[256.22213,188.28589],[255.80109,187.16309],[255.62955,186.96296],[255.37966,186.71307],[255.3799,186.70183],[254.96906,186.40837],[254.88776,186.31293],[254.78026,186.24843],[254.52381,185.99198],[254.45581,185.95798],[254.38384,185.89629],[254.29458,185.86441],[254.158,185.77335],[254.09867,185.74369],[253.88298,185.55881],[253.64838,185.3986],[253.18899,184.88178],[252.50975,184.39661],[252.50944,184.39651],[252.38914,184.31995],[252.30774,184.32556],[252.09723,184.13419],[251.95842,184.04586],[251.88439,184.02941],[251.05772,183.61608],[[250.84071,183.51963],[0,0],[0.00014,0.00841]],[[250.84092,183.54491],[0,-0.00844],[0,0.0595]],[[250.83071,183.7208],[0.00674,-0.05769],[-1.3713,-0.82347]],[[245.35793,182.67762],[1.87613,-0.16404],[0.09559,-0.05362]],[[245.63604,182.52566],[-0.08967,0.04763],[0,0]],[245.42066,182.45834],[244.57674,182.40208],[243.67295,182.40208],[243.57605,182.83812],[243.58509,182.87126],[243.55904,182.91468],[243.53975,183.00148],[[243.49931,183.08235],[0,0],[-1.10198,0.43695]],[[242.05915,185.44328],[-0.31431,-1.15249],[0,0]],[[242.03748,185.54076],[0,0],[-0.33465,0.70649]],[[241.53905,190.89399],[-0.13167,-2.29322],[-0.16086,0.02051]]],&quot;closed&quot;:true}]}" fill="#b70000"/></g></g></svg>