<svg version="1.1" xmlns="http://www.w3.org/2000/svg" xmlns:xlink="http://www.w3.org/1999/xlink" width="25.57026" height="13.72107" viewBox="0,0,25.57026,13.72107"><g transform="translate(-230.09219,-181.21676)"><g data-paper-data="{&quot;isPaintingLayer&quot;:true}" fill-rule="nonzero" stroke-linejoin="miter" stroke-miterlimit="10" stroke-dasharray="" stroke-dashoffset="0" style="mix-blend-mode: normal"><path d="" fill="#000000" stroke="none" stroke-width="0.5" stroke-linecap="butt"/><path d="" fill="#000000" stroke="none" stroke-width="0.5" stroke-linecap="butt"/><path d="" fill="#000000" stroke="none" stroke-width="0.5" stroke-linecap="butt"/><path d="" fill="#000000" stroke="none" stroke-width="0.5" stroke-linecap="butt"/><path d="" fill="#000000" stroke="none" stroke-width="0.5" stroke-linecap="butt"/><path d="" fill="#b70000" stroke="none" stroke-width="0.5" stroke-linecap="butt"/><path d="M249.46596,189.63867c-0.62373,0.35642 -2.86785,0.88075 -3.67897,0.97607c-1.32933,0.15621 -1.84128,-1.01136 -1.17478,-2.12219c0.73007,-1.21679 7.98134,-2.49939 8.51447,-2.48335c0.08457,0.00254 0.18725,0.02435 0.29845,0.06186c-0.719,-2.34691 -4.57394,-2.19139 -7.32124,-0.89297c-0.31398,0.04339 -0.61102,0.13979 -0.88181,0.27987l-0.56301,0.04692l-0.05235,-0.00855l-0.05146,0.01286h-1.8326l-0.62422,0.17024l-0.16692,0.00355l-0.16197,0.04049h-0.36858l-0.02185,0.00728l-0.20035,0.01541l-0.19494,0.04873h-1.31188c0.04174,0.11626 0.07176,0.23522 0.09175,0.35656c0.23723,1.43963 -0.93644,3.21427 -0.68051,4.7965c0.07938,0.49072 0.8712,1.00607 1.11731,1.58851c1.92439,0.96174 5.19302,-0.09165 6.49251,-0.81297c0.14646,-0.0813 0.37515,-0.16924 0.66087,-0.2651c0.02969,0.14544 0.04867,0.2982 0.05607,0.45839l0.0733,-0.01725l0.10408,0.00145l0.09907,-0.03191l1.07143,-0.07143l0.04187,0.00755l0.04128,-0.01032h0.65074l0.0373,-0.01989l0.26622,-0.15973l0.02202,0.006l0.00627,-0.00334l0.28571,-0.07143h0.15388l0.14929,-0.03732h0.11065l0.33167,-0.09476l0.17426,-0.00581l0.1504,-0.0376l0.03115,-0.01558l0.04295,-0.00954l0.0353,-0.02627l0.85714,-0.35714l0.09385,-0.01417l0.08375,-0.04467l0.23554,-0.05888l0.38695,-0.38695l0.03128,-0.04915l0.07798,-0.18519l0.10714,-0.14286v-1.21171c-1.02649,0.36507 -2.65871,0.47579 -3.42563,0.22271c-0.04946,0.22642 -0.10746,0.45373 -0.27082,0.54707zM238.72379,194.47455c-0.91339,0 -1.42902,-0.93984 -1.68816,-2.22162l-0.0813,-0.22647l-0.01051,-0.10511l-0.00542,-0.01927l0.00299,-0.00507l-0.0409,-0.40903l-0.22009,-0.55024l-0.03199,-0.23457l-0.05742,-0.22967v-3.42857l0.03732,-0.14929v-0.15388l0.07143,-0.28571l0.02306,-0.04325l0.00376,-0.04887l0.04564,-0.13691l-0.00369,-0.01355l0.01847,-0.03079l0.01101,-0.03304l0.1542,-0.24231l0.06744,-0.1124h-0.3215l-0.04879,-0.0122l-0.03788,0.01894l-0.26517,-0.0947l-0.27316,-0.06829l-0.02101,-0.03677l-0.04736,-0.01692l-0.19815,-0.1321c-0.17758,-0.11469 -0.32423,-0.27316 -0.42467,-0.46015l-0.02482,-0.0273l0.00129,-0.01876c-0.07981,-0.16462 -0.12456,-0.34939 -0.12456,-0.54461l-0.00003,-0.00001c0,-0.69036 0.55964,-1.25 1.25,-1.25c0.02329,0 0.04643,0.00064 0.0694,0.00189l0.01727,-0.00864l0.03534,0.01262c0.16433,0.01592 0.31935,0.06366 0.45882,0.13698h3.71632l0.02185,-0.00728l0.20035,-0.01541l0.19494,-0.04873h0.40403l0.62422,-0.17024l0.16692,-0.00355l0.16197,-0.04049h1.94801l0.80533,-0.06711l0.05235,0.00855l0.05146,-0.01286h0.21429l0.10225,-0.02556l0.10732,-0.06439l0.02258,-0.03951l0.15582,-0.03895l0.13773,-0.08264l0.09222,0.02515l0.23924,-0.05981h0.20326l0.42214,-0.10554h0.03048l0.02755,-0.01305l0.25803,-0.05161l0.47679,-0.17879l0.08827,-0.01009l0.07947,-0.03973l0.55724,-0.12383l0.48931,-0.18349l0.12137,-0.01387l0.11203,-0.04871l0.42857,-0.07143l0.02142,0.00171l0.03168,-0.0288l0.0274,-0.04796l0.03496,-0.00874l0.02667,-0.02424l0.05511,0.0038l0.50826,-0.12707h0.11615l0.04044,-0.02333l0.5,-0.14286l0.12961,-0.00432l0.01736,-0.03038l0.27316,-0.06829l0.26517,-0.0947l0.03788,0.01894l0.04879,-0.0122h0.5l0.04879,0.0122l0.03788,-0.01894l0.26517,0.0947l0.27316,0.06829l0.02101,0.03677l0.04736,0.01692l0.14953,0.09969l0.07325,0.03663l0.07749,0.06642l0.06227,0.00346l0.16125,0.18813l0.18813,0.16125l0.00346,0.06227l0.06642,0.07749l0.03663,0.07325l0.00114,0.00171l0.2495,0.21386l0.00274,0.04928l0.04286,0.02449l0.12059,0.48235l0.14386,0.23977l-0.01114,0.04086l0.02153,0.04545l0.01582,0.07912l0.04417,0.05889l0.0396,0.09406l0.05415,0.03094l0.0601,0.24038l0.09615,0.22837l-0.02475,0.05724l0.02475,0.09901v0.0604l0.03764,0.15055l0.06855,0.14472l0.14487,0.24144l-0.01114,0.04086l0.02153,0.04545l0.11936,0.59679l0.0298,0.04126l0.14286,0.35714l0.03199,0.23457l0.05742,0.22967v0.1647l0.00728,0.01144l0.07143,0.21429l0.00376,0.04887l0.02306,0.04325l0.07143,0.28571v0.15388l0.03732,0.14929v3.14286l-0.05981,0.23924l0.02515,0.09222l-0.08264,0.13773l-0.03895,0.15582l-0.08299,0.04742l-0.12688,0.21146l-0.08004,0.08004l-0.03928,0.05237l-0.00728,0.02185l-0.1542,0.24231l-0.14777,0.24629l-0.02463,0.02463l-0.01927,0.03029l-0.01377,0.00275l-0.72804,0.72804l-0.00609,0.00366l-0.00618,0.02197l-0.27394,0.1461l-0.26622,0.15973l-0.02202,-0.006l-0.00627,0.00334l-0.48042,0.12011l-0.73081,0.3045l-0.17426,0.08713l-0.00697,0.01219l-0.03483,0.00871l-0.03115,0.01558l-0.28038,0.06231l-0.27864,0.06966h-0.03483l-0.03505,0.00779l-0.01168,-0.00779h-0.02909l-0.33167,0.09476l-0.17426,0.00581l-0.16915,0.04229h-0.03583l-0.07746,0.04647l-0.04742,0.08299l-0.15582,0.03895l-0.13773,0.08264l-0.09222,-0.02515l-0.23924,0.05981h-1.02981l-0.92707,0.0618l-1.11397,0.26211l-0.10894,-0.00151l-0.10396,0.03258l-1.21429,0.07143l-0.03694,-0.00696l-0.03647,0.00912h-0.84476l-0.35919,0.1347l-0.22207,0.02538l-0.21684,0.05421h-2.5l-0.11023,-0.02756l-0.11338,0.00739l-0.78571,-0.14286l-0.11527,-0.05215l-0.12536,-0.01709l-0.13363,-0.05345h-0.04499l-0.12078,-0.0302l-0.12436,0.00592l-0.35714,-0.07143l-0.04545,-0.02153l-0.04086,0.01114l-0.12672,-0.07604c-0.07251,0.00309 -0.14924,0.00457 -0.23044,0.00457z" fill="#000000" stroke="none" stroke-width="0.5" stroke-linecap="butt"/><path d="M249.41844,189.62312c0.16336,-0.09334 0.21941,-0.31231 0.26887,-0.53873c0.76692,0.25308 2.49858,0.15162 3.52507,-0.21345l-0.00109,1.22021l-0.1074,0.14399l-0.07833,0.18657l-0.03139,0.04953l-0.38803,0.39034l-0.2359,0.05985l-0.08395,0.04519l-0.09399,0.01452l-0.85956,0.36228l-0.03547,0.02658l-0.04307,0.00976l-0.03127,0.0158l-0.15088,0.03843l-0.1747,0.00655l-0.333,0.09682l-0.111,0.0005l-0.14997,0.03826l-0.15444,0.00075l-0.28725,0.07334l-0.00632,0.00339l-0.02209,-0.00592l-0.26838,0.1621l-0.03761,0.0202l-0.65484,0.00372l-0.04165,0.01061l-0.04214,-0.00734l-1.0821,0.07783l-0.1004,0.03247l-0.10534,-0.00096l-0.10751,-0.07671c-0.0074,-0.16019 0.00835,-0.21919 -0.02134,-0.36463c-0.28572,0.09586 -0.52533,0.18668 -0.67179,0.26798c-1.29949,0.72132 -4.61715,1.75263 -6.54154,0.79089c-0.24611,-0.58244 -1.04358,-1.10949 -1.12296,-1.60021c-0.25593,-1.58223 0.91841,-3.39015 0.68118,-4.82978c-0.01999,-0.12134 -0.04922,-0.24226 -0.09096,-0.35852l1.31374,-0.0039l0.1955,-0.04975l0.20084,-0.01627l0.02193,-0.00741l0.36951,-0.00151l0.16261,-0.04147l0.16746,-0.00433l0.62752,-0.17444l1.84624,-0.01095l0.05211,-0.01321l0.05289,0.00827l0.57038,-0.04998c0.27079,-0.14008 0.58132,-0.23888 0.8953,-0.28227c2.7473,-1.29842 6.65138,-1.42047 7.37038,0.92644c-0.1112,-0.03751 -0.30792,-0.02534 -0.39249,-0.02788c-0.53313,-0.01604 -7.68764,1.25184 -8.41771,2.46863c-0.6665,1.11083 -0.19369,2.2268 1.13564,2.07059c0.81112,-0.09532 2.99693,-0.58636 3.62066,-0.94278z" data-paper-data="{&quot;noHover&quot;:false,&quot;origItem&quot;:[&quot;Path&quot;,{&quot;applyMatrix&quot;:true,&quot;segments&quot;:[[[249.46596,189.63867],[0,0],[-0.62373,0.35642]],[[245.78699,190.61474],[0.81112,-0.09532],[-1.32933,0.15621]],[[244.61221,188.49255],[-0.6665,1.11083],[0.73007,-1.21679]],[[253.12668,186.0092],[-0.53313,-0.01604],[0.08457,0.00254]],[[253.42513,186.07106],[-0.1112,-0.03751],[-0.719,-2.34691]],[[246.10389,185.17809],[2.7473,-1.29842],[-0.31398,0.04339]],[[245.22208,185.45796],[0.27079,-0.14008],[0,0]],[244.65907,185.50488],[244.60672,185.49633],[244.55526,185.50919],[242.72266,185.50919],[242.09844,185.67943],[241.93152,185.68298],[241.76955,185.72347],[241.40097,185.72347],[241.37912,185.73075],[241.17877,185.74616],[240.98383,185.79489],[[239.67195,185.79489],[0,0],[0.04174,0.11626]],[[239.7637,186.15145],[-0.01999,-0.12134],[0.23723,1.43963]],[[239.08319,190.94795],[-0.25593,-1.58223],[0.07938,0.49072]],[[240.2005,192.53646],[-0.24611,-0.58244],[1.92439,0.96174]],[[246.69301,191.72349],[-1.29949,0.72132],[0.14646,-0.0813]],[[247.35388,191.45839],[-0.28572,0.09586],[0.02969,0.14544]],[[247.40995,191.91678],[-0.0074,-0.16019],[0,0]],[247.48325,191.89953],[247.58733,191.90098],[247.6864,191.86907],[248.75783,191.79764],[248.7997,191.80519],[248.84098,191.79487],[249.49172,191.79487],[249.52902,191.77498],[249.79524,191.61525],[249.81726,191.62125],[249.82353,191.61791],[250.10924,191.54648],[250.26312,191.54648],[250.41241,191.50916],[250.52306,191.50916],[250.85473,191.4144],[251.02899,191.40859],[251.17939,191.37099],[251.21054,191.35541],[251.25349,191.34587],[251.28879,191.3196],[252.14593,190.96246],[252.23978,190.94829],[252.32353,190.90362],[252.55907,190.84474],[252.94602,190.45779],[252.9773,190.40864],[253.05528,190.22345],[253.16242,190.08059],[[253.16242,188.86888],[0,0],[-1.02649,0.36507]],[[249.73679,189.09159],[0.76692,0.25308],[-0.04946,0.22642]],[[249.46597,189.63866],[0.16336,-0.09334],[0,0]]],&quot;closed&quot;:true,&quot;fillColor&quot;:[0,0,0,1],&quot;strokeWidth&quot;:0.5}]}" fill="#ffffff" stroke="none" stroke-width="0.25" stroke-linecap="butt"/><path d="M235.29144,184.12193l-3.69925,-0.28456" fill="none" stroke="#000000" stroke-width="3" stroke-linecap="round"/><path d="M236.42967,192.94323l2.27646,0.28456" fill="none" stroke="#000000" stroke-width="3" stroke-linecap="round"/></g></g></svg>