<svg version="1.1" xmlns="http://www.w3.org/2000/svg" xmlns:xlink="http://www.w3.org/1999/xlink" width="20.3252" height="6.52197" viewBox="0,0,20.3252,6.52197"><g transform="translate(-236.40862,-186.37886)"><g data-paper-data="{&quot;isPaintingLayer&quot;:true}" fill-rule="nonzero" stroke="none" stroke-width="0.5" stroke-linecap="butt" stroke-linejoin="miter" stroke-miterlimit="10" stroke-dasharray="" stroke-dashoffset="0" style="mix-blend-mode: normal"><path d="" fill="#000000"/><path d="" fill="#000000"/><path d="" fill="#000000"/><path d="" fill="#000000"/><path d="" fill="#000000"/><path d="" fill="#b70000"/><path d="M245.98119,190.47639c-1.0707,0.22034 -2.16245,0.44225 -3.24103,0.58161c0.06253,0.60243 0.05045,1.10465 -0.01623,1.50452c-0.29451,0.01406 -0.59032,0.02076 -0.88766,0.01893c0,0 -0.53485,0 -0.96579,0.31937c-0.24319,-0.41133 -0.46416,-0.9794 -0.6288,-1.70786c-1.22632,-0.04964 -2.39663,-0.30708 -3.45429,-0.91146c-0.48402,-0.27659 -0.46445,-2.10923 -0.1645,-3.90265c0.87254,0.11056 1.761,0.183 2.65643,0.22338c-0.39417,0.62327 -0.94512,1.32069 -0.43492,1.33551c2.32239,0.06747 4.64681,0.01748 6.97012,0c1.85085,-0.01393 10.9193,-2.87191 10.9193,-0.32143c0,1.81607 -5.46758,2.06234 -7.05779,2.2198c-0.29402,0.02911 -0.59373,0.06759 -0.89818,0.11311c-0.03131,0.14712 -0.0885,0.28466 -0.16659,0.40764c0.10067,0.40502 0.16212,0.83172 0.16763,1.23881c-0.85846,0.1764 -1.71321,0.36052 -2.57069,0.52125c-0.14576,-0.52716 -0.2306,-1.11628 -0.22701,-1.64053z" fill="#000000"/><path d="" fill="#000000"/></g></g></svg>