<svg version="1.1" xmlns="http://www.w3.org/2000/svg" xmlns:xlink="http://www.w3.org/1999/xlink" width="20.83575" height="19.44205" viewBox="0,0,20.83575,19.44205"><g transform="translate(-233.81604,-183.73881)"><g data-paper-data="{&quot;isPaintingLayer&quot;:true}" fill-rule="nonzero" stroke-linejoin="miter" stroke-miterlimit="10" stroke-dasharray="" stroke-dashoffset="0" style="mix-blend-mode: normal"><path d="" fill="#000000" stroke="none" stroke-width="0.5" stroke-linecap="butt"/><path d="" fill="#000000" stroke="none" stroke-width="0.5" stroke-linecap="butt"/><path d="" fill="#000000" stroke="none" stroke-width="0.5" stroke-linecap="butt"/><path d="" fill="#000000" stroke="none" stroke-width="0.5" stroke-linecap="butt"/><path d="" fill="#000000" stroke="none" stroke-width="0.5" stroke-linecap="butt"/><path d="" fill="#b70000" stroke="none" stroke-width="0.5" stroke-linecap="butt"/><path d="M245.07717,191.85619c-0.25932,0.98663 -0.18183,2.50657 -0.15744,4.01054c0.05426,0.23402 0.10661,0.44929 0.15401,0.6389c0.03451,0.12628 0.05294,0.25921 0.05294,0.39643c0,0.076 -0.00565,0.15069 -0.01656,0.22365c0.4669,0.98104 0.98964,2.03565 1.09269,2.71694c0.15846,-0.07234 0.32066,-0.15906 0.4864,-0.26105c-0.0044,0.04045 -0.00937,0.08023 -0.01492,0.11928c5.27015,-1.78405 6.46074,-5.76727 3.06231,-12.4233c-0.44564,-0.87282 -1.57226,0.25662 -2.10677,-0.19698c-0.13432,0.08373 -0.27254,0.1658 -0.41354,0.24609c0.20124,0.14486 0.36514,0.33834 0.47448,0.56325c-0.41711,-0.09694 -0.85536,-0.13349 -1.29295,-0.11146c0.00502,0.0317 0.00988,0.06397 0.01457,0.0968c0.01444,0.10111 0.00761,0.20303 -0.01647,0.30536c0.05689,0.1584 0.0879,0.32915 0.0879,0.50714c0,0.52378 -0.26846,0.98486 -0.67529,1.25314c-0.31125,0.89518 -0.72909,1.90664 -0.73136,1.91527zM240.4043,197.93464c-0.11338,-0.45353 -0.20501,-1.00522 -0.26427,-1.61923c-0.05673,0.26471 -0.10153,0.53369 -0.13063,0.80682h-0.00001c-0.07655,0.71854 0.18521,1.59353 0.47984,2.47027c0.12841,-0.1802 0.25268,-0.36675 0.37203,-0.55887c0.02676,0.04194 0.05399,0.08315 0.08169,0.12359c-0.27518,-0.48977 -0.46807,-0.94024 -0.53866,-1.22258zM238.07251,191.37909c-0.99258,0.16336 -1.89867,-0.05651 -2.353,-0.5288c-0.0971,0.04376 -0.19254,0.09037 -0.28607,0.13981c-0.11339,-0.04817 -0.22326,-0.10473 -0.32926,-0.17032c-0.37673,-0.2331 -0.88008,-0.99395 -1.28814,-1.88675c0.31515,-0.12174 0.62183,-0.26865 0.91255,-0.43679c0.18286,-0.00332 0.36811,-0.02503 0.55354,-0.06653c0.55519,-0.12426 1.03327,-0.4083 1.39667,-0.79288c0.01588,-0.00125 0.03244,-0.00344 0.04969,-0.0066c1.56237,-0.2868 3.10799,-0.66091 4.65037,-1.04081c1.24331,-0.30624 5.9208,-3.51793 7.57828,-2.72516c1.24207,-0.07979 2.62265,0.67508 3.40563,1.9435c5.98444,9.6947 -0.46578,19.0573 -11.23835,17.11551c-0.02098,-0.00378 -0.04187,-0.00774 -0.06267,-0.01188c-0.02319,0.05561 -0.05029,0.1091 -0.08158,0.16032c-0.26047,-0.20878 -0.55779,-0.36957 -0.87698,-0.47287c-0.49321,-0.54089 -1.54858,-1.05434 -2.16807,-1.7381c-0.18909,-0.20871 -0.39253,-0.41109 -0.60642,-0.59992c-0.18849,-1.99613 -0.14111,-6.21451 0.74381,-8.88173z" fill="#000000" stroke="none" stroke-width="0.5" stroke-linecap="butt"/><path d="M245.77948,189.90022c0.40683,-0.26828 0.68658,-0.73541 0.68658,-1.25919c0,-0.17799 -0.03018,-0.34905 -0.08707,-0.50745c0.02408,-0.10233 0.03187,-0.20459 0.01743,-0.3057c-0.00469,-0.03283 -0.00941,-0.06515 -0.01443,-0.09685c0.43759,-0.02203 0.88643,0.01222 1.30354,0.10916c-0.10934,-0.22491 -0.27656,-0.41793 -0.4778,-0.56279c0.141,-0.08029 0.28273,-0.16284 0.41705,-0.24657c0.53451,0.4536 1.67785,-0.67472 2.12349,0.1981c3.39843,6.65603 2.18392,10.73634 -3.08623,12.52039c0.00555,-0.03905 0.01041,-0.07886 0.01481,-0.11931c-0.16574,0.10199 -0.33083,0.18788 -0.48929,0.26022c-0.10305,-0.68129 -0.64282,-1.74534 -1.10972,-2.72638c0.01091,-0.07296 0.01551,-0.14857 0.01551,-0.22457c0,-0.13722 -0.02089,-0.27251 -0.0554,-0.39879c-0.0474,-0.18961 -0.10415,-0.41006 -0.15841,-0.64408c-0.02439,-1.50397 -0.10675,-3.07528 0.15257,-4.06191c0.00227,-0.00863 0.43613,-1.03914 0.74738,-1.93432z" data-paper-data="{&quot;noHover&quot;:false,&quot;origItem&quot;:[&quot;Path&quot;,{&quot;applyMatrix&quot;:true,&quot;segments&quot;:[[[245.07717,191.85619],[0.00227,-0.00863],[-0.25932,0.98663]],[[244.91973,195.86673],[-0.02439,-1.50397],[0.05426,0.23402]],[[245.07374,196.50563],[-0.0474,-0.18961],[0.03451,0.12628]],[[245.12668,196.90206],[0,-0.13722],[0,0.076]],[[245.11012,197.12571],[0.01091,-0.07296],[0.4669,0.98104]],[[246.20281,199.84265],[-0.10305,-0.68129],[0.15846,-0.07234]],[[246.68921,199.5816],[-0.16574,0.10199],[-0.0044,0.04045]],[[246.67429,199.70088],[0.00555,-0.03905],[5.27015,-1.78405]],[[249.7366,187.27758],[3.39843,6.65603],[-0.44564,-0.87282]],[[247.62983,187.0806],[0.53451,0.4536],[-0.13432,0.08373]],[[247.21629,187.32669],[0.141,-0.08029],[0.20124,0.14486]],[[247.69077,187.88994],[-0.10934,-0.22491],[-0.41711,-0.09694]],[[246.39782,187.77848],[0.43759,-0.02203],[0.00502,0.0317]],[[246.41239,187.87528],[-0.00469,-0.03283],[0.01444,0.10111]],[[246.39592,188.18064],[0.02408,-0.10233],[0.05689,0.1584]],[[246.48382,188.68778],[0,-0.17799],[0,0.52378]],[[245.80853,189.94092],[0.40683,-0.26828],[-0.31125,0.89518]]],&quot;closed&quot;:true,&quot;fillColor&quot;:[0,0,0,1]}]}" fill="#b70000" stroke="none" stroke-width="0.5" stroke-linecap="butt"/><path d="M239.97683,197.16017c0.23202,-2.17779 1.48801,-4.17968 1.80064,-5.76466c0.49851,-0.33474 0.77569,-0.95265 0.63665,-1.57389c-0.03454,-0.15429 -0.0935,-0.2977 -0.16901,-0.42745c0.25742,-0.10496 0.5134,-0.20179 0.75179,-0.28697c0.13834,-0.04943 0.34181,-0.11946 0.59046,-0.20856c-0.28429,0.26383 -0.52524,0.57273 -0.70639,0.92536c-0.22999,0.40195 -0.36145,0.86751 -0.36145,1.36378c0,0.77885 0.32378,1.48208 0.84409,1.98243c-0.00396,0.03969 -0.00782,0.07943 -0.01159,0.11923c-1.87677,1.98042 -1.24935,5.89353 0.83332,6.69679c0.08438,0.12565 0.17521,0.23986 0.2728,0.3414c-0.21923,0.0426 -0.44857,0.08433 -0.67747,0.12179c-1.35413,0.22161 -2.29171,-0.36152 -2.93389,-1.36794c-0.11935,0.19212 -0.24535,0.37811 -0.37376,0.55831c-0.29463,-0.87674 -0.57274,-1.76109 -0.49619,-2.47963z" data-paper-data="{&quot;noHover&quot;:false,&quot;origItem&quot;:[&quot;Path&quot;,{&quot;applyMatrix&quot;:true,&quot;segments&quot;:[[[240.00939,197.12223],[0,0],[-0.07655,0.71854]],[[240.48923,199.5925],[-0.29463,-0.87674],[0.12841,-0.1802]],[[240.86126,199.03363],[-0.11935,0.19212],[0.64218,1.00642]],[[243.76787,200.40109],[-1.35413,0.22161],[0.2289,-0.03746]],[[244.44007,200.28101],[-0.21923,0.0426],[-1.96791,-2.04782]],[[244.36101,188.65039],[-1.11132,2.48192],[-0.60689,0.23707]],[[242.98982,189.1567],[0.26637,-0.09518],[-0.23839,0.08518]],[[242.24485,189.44417],[0.25742,-0.10496],[0.07551,0.12975]],[[242.41205,189.87158],[-0.03454,-0.15429],[0.13904,0.62124]],[[241.78439,191.44503],[0.49851,-0.33474],[-0.31263,1.58498]],[[240.0094,197.12223],[0.23202,-2.17779],[0,0]]],&quot;closed&quot;:true,&quot;fillColor&quot;:[0,0,0,1],&quot;strokeWidth&quot;:0.5}]}" fill="#808080" stroke="none" stroke-width="0.25" stroke-linecap="butt"/><path d="M242.91239,195.83063l1,-4.71428l-0.21428,4.07143" fill="none" stroke="#000000" stroke-width="0.5" stroke-linecap="round"/><path d="M244.55525,199.83064l-0.5,-0.57143l-1.21429,-5.28571l1.42857,-5.21429" fill="none" stroke="#000000" stroke-width="2.5" stroke-linecap="round"/></g></g></svg>