<svg version="1.1" xmlns="http://www.w3.org/2000/svg" xmlns:xlink="http://www.w3.org/1999/xlink" width="19.51859" height="17.59508" viewBox="0,0,19.51859,17.59508"><g transform="translate(-234.55447,-182.86028)"><g data-paper-data="{&quot;isPaintingLayer&quot;:true}" fill-rule="nonzero" stroke="none" stroke-linecap="butt" stroke-linejoin="miter" stroke-miterlimit="10" stroke-dasharray="" stroke-dashoffset="0" style="mix-blend-mode: normal"><path d="" fill="#000000" stroke-width="0.5"/><path d="" fill="#000000" stroke-width="0.5"/><path d="" fill="#000000" stroke-width="0.5"/><path d="" fill="#000000" stroke-width="0.5"/><path d="" fill="#000000" stroke-width="0.5"/><path d="" fill="#b70000" stroke-width="0.5"/><path d="M244.84255,189.88973c-0.81431,1.60548 -3.49917,1.69922 -4.0393,3.77426c-0.14416,0.55382 -0.34732,2.38704 -0.77538,3.27854c0.21243,0.4623 0.45836,0.91848 0.74476,1.38794c0.45489,0.74564 3.70132,-0.39698 4.31147,-0.52617c1.35693,-0.28732 2.57693,-1.03676 3.81278,-1.66642c0.90352,-0.46034 3.21759,-0.41775 3.25297,-2.02251c0.01513,-0.6862 -0.33494,-1.33155 -0.47821,-2.0028c-0.35347,-1.65615 -0.64583,-3.15901 -1.33025,-4.57077c-1.08222,0.68112 -0.89301,2.04939 -2.17846,2.74967c-0.96223,0.52419 -2.17365,0.00805 -3.23247,-0.69852c-0.01012,0.09931 -0.03844,0.19922 -0.08792,0.29678zM243.41251,188.66514c0.05473,-0.03857 0.11397,-0.07176 0.17711,-0.09864c-0.17517,-0.14775 -0.33516,-0.28632 -0.47619,-0.40769l-0.44147,-0.11584c0,0 -0.50304,-0.1996 -0.60726,-0.67646c-0.5488,0.12679 -1.10509,0.23614 -1.66483,0.32644c-0.00045,0.45134 -0.38598,0.75923 -0.38598,0.75923l-0.47683,0.25014c-0.34477,0.7117 -0.43758,1.53261 -0.48728,2.32186c-0.38252,1.03491 -0.29437,1.55406 -0.09339,2.37414c0.84708,-2.14746 2.11328,-3.16187 4.45612,-4.73318zM246.32835,187.94917c0.30808,0.20448 0.65937,0.92944 0.89991,0.6486c0.93792,-1.09505 1.07195,-1.99502 2.18595,-2.71955c-0.17114,-0.45623 -0.30029,-0.96426 -0.72552,-1.03575c-1.56183,-0.26256 -2.97675,1.30285 -4.30278,1.8593c0.57612,0.51004 1.30132,0.82188 1.94244,1.2474zM237.74574,187.97139c-0.77201,0.03615 -1.53846,0.0313 -2.28879,-0.01878c0,0 -0.96501,-0.06575 -0.89925,-1.03076c0.06575,-0.96501 1.03076,-0.89925 1.03076,-0.89925c2.66227,0.1854 5.40799,-0.32548 7.97285,-1.0755c1.68398,-0.49243 3.50899,-2.58427 5.61233,-1.97734c1.19713,0.34543 1.4565,1.39626 2.05389,2.26561c1.38105,2.00974 1.8221,4.06552 2.33601,6.47343c0.08657,0.4056 0.53005,2.43017 0.5088,2.62179c-0.28776,2.59524 -2.64117,2.66084 -4.34781,3.55579c-1.84834,0.96926 -3.13718,1.57515 -5.28768,2.03412c-1.54873,0.33054 -3.77814,1.14994 -5.0864,-0.27869c-0.38257,-0.41777 -0.34631,-1.08933 -0.63703,-1.57552c-0.75366,-1.26035 -1.10443,-1.81832 -1.42565,-3.32339c-0.35049,-1.64219 -0.65219,-2.48888 -0.13426,-4.10132c0.06632,-0.90873 0.23298,-1.83264 0.59224,-2.67018z" fill="#000000" stroke-width="0.5"/><path d="M244.35373,186.69983c1.32603,-0.55644 2.79367,-2.14477 4.35549,-1.88221c0.42523,0.07149 0.56368,0.59213 0.73481,1.04835c-1.11401,0.72453 -1.27405,1.66878 -2.21197,2.76383c-0.24053,0.28084 -0.61297,-0.44896 -0.92105,-0.65343c-0.64112,-0.42552 -1.38116,-0.76649 -1.95729,-1.27653z" data-paper-data="{&quot;noHover&quot;:false,&quot;origItem&quot;:[&quot;Path&quot;,{&quot;applyMatrix&quot;:true,&quot;segments&quot;:[[[253.33491,186.16567],[-0.83462,-0.85289],[0.40106,0.40984]],[[254.4898,187.44066],[-0.45571,0.34807],[1.77695,-1.3572]],[[258.68541,184.02364],[-1.92408,0.73826],[-0.11188,-0.74733]],[[257.92032,182.21794],[0.62178,0.24606],[-2.28375,-0.90376]],[[250.79269,183.64506],[2.19123,-0.4147],[0.70868,0.96004]]],&quot;closed&quot;:true,&quot;fillColor&quot;:[0,0,0,1],&quot;strokeWidth&quot;:0.5}]}" fill="#ffffff" stroke-width="0.25"/><path d="M238.93821,193.42494c-0.20098,-0.82008 -0.30108,-1.35441 0.08143,-2.38931c0.0497,-0.78925 0.14958,-1.64415 0.49435,-2.35585l0.48303,-0.25509c0,0 0.39372,-0.31147 0.39417,-0.76281c0.55974,-0.09029 1.13486,-0.1992 1.68366,-0.32599c0.10422,0.47686 0.61577,0.68078 0.61577,0.68078l0.44515,0.11889c0.14103,0.12137 0.30539,0.26513 0.48056,0.41288c-0.06314,0.02687 -0.12249,0.0599 -0.17722,0.09847c-2.34284,1.5713 -3.65383,2.63055 -4.5009,4.77801z" data-paper-data="{&quot;noHover&quot;:false,&quot;origItem&quot;:[&quot;Path&quot;,{&quot;applyMatrix&quot;:true,&quot;segments&quot;:[[[248.68086,186.3077],[-4.06187,1.62475],[0.09549,-0.04078]],[[248.9814,186.21543],[-0.10446,0.02032],[-0.21784,-0.28079]],[[248.39115,185.44297],[0.17461,0.22972],[0,0]],[247.7591,185.12438],[[247.05707,183.90186],[0.00371,0.75697],[-0.87337,0.01465]],[[244.42645,183.85806],[0.87815,0.04424],[-0.14678,0.68437]],[243.5953,184.88461],[[242.79115,185.10964],[0,0],[-0.75326,0.9678]],[[241.30055,188.47334],[0.33085,-1.18092],[-0.91513,1.44577]],[[240.39042,192.04384],[-0.03936,-1.30883],[1.97983,-2.98275]]],&quot;closed&quot;:true,&quot;fillColor&quot;:[0,0,0,1],&quot;strokeWidth&quot;:0.5}]}" fill="#2b2b2b" stroke-width="0.25"/><path d="M248.50408,190.07213c0.94977,-0.32825 0.81262,-3.316 2.37091,-2.55047c0.58697,0.28836 2.52608,7.49795 1.17614,8.1588c-2.77737,1.35964 -5.84248,2.2119 -8.9091,2.90067c-0.17161,0.03854 -2.054,0.56098 -2.35822,0.33258c-3.09529,-2.3238 1.31316,-8.02414 3.49714,-9.30971l0.01156,-0.00923c0.11668,-0.09726 0.25805,-0.16838 0.41693,-0.20229c0.26667,-0.05691 0.53113,0.00202 0.74097,0.14285c0.93514,0.2365 1.95029,0.91814 3.05368,0.53679z" fill="#b70000" stroke-width="0.5"/></g></g></svg>