<svg version="1.1" xmlns="http://www.w3.org/2000/svg" xmlns:xlink="http://www.w3.org/1999/xlink" width="12.62416" height="18.70514" viewBox="0,0,12.62416,18.70514"><g transform="translate(-236.34294,-182.74099)"><g data-paper-data="{&quot;isPaintingLayer&quot;:true}" fill-rule="nonzero" stroke="none" stroke-linecap="butt" stroke-linejoin="miter" stroke-miterlimit="10" stroke-dasharray="" stroke-dashoffset="0" style="mix-blend-mode: normal"><path d="M237.85967,198.33299c-0.26035,-0.16753 -0.48435,-0.36719 -0.62641,-0.63925c-0.44525,-0.85274 -0.0466,-1.92915 -0.19798,-2.87915c-0.51534,-3.23411 -1.59217,-6.33141 0.80274,-9.1986c2.32008,-2.7776 8.53938,-4.49458 10.56475,-0.60122c0.33303,0.64019 0.04018,1.44412 0.11543,2.16182c0.1028,0.98035 0.33893,1.94493 0.41821,2.92747c0.08324,1.03164 -0.00201,3.76095 -0.26695,4.72917c-0.58419,2.13485 -1.82604,3.73549 -3.42162,5.15308c-0.57769,0.44078 -1.0441,1.09142 -1.73308,1.32235c-0.78653,0.26362 -1.65793,0.06138 -2.48689,0.09206l-1.59261,-0.14369c-0.31075,-0.25224 -0.60242,-0.46976 -0.88369,-0.66131c0.05862,-0.17347 0.09039,-0.3593 0.09039,-0.55256c0,-0.68422 -0.39834,-1.2754 -0.97576,-1.5543c0.06132,-0.05982 0.12641,-0.1114 0.19347,-0.15586zM244.42054,192.384l0.50062,0.2384c-1.55766,-0.97671 -2.94692,-1.03238 -4.177,0.37461c0,0 -0.30919,0.30919 -0.76431,0.43778c0.07213,0.33586 0.13176,0.65912 0.16426,0.96347c0.06131,0.57424 -0.38713,1.1755 -0.19798,1.72115c0.03423,0.09873 0.11324,0.15054 0.21425,0.17934c-0.09704,0.16902 -0.25303,0.44227 -0.25837,0.46244c-0.25083,0.94756 0.00194,1.18227 0.38989,1.05153c-0.01211,0.45738 0.00268,0.99656 0.16887,1.08172c0.07018,0.03597 0.25282,-0.05058 0.46451,-0.18587l0.01938,0.09573c0.0133,0.07313 0.07732,0.12859 0.15429,0.12859c0.08661,0 0.15683,-0.07022 0.15683,-0.15683v0v-0.29893c0.10318,-0.07774 0.20353,-0.15804 0.29243,-0.23329c-0.00341,0.00881 -0.00692,0.01765 -0.01051,0.02652l-0.00001,0.00001c0.61768,-0.0333 1.2592,-0.25744 1.6855,-0.67964c1.16089,-0.94362 2.00908,-2.1325 2.43331,-3.62931c0.02945,-0.10391 0.05468,-0.27463 0.07598,-0.48733c-0.96948,-0.06273 -1.31193,-1.09009 -1.31193,-1.09009zM240.20081,189.22463c1.84197,-0.89787 3.84405,-0.47283 5.55558,0.31427c-0.05416,-1.11205 -0.05168,-2.23058 -0.25141,-3.32381c-0.13132,-0.71878 -1.40207,-0.36446 -1.61694,-0.31166c-1.06867,0.26257 -2.94585,0.9529 -3.71025,1.80149c-0.56335,0.62541 -0.7716,1.368 -0.79283,2.15501c0.2433,-0.25357 0.50321,-0.48291 0.81586,-0.63531z" fill="#000000" stroke-width="0.5"/><path d="M240.22777,189.20859c-0.31265,0.1524 -0.62591,0.41472 -0.86921,0.66828c0.02123,-0.78701 0.22454,-1.54799 0.78789,-2.1734c0.76439,-0.84859 2.69071,-1.56331 3.75938,-1.82588c0.21487,-0.0528 1.49537,-0.3963 1.62669,0.32248c0.19973,1.09323 0.1973,2.2417 0.25146,3.35375c-1.71152,-0.78709 -3.76815,-1.21102 -5.61012,-0.31315z" data-paper-data="{&quot;noHover&quot;:false,&quot;origItem&quot;:[&quot;Path&quot;,{&quot;applyMatrix&quot;:true,&quot;segments&quot;:[[[242.49277,181.96385],[0,0],[2.93628,-1.43129]],[[251.34891,182.46482],[-2.72834,-1.2547],[-0.08634,-1.77272]],[[250.94813,177.16634],[0.31839,1.74271],[-0.20934,-1.1458]],[[248.37056,176.66952],[0.34253,-0.08417],[-1.70356,0.41857]],[[242.45606,179.54128],[1.21852,-1.35274],[-0.89804,0.99696]],[[241.19221,182.97658],[0.03385,-1.25457],[0.38784,-0.40421]],[[242.49277,181.96384],[-0.49839,0.24294],[0,0]]],&quot;closed&quot;:true,&quot;fillColor&quot;:[0,0,0,1],&quot;strokeWidth&quot;:0.5}]}" fill="#2b2b2b" stroke-width="0.25"/><path d="M240.61439,198.621c-0.00811,-0.00793 0.00769,-0.4479 0.01454,-0.67594c0.05071,0.10453 0.12306,0.19169 0.20957,0.2556c0.0157,0.06524 0.03347,0.12958 0.05295,0.1925c-0.09027,0.18035 -0.17105,0.33149 -0.27707,0.22783z" fill="#000000" stroke-width="0.5"/><path d="M240.31587,197.19243c0.00025,0.06776 -0.00764,0.20409 -0.01499,0.3716c-0.15995,0.06483 -0.24206,-0.06324 -0.14132,-0.53333c0.05112,-0.01733 0.10817,-0.01535 0.16697,-0.00726c-0.00661,0.06611 -0.01014,0.12396 -0.01065,0.169z" fill="#000000" stroke-width="0.5"/><path d="M240.43629,196.43762c-0.02978,0.10437 -0.05395,0.21456 -0.0726,0.31987c-0.04089,-0.00358 -0.08209,-0.00921 -0.12295,-0.01364c0.04984,-0.10842 0.1272,-0.20538 0.19555,-0.30624z" fill="#000000" stroke-width="0.5"/><path d="M241.36131,196.88647l0.00465,0.00393l-0.01773,0.014c-0.01514,0.03364 -0.03002,0.06605 -0.0446,0.0974c-0.00064,-0.01235 -0.00134,-0.02467 -0.0021,-0.03694c0.02256,-0.03046 0.04451,-0.06123 0.06575,-0.09225c0.0009,0.00121 0.00179,0.00242 0.00268,0.00364z" fill="#000000" stroke-width="0.5"/><path d="M240.40821,199.06105c-0.1425,-0.1425 -0.24838,-0.285 -0.32469,-0.42515c-1.4464,-0.34433 -1.14972,-1.82778 -1.14972,-1.82778c0.39637,-1.92249 1.61993,-7.77529 5.29026,-5.94414c2.45997,1.2273 2.14437,2.64113 1.21186,3.74591c0.58268,0.22886 0.99518,0.79639 0.99518,1.46027c0,0.60085 -0.3379,1.12278 -0.83404,1.38614l-1.85456,1.03031l-0.17104,-0.30787c-0.19997,0.24881 -0.51844,0.43398 -0.73627,0.67321l-0.2091,0.2091c0,0 -1.10895,1.10895 -2.21789,0z" fill="#b70000" stroke-width="0.5"/></g></g></svg>