<svg version="1.1" xmlns="http://www.w3.org/2000/svg" xmlns:xlink="http://www.w3.org/1999/xlink" width="21.09524" height="6.48606" viewBox="0,0,21.09524,6.48606"><g transform="translate(-227.04354,-184.89796)"><g data-paper-data="{&quot;isPaintingLayer&quot;:true}" fill="#000000" fill-rule="nonzero" stroke="none" stroke-width="0.5" stroke-linecap="butt" stroke-linejoin="miter" stroke-miterlimit="10" stroke-dasharray="" stroke-dashoffset="0" style="mix-blend-mode: normal"><path d="M248.13877,186.26188c0,1.36392 -1.36392,1.36392 -1.36392,1.36392h-1.09113c-3.80191,-0.03016 -6.30819,3.00303 -9.94055,3.61522c-2.36341,0.39832 -4.95724,-0.16209 -7.33572,-0.15997c0,0 -1.36392,0 -1.36392,-1.36392c0,-1.36392 1.36392,-1.36392 1.36392,-1.36392c2.20286,0.00182 4.66392,0.56243 6.84901,0.20374c1.99162,-0.32693 3.70637,-1.79677 5.48307,-2.62041c1.64296,-0.76164 3.15783,-1.02732 4.94419,-1.03858h1.09113c0,0 1.36392,0 1.36392,1.36392z"/></g></g></svg>