<svg version="1.1" xmlns="http://www.w3.org/2000/svg" xmlns:xlink="http://www.w3.org/1999/xlink" width="15.66677" height="27.61445" viewBox="0,0,15.66677,27.61445"><g transform="translate(-239.17006,-168.64149)"><g data-paper-data="{&quot;isPaintingLayer&quot;:true}" fill-rule="nonzero" stroke="none" stroke-width="0.5" stroke-linecap="butt" stroke-linejoin="miter" stroke-miterlimit="10" stroke-dasharray="" stroke-dashoffset="0" style="mix-blend-mode: normal"><path d="M245.75936,188.89445c0.38249,0.34463 0.54222,0.81166 0.60892,1.14163c0.89319,0.80424 2.31365,1.19669 3.50484,0.97848c0.08817,-0.14203 0.17727,-0.30058 0.26737,-0.47675c0.31481,-0.61553 0.38175,-1.32898 0.57263,-1.99347c-0.01801,-2.2445 0.24923,-4.71568 -0.00623,-6.94666c-0.05529,-0.4829 -0.13432,-0.85904 -0.23403,-1.18021h-1.78526c-0.94799,-0.0135 -1.90174,0.12859 -2.82625,0.3695c-0.25602,2.00954 -0.72445,5.04988 -0.43294,7.24688c0.10744,0.28655 0.21783,0.57331 0.33095,0.8606zM244.29243,172.81516c-1.5639,0.41514 -1.08954,3.5327 -1.08315,4.26187c0.00087,0.09909 0.00225,0.19785 0.00414,0.29629c1.36289,-1.10071 2.98784,-1.58113 5.15959,-1.72083c-0.67448,-1.858 -1.51355,-3.51875 -4.08058,-2.83732zM245.81876,195.37004c-1.49724,0.33494 -2.16951,-1.17764 -2.16951,-1.17764c-2.51257,-5.65631 -4.49527,-10.85611 -4.44851,-17.11538c0.01769,-2.36882 -0.37257,-4.00917 1.19893,-6.00794c1.69628,-2.15748 5.97731,-3.30316 8.46502,-1.62025c1.2589,0.85163 2.15035,2.18803 2.93399,3.49033c0.51551,0.85672 0.51705,1.93679 0.88992,2.86452c0.70451,1.75293 1.74854,3.43139 1.9968,5.30422c0.33595,2.53432 0.01048,5.47788 -0.00623,8.01853c-0.97522,3.17059 -2.6494,7.91685 -7.19,7.01828c-0.59716,-0.11818 -1.1528,-0.4001 -1.6704,-0.77466z" fill="#000000"/><path d="M244.27026,172.78178c2.56703,-0.68143 3.46723,1.02217 4.14171,2.88017c-2.17175,0.13971 -3.86504,0.63791 -5.22794,1.73862c-0.00189,-0.09845 -0.00504,-0.19924 -0.00591,-0.29833c-0.00639,-0.72917 -0.47177,-3.90534 1.09213,-4.32048z" data-paper-data="{&quot;noHover&quot;:false,&quot;origItem&quot;:[&quot;Path&quot;,{&quot;applyMatrix&quot;:true,&quot;segments&quot;:[[[237.6844,167.01735],[0,0],[-1.95071,0.51782]],[[236.33334,172.33334],[-0.00797,-0.90952],[0.00108,0.1236]],[[236.33851,172.70292],[-0.00236,-0.1228],[1.69999,-1.37296]],[[242.77427,170.55646],[-2.70891,0.17426],[-0.84131,-2.31756]],[[237.68441,167.01736],[3.20195,-0.84997],[0,0]]],&quot;closed&quot;:true}]}" fill="#ffffff"/><path d="M244.57699,182.30158c-0.02048,-0.12759 -0.03154,-0.26543 -0.03154,-0.41432c0,-2.00427 2.00427,-2.00427 2.00427,-2.00427h1.339c0.87363,-0.42705 1.76614,-0.70234 2.54632,-0.29731c2.91848,1.51508 0.47231,6.7703 0.20718,8.89136l-0.12015,0.16813l0.06695,0.02232l-0.78709,2.36127c-0.25187,0.81899 -1.01443,1.41431 -1.91603,1.41431c-0.95383,0 -1.75204,-0.66629 -1.95459,-1.55884l-0.5243,-2.09721c-0.25574,-0.49454 -0.07313,-1.14472 -0.33416,-1.63649c-0.48713,-0.91773 -1.90337,-1.46194 -1.86151,-2.50009c0.03689,-0.91477 0.72136,-1.62548 1.36566,-2.34886z" fill="#ea0000"/></g></g></svg>