<svg version="1.1" xmlns="http://www.w3.org/2000/svg" xmlns:xlink="http://www.w3.org/1999/xlink" width="31.49111" height="17.85254" viewBox="0,0,31.49111,17.85254"><g transform="translate(-233.6875,-171.70184)"><g data-paper-data="{&quot;isPaintingLayer&quot;:true}" fill-rule="nonzero" stroke="none" stroke-linecap="butt" stroke-linejoin="miter" stroke-miterlimit="10" stroke-dasharray="" stroke-dashoffset="0" style="mix-blend-mode: normal"><path d="M249.75279,185.44691c0.02412,0.04158 0.04915,0.08254 0.0752,0.12278zM249.74878,185.43997c0.01883,0.0191 0.4586,0.47153 0.47053,1.07435c2.63358,0.16962 5.25033,0.15847 7.72938,-0.46953c1.10754,-0.28057 2.38513,-0.05665 3.36718,-0.64055c1.69223,-1.00616 0.9089,-4.67826 0.12174,-6.63962c-0.06692,-0.09676 -0.11667,-0.19821 -0.15321,-0.2997c-1.07946,1.39654 -2.47557,3.05975 -4.22798,3.02935c-2.04505,-0.03547 -4.47067,-4.24817 -5.31077,-5.77598c0,0 -0.22866,-0.4192 -0.19142,-0.91358c-3.57961,-0.3842 -7.11353,0.23915 -10.73587,0.95652c0.22385,0.21911 0.33578,0.44296 0.33578,0.44296c1.23556,2.55411 1.61681,5.45995 0.84435,8.16865c1.73638,-1.95997 3.5953,-4.23106 6.30381,-1.87644c0.82496,0.71718 0.89894,1.99378 1.44649,2.94358zM246.33309,185.64466c-0.18361,-0.40142 -0.01685,-1.58719 -0.33499,-1.28119c-0.51635,0.49666 -1.00382,1.08075 -1.4932,1.66259c0.71018,0.05538 1.42568,0.12093 2.144,0.18771c-0.11686,-0.18346 -0.22539,-0.37141 -0.31582,-0.56912zM257.31857,178.50574c0.33846,-0.03828 1.28254,-1.34631 1.8663,-2.17569c-1.31216,-0.39635 -2.89386,-0.52196 -4.04602,-0.79265c0.79775,1.27043 1.94455,2.99494 2.17972,2.96834zM236.06694,176.75735c-0.21226,0.14521 -0.49713,0.24265 -0.87944,0.24265c-1.5,0 -1.5,-1.5 -1.5,-1.5l1.27191,-1.60756c0.54167,-0.08333 1.08333,-0.16667 1.625,-0.25c0,0 0.05039,-0.00775 0.13403,-0.01111c0.28926,-0.17763 0.56339,-0.22984 0.56339,-0.22984c6.28159,-1.19649 12.12134,-2.66417 18.32401,-0.84198c3.40724,1.00097 6.657,0.79754 8.5483,4.14466l-0.00431,0.57938c0.49675,0.82893 0.70879,1.24386 0.90143,2.65817c0.31792,2.33397 0.1724,6.34336 -1.99214,7.90404c-0.03185,0.02296 -4.07885,1.03438 -4.38282,1.10945c-5.65857,1.39734 -11.77143,-0.08851 -17.4888,-0.08021c-0.5,0 -1,0 -1.5,0h-0.38195c-0.27466,0.30687 -0.6738,0.5 -1.11805,0.5c-0.82843,0 -1.5,-0.67157 -1.5,-1.5c0,-0.5953 0.34679,-1.10961 0.84936,-1.35193c0.1374,-0.21284 0.32215,-0.35578 0.50832,-0.45178c0.00385,-0.47993 0.24532,-0.86629 0.24532,-0.86629l0.53145,-0.82571c1.01619,-2.07645 0.69325,-4.83426 -0.35109,-6.83348c0,0 -0.33785,-0.6757 -0.0545,-1.3078c-0.19074,0.03716 -0.3818,0.07404 -0.57319,0.11049c0,0 -0.06878,0.0131 -0.17944,0.01878c-0.31415,0.19273 -0.62314,0.24027 -0.62314,0.24027c-0.32455,0.04993 -0.6491,0.09986 -0.97364,0.14979z" fill="#000000" stroke-width="0.5"/><path d="M249.73103,185.48672c-0.54755,-0.9498 -0.64728,-2.24852 -1.47224,-2.9657c-2.70851,-2.35462 -4.57051,-0.09002 -6.30689,1.86995c0.77246,-2.7087 0.39182,-5.65229 -0.84374,-8.2064c0,0 -0.11146,-0.22492 -0.33531,-0.44403c3.62234,-0.71737 7.20164,-1.37003 10.78125,-0.98583c-0.03724,0.49438 0.19333,0.91361 0.19333,0.91361c0.8401,1.52781 3.31336,5.79811 5.35841,5.83358c1.75241,0.0304 3.05032,-1.62948 4.12978,-3.02602c0.03654,0.10149 0.18419,0.18261 0.25111,0.27937c0.78716,1.96136 1.56631,5.66476 -0.12592,6.67092c-0.98205,0.5839 -2.2664,0.37035 -3.37394,0.65092c-2.47905,0.628 -5.14519,0.65558 -7.77877,0.48596c-0.01193,-0.60282 -0.45824,-1.05724 -0.47707,-1.07634z" data-paper-data="{&quot;noHover&quot;:false,&quot;origItem&quot;:[&quot;Path&quot;,{&quot;applyMatrix&quot;:true,&quot;segments&quot;:[[[249.74878,183.06497],[0,0],[0.01883,0.0191]],[[250.21931,184.13932],[-0.01193,-0.60282],[2.63358,0.16962]],[[257.94869,183.66979],[-2.47905,0.628],[1.10754,-0.28057]],[[261.31587,183.02924],[-0.98205,0.5839],[1.69223,-1.00616]],[[261.43761,176.38962],[0.78716,1.96136],[-0.06692,-0.09676]],[[261.2844,176.08992],[0.03654,0.10149],[-1.07946,1.39654]],[[257.05642,179.11927],[1.75241,0.0304],[-2.04505,-0.03547]],[[251.74565,173.34329],[0.8401,1.52781],[0,0]],[[251.55423,172.42971],[-0.03724,0.49438],[-3.57961,-0.3842]],[[240.81836,173.38623],[3.62234,-0.71737],[0.22385,0.21911]],[[241.15414,173.82919],[0,0],[1.23556,2.55411]],[[241.99849,181.99784],[0.77246,-2.7087],[1.73638,-1.95997]],[[248.3023,180.1214],[-2.70851,-2.35462],[0.82496,0.71718]],[[249.74879,183.06498],[-0.54755,-0.9498],[0,0]]],&quot;closed&quot;:true,&quot;fillColor&quot;:[0,0,0],&quot;strokeWidth&quot;:0.5}]}" fill="#ea0000" stroke-width="0.25"/></g></g></svg>