<svg version="1.1" xmlns="http://www.w3.org/2000/svg" xmlns:xlink="http://www.w3.org/1999/xlink" width="37.84092" height="23.50814" viewBox="0,0,37.84092,23.50814"><g transform="translate(-229.64291,-167.47557)"><g data-paper-data="{&quot;isPaintingLayer&quot;:true}" fill-rule="nonzero" stroke="none" stroke-linecap="butt" stroke-linejoin="miter" stroke-miterlimit="10" stroke-dasharray="" stroke-dashoffset="0" style="mix-blend-mode: normal"><path d="M234.8754,190.42718c-0.85738,-1.09449 0.23711,-1.95189 0.23711,-1.95189l0.87485,-0.63023c0.40856,-0.17546 0.82758,-0.33119 1.25382,-0.46503c-1.19331,-2.17252 -2.28551,-6.55379 -2.13887,-8.20769c0.01791,-0.20202 0.04589,-0.39968 0.08276,-0.59352c-1.07645,1.20324 -2.05901,2.56142 -2.93182,4.08872c0,0 -0.69012,1.20696 -1.89709,0.51685c-1.20696,-0.69012 -0.51685,-1.89709 -0.51685,-1.89709c6.46826,-11.30669 19.81654,-15.53828 32.17825,-13.18276c2.29696,2.47103 6.54609,7.91767 5.21272,11.72446c-0.81394,2.3238 -4.25123,2.80902 -6.17866,3.49681c-4.42661,1.57962 -8.97123,3.71759 -13.60653,4.59035c-2.20083,0.41439 -4.45852,0.4064 -6.59327,0.9842c-0.30475,0.67042 -1.12004,0.76539 -1.12004,0.76539c-0.90302,0.09466 -1.79843,0.35067 -2.62565,0.72497l-0.27886,0.27353c0,0 -1.09449,0.85738 -1.95189,-0.23711zM240.86939,174.01299c0.01887,0.04258 0.03675,0.08735 0.05355,0.13441c0.46727,1.30947 -0.84218,1.77674 -0.84218,1.77674l-0.87461,0.21573c-1.26876,2.99641 -1.40513,4.08247 -0.2886,7.21134c0.2521,0.70647 0.50994,2.93563 1.24842,2.94426c2.08259,-0.81932 4.53962,-0.70264 6.77613,-1.11408c3.81738,-0.70226 7.57233,-2.47519 11.21076,-3.77355c1.5277,-0.54516 3.05001,-1.10569 4.58312,-1.63547c0.64588,-0.22319 1.73804,-0.1786 1.86556,-0.84995c0.51191,-2.69507 -2.50512,-6.42895 -3.93179,-8.38565c-7.03803,-0.54911 -14.06103,0.2308 -19.80037,3.47622z" fill="#000000" stroke-width="0.5"/><path d="M240.82539,173.99842c5.73934,-3.24543 12.84499,-4.03632 19.88302,-3.48722c1.42667,1.95671 4.45105,5.72172 3.93914,8.41678c-0.12751,0.67135 -1.22034,0.63069 -1.8662,0.85388c-1.53311,0.52978 -3.06019,1.10319 -4.58789,1.64835c-3.63843,1.29836 -7.45314,3.09111 -11.27053,3.79337c-2.23652,0.41144 -4.70929,0.28304 -6.79187,1.10236c-0.73848,-0.00863 -1.00241,-2.24668 -1.25452,-2.95315c-1.11652,-3.12887 -0.98529,-4.24092 0.28347,-7.23733l0.87475,-0.21704c0,0 1.3113,-0.47567 0.84402,-1.78513c-0.0168,-0.04706 -0.03452,-0.09231 -0.05339,-0.13489z" data-paper-data="{&quot;noHover&quot;:false,&quot;origItem&quot;:[&quot;Path&quot;,{&quot;applyMatrix&quot;:true,&quot;segments&quot;:[[[243.68183,168.46901],[0,0],[0.00374,0.05011]],[[243.6875,168.625],[0,-0.05391],[0,1.5]],[242.1875,170.125],[[241.22057,170.02708],[0,0],[-2.3757,2.58465]],[[238.3125,177.25],[0,-3.58415],[0,0.80926]],[[238.51346,180.69439],[-0.74726,-0.27654],[2.41323,-0.07738]],[[245.80277,182.01937],[-2.42175,-0.39289],[4.13354,0.6706]],[[258.5625,182.25],[-4.16785,0],[1.75,0]],[[263.8125,182.25],[-1.74991,-0.01758],[0.73721,0.00741]],[[266.01632,182.0628],[-0.373,0.63593],[1.49739,-2.55288]],[[265.06178,172.11634],[0.74017,2.50555],[-6.95235,-3.10993]],[[243.68182,168.46901],[7.00863,-1.21666],[0,0]]],&quot;closed&quot;:true,&quot;fillColor&quot;:[0,0,0],&quot;strokeWidth&quot;:0.5}]}" fill="#ea0000" stroke-width="0.25"/></g></g></svg>