<svg version="1.1" xmlns="http://www.w3.org/2000/svg" xmlns:xlink="http://www.w3.org/1999/xlink" width="34.08361" height="20.57543" viewBox="0,0,34.08361,20.57543"><g transform="translate(-239.56786,-170.39523)"><g data-paper-data="{&quot;isPaintingLayer&quot;:true}" fill-rule="nonzero" stroke-width="0.5" stroke-linejoin="miter" stroke-miterlimit="10" stroke-dasharray="" stroke-dashoffset="0" style="mix-blend-mode: normal"><path d="M256.03975,183.0108c-0.93756,-0.58826 -0.3493,-1.52582 -0.3493,-1.52582l0.71095,-1.13221c0.33748,-0.41612 0.53907,-0.9974 1.01243,-1.24835c1.73239,-0.91844 3.44106,0.30259 5.09451,-0.07964c1.80642,-0.41758 0.72733,-2.99256 3.10171,-3.54655c0.59087,-0.13787 1.81126,0.40334 2.794,0.86849c-0.98747,-1.3631 -2.04445,-2.64931 -2.9061,-3.84261c-2.80848,1.45888 -6.07832,2.55864 -8.99559,3.71808c-2.21577,0.88065 -4.69476,1.15495 -7.047,1.75012c0.07714,0.33487 -0.01889,0.64207 -0.01889,0.64207l-0.40034,1.27575c-0.79859,1.87401 -1.07114,3.13906 -1.25328,5.13886c-0.08409,0.92332 -0.31986,1.48949 -0.57968,2.32104c-0.02817,0.09015 -0.11357,0.22039 -0.17272,0.33302c0.09341,-0.01106 0.24897,-0.01945 0.42021,0.01309c0.11532,-0.11271 0.22931,-0.23807 0.3673,-0.29432c1.09504,-0.44626 2.54449,-0.5825 3.69082,-0.84492c3.01061,-0.66206 5.83203,-0.63701 8.85838,-0.98276c2.15326,-0.246 4.29311,-1.05801 6.42005,-1.47321c0.90575,-0.17682 2.38424,-0.32451 3.22365,-0.33838c0.509,-0.00841 1.53502,0.4075 1.52383,-0.10146c-0.03816,-1.73525 -0.69315,-3.40921 -1.60971,-5.00034c-0.47729,0.56382 -1.2343,0.25647 -1.2343,0.25647c-0.69548,-0.28243 -2.09516,-1.2034 -2.7465,-1.25074c-0.48743,-0.03543 -0.28542,0.9391 -0.49956,1.37841c-0.58648,1.20312 -1.0245,1.72809 -2.35656,2.11626c-1.33503,0.38903 -4.13355,-1.02321 -4.84689,0.42267l-0.67559,1.07764c0,0 -0.58826,0.93756 -1.52582,0.3493zM241.34231,190.11439c-0.24699,-1.07892 0.83193,-1.32591 0.83193,-1.32591c0.95269,-0.2181 1.93898,-0.44388 2.9178,-0.66796c-0.03955,-0.28193 -0.06638,-0.56475 -0.10184,-0.82498c-0.11508,-0.84474 0.51964,-1.63899 0.59018,-2.48862c0.17849,-2.14972 0.52154,-3.68133 1.37891,-5.68287l0.11875,-0.38135c-0.26156,0.1094 -0.51948,0.22773 -0.77313,0.35649c-1.70631,0.86623 -3.42808,2.40763 -4.87938,3.6713c0,0 -0.83575,0.72566 -1.56142,-0.11009c-0.72566,-0.83575 0.11009,-1.56142 0.11009,-1.56142c1.5828,-1.37077 3.43613,-3.00333 5.29662,-3.95708c3.23154,-1.65657 7.10247,-1.63374 10.41461,-2.97711c3.43468,-1.39308 6.72731,-3.23773 10.48556,-3.76956c3.06897,3.07931 5.75077,6.43197 6.89136,10.72288c0.1627,0.61205 0.66959,2.97855 0.57817,3.22543c-0.86024,2.32302 -3.53706,1.57915 -5.33456,1.76722c-2.59105,0.27109 -5.05734,1.35708 -7.63492,1.65611c-2.97105,0.34466 -5.72511,0.29938 -8.67731,0.94994c-0.76953,0.17617 -3.0341,0.92639 -4.62728,1.15394c-1.53611,0.35166 -3.07221,0.70331 -4.60833,1.05497l-0.08991,0.02058c0,0 -1.07892,0.24699 -1.32591,-0.83193z" fill="#000000" stroke="none" stroke-linecap="butt"/><path d="M257.576,182.62611l0.66334,-1.0791c0.71334,-1.44589 3.47708,-0.0014 4.81211,-0.39043c1.33205,-0.38817 1.77055,-0.90106 2.35702,-2.10418c0.21414,-0.43929 0.08287,-1.43413 0.57028,-1.3987c0.65133,0.04735 2.05289,0.9755 2.74837,1.25793c0,0 0.75698,0.30716 1.23427,-0.25668c0.91656,1.59113 1.57104,3.27932 1.6092,5.01457c0.01119,0.50894 -1.01515,0.09433 -1.52416,0.10274c-0.83941,0.01388 -2.31941,0.16598 -3.22516,0.34279c-2.12693,0.41521 -4.28621,1.24696 -6.43947,1.49296c-3.02635,0.34575 -5.88985,0.31153 -8.90045,0.97359c-1.14633,0.26241 -2.59914,0.39432 -3.69418,0.84058c-0.13801,0.05625 -0.25193,0.18172 -0.36723,0.29442c-0.17124,-0.03254 -0.32717,-0.02472 -0.42058,-0.01367c0.05915,-0.11265 0.14427,-0.24334 0.17244,-0.33348c0.25983,-0.83155 0.49307,-1.40253 0.57716,-2.32587c0.18214,-1.9998 0.45177,-3.28207 1.25036,-5.15608l0.40112,-1.28107c0,0 0.09668,-0.30967 0.01953,-0.64455c2.35223,-0.59519 4.8532,-0.89343 7.06897,-1.77407c2.91726,-1.15944 6.22535,-2.25215 9.03382,-3.71102c0.86165,1.1933 1.92794,2.4928 2.91541,3.85589c-0.98273,-0.46515 -2.26772,-0.97153 -2.8586,-0.83367c-2.37438,0.55399 -1.23001,3.09592 -3.03643,3.51351c-1.65346,0.38223 -3.37941,-0.79409 -5.11181,0.12436c-0.47335,0.25095 -0.65578,0.80367 -0.99326,1.21979l-0.71311,1.11529c0,0 -0.59855,0.92275 0.33901,1.51101c0.93756,0.58826 1.51201,-0.35687 1.51201,-0.35687z" data-paper-data="{&quot;noHover&quot;:false,&quot;origItem&quot;:[&quot;Path&quot;,{&quot;applyMatrix&quot;:true,&quot;segments&quot;:[[[246.75184,180.81066],[1.06066,1.06066],[-1.06066,-1.06066]],[246.75184,178.68934],[[248.03345,177.40864],[0,0],[0.57167,-0.44765]],[[249.74846,176.06569],[-0.70122,0.18837],[2.56634,-0.68938]],[[256.50264,177.50119],[-2.29989,0.0049],[2.51266,-0.00535]],[[261.67271,173.75405],[-3.30421,0.01378],[0.82226,-0.00343]],[[265.10107,175.74634],[-1.15756,-0.91168],[-0.89226,-2.09936]],[[262.42406,169.79119],[0.7774,1.83699],[-4.15134,1.0779]],[[249.41602,171.98249],[4.20449,-0.64944],[-3.19347,0.49328]],[[239.57731,172.16332],[3.28741,-0.0749],[0.00064,0.46571]],[239.35817,173.00581],[[238.44348,174.57007],[0,0],[-1.62172,2.23415]],[[235.23372,180.97973],[0.8454,-2.58674],[-0.39033,1.19433]],[[233.76599,183.87063],[0.59473,-1.01994],[-0.06447,0.11057]],[[233.43711,184.25835],[0.1122,-0.13092],[0.12674,0.01364]],[[233.98826,184.40273],[-0.21637,-0.09477],[0.18643,-0.11403]],[[234.5625,184.125],[-0.19932,0.03257],[1.58155,-0.25836]],[[239.69378,184.12502],[-1.59372,-0.00001],[4.17738,0.03586]],[[251.69334,185.50572],[-4.10252,-0.45849],[2.91897,0.32622]],[[260.62007,185.50111],[-2.93534,-0.09473],[1.25002,0.04034]],[[264.981,186.029],[-1.1131,-0.23553],[0.67496,0.14282]],[[267.02473,186.35582],[-0.13913,0.67572],[0.47437,-2.3039]],[[266.41045,179.26331],[0.72962,2.37916],[-0.80104,0.6005]],[[264.70231,179.22885],[0,0],[-0.83335,-0.58343]],[[261.45229,176.74595],[0.84613,0.25953],[-0.6332,-0.19422]],[[260.37548,178.4158],[0.41574,-0.51557],[-1.13862,1.41202]],[[256.62236,180.49881],[1.8771,-0.10995],[-1.88129,0.11019]],[[250.09155,179.59136],[1.37962,-1.69436],[0,0]],[248.87316,180.81066]],&quot;closed&quot;:true}]}" fill="#ffffff" stroke="none" stroke-linecap="butt"/><path d="M256.0625,181.75l0.25,0.875" fill="none" stroke="#000000" stroke-linecap="round"/></g></g></svg>