<svg version="1.1" xmlns="http://www.w3.org/2000/svg" xmlns:xlink="http://www.w3.org/1999/xlink" width="29.51372" height="16.86563" viewBox="0,0,29.51372,16.86563"><g transform="translate(-233.28755,-170.29494)"><g data-paper-data="{&quot;isPaintingLayer&quot;:true}" fill-rule="nonzero" stroke-linejoin="miter" stroke-miterlimit="10" stroke-dasharray="" stroke-dashoffset="0" style="mix-blend-mode: normal"><path d="M255.4375,176l-0.93031,-0.23451c-0.45833,-0.29167 -0.91667,-0.58333 -1.375,-0.875c0,0 -0.11581,-0.0737 -0.25507,-0.21154c-3.96267,-1.43061 -8.8939,-1.13912 -13.20056,-0.06717c-0.06069,0.13734 -0.11597,0.22026 -0.11597,0.22026l-0.25326,0.04252c-0.12584,1.49388 -0.53876,3.69726 0.37651,5.04077c0.98456,1.44521 3.24532,1.93247 4.78816,2.23689c2.05378,0.40523 4.06876,0.9624 6.11499,1.40087c0.23813,0.03145 0.47941,0.05749 0.72508,0.07709l0.37543,-0.00518c0,0 0.53302,0 0.96358,0.31774c0.46935,0.0744 0.9415,0.13811 1.41725,0.18798c1.51385,0.15869 6.00694,0.45171 5.7554,-1.82244c-0.74897,-2.91354 -2.29765,-4.95253 -4.31675,-6.31157c-0.04413,0.0033 -0.06949,0.0033 -0.06949,0.0033zM241.43751,184.625h-0.125c-2.3233,-0.02586 -4.28614,-0.84758 -6.47434,-1.57698c0,0 -1.10506,-0.36835 -1.04297,-1.42967l-0.31857,-0.02655c-0.02559,-0.1098 -0.03912,-0.22422 -0.03912,-0.34181c0,-0.82843 0.67157,-1.5 1.5,-1.5c0.20896,0 0.40793,0.04273 0.58867,0.11992l1.00634,0.40254c-0.48737,-1.43509 -0.4234,-3.07317 -0.30308,-4.59307c-0.28824,0.10809 -0.5704,0.2191 -0.84581,0.33263c0,0 -1.38702,0.57112 -1.95814,-0.81589c-0.57112,-1.38702 0.81589,-1.95814 0.81589,-1.95814c4.93443,-2.02964 12.04681,-3.85791 17.44176,-2.44147c5.28232,1.38687 9.85331,5.98442 11.11813,11.14521c-0.23271,5.95021 -6.7426,5.56102 -11.2424,4.78667c-0.31142,-0.05359 -0.63601,-0.10521 -0.97136,-0.15627c-0.41482,-0.04734 -0.82065,-0.1084 -1.22224,-0.17983c-0.98019,-0.14172 -2.0201,-0.29158 -3.07005,-0.4785c-1.48094,-0.6391 -2.89769,-1.04698 -4.3374,-1.38225c-0.28457,0.09346 -0.52031,0.09346 -0.52031,0.09346z" fill="#000000" stroke="none" stroke-width="0.5" stroke-linecap="butt"/><path d="M239.63087,174.59145c7.87235,-1.95948 17.92492,-1.27544 20.24046,7.73216c0.25154,2.27415 -4.25587,2.00312 -5.76972,1.84443c-3.2817,-0.344 -6.46725,-1.35668 -9.67179,-1.98897c-1.54284,-0.30442 -3.81119,-0.81373 -4.79575,-2.25894c-0.91527,-1.34351 -0.49896,-3.57039 -0.37312,-5.06427l0.2535,-0.0431c0,0 0.05574,-0.08398 0.11643,-0.22133z" data-paper-data="{&quot;noHover&quot;:false,&quot;origItem&quot;:[&quot;Path&quot;,{&quot;applyMatrix&quot;:true,&quot;segments&quot;:[[[468.10311,349.22355],[0,0],[-0.12138,0.2747]],[467.87117,349.66409],[[467.36465,349.74913],[0,0],[-0.25168,2.98776]],[[468.11767,359.83067],[-1.83054,-2.68702],[1.96912,2.89042]],[[477.69399,364.30445],[-3.08568,-0.60884],[6.40908,1.26458]],[[496.88667,368.26143],[-6.5634,-0.688],[3.0277,0.31738]],[[508.39747,364.61655],[0.50308,4.5483],[-4.63108,-18.0152]],[[468.10309,349.22357],[15.7447,-3.91896],[0,0]]],&quot;closed&quot;:true,&quot;fillColor&quot;:[0,0,0,1],&quot;strokeWidth&quot;:0.5}]}" fill="#ea0000" stroke="none" stroke-width="0.25" stroke-linecap="butt"/><path d="M255.6782,175.94648c2.77482,0.98854 6.50581,5.71098 4.2756,8.15677c-0.56341,0.61787 -1.62474,0.41273 -2.45395,0.52046c-2.00166,0.26003 -4.45263,0.06292 -6.40979,-0.39029c-0.10468,-0.02424 -0.21287,-0.04334 -0.32336,-0.05915c-0.05373,0.05098 -0.11329,0.10131 -0.17919,0.15074c-1.2,0.9 -2.1,-0.3 -2.1,-0.3l-0.20144,-0.56379c-0.23365,-0.28201 -0.32742,-0.62953 -0.35896,-1.00462l-0.06981,-0.19539c0.02065,-0.07221 0.03919,-0.14536 0.05632,-0.21913c0.00392,-0.47453 0.0585,-0.96965 0.02389,-1.41707c-0.33516,-4.33287 2.43036,-6.48413 6.4966,-5.85459c0,0 1.09542,0.18257 1.24409,1.17607z" fill="#ea0000" stroke="none" stroke-width="0.5" stroke-linecap="butt"/><path d="M246.6875,183.75l6.5,1.5" fill="none" stroke="#000000" stroke-width="0.5" stroke-linecap="round"/><path d="M247.4375,183.5l7.375,2" fill="none" stroke="#000000" stroke-width="0.5" stroke-linecap="round"/><path d="M254.8125,174.125l2.5,1.625" fill="none" stroke="#000000" stroke-width="0.5" stroke-linecap="round"/></g></g></svg>