<svg version="1.1" xmlns="http://www.w3.org/2000/svg" xmlns:xlink="http://www.w3.org/1999/xlink" width="26.05028" height="21.13323" viewBox="0,0,26.05028,21.13323"><g transform="translate(-233.71341,-172.28539)"><g data-paper-data="{&quot;isPaintingLayer&quot;:true}" fill-rule="nonzero" stroke="none" stroke-width="0.5" stroke-linecap="butt" stroke-linejoin="miter" stroke-miterlimit="10" stroke-dasharray="" stroke-dashoffset="0" style="mix-blend-mode: normal"><path d="M249.50867,184.84502c-1.22555,-0.86488 -0.36067,-2.09043 -0.36067,-2.09043l0.69781,-0.96873c0.65031,-0.55655 1.11088,-1.50545 1.95093,-1.66964c0.56111,-0.10967 3.24391,0.95984 4.75162,1.41562c-0.27047,-1.74384 -0.78868,-3.39961 -1.69843,-4.49424c-0.68949,-0.8296 -3.5498,-0.69075 -4.45684,-0.91656c-3.22103,-0.80187 -5.79259,-0.60604 -9.01393,-0.3291l-0.06157,0.14925c-0.86043,2.01923 0.77724,3.49771 1.31336,5.52659c0.68336,2.58608 1.37057,4.48898 3.05075,6.69096c1.98738,2.60457 7.23375,3.21391 9.879,1.29145c0.71213,-0.51755 0.74638,-1.59571 1.16453,-2.37041c0.05479,-0.70089 0.08619,-1.52286 0.07374,-2.39861c-1.62259,-0.1897 -2.53709,-0.15227 -4.01774,-0.99164c-0.22646,-0.12837 -0.22301,-0.65784 -0.47994,-0.61605c-0.25348,0.04123 -0.15857,0.48854 -0.23786,0.7328l-0.46433,0.67807c0,0 -0.86488,1.22555 -2.09043,0.36067zM238.22702,176.01923c-0.64057,0.14212 -1.23875,0.45241 -1.95241,1.16742c0,0 -1.09228,1.02808 -2.12035,-0.06421c-1.02808,-1.09228 0.06421,-2.12035 0.06421,-2.12035c3.93661,-3.55716 12.06414,-3.00603 16.89486,-1.79332c1.94694,0.48876 4.3683,0.19897 5.93304,1.78538c2.81367,2.85264 2.94684,9.32748 2.55628,12.9344c-0.17621,0.35031 -1.69405,3.49297 -2.0878,3.79785c-0.71933,0.55698 -3.39729,1.28594 -4.44441,1.48263c-7.51692,1.41193 -11.70354,-4.53813 -13.34805,-11.00616c-0.64783,-2.54797 -1.8767,-3.80299 -1.49537,-6.18365z" fill="#000000"/><path d="M251.56682,184.44616l0.45645,-0.66965c0.07928,-0.24426 -0.02122,-0.68192 0.23226,-0.72315c0.25694,-0.04179 0.25555,0.48352 0.48201,0.6119c1.48065,0.83936 2.48544,0.8444 4.10803,1.03409c0.01245,0.87576 -0.02488,1.70866 -0.07968,2.40955c-0.41815,0.77469 -0.46145,1.86248 -1.17359,2.38004c-2.64525,1.92246 -7.94771,1.31795 -9.93508,-1.28662c-1.68018,-2.20198 -2.39286,-4.15056 -3.07622,-6.73665c-0.53612,-2.02888 -2.16424,-3.5347 -1.30381,-5.55394l0.06204,-0.14988c3.22134,-0.27694 5.8425,-0.49175 9.06353,0.31012c0.90705,0.22581 3.79585,0.10372 4.48534,0.93332c0.90976,1.09462 1.43977,2.78122 1.71024,4.52506c-1.50771,-0.45578 -4.28242,-1.49657 -4.84353,-1.3869c-0.84005,0.16419 -1.2088,1.08922 -1.85911,1.64577l-0.75442,1.0149c0,0 -0.86175,1.12614 0.3638,1.99102c1.22555,0.86488 2.06175,-0.34898 2.06175,-0.34898z" data-paper-data="{&quot;noHover&quot;:false,&quot;origItem&quot;:[&quot;Path&quot;,{&quot;applyMatrix&quot;:true,&quot;selected&quot;:true,&quot;segments&quot;:[[[242.72088,182.05763],[0.87106,1.22117],[-0.87106,-1.22117],7],[[243.07099,179.9654],[0,0],[0,0],7],[[244.04963,179.28156],[0,0],[0.79765,-0.31049],7],[[246.44258,178.3501],[-0.84713,-0.12252],[0.56584,0.08184],7],[[250.45984,181.25587],[-1.27252,-0.92824],[0.32076,-1.73529],7],[[250.34135,176.45287],[0.4971,1.3337],[-0.37674,-1.01079],7],[[246.43747,174.11552],[0.78154,0.51276],[-2.77533,-1.82087],7],[[238.03825,170.82731],[3.13199,0.80272],[0,0],7],[[237.93084,170.94783],[0,0],[-1.47915,1.62165],7],[[237.34485,176.59803],[0.16418,-2.09209],[-0.20927,2.66664],7],[[238.01411,183.92115],[-0.85848,-2.63339],[1.01544,3.11486],7],[[246.91195,188.40346],[-3.13181,0.94073],[0.84312,-0.25326],7],[[248.79412,186.55081],[-0.65058,0.59308],[0.28324,-0.64345],7],[[249.65606,184.3112],[-0.27754,0.83071],[-1.46884,-0.71504],7],[[246.19143,182.04804],[1.12026,1.28135],[-0.17134,-0.19597],7],[[245.94194,181.30803],[0.25632,0.04543],[-0.25287,-0.04482],7],[[245.47537,181.92112],[0.15552,-0.20436],[0,0],7],[[244.81311,182.40773],[0,0],[0,0],7]],&quot;closed&quot;:true}]}" fill="#f5f5f5"/></g></g></svg>