<svg version="1.1" xmlns="http://www.w3.org/2000/svg" xmlns:xlink="http://www.w3.org/1999/xlink" width="18.56487" height="23.00599" viewBox="0,0,18.56487,23.00599"><g transform="translate(-243.80642,-171.78752)"><g data-paper-data="{&quot;isPaintingLayer&quot;:true}" fill-rule="nonzero" stroke="none" stroke-linecap="butt" stroke-linejoin="miter" stroke-miterlimit="10" stroke-dasharray="" stroke-dashoffset="0" style="mix-blend-mode: normal"><path d="M256.83333,180.5c-4.36708,-0.0119 -6.71699,1.11198 -8.95429,4.58087l0.70643,1.43232c0.07102,0.43313 0.32504,1.12393 0.68673,1.85913c0.04203,0.03187 0.08463,0.06332 0.1278,0.09434c0,0 0.66393,0.49795 0.63371,1.24692c0.60478,0.92458 1.3144,1.70494 1.9628,1.87097c2.07038,0.53016 6.23528,-0.05498 7.12163,-2.50139c0.61427,-1.69544 0.21519,-4.30719 0.21519,-6.08316c0.00238,-0.87248 0.01613,-1.91621 -0.06324,-2.93683c-0.17314,0.17019 -0.37886,0.27407 -0.56549,0.33748c-0.16699,0.06417 -0.34836,0.09935 -0.53794,0.09935zM256.83333,177.5h1.33333c0.18958,0 0.37095,0.03517 0.53794,0.09935c0.03268,0.0111 0.06595,0.02345 0.09953,0.03718c-0.01058,-0.02852 -0.02136,-0.05683 -0.03236,-0.08491c-1.08246,-2.76393 -6.11508,-3.58834 -8.44604,-1.96601c-1.85076,1.28812 -3.10325,3.55443 -3.46427,5.90793c2.50946,-2.83059 5.51903,-3.98281 9.97186,-3.99352zM246.91102,190.27803c-4.82799,-4.55523 -3.86127,-13.53766 1.76324,-17.19696c4.06358,-2.64376 10.95426,-1.0946 12.8873,3.36732c0.79576,1.83681 0.76705,4.58934 0.77177,6.55161c0,3.44903 0.49916,6.7275 -2.1227,9.41043c-4.21223,4.31033 -10.5351,2.27362 -13.29961,-2.1324z" fill="#000000" stroke-width="0.5"/><path d="M256.88272,177.49229c-4.45283,0.01071 -7.55535,1.19522 -10.06481,4.02581c0.36102,-2.3535 1.62195,-4.67996 3.47271,-5.96808c2.33096,-1.62233 7.44847,-0.76715 8.53093,1.99678c0.011,0.02808 0.02185,0.05712 0.03243,0.08564c-0.03358,-0.01373 -0.16648,-0.01752 -0.19916,-0.02862c-0.16699,-0.06418 -0.34822,-0.09799 -0.5378,-0.09799l-1.33307,0.0019z" data-paper-data="{&quot;noHover&quot;:false,&quot;origItem&quot;:[&quot;Path&quot;,{&quot;applyMatrix&quot;:true,&quot;segments&quot;:[[256.83333,177.5],[[258.16666,177.5],[0,0],[0.18958,0]],[[258.7046,177.59935],[-0.16699,-0.06418],[0.03268,0.0111]],[[258.80413,177.63653],[-0.03358,-0.01373],[-0.01058,-0.02852]],[[258.77177,177.55162],[0.011,0.02808],[-1.08246,-2.76393]],[[250.32573,175.58561],[2.33096,-1.62233],[-1.85076,1.28812]],[[246.86146,181.49354],[0.36102,-2.3535],[2.50946,-2.83059]],[[256.83332,177.50002],[-4.45283,0.01071],[0,0]]],&quot;closed&quot;:true,&quot;fillColor&quot;:[0,0,0],&quot;strokeWidth&quot;:0.5}]}" fill="#ebebeb" stroke-width="0.25"/><path d="M247.98908,186.30525c-0.10049,-0.14238 -0.19931,-0.28587 -0.29638,-0.43046c0.51912,-1.01526 0.75739,-2.2332 1.55737,-3.04578c0.14267,-0.14492 0.44203,-0.29945 0.8388,-0.44763c0.38861,-0.5694 0.85991,-1.11437 1.65827,-1.64042c1.1087,-0.73054 2.50984,-0.94768 3.82913,-1.09724c0.95664,-0.10845 1.99122,-0.79004 2.86301,-0.38149c2.06831,0.96927 1.74821,4.23513 1.74821,5.98777c0,0.78498 0.06187,3.01123 -0.26423,3.63112c-0.884,1.68041 -2.89564,2.6528 -4.88612,2.74177c-2.43384,1.6083 -6.39214,-0.1176 -7.10336,-2.90702c-0.19892,-0.78018 -0.03891,-1.59894 0.05529,-2.41063z" fill="#ea0000" stroke-width="0.5"/></g></g></svg>