<svg version="1.1" xmlns="http://www.w3.org/2000/svg" xmlns:xlink="http://www.w3.org/1999/xlink" width="474.61997" height="212.43387" viewBox="0,0,474.61997,212.43387"><g transform="translate(-144.13226,-233.09646)"><g data-paper-data="{&quot;isPaintingLayer&quot;:true}" fill-rule="nonzero" stroke="none" stroke-linecap="butt" stroke-linejoin="miter" stroke-miterlimit="10" stroke-dasharray="" stroke-dashoffset="0" style="mix-blend-mode: normal"><path d="M166.87925,440.98596c14.98004,-0.0091 29.90348,0.06185 44.86444,-0.72557c31.44838,-1.65518 63.01355,-4.26038 94.5063,-4.26038c31.5,0 63,0 94.5,0c31.5,0 63,0 94.5,0c7.26651,0.00893 14.46314,-1.40318 21.65542,-2.40057c13.40205,-1.85854 26.78066,-3.71374 40.23309,-5.16805c4.47393,-0.48367 8.94786,-0.96734 13.4218,-1.451c2.73509,-0.29569 5.60947,0.11406 8.21803,-0.75975c0.57766,-0.1935 0.7755,-0.9414 1.19869,-1.37963c0.96748,-1.00187 1.98053,-1.95872 2.97079,-2.93807c1.29351,-2.41039 2.88886,-4.67677 3.91515,-7.21249c3.24703,-8.02267 4.78688,-17.35219 6.7011,-25.77478c4.21375,-18.54051 7.55864,-37.31777 8.67557,-56.30554c1.08237,-18.33187 0.23796,-36.92478 0.21207,-55.28913c-0.00634,-4.49728 -0.64228,-8.67592 -1.1635,-13.13395c-0.14626,-1.251 0.1828,-2.63033 -0.37423,-3.75998c-0.55703,-1.12965 -1.83664,-1.72404 -2.75497,-2.58606c0,0 -0.42892,-0.42892 -0.61864,-1.06404c-0.92562,-0.31453 -1.84995,-0.62064 -2.77343,-0.9101c-11.2754,-3.53532 -22.56904,-7.09886 -34.46041,-8.12519c-1.77543,-0.15324 -7.54815,0.20229 -9.16087,-0.01974c-8.43143,-1.16081 -16.30134,-6.41144 -24.65153,-8.05586c-7.0693,-1.39217 -14.97406,-1.0723 -22.16919,-1.59558c-11.54242,-0.84334 -23.25123,-0.32048 -34.82494,-0.32048c-19.16667,0 -38.33333,0 -57.5,0c-30.4624,0 -60.9251,-0.03721 -91.38747,0.00892c-11.94887,0.01809 -23.98178,-0.38054 -35.92172,0.05303c-19.41891,0.70515 -38.88977,2.77027 -58.27414,4.15041c-18.27605,1.30123 -36.55326,2.49832 -54.83569,3.62788c0.14743,-1.51252 0.29363,-3.02418 0.43566,-4.53552c18.03054,-1.11574 36.05605,-2.29768 54.08043,-3.58099c19.43657,-1.38386 38.95913,-3.45176 58.43043,-4.15881c11.99229,-0.43547 24.07702,-0.03782 36.0782,-0.05599c30.46464,-0.04612 60.9296,-0.00892 91.39428,-0.00892c19.16667,0 38.33333,0 57.5,0c11.6846,0 23.49764,-0.51142 35.15135,0.33234c7.38131,0.53682 15.45745,0.23982 22.71227,1.66853c5.81446,1.14506 11.73495,3.82302 17.37223,5.66796c2.37576,0.77753 4.64066,2.02893 7.11849,2.35925c2.92055,0.38934 5.90366,-0.2731 8.83913,-0.01974c12.21176,1.05398 23.83655,4.68513 35.41939,8.31451c6.55746,2.05539 13.38586,5.23983 20.2079,5.65971l0.33228,0.02265c0,0 2.24479,0.15304 2.09174,2.39783l0.00002,-0.00001c-0.15304,2.24479 -2.39783,2.09174 -2.39783,2.09174l-0.33228,-0.02265c-3.61999,-0.26735 -7.18099,-1.18127 -10.70637,-2.30139c0.34242,1.33221 0.24337,2.8046 0.44144,4.17929l0.00003,-0.00002c0.66563,4.6197 1.19051,9.04367 1.20194,13.71223c0.04517,18.45455 0.85991,37.1398 -0.21983,55.5621c-1.13144,19.23448 -4.51124,38.25735 -8.7797,57.03858c-1.96811,8.65967 -3.5785,18.21488 -6.9179,26.46575c-0.16092,0.3976 -4.2356,7.77082 -4.48208,8.2184c-1.90973,1.92814 -3.29856,4.70555 -5.83052,5.68229c-0.59592,0.22989 -8.68869,1.06801 -9.67769,1.17493c-4.47393,0.48367 -8.94786,0.96734 -13.4218,1.451c-13.40751,1.44946 -26.7413,3.29913 -40.09863,5.15147c-7.40606,1.02704 -14.79056,2.43465 -22.27354,2.44323c-31.5,0 -63,0 -94.5,0c-31.5,0 -63,0 -94.5,0c-31.41354,0 -62.90044,2.60314 -94.26979,4.25416c-15.039,0.79153 -30.0402,0.72264 -45.09823,0.73179c-7.34177,0.00446 -14.9988,-0.61936 -22.30976,0.0055c-0.14661,0.01253 -0.29327,0.02549 -0.43997,0.03887c0.09004,-1.24811 0.19858,-2.49075 0.33521,-3.7254c0.03054,-0.276 0.06155,-0.55194 0.09301,-0.82782c7.32684,-0.58476 14.97294,0.01332 22.31877,0.00885z" fill="#ff9c9c" stroke-width="0.5"/><path d="M226.39461,241.91753c19.38437,-1.38014 38.87999,-3.45031 58.2989,-4.15546c11.93994,-0.43357 23.98786,-0.03177 35.93673,-0.04986c30.46237,-0.04613 60.94583,0.00591 91.40823,0.00591c19.16667,0 38.33811,0.00685 57.50478,0.00685c11.57371,0 23.28418,-0.51974 34.8266,0.3236c7.19513,0.52328 15.10076,0.20528 22.17006,1.59745c8.35019,1.64442 16.22121,6.89781 24.65264,8.05862c1.61272,0.22203 7.38562,-0.133 9.16105,0.02024c11.89137,1.02633 23.18591,4.59265 34.46131,8.12797c0.92348,0.28946 1.84788,0.59581 2.7735,0.91034c0.18972,0.63512 0.61869,1.06421 0.61869,1.06421c0.91833,0.86202 2.19807,1.45688 2.7551,2.58653c0.55703,1.12965 0.22811,2.50952 0.37437,3.76052c0.52122,4.45803 1.15762,8.63858 1.16396,13.13586c0.02589,18.36435 0.8714,36.96555 -0.21097,55.29742c-1.11693,18.98777 -4.46217,37.77385 -8.67592,56.31436c-1.91422,8.42259 -3.45478,17.75624 -6.70181,25.77891c-1.02629,2.53572 -2.62192,4.80333 -3.91543,7.21372c-0.99026,0.97935 -2.00345,1.93675 -2.97093,2.93862c-0.42319,0.43823 -0.6211,1.18638 -1.19876,1.37988c-2.60856,0.87381 -5.48306,0.46451 -8.21815,0.7602c-4.47394,0.48366 -8.9481,0.96814 -13.42203,1.45181c-13.45243,1.45431 -26.83202,3.31254 -40.23407,5.17108c-7.19228,0.99739 -14.38964,2.41141 -21.65615,2.40248c-31.5,0 -63.00573,0.01041 -94.50573,0.01041c-31.5,0 -63.02562,0.01854 -94.52562,0.01854c-31.49275,0 -63.10236,2.59791 -94.55074,4.25309c-14.96096,0.78742 -29.89346,0.70795 -44.8735,0.71705c-7.33302,0.00446 -14.96785,-0.59493 -22.28313,-0.01542c2.66804,-23.41986 8.59007,-46.44608 10.5592,-69.95643c0.78064,-9.36762 1.28101,-18.82057 2.34047,-28.16027c1.21024,-10.66901 4.18146,-21.28061 5.98055,-31.86964c3.22674,-18.99183 5.5661,-38.27218 7.37074,-57.44641c0.25192,-2.67667 0.51593,-5.34781 0.77601,-8.0163c18.27534,-1.13358 36.54652,-2.33553 54.81005,-3.63587z" data-paper-data="{&quot;noHover&quot;:false,&quot;origItem&quot;:[&quot;Path&quot;,{&quot;applyMatrix&quot;:true,&quot;segments&quot;:[[[-33,448.25],[0,0],[0,2.25]],[-35.25,450.5],[[-36.25,450.5],[0,0],[-2.33333,0]],[[-43.25,450.5],[2.33256,0.06017],[-0.665,-0.01716]],[[-45.25,450.27839],[0.62273,-0.17897],[0,2.2489]],[[-45.25,457.02508],[0,-2.2489],[0.51536,0.53374]],[[-43.53344,458.42134],[-0.6401,-0.38403],[1.01598,0.60954]],[[-40.02829,459.01095],[-1.18108,-0.09383],[3.27309,0.26004]],[[-30.02297,458.65901],[-3.24393,0.46555],[12.59007,-1.80685]],[[7.54389,451.01232],[-12.62003,1.32702],[5.92384,-0.62291]],[[25.77763,450.98755],[-5.96046,0.00412],[13.46956,-0.00861]],[[66.19747,449.92705],[-13.46378,0.39599],[10.40312,-0.30597]],[[97.52614,449.01117],[-10.37577,0.78964],[6.59162,-0.50165]],[[117.38898,445.59769],[-6.51949,1.11854],[8.82432,-1.51398]],[[144.18902,441.0078],[-8.91667,0.76209],[7.43959,-0.63585]],[[166.87925,440.98596],[-7.47006,0.00454],[14.98004,-0.0091]],[[211.74369,440.26039],[-14.96096,0.78742],[31.44838,-1.65518]],[[306.24999,436.00001],[-31.49275,0],[31.5,0]],[[400.74999,436.00001],[-31.5,0],[31.5,0]],[[495.24999,436.00001],[-31.5,0],[7.26651,0.00893]],[[516.90541,433.59944],[-7.19228,0.99739],[13.40205,-1.85854]],[[557.1385,428.43139],[-13.45243,1.45431],[4.47393,-0.48367]],[[570.5603,426.98039],[-4.47394,0.48366],[2.73509,-0.29569]],[[578.77833,426.22064],[-2.60856,0.87381],[0.57766,-0.1935]],[[579.97702,424.84101],[-0.42319,0.43823],[0.96748,-1.00187]],[[582.94781,421.90294],[-0.99026,0.97935],[1.29351,-2.41039]],[[586.86296,414.69045],[-1.02629,2.53572],[3.24703,-8.02267]],[[593.56406,388.91567],[-1.91422,8.42259],[4.21375,-18.54051]],[[602.23963,332.61013],[-1.11693,18.98777],[1.08237,-18.33187]],[[602.4517,277.321],[0.02589,18.36435],[-0.00634,-4.49728]],[[601.2882,264.18705],[0.52122,4.45803],[-0.14626,-1.251]],[[600.91397,260.42707],[0.55703,1.12965],[-0.55703,-1.12965]],[[598.159,257.84101],[0.91833,0.86202],[0,0]],[[597.54036,256.77697],[0.18972,0.63512],[-0.92562,-0.31453]],[[594.76693,255.86687],[0.92348,0.28946],[-11.2754,-3.53532]],[[560.30652,247.74168],[11.89137,1.02633],[-1.77543,-0.15324]],[[551.14565,247.72194],[1.61272,0.22203],[-8.43143,-1.16081]],[[526.49412,239.66608],[8.35019,1.64442],[-7.0693,-1.39217]],[[504.32493,238.0705],[7.19513,0.52328],[-11.54242,-0.84334]],[[469.49999,237.75002],[11.57371,0],[-19.16667,0]],[[411.99999,237.75002],[19.16667,0],[-30.4624,0]],[[320.61252,237.75894],[30.46237,-0.04613],[-11.94887,0.01809]],[[284.6908,237.81197],[11.93994,-0.43357],[-19.41891,0.70515]],[[226.41666,241.96238],[19.38437,-1.38014],[-31.43616,2.23821]],[[132.07719,247.93896],[31.4637,-1.80826],[-10.48932,0.60283]],[[100.56456,249.7491],[10.50171,-0.30152],[-20.98208,0.60244]],[[37.49998,249.75003],[20.99194,0],[-19,0]],[[-19.50002,249.75003],[19,0],[-4.49558,0]],[[-33.00002,249.75003],[4.49447,0.09458],[-1.21406,-0.02555]],[[-36.63898,249.57876],[1.17141,-0.31999],[-0.63501,0.17347]],[[-37.90903,251.09102],[0.42335,-0.50409],[0,0]],[[-38.96513,251.70727],[0.63076,-0.19091],[-2.35744,9.42071]],[[-42.14978,280.54086],[0.27513,-9.77631],[-0.14915,5.29993]],[[-42.26167,296.7288],[0.67271,-5.25721],[-0.56931,4.4491]],[[-44.91049,309.97857],[0.47953,-4.45669],[-0.4654,4.32541]],[[-45.12703,323.27411],[0.07387,-4.35151],[-0.51313,30.22901]],[[-45.25001,414.00003],[0,-30.23365],[0,10.58116]],[[-45.25001,445.7435],[0,-10.58115],[2.84757,-0.35272]],[[-36.25001,446.00003],[-2.56816,0],[0,0]],[-35.25001,446.00003],[[-33.00001,448.25003],[0,-2.25],[0,0]]],&quot;closed&quot;:true,&quot;fillColor&quot;:[0,0,0],&quot;strokeWidth&quot;:0.5}]}" fill="#00e3e3" stroke-width="0.25"/></g></g></svg>