<svg version="1.1" xmlns="http://www.w3.org/2000/svg" xmlns:xlink="http://www.w3.org/1999/xlink" width="230.16012" height="177.97283" viewBox="0,0,230.16012,177.97283"><g transform="translate(-149.88642,-78.81133)"><g data-paper-data="{&quot;isPaintingLayer&quot;:true}" fill-rule="nonzero" stroke="none" stroke-linecap="butt" stroke-linejoin="miter" stroke-miterlimit="10" stroke-dasharray="" stroke-dashoffset="0" style="mix-blend-mode: normal"><path d="M233.44818,214.63167c2.222,0.50522 3.34641,0.48949 5.37341,2.99383c-0.09074,1.85323 -0.66732,3.41119 -1.5414,4.50578c-0.19731,-0.05307 -0.38902,-0.10106 -0.57084,-0.1473l0.15359,-0.083c0,0 -0.83289,-0.81111 -1.65418,0.01018c-0.82129,0.82129 -0.04559,1.55404 -0.04559,1.55404l0.18355,0.20075c-1.93444,0.89419 -4.47019,0.52142 -6.75398,-1.43758c-0.57349,-0.49194 -0.75144,-2.05169 -0.75029,-3.80222c0.15151,-0.00627 1.14536,-0.10177 1.14536,-1.17442c0,-0.95545 -0.78359,-1.13007 -1.06244,-1.16014c0.04744,-0.81426 0.11792,-1.6146 0.17237,-2.30173c0.07219,0.0084 0.11706,0.00802 0.11706,0.00802c0.52766,-0.00419 1.06626,0.01133 1.58939,0.08468c0.21607,0.1611 0.46924,0.21622 0.61919,0.23632l0.91987,0.97058c0,0 0.90417,0.87841 1.78806,-0.00548c0.15226,-0.15226 0.25599,-0.30457 0.31689,-0.45231z" data-paper-data="{&quot;noHover&quot;:false,&quot;origItem&quot;:[&quot;Path&quot;,{&quot;applyMatrix&quot;:true,&quot;segments&quot;:[[[466.26777,430.26777],[0.30452,-0.30452],[-1.76777,1.76777]],[462.73223,430.26777],[[460.89827,428.32338],[0,0],[-0.2999,-0.04022]],[[459.66545,427.84713],[0.43214,0.3222],[-1.04627,-0.14669]],[[456.5,427.66667],[1.05532,-0.00837],[0,0]],[[456.26662,427.64988],[0.14439,0.01679],[-0.1089,1.37426]],[[455.93907,432.22991],[0.09488,-1.62851],[0.5577,0.06014]],[[458.06869,434.53989],[0,-1.9109],[0,2.1453]],[[455.78441,436.86183],[0.30302,-0.01254],[-0.0023,3.50106]],[[457.26773,444.39985],[-1.14698,-0.98388],[4.56758,3.918]],[[470.65411,447.23989],[-3.86888,1.78838],[0,0]],[470.36393,447.02301],[[470.36393,443.73783],[-1.64258,1.64258],[1.64258,-1.64258]],[473.64909,443.73783],[[473.34425,443.90113],[0,0],[0.36366,0.09248]],[[474.48247,444.19981],[-0.39462,-0.10614],[1.74816,-2.18916]],[[477.54599,435.27449],[-0.18148,3.70646],[-4.05399,-5.00869]],[[466.89369,429.36324],[4.444,1.01044],[-0.1218,0.29548]]],&quot;closed&quot;:true}]}" fill="#ffffff" stroke-width="0.5"/><path d="M246.54103,214.09407c0.16492,0.61452 0.8339,0.8383 0.8339,0.8383l0.16837,-0.00185c0.38889,0.27778 0.77628,0.55631 1.16517,0.83409c0,0 0.06282,0.04515 0.16872,0.09709c0.24777,0.42744 0.75781,0.55561 0.75781,0.55561c1.63242,-0.04434 3.73399,5.47887 1.30334,6.85628c-2.92349,1.65669 -7.8715,0.47911 -11.60663,-0.54637c1.06708,-1.64629 1.7019,-3.66251 1.64966,-5.77475c-2.9995,-4.22418 -4.66141,-3.57252 -9.07368,-5.04327l-0.36584,-0.00454l-0.03317,-0.0318c-1.06815,-0.2891 -2.18345,-0.49357 -3.29001,-0.50055c0,0 -0.03881,-0.00014 -0.10252,0.00666c-0.1324,-0.31204 -0.42343,-0.65418 -1.05173,-0.65418c-1.16148,0 -1.09318,1.08845 -1.09318,1.08845c0,1.09282 -0.19966,2.65646 -0.2816,4.23737c-4.21161,-0.41613 -7.0202,-2.23925 -9.23659,-6.67826c2.24685,-0.02427 4.11433,-0.2722 4.67203,-0.79388c0.72084,-0.67427 0.84037,-1.78919 1.26159,-2.68183c0.08677,-7.32087 -1.55401,-9.61431 -8.50124,-11.41368l0.00002,-0.06197c-0.01036,-0.29821 -0.02045,-0.59812 -0.03081,-0.89633c1.21237,-2.35041 3.44702,-4.74855 6.17036,-6.87233l0.20783,0.42365c0,0 0.28018,1.05279 1.38206,0.68548c1.10188,-0.3673 0.73671,-1.47261 0.73671,-1.47261l-0.34399,-0.99511c-0.00068,-0.02824 -0.00137,-0.05656 -0.00229,-0.08468c5.08291,-3.45426 11.32943,-5.94894 15.93032,-5.93081c0,0 0.61139,-0.00011 0.94746,-0.44088c1.23037,0.00647 3.12761,-0.05891 3.36105,-0.68981c0.34422,-0.93028 -0.58302,-1.85077 -1.19554,-2.63098c-0.37801,-0.4815 -2.14954,-0.65548 -1.59221,-0.90869l0.82997,-0.38392c0,0 0.12861,-0.05484 0.28088,-0.17069c1.53813,1.8735 3.23652,3.66116 5.14509,5.33082c2.5531,2.2335 11.18142,8.63024 10.72746,2.36335c-1.16287,-3.43861 -2.48422,-6.86293 -3.77169,-10.32797c0.41379,0 0.87481,-0.08813 1.2886,-0.08813c0.29654,0.59707 1.0436,0.59808 1.0436,0.59808c2.98237,0 7.58068,3.68574 8.89764,6.50082c0.15149,0.32383 0.27779,0.72023 0.37559,1.16352c-0.19788,0.17082 -0.35365,0.44124 -0.35365,0.86724c0,0.58859 0.29935,0.88053 0.59359,1.02373c0.15693,3.19785 -0.73095,7.10902 -2.91154,6.7286l-0.77412,0.46625c-0.00006,-0.02628 -0.09232,-0.01387 -0.09232,-0.04014c0,0 0.0014,-1.15846 -1.16009,-1.15846c-1.16149,0 -1.07159,1.1177 -1.07159,1.1177c0,8.91072 5.28434,20.23622 -7.12346,23.29766c-0.46892,-0.00291 -0.94013,-0.00392 -1.40905,-0.00682l-1.55164,0.00211c0,0 -0.28698,0.00089 -0.57492,0.14248c-0.16021,-0.07464 -0.33991,-0.11571 -0.5283,-0.11571c-0.69036,0 -1.25452,0.56193 -1.25452,1.25229c0,0.41779 0.16421,0.69638 0.47907,0.92336z" data-paper-data="{&quot;noHover&quot;:false,&quot;origItem&quot;:[&quot;Path&quot;,{&quot;applyMatrix&quot;:true,&quot;segments&quot;:[[[492.08333,426.25],[0,0.83557],[0,-1.38071]],[[494.58333,423.75],[-1.38071,0],[0.37679,0]],[[495.63787,423.98264],[-0.32042,-0.14928],[0.57587,-0.28319]],[496.78487,423.69945],[[499.88217,423.69945],[0,0],[0.93784,0.0058]],[[502.69563,423.71685],[-0.93784,-0.00582],[24.8156,-6.12288]],[[516.91727,377.24007],[0,17.82144],[0,0]],[[519.24025,374.91711],[-2.32298,0],[2.32298,0]],[[521.56321,377.24007],[0,0],[0,0.05254]],[[521.56341,377.39773],[-0.00012,-0.05256],[0,0]],[[523.11187,376.46573],[0,0],[4.36118,0.76084]],[[528.94281,363.02347],[0.31386,6.3957],[-0.58848,-0.2864]],[[527.75781,360.97927],[0,1.17718],[0,-0.852]],[[528.46607,359.24613],[-0.39576,0.34164],[-0.1956,-0.88658]],[[527.71711,356.92207],[0.30298,0.64766],[-2.63392,-5.63016]],[[509.94839,343.94415],[5.96474,0],[0,0]],[[507.86463,342.75],[0.59307,1.19415],[-0.82759,0]],[[505.38185,342.75],[0.82759,0],[2.57493,6.93006]],[[512.95299,363.42699],[-2.32574,-6.87722],[0.90792,12.53378]],[[491.39121,358.86245],[5.1062,4.467],[-3.81714,-3.33932]],[[481.12874,348.20642],[3.07625,3.747],[-0.30454,0.2317]],[480.56813,348.54786],[[478.91395,349.11582],[0,0],[-1.11466,0.50642]],[[482.10555,350.93353],[-0.75602,-0.963],[1.22503,1.56042]],[[484.47292,356.39395],[0.68844,-1.86056],[-0.46689,1.26179]],[[477.76786,357.77475],[2.46074,0.01294],[-0.67214,0.88154]],[[475.87811,358.65629],[0,0],[-9.20178,-0.03626]],[[444.09153,370.47695],[10.16582,-6.90852],[0.00184,0.05624]],[[444.09629,370.64605],[-0.00136,-0.05648],[0,0]],[444.78597,372.63383],[[443.31681,375.57217],[2.20376,-0.7346],[-2.20376,0.7346]],[440.37845,374.10301],[[440.13663,373.35463],[0,0],[-5.44668,4.24756]],[[427.80795,387.06561],[2.42474,-4.70082],[0.02072,0.59642]],[[427.87007,388.85487],[-0.02072,-0.59642],[0,0]],[[427.87007,388.97857],[0,0],[13.89446,3.59874]],[[444.86327,411.74951],[0.17354,-14.64174],[-0.84244,1.78528]],[[442.33589,417.10541],[1.44168,-1.34854],[-1.1154,1.04336]],[[432.99511,418.69907],[4.4937,-0.04854],[4.43278,8.87802]],[[451.43861,432.02069],[-8.42322,-0.83226],[0.16388,-3.16182]],[[451.87409,423.69939],[0,2.18564],[0,0]],[[454.19705,421.37643],[-2.32296,0],[1.25659,0]],[[456.29529,422.68026],[-0.2648,-0.62408],[0.12741,-0.01359]],[[456.5,422.66667],[0,0],[2.21312,0.01395]],[[463.06508,423.65783],[-2.1363,-0.57819],[0,0]],[463.13119,423.72129],[[463.86107,423.72941],[0,0],[8.82454,2.9415]],[[481.95351,433.80535],[-5.999,-8.44836],[0.10448,4.22448]],[[478.66289,445.35443],[2.13416,-3.29258],[7.47026,2.05096]],[[501.83493,446.45629],[-5.84698,3.31338],[4.86132,-2.75482]],[[499.31875,432.92193],[3.26484,-0.08868],[0,0]],[[497.80145,431.81161],[0.49554,0.85488],[-0.2118,-0.10389]],[[497.46357,431.61767],[0,0],[-0.77778,-0.55556]],[[495.13024,429.951],[0.77778,0.55556],[0,0]],[494.79276,429.95504],[[493.12297,428.27935],[0.32983,1.22904],[-0.62971,-0.45395]]],&quot;closed&quot;:true}]}" fill="#ffffff" stroke-width="0.5"/><path d="M229.81984,178.66393c-2.77349,1.00568 -5.58265,2.43116 -8.17482,4.11723c-0.45399,-1.88314 -1.14892,-3.61268 -1.14892,-5.73041c0,0 0.00488,-1.15957 -1.1566,-1.15957c-1.16148,0 -1.13253,1.0658 -1.13253,1.0658c0,2.66321 1.04657,4.76681 1.43878,7.18801c-3.52412,2.61723 -6.43935,5.70355 -7.96804,8.818c-0.01036,0.47611 -0.02748,0.94681 -0.03784,1.42292l-0.00232,0.5974c-0.03258,0.15745 -0.02966,0.29876 -0.00146,0.42558l-0.00161,0.52253c0,0 -0.0398,0.70783 0.40907,1.04257c-0.7761,0.6684 -1.82821,1.46884 -2.866,2.3687c-0.19045,-0.12959 -0.36575,-0.18095 -0.36575,-0.18095l-1.46438,-0.40386c-5.89524,-4.81237 -4.87041,-10.51835 -2.41427,-17.54674c0,0 0.44102,-1.03434 -0.66085,-1.40164c-1.10188,-0.3673 -1.46584,0.73071 -1.46584,0.73071c-2.65772,8.26508 -3.65579,14.5493 3.53332,20.2013l1.01837,0.30679c-1.00409,1.09362 -1.79677,2.27103 -2.02178,3.48146l-0.35462,-0.1258c0.01354,-0.07831 0.02059,-0.16359 0.02059,-0.25603c0,-1.16149 -1.16528,-1.16432 -1.16528,-1.16432l-0.97722,0.37206c-0.95859,-0.7717 -1.92743,-1.93436 -2.18739,-2.68311c-1.92789,-5.55272 -0.90482,-8.19004 -0.72412,-13.99865c-0.8787,-11.70831 14.71444,-11.26185 22.13996,-11.26185c0,0 0.61838,0.0009 0.95305,-0.4485c1.51249,0.9758 3.15944,1.8713 4.85255,2.70997l0.82888,0.2119c0.24151,0.38434 0.66957,0.5461 0.66957,0.5461c0.16995,0.06245 0.25919,0.17994 0.42753,0.23241z" data-paper-data="{&quot;noHover&quot;:false,&quot;origItem&quot;:[&quot;Path&quot;,{&quot;applyMatrix&quot;:true,&quot;segments&quot;:[[[458.70552,356.92416],[0.33991,0.12491],[0,0]],[[457.36928,355.83552],[0.48303,0.76869],[0,0]],[[455.71411,355.41465],[0,0],[-3.38622,-1.67734]],[[446.03365,350.01421],[3.02498,1.9516],[-0.66932,0.8988]],[[444.13089,350.91299],[0,0],[-14.85104,0]],[[399.99447,373.36837],[-1.7574,-23.41662],[-0.3614,11.61722]],[[401.42391,401.28375],[-3.85578,-11.10544],[0.51992,1.4975]],[[405.78545,406.63593],[-1.91718,-1.5434],[0,0]],[407.73769,405.88995],[[410.06065,408.21293],[0,-2.32298],[0,0.18488]],[[410.01887,408.72459],[0.02708,-0.15662],[0,0]],[[410.61905,409.14381],[0,0],[0.45002,-2.42086]],[[414.66161,402.18025],[-2.00818,2.18724],[0,0]],[[412.61881,401.56239],[0,0],[-14.37822,-11.30402]],[[405.53393,361.01897],[-5.31544,16.53016],[0,0]],[[408.47229,359.54981],[-2.20376,-0.7346],[2.20376,0.7346]],[[409.94145,362.48815],[0,0],[-4.91228,14.05678]],[[414.75827,397.43839],[-11.79048,-9.62474],[0,0]],[417.67685,398.23875],[[418.40519,398.59875],[-0.3809,-0.25918],[2.07558,-1.79972]],[[424.12187,393.85415],[-1.5522,1.3368],[-0.89774,-0.66948]],[423.22417,391.95217],[[423.22417,390.90543],[0,0],[-0.0564,-0.25364]],[[423.22417,390.05261],[-0.06516,0.3149],[0,0]],[[423.22417,388.85491],[0,0],[0.02072,-0.95222]],[[423.28631,385.99821],[-0.02072,0.95222],[3.05738,-6.2289]],[[439.22565,368.36519],[-7.04824,5.23446],[-0.78442,-4.8424]],[[436.38763,354.01037],[0,5.32642],[0,0]],[[438.71059,351.68741],[-2.32296,0],[2.32296,0]],[[441.03355,354.01037],[0,0],[0,4.23546]],[[443.36037,365.49117],[-0.90798,-3.76628],[5.18435,-3.37215]],[[459.7202,357.2685],[-5.54698,2.01136],[-0.33668,-0.10494]]],&quot;closed&quot;:true}]}" fill="#ffffff" stroke-width="0.5"/><path d="M230.76996,176.35161c-0.2637,-0.32342 -0.67023,-0.42412 -0.67023,-0.42412l-1.43255,-0.34898c-0.25311,-0.12793 -0.50783,-0.25647 -0.75802,-0.38616l0.33302,-1.14834c-0.01163,-3.71191 0.95036,-7.05993 -0.04367,-10.83838c-0.62792,-2.38685 -3.74886,-5.01323 -6.16398,-2.45899c-1.41895,1.50069 -2.90375,3.45104 -4.4122,5.27039c-0.65642,-1.52655 -1.02632,-3.28358 -1.02632,-5.28173c0,0 0.0008,-0.62857 -0.4577,-0.96162c4.47409,-2.61247 8.51297,-6.64159 10.10989,-11.32681c1.55496,3.17715 3.068,6.37123 3.88695,9.56773c2.9546,4.88718 5.63349,9.75151 8.91097,14.13192l-1.21727,0.58049c-0.59366,1.22015 -1.02772,2.8113 -0.38957,3.80952c-0.2199,0.09325 -0.45463,0.25981 -0.58919,0.55258c-0.00182,0.00013 -0.00366,0.00026 -0.00548,0.00039c-0.17335,-0.26809 -0.4823,-0.50482 -1.02738,-0.50482c-0.28955,0 -0.51388,0.06812 -0.68482,0.17119c-1.50192,0.01197 -2.92446,0.03391 -4.36246,-0.40425z" data-paper-data="{&quot;noHover&quot;:false,&quot;origItem&quot;:[&quot;Path&quot;,{&quot;applyMatrix&quot;:true,&quot;segments&quot;:[[[470.21739,353.42362],[-3.00385,0.02394],[0.34189,-0.20614]],[[471.58333,353.08333],[-0.5791,0],[1.09017,0]],[[473.63498,354.0949],[-0.34669,-0.53617],[0.00364,-0.00026]],[[473.64591,354.09413],[-0.00364,0.00026],[0.26911,-0.58555]],[[474.82041,352.99161],[-0.4398,0.1865],[-1.2763,-1.99645]],[[475.58605,345.38418],[-1.18733,2.4403],[0,0]],[[478.01489,344.22959],[0,0],[-6.55495,-8.76082]],[[460.22325,316.11733],[5.90919,9.77435],[-1.6379,-6.393]],[[452.50579,296.99321],[3.10992,6.3543],[-3.19384,9.37044]],[[432.37337,319.57257],[8.94818,-5.22494],[0.91698,0.66612]],[[433.29035,321.48871],[0,0],[0,3.9963]],[[435.33975,332.00303],[-1.31284,-3.0531],[3.0169,-3.63868]],[[443.97511,321.45899],[-2.8379,3.00138],[4.83024,-5.10848]],[[456.47815,326.46967],[-1.25584,-4.7737],[1.98804,7.5569]],[[456.49007,348.18779],[-0.02326,-7.42382],[0,0]],[[455.81581,350.28465],[0,0],[0.50038,0.25938]],[[457.32603,351.05729],[-0.50622,-0.25586],[0,0]],[460.18077,351.75667],[[461.51717,352.60577],[-0.5274,-0.64685],[2.87598,0.87631]]],&quot;closed&quot;:true}]}" fill="#ea0000" stroke-width="0.5"/><path d="M255.03498,168.92408c-0.92723,0 -2.13541,0.00008 -3.26887,0.00008c-1.95958,-5.4496 -3.6921,-11.08311 -4.31448,-16.85057c1.55551,0.70831 4.01966,0.52886 5.31059,1.43021c1.07587,0.75116 2.19509,1.50957 3.29544,2.25681c-1.03195,-0.28609 -2.13381,-0.46456 -3.26922,-1.03842l-0.08473,-0.16966c0,0 -0.80884,-0.82433 -1.63013,-0.00304c-0.82129,0.82129 -0.04142,1.55177 -0.04142,1.55177l0.69262,0.603c2.6873,1.33113 4.88016,0.91653 6.99225,3.14987c1.51309,1.59995 -0.17441,8.05337 -2.56255,7.51833c0,0 -1.17041,0.00268 -1.17041,1.16416c0,0.14695 0.01844,0.27534 0.05092,0.38746z" data-paper-data="{&quot;noHover&quot;:false,&quot;origItem&quot;:[&quot;Path&quot;,{&quot;applyMatrix&quot;:true,&quot;segments&quot;:[[[509.94837,336.97515],[0,0.2939],[0,-2.32296]],[[512.27133,334.65219],[0,0],[4.77628,1.07008]],[[517.33475,319.72007],[3.02618,3.1999],[-4.22418,-4.46668]],[[503.48923,313.50023],[5.3746,2.66226],[0,0]],[502.11119,312.29077],[[502.11119,309.00559],[-1.64258,1.64258],[1.64258,-1.64258]],[505.39635,309.00559],[[505.56695,309.34479],[0,0],[2.27082,1.14772]],[[512.06585,311.60807],[-2.0639,-0.57218],[-2.2007,-1.49448]],[[505.53301,307.10715],[2.15174,1.50232],[-2.58186,-1.80268]],[[494.96071,304.22895],[3.11102,1.41662],[1.24476,11.53491]],[[503.55085,337.75],[-3.91915,-10.8992],[2.26692,0]],[[510.05051,337.75],[-1.85446,0],[-0.06496,-0.22424]]],&quot;closed&quot;:true}]}" fill="#ea0000" stroke-width="0.5"/><path d="M256.81615,169.95143c-0.01632,-0.15407 -0.05384,-0.28832 -0.10576,-0.40124c3.65607,-0.904 6.28788,-7.00355 4.18722,-10.55799c1.43206,0.92122 2.88993,1.81669 4.3261,2.68343c2.23333,1.34782 4.70497,2.51938 7.08915,3.73189c-0.68318,0.79126 0.08469,1.56467 0.08469,1.56467c2.46866,2.12936 1.89676,4.71712 0.22128,6.96908c-0.06075,-0.00237 -0.12148,-0.00359 -0.1815,-0.00462c0,0 -1.16775,0.0073 -1.16775,1.16878v0.00006c0,0.12581 0.01278,0.23881 0.03708,0.33883c-1.49248,1.48977 -3.35673,2.75809 -4.82925,3.51839c-0.12194,-0.44653 -0.27191,-0.87674 -0.44651,-1.28426c-1.32144,-3.08435 -5.63513,-6.69092 -9.21475,-7.72702z" data-paper-data="{&quot;noHover&quot;:false,&quot;origItem&quot;:[&quot;Path&quot;,{&quot;applyMatrix&quot;:true,&quot;segments&quot;:[[[532.05447,355.25711],[-2.64287,-6.16871],[0.3492,0.81504]],[[532.94401,357.82595],[-0.24388,-0.89306],[2.94504,-1.5206]],[[542.54583,350.81479],[-2.98496,2.97954],[-0.0486,-0.20004]],[[542.46995,350.13875],[0,0.25162],[0,0]],[[542.46995,350.13863],[0,0],[0,-2.32296]],[[544.79291,347.81567],[0,0],[0.12004,0.00204]],[[545.15525,347.82585],[-0.1215,-0.00474],[3.35096,-4.50392]],[[544.69897,333.97181],[4.93732,4.25872],[0,0]],[[544.53685,330.86079],[-1.36636,1.58252],[-4.76836,-2.42502]],[[530.44971,323.45117],[4.46666,2.69564],[-2.87234,-1.73348]],[[521.83627,318.07553],[2.86412,1.84244],[4.20131,7.10888]],[[513.52056,339.09371],[7.31215,-1.808],[0.10385,0.22584]],[[513.73167,339.89149],[-0.03263,-0.30814],[7.15925,2.0722]]],&quot;closed&quot;:true}]}" fill="#ea0000" stroke-width="0.5"/><path d="M197.23662,197.10771c0.11234,3.07131 0.81435,6.03281 2.93737,7.75409c-1.34529,0.41102 -2.90562,0.53322 -3.4674,-0.15859c-0.80906,-0.99633 -0.19086,-4.75448 0.53003,-7.59549z" data-paper-data="{&quot;noHover&quot;:false,&quot;origItem&quot;:[&quot;Path&quot;,{&quot;applyMatrix&quot;:true,&quot;segments&quot;:[[[393.45297,409.31459],[-1.61812,-1.99266],[1.12356,1.38362]],[[400.30185,409.63479],[-2.69058,0.82204],[-4.24604,-3.44254]],[[394.49745,394.31237],[0.22468,6.14262],[-1.44178,5.68202]]],&quot;closed&quot;:true,&quot;fillColor&quot;:[0,0,0,1]}]}" fill="#ffffff" stroke-width="0.5"/><path d="M214.74236,197.04888c4.66514,1.31264 5.36315,2.76659 5.45215,8.41055c-0.28488,1.19333 -11.42359,2.33916 -12.28128,0.7752c-1.67744,-3.0587 4.96999,-6.84353 6.4615,-8.32547c0,0 0.37215,-0.36913 0.36763,-0.86029z" data-paper-data="{&quot;noHover&quot;:false,&quot;origItem&quot;:[&quot;Path&quot;,{&quot;applyMatrix&quot;:true,&quot;segments&quot;:[[[429.46835,394.19635],[0,0],[0.00904,0.9823]],[[428.73841,395.91765],[0,0],[-2.98302,2.96388]],[[415.90837,412.41187],[-3.35488,-6.1174],[1.7154,3.1279]],[[440.30123,410.87089],[-0.56976,2.38666],[-0.178,-11.28792]],[[429.46837,394.19635],[9.33028,2.62528],[0,0]]],&quot;closed&quot;:true,&quot;fillColor&quot;:[0,0,0,1]}]}" fill="#ffffff" stroke-width="0.5"/><path d="M225.87024,174.06712c-2.82758,-1.62048 -5.39056,-3.50767 -7.0647,-5.92975c2.19199,-2.52092 6.01222,-6.85941 6.74384,-5.81853c2.08087,2.96044 0.43721,8.29581 0.42767,11.44628z" data-paper-data="{&quot;noHover&quot;:false,&quot;origItem&quot;:[&quot;Path&quot;,{&quot;applyMatrix&quot;:true,&quot;segments&quot;:[[[451.90413,347.44355],[0,0],[0.01906,-6.30096]],[[451.05483,324.72745],[4.16174,5.92088],[-1.46324,-2.08174]],[[437.71107,336.27407],[4.38398,-5.04184],[3.34828,4.84416]],[[451.69367,348.04581],[-5.65516,-3.24096],[0,0]]],&quot;closed&quot;:true,&quot;fillColor&quot;:[0,0,0,1]}]}" fill="#ffffff" stroke-width="0.5"/><path d="M170.60531,133.10494c0,0 0.03774,-0.3389 -0.10171,-0.68124c8.81478,-0.23281 16.55385,-1.32481 25.07536,-3.60362c0.69081,-0.69742 1.3321,-1.05578 2.00743,-1.23681c0.36579,0.97149 1.43774,0.72862 1.43774,0.72862c1.6315,-0.37984 3.1635,-0.49325 4.77479,-0.52501c-0.68384,2.03199 -1.13921,4.2154 -1.80801,6.21661l-0.20697,0.51452c-2.40141,0.37326 -4.70272,0.67457 -6.76978,0.67457c0,0 -1.1621,0.00703 -1.1621,1.16851c0,0.22539 0.04316,0.41007 0.11366,0.55647c-0.30186,0.06828 -0.69969,0.09534 -0.98708,0.1265c-0.04595,-1.09109 -1.16121,-1.08536 -1.16121,-1.08536l-0.65577,0.07573c-2.09596,0.71606 -3.94895,2.15828 -5.93444,3.1623l-0.59651,0.11063c-0.57576,0.42423 -1.36722,0.60233 -2.08179,0.57295c-3.45537,0 -6.3692,1.15862 -9.08229,2.44365c-0.93365,0.44222 -2.07843,-0.29049 -3.09911,-0.13085c-0.4754,0.07435 -0.9513,0.15618 -1.42542,0.24824l-0.91238,-0.87382c-0.29083,-0.95818 -0.56026,-1.75074 -0.79424,-2.46859c0.49465,0.72632 1.32247,1.03169 2.66739,0.50802c0.98086,-0.38191 0.59142,-5.51659 0.70246,-6.50196z" data-paper-data="{&quot;noHover&quot;:false,&quot;origItem&quot;:[&quot;Path&quot;,{&quot;applyMatrix&quot;:true,&quot;segments&quot;:[[[341.30981,266.22263],[0,0],[-0.22208,1.97074]],[[339.90167,279.18563],[1.96172,-0.76382],[-2.68984,1.04734]],[[334.56853,278.17601],[0.9893,1.45264],[0.46796,1.4357]],[[336.15305,283.09991],[-0.58166,-1.91636],[0,0]],[[337.97543,284.84175],[0,0],[0.94824,-0.18412]],[[340.82539,284.34335],[-0.9508,0.1487],[2.04136,-0.31928]],[[347.01875,284.59601],[-1.8673,0.88444],[5.42618,-2.57006]],[[365.14997,279.67521],[-6.91074,0],[1.42914,0.05876]],[[369.28167,278.51669],[-1.15152,0.84846],[0,0]],[[370.46135,278.29359],[0,0],[3.97098,-2.00804]],[[382.22483,272.05117],[-4.19192,1.43212],[0,0]],[383.73373,271.93195],[[386.05377,274.11413],[-0.0919,-2.18218],[0.57478,-0.06232]],[[387.83381,273.81317],[-0.60372,0.13656],[-0.141,-0.2928]],[[387.60533,272.70627],[0,0.45078],[0,-2.32296]],[[389.92829,270.38331],[0,0],[4.13412,0]],[[403.46789,269.03905],[-4.80282,0.74652],[0,0]],[[403.88197,268.01309],[0,0],[1.3376,-4.00242]],[[407.50483,255.61049],[-1.36768,4.06398],[-3.22258,0.06352]],[[397.95867,256.66821],[3.263,-0.75968],[0,0]],[[395.08763,255.21895],[0.73158,1.94298],[-1.35066,0.36206]],[[391.07279,257.69259],[1.38162,-1.39484],[-17.04302,4.55762]],[[341.10571,264.86441],[17.62956,-0.46562],[0.2789,0.68468]],[341.30979,266.22259]],&quot;closed&quot;:true,&quot;fillColor&quot;:[0,0,0,1]}]}" fill="#ffffff" stroke-width="0.5"/><path d="M266.2842,186.80912c0,0 -0.10497,-0.05267 -0.26484,-0.0909c0.65643,-1.6174 0.92355,-3.56333 0.79749,-5.42804c2.29966,-1.05626 4.83694,-2.8546 6.66696,-5.01647c2.94527,0.38181 6.88636,2.35165 10.3133,4.38543c-2.28947,3.04795 -5.35492,4.95145 -8.0686,7.91469c-1.39842,1.52703 -2.27204,3.25882 -3.06517,5.03214c-2.07835,-1.76825 -3.84926,-3.81506 -5.12816,-5.96658l-1.25097,-0.83023z" data-paper-data="{&quot;noHover&quot;:false,&quot;origItem&quot;:[&quot;Path&quot;,{&quot;applyMatrix&quot;:true,&quot;segments&quot;:[[532.66831,373.61357],[[535.17001,375.27047],[0,0],[9.3532,15.73502]],[[584.55329,396.98167],[-17.61846,6.86688],[6.28706,-6.4649]],[[613.37265,374.95889],[-10.05404,-2.509],[3.29808,0.82304]],[[636.93739,386.53183],[0.64734,2.05566],[0,-10.98032]],[[622.62463,345.24637],[7.37874,7.64576],[-6.91696,-7.16728]],[[598.84361,359.96923],[2.73032,-4.47776],[-0.7722,2.06026]],[[593.49937,372.84179],[1.4316,-1.12568],[-4.82358,3.7929]],[[578.53439,368.39269],[3.5398,2.45288],[-7.08334,-4.9083]],[[547.05717,352.59181],[9.62708,1.248],[-3.66004,4.32374]],[[533.73229,362.59699],[4.59932,-2.11252],[0.25212,3.72942]],[[532.13863,373.43213],[1.31286,-3.2348],[0.31974,0.07646]],[532.66829,373.61355]],&quot;closed&quot;:true,&quot;fillColor&quot;:[0,0,0,1]}]}" fill="#ea0000" stroke-width="0.5"/><path d="M288.89589,183.93035c-0.51426,1.03908 -0.9824,2.09958 -1.35093,3.19577c-0.27238,0.81021 0.01327,1.74881 -0.29036,2.54784c-1.11903,2.94484 -4.36221,5.64143 -6.5054,8.6546c-1.37673,-0.488 -2.72536,-1.11633 -4.01651,-1.85733c0.69815,-1.62365 1.47098,-3.19996 2.70549,-4.54503c2.95033,-3.21458 6.06675,-5.34361 8.53934,-8.61882c0.3249,0.21789 0.63195,0.42648 0.91837,0.62297z" data-paper-data="{&quot;noHover&quot;:false,&quot;origItem&quot;:[&quot;Path&quot;,{&quot;applyMatrix&quot;:true,&quot;segments&quot;:[[532.66831,373.61357],[[535.17001,375.27047],[0,0],[9.3532,15.73502]],[[584.55329,396.98167],[-17.61846,6.86688],[6.28706,-6.4649]],[[613.37265,374.95889],[-10.05404,-2.509],[3.29808,0.82304]],[[636.93739,386.53183],[0.64734,2.05566],[0,-10.98032]],[[622.62463,345.24637],[7.37874,7.64576],[-6.91696,-7.16728]],[[598.84361,359.96923],[2.73032,-4.47776],[-0.7722,2.06026]],[[593.49937,372.84179],[1.4316,-1.12568],[-4.82358,3.7929]],[[578.53439,368.39269],[3.5398,2.45288],[-7.08334,-4.9083]],[[547.05717,352.59181],[9.62708,1.248],[-3.66004,4.32374]],[[533.73229,362.59699],[4.59932,-2.11252],[0.25212,3.72942]],[[532.13863,373.43213],[1.31286,-3.2348],[0.31974,0.07646]],[532.66829,373.61355]],&quot;closed&quot;:true,&quot;fillColor&quot;:[0,0,0,1]}]}" fill="#ea0000" stroke-width="0.5"/><path d="M195.61497,102.83093c9.4124,3.05622 11.7716,13.78778 9.17529,22.4866c-0.82602,0.00256 -1.62893,0.0221 -2.42283,0.0687c-0.02261,-0.30519 -0.1716,-0.65135 -0.64547,-0.88828c-1.03886,-0.51943 -1.5603,0.52277 -1.5603,0.52277l0.65211,0.13162c-2.50038,0 -4.50065,-0.16166 -6.39327,1.71358c-8.80883,1.93068 -16.56429,3.15633 -25.83402,3.30683c-0.00497,-0.74508 0.05089,-1.43943 0.36754,-1.94137c1.87628,-2.97412 2.95361,-5.95285 5.6343,-8.51513c6.02269,-6.06741 12.95582,-13.93373 20.92637,-16.92664c0.06121,0.0282 0.10029,0.0413 0.10029,0.0413z" data-paper-data="{&quot;noHover&quot;:false,&quot;origItem&quot;:[&quot;Path&quot;,{&quot;applyMatrix&quot;:true,&quot;segments&quot;:[[391.17739,205.74685],[[390.97739,205.66459],[0.12242,0.0564],[-15.9411,5.98582]],[[349.27349,239.40759],[12.04538,-12.13482],[-5.36138,5.12456]],[[337.99209,256.40853],[3.75256,-5.94824],[-0.6333,1.00388]],[[337.25349,260.28615],[-0.00994,-1.49016],[18.53946,-0.301]],[[388.78377,253.64977],[-17.61766,3.86136],[3.78524,-3.7505]],[[401.54313,250.25097],[-5.00076,0],[0,0]],[400.23975,249.98643],[[403.35633,248.94757],[-2.07772,-1.03886],[0.94772,0.47386]],[[404.64857,250.72183],[-0.04522,-0.61038],[1.5878,-0.0932]],[[409.49113,250.59017],[-1.65204,0.00512],[5.19262,-17.39764]],[[391.17739,205.74687],[18.8248,6.11244],[0,0]]],&quot;closed&quot;:true,&quot;fillColor&quot;:[0,0,0,1]}]}" fill="#ea0000" stroke-width="0.5"/><path d="M191.87154,138.23917c0,0 0.36303,0.00032 0.68232,-0.20045c0.87329,-0.03224 1.86947,-0.23998 2.76667,-0.56977c4.10379,0.03327 11.09441,0.63874 14.76379,-0.81722c3.47464,-1.37869 7.77071,-2.05745 11.18321,0.47966c0.10625,0.16231 0.2301,0.32144 0.3651,0.47721c0.14962,0.61734 0.32646,1.21548 0.53266,1.7839c0.68916,1.89976 1.56207,3.81353 2.48395,5.72298c-0.64576,7.74093 -9.28496,13.5756 -16.17366,15.36563c-8.49183,5.53103 -18.50419,4.92636 -28.54413,4.95371c-7.02403,-1.09532 -14.79935,-5.72577 -19.81436,-10.53765c-0.9238,-0.88638 -2.67391,-1.33593 -3.32268,-2.42856l0.14554,0.01964c0,0 0.93901,0.52488 1.45844,-0.51398c0.51943,-1.03887 -0.5195,-1.56071 -0.5195,-1.56071l-0.43692,-0.15708c0.17201,-0.11677 0.36236,-0.22741 0.565,-0.33346c0.53409,0.05383 0.94813,-0.36078 0.94813,-0.36078c0.05244,-0.05284 0.10502,-0.1051 0.1577,-0.1563c0.94145,-0.41334 1.91962,-0.83453 2.50563,-1.44218c-0.07071,-0.07454 -0.15885,-0.16063 -0.26275,-0.25562c3.98095,-2.26903 8.49538,-1.50295 13.20301,-3.3797c2.33789,-0.93204 4.89084,-2.20349 7.98118,-2.20349c1.02919,-0.02719 2.1007,-0.28947 3.01483,-0.77525c0.13389,0.00309 0.25934,-0.01743 0.36024,-0.04238c0.13033,-0.02932 0.29305,-0.08442 0.44213,-0.18421c1.81294,-0.94205 3.57009,-2.32255 5.49451,-2.94356l0.01997,0.05961z" data-paper-data="{&quot;noHover&quot;:false,&quot;origItem&quot;:[&quot;Path&quot;,{&quot;applyMatrix&quot;:true,&quot;segments&quot;:[[383.73371,276.57791],[[383.69397,276.45871],[0,0],[-3.84884,1.242]],[[372.75663,282.33677],[3.62588,-1.8841],[-0.29816,0.1996]],[[371.87653,282.70313],[0.26066,-0.05864],[-0.2018,0.0499]],[[371.15889,282.78633],[0.26778,0.00618],[-1.82826,0.97156]],[[365.14995,284.32115],[2.05838,-0.05438],[-6.18068,0]],[[349.21095,288.69221],[4.67578,-1.86408],[-9.41526,3.7535]],[[322.81093,295.42553],[7.9619,-4.53806],[0.2078,0.18998]],[[323.33651,295.93599],[-0.14142,-0.14908],[-1.17202,1.2153]],[[318.32557,298.81515],[1.8829,-0.82668],[-0.10536,0.1024]],[[318.01017,299.12723],[0.10488,-0.10568],[0,0]],[[316.11395,299.84761],[1.06818,0.10766],[-0.40528,0.2121]],[[314.98395,300.51351],[0.34402,-0.23354],[0,0]],[315.85779,300.82719],[[316.89667,303.94379],[1.03886,-2.07774],[-1.03886,2.07772]],[313.78009,304.98265],[[313.68863,304.93125],[0,0],[1.29754,2.18526]],[[320.33313,309.77991],[-1.8476,-1.77276],[10.03002,9.62376]],[[359.92127,330.78847],[-14.04806,-2.19064],[20.07988,-0.05472]],[[416.86415,320.91295],[-16.98366,11.06206],[13.7774,-3.58006]],[[449.19969,290.24643],[-1.29152,15.48186],[-1.84376,-3.8189]],[[444.23623,278.81813],[1.37832,3.79952],[-0.4124,-1.13684]],[[443.17289,275.25551],[0.29924,1.23468],[-0.27002,-0.31154]],[[442.44337,274.30269],[0.2125,0.32462],[-6.825,-5.07422]],[[420.08715,273.36143],[6.94928,-2.75738],[-7.33876,2.91192]],[[390.60761,275.03215],[8.20758,0.06654],[-1.7944,0.65958]],[[385.09309,276.17637],[1.74658,-0.06448],[-0.63858,0.40154]],[383.73369,276.57791]],&quot;closed&quot;:true,&quot;fillColor&quot;:[0,0,0,1]}]}" fill="#fff196" stroke-width="0.5"/><path d="M207.1849,126.53527c0,-0.21856 -0.03802,-0.39984 -0.10109,-0.54865c2.87589,-9.97721 0.03511,-21.62111 -10.40443,-25.398c-0.46964,-0.50613 -1.12416,-0.19875 -1.12416,-0.19875c-8.76509,2.92169 -16.01138,11.22309 -22.51225,17.68226c-2.59812,2.68407 -4.21013,5.84409 -5.97306,8.91444c-0.27257,0.47472 -0.33057,1.90176 -0.40633,3.17875c-0.27059,0.02741 -1.07369,0.18926 -1.07369,1.15507c0,0.67228 0.38911,0.95465 0.7169,1.07391c-0.00682,0.00681 -0.01377,0.0129 -0.02086,0.01827c-0.06,0.0454 -0.21776,0.07538 -0.27325,0.09035c-0.12289,-0.16349 -0.30581,-0.30714 -0.5781,-0.37178c-0.22255,-0.37021 -0.34402,-0.87595 -0.35036,-0.87992c-1.31064,-0.81923 -4.0977,-1.05255 -5.57045,-1.30473c-1.92682,-0.32993 -3.29112,-2.61988 -5.26975,-3.22053c0.4438,0.10273 4.14025,0.7491 5.03287,0.11021c1.40347,-1.00454 1.12185,-2.50036 1.13185,-3.89438c0.0441,-6.14903 4.01314,-10.72003 6.7284,-16.23135c1.25892,-2.55531 0.36498,-5.3323 2.91067,-6.89043c3.66681,-10.42943 16.49989,-18.72627 27.5488,-18.72627c10.77508,0 23.59332,1.66189 35.01018,2.28522c8.45629,2.50192 17.73694,3.58536 26.26655,6.37348c4.32728,1.41448 9.3227,4.17478 13.51684,4.68876c1.1101,0.27871 2.12521,0.7741 3.207,1.22438c-3.89035,0.09541 -7.87881,0.60546 -10.05753,0.60546c-4.10499,0 -6.28786,0.31694 -9.55277,1.77782l-0.89381,-0.03055c0,0 -0.00996,0.00002 -0.02809,0.00095c-0.23962,-0.00269 -0.54406,0.05461 -0.78545,0.30022c-0.1642,0.14432 -0.24698,0.2722 -0.28501,0.58825c-0.06387,0.31186 -0.00343,0.55727 0.1067,0.74612c0.15134,0.30934 0.42361,0.46042 0.65179,0.53364c0.0169,0.00661 0.02641,0.00979 0.02641,0.00979c6.6469,2.07039 11.30946,9.69513 16.49477,13.75811c2.10573,1.64996 5.60458,2.81706 7.50828,4.61563c1.64551,1.55463 2.12833,3.48203 4.35402,4.84128c6.3059,1.86003 11.1907,9.78988 17.50949,12.2429c3.93862,1.52902 9.82881,3.85534 13.52996,6.80212c-1.86086,-0.14514 -4.09635,0.24293 -5.57877,0.24293c-6.8811,0 -18.91847,2.24708 -24.99419,-1.01559c-2.09424,-1.25033 -7.03287,-1.65303 -8.54713,-3.30545c-3.6664,-4.00092 -9.57296,-6.72948 -13.40276,-11.17315c-1.46943,-1.70495 -0.32934,-2.2528 -1.57223,-4.28386c-1.26398,-2.06551 -3.86293,-3.06199 -5.00272,-5.44711l-0.12231,-0.24479c0,0 -0.51783,-1.0367 -1.55669,-0.51727c-1.03886,0.51943 -0.43955,1.49819 -0.43955,1.49819l0.12297,0.24573c1.27059,2.45514 4.02042,3.73755 5.248,5.84529c1.20366,2.06667 2.49786,4.17984 3.96699,6.16943c-0.50169,0.7429 0.18095,1.42803 0.18095,1.42803l0.88258,0.79967c1.68417,0.63488 1.36998,3.37367 2.89189,4.60101c2.29755,1.85285 3.42484,5.92458 6.67631,7.39124c0.51829,1.14902 2.47757,2.09453 2.73635,2.69485c2.52651,5.86117 5.58265,10.33231 8.64983,15.58522c1.1605,1.98747 1.76547,5.96194 3.07412,8.84869c-1.86981,-1.45547 -3.75882,-2.8097 -6.12897,-3.40599c-3.03452,-2.84696 -7.37379,-4.67571 -11.09905,-6.41844c-7.78741,-3.64307 -16.93697,-10.1166 -22.89389,-13.69933c-0.0038,-0.22511 -0.06845,-0.52847 -0.06845,-0.75433c0,0 -0.00015,-0.92506 -0.82589,-1.12397c-3.15381,-7.55692 -3.79991,-16.25388 -7.71312,-23.20233c-1.80642,-3.20756 0.1337,-6.72848 -4.44754,-7.18715c0,0 -1.15752,-0.00016 -1.15752,1.16132c0,1.16148 1.15754,1.06164 1.15754,1.06164c0.69027,-0.16527 3.03392,5.99152 3.50265,7.77476c2.00936,7.64444 3.38551,15.69554 7.23543,22.74334c0.33215,11.90331 5.73293,22.68643 9.31386,33.63961c0.10673,0.09259 -6.60612,-4.51516 -8.68169,-6.33124c-5.86079,-5.12809 -9.2211,-12.2296 -13.33771,-18.87952c-1.1164,-4.17309 -3.25463,-8.49884 -5.28268,-12.70136c0.0353,-1.48382 -0.19595,-3.01929 -0.72301,-4.57335c-0.45705,-1.34762 -1.67299,-2.3632 -2.65094,-3.44427c-1.04288,-4.69973 -0.39713,-11.19348 -0.39713,-15.64823c0,-0.38715 0.00183,-0.77607 0.00183,-1.16323l-1.04764,-1.52126c0,0 -0.819,-0.82348 -1.64029,-0.00218c-0.82129,0.82129 0.00218,1.64024 0.00218,1.64024l0.43355,-0.0463c0,0.38715 0.00163,0.77242 0.00163,1.15958c0,4.0577 -0.34539,9.05299 0.14867,13.5196c-4.58355,-2.17395 -10.7759,-1.28651 -16.59774,-0.34574c0.62977,-2.081 1.09418,-4.35116 1.88915,-6.36747c0.35859,-0.12183 0.80213,-0.42522 0.80213,-1.1695z" data-paper-data="{&quot;noHover&quot;:false,&quot;origItem&quot;:[&quot;Path&quot;,{&quot;applyMatrix&quot;:true,&quot;segments&quot;:[[[207.23398,126.54471],[0,0],[0,0.74428]],[[206.43224,127.71193],[0.35859,-0.12183],[-0.79497,2.01631]],[[204.54346,134.06831],[0.62977,-2.081],[5.82184,-0.94077]],[[221.04236,134.42791],[-4.58355,-2.17395],[-0.49406,-4.46661]],[[220.90398,120.86668],[0,4.0577],[0,-0.38716]],[[220.90398,119.70521],[0,0.38715],[0,0]],[220.46984,119.75218],[[220.46984,118.1096],[-0.82129,0.82129],[0.82129,-0.8213]],[222.11244,118.1096],[[223.22695,119.70521],[0,0],[0,0.38716]],[[223.22695,120.86668],[0,-0.38715],[0,4.45475]],[[223.63424,136.45939],[-1.04288,-4.69973],[0.97795,1.08107]],[[226.27441,139.8882],[-0.45705,-1.34762],[0.52706,1.55406]],[[226.98723,144.45387],[0.0353,-1.48382],[2.02805,4.20252]],[[232.24905,157.14885],[-1.1164,-4.17309],[4.11661,6.64992]],[[245.57049,176.02979],[-5.86079,-5.12809],[2.07557,1.81608]],[[254.2462,182.36297],[0.10673,0.09259],[-3.58093,-10.95318]],[[244.92406,148.72757],[0.33215,11.90331],[-3.84992,-7.0478]],[[237.6892,126.06915],[2.00936,7.64444],[-0.46873,-1.78324]],[[234.21266,118.30175],[0.69027,-0.16527],[0,0]],[[233.05118,117.14027],[0,1.16148],[0,-1.16148]],[[234.21266,115.97879],[0,0],[4.58124,0.45867]],[[238.68331,123.17161],[-1.80642,-3.20756],[3.91321,6.94845]],[[246.40523,146.45675],[-3.15381,-7.55692],[0.82574,0.19891]],[[247.23097,147.58085],[0,0],[0,0.22586]],[[247.23669,148.25732],[-0.0038,-0.22511],[5.95692,3.58273]],[[270.12329,161.96371],[-7.78741,-3.64307],[3.72526,1.74273]],[[281.22116,168.38361],[-3.03452,-2.84696],[2.37015,0.59629]],[[287.34964,171.79024],[-1.86981,-1.45547],[-1.30865,-2.88675]],[[284.27302,162.9452],[1.1605,1.98747],[-3.06718,-5.25291]],[[275.61884,147.36877],[2.52651,5.86117],[-0.25878,-0.60032]],[[272.88185,144.67573],[0.51829,1.14902],[-3.25147,-1.46666]],[[266.20369,137.29181],[2.29755,1.85285],[-1.52191,-1.22734]],[[263.31109,132.6977],[1.68417,0.63488],[0,0]],[262.42848,131.8994],[[262.24758,130.47391],[-0.50169,0.7429],[-1.46913,-1.98959]],[[258.28276,124.31696],[1.20366,2.06667],[-1.22758,-2.10774]],[[253.04166,118.48571],[1.27059,2.45514],[0,0]],[252.91903,118.24046],[[253.43847,116.68216],[-1.03886,0.51943],[1.03886,-0.51943]],[254.99677,117.2016],[[255.11938,117.44683],[0,0],[1.13979,2.38512]],[[260.12815,122.90602],[-1.26398,-2.06551],[1.24289,2.03106]],[[261.70239,127.19786],[-1.46943,-1.70495],[3.8298,4.44367]],[[275.10518,138.38719],[-3.6664,-4.00092],[1.51426,1.65242]],[[283.55394,141.67477],[-2.09424,-1.25033],[6.07572,3.26267]],[[308.54768,142.69294],[-6.8811,0],[1.48242,0]],[[314.12636,142.45066],[-1.86086,-0.14514],[-3.70115,-2.94678]],[[300.59604,135.65224],[3.93862,1.52902],[-6.31879,-2.45302]],[[283.08717,123.42067],[6.3059,1.86003],[-2.22569,-1.35925]],[[278.73449,118.58517],[1.64551,1.55463],[-1.9037,-1.79857]],[[271.22908,113.977],[2.10573,1.64996],[-5.18531,-4.06298]],[[254.75208,100.23914],[6.6469,2.07039],[0,0]],[[254.7257,100.22937],[0.0169,0.00661],[-0.22818,-0.07322]],[[254.07485,99.69632],[0.15134,0.30934],[-0.11013,-0.18885]],[[253.96869,98.95053],[-0.06387,0.31186],[0.03803,-0.31605]],[[254.30524,98.27658],[-0.1642,0.14432],[0.24139,-0.24561]],[[255.09125,97.9767],[-0.23962,-0.00269],[0.01813,-0.00093]],[255.11937,97.97577],[[256.014,98.00684],[0,0],[3.26491,-1.46088]],[[265.57273,96.23354],[-4.10499,0],[2.17872,0]],[[275.63485,95.6327],[-3.89035,0.09541],[-1.08179,-0.45028]],[[272.3544,94.47612],[1.1101,0.27871],[-4.19414,-0.51398]],[[258.848,89.79553],[4.32728,1.41448],[-8.52961,-2.78812]],[[232.60843,83.42891],[8.45629,2.50192],[-11.41686,-0.62333]],[[197.62588,81.13424],[10.77508,0],[-11.04891,0]],[[170.09255,99.84226],[3.66681,-10.42943],[-2.54569,1.55813]],[[167.18396,106.7279],[1.25892,-2.55531],[-2.71526,5.51132]],[[160.45837,122.94769],[0.0441,-6.14903],[-0.01,1.39402]],[[159.32677,126.83942],[1.40347,-1.00454],[-0.89262,0.63889]],[[154.29391,126.72907],[0.4438,0.10273],[1.97863,0.60065]],[[159.56374,129.94767],[-1.92682,-0.32993],[1.47275,0.25218]],[[165.1342,131.25155],[-1.31064,-0.81923],[0.00634,0.00397]],[[165.48456,132.13083],[-0.22255,-0.37021],[0.27229,0.06464]],[[166.06266,132.50234],[-0.12289,-0.16349],[0.05549,-0.01497]],[[166.23592,132.41303],[-0.06,0.0454],[0.00709,-0.00537]],[[166.25678,132.39475],[-0.00682,0.00681],[-0.32779,-0.11926]],[[165.53988,131.32005],[0,0.67228],[0,-0.96581]],[[166.61358,130.16411],[-0.27059,0.02741],[0.07576,-1.27699]],[[167.02002,126.98299],[-0.27257,0.47472],[1.76293,-3.07035]],[[172.99416,118.06118],[-2.59812,2.68407],[6.50087,-6.45917]],[[195.51638,100.35833],[-8.76509,2.92169],[0,0]],[[196.71784,100.62052],[-0.46964,-0.50613],[10.43954,3.77689]],[[207.13271,125.99697],[2.87589,-9.97721],[0.06307,0.14881]],[[207.23399,126.5447],[0,-0.21856],[0,0]]],&quot;closed&quot;:true,&quot;fillColor&quot;:[0,0,0],&quot;strokeWidth&quot;:0.5}]}" fill="#ea0000" stroke-width="0.25"/><path d="M195.61497,102.83092c9.4124,3.05622 11.7716,13.78778 9.17529,22.4866c-0.82602,0.00256 -1.62894,0.0221 -2.42284,0.0687c-0.02261,-0.30519 -0.17161,-0.65135 -0.64547,-0.88828c-1.03886,-0.51943 -1.5603,0.52277 -1.5603,0.52277l0.65211,0.13162c-2.50038,0 -4.50065,-0.16166 -6.39327,1.71359c-8.80883,1.93068 -16.56429,3.15632 -25.83402,3.30682c-0.00497,-0.74508 0.05089,-1.43943 0.36754,-1.94137c1.87628,-2.97412 2.95361,-5.95285 5.6343,-8.51513c6.02269,-6.06741 12.95582,-13.93372 20.92637,-16.92663c0.06121,0.0282 0.10028,0.0413 0.10028,0.0413z" data-paper-data="{&quot;noHover&quot;:false,&quot;origItem&quot;:[&quot;Path&quot;,{&quot;applyMatrix&quot;:true,&quot;segments&quot;:[[195.5887,102.87344],[[195.4887,102.83231],[0.06121,0.0282],[-7.97055,2.99291]],[[174.63675,119.70381],[6.02269,-6.06741],[-2.68069,2.56228]],[[168.99605,128.20428],[1.87628,-2.97412],[-0.31665,0.50194]],[[168.62675,130.14309],[-0.00497,-0.74508],[9.26973,-0.1505]],[[194.39189,126.8249],[-8.80883,1.93068],[1.89262,-1.87525]],[[200.77157,125.1255],[-2.50038,0],[0,0]],[200.11988,124.99323],[[201.67817,124.4738],[-1.03886,-0.51943],[0.47386,0.23693]],[[202.32429,125.36093],[-0.02261,-0.30519],[0.7939,-0.0466]],[[204.74557,125.2951],[-0.82602,0.00256],[2.59631,-8.69882]],[[195.5887,102.87345],[9.4124,3.05622],[0,0]]],&quot;closed&quot;:true}]}" fill="#c60000" stroke-width="0.5"/><path d="M328.77353,184.74156c0.50558,-0.50209 0.9688,-1.0296 1.36646,-1.59312c0.51862,-0.73496 0.10312,-1.78352 0.67407,-2.49143c0.49526,-0.61407 1.58947,-0.69435 2.27581,-1.1661c2.83845,-1.95098 4.51184,-4.01738 8.02065,-5.2489c0.15001,-0.05265 0.30824,-0.09483 0.4721,-0.12969c0.24623,0.30087 0.49025,0.62116 0.73133,0.95843c-1.21645,0.10099 -2.41193,0.76451 -3.53173,1.28482c-1.09476,0.50867 -2.08991,1.25516 -2.94599,2.10626c-1.0179,1.01197 -1.93967,2.27227 -2.72258,3.66415c-1.58935,0.77894 -3.20213,1.66634 -4.38576,2.76202c0.01628,-0.04975 0.03151,-0.09857 0.04563,-0.14642z" data-paper-data="{&quot;noHover&quot;:false,&quot;origItem&quot;:[&quot;Path&quot;,{&quot;applyMatrix&quot;:true,&quot;segments&quot;:[[532.66831,373.61357],[[535.17001,375.27047],[0,0],[9.3532,15.73502]],[[584.55329,396.98167],[-17.61846,6.86688],[6.28706,-6.4649]],[[613.37265,374.95889],[-10.05404,-2.509],[3.29808,0.82304]],[[636.93739,386.53183],[0.64734,2.05566],[0,-10.98032]],[[622.62463,345.24637],[7.37874,7.64576],[-6.91696,-7.16728]],[[598.84361,359.96923],[2.73032,-4.47776],[-0.7722,2.06026]],[[593.49937,372.84179],[1.4316,-1.12568],[-4.82358,3.7929]],[[578.53439,368.39269],[3.5398,2.45288],[-7.08334,-4.9083]],[[547.05717,352.59181],[9.62708,1.248],[-3.66004,4.32374]],[[533.73229,362.59699],[4.59932,-2.11252],[0.25212,3.72942]],[[532.13863,373.43213],[1.31286,-3.2348],[0.31974,0.07646]],[532.66829,373.61355]],&quot;closed&quot;:true,&quot;fillColor&quot;:[0,0,0,1]}]}" fill="#ea0000" stroke-width="0.5"/><path d="M340.70291,184.1481c-0.35521,0.30845 -0.72574,0.63826 -1.10045,0.9856c0.24538,-0.43166 0.64283,-0.7334 1.10045,-0.9856z" data-paper-data="{&quot;noHover&quot;:false,&quot;origItem&quot;:[&quot;Path&quot;,{&quot;applyMatrix&quot;:true,&quot;segments&quot;:[[532.66831,373.61357],[[535.17001,375.27047],[0,0],[9.3532,15.73502]],[[584.55329,396.98167],[-17.61846,6.86688],[6.28706,-6.4649]],[[613.37265,374.95889],[-10.05404,-2.509],[3.29808,0.82304]],[[636.93739,386.53183],[0.64734,2.05566],[0,-10.98032]],[[622.62463,345.24637],[7.37874,7.64576],[-6.91696,-7.16728]],[[598.84361,359.96923],[2.73032,-4.47776],[-0.7722,2.06026]],[[593.49937,372.84179],[1.4316,-1.12568],[-4.82358,3.7929]],[[578.53439,368.39269],[3.5398,2.45288],[-7.08334,-4.9083]],[[547.05717,352.59181],[9.62708,1.248],[-3.66004,4.32374]],[[533.73229,362.59699],[4.59932,-2.11252],[0.25212,3.72942]],[[532.13863,373.43213],[1.31286,-3.2348],[0.31974,0.07646]],[532.66829,373.61355]],&quot;closed&quot;:true,&quot;fillColor&quot;:[0,0,0,1]}]}" fill="#ea0000" stroke-width="0.5"/><path d="M325.41119,190.9678c0.11223,-0.18499 0.23262,-0.38159 0.35877,-0.58727c0.01079,0.0938 0.02418,0.18777 0.04007,0.28186c-0.13335,0.10055 -0.26632,0.2024 -0.39884,0.30541z" data-paper-data="{&quot;noHover&quot;:false,&quot;origItem&quot;:[&quot;Path&quot;,{&quot;applyMatrix&quot;:true,&quot;segments&quot;:[[532.66831,373.61357],[[535.17001,375.27047],[0,0],[9.3532,15.73502]],[[584.55329,396.98167],[-17.61846,6.86688],[6.28706,-6.4649]],[[613.37265,374.95889],[-10.05404,-2.509],[3.29808,0.82304]],[[636.93739,386.53183],[0.64734,2.05566],[0,-10.98032]],[[622.62463,345.24637],[7.37874,7.64576],[-6.91696,-7.16728]],[[598.84361,359.96923],[2.73032,-4.47776],[-0.7722,2.06026]],[[593.49937,372.84179],[1.4316,-1.12568],[-4.82358,3.7929]],[[578.53439,368.39269],[3.5398,2.45288],[-7.08334,-4.9083]],[[547.05717,352.59181],[9.62708,1.248],[-3.66004,4.32374]],[[533.73229,362.59699],[4.59932,-2.11252],[0.25212,3.72942]],[[532.13863,373.43213],[1.31286,-3.2348],[0.31974,0.07646]],[532.66829,373.61355]],&quot;closed&quot;:true,&quot;fillColor&quot;:[0,0,0,1]}]}" fill="#ea0000" stroke-width="0.5"/><path d="M272.18289,194.61742c0.14932,-0.34197 0.29778,-0.6852 0.4501,-1.02519c-2.06197,-1.75833 -3.82412,-3.80982 -5.0978,-5.95254l-1.25098,-0.83038l-0.00001,-0.00001c0,0 -0.10497,-0.05269 -0.26484,-0.09092c0.65643,-1.6174 0.92365,-3.56411 0.79759,-5.42882c2.29966,-1.05626 4.83779,-2.85582 6.66781,-5.01769c2.26013,0.29299 5.08957,1.50713 7.81912,2.97154c-0.18409,0.65675 0.43873,1.24909 0.43873,1.24909c0.85039,0.84261 2.13265,1.21863 2.86365,2.16668c1.15904,1.5032 0.6157,3.04632 2.53665,4.51386c0.57802,0.44158 1.01084,1.39613 1.72914,1.28148c3.94684,-0.62995 2.6347,-4.2571 3.8797,-6.74196c2.39786,-4.78585 7.51579,-9.23234 12.0015,-11.92378c0.88834,0.27297 1.45274,1.17154 2.13927,1.79792c2.32501,2.12128 4.64537,4.0537 6.77514,6.38825c0.3776,0.41391 0.79981,0.94894 1.25861,1.47869c-0.17405,0.20731 -0.3249,0.42138 -0.44769,0.64019c-0.14965,0.26668 0.05449,0.59906 0.10336,0.89905c-0.18784,0.23663 -0.37685,0.47426 -0.56733,0.71049c-0.19293,-0.12098 -0.37281,-0.23448 -0.53604,-0.33563c-0.49113,0.69341 -1.0141,1.33796 -1.56392,1.94005c0.01797,0.00999 0.0359,0.02005 0.05378,0.03c-0.09582,0.10175 -0.18075,0.21073 -0.25165,0.32757h-0.00001c-0.34111,0.56213 -0.51272,1.0788 -0.62242,1.56144c-2.84323,3.34472 -5.82801,6.71559 -8.58026,10.13437c-0.0653,-0.25991 -0.26332,-0.50208 -0.26332,-0.50208l-0.95771,-1.30534c-0.46195,-0.34577 -0.84327,-0.63239 -1.30522,-0.97816c-4.22609,-2.42959 -7.03924,-0.97325 -9.73597,2.63709c-0.80668,1.07997 -1.27515,2.38036 -1.83104,3.60839c-0.30776,0.67988 -0.98223,1.15878 -1.26269,1.85037c-0.09493,0.23408 0.37728,0.92099 0.21536,0.72711c-0.30233,-0.362 -0.22884,-1.05856 -0.65763,-1.25498c-1.10453,-0.50596 -2.52115,-0.07807 -3.60044,-0.63584c-3.36007,-1.73645 -7.21095,-3.9399 -10.9325,-4.89031z" data-paper-data="{&quot;noHover&quot;:false,&quot;origItem&quot;:[&quot;Path&quot;,{&quot;applyMatrix&quot;:true,&quot;segments&quot;:[[[566.27757,398.92705],[-6.72013,-3.47289],[2.1586,1.11554]],[[573.45671,400.1903],[-2.20907,-1.01192],[0.85759,0.39284]],[[574.76621,402.69895],[-0.60467,-0.72399],[0.32384,0.38775]],[[574.33772,401.24518],[-0.18985,0.46817],[0.56092,-1.38319]],[[576.85697,397.54329],[-0.61553,1.35977],[1.11178,-2.45605]],[[580.50601,390.32536],[-1.61335,2.15994],[5.39346,-7.22069]],[[599.89497,385.09205],[-8.45218,-4.85919],[0.9239,0.69154]],[[602.66667,387.16667],[-0.9239,-0.69154],[0,0]],[604.58013,389.77992],[[604.95045,390.65933],[-0.1306,-0.51983],[5.50452,-6.83757]],[[622.08869,370.45537],[-5.68645,6.68944],[0.21941,-0.96528]],[[623.33393,367.33975],[-0.68222,1.12426],[0,0]],[[623.33395,367.33975],[0,0],[0.14181,-0.23368]],[[623.83739,366.68601],[-0.19164,0.2035],[-0.03576,-0.0199]],[[623.72984,366.62618],[0.03594,0.01998],[1.09964,-1.20418]],[[626.85877,362.75354],[-0.98225,1.38683],[0.32646,0.2023]],[[627.93054,363.42303],[-0.38585,-0.24196],[0.38095,-0.47246]],[[629.06563,362.00449],[-0.37568,0.47326],[-0.09774,-0.59998]],[[628.85966,360.20997],[-0.29931,0.53336],[0.24559,-0.43762]],[[629.75553,358.93161],[-0.34809,0.41462],[-0.91761,-1.0595]],[[627.24029,355.98109],[0.7552,0.82782],[-4.25953,-4.6691]],[[613.70896,343.23828],[4.65001,4.24256],[-1.37306,-1.25275]],[[609.43946,339.65174],[1.77669,0.54593],[-8.97142,5.38288]],[[585.45295,363.51138],[4.79572,-9.5717],[-2.48999,4.96972]],[[577.69508,376.99617],[7.89367,-1.2599],[-1.4366,0.22929]],[[574.19533,374.38863],[1.15603,0.88316],[-3.8419,-2.93506]],[[569.12313,365.27345],[2.31808,3.0064],[-1.46199,-1.89611]],[[563.3989,360.93443],[1.70078,1.68523],[0,0]],[[562.68991,358.54378],[-0.36817,1.31349],[-5.45911,-2.92881]],[[547.05715,352.59185],[4.52027,0.58598],[-3.66004,4.32374]],[[533.73227,362.59703],[4.59932,-2.11252],[0.25212,3.72942]],[[532.13861,373.43217],[1.31286,-3.2348],[0.31974,0.07646]],[532.66827,373.61359],[532.66829,373.61361],[[535.16999,375.27051],[0,0],[2.54735,4.28545]],[[545.35725,387.14357],[-4.12394,-3.51667],[-0.30463,0.67999]],[[544.45549,389.19062],[0.29864,-0.68394],[7.4431,1.90083]]],&quot;closed&quot;:true}]}" fill="#ea0000" stroke-width="0.5"/><path d="M197.00172,191.79602c0,0 -0.61343,-0.12687 -0.94741,-0.54476l-1.50695,-0.79661c-3.34794,0.1241 -4.51602,2.3299 -6.26442,4.61752c-1.40331,4.9146 -0.56005,9.5033 0.50865,14.33779c0.49117,2.22199 0.97259,4.82358 2.57524,6.80593c1.04651,1.29442 3.3045,2.70191 4.65224,3.8169c3.15478,2.60995 6.08407,5.46527 9.83298,7.47788c3.74586,3.12268 7.77106,3.98755 12.30434,6.1628c2.46911,1.18478 4.8176,2.86462 7.51999,3.73233c1.94176,0.62348 4.70363,0.26087 6.74556,0.26087c6.05277,0 12.43545,0.49583 18.15988,-1.29437c1.64177,-0.18331 3.15698,-0.83441 4.71374,-1.30315c2.04132,-0.61465 2.44334,0.23588 4.4471,-0.8332c1.78904,-0.95452 3.47571,-3.19815 5.23793,-4.33333c5.48035,-3.53033 11.37749,-6.56928 18.6118,-6.56928c2.93993,0 6.88397,-0.6881 9.03947,1.09515c6.19961,-0.41069 13.20303,0.05077 19.15199,1.28058c1.99532,0.41249 4.16851,0.38411 6.01689,1.13026c1.65898,0.6697 3.3025,1.98619 5.07162,2.59677c2.87969,0.99387 5.88263,1.26209 8.87549,2.33743c1.57947,0.56751 3.06968,1.41106 4.76851,1.64388c1.48573,0.77141 2.77058,1.86753 4.41879,2.36408c2.98127,0.89816 10.75946,0.82147 13.52939,-0.56657c2.02979,-1.01715 3.6092,-3.6574 4.77817,-5.25899c2.44951,-3.3561 5.34174,-6.99054 6.84682,-10.797c0.72409,-1.83128 0.20158,-4.33196 0.20158,-6.24227c0,-9.66665 -2.30644,-18.96116 -7.48976,-27.76426c-0.69242,-1.17597 -1.5133,-3.13637 -2.61394,-4.68806c-0.58257,0.13783 -1.14858,-0.0963 -1.14858,-0.0963l-0.00002,0.00002c-2.74728,-1.16367 -4.2463,-3.31653 -7.32685,-3.90148c-0.59359,-0.11271 -1.18363,-0.18641 -1.76873,-0.2248c-0.73867,-0.58154 -1.67021,-0.98746 -2.84936,-1.15214c-1.48349,-0.20718 -2.95325,0.63475 -4.31167,1.26592c-1.09476,0.50867 -2.08991,1.25516 -2.94599,2.10626c-0.22258,0.22128 -0.44055,0.45443 -0.65348,0.69823c-0.30244,0.17932 -0.59856,0.36318 -0.88796,0.5505v0.00001c-0.88419,0.5723 -2.09832,0.93425 -2.61005,1.76091c-0.43223,0.69822 -0.81443,1.38153 -1.15796,2.06641c-0.65819,0.41454 -1.27119,0.86163 -1.79888,1.35011c0.01628,-0.04974 0.03151,-0.09856 0.04563,-0.14641c0.50558,-0.50209 0.9688,-1.0296 1.36645,-1.59312c0.51862,-0.73496 0.10312,-1.78352 0.67407,-2.49143c0.49526,-0.61407 1.58947,-0.69435 2.27581,-1.1661c2.83845,-1.95098 4.51184,-4.01738 8.02065,-5.2489c0.9784,-0.3434 2.30737,-0.24147 3.25829,-0.56778c1.30604,-0.004 2.65468,0.11126 4.03745,0.35923c1.69861,0.30462 2.93519,1.00864 4.10497,1.78781c0.50568,-0.22569 1.08212,-0.13031 1.08212,-0.13031c4.69514,0.94206 4.77862,4.03109 6.98613,7.05967c6.49539,8.91127 8.73351,19.99112 8.73351,30.16605c0,2.2286 0.44509,4.92042 -0.37142,7.06855c-1.49372,3.92979 -4.59211,7.76454 -7.0852,11.22552c-1.37222,1.90498 -3.28023,4.87577 -5.69767,6.07435c-3.61172,1.79071 -12.26654,2.01894 -16.24507,0.84922c-0.42537,-0.12506 -3.66028,-1.92879 -4.48678,-2.38505c-1.74559,-0.24213 -3.28297,-1.0968 -4.90148,-1.68945c-2.91969,-1.06909 -6.05584,-1.36628 -8.85287,-2.32924c-1.88193,-0.64791 -3.64375,-1.98695 -5.40422,-2.73657c-1.42818,-0.60813 -3.80854,-0.56841 -5.26478,-0.86974c-6.29925,-1.30343 -12.97631,-1.14565 -19.52804,-1.38608c-1.91321,-1.5828 -5.20461,-0.90485 -7.88305,-0.90485c-6.5871,0 -11.85925,2.89321 -16.84489,6.09739c-1.75942,1.13074 -3.41919,3.40111 -5.23792,4.33334c-2.37624,1.21799 -7.45942,2.19269 -10.17916,2.53031c-5.98747,1.84323 -12.59119,1.3723 -18.90848,1.3723c-2.46743,0 -5.40494,0.31259 -7.75944,-0.40579c-2.88938,-0.88157 -5.4069,-2.66502 -8.0244,-3.92586c-4.62609,-2.22837 -8.82834,-3.21158 -12.68738,-6.38121c-3.83555,-2.05912 -6.84183,-4.98387 -10.06844,-7.65325c-1.49267,-1.23489 -3.87109,-2.76457 -5.01777,-4.18309c-1.85698,-2.29721 -2.49973,-5.26989 -3.06558,-7.86075c-1.156,-5.29296 -1.98118,-10.31229 -0.2972,-15.66221c2.68519,-3.58723 4.4283,-6.14759 9.85226,-6.04915l2.38864,1.13278c0,0 0.19401,0.0963 0.38683,0.27649c-0.00276,0.00702 -0.00553,0.01404 -0.00831,0.02105c-0.31028,0.78196 -0.65275,1.56124 -1.00807,2.34205c-0.03682,-0.00747 -0.07394,-0.01472 -0.11136,-0.02174z" fill="#000000" stroke-width="0.5"/><path d="M263.98089,205.23596c1.10049,0.78491 3.09691,0.91801 4.05127,1.70567c1.05928,0.87425 1.44823,2.35344 2.37532,3.36679c2.182,2.38505 4.27557,3.5824 5.00451,6.73364c0.29258,-0.08154 0.57341,-0.18036 0.83578,-0.30634c0.55077,0.53635 1.18278,1.02272 1.99224,1.40285c1.17588,0.5522 4.55378,0.19479 5.7553,0.19479c1.67061,0 3.35775,-0.00407 5.04791,-0.03338l2.60751,1.1167c3.60895,-0.04809 7.24241,-0.92894 10.44148,-2.46287c1.86836,-0.56127 3.5949,-0.67006 5.58777,-1.21946c5.31923,-1.46643 11.13899,-7.43927 13.19652,-11.62934c1.02429,-2.08594 1.18118,-4.60103 1.4049,-7.11053c-0.08423,0.081 -0.16781,0.16151 -0.2507,0.24147c0.25104,-0.59453 0.49748,-1.19626 0.71927,-1.80016c0.76496,-1.24006 1.51323,-2.49594 2.24985,-3.77597c0.20265,-0.35213 0.47007,-0.79008 0.77014,-1.27929c0.10177,0.88464 0.43451,1.78543 0.92167,2.64522c-0.34073,0.27525 -0.68047,0.5594 -1.01763,0.84914c-0.93043,3.66814 -0.49038,8.01457 -2.00565,11.18681c-2.31862,4.85405 -8.90559,11.35417 -15.00766,13.03732c-2.49387,0.68789 -4.42486,0.66046 -6.8496,1.66666c-5.78197,0.96914 -11.88922,1.06766 -17.81577,1.06766c-2.00747,0 -5.3065,0.33281 -7.13805,-0.47188c-0.92701,-0.40728 -1.63229,-0.96468 -2.23923,-1.58015c-0.05119,0.01374 -0.10531,0.02549 -0.16254,0.03502c-1.23299,0.2055 -1.43849,-1.02749 -1.43849,-1.02749c-0.34415,-2.65427 -2.69966,-3.85197 -4.46002,-5.79944c-0.83516,-0.92393 -1.13947,-2.29192 -2.08915,-3.09767c-0.79301,-0.67283 -2.95026,-0.91368 -3.94873,-1.62767c-0.96344,-0.68894 -1.22908,-1.354 -1.94674,-1.78266c-0.1456,0.26846 -0.2961,0.53414 -0.45393,0.79562c-0.82614,1.36864 -3.25781,3.19632 -3.97038,4.28619c-0.40621,0.62129 -0.04837,1.61923 -0.56244,2.1547c-0.00895,0.00932 -0.01809,0.01823 -0.0274,0.02675c-0.0657,0.03316 -0.13207,0.06602 -0.19912,0.0986c0.00584,0.00461 0.01167,0.00923 0.01748,0.01386c-0.38996,0.1535 -0.95194,-0.06217 -1.3996,-0.03247l-0.06033,-0.07465c0,0 -1.70984,0 -2.30143,1.41405c-0.35607,0.00183 -0.71214,0.00367 -1.06821,0.0055c0.04346,0.06815 0.08377,0.14414 0.11597,0.22719c0.26728,0.13238 0.52597,0.29272 0.77392,0.47717c-0.01325,0.11862 -0.02025,0.24385 -0.02025,0.37608c0,1.99 1.58405,2.39596 2.23033,2.47878c1.15097,2.5693 1.02482,5.80781 -1.58503,7.52081c-3.51531,2.3073 -10.11281,0.49823 -14.37327,-0.63585c-2.85773,2.58038 -7.07542,3.12969 -10.57686,-0.6589c-1.1238,-1.21596 -1.43194,-3.36786 -1.45219,-5.62068c-5.05249,-0.47053 -8.60295,-2.70079 -11.18054,-7.83728l-0.73616,-1.10019c0,0 -0.03054,-0.04583 -0.06837,-0.12417c-3.49601,-0.21839 -7.01268,-0.87883 -7.69646,-1.84529c-0.06283,-0.0888 -0.12126,-0.17762 -0.17543,-0.26647c-0.65278,0.25654 -1.20649,-0.29719 -1.20649,-0.29719l0.04697,-0.43413c-0.66739,-0.05365 -1.2769,-0.15652 -1.83326,-0.30362c-2.42598,1.44034 -6.25285,2.02001 -8.05948,-0.24724c-0.72229,-0.90644 -0.81549,-2.75105 -0.6003,-4.79502c0.33367,-0.19849 0.53431,-0.39912 0.53431,-0.39912l0.96013,-1.38273c0.84151,-2.80698 2.16701,-5.56638 2.9825,-8.2774c0.93943,-3.12303 0.64275,-6.85865 0.50735,-10.27541c3.66852,-6.97967 13.47265,-7.56451 21.29746,-7.61139c-1.20568,-0.98782 -2.28188,-2.06913 -3.18245,-3.27507c-0.29816,0.18724 -0.86186,0.39732 -1.42555,-0.16637c-0.82129,-0.82129 0,-1.64258 0,-1.64258c0.05747,-0.05747 0.11472,-0.1154 0.17175,-0.17373c-1.0582,-2.01444 -1.66784,-4.3453 -1.67339,-7.09743c-1.65221,0.80301 -3.33259,1.41336 -4.95041,1.79859c-8.48702,5.83411 -19.44914,5.15287 -29.60281,5.12843c-8.53186,-1.49069 -17.09602,-7.18571 -23.42586,-12.21729c-1.30965,-1.04104 -1.63677,-2.72792 -1.30382,-4.25338c-2.18415,-1.581 -6.50298,-3.56255 -4.73996,-6.69554c1.51531,-2.69278 6.20959,-0.35402 9.13267,1.64694c2.05401,-1.44926 4.43402,-2.45678 6.92658,-3.15212l-0.25816,-0.26668c-1.17902,-3.31482 -1.96133,-5.21103 -2.09039,-8.51297c-3.79899,-1.20485 -8.74826,-4.85282 -11.28164,-5.78717c-2.06882,-5.75456 2.67765,-2.43029 5.37706,-3.60769c0.95851,-0.41806 -0.58376,-6.54222 0.16732,-7.69044c2.43798,-3.7271 4.79417,-7.38379 6.79263,-11.39803c1.37533,-2.76256 0.41326,-5.36294 3.18099,-7.34267c0.58918,-1.88242 2.10838,-2.20592 2.83874,-3.39007c5.85081,-9.48624 14.54791,-16.2309 26.54068,-16.2309c10.94453,0 23.77484,1.86039 35.37225,2.32759c8.53672,2.55855 17.94818,3.52895 26.52302,6.43339c2.93881,0.99542 7.87712,1.72937 10.56126,2.94228c0.9504,0.42947 1.60358,1.66026 2.64648,1.669c3.97892,0.99102 8.60953,2.0595 12.37606,3.41993c0.71394,0.25787 3.80892,2.04791 2.36253,3.56367c-2.43766,2.5546 -3.70775,0.06791 -5.38979,-0.66047c-3.75675,-1.62678 -12.23695,0.04984 -16.50495,0.04984c-3.35732,0 -4.99311,0.00637 -7.14465,0.8443c5.46906,3.17006 9.52211,9.04138 14.26465,12.77233c2.11834,1.6665 5.63942,2.83493 7.59389,4.68371c1.61224,1.52506 1.70225,3.20031 3.77772,4.45637c6.18315,2.24585 11.02002,10.03452 17.33567,12.15961c4.25216,1.43077 11.17387,4.46925 14.74062,7.65281l1.9506,0.97529c0.39287,0.18623 0.66455,0.58646 0.66455,1.05013c0,0.47403 -0.28397,0.88173 -0.69107,1.06227l-1.47348,0.69231l-0.19597,-0.41708c-2.40082,0.89762 -4.77677,0.52734 -7.8476,0.52734c-7.69465,0 -19.13593,2.02711 -26.11158,-1.3048c-3.71326,-2.23973 -8.12261,-3.26665 -11.55437,-5.21428c-0.30417,-0.17263 -0.60255,-0.35147 -0.89535,-0.53618c1.15596,2.03607 2.45017,3.94867 4.53805,5.07248c0.71406,1.32662 2.50675,2.06643 3.07043,3.11438c4.75014,8.8312 9.7381,17.56432 13.31016,27.27812l0.02531,-0.01688l1.15268,1.72901c0.1286,0.18696 0.20388,0.41343 0.20388,0.6575c0,0.64147 -0.52002,1.16148 -1.16149,1.16148c-0.19509,0 -0.37893,-0.0481 -0.54033,-0.13307l-1.14058,-0.57029l0.01343,-0.02686l-0.08319,-0.01105c-3.08256,-2.11485 -5.59008,-4.87533 -9.25179,-5.78489c-1.48796,-1.32593 -3.15884,-2.42902 -4.91017,-3.42781c1.39003,2.46834 1.02149,4.99806 -0.26233,7.27307c3.19932,0.78987 6.91848,2.71841 10.05586,4.51424c-0.14427,0.26269 -0.29392,0.51688 -0.44851,0.76345c0.74308,0.49139 1.52692,0.93687 2.04735,1.64303c1.0947,1.48537 -0.03493,2.00383 0.97038,3.29303c0.29075,0.37285 0.83772,0.47026 1.16019,0.81604c0.16819,0.18035 0.00466,0.67257 0.25012,0.69623c0.77998,0.07518 0.35992,-1.59887 0.36368,-1.61881c0.41119,-2.1777 1.27629,-4.08997 2.55817,-5.87092c3.26356,-4.53417 7.42418,-8.8463 12.53929,-11.17139c2.50876,0.58716 3.68152,1.97563 5.61055,3.62168c2.3904,2.03975 4.8083,4.29882 6.95709,6.73122c1.09682,-0.70865 2.30103,-1.31872 3.23477,-1.82994c4.25242,-2.32819 8.44144,-5.15236 12.5104,-7.67706c1.05472,-0.42769 1.83497,-1.23218 2.87032,-1.6911c1.09839,-0.48686 2.43693,-0.64212 3.78572,-0.80276c4.5707,-2.14245 9.88943,-4.05726 15.21816,-2.99606c4.89649,0.97512 8.26083,6.31964 11.22655,9.38765c4.44395,6.64859 6.99617,13.48075 10.03481,20.5906c1.37917,3.22703 3.00394,6.1749 3.57872,9.61823c1.03094,6.17596 0.3148,12.73628 0.3148,18.95674c0,2.86173 0.83661,6.75098 -0.50473,9.45112c-0.74309,1.49587 -2.3261,2.8512 -3.35197,4.21242c-2.71445,3.60178 -3.77749,6.42829 -8.81734,8.05134l-0.39387,0.12219c0,0 -1.31356,0.40752 -1.88389,-0.60994c-0.31552,0.18052 -0.61346,0.38066 -0.88884,0.59438l-0.00001,0.00003c-5.62174,0.12786 -3.57033,4.5372 -8.37801,5.71938c-2.6046,0.64046 -5.63527,0.37577 -8.31688,0.37577c-3.62276,0 -6.75388,-0.19364 -10.29188,-0.67986c-1.84372,-0.25338 -3.81183,0.07782 -5.58491,-0.41114c-0.64112,-0.1768 -0.98885,-0.81302 -1.62394,-1.00415c-3.26292,-0.98194 -6.50332,-1.48447 -9.96072,-2.29912c-6.59251,-1.97995 -13.37142,-3.3826 -20.10228,-4.98891c-5.10742,-1.21887 -9.13703,-2.95015 -14.48549,-2.95015c-3.29219,0 -8.09728,-0.10769 -10.66496,1.5578c-2.5947,0.44534 -3.6107,1.29878 -5.81716,2.45464c-2.10357,1.10196 -4.84103,1.82671 -6.80511,3.06104c-2.9672,1.86472 -5.39134,4.41291 -8.5753,6.08352c-6.91994,3.63087 -14.04069,6.50967 -22.53126,6.50967c-7.2439,0 -15.69492,0.98719 -22.59096,-0.71849c-0.83411,-0.20631 -3.19207,-0.40209 -3.94016,-0.7771c-5.34671,-2.68026 -8.56585,-6.61496 -12.85214,-10.23206c-1.05965,0.36109 -1.75556,-0.4869 -1.75556,-0.4869l-0.84266,-1.02949c-1.20076,-1.19064 -2.38889,-2.39016 -3.55903,-3.60149c-2.7238,-3.37842 -5.69054,-6.79413 -7.44778,-10.63599c-0.70165,-1.53402 -0.73847,-3.25726 -1.57127,-4.74571c-0.89786,-1.60473 -2.1898,-3.12601 -2.5426,-4.87006c-0.41151,-2.03435 -0.01132,-4.42916 -0.01132,-6.48606c0,-7.08301 0.47093,-13.65596 2.53554,-20.54448c0.83614,-2.7208 1.12159,-6.86487 3.62264,-9.06389c0.35921,-0.31582 1.16542,0.03047 1.53688,-0.27551c0.35837,-0.29522 -0.0438,-0.91929 0.29271,-1.23161c0.21083,-0.19566 3.60841,-1.68487 4.05479,-1.76773c2.07766,-0.38571 4.65896,-0.03344 6.79381,-0.03344c2.07451,0 3.99723,-0.16296 5.90707,0.27195c0.05756,0.8778 0.14257,1.80248 0.20857,2.73693c-0.02009,-0.00976 -0.04024,-0.0194 -0.06042,-0.02889c-1.71561,-0.80679 -4.22596,-0.47998 -6.05523,-0.47998c-1.91602,0 -4.24776,-0.36902 -6.09952,-0.03344c-2.39941,0.43482 -1.58419,1.23737 -2.90501,2.33399c-0.41208,0.34214 -1.25617,0.06471 -1.68646,0.39116c-1.77516,1.34679 -2.15058,6.01425 -2.6782,7.78682c-2.03996,6.68943 -2.44531,13.05715 -2.44531,19.93814c0,1.96507 -0.37189,4.23596 -0.01132,6.18061c0.27776,1.49799 1.53128,2.75359 2.28995,4.13302c0.37638,0.68433 1.28074,4.08957 1.64639,4.89349c1.65287,3.63405 4.49333,6.86169 7.06538,10.05507c1.16273,1.20108 2.34348,2.39025 3.53342,3.57294l0.49178,0.59783c0.80266,-0.19761 1.46438,0.34983 1.46438,0.34983c4.39056,3.63231 7.34459,7.30177 12.56938,10.12946c2.30539,1.24769 6.69409,1.17109 9.32849,1.17109c5.23793,0 10.47583,0 15.71376,0c7.95081,0 14.48972,-2.77411 20.98377,-6.15699c3.11867,-1.62458 5.48682,-4.18081 8.40514,-5.99307c2.01788,-1.25309 4.74255,-1.98142 6.88912,-3.10735c2.19968,-1.15379 3.59898,-2.21784 6.21738,-2.63372c2.96477,-1.76933 8.24655,-1.77553 11.8984,-1.77553c5.70279,0 9.94333,1.77172 15.33037,3.04985c6.76173,1.6043 13.57245,3.01692 20.18941,5.01109c10.53066,2.49789 22.3241,6.27996 33.87964,4.02799c1.73081,-0.3373 1.53451,-1.72902 2.16427,-2.70947c1.33089,-2.072 3.28464,-3.02511 6.02399,-2.95097c0.69331,-0.6204 1.6634,-1.06131 2.65419,-1.26623l0.88479,-0.79613c0,0 1.06839,-0.88388 2.13678,0v-0.00003c0.23045,0.19065 0.36149,0.3813 0.42527,0.56308c1.96407,-1.44154 2.83299,-3.4899 4.47836,-5.67607c0.60167,-0.79942 2.62204,-2.88012 3.0947,-3.78758c1.19401,-2.29232 0.30109,-6.0992 0.30109,-8.54888c0,-6.10318 0.72508,-12.5555 -0.28638,-18.61473c-0.54644,-3.27352 -2.12292,-6.05846 -3.4343,-9.12686c-2.95166,-6.90636 -5.41059,-13.56333 -9.69704,-20.0334c-2.26349,-2.32366 -5.61687,-7.71767 -9.37453,-8.33845c-2.78529,-0.46014 -5.47632,-0.06914 -8.03493,0.71671c-0.14737,0.48255 -0.66878,0.77012 -0.66878,0.77012v-0.00001l-1.48572,0.7872c-1.80207,0.5937 -5.19293,0.49188 -6.6663,1.26049c-0.96098,0.50131 -1.75796,1.21601 -2.7705,1.64223c-4.06568,2.52266 -8.23134,5.30229 -12.47045,7.65627c-0.74579,0.41414 -2.11956,1.02363 -3.19919,1.7166c0.6379,0.8112 1.23973,1.63906 1.79562,2.48205l-2.42685,1.57569c0,0 -1.08752,0.43501 -1.5782,-0.58989c-0.74376,0.5407 -1.69135,0.95299 -2.12569,1.6761c-1.21425,2.02153 -0.4831,3.21368 -2.14419,5.16987c0,0 -0.79403,0.87587 -1.88669,0.37341c-1.41362,1.6356 -2.82614,3.27783 -4.19512,4.93687c-2.27389,2.13798 -4.55341,4.34427 -5.21438,6.85424c-0.95238,1.39858 -1.83823,2.81728 -2.6349,4.26156c-1.34582,2.43984 -2.43005,5.06243 -3.44922,7.69009c-1.06816,0.21454 -2.13748,0.32062 -3.16845,0.30049l-0.74126,-0.91345c0,0 -1.33568,-0.73668 -2.70902,-0.33079c-1.77322,-1.23993 -3.50896,-2.52724 -5.21718,-3.84311c0.12878,-0.14208 0.25099,-0.28834 0.36524,-0.43967c0.12684,-0.16801 0.24913,-0.33819 0.36784,-0.51009c-0.21606,-0.11152 -0.35023,-0.24568 -0.35023,-0.24568c-2.81869,-2.86086 -6.71958,-5.08108 -9.88538,-7.56529c-0.91939,-0.72145 -2.22274,-0.89743 -3.05799,-1.71483c-0.56076,-0.54877 -0.71813,-1.43319 -1.29367,-1.96643c-0.8117,-0.75204 -2.11105,-0.6902 -3.10119,-1.18419c-1.57773,-0.78714 -3.3267,-2.02471 -5.03566,-2.84304c0.30573,3.59194 0.81062,7.18005 0.56665,10.3985c0.87718,0.52391 1.34002,1.20562 2.42202,1.97735zM257.06415,190.18806c0.3011,-0.90331 1.06093,-0.88917 1.40591,-0.83116c-0.00747,-0.24723 -0.01144,-0.49292 -0.01144,-0.73684c0,0 0,-1.16148 1.16149,-1.16148c1.16149,0 1.16148,1.16148 1.16148,1.16148c0,0.02627 0.00004,0.05255 0.0001,0.07883l0.77423,-0.466c2.18059,0.38042 3.0724,-3.52328 2.91547,-6.72113c-0.29424,-0.1432 -0.5925,-0.43351 -0.5925,-1.0221c0,-0.426 0.15625,-0.69575 0.35413,-0.86657c-0.0978,-0.44329 -0.22299,-0.8382 -0.37448,-1.16203c-1.31696,-2.81508 -5.90199,-6.48896 -8.88436,-6.48896c0,0 -0.74535,0 -1.04188,-0.59707c-0.41379,0 -0.8276,0 -1.24139,0c1.28746,3.46503 2.6227,6.89988 3.78557,10.33849c0.45396,6.26689 -8.22779,-0.04877 -10.78089,-2.28227c-1.90857,-1.66966 -3.59311,-3.45452 -5.13124,-5.32802c-0.15227,0.11585 -0.2803,0.17072 -0.2803,0.17072l-0.82709,0.28398c-0.55733,0.25321 1.21779,0.42736 1.5958,0.90886c0.61252,0.78021 1.52791,1.79993 1.18368,2.73021c-0.23344,0.6309 -2.12216,0.69687 -3.35253,0.6904c-0.33607,0.44077 -0.94487,0.44077 -0.94487,0.44077c-4.60089,-0.01813 -10.81038,2.45607 -15.89329,5.91033c0.00092,0.02812 0.0017,0.05631 0.00238,0.08455l0.34484,0.99389c0,0 0.3673,1.10187 -0.73458,1.46917c-1.10188,0.3673 -1.46918,-0.73458 -1.46918,-0.73458l-0.12091,-0.37419c-2.72334,2.12378 -4.95197,4.50508 -6.16434,6.85549c0.01036,0.29821 0.0207,0.59642 0.03106,0.89463v0.06185c6.94723,1.79937 8.58337,4.0646 8.4966,11.38547c-0.42122,0.89264 -0.54285,2.00368 -1.26369,2.67795c-0.5577,0.52168 -2.42354,0.77256 -4.67039,0.79683c2.21639,4.43901 5.01014,6.24468 9.22175,6.66081c0.08194,-1.58091 0.21774,-3.06783 0.21774,-4.16065c0,0 0,-1.16148 1.16148,-1.16148c0.6283,0 0.91672,0.33987 1.04912,0.65191c0.0637,-0.0068 0.10235,-0.00679 0.10235,-0.00679c1.10656,0.00698 2.21439,0.20648 3.28254,0.49558l0.03305,0.03173l0.36494,0.00406c4.41227,1.47075 6.04672,0.81379 9.04622,5.03797c0.05224,2.11224 -0.57823,4.12825 -1.64531,5.77454c3.73513,1.02548 8.66253,2.20762 11.58602,0.55093c2.43066,-1.37741 0.37433,-6.81152 -1.25809,-6.76718c0,0 -0.51088,-0.12772 -0.75865,-0.55516c-0.1059,-0.05194 -0.16894,-0.09697 -0.16894,-0.09697c-0.38889,-0.27778 -0.77777,-0.55555 -1.16666,-0.83333l-0.16874,0.00202c0,0 -0.66998,-0.22332 -0.83489,-0.83784c-0.31485,-0.22698 -0.51982,-0.59689 -0.51982,-1.01468c0,-0.69036 0.55964,-1.25 1.25,-1.25c0.1884,0 0.36706,0.04168 0.52727,0.11632c0.28794,-0.14159 0.5735,-0.14159 0.5735,-0.14159h1.54865c0.46892,0.0029 0.93781,0.00579 1.40673,0.0087c5.05788,-1.24796 7.17379,-3.8593 7.90579,-7.11869l-0.68785,-0.74457c-0.73622,-0.73146 -1.46901,-1.46398 -2.19964,-2.19462l-0.3418,-0.09918c0,0 -1.11803,-0.55902 -0.55901,-1.67705v-0.00001c0.55901,-1.11803 1.67705,-0.55901 1.67705,-0.55901l0.99153,0.56748c0.48172,0.48173 0.96434,0.96425 1.44823,1.44673c0.01094,-2.99335 -0.59553,-6.27894 -0.92181,-9.44469l-0.80557,-0.26566c0,0 -1.18585,-0.39528 -0.79057,-1.58114zM267.13879,193.46353c0.40875,0.20486 2.00673,0.7686 2.93063,1.16181c0.05772,-0.05067 0.1187,-0.09273 0.18112,-0.12757c-1.83481,-1.70444 -3.42266,-3.62612 -4.65747,-5.66732l-0.29779,0.05412c0,0 -0.16172,-0.08086 -0.32565,-0.24258c-0.35826,0.451 -0.76634,0.83922 -1.22413,1.14683c0.05667,0.1427 0.08783,0.29831 0.08783,0.4612c0,0.44634 -0.23393,0.83804 -0.58588,1.05918c1.30112,0.71093 2.58752,1.50087 3.89134,2.15433zM275.01927,198.59809c3.28083,2.53175 7.16789,4.85632 10.11462,7.76804c0,0 0.66013,0.66013 0.26892,1.4099c1.74135,1.33378 3.51244,2.63621 5.32436,3.88717h0.00001c0.51074,0.35262 0.96113,0.77043 1.41932,1.17806c0.99601,-2.54106 2.06057,-5.06933 3.36239,-7.43399c1.11679,-2.02856 2.40555,-4.00684 3.80588,-5.94968c-0.71321,-0.27478 -1.41644,-0.57202 -2.10746,-0.89002c0.37037,-0.70852 0.71999,-1.42297 1.08722,-2.12824c0.80897,0.38405 1.63672,0.73765 2.47832,1.05692c0.16215,-0.21199 0.32541,-0.42361 0.48969,-0.63488c-0.65075,0.01816 -1.05261,-0.58463 -1.05261,-0.58463l-0.3766,-0.69338c-0.42694,-0.3209 -0.85388,-0.64179 -1.28082,-0.96269c-5.31284,-3.39551 -6.97411,4.14683 -9.22138,7.25676c-0.48446,0.67044 -0.72935,1.81854 -1.54758,1.93978c-0.81053,0.1201 -1.23984,-1.13796 -2.01192,-1.41234c-0.55265,-0.1964 -1.18156,0.18065 -1.75803,0.0726c-1.95647,-0.36671 -5.0382,-1.87148 -6.84183,-2.77941c-1.90017,-0.95652 -3.0781,-1.86778 -4.79242,-2.45615c0.78072,0.57883 1.86043,0.75468 2.63991,1.35619zM283.13879,199.46353c1.0793,0.55777 2.48503,0.12566 3.58957,0.63163c0.4288,0.19642 0.35242,0.89233 0.65475,1.25432c0.16192,0.19388 -0.30917,-0.4928 -0.21424,-0.72688c0.28046,-0.69159 0.95186,-1.17106 1.25962,-1.85095c0.55589,-1.22802 1.01784,-2.529 1.82452,-3.60897c2.69673,-3.61035 5.46839,-5.04625 9.69448,-2.61666c0.46195,0.34577 0.9239,0.69154 1.38585,1.03731l0.95673,1.30662c0,0 0.11986,0.17979 0.18516,0.43971c2.75226,-3.41879 5.72589,-6.75726 8.56912,-10.10198c0.10971,-0.48264 0.28151,-0.99568 0.62262,-1.55781h0.00001c0.0709,-0.11684 0.1559,-0.22512 0.25172,-0.32687c-0.01788,-0.00995 -0.03581,-0.01993 -0.05378,-0.02992c0.54982,-0.60209 1.07334,-1.24291 1.56447,-1.93632c0.16323,0.10115 0.34296,0.21376 0.53588,0.33474c0.19047,-0.23623 0.37971,-0.47264 0.56755,-0.70927c-0.04887,-0.29999 -0.25264,-0.63058 -0.10299,-0.89726c0.1228,-0.21881 0.27389,-0.43187 0.44793,-0.63918c-0.45881,-0.52975 -0.88002,-1.06135 -1.25762,-1.47526c-2.12976,-2.33455 -4.44066,-4.25012 -6.76566,-6.37141c-0.68653,-0.62637 -1.24641,-1.5203 -2.13475,-1.79327c-4.48571,2.69144 -9.59539,7.14397 -11.99325,11.92982c-1.24499,2.48486 0.0679,6.11244 -3.87894,6.7424c-0.7183,0.11465 -1.17186,-0.86219 -1.74988,-1.30377c-1.92095,-1.46753 -1.37706,-3.05439 -2.5361,-4.55759c-0.731,-0.94805 -2.01172,-1.3269 -2.86211,-2.16951c0,0 -0.53858,-0.53858 -0.3545,-1.19533c-2.72955,-1.46441 -5.55625,-2.68297 -7.81638,-2.97596c-1.83002,2.16187 -4.36278,3.94633 -6.66244,5.00259c0.12606,1.86471 -0.1404,3.80017 -0.79683,5.41757c0.15987,0.03823 0.26483,0.09071 0.26483,0.09071l0.00001,0.00001l1.25085,0.82845c1.27368,2.14273 3.03166,4.1782 5.09363,5.93653c-0.15231,0.33999 -0.30156,0.68155 -0.45088,1.02352c3.72155,0.95041 7.55098,3.13177 10.91104,4.86822zM317.19843,181.44396c-0.00908,-0.00407 -0.01816,-0.00818 -0.02722,-0.01235c0.00015,0.00173 0.00031,0.00346 0.00047,0.0052zM247.875,170.12503c0,-1.25 1.25,-1.25 1.25,-1.25c0.0848,0 0.17349,0 0.26567,0c-2.31021,-6.5024 -4.27079,-13.12949 -4.46662,-20.14742c-3.84992,-7.0478 -5.2255,-15.01398 -7.23486,-22.65842c-0.46873,-1.78324 -2.78627,-7.93267 -3.47654,-7.7674c0,0 -1.16148,0 -1.16148,-1.16148c0,-1.16148 1.16148,-1.16148 1.16148,-1.16148c4.58124,0.45867 2.66423,3.98526 4.47065,7.19282c3.91321,6.94845 4.56811,15.72823 7.72192,23.28515c0.82574,0.19891 0.82574,1.1241 0.82574,1.1241c0,0.22586 0.00192,0.45135 0.00572,0.67646c5.95692,3.58273 15.09919,10.06332 22.8866,13.70639c3.72526,1.74273 8.06335,3.57294 11.09787,6.4199c2.37015,0.59629 4.25867,1.95116 6.12848,3.40663c-1.30865,-2.88675 -1.91612,-6.85757 -3.07662,-8.84504c-3.06718,-5.25291 -6.12767,-9.71525 -8.65418,-15.57642c-0.25878,-0.60032 -2.2187,-1.54403 -2.73699,-2.69305c-3.25147,-1.46666 -4.38061,-5.53107 -6.67816,-7.38392c-1.52191,-1.22734 -1.20843,-3.95922 -2.8926,-4.5941l-0.88261,-0.79831c0,0 -0.68259,-0.68259 -0.1809,-1.42549c-1.46913,-1.98959 -2.76116,-4.09028 -3.96482,-6.15695c-1.22758,-2.10774 -3.97051,-3.37611 -5.2411,-5.83125l-0.12263,-0.24525c0,0 -0.51942,-1.03887 0.51944,-1.5583c1.03886,-0.51943 1.5583,0.51944 1.5583,0.51944l0.12261,0.24523c1.13979,2.38512 3.74479,3.39368 5.00877,5.45919c1.24289,2.03106 0.10481,2.58689 1.57424,4.29184c3.8298,4.44367 9.73639,7.18841 13.40279,11.18933c1.51426,1.65242 6.35452,2.03725 8.44876,3.28758c6.07572,3.26267 18.11264,1.01817 24.99374,1.01817c1.48242,0 3.71782,-0.38742 5.57868,-0.24228c-3.70115,-2.94678 -9.5917,-5.2694 -13.53032,-6.79842c-6.31879,-2.45302 -11.20297,-10.37154 -17.50887,-12.23157c-2.22569,-1.35925 -2.70717,-3.28087 -4.35268,-4.8355c-1.9037,-1.79857 -5.39968,-2.95821 -7.50541,-4.60817c-5.18531,-4.06298 -9.8301,-11.66747 -16.477,-13.73786c0,0 -0.00948,-0.00316 -0.02638,-0.00977c-0.22818,-0.07322 -0.49951,-0.22371 -0.65085,-0.53305c-0.11013,-0.18885 -0.17003,-0.43393 -0.10616,-0.74579c0.03803,-0.31605 0.17235,-0.52963 0.33655,-0.67395c0.24139,-0.24561 0.54639,-0.30257 0.78601,-0.29988c0.01813,-0.00093 0.02812,-0.00093 0.02812,-0.00093l0.89463,0.03107c3.26491,-1.46088 5.45374,-1.7733 9.55873,-1.7733c2.17872,0 6.17177,-0.50543 10.06212,-0.60084c-1.08179,-0.45028 -2.17035,-0.87787 -3.28045,-1.15658c-4.19414,-0.51398 -9.17912,-3.26611 -13.5064,-4.68059c-8.52961,-2.78812 -17.78328,-3.8647 -26.23957,-6.36662c-11.41686,-0.62333 -24.20747,-2.29467 -34.98255,-2.29467c-11.04891,0 -23.86652,8.27859 -27.53333,18.70802c-2.54569,1.55813 -1.64967,4.33033 -2.90859,6.88564c-2.71526,5.51132 -6.68149,10.07076 -6.72559,16.21979c-0.01,1.39402 0.27187,2.88719 -1.1316,3.89173c-0.89262,0.63889 -4.58906,-0.00762 -5.03286,-0.11035c1.97863,0.60065 3.34301,2.88867 5.26983,3.2186c1.47275,0.25218 4.25982,0.48465 5.57046,1.30388c0.00634,0.00397 0.12781,0.50907 0.35036,0.87928c0.27229,0.06464 0.45521,0.20802 0.5781,0.37151c0.05549,-0.01497 0.11326,-0.04391 0.17326,-0.08931c0.00709,-0.00537 0.01404,-0.01147 0.02086,-0.01828c-0.32779,-0.11926 -0.7169,-0.40242 -0.7169,-1.0747c0,-0.96581 0.80311,-1.12852 1.0737,-1.15593c0.07576,-1.27699 0.13387,-2.7064 0.40644,-3.18112c1.76293,-3.07035 3.37602,-6.23774 5.97414,-8.92181c6.50087,-6.45917 13.75713,-14.78116 22.52222,-17.70285c0,0 0.73182,-0.24394 1.20146,0.26219c10.43954,3.77689 13.29076,15.39924 10.41487,25.37645c0.06307,0.14881 0.10128,0.32917 0.10128,0.54773h-0.00001c0,0.74428 -0.44315,1.04539 -0.80174,1.16722c-0.79497,2.01631 -1.25901,4.27538 -1.88878,6.35638c5.82184,-0.94077 11.91535,-1.81435 16.4989,0.3596c-0.49406,-4.46661 -0.13838,-9.50352 -0.13838,-13.56122c0,-0.38716 0,-0.77433 0,-1.16148l-0.43414,0.04697c0,0 -0.82129,-0.82129 0,-1.64258c0.82129,-0.8213 1.6426,0 1.6426,0l1.11451,1.59561c0,0.38716 0,0.77433 0,1.16148c0,4.45475 -0.63559,10.89297 0.40729,15.5927c0.97795,1.08107 2.18312,2.08119 2.64017,3.42881c0.52706,1.55406 0.74812,3.08186 0.71282,4.56568c2.02805,4.20252 4.14542,8.52188 5.26182,12.69497c4.11661,6.64992 7.46065,13.75285 13.32144,18.88094c2.07557,1.81608 8.78244,6.42577 8.67571,6.33318c-1.19851,-3.66595 -2.60181,-7.31238 -3.95101,-10.98798h-1.17019c0,0 -1.25,0 -1.25,-1.25zM191.84699,138.22938c-1.92442,0.621 -3.65573,1.99698 -5.46867,2.93903c-0.14908,0.0998 -0.30972,0.15386 -0.44005,0.18318c-0.1009,0.02495 -0.22493,0.04469 -0.35882,0.0416c-0.91413,0.48578 -1.97528,0.74022 -3.00447,0.76741c-3.09034,0 -5.63161,1.25349 -7.9695,2.18553c-4.70763,1.87675 -9.21906,1.09763 -13.20001,3.36666c0.1039,0.09499 0.19208,0.18069 0.26279,0.25523c-0.58601,0.60765 -1.56402,1.02624 -2.50547,1.43958c-0.05268,0.0512 -0.10526,0.1032 -0.1577,0.15604c0,0 -0.41402,0.41402 -0.94811,0.36019c-0.20264,0.10605 -0.39299,0.21618 -0.565,0.33295l0.43692,0.15684c0,0 1.03887,0.51943 0.51944,1.5583c-0.51943,1.03886 -1.55829,0.51943 -1.55829,0.51943l-0.04573,-0.0257c0.64877,1.09263 2.39845,1.53795 3.32225,2.42433c5.01501,4.81188 12.77004,9.40896 19.79407,10.50428c10.03994,-0.02736 19.97961,0.59327 28.47144,-4.93776c6.8887,-1.79003 15.52201,-7.59233 16.16777,-15.33326c-0.92188,-1.90945 -1.79257,-3.81439 -2.48173,-5.71415c-0.2062,-0.56842 -0.38205,-1.16397 -0.53167,-1.78131c-0.13501,-0.15577 -0.25851,-0.3141 -0.36476,-0.47641c-3.4125,-2.53711 -7.70347,-1.84932 -11.17811,-0.47063c-3.66938,1.45596 -10.63598,0.86863 -14.73977,0.83536c-0.8972,0.32979 -1.88397,0.53987 -2.75726,0.57211c-0.31832,0.20016 -0.67751,0.20077 -0.67969,0.20077zM195.5887,102.87346c0,0 -0.03879,-0.01293 -0.1,-0.04113c-7.97055,2.99291 -14.82926,10.80409 -20.85195,16.8715c-2.68069,2.56228 -3.76442,5.52635 -5.6407,8.50047c-0.31665,0.50194 -0.37427,1.19373 -0.3693,1.93881c9.26973,-0.1505 16.95631,-1.38751 25.76514,-3.31819c1.89262,-1.87525 3.8793,-1.6994 6.37968,-1.6994l-0.65169,-0.13227c0,0 0.51943,-1.03886 1.55829,-0.51943c0.47386,0.23693 0.62351,0.58194 0.64612,0.88713c0.7939,-0.0466 1.59526,-0.06327 2.42128,-0.06583c2.59631,-8.69882 0.25553,-19.36543 -9.15687,-22.42165zM229.35276,178.46211c0,0 -0.4266,-0.15998 -0.66812,-0.54432l-0.82758,-0.21043c-1.69311,-0.83867 -3.32774,-1.72442 -4.84023,-2.70022c-0.33466,0.4494 -0.95138,0.44939 -0.95138,0.44939c-7.03616,0 -21.34142,-0.43154 -22.07469,9.48461c0.19721,0.29996 0.34775,0.76649 -0.01865,1.31409c0.0059,0.14115 0.01426,0.28414 0.02513,0.429c-0.1807,5.80861 -1.21317,8.40497 0.71472,13.95769c0.25996,0.74875 1.22218,1.90439 2.18077,2.67609l0.97612,-0.37299c0,0 1.16148,0 1.16148,1.16149c0,0.09244 -0.00735,0.17752 -0.02089,0.25583l0.30009,0.20961c0.22501,-1.21043 1.01719,-2.38816 2.02128,-3.48178l-1.0214,-0.30893c-7.18911,-5.65201 -6.20016,-12.00663 -3.54244,-20.27171c0,0 0.3673,-1.10188 1.46918,-0.73458c1.10188,0.3673 0.73458,1.46917 0.73458,1.46917c-2.45614,7.02839 -3.48683,12.66275 2.40841,17.47512l1.45929,0.40018c0,0 0.17372,0.05041 0.36417,0.18c1.03779,-0.89986 2.08224,-1.7039 2.85834,-2.3723c-0.44887,-0.33474 -0.44885,-0.95099 -0.44885,-0.95099v-0.52337c-0.0282,-0.12682 -0.03258,-0.26896 0,-0.42641v-0.59885c0.01036,-0.47611 0.02071,-0.95224 0.03107,-1.42835c1.52869,-3.11445 4.44555,-6.19928 7.96967,-8.81651c-0.39221,-2.4212 -1.41901,-4.5142 -1.41901,-7.17741c0,0 0,-1.16148 1.16148,-1.16148c1.16148,0 1.16148,1.16148 1.16148,1.16148c0,2.11773 0.70942,3.85726 1.16341,5.7404c2.59217,-1.68607 5.40642,-3.10565 8.17991,-4.11133c-0.16834,-0.05247 -0.33739,-0.10972 -0.50734,-0.17217zM170.65491,133.11131c-0.11104,0.98537 0.27679,6.09959 -0.70407,6.4815c-1.34492,0.52367 -2.17192,0.22151 -2.66657,-0.50481c0.23398,0.71785 0.50143,1.50377 0.79226,2.46195l0.91119,0.87092c0.47412,-0.09206 0.94958,-0.17485 1.42498,-0.2492c1.02068,-0.15964 2.16303,0.56855 3.09668,0.12633c2.71309,-1.28503 5.61024,-2.4604 9.06561,-2.4604c0.71457,0.02938 1.49009,-0.15503 2.06585,-0.57926l0.58984,-0.11155c1.98549,-1.00402 3.78578,-2.40515 5.88174,-3.12121l0.75445,-0.05961c0,0 1.11407,0 1.16002,1.09109c0.28739,-0.03116 0.58816,-0.0822 0.89002,-0.15048c-0.0705,-0.1464 -0.11424,-0.32806 -0.11424,-0.55345c0,-1.16148 1.16148,-1.16148 1.16148,-1.16148c2.06706,0 4.36839,-0.29887 6.7698,-0.67213l0.20704,-0.51298c0.6688,-2.00121 1.12759,-4.16931 1.81143,-6.2013c-1.61129,0.03176 -3.14158,0.14902 -4.77308,0.52886c0,0 -1.06973,0.24686 -1.43552,-0.72463c-0.67533,0.18103 -1.31661,0.5394 -2.00742,1.23682c-8.52151,2.27881 -16.16876,3.3531 -24.98354,3.58591c0.13945,0.34234 0.10204,0.67909 0.10204,0.67909zM235.1087,176.71184c0.17094,-0.10307 0.39342,-0.17015 0.68297,-0.17015c0.54509,0 0.85248,0.2377 1.02582,0.50579c0.00182,-0.00013 0.00365,-0.00025 0.00547,-0.00038c0.13456,-0.29278 0.36735,-0.45801 0.58725,-0.55126c-0.63815,-0.99822 -0.21084,-2.58356 0.38282,-3.80371l1.21442,-0.5773c-3.27748,-4.38041 -5.94122,-9.16895 -8.89582,-14.05613c-0.81895,-3.1965 -2.30377,-6.38491 -3.85873,-9.56206c-1.59692,4.68522 -5.59212,8.67721 -10.06621,11.28968c0.45849,0.33306 0.45849,0.95807 0.45849,0.95807c0,1.99815 0.36828,3.73061 1.0247,5.25716c1.50845,-1.81934 2.89873,-3.77133 4.31768,-5.27202c2.41512,-2.55424 5.6236,0.11849 6.25152,2.50534c0.99402,3.77845 -0.00567,7.14715 0.00596,10.85906l-0.33713,1.04843c0.25019,0.12969 0.502,0.25839 0.75511,0.38632l1.42737,0.34969c0,0 0.4045,0.10113 0.6682,0.42455c1.43799,0.43815 2.84819,0.4209 4.35011,0.40893zM266.02724,177.62859c0.1746,0.40752 0.32283,0.83789 0.44477,1.28442c1.47252,-0.7603 3.30843,-2.01581 4.80091,-3.50558c-0.0243,-0.10002 -0.03794,-0.21221 -0.03794,-0.33802v-0.00006c0,-1.16148 1.16148,-1.16148 1.16148,-1.16148c0.06002,0.00102 0.12042,0.00272 0.18117,0.00509c1.67548,-2.25196 2.24052,-4.79766 -0.22814,-6.92702c0,0 -0.76424,-0.76425 -0.08106,-1.55551c-2.38418,-1.21251 -4.81024,-2.35699 -7.04357,-3.70481c-1.43617,-0.86674 -2.87466,-1.7666 -4.30672,-2.68782c2.10066,3.55444 -0.50178,9.60509 -4.15785,10.50909c0.05192,0.11292 0.08924,0.24482 0.10555,0.39889c3.57963,1.0361 7.83997,4.59846 9.1614,7.68281zM254.97419,168.4876c0,-1.16148 1.16148,-1.16148 1.16148,-1.16148c2.38814,0.53504 4.0448,-5.86611 2.53171,-7.46606c-2.11209,-2.23334 -4.23546,-1.77879 -6.92276,-3.10992l-0.68902,-0.60473c0,0 -0.82129,-0.8213 0,-1.64259c0.82129,-0.82129 1.64258,0 1.64258,0l0.0853,0.1696c1.13541,0.57386 2.2175,0.84555 3.24945,1.13164c-1.10035,-0.74724 -2.19055,-1.4993 -3.26642,-2.25046c-1.29093,-0.90134 -3.73064,-0.73079 -5.28615,-1.4391c0.62238,5.76746 2.3355,11.31092 4.29507,16.76053c1.13346,0 2.3226,0 3.24983,0c-0.03248,-0.11212 -0.05107,-0.24048 -0.05107,-0.38743zM214.73418,197.09821c0.00452,0.49115 -0.36497,0.86065 -0.36497,0.86065c-1.49151,1.48194 -8.09246,5.18841 -6.41502,8.24711c0.8577,1.56395 11.91155,0.42284 12.19643,-0.77049c-0.089,-5.64396 -0.75129,-7.02463 -5.41643,-8.33727zM233.13389,215.13392c-0.88388,0.88388 -1.76777,0 -1.76777,0l-0.91698,-0.97219c-0.14995,-0.02011 -0.40034,-0.07702 -0.61641,-0.23812c-0.52313,-0.07334 -1.05507,-0.09441 -1.58273,-0.09023c0,0 -0.0445,0 -0.11669,-0.0084c-0.05445,0.68713 -0.11633,1.47576 -0.16377,2.29002c0.27885,0.03007 1.06481,0.19954 1.06481,1.15499c0,1.07265 -0.99063,1.1547 -1.14214,1.16097c-0.00115,1.75053 0.16817,3.27707 0.74166,3.76901c2.28379,1.959 4.75875,2.31421 6.69319,1.42002l-0.14509,-0.10844c0,0 -0.82129,-0.8213 0,-1.64259c0.82129,-0.82129 1.64258,0 1.64258,0l-0.15242,0.08165c0.18183,0.04624 0.3718,0.09627 0.56911,0.14934c0.87408,-1.09458 1.44102,-2.60943 1.53176,-4.46266c-2.02699,-2.50435 -3.10415,-2.4504 -5.32615,-2.95562c-0.0609,0.14774 -0.1607,0.3 -0.31296,0.45226zM225.95207,173.72181c0.00953,-3.15048 1.65622,-8.39761 -0.42465,-11.35805c-0.73162,-1.04087 -4.47989,3.25239 -6.67188,5.77331c1.67414,2.42208 4.16372,4.26539 6.9913,5.88587zM196.72649,204.65733c0.56178,0.69181 2.07915,0.57112 3.42444,0.1601c-2.12302,-1.72127 -2.78986,-4.5899 -2.9022,-7.66121c-0.72089,2.84101 -1.3313,6.50478 -0.52224,7.50111zM166.35454,134.64193c0.05185,0.82945 0.15224,1.52864 0.29259,2.18608c-0.05827,-0.72613 -0.0402,-1.49817 0.0065,-2.21287c-0.09751,0.01293 -0.19725,0.02181 -0.29908,0.02679z" fill="#000000" stroke-width="0.5"/><path d="M195.61497,102.83092c9.4124,3.05622 11.7716,13.78778 9.17529,22.4866c-0.82602,0.00256 -1.62894,0.0221 -2.42284,0.0687c-0.02261,-0.30519 -0.17161,-0.65135 -0.64547,-0.88828c-1.03886,-0.51943 -1.5603,0.52277 -1.5603,0.52277l0.65211,0.13162c-2.50038,0 -4.50065,-0.16166 -6.39327,1.71359c-8.80883,1.93068 -16.56429,3.15632 -25.83402,3.30682c-0.00497,-0.74508 0.05089,-1.43943 0.36754,-1.94137c1.87628,-2.97412 2.95361,-5.95285 5.6343,-8.51513c6.02269,-6.06741 12.95582,-13.93372 20.92637,-16.92663c0.06121,0.0282 0.10028,0.0413 0.10028,0.0413z" data-paper-data="{&quot;noHover&quot;:false,&quot;origItem&quot;:[&quot;Path&quot;,{&quot;applyMatrix&quot;:true,&quot;segments&quot;:[[195.5887,102.87346],[[195.4887,102.83233],[0.06121,0.0282],[-7.97055,2.99291]],[[174.63675,119.70383],[6.02269,-6.06741],[-2.68069,2.56228]],[[168.99605,128.2043],[1.87628,-2.97412],[-0.31665,0.50194]],[[168.62675,130.14311],[-0.00497,-0.74508],[9.26973,-0.1505]],[[194.39189,126.82492],[-8.80883,1.93068],[1.89262,-1.87525]],[[200.77157,125.12552],[-2.50038,0],[0,0]],[200.11988,124.99325],[[201.67817,124.47382],[-1.03886,-0.51943],[0.47386,0.23693]],[[202.32429,125.36095],[-0.02261,-0.30519],[0.7939,-0.0466]],[[204.74557,125.29512],[-0.82602,0.00256],[2.59631,-8.69882]],[[195.5887,102.87347],[9.4124,3.05622],[0,0]]],&quot;closed&quot;:true,&quot;fillColor&quot;:[0,0,0,1]}]}" fill="#ea0000" stroke-width="0.5"/><path d="M345.98781,165.82297c2.55861,-0.78585 5.25122,-1.17505 8.03652,-0.71491c3.75766,0.62078 7.11539,6.02085 9.37888,8.34451c4.28645,6.47007 6.75063,13.13967 9.70229,20.04603c1.31138,3.0684 2.88883,5.85904 3.43527,9.13256c1.01146,6.05923 0.28599,12.52273 0.28599,18.62591c0,2.44968 0.89177,6.26148 -0.30223,8.5538c-0.47266,0.90746 -2.49385,2.99064 -3.09553,3.79006c-1.64538,2.18617 -2.51586,4.23829 -4.47994,5.67983c-0.06378,-0.18178 -0.3075,-0.40863 -0.53796,-0.59928l0.11279,0.036c-1.06839,-0.88388 -2.13697,0.00037 -2.13697,0.00037l-0.88508,0.79672c-0.99079,0.20492 -1.96149,0.64702 -2.6548,1.26742c-2.73935,-0.07414 -4.69475,0.88182 -6.02563,2.95382c-0.62976,0.98045 -0.43471,2.37408 -2.16553,2.71138c-11.55555,2.25197 -23.3566,-1.52142 -33.88727,-4.01931c-6.61696,-1.99417 -13.4377,-3.39946 -20.19943,-5.00376c-5.38704,-1.27813 -9.6461,-3.0426 -15.34889,-3.0426c-3.65186,0 -8.95642,0.00774 -11.9212,1.77707c-2.6184,0.41588 -4.02718,1.47844 -6.22685,2.63223c-2.14656,1.12593 -4.87884,1.85207 -6.89671,3.10516c-2.91831,1.81226 -5.29153,4.36647 -8.41021,5.99105c-6.49405,3.38288 -13.04354,6.15099 -20.99435,6.15099c-5.23793,0 -10.48211,-0.00514 -15.72004,-0.00514c-2.6344,0 -7.02617,0.07342 -9.33156,-1.17427c-5.22479,-2.82769 -8.18467,-6.50518 -12.57523,-10.13749c0,0 -0.66199,-0.54793 -1.46465,-0.35032l-0.49201,-0.59825c-1.18994,-1.18269 -2.37202,-2.37446 -3.53475,-3.57554c-2.57205,-3.19338 -5.41503,-6.42775 -7.0679,-10.0618c-0.36565,-0.80392 -1.27075,-4.21219 -1.64713,-4.89652c-0.75867,-1.37943 -2.01264,-2.63764 -2.2904,-4.13563c-0.36057,-1.94465 0.01098,-4.21923 0.01098,-6.1843c0,-6.88099 0.40653,-13.26079 2.44649,-19.95022c0.52762,-1.77257 0.90451,-6.44479 2.67967,-7.79158c0.43029,-0.32645 1.27456,-0.04948 1.68664,-0.39162c1.32082,-1.09662 0.50633,-1.90093 2.90573,-2.33575c1.85177,-0.33558 4.18397,0.03239 6.1,0.03239c1.82927,0 4.45193,-0.28983 6.16754,0.51696c0.00129,0.00061 0.00258,0.00122 0.00387,0.00182c0.161,2.27557 0.21009,4.60969 -0.5237,6.46642c-0.01129,-0.00313 -0.02262,-0.00623 -0.03395,-0.00932c-0.19882,-0.19171 -0.40567,-0.29453 -0.40567,-0.29453l-2.27331,-1.10282c-5.42397,-0.09844 -7.16545,2.45674 -9.85064,6.04397c-1.68399,5.34992 -0.85759,10.35909 0.29841,15.65205c0.56585,2.59086 1.20823,5.55816 3.06521,7.85537c1.14668,1.41852 3.52451,2.94492 5.01719,4.17981c3.22663,2.66939 6.23078,5.58724 10.06633,7.64636c3.85905,3.16963 8.05733,4.14518 12.68343,6.37355c2.6175,1.26084 5.13109,3.03896 8.02046,3.92054c2.3545,0.71838 5.28892,0.40245 7.75635,0.40245c6.31728,0 12.90993,0.4624 18.89739,-1.38083c2.71975,-0.33763 7.79348,-1.31693 10.1697,-2.53492c1.81874,-0.93223 3.4737,-3.20427 5.23311,-4.33501c4.98564,-3.20417 10.21718,-6.09781 16.80428,-6.09781c2.67843,0 5.95468,-0.67157 7.86789,0.91123c6.55173,0.24043 13.21307,0.09604 19.51232,1.39947c1.45625,0.30132 3.8352,0.26348 5.26337,0.8716c1.76046,0.74962 3.52232,2.0886 5.40425,2.73651c2.79703,0.96296 5.93212,1.26166 8.85181,2.33075c1.61852,0.59265 3.15564,1.4477 4.90123,1.68984c0.82651,0.45627 4.06158,2.25975 4.48694,2.38481c3.97854,1.16971 12.63067,0.94604 16.24239,-0.84467c2.41744,-1.19858 4.32335,-4.16462 5.69557,-6.0696c2.49309,-3.46098 5.58936,-7.28781 7.08308,-11.2176c0.81651,-2.14813 0.3709,-4.83537 0.3709,-7.06397c0,-10.17493 -2.23413,-21.23454 -8.72951,-30.14581c-2.20752,-3.02858 -2.28796,-6.11213 -6.98309,-7.05419c0,0 -0.57632,-0.09519 -1.082,0.1305c-1.16978,-0.77918 -2.40499,-1.48119 -4.1036,-1.78581c-1.38277,-0.24797 -2.73042,-0.36193 -4.03647,-0.35793c-0.95091,0.3263 -2.27939,0.22502 -3.25779,0.56842c-3.50881,1.23152 -5.081,3.24324 -7.91945,5.19422c-0.68634,0.47175 -1.78058,0.552 -2.27584,1.16607c-0.57096,0.70791 -0.15434,1.75796 -0.67296,2.49291c-0.39765,0.56353 -0.86038,1.09172 -1.36596,1.59381c-0.01101,0.0373 -0.02268,0.07518 -0.035,0.11363c-0.23066,0.20945 -0.44574,0.42655 -0.64198,0.65201c-1.00221,1.1514 -2.24408,2.38617 -2.39124,3.90554c-0.03343,0.34519 -0.02541,0.6964 0.0192,1.04999c-0.28041,0.45801 -0.53011,0.86835 -0.7219,1.20162c-0.73663,1.28002 -1.48336,2.53898 -2.24832,3.77904c-0.22179,0.6039 -0.4675,1.20741 -0.71854,1.80194c0.0829,-0.07996 0.1664,-0.16067 0.25062,-0.24167c-0.22373,2.5095 -0.37818,5.03306 -1.40248,7.11899c-2.05753,4.19008 -7.87839,10.18211 -13.19762,11.64854c-1.99286,0.54941 -3.72119,0.66313 -5.58956,1.2244c-3.19907,1.53393 -6.84247,2.42942 -10.45143,2.47751l-2.60893,-1.11531c-1.69017,0.0293 -3.38919,0.04203 -5.0598,0.04203c-1.20152,0 -4.60494,0.36541 -5.7808,-0.18679c-0.8245,-0.38719 -1.46971,-0.88603 -2.03439,-1.43621c0.18516,-0.08674 0.36138,-0.18663 0.52634,-0.30309c1.06922,-0.75484 0.94835,-2.21642 1.73765,-3.17864c1.23411,-1.50448 3.23003,-2.51714 4.53281,-3.97103c1.71946,1.33678 3.46778,2.64808 5.24614,3.89159c1.37334,-0.40589 2.70989,0.32884 2.70989,0.32884l0.62809,0.87841c1.03097,0.02013 2.09865,-0.08216 3.16681,-0.29669c1.01917,-2.62766 2.10153,-5.22689 3.44736,-7.66674c0.79667,-1.44428 1.68535,-2.85423 2.63772,-4.25281c0.66097,-2.50997 2.94506,-4.70825 5.21894,-6.84623c1.36899,-1.65904 2.78393,-3.29812 4.19754,-4.93372c1.09265,0.50246 1.88614,-0.37409 1.88614,-0.37409c1.66109,-1.95618 0.93293,-3.14495 2.14718,-5.16647c0.59572,-0.99177 2.15724,-1.3985 2.83382,-2.3541c0.28805,-0.40684 -0.15761,-0.9725 0.04545,-1.41305c0.56537,-1.22663 3.53475,-2.48273 4.74853,-3.15675c4.23912,-2.35399 8.40526,-5.13311 12.47096,-7.65577c1.01254,-0.42622 1.80963,-1.1408 2.77063,-1.64212c1.47337,-0.76861 4.86558,-0.66537 6.66765,-1.25907l1.48578,-0.78713c0,0 0.52126,-0.28773 0.66865,-0.77028z" data-paper-data="{&quot;noHover&quot;:false,&quot;origItem&quot;:[&quot;Path&quot;,{&quot;applyMatrix&quot;:true,&quot;segments&quot;:[[315.61004,166.6234],[[314.38091,167.4106],[0,0],[-1.49085,0.5937]],[[308.86587,168.67108],[1.21892,-0.76861],[-0.79502,0.50131]],[[306.57383,170.31331],[0.83768,-0.42622],[-3.36354,2.52266]],[[296.25703,177.96959],[3.50702,-2.35399],[-1.00417,0.67402]],[[292.40485,181.06169],[0.46773,-1.22663],[-0.16799,0.44055]],[[292.36803,182.47568],[0.23831,-0.40684],[-0.55975,0.9556]],[[290.02389,184.83013],[0.49284,-0.99177],[-1.00455,2.02153]],[[288.25,190],[1.37422,-1.95618],[0,0]],[[286.68914,190.37341],[0.90395,0.50246],[-1.16949,1.6356]],[[283.21852,195.31028],[1.13256,-1.65904],[-1.88119,2.13798]],[[278.90466,202.16452],[0.54682,-2.50997],[-0.7879,1.39858]],[[276.7248,206.42609],[0.65908,-1.44428],[-1.1134,2.43984]],[[273.87126,214.11617],[0.84316,-2.62766],[-0.88369,0.21454]],[[271.25,214.41667],[0.85292,0.02013],[0,0]],[270.63675,213.50321],[[268.39558,213.17242],[1.13617,-0.40589],[-2.54,-2.14686]],[[261.01169,206.40341],[2.39685,2.33325],[-0.77952,2.63859]],[[255.35912,212.84323],[3.22101,-1.56504],[1.95348,1.54221]],[[260.15531,218.13854],[-2.24971,-1.27703],[0.9728,0.5522]],[[264.91667,218.33334],[-0.99402,0],[1.3821,0]],[[269.09281,218.29996],[-1.39828,0.0293],[0,0]],[[271.25,219.41667],[0,0],[2.98568,-0.04809]],[[279.88824,216.95379],[-2.64659,1.53393],[1.5457,-0.56127]],[[284.51099,215.73433],[-1.6487,0.54941],[4.4006,-1.46643]],[[295.42849,204.10498],[-1.7022,4.19008],[0.8474,-2.08594]],[[296.59076,196.99445],[-0.18509,2.5095],[-0.06968,0.081]],[[296.38335,197.23592],[0.06858,-0.07996],[0.20769,-0.59453]],[[296.97842,195.43576],[-0.18349,0.6039],[0.63285,-1.24006]],[[298.83971,191.65979],[-0.60941,1.28002],[0.76785,-1.61281]],[[301.9617,184.74154],[-0.46193,1.89219],[0.41827,-0.50209]],[[303.09217,183.14842],[-0.32898,0.56353],[0.42905,-0.73496]],[[303.64983,180.65699],[-0.47235,0.70791],[0.40973,-0.61407]],[[305.53261,179.49089],[-0.56781,0.47175],[2.34825,-1.95098]],[[312.1681,174.24199],[-2.90284,1.23152],[0.80943,-0.3434]],[[314.86368,173.67421],[-0.78669,0.3263],[1.08049,-0.004]],[[318.20386,174.03344],[-1.14396,-0.24797],[1.40526,0.30462]],[[321.5999,175.82126],[-0.96776,-0.77918],[0.41835,-0.22569]],[[322.49514,175.69094],[0,0],[3.88429,0.94206]],[[328.27477,182.75062],[-1.82628,-3.02858],[5.37364,8.91127]],[[335.5,212.91667],[0,-10.17493],[0,2.2286]],[[335.19273,219.98522],[0.6755,-2.14813],[-1.23575,3.92979]],[[329.33114,231.21074],[2.06253,-3.46098],[-1.13524,1.90498]],[[324.61746,237.28509],[1.99995,-1.19858],[-2.98798,1.79071]],[[311.1779,238.13431],[3.29145,1.16971],[-0.35191,-0.12506]],[[307.46598,235.74926],[0.68377,0.45627],[-1.44413,-0.24213]],[[303.41098,234.05981],[1.339,0.59265],[-2.41546,-1.06909]],[[296.087,231.73057],[2.31399,0.96296],[-1.55692,-0.64791]],[[291.61609,228.99401],[1.45643,0.74962],[-1.18153,-0.60813]],[[287.26053,228.12427],[1.20475,0.30132],[-5.21137,-1.30343]],[[271.10498,226.73819],[5.42025,0.24043],[-1.5828,-1.5828]],[[264.58333,225.83334],[2.21587,0],[-5.44951,0]],[[250.64756,231.93072],[4.12462,-3.20417],[-1.45557,1.13074]],[[246.31422,236.26406],[1.50464,-0.93223],[-1.96586,1.21799]],[[237.893,238.79437],[2.25005,-0.33763],[-4.95344,1.84323]],[[222.25,240.16667],[5.22629,0],[-2.04131,0]],[[215.83061,239.76088],[1.94788,0.71838],[-2.39038,-0.88157]],[[209.19202,235.83502],[2.16546,1.26084],[-3.82717,-2.22837]],[[198.69575,229.4538],[3.19259,3.16963],[-3.17315,-2.05912]],[[190.36612,221.80055],[2.66939,2.66939],[-1.23489,-1.23489]],[[186.21492,217.61746],[0.94865,1.41852],[-1.53628,-2.29721]],[[183.67875,209.75671],[0.46813,2.59086],[-0.95636,-5.29296]],[[183.43288,194.0945],[-1.39316,5.34992],[2.22146,-3.58723]],[[191.58367,188.04536],[-4.48725,-0.09844],[0,0]],[193.55979,189.17814],[[193.89543,189.47254],[-0.16449,-0.19171],[1.33675,0.43996]],[[197.49615,191.02407],[-1.37735,-0.32815],[0.12667,-1.63566]],[[197.67426,186.68421],[0.06065,1.20233],[0.00641,-0.16432]],[[197.69962,186.19721],[-0.01049,0.16036],[-1.15628,-1.0356]],[[194.25949,182.97999],[1.24341,0.7068],[-1.41932,-0.80679]],[[189.24999,182.50001],[1.51336,0],[-1.58513,0]],[[184.20385,182.46657],[1.53197,-0.33558],[-1.98503,0.43482]],[[181.80054,184.80056],[1.09271,-1.09662],[-0.34092,0.34214]],[[180.40533,185.19172],[0.35598,-0.32645],[-1.46859,1.34679]],[[178.18966,192.97854],[0.4365,-1.77257],[-1.68766,6.68943]],[[176.16665,212.91668],[0,-6.88099],[0,1.96507]],[[176.15728,219.09729],[-0.2983,-1.94465],[0.22979,1.49799]],[[178.05176,223.23031],[-0.62765,-1.37943],[0.31138,0.68433]],[[179.41382,228.1238],[-0.3025,-0.80392],[1.36742,3.63405]],[[185.25901,238.17887],[-2.12786,-3.19338],[0.96193,1.20108]],[[188.18221,241.75181],[-0.98444,-1.18269],[0,0]],[[188.58906,242.34964],[0,0],[0.66404,-0.19761]],[[189.80054,242.69947],[0,0],[3.63231,3.63231]],[[200.1992,252.82893],[-4.32247,-2.82769],[1.90725,1.24769]],[[207.91666,254.00002],[-2.17944,0],[4.33334,0]],[[220.91666,254.00002],[-4.33334,0],[6.57771,0]],[[238.27654,247.84303],[-5.37253,3.38288],[2.58008,-1.62458]],[[245.23011,241.84996],[-2.41432,1.81226],[1.66939,-1.25309]],[[250.92948,238.74261],[-1.77585,1.12593],[1.81979,-1.15379]],[[256.07312,236.10889],[-2.1662,0.41588],[2.45276,-1.76933]],[[265.91667,234.33336],[-3.02118,0],[4.71792,0]],[[278.59949,237.38321],[-4.4567,-1.27813],[5.59398,1.6043]],[[295.3022,242.3943],[-5.47421,-1.99417],[8.71202,2.49789]],[[323.33084,246.42229],[-9.55991,2.25197],[1.4319,-0.3373]],[[325.12134,243.71282],[-0.521,0.98045],[1.10104,-2.072]],[[330.10499,240.76185],[-2.26627,-0.07414],[0.57357,-0.6204]],[[332.3008,239.49562],[-0.81968,0.20492],[0,0]],[333.03279,238.69949],[[334.80055,238.69949],[-0.88388,-0.88388],[0,0]],[[334.80055,238.69946],[0,0],[0.19065,0.19065]],[[335.15238,239.26254],[-0.05277,-0.18178],[1.62488,-1.44154]],[[338.85733,233.58647],[-1.36122,2.18617],[0.49776,-0.79942]],[[341.41758,229.79889],[-0.39103,0.90746],[0.9878,-2.29232]],[[341.66667,221.25001],[0,2.44968],[0,-6.10318]],[[341.42974,202.63528],[0.83678,6.05923],[-0.45207,-3.27352]],[[338.58854,193.50842],[1.08491,3.0684],[-2.44191,-6.90636]],[[330.56618,173.47502],[3.54618,6.47007],[-1.87259,-2.32366]],[[322.81063,165.13656],[3.10871,0.62078],[-2.30427,-0.46014]],[[316.16333,165.85327],[2.11674,-0.78585],[-0.12192,0.48255]]],&quot;closed&quot;:true}]}" fill="#8e0000" stroke-width="0.5"/><path d="M255.33089,212.87322c0.05972,-0.02906 0.11891,-0.05838 0.17759,-0.08795c-0.05443,0.03954 -0.114,0.06805 -0.17759,0.08795z" data-paper-data="{&quot;noHover&quot;:false,&quot;origItem&quot;:[&quot;Path&quot;,{&quot;applyMatrix&quot;:true,&quot;segments&quot;:[[315.61004,166.6234],[[314.38091,167.4106],[0,0],[-1.49085,0.5937]],[[308.86587,168.67108],[1.21892,-0.76861],[-0.79502,0.50131]],[[306.57383,170.31331],[0.83768,-0.42622],[-3.36354,2.52266]],[[296.25703,177.96959],[3.50702,-2.35399],[-1.00417,0.67402]],[[292.40485,181.06169],[0.46773,-1.22663],[-0.16799,0.44055]],[[292.36803,182.47568],[0.23831,-0.40684],[-0.55975,0.9556]],[[290.02389,184.83013],[0.49284,-0.99177],[-1.00455,2.02153]],[[288.25,190],[1.37422,-1.95618],[0,0]],[[286.68914,190.37341],[0.90395,0.50246],[-1.16949,1.6356]],[[283.21852,195.31028],[1.13256,-1.65904],[-1.88119,2.13798]],[[278.90466,202.16452],[0.54682,-2.50997],[-0.7879,1.39858]],[[276.7248,206.42609],[0.65908,-1.44428],[-1.1134,2.43984]],[[273.87126,214.11617],[0.84316,-2.62766],[-0.88369,0.21454]],[[271.25,214.41667],[0.85292,0.02013],[0,0]],[270.63675,213.50321],[[268.39558,213.17242],[1.13617,-0.40589],[-2.54,-2.14686]],[[261.01169,206.40341],[2.39685,2.33325],[-0.77952,2.63859]],[[255.35912,212.84323],[3.22101,-1.56504],[1.95348,1.54221]],[[260.15531,218.13854],[-2.24971,-1.27703],[0.9728,0.5522]],[[264.91667,218.33334],[-0.99402,0],[1.3821,0]],[[269.09281,218.29996],[-1.39828,0.0293],[0,0]],[[271.25,219.41667],[0,0],[2.98568,-0.04809]],[[279.88824,216.95379],[-2.64659,1.53393],[1.5457,-0.56127]],[[284.51099,215.73433],[-1.6487,0.54941],[4.4006,-1.46643]],[[295.42849,204.10498],[-1.7022,4.19008],[0.8474,-2.08594]],[[296.59076,196.99445],[-0.18509,2.5095],[-0.06968,0.081]],[[296.38335,197.23592],[0.06858,-0.07996],[0.20769,-0.59453]],[[296.97842,195.43576],[-0.18349,0.6039],[0.63285,-1.24006]],[[298.83971,191.65979],[-0.60941,1.28002],[0.76785,-1.61281]],[[301.9617,184.74154],[-0.46193,1.89219],[0.41827,-0.50209]],[[303.09217,183.14842],[-0.32898,0.56353],[0.42905,-0.73496]],[[303.64983,180.65699],[-0.47235,0.70791],[0.40973,-0.61407]],[[305.53261,179.49089],[-0.56781,0.47175],[2.34825,-1.95098]],[[312.1681,174.24199],[-2.90284,1.23152],[0.80943,-0.3434]],[[314.86368,173.67421],[-0.78669,0.3263],[1.08049,-0.004]],[[318.20386,174.03344],[-1.14396,-0.24797],[1.40526,0.30462]],[[321.5999,175.82126],[-0.96776,-0.77918],[0.41835,-0.22569]],[[322.49514,175.69094],[0,0],[3.88429,0.94206]],[[328.27477,182.75062],[-1.82628,-3.02858],[5.37364,8.91127]],[[335.5,212.91667],[0,-10.17493],[0,2.2286]],[[335.19273,219.98522],[0.6755,-2.14813],[-1.23575,3.92979]],[[329.33114,231.21074],[2.06253,-3.46098],[-1.13524,1.90498]],[[324.61746,237.28509],[1.99995,-1.19858],[-2.98798,1.79071]],[[311.1779,238.13431],[3.29145,1.16971],[-0.35191,-0.12506]],[[307.46598,235.74926],[0.68377,0.45627],[-1.44413,-0.24213]],[[303.41098,234.05981],[1.339,0.59265],[-2.41546,-1.06909]],[[296.087,231.73057],[2.31399,0.96296],[-1.55692,-0.64791]],[[291.61609,228.99401],[1.45643,0.74962],[-1.18153,-0.60813]],[[287.26053,228.12427],[1.20475,0.30132],[-5.21137,-1.30343]],[[271.10498,226.73819],[5.42025,0.24043],[-1.5828,-1.5828]],[[264.58333,225.83334],[2.21587,0],[-5.44951,0]],[[250.64756,231.93072],[4.12462,-3.20417],[-1.45557,1.13074]],[[246.31422,236.26406],[1.50464,-0.93223],[-1.96586,1.21799]],[[237.893,238.79437],[2.25005,-0.33763],[-4.95344,1.84323]],[[222.25,240.16667],[5.22629,0],[-2.04131,0]],[[215.83061,239.76088],[1.94788,0.71838],[-2.39038,-0.88157]],[[209.19202,235.83502],[2.16546,1.26084],[-3.82717,-2.22837]],[[198.69575,229.4538],[3.19259,3.16963],[-3.17315,-2.05912]],[[190.36612,221.80055],[2.66939,2.66939],[-1.23489,-1.23489]],[[186.21492,217.61746],[0.94865,1.41852],[-1.53628,-2.29721]],[[183.67875,209.75671],[0.46813,2.59086],[-0.95636,-5.29296]],[[183.43288,194.0945],[-1.39316,5.34992],[2.22146,-3.58723]],[[191.58367,188.04536],[-4.48725,-0.09844],[0,0]],[193.55979,189.17814],[[193.89543,189.47254],[-0.16449,-0.19171],[1.33675,0.43996]],[[197.49615,191.02407],[-1.37735,-0.32815],[0.12667,-1.63566]],[[197.67426,186.68421],[0.06065,1.20233],[0.00641,-0.16432]],[[197.69962,186.19721],[-0.01049,0.16036],[-1.15628,-1.0356]],[[194.25949,182.97999],[1.24341,0.7068],[-1.41932,-0.80679]],[[189.24999,182.50001],[1.51336,0],[-1.58513,0]],[[184.20385,182.46657],[1.53197,-0.33558],[-1.98503,0.43482]],[[181.80054,184.80056],[1.09271,-1.09662],[-0.34092,0.34214]],[[180.40533,185.19172],[0.35598,-0.32645],[-1.46859,1.34679]],[[178.18966,192.97854],[0.4365,-1.77257],[-1.68766,6.68943]],[[176.16665,212.91668],[0,-6.88099],[0,1.96507]],[[176.15728,219.09729],[-0.2983,-1.94465],[0.22979,1.49799]],[[178.05176,223.23031],[-0.62765,-1.37943],[0.31138,0.68433]],[[179.41382,228.1238],[-0.3025,-0.80392],[1.36742,3.63405]],[[185.25901,238.17887],[-2.12786,-3.19338],[0.96193,1.20108]],[[188.18221,241.75181],[-0.98444,-1.18269],[0,0]],[[188.58906,242.34964],[0,0],[0.66404,-0.19761]],[[189.80054,242.69947],[0,0],[3.63231,3.63231]],[[200.1992,252.82893],[-4.32247,-2.82769],[1.90725,1.24769]],[[207.91666,254.00002],[-2.17944,0],[4.33334,0]],[[220.91666,254.00002],[-4.33334,0],[6.57771,0]],[[238.27654,247.84303],[-5.37253,3.38288],[2.58008,-1.62458]],[[245.23011,241.84996],[-2.41432,1.81226],[1.66939,-1.25309]],[[250.92948,238.74261],[-1.77585,1.12593],[1.81979,-1.15379]],[[256.07312,236.10889],[-2.1662,0.41588],[2.45276,-1.76933]],[[265.91667,234.33336],[-3.02118,0],[4.71792,0]],[[278.59949,237.38321],[-4.4567,-1.27813],[5.59398,1.6043]],[[295.3022,242.3943],[-5.47421,-1.99417],[8.71202,2.49789]],[[323.33084,246.42229],[-9.55991,2.25197],[1.4319,-0.3373]],[[325.12134,243.71282],[-0.521,0.98045],[1.10104,-2.072]],[[330.10499,240.76185],[-2.26627,-0.07414],[0.57357,-0.6204]],[[332.3008,239.49562],[-0.81968,0.20492],[0,0]],[333.03279,238.69949],[[334.80055,238.69949],[-0.88388,-0.88388],[0,0]],[[334.80055,238.69946],[0,0],[0.19065,0.19065]],[[335.15238,239.26254],[-0.05277,-0.18178],[1.62488,-1.44154]],[[338.85733,233.58647],[-1.36122,2.18617],[0.49776,-0.79942]],[[341.41758,229.79889],[-0.39103,0.90746],[0.9878,-2.29232]],[[341.66667,221.25001],[0,2.44968],[0,-6.10318]],[[341.42974,202.63528],[0.83678,6.05923],[-0.45207,-3.27352]],[[338.58854,193.50842],[1.08491,3.0684],[-2.44191,-6.90636]],[[330.56618,173.47502],[3.54618,6.47007],[-1.87259,-2.32366]],[[322.81063,165.13656],[3.10871,0.62078],[-2.30427,-0.46014]],[[316.16333,165.85327],[2.11674,-0.78585],[-0.12192,0.48255]]],&quot;closed&quot;:true}]}" fill="#8e0000" stroke-width="0.5"/><path d="M279.0919,219.08529c-0.96028,0.80023 -1.76051,-0.16005 -1.76051,-0.16005l-0.79608,-0.95731c-0.32029,-0.31968 -0.64057,-0.63936 -0.96086,-0.95904c-1.36431,-1.37003 -3.06796,-2.91097 -4.14714,-4.51047c-0.90364,-1.33932 -1.35803,-2.81512 -2.51337,-3.98342c-2.19533,-2.21995 -7.58801,-2.56996 -8.92093,-5.69314c-0.45055,-1.05569 0.22254,-2.2862 0.40204,-3.41989c0.19266,-1.21677 0.27019,-2.48518 0.75434,-3.61798c0,0 0.01148,-0.02583 0.03488,-0.068c-0.18399,-0.01261 -0.37038,-0.01547 -0.55928,-0.00766c0,0 -1.25,0 -1.25,-1.25c0,-1.25 1.25,-1.25 1.25,-1.25c3.5306,0.08938 6.01529,2.24872 8.73832,4.24135c3.5409,2.59112 7.11504,4.94549 10.54384,7.70027c0.92673,0.74456 1.70627,1.59719 2.5198,2.41908c0.57894,0.11179 0.80434,0.54298 0.89209,0.86179c0.35084,0.31882 0.71805,0.62431 1.11392,0.90707c0.35864,0.35663 0.71728,0.71326 1.07591,1.06989l0.66667,0.66667c0,0 0.88388,0.88388 0,1.76777c-0.88388,0.88388 -1.76777,0 -1.76777,0l-0.66667,-0.66667c-0.29842,-0.30037 -0.59685,-0.60074 -0.89527,-0.9011c-0.81877,2.18297 -2.50914,4.20556 -4.5928,4.87909c0.04277,0.04285 0.08554,0.08569 0.12832,0.12854l0.87058,1.04269c0,0 0.80023,0.96028 -0.16005,1.76051z" fill="#8e0000" stroke-width="0.5"/></g></g></svg>