<svg version="1.1" xmlns="http://www.w3.org/2000/svg" xmlns:xlink="http://www.w3.org/1999/xlink" width="381.49171" height="302.93675" viewBox="0,0,381.49171,302.93675"><g transform="translate(228.79713,-58)"><g data-paper-data="{&quot;isPaintingLayer&quot;:true}" fill-rule="nonzero" stroke="none" stroke-linecap="butt" stroke-linejoin="miter" stroke-miterlimit="10" stroke-dasharray="" stroke-dashoffset="0" style="mix-blend-mode: normal"><path d="" data-paper-data="{&quot;noHover&quot;:false,&quot;origItem&quot;:[&quot;Path&quot;,{&quot;applyMatrix&quot;:true,&quot;segments&quot;:[[227.75368,304.99632],[[227.92632,304.72104],[0,0],[-0.36204,-0.12238]],[[222.35502,301.63102],[1.69044,1.03162],[1.13108,2.11446]],[[222.22104,311.9263],[-0.645,-1.51292],[1.72168,4.03832]],[[230.54826,322.05472],[-3.2946,-3.03636],[-0.12396,-3.28192]],[[230.77246,312.11654],[0.41122,3.21114],[-0.26646,-2.0808]],[[230.15076,305.93132],[0.15214,2.05006],[-1.35438,0.1077]],[227.75366,304.99632]],&quot;closed&quot;:true,&quot;fillColor&quot;:[0,0,0],&quot;strokeWidth&quot;:0.5}]}" fill="#fff196" stroke-width="0.25"/><path d="" fill="#000000" stroke-width="0.5"/><path d="" fill="#000000" stroke-width="0.5"/><path d="" fill="#000000" stroke-width="0.5"/><path d="" fill="#000000" stroke-width="0.5"/><path d="" fill="#000000" stroke-width="0.5"/><path d="" fill="#000000" stroke-width="0.5"/><path d="" fill="#000000" stroke-width="0.5"/><path d="" data-paper-data="{&quot;index&quot;:null}" fill="#000000" stroke-width="0.5"/><path d="" data-paper-data="{&quot;index&quot;:null}" fill="#000000" stroke-width="0.5"/><path d="" data-paper-data="{&quot;index&quot;:null}" fill="#000000" stroke-width="0.5"/><path d="" data-paper-data="{&quot;noHover&quot;:false,&quot;origItem&quot;:[&quot;Path&quot;,{&quot;applyMatrix&quot;:true,&quot;segments&quot;:[[[78.47777,437.03127],[2.62778,-2.89995],[-1.14641,1.26514]],[[78.99418,443.76516],[-0.07729,-0.39678],[0.50873,2.61161]],[[80.8097,451.53805],[-1.70184,-2.04525],[1.68653,2.02685]],[[89.20412,456.79784],[-2.27055,-1.26361],[8.86339,4.93267]],[[117.48899,464.12488],[-10.15948,-0.13194],[10.30107,-1.96289]],[[146.02556,456.41179],[-9.10516,6.03094],[3.97385,-2.63214]],[[151.90685,448.06158],[-1.57021,4.29452],[0.40239,-1.10052]],[[153.28528,443.12006],[1.1621,1.63836],[-1.37108,-1.93299]],[[147.27491,439.2243],[2.22033,0.79145],[-10.04625,5.26555]],[[112.86408,441.29101],[10.80623,1.714],[-8.96505,-1.25192]],[[90.39519,432.27727],[7.05217,4.59486],[-4.13822,0.76371]]],&quot;closed&quot;:true}],&quot;index&quot;:null}" fill="#ffffff" stroke-width="0.5"/><path d="" data-paper-data="{&quot;noHover&quot;:false,&quot;origItem&quot;:[&quot;Path&quot;,{&quot;applyMatrix&quot;:true,&quot;segments&quot;:[[[140.55603,432.89796],[-0.40302,0.94925],[1.28941,-3.03701]],[144.88244,431.15036],[[146.66556,431.9089],[0,0],[1.51197,-1.22152]],[[150.57812,427.31181],[-1.11339,1.88158],[0.78121,-1.32022]],[[152.76111,423.26042],[0.56345,1.4268],[-0.57355,-1.45237]],[[148.38825,421.58015],[1.46131,0.55037],[0,0]],[147.88605,421.71196],[[144.78513,418.22537],[-0.19283,3.29374],[0.05841,-0.99768]],[[145.63616,416.08974],[-0.44971,0.46015],[-5.88973,-2.35091]],[[131.20636,404.65178],[3.14033,4.65326],[-0.53814,-0.79741]],[[129.72899,402.094],[0.44726,0.90493],[-0.18349,0.58871]],[129.27763,403.07516],[[126.87199,404.88558],[0,0],[-10.27756,1.93929]],[[98.74703,403.34765],[8.4265,3.32475],[-0.4668,0.21773]],[[97.90983,403.63527],[0,0],[-3.16653,0.5975]],[[82.45309,406.73151],[2.05006,-2.34475],[-2.40435,2.74996]],[[83.69433,420.44505],[-2.70846,-2.29473],[2.11879,1.79513]],[[90.53997,425.54475],[-2.42761,-1.5868],[0.22502,-0.04261]],[[91.20142,425.41984],[-0.21578,0.04072],[0,0]],[[95.05537,428.05024],[-0.61177,-3.24218],[0.01464,0.0776]],[[95.09278,428.27854],[-0.01032,-0.07461],[5.94609,3.26466]],[[113.84212,434.76511],[-6.33701,-0.83675],[7.42267,1.25978]],[[140.39012,435.24751],[-7.3988,2.53232],[-0.21746,-0.62178]]],&quot;closed&quot;:true}],&quot;index&quot;:null}" fill="#ffffff" stroke-width="0.5"/><path d="" data-paper-data="{&quot;noHover&quot;:false,&quot;origItem&quot;:[&quot;Path&quot;,{&quot;applyMatrix&quot;:true,&quot;segments&quot;:[[[124.54668,398.60149],[-14.42697,2.52075],[0.75253,-0.61411]],[[128.21834,398.36431],[-1.622,-0.99426],[-2.94154,-8.95629]],[[128.32246,368.43633],[-2.67598,9.04602],[-11.06754,-4.68889]],[[93.83111,362.24821],[11.90977,-2.20424],[-1.60741,0.2975]],[[83.9242,365.59046],[1.14777,-2.20153],[-1.38123,2.64935]],[[84.25427,376.7396],[-0.53162,-2.75594],[0.86637,4.49139]],[[87.74431,387.25415],[-2.66885,-3.63618],[9.8771,11.98327]]],&quot;closed&quot;:true}],&quot;index&quot;:null}" fill="#ffffff" stroke-width="0.5"/><path d="" data-paper-data="{&quot;noHover&quot;:false,&quot;origItem&quot;:[&quot;Path&quot;,{&quot;applyMatrix&quot;:true,&quot;segments&quot;:[[[184.41667,453.96512],[0,0],[0.3586,0.00214]],[[185.49954,453.94191],[-0.36311,0.01753],[0.28863,-0.09243]],[[186.34387,453.64158],[-0.27404,0.10787],[0.00172,0.0811]],[[186.34996,453.8835],[-0.00234,-0.08017],[7.858,-0.69792]],[[205.90083,441.02584],[-3.15385,7.06742],[0,0]],[206.48811,438.31433],[[207.45717,436.63339],[-0.75114,0.70026],[-5.79363,-7.07482]],[[191.74918,413.81294],[4.4588,8.53095],[-5.3564,-14.49319]],[[190.24754,365.65288],[-5.05586,14.72345],[0.2172,-0.63251]],[[190.93265,363.65429],[-0.24128,0.69491],[-0.13529,-0.11839]],[[190.52617,363.29845],[0.13574,0.11883],[-0.0365,0]],[[190.41667,363.29845],[0.0365,0],[0,0]],[[187.43119,360.65027],[0.22486,2.64818],[-0.59758,-0.49049]],[[185.57417,359.18387],[0.64304,0.48632],[-7.88145,-5.96053]],[[157.9754,348.00934],[9.52074,1.90309],[-3.52434,-0.70447]],[[147.83209,344.35308],[3.17859,1.67743],[-0.87948,-0.46412]],[[143.83798,343.96352],[0.97637,-1.65022],[-3.60702,6.09637]],[[137.00353,364.48652],[1.84532,-6.74449],[-5.06629,9.08086]],[[135.19771,398.24127],[-3.30262,-9.88482],[2.62457,7.8554]],[[160.64581,408.32894],[-7.13274,8.13939],[2.72248,-3.10671]],[[163.10348,394.4571],[-0.84149,3.93351],[0,0]],[163.12455,391.04439],[[165.10841,387.99472],[-1.95854,0.72575],[2.27267,-2.33594]],[[169.82204,387.89116],[0,0],[2.4885,2.67716]],[[176.52816,389.09402],[-3.54639,0.69382],[0,0]],[178.01778,388.81294],[[182.00184,391.53216],[-0.63243,-3.35164],[0.63243,3.35164]],[179.28263,395.51622],[[177.79301,395.7973],[0,0],[-3.68005,0.67389]],[[169.55269,395.74837],[2.32222,0.93037],[-0.94086,5.28925]],[[165.79399,412.45691],[3.68017,-4.26553],[-2.79131,3.23528]],[[155.99584,417.7191],[3.60395,-0.41695],[1.31783,0.81099]],[[158.98914,421.07973],[-0.55962,-1.49482],[1.62887,4.35088]],[[153.22273,434.69319],[3.8378,-3.82968],[2.42534,1.28019]],[[159.04997,439.90877],[-1.12082,-2.22773],[1.48293,2.94744]],[[159.21867,449.53926],[1.13368,-3.28418],[0.47295,0.17828]],[[159.99304,449.92326],[0,0],[4.50094,3.10918]],[[182.47243,454.61329],[-7.66568,1.06747],[0.86404,-0.64818]]],&quot;closed&quot;:true}],&quot;index&quot;:null}" fill="#ffffff" stroke-width="0.5"/><path d="" data-paper-data="{&quot;noHover&quot;:false,&quot;origItem&quot;:[&quot;Path&quot;,{&quot;applyMatrix&quot;:true,&quot;segments&quot;:[[[184.41667,453.96512],[0,0],[0.3586,0.00214]],[[185.49954,453.94191],[-0.36311,0.01753],[0.28863,-0.09243]],[[186.34387,453.64158],[-0.27404,0.10787],[0.00172,0.0811]],[[186.34996,453.8835],[-0.00234,-0.08017],[7.858,-0.69792]],[[205.90083,441.02584],[-3.15385,7.06742],[0,0]],[206.48811,438.31433],[[207.45717,436.63339],[-0.75114,0.70026],[-5.79363,-7.07482]],[[191.74918,413.81294],[4.4588,8.53095],[-5.3564,-14.49319]],[[190.24754,365.65288],[-5.05586,14.72345],[0.2172,-0.63251]],[[190.93265,363.65429],[-0.24128,0.69491],[-0.13529,-0.11839]],[[190.52617,363.29845],[0.13574,0.11883],[-0.0365,0]],[[190.41667,363.29845],[0.0365,0],[0,0]],[[187.43119,360.65027],[0.22486,2.64818],[-0.59758,-0.49049]],[[185.57417,359.18387],[0.64304,0.48632],[-7.88145,-5.96053]],[[157.9754,348.00934],[9.52074,1.90309],[-3.52434,-0.70447]],[[147.83209,344.35308],[3.17859,1.67743],[-0.87948,-0.46412]],[[143.83798,343.96352],[0.97637,-1.65022],[-3.60702,6.09637]],[[137.00353,364.48652],[1.84532,-6.74449],[-5.06629,9.08086]],[[135.19771,398.24127],[-3.30262,-9.88482],[2.62457,7.8554]],[[160.64581,408.32894],[-7.13274,8.13939],[2.72248,-3.10671]],[[163.10348,394.4571],[-0.84149,3.93351],[0,0]],[163.12455,391.04439],[[165.10841,387.99472],[-1.95854,0.72575],[2.27267,-2.33594]],[[169.82204,387.89116],[0,0],[2.4885,2.67716]],[[176.52816,389.09402],[-3.54639,0.69382],[0,0]],[178.01778,388.81294],[[182.00184,391.53216],[-0.63243,-3.35164],[0.63243,3.35164]],[179.28263,395.51622],[[177.79301,395.7973],[0,0],[-3.68005,0.67389]],[[169.55269,395.74837],[2.32222,0.93037],[-0.94086,5.28925]],[[165.79399,412.45691],[3.68017,-4.26553],[-2.79131,3.23528]],[[155.99584,417.7191],[3.60395,-0.41695],[1.31783,0.81099]],[[158.98914,421.07973],[-0.55962,-1.49482],[1.62887,4.35088]],[[153.22273,434.69319],[3.8378,-3.82968],[2.42534,1.28019]],[[159.04997,439.90877],[-1.12082,-2.22773],[1.48293,2.94744]],[[159.21867,449.53926],[1.13368,-3.28418],[0.47295,0.17828]],[[159.99304,449.92326],[0,0],[4.50094,3.10918]],[[182.47243,454.61329],[-7.66568,1.06747],[0.86404,-0.64818]]],&quot;closed&quot;:true}],&quot;index&quot;:null}" fill="#ffffff" stroke-width="0.5"/><path d="" data-paper-data="{&quot;noHover&quot;:false,&quot;origItem&quot;:[&quot;Path&quot;,{&quot;applyMatrix&quot;:true,&quot;segments&quot;:[[[184.41667,453.96512],[0,0],[0.3586,0.00214]],[[185.49954,453.94191],[-0.36311,0.01753],[0.28863,-0.09243]],[[186.34387,453.64158],[-0.27404,0.10787],[0.00172,0.0811]],[[186.34996,453.8835],[-0.00234,-0.08017],[7.858,-0.69792]],[[205.90083,441.02584],[-3.15385,7.06742],[0,0]],[206.48811,438.31433],[[207.45717,436.63339],[-0.75114,0.70026],[-5.79363,-7.07482]],[[191.74918,413.81294],[4.4588,8.53095],[-5.3564,-14.49319]],[[190.24754,365.65288],[-5.05586,14.72345],[0.2172,-0.63251]],[[190.93265,363.65429],[-0.24128,0.69491],[-0.13529,-0.11839]],[[190.52617,363.29845],[0.13574,0.11883],[-0.0365,0]],[[190.41667,363.29845],[0.0365,0],[0,0]],[[187.43119,360.65027],[0.22486,2.64818],[-0.59758,-0.49049]],[[185.57417,359.18387],[0.64304,0.48632],[-7.88145,-5.96053]],[[157.9754,348.00934],[9.52074,1.90309],[-3.52434,-0.70447]],[[147.83209,344.35308],[3.17859,1.67743],[-0.87948,-0.46412]],[[143.83798,343.96352],[0.97637,-1.65022],[-3.60702,6.09637]],[[137.00353,364.48652],[1.84532,-6.74449],[-5.06629,9.08086]],[[135.19771,398.24127],[-3.30262,-9.88482],[2.62457,7.8554]],[[160.64581,408.32894],[-7.13274,8.13939],[2.72248,-3.10671]],[[163.10348,394.4571],[-0.84149,3.93351],[0,0]],[163.12455,391.04439],[[165.10841,387.99472],[-1.95854,0.72575],[2.27267,-2.33594]],[[169.82204,387.89116],[0,0],[2.4885,2.67716]],[[176.52816,389.09402],[-3.54639,0.69382],[0,0]],[178.01778,388.81294],[[182.00184,391.53216],[-0.63243,-3.35164],[0.63243,3.35164]],[179.28263,395.51622],[[177.79301,395.7973],[0,0],[-3.68005,0.67389]],[[169.55269,395.74837],[2.32222,0.93037],[-0.94086,5.28925]],[[165.79399,412.45691],[3.68017,-4.26553],[-2.79131,3.23528]],[[155.99584,417.7191],[3.60395,-0.41695],[1.31783,0.81099]],[[158.98914,421.07973],[-0.55962,-1.49482],[1.62887,4.35088]],[[153.22273,434.69319],[3.8378,-3.82968],[2.42534,1.28019]],[[159.04997,439.90877],[-1.12082,-2.22773],[1.48293,2.94744]],[[159.21867,449.53926],[1.13368,-3.28418],[0.47295,0.17828]],[[159.99304,449.92326],[0,0],[4.50094,3.10918]],[[182.47243,454.61329],[-7.66568,1.06747],[0.86404,-0.64818]]],&quot;closed&quot;:true}],&quot;index&quot;:null}" fill="#ffffff" stroke-width="0.5"/><path d="" data-paper-data="{&quot;noHover&quot;:false,&quot;origItem&quot;:[&quot;Path&quot;,{&quot;applyMatrix&quot;:true,&quot;segments&quot;:[[[184.41667,453.96512],[0,0],[0.3586,0.00214]],[[185.49954,453.94191],[-0.36311,0.01753],[0.28863,-0.09243]],[[186.34387,453.64158],[-0.27404,0.10787],[0.00172,0.0811]],[[186.34996,453.8835],[-0.00234,-0.08017],[7.858,-0.69792]],[[205.90083,441.02584],[-3.15385,7.06742],[0,0]],[206.48811,438.31433],[[207.45717,436.63339],[-0.75114,0.70026],[-5.79363,-7.07482]],[[191.74918,413.81294],[4.4588,8.53095],[-5.3564,-14.49319]],[[190.24754,365.65288],[-5.05586,14.72345],[0.2172,-0.63251]],[[190.93265,363.65429],[-0.24128,0.69491],[-0.13529,-0.11839]],[[190.52617,363.29845],[0.13574,0.11883],[-0.0365,0]],[[190.41667,363.29845],[0.0365,0],[0,0]],[[187.43119,360.65027],[0.22486,2.64818],[-0.59758,-0.49049]],[[185.57417,359.18387],[0.64304,0.48632],[-7.88145,-5.96053]],[[157.9754,348.00934],[9.52074,1.90309],[-3.52434,-0.70447]],[[147.83209,344.35308],[3.17859,1.67743],[-0.87948,-0.46412]],[[143.83798,343.96352],[0.97637,-1.65022],[-3.60702,6.09637]],[[137.00353,364.48652],[1.84532,-6.74449],[-5.06629,9.08086]],[[135.19771,398.24127],[-3.30262,-9.88482],[2.62457,7.8554]],[[160.64581,408.32894],[-7.13274,8.13939],[2.72248,-3.10671]],[[163.10348,394.4571],[-0.84149,3.93351],[0,0]],[163.12455,391.04439],[[165.10841,387.99472],[-1.95854,0.72575],[2.27267,-2.33594]],[[169.82204,387.89116],[0,0],[2.4885,2.67716]],[[176.52816,389.09402],[-3.54639,0.69382],[0,0]],[178.01778,388.81294],[[182.00184,391.53216],[-0.63243,-3.35164],[0.63243,3.35164]],[179.28263,395.51622],[[177.79301,395.7973],[0,0],[-3.68005,0.67389]],[[169.55269,395.74837],[2.32222,0.93037],[-0.94086,5.28925]],[[165.79399,412.45691],[3.68017,-4.26553],[-2.79131,3.23528]],[[155.99584,417.7191],[3.60395,-0.41695],[1.31783,0.81099]],[[158.98914,421.07973],[-0.55962,-1.49482],[1.62887,4.35088]],[[153.22273,434.69319],[3.8378,-3.82968],[2.42534,1.28019]],[[159.04997,439.90877],[-1.12082,-2.22773],[1.48293,2.94744]],[[159.21867,449.53926],[1.13368,-3.28418],[0.47295,0.17828]],[[159.99304,449.92326],[0,0],[4.50094,3.10918]],[[182.47243,454.61329],[-7.66568,1.06747],[0.86404,-0.64818]]],&quot;closed&quot;:true}],&quot;index&quot;:null}" fill="#ffffff" stroke-width="0.5"/><path d="" data-paper-data="{&quot;noHover&quot;:false,&quot;origItem&quot;:[&quot;Path&quot;,{&quot;applyMatrix&quot;:true,&quot;segments&quot;:[[[216.31882,363.72466],[0,0],[-4.40389,-3.21891]],[[203.60802,357.62108],[4.99912,2.12265],[-0.67568,-0.2869]],[[201.87414,356.26336],[0.70127,-0.21697],[-3.13393,0.96962]],[[195.91913,367.61068],[0.89445,-2.5324],[-4.65414,13.17697]],[[197.23262,411.37741],[-4.78642,-13.03555],[5.95196,11.30523]],[[219.29098,441.60045],[-8.52592,-9.34431],[2.0014,2.19352]],[[224.88984,448.52915],[-2.09827,-2.10104],[0.80145,0.8025]],[[227.59182,450.59706],[-0.88524,-0.709],[0.44352,0.35522]],[[229.41111,452.36369],[-0.60768,-0.65446],[-0.77266,-2.58503]],[[230.09822,441.99994],[-0.18249,1.84476],[0,0]],[231.40005,438.95681],[[231.59713,438.63533],[-0.13139,0.19009],[-1.81823,-1.04927]],[[226.07503,435.6484],[1.86779,0.93008],[0,0]],[224.07503,434.6484],[[222.73339,430.62348],[-1.34164,2.68328],[1.34164,-2.68328]],[226.75831,429.28184],[[228.75831,430.28184],[0,0],[6.34365,3.18358]],[[247.25042,441.03395],[-6.15682,-3.56451],[0.90388,0.5233]],[[254.39187,444.75148],[-0.68844,1.04617],[0.51452,-0.78188]],[[255.13341,439.75263],[-0.05392,0.28298],[1.07462,-5.63941]],[[256.75,422.96512],[0,5.805],[0,-13.24676]],[[250.08207,383.67037],[5.69493,12.19524],[-2.04496,-4.37911]],[[241.11393,371.06396],[2.42676,4.37398],[-3.72732,-6.7181]],[[227.01124,352.08943],[5.6591,5.43481],[-0.87349,4.52873]],[[223.67856,365.61591],[1.04815,-4.71856],[0,0]],[223.09995,366.97342],[[219.07503,368.31506],[2.68328,1.34164],[-2.59051,-1.29526]],[[217.7288,364.2996],[-0.08337,0.17448],[-0.81498,-0.14222]]],&quot;closed&quot;:true}],&quot;index&quot;:null}" fill="#ffffff" stroke-width="0.5"/><path d="" data-paper-data="{&quot;noHover&quot;:false,&quot;origItem&quot;:[&quot;Path&quot;,{&quot;applyMatrix&quot;:true,&quot;segments&quot;:[[[252.73494,714.73815],[0,0],[2.82648,1.196]],[[261.7197,718.14117],[-3.23478,-1.31552],[7.3751,2.99928]],[[284.72278,728.23815],[-7.86034,-1.50856],[5.30514,1.01816]],[[302.25,728.19303],[-5.3756,0],[8.46178,0]],[[328.09452,727.68343],[-8.34442,1.4159],[29.85724,-11.93472]],[[410.65984,678.69303],[-28.74904,14.39952],[4.56576,-2.27084]],[[423.94456,672.21177],[-5.2309,0.60952],[1.41232,-0.16458]],[[428.20672,672.38335],[-1.30302,-0.56908],[1.29602,0.566]],[[431.20672,675.38335],[-1.29348,-0.57178],[1.04408,0.46154]],[[434.62754,675.22171],[-1.12918,-0.16762],[3.08764,0.45836]],[[443.65624,677.70685],[-3.02932,-0.75296],[4.81494,1.19678]],[[457.81764,682.34377],[-4.80586,-1.03216],[3.28772,0.7061]],[[467.86314,683.26939],[-3.29372,-0.67756],[5.31178,1.0927]],[[481.56878,690.45837],[-4.75996,-1.9318],[5.8257,2.36434]],[[500.17926,696.86173],[-6.10306,-1.8246],[9.01296,2.76658]],[[519.37976,710.98603],[-7.10912,-5.2559],[1.76532,1.30512]],[[528.23562,714.69759],[-1.73824,-0.90012],[6.9974,3.62352]],[[548.3631,727.45449],[-7.07458,-3.6727],[3.8697,2.00892]],[[560.48022,732.51665],[-3.85438,-2.04388],[8.21794,4.35776]],[[584.61798,745.84765],[-8.88802,-3.4093],[6.43874,2.4891]],[[602.35686,755.45139],[-6.12634,-3.04192],[13.0809,6.49506]],[[643.06004,771.32787],[-13.84556,-4.51278],[4.01524,1.30872]],[[654.9101,776.27365],[-4.08314,-1.02814],[6.68536,1.6834]],[[676.25002,777.19301],[-6.82618,0],[12.88514,0]],[[715.84956,777.22529],[-12.79674,1.41036],[2.0172,-0.22232]],[[720.78824,773.66491],[-1.65142,1.17958],[3.58436,-2.56026]],[[732.33064,766.09115],[-3.01846,3.43994],[2.85364,-3.25212]],[[737.16292,753.31679],[-2.14674,3.72718],[2.6916,-4.67316]],[[747.16856,739.30827],[-3.41644,4.26326],[4.06006,-7.5176]],[[759.69724,715.75181],[-5.02172,6.8776],[0.92684,-1.2694]],[[763.0745,712.46127],[-0.8778,1.30378],[1.46178,-2.1711]],[[764.9053,704.82565],[-0.87806,2.46568],[2.91328,-8.18088]],[[775.44378,680.67063],[-3.04146,8.21412],[3.28126,-8.86176]],[[782.75002,652.69301],[0.04508,9.51536],[0,-19.74376]],[[781.76424,592.95921],[2.06558,19.64914],[-1.34826,-12.82566]],[[773.84024,554.35853],[3.32,12.45098],[-4.28702,-15.00338]],[[761.02604,509.94751],[6.4336,14.41022],[-6.99976,-15.67836]],[[733.12188,465.21479],[9.9383,13.9136],[-8.22776,-11.52044]],[[708.70332,430.09099],[9.406,10.57352],[-3.47826,-3.91]],[[696.38264,417.03775],[4.94134,2.30844],[-0.87454,-0.40856]],[[693.48708,417.07377],[0.9056,0.33408],[-2.69022,-0.99244]],[[686.48708,412.07377],[2.73014,0.87668],[-6.16022,-1.97816]],[[664.11838,414.37923],[6.03336,-1.32544],[-9.64172,2.1167]],[[635.02014,420.81871],[9.45552,-2.86606],[-8.51676,2.5815]],[[610.5119,430.89497],[8.3625,-2.7534],[-13.92718,4.5856]],[[568.70728,444.57255],[13.5118,-5.67496],[-23.5574,9.8941]],[[497.64312,476.76893],[21.72896,-13.6503],[-6.2384,3.91902]],[[480.23814,492.00063],[5.56618,-4.8471],[-7.2285,4.2913]],[[458.36352,504.93139],[7.4965,-3.80044],[-22.11212,11.21]],[[390.06466,534.44805],[20.97858,-13.70066],[-11.94294,7.77608]],[[354.01776,560.46083],[10.10326,-10.13148],[-4.61396,4.62684]],[[337.1187,572.18895],[6.36218,-2.512],[-11.24304,4.43912]],[[299.811,567.29729],[10.3817,4.31818],[-6.1097,-2.55708]],[[281.14944,559.93779],[5.96118,2.74314],[-2.63324,-1.21172]],[[274.06528,554.89451],[2.52958,1.41544],[-6.04366,-3.38176]],[[254.22264,546.97221],[6.37342,2.8448],[-14.69288,-6.5582]],[[209.86094,527.96051],[14.80786,6.34624],[-9.05774,-3.88212]],[[181.14958,517.19105],[9.79582,0.41858],[-4.03354,-0.17236]],[[168.97522,519.50239],[3.21916,-2.84806],[-2.28022,2.01734]],[[165.8103,529.38325],[0.59102,-2.54196],[-2.68802,11.56088]],[[164.75624,565.88427],[-0.00902,-11.87142],[0.0257,33.81808]],[[186.3061,663.27091],[-21.2987,-28.33634],[2.18256,3.4253]],[[193.10054,674.01213],[-2.68138,-3.02],[8.76418,9.87094]],[[228.55242,697.99839],[-11.43022,-6.34618],[5.605,3.11196]],[[246.00712,706.46791],[-6.17414,-1.90184],[1.91604,0.5902]],[[251.87408,707.79243],[-1.63188,-1.16466],[1.21176,0.86484]],[[253.62172,711.90249],[-0.58254,-1.37002],[0,0]],[[252.73494,714.73817],[1.50718,-0.97446],[0,0]]],&quot;closed&quot;:true,&quot;fillColor&quot;:[0,0,0,1]}]}" fill="#e60000" stroke-width="0.5"/><path d="" data-paper-data="{&quot;noHover&quot;:false,&quot;origItem&quot;:[&quot;Path&quot;,{&quot;applyMatrix&quot;:true,&quot;segments&quot;:[[[252.73494,714.73815],[0,0],[2.82648,1.196]],[[261.7197,718.14117],[-3.23478,-1.31552],[7.3751,2.99928]],[[284.72278,728.23815],[-7.86034,-1.50856],[5.30514,1.01816]],[[302.25,728.19303],[-5.3756,0],[8.46178,0]],[[328.09452,727.68343],[-8.34442,1.4159],[29.85724,-11.93472]],[[410.65984,678.69303],[-28.74904,14.39952],[4.56576,-2.27084]],[[423.94456,672.21177],[-5.2309,0.60952],[1.41232,-0.16458]],[[428.20672,672.38335],[-1.30302,-0.56908],[1.29602,0.566]],[[431.20672,675.38335],[-1.29348,-0.57178],[1.04408,0.46154]],[[434.62754,675.22171],[-1.12918,-0.16762],[3.08764,0.45836]],[[443.65624,677.70685],[-3.02932,-0.75296],[4.81494,1.19678]],[[457.81764,682.34377],[-4.80586,-1.03216],[3.28772,0.7061]],[[467.86314,683.26939],[-3.29372,-0.67756],[5.31178,1.0927]],[[481.56878,690.45837],[-4.75996,-1.9318],[5.8257,2.36434]],[[500.17926,696.86173],[-6.10306,-1.8246],[9.01296,2.76658]],[[519.37976,710.98603],[-7.10912,-5.2559],[1.76532,1.30512]],[[528.23562,714.69759],[-1.73824,-0.90012],[6.9974,3.62352]],[[548.3631,727.45449],[-7.07458,-3.6727],[3.8697,2.00892]],[[560.48022,732.51665],[-3.85438,-2.04388],[8.21794,4.35776]],[[584.61798,745.84765],[-8.88802,-3.4093],[6.43874,2.4891]],[[602.35686,755.45139],[-6.12634,-3.04192],[13.0809,6.49506]],[[643.06004,771.32787],[-13.84556,-4.51278],[4.01524,1.30872]],[[654.9101,776.27365],[-4.08314,-1.02814],[6.68536,1.6834]],[[676.25002,777.19301],[-6.82618,0],[12.88514,0]],[[715.84956,777.22529],[-12.79674,1.41036],[2.0172,-0.22232]],[[720.78824,773.66491],[-1.65142,1.17958],[3.58436,-2.56026]],[[732.33064,766.09115],[-3.01846,3.43994],[2.85364,-3.25212]],[[737.16292,753.31679],[-2.14674,3.72718],[2.6916,-4.67316]],[[747.16856,739.30827],[-3.41644,4.26326],[4.06006,-7.5176]],[[759.69724,715.75181],[-5.02172,6.8776],[0.92684,-1.2694]],[[763.0745,712.46127],[-0.8778,1.30378],[1.46178,-2.1711]],[[764.9053,704.82565],[-0.87806,2.46568],[2.91328,-8.18088]],[[775.44378,680.67063],[-3.04146,8.21412],[3.28126,-8.86176]],[[782.75002,652.69301],[0.04508,9.51536],[0,-19.74376]],[[781.76424,592.95921],[2.06558,19.64914],[-1.34826,-12.82566]],[[773.84024,554.35853],[3.32,12.45098],[-4.28702,-15.00338]],[[761.02604,509.94751],[6.4336,14.41022],[-6.99976,-15.67836]],[[733.12188,465.21479],[9.9383,13.9136],[-8.22776,-11.52044]],[[708.70332,430.09099],[9.406,10.57352],[-3.47826,-3.91]],[[696.38264,417.03775],[4.94134,2.30844],[-0.87454,-0.40856]],[[693.48708,417.07377],[0.9056,0.33408],[-2.69022,-0.99244]],[[686.48708,412.07377],[2.73014,0.87668],[-6.16022,-1.97816]],[[664.11838,414.37923],[6.03336,-1.32544],[-9.64172,2.1167]],[[635.02014,420.81871],[9.45552,-2.86606],[-8.51676,2.5815]],[[610.5119,430.89497],[8.3625,-2.7534],[-13.92718,4.5856]],[[568.70728,444.57255],[13.5118,-5.67496],[-23.5574,9.8941]],[[497.64312,476.76893],[21.72896,-13.6503],[-6.2384,3.91902]],[[480.23814,492.00063],[5.56618,-4.8471],[-7.2285,4.2913]],[[458.36352,504.93139],[7.4965,-3.80044],[-22.11212,11.21]],[[390.06466,534.44805],[20.97858,-13.70066],[-11.94294,7.77608]],[[354.01776,560.46083],[10.10326,-10.13148],[-4.61396,4.62684]],[[337.1187,572.18895],[6.36218,-2.512],[-11.24304,4.43912]],[[299.811,567.29729],[10.3817,4.31818],[-6.1097,-2.55708]],[[281.14944,559.93779],[5.96118,2.74314],[-2.63324,-1.21172]],[[274.06528,554.89451],[2.52958,1.41544],[-6.04366,-3.38176]],[[254.22264,546.97221],[6.37342,2.8448],[-14.69288,-6.5582]],[[209.86094,527.96051],[14.80786,6.34624],[-9.05774,-3.88212]],[[181.14958,517.19105],[9.79582,0.41858],[-4.03354,-0.17236]],[[168.97522,519.50239],[3.21916,-2.84806],[-2.28022,2.01734]],[[165.8103,529.38325],[0.59102,-2.54196],[-2.68802,11.56088]],[[164.75624,565.88427],[-0.00902,-11.87142],[0.0257,33.81808]],[[186.3061,663.27091],[-21.2987,-28.33634],[2.18256,3.4253]],[[193.10054,674.01213],[-2.68138,-3.02],[8.76418,9.87094]],[[228.55242,697.99839],[-11.43022,-6.34618],[5.605,3.11196]],[[246.00712,706.46791],[-6.17414,-1.90184],[1.91604,0.5902]],[[251.87408,707.79243],[-1.63188,-1.16466],[1.21176,0.86484]],[[253.62172,711.90249],[-0.58254,-1.37002],[0,0]],[[252.73494,714.73817],[1.50718,-0.97446],[0,0]]],&quot;closed&quot;:true,&quot;fillColor&quot;:[0,0,0,1]}]}" fill="#e60000" stroke-width="0.5"/><path d="" data-paper-data="{&quot;noHover&quot;:false,&quot;origItem&quot;:[&quot;Path&quot;,{&quot;applyMatrix&quot;:true,&quot;segments&quot;:[[[252.73494,714.73815],[0,0],[2.82648,1.196]],[[261.7197,718.14117],[-3.23478,-1.31552],[7.3751,2.99928]],[[284.72278,728.23815],[-7.86034,-1.50856],[5.30514,1.01816]],[[302.25,728.19303],[-5.3756,0],[8.46178,0]],[[328.09452,727.68343],[-8.34442,1.4159],[29.85724,-11.93472]],[[410.65984,678.69303],[-28.74904,14.39952],[4.56576,-2.27084]],[[423.94456,672.21177],[-5.2309,0.60952],[1.41232,-0.16458]],[[428.20672,672.38335],[-1.30302,-0.56908],[1.29602,0.566]],[[431.20672,675.38335],[-1.29348,-0.57178],[1.04408,0.46154]],[[434.62754,675.22171],[-1.12918,-0.16762],[3.08764,0.45836]],[[443.65624,677.70685],[-3.02932,-0.75296],[4.81494,1.19678]],[[457.81764,682.34377],[-4.80586,-1.03216],[3.28772,0.7061]],[[467.86314,683.26939],[-3.29372,-0.67756],[5.31178,1.0927]],[[481.56878,690.45837],[-4.75996,-1.9318],[5.8257,2.36434]],[[500.17926,696.86173],[-6.10306,-1.8246],[9.01296,2.76658]],[[519.37976,710.98603],[-7.10912,-5.2559],[1.76532,1.30512]],[[528.23562,714.69759],[-1.73824,-0.90012],[6.9974,3.62352]],[[548.3631,727.45449],[-7.07458,-3.6727],[3.8697,2.00892]],[[560.48022,732.51665],[-3.85438,-2.04388],[8.21794,4.35776]],[[584.61798,745.84765],[-8.88802,-3.4093],[6.43874,2.4891]],[[602.35686,755.45139],[-6.12634,-3.04192],[13.0809,6.49506]],[[643.06004,771.32787],[-13.84556,-4.51278],[4.01524,1.30872]],[[654.9101,776.27365],[-4.08314,-1.02814],[6.68536,1.6834]],[[676.25002,777.19301],[-6.82618,0],[12.88514,0]],[[715.84956,777.22529],[-12.79674,1.41036],[2.0172,-0.22232]],[[720.78824,773.66491],[-1.65142,1.17958],[3.58436,-2.56026]],[[732.33064,766.09115],[-3.01846,3.43994],[2.85364,-3.25212]],[[737.16292,753.31679],[-2.14674,3.72718],[2.6916,-4.67316]],[[747.16856,739.30827],[-3.41644,4.26326],[4.06006,-7.5176]],[[759.69724,715.75181],[-5.02172,6.8776],[0.92684,-1.2694]],[[763.0745,712.46127],[-0.8778,1.30378],[1.46178,-2.1711]],[[764.9053,704.82565],[-0.87806,2.46568],[2.91328,-8.18088]],[[775.44378,680.67063],[-3.04146,8.21412],[3.28126,-8.86176]],[[782.75002,652.69301],[0.04508,9.51536],[0,-19.74376]],[[781.76424,592.95921],[2.06558,19.64914],[-1.34826,-12.82566]],[[773.84024,554.35853],[3.32,12.45098],[-4.28702,-15.00338]],[[761.02604,509.94751],[6.4336,14.41022],[-6.99976,-15.67836]],[[733.12188,465.21479],[9.9383,13.9136],[-8.22776,-11.52044]],[[708.70332,430.09099],[9.406,10.57352],[-3.47826,-3.91]],[[696.38264,417.03775],[4.94134,2.30844],[-0.87454,-0.40856]],[[693.48708,417.07377],[0.9056,0.33408],[-2.69022,-0.99244]],[[686.48708,412.07377],[2.73014,0.87668],[-6.16022,-1.97816]],[[664.11838,414.37923],[6.03336,-1.32544],[-9.64172,2.1167]],[[635.02014,420.81871],[9.45552,-2.86606],[-8.51676,2.5815]],[[610.5119,430.89497],[8.3625,-2.7534],[-13.92718,4.5856]],[[568.70728,444.57255],[13.5118,-5.67496],[-23.5574,9.8941]],[[497.64312,476.76893],[21.72896,-13.6503],[-6.2384,3.91902]],[[480.23814,492.00063],[5.56618,-4.8471],[-7.2285,4.2913]],[[458.36352,504.93139],[7.4965,-3.80044],[-22.11212,11.21]],[[390.06466,534.44805],[20.97858,-13.70066],[-11.94294,7.77608]],[[354.01776,560.46083],[10.10326,-10.13148],[-4.61396,4.62684]],[[337.1187,572.18895],[6.36218,-2.512],[-11.24304,4.43912]],[[299.811,567.29729],[10.3817,4.31818],[-6.1097,-2.55708]],[[281.14944,559.93779],[5.96118,2.74314],[-2.63324,-1.21172]],[[274.06528,554.89451],[2.52958,1.41544],[-6.04366,-3.38176]],[[254.22264,546.97221],[6.37342,2.8448],[-14.69288,-6.5582]],[[209.86094,527.96051],[14.80786,6.34624],[-9.05774,-3.88212]],[[181.14958,517.19105],[9.79582,0.41858],[-4.03354,-0.17236]],[[168.97522,519.50239],[3.21916,-2.84806],[-2.28022,2.01734]],[[165.8103,529.38325],[0.59102,-2.54196],[-2.68802,11.56088]],[[164.75624,565.88427],[-0.00902,-11.87142],[0.0257,33.81808]],[[186.3061,663.27091],[-21.2987,-28.33634],[2.18256,3.4253]],[[193.10054,674.01213],[-2.68138,-3.02],[8.76418,9.87094]],[[228.55242,697.99839],[-11.43022,-6.34618],[5.605,3.11196]],[[246.00712,706.46791],[-6.17414,-1.90184],[1.91604,0.5902]],[[251.87408,707.79243],[-1.63188,-1.16466],[1.21176,0.86484]],[[253.62172,711.90249],[-0.58254,-1.37002],[0,0]],[[252.73494,714.73817],[1.50718,-0.97446],[0,0]]],&quot;closed&quot;:true,&quot;fillColor&quot;:[0,0,0,1]}]}" fill="#e60000" stroke-width="0.5"/><path d="M-149.5,259.25c0,-1.24264 1.00736,-2.25 2.25,-2.25c1.24264,0 2.25,1.00736 2.25,2.25c0,1.24264 -1.00736,2.25 -2.25,2.25c-1.24264,0 -2.25,-1.00736 -2.25,-2.25z" fill="#ffffff" stroke-width="0.5"/><path d="M-63.73847,81.55776c0.38966,-0.31319 0.77696,-0.44229 0.77696,-0.44229l2.76436,-0.9064c3.05165,-1.86559 4.90412,-3.29738 8.52166,-4.16847c0.97221,-0.23411 2.01613,0.17889 3,0c0.88305,-0.16055 1.61116,-0.87544 2.5,-1c2.85563,-0.40018 5.78714,0.31614 8.65058,-0.02374c2.72958,-0.324 5.27186,-1.66415 8,-2c0.17996,-0.02215 8.92726,-0.01686 9.27491,-0.01686c4.57976,0 10.92796,-1.56585 13.98377,3.18832c0.73362,1.14136 0.22566,2.70549 0.26623,4.06168c0.12997,4.34493 -0.378,7.64873 -2.72511,11.26608c6.92067,-1.40064 14.42704,-0.51608 21.47511,-0.51608c13.28932,0 27.69773,-1.54417 40.61765,2.08644c7.40923,2.08206 13.98147,6.03191 20.04838,10.65134c0.46667,0.76667 0.77475,1.65609 1.4,2.3c1.18069,1.21593 3.17703,1.69584 3.94643,3.206c0.75839,1.48856 0.19592,3.33613 0.23754,5.00623c0.09396,3.7706 -0.93194,6.34907 -2.50213,9.71802c-5.36691,11.51502 -9.94538,23.31493 -15.15612,34.89436c-1.77457,3.94348 -3.30855,8.28373 -5.40223,12.08236c1.86562,-0.46299 3.60494,-0.87795 4.05109,-0.92973c5.85657,-0.67973 12.35915,-0.11748 18.2594,-0.015c4.60647,0.08001 7.14576,-0.92089 9.57873,4.38896c0.74477,1.62542 0.14022,3.57338 0.17127,5.36104c0.06755,3.88935 0.62121,9.08483 -0.0361,12.90146c-0.68963,4.00423 -2.92642,7.28189 -3.42311,11.41237c-1.52018,11.27869 -10.33751,19.04554 -18.58528,26.15153c-2.16118,1.862 -5.01903,2.98665 -6.76306,5.2441c-0.87339,1.1305 -0.77647,2.79305 -1.54388,3.99801c-5.06531,7.95341 -13.60407,12.47632 -20.91346,17.8892c-3.17813,2.35353 -5.99721,5.59492 -9.41313,7.58564c3.90955,-0.21504 8.98425,-0.81154 12.16125,0.1905c4.10706,1.29539 3.44088,3.7645 5.18499,6.95118c1.08035,1.97392 2.98985,3.36381 4.47268,5.05637c3.94583,4.50392 9.13975,9.62226 10.79882,15.60226c0.34495,1.24335 0.01477,2.58348 -0.08358,3.87004c-0.5489,7.18001 -4.17469,13.92272 -6.69374,20.62286c-5.28555,8.61179 -11.6518,17.05588 -20.711,22.14035c-6.00238,3.36883 -13.54883,5.18743 -20.1242,7.16004c-4.28584,1.28575 -8.8466,3.18204 -13.25046,3.95024c-2.57011,0.44832 -5.21781,0.02385 -7.82673,0.02385c-5.33333,0 -10.66667,0 -16,0c-4.49302,0 -9.24068,0.39075 -13.71342,-0.01014c-8.75022,-0.78429 -17.26641,-4.05682 -26,-5c-2.63627,-0.2847 -5.30745,0.15414 -7.95478,0.00385c-3.88335,-0.22046 -7.87617,-1.18117 -11.71923,-1.76062c-10.41287,-1.57002 -20.74352,-3.5339 -31.0975,-5.4513c-9.24539,-1.71314 -18.63456,-3.00621 -27.5308,-6.26152c-7.03232,-2.57326 -13.74954,-6.46891 -20.46978,-9.74758c-3.91036,-1.90779 -8.25716,-3.44977 -11.97767,-5.69668c-7.49572,-4.52686 -13.44445,-11.50641 -19.5972,-17.61356c-3.18812,-2.89759 -7.80124,-6.01061 -10.32491,-9.48436c-0.63254,-0.87066 -0.49202,-2.12931 -1.03634,-3.05768c-1.21932,-2.07959 -3.5898,-3.25289 -5.07827,-5.14918c-0.62395,-0.79491 -4.10557,-6.69471 -4.7964,-7.66631c-1.34622,-1.89334 -3.31275,-3.28918 -4.6635,-5.17928c-0.11811,-0.16526 -4.5662,-8.18391 -4.63298,-8.34935c-0.50323,-1.24665 -0.43733,-2.67948 -0.96487,-3.91604c-0.50673,-1.18778 -1.67791,-2.03636 -2.0958,-3.25823c-0.82547,-2.41362 -0.09654,-5.10114 -0.09654,-7.65201c0,-6.17492 -0.01823,-12.35003 0.02415,-18.52481c0.22221,-4.41517 -0.13982,-9.53384 0.7236,-13.86306c0.5849,-2.93274 1.82903,-5.70794 2.41342,-8.64078c0.71142,-3.57035 1.19108,-7.96535 2.28883,-11.42715c2.22405,-7.01364 6.64601,-11.95319 10.61005,-17.92964c6.26011,-9.43816 13.04873,-18.50407 19.7767,-27.6317c5.50496,-6.6089 10.99286,-12.60309 17.27535,-18.47128c0.29795,-0.27831 6.65141,-6.22267 6.82868,-6.34657c1.22793,-0.85822 2.78065,-1.16789 4.02023,-2.00919c1.07894,-0.73227 1.73139,-2.01913 2.8649,-2.66371c3.18574,-1.81161 8.09961,-3.07148 11.52645,-4.5553c10.44438,-4.5224 20.72909,-8.97767 31.45637,-12.79877c7.04833,-2.51065 13.8742,-6.05205 20.96822,-8.3281c5.57753,-1.78949 11.35599,-2.80929 16.95432,-4.67541c5.45725,-1.81908 11.24138,-4.2017 17.03027,-5.82678z" fill="#ffffff" stroke-width="0.5"/><path d="M120.83753,129.20988c-0.33361,0.26535 -0.66783,0.52891 -1.00293,0.79012h0.9154c0.05295,-0.01627 0.1061,-0.03107 0.15944,-0.04449c0.16674,-0.23665 0.37797,-0.43969 0.62152,-0.59698l1.02913,-0.68609c-0.57163,0.18161 -1.14632,0.36004 -1.72257,0.53744zM113.9191,131.55779c-0.02377,-0.03327 -0.0465,-0.06637 -0.06822,-0.0993c-0.73911,0.26722 -1.47042,0.54747 -2.19052,0.84553c-0.46195,0.19121 -0.9005,0.44002 -1.33451,0.69853c1.76628,-0.00614 3.53259,-0.00993 5.29892,-0.01181c-0.05131,-0.14724 -0.08776,-0.30144 -0.10754,-0.46081c-0.52145,-0.03084 -1.09805,-0.272 -1.59814,-0.97214zM146.75215,119.65612c0.20628,-1.51368 0.3698,-3.0416 0.85492,-4.47745c0.30668,-0.90771 1.10327,-1.60094 1.39319,-2.51415c0.1176,-0.37043 -0.50081,0.6263 -0.8488,0.79937c-1.0872,0.54073 -2.26289,0.88148 -3.39795,1.31279c-2.3422,0.89001 -4.80452,1.47613 -7.08,2.52505c-0.409,0.18854 -0.81378,0.38531 -1.21467,0.58963c0.89987,-0.35244 1.8307,-0.63528 2.79531,-0.83605c2.12743,-0.4428 6.42935,-0.256 7.49799,2.6008zM133.09952,128.04784c3.55644,-1.37685 6.77857,-3.5406 9.40392,-6.67342c0.13192,-0.15742 -0.40919,-0.05209 -0.61448,-0.0457c-0.5488,0.01708 -1.12465,-0.06479 -1.64311,0.11595c-1.08972,0.3799 -2.06121,1.03892 -3.10167,1.53818c-0.1509,0.07241 -0.30382,0.14127 -0.45805,0.20781c0.17782,0.41769 0.2854,0.85028 0.30292,1.28103c0.07157,1.75978 -2.54318,2.4298 -3.88953,3.57614zM118.55507,125.27294c3.23336,-2.60204 6.36564,-5.33422 9.72754,-7.716c4.60784,-3.26449 9.66449,-5.05773 14.89084,-6.99373c1.71869,-0.63665 7.50462,-3.49836 9.3263,-0.72773c0.78967,1.20103 -1.05093,8.9273 -1.43546,10.68619c-1.4524,6.64353 -5.32256,12.23242 -11.73414,15.27742c-0.38562,0.18314 -5.91536,1.3775 -7.33249,1.68724c-8.5073,0.0245 -17.01531,0.03481 -25.52258,-0.00319l-0.25182,-0.1262l-0.01897,0.07588l-3.95434,-0.98858c-1.00197,-0.22738 -1.74996,-1.12346 -1.74996,-2.19424c0,-0.89821 0.52631,-1.67349 1.28737,-2.03426l3.98132,-1.99066c3.74405,-2.52203 8.55786,-3.55166 12.78638,-4.95214zM139.94521,130.16968c-1.57684,0.75305 -3.16081,1.45029 -4.80513,2.04453c-0.32015,0.12719 -0.64319,0.24821 -0.96879,0.36325c1.11672,-0.16229 2.21935,-0.36403 3.22837,-0.84324c0.76821,-0.36484 1.64731,-0.90765 2.54556,-1.56454zM128.16845,123.31716c0.06303,-0.00208 0.1257,-0.00637 0.18796,-0.01321c0.28465,-0.26685 0.57263,-0.5294 0.86411,-0.78688c-0.35232,0.26384 -0.70291,0.53074 -1.05207,0.80009z" fill="#ffffff" stroke-width="0.5"/><path d="M-130.92431,69.71595c-0.44495,-0.09236 -0.91515,-0.18915 -1.38799,-0.28655c-0.95048,0.28045 -1.9241,0.51246 -2.76443,1.02346c-0.67366,0.40965 -1.71976,1.04516 -1.52399,1.80891c0.22599,0.8816 1.52566,1.00252 2.3458,1.39707c1.11088,0.53443 2.21966,1.14995 3.43042,1.38177c0.26853,0.05141 0.54133,0.09533 0.81788,0.13194c-1.3548,-1.07356 -2.18077,-2.56022 -1.39682,-4.57457c0.12332,-0.31688 0.28584,-0.60947 0.47914,-0.88202zM-119.9618,78.50061c-3.81521,1.28312 -7.97425,1.75909 -11.7137,0.95879c-2.48295,-0.53139 -8.94651,-3.34049 -9.36678,-6.47473c-0.24388,-1.81879 0.91731,-3.60198 2.20706,-5.06173l-1.91483,-0.47871c-1.00197,-0.22738 -1.74996,-1.12346 -1.74996,-2.19424c0,-1.24264 1.00736,-2.25 2.25,-2.25h2.92924c0.30029,-0.02494 0.60232,-0.04085 0.90547,-0.05088c-0.05409,-0.2048 -0.08471,-0.43665 -0.08471,-0.69912c0,-2.25 2.25,-2.25 2.25,-2.25c2.9224,0 5.84893,-0.03723 8.77448,-0.04636c2.25053,-0.67112 4.74206,-0.24031 7.10269,-0.38785c0.04449,-0.00278 2.14463,-0.13412 4.31068,-0.26942c4.49771,-0.83614 9.07811,-1.29636 13.81215,-1.29636h3c1.24264,0 2.25,1.00736 2.25,2.25c0,1.01214 -0.6683,1.86819 -1.58771,2.15094l-2.95078,0.98359l-0.01674,-0.05021c-0.10965,0.04888 -0.22105,0.09453 -0.33437,0.13662c-0.71475,0.26546 -1.47437,0.28642 -2.2472,0.23473c0.77793,0.45143 1.39906,1.16415 1.7688,2.27646c1.37267,0.00631 2.74538,0.01786 4.11799,0.01786h4c1.24264,0 2.25,1.00736 2.25,2.25c0,0.62132 -0.25184,1.18382 -0.65901,1.59099l-3,3l-0.03663,-0.03663c-0.16556,0.15775 -0.33999,0.30699 -0.52481,0.44626c-1.34524,1.01376 -3.32723,0.54534 -4.96659,0.93251c-4.37873,1.03412 -8.61035,2.94822 -13.02678,3.80564c-2.80175,0.54394 -5.08515,0.5203 -7.74799,0.51183z" fill="#ffffff" stroke-width="0.5"/><path d="M84.28501,346.67677c0.33783,-0.0438 0.68547,-0.06926 1.04017,-0.07808l-0.65357,-0.37347c-0.69815,-0.38197 -1.17161,-1.1233 -1.17161,-1.97522c0,-1.24264 1.00736,-2.25 2.25,-2.25h3.89185c0.17564,-0.00814 0.35142,-0.00852 0.52735,0h0.08079v0.00454c0.1923,0.01231 0.3848,0.03543 0.5775,0.07084c2.58657,0.47517 4.06109,1.27479 4.72736,2.24111c1.65793,0.17414 3.27154,0.43775 4.88701,0.78464c0.26465,-0.02624 0.53388,-0.04978 0.80813,-0.07059v-0.03054h4.5c1.24264,0 2.25,1.00736 2.25,2.25c0,1.23921 -1.00181,2.24444 -2.23973,2.24998l-3.51536,0.01838c0.75463,0.59543 1.48351,1.33117 2.18975,2.2402c1.20724,1.55387 3.78777,2.75932 3.55438,4.71315c-0.57314,4.79805 -6.57203,4.00016 -9.23905,4.02829c-0.93646,0.00988 -1.873,0.01858 -2.80956,0.02368c-1.57694,0.46397 -4.32103,0.60667 -6.72424,0.06191c-0.76475,0.05731 -1.52225,0.07635 -2.21097,-0.21243c-1.01425,-0.42527 -1.88359,-1.11573 -2.71666,-1.85646c-1.01983,0.04596 -2.06452,0.11807 -2.85628,-0.44292c-0.75921,-0.53793 -0.61427,-1.74796 -0.93453,-2.64495c-0.26661,-0.24682 -0.49586,-0.51273 -0.65858,-0.81049c-0.51456,-0.22013 -1.23862,-0.06523 -1.8007,-0.2338c-1.17487,-0.35235 -2.31426,-0.81372 -3.47138,-1.22057l-0.29451,-0.43656l-0.11359,0.11359l-3,-3v0c-0.40717,-0.40717 -0.65901,-0.96967 -0.65901,-1.59099c0,-1.24264 1.00736,-2.25 2.25,-2.25h3v0.04866c0.17162,-0.0049 0.3439,-0.00149 0.51694,0.01153c0.80932,0.06092 1.514,0.4805 2.21185,0.93981h2.77121c0.99433,-0.24858 2.00957,-0.32731 3.03501,-0.32323zM98.52408,352.10815l0.06829,0.22066l0.17009,-0.08504l1.9083,3.8166c0.47564,0.01788 0.95132,0.03334 1.42722,0.03617c0.47153,0.0028 1.69877,0.3068 1.41296,-0.06825c-0.55834,-0.73268 -1.74057,-0.694 -2.44562,-1.28685c-0.64011,-0.53826 -0.79994,-1.54443 -1.48757,-2.02047c-0.3399,-0.23531 -0.69161,-0.43836 -1.05368,-0.61282z" fill="#ffffff" stroke-width="0.5"/></g></g></svg>