<svg version="1.1" xmlns="http://www.w3.org/2000/svg" xmlns:xlink="http://www.w3.org/1999/xlink" width="41.28562" height="33.22831" viewBox="0,0,41.28562,33.22831"><g transform="translate(-227.95527,-178.83023)"><g data-paper-data="{&quot;isPaintingLayer&quot;:true}" fill-rule="nonzero" stroke-linecap="butt" stroke-linejoin="miter" stroke-miterlimit="10" stroke-dasharray="" stroke-dashoffset="0" style="mix-blend-mode: normal"><path d="M235.026,198.35002c-1.9417,-0.0634 -3.89591,-0.36318 -5.77931,-0.59803c0,0 -0.90448,-0.11306 -0.79142,-1.01754c0.11306,-0.90448 1.01754,-0.79142 1.01754,-0.79142c2.66547,0.33397 5.47953,0.81873 8.1831,0.48354c4.24034,-0.52571 8.84407,-2.37009 12.63883,-4.19488c1.53605,-0.73864 2.76714,-2.17826 4.29504,-3.0169c0.89132,-0.74777 1.61957,-1.67183 2.46545,-2.47064c0.72136,-0.68123 1.76196,-1.04397 2.32081,-1.8638c1.07192,-1.57249 1.15823,-2.92924 2.65922,-4.25264c0.36464,-0.32149 0.62885,-0.88425 1.11123,-0.94447c2.81503,-0.3514 3.23819,2.1934 4.10273,4.12652c1.96323,4.38984 1.59163,9.70981 1.09913,14.45747c-2.03825,5.27642 -5.65916,15.27525 -13.23807,12.94495c-2.17989,-0.67025 -3.9242,-2.17108 -5.89069,-3.23401c-1.83362,-0.99111 -3.6469,-1.99645 -5.46256,-3.03486c-2.9918,-1.49908 -5.47492,-3.26775 -7.95378,-5.46996l-0.28821,-0.10907c0,0 -0.67619,-0.33809 -0.48904,-1.01428zM237.232,198.30315c2.30066,2.0213 4.59938,3.64299 7.38524,5.03285c1.82048,1.03943 3.63994,2.04557 5.47567,3.04194c3.44311,1.8688 6.98017,4.95071 10.79645,1.90076c1.37486,-1.09878 2.4047,-3.11677 3.13619,-4.65305c0.9171,-1.92611 1.76299,-3.80177 2.55043,-5.78525c0.41578,-4.35364 0.80567,-9.26905 -0.99096,-13.28636c-0.19385,-0.43346 -0.93342,-3.42694 -1.9519,-3.1139c-1.49755,0.4603 -2.04366,3.45772 -2.79248,4.52577c-0.5801,0.82739 -1.83635,1.44392 -2.53314,2.10312c-0.91425,0.86494 -1.72365,1.84292 -2.68878,2.65067c-1.65821,0.91037 -2.97471,2.38664 -4.65638,3.2084c-0.31509,0.15397 -0.70685,0.0423 -1.04194,0.14574c-1.62161,0.50059 -3.21754,1.60709 -4.78403,2.27099c-2.17193,0.92049 -4.9502,1.60404 -7.30081,1.89591c-0.20063,0.02491 -0.40185,0.0456 -0.60354,0.06241z" fill="#000000" stroke="#000000" stroke-width="1"/><path d="M237.78645,198.2502c2.35062,-0.29187 5.12835,-0.97879 7.30028,-1.89928c1.56649,-0.66389 3.17026,-1.80395 4.79187,-2.30454c0.33509,-0.10344 0.73958,-0.00501 1.05467,-0.15898c1.68168,-0.82176 3.05702,-2.29749 4.71523,-3.20786c0.96514,-0.80775 1.77688,-1.78388 2.69113,-2.64882c0.69679,-0.6592 1.88706,-1.20063 2.46715,-2.02802c0.74883,-1.06805 1.36054,-4.1409 2.85809,-4.60119c1.01848,-0.31304 1.76515,2.6876 1.959,3.12105c1.79663,4.01731 1.41724,8.97218 1.00146,13.32582c-0.78745,1.98347 -1.64136,3.87928 -2.55846,5.80539c-0.73149,1.53628 -1.77429,3.5673 -3.14915,4.66608c-3.81628,3.04996 -7.39068,-0.02394 -10.83379,-1.89274c-1.83573,-0.99637 -3.68067,-2.01547 -5.50116,-3.0549c-2.78587,-1.38986 -5.09925,-3.03848 -7.39991,-5.05977c0.2017,-0.01682 0.40295,-0.03733 0.60358,-0.06224z" data-paper-data="{&quot;noHover&quot;:false,&quot;origItem&quot;:[&quot;Path&quot;,{&quot;applyMatrix&quot;:true,&quot;segments&quot;:[[[237.232,198.30315],[0.2017,-0.01682],[2.30066,2.0213]],[[244.61724,203.336],[-2.78587,-1.38986],[1.82048,1.03943]],[[250.09291,206.37794],[-1.83573,-0.99637],[3.44311,1.8688]],[[260.88936,208.27869],[-3.81628,3.04996],[1.37486,-1.09878]],[[264.02555,203.62564],[-0.73149,1.53628],[0.9171,-1.92611]],[[266.57598,197.8404],[-0.78745,1.98347],[0.41578,-4.35364]],[[265.58502,184.55404],[1.79663,4.01731],[-0.19385,-0.43346]],[[263.63312,181.44014],[1.01848,-0.31304],[-1.49755,0.4603]],[[260.84064,185.96591],[0.74883,-1.06805],[-0.5801,0.82739]],[[258.3075,188.06903],[0.69679,-0.6592],[-0.91425,0.86494]],[[255.61872,190.7197],[0.96513,-0.80775],[-1.65821,0.91037]],[[250.96233,193.9281],[1.68168,-0.82176],[-0.31509,0.15397]],[[249.92039,194.07384],[0.33509,-0.10344],[-1.62161,0.50059]],[[245.13636,196.34483],[1.56649,-0.66389],[-2.17193,0.92049]],[[237.83555,198.24073],[2.35062,-0.29187],[-0.20063,0.02491]]],&quot;closed&quot;:true}]}" fill="#ffffff" stroke="none" stroke-width="0.5"/><path d="M254.56597,190.67091c-0.92091,-1.18403 0.26312,-2.10494 0.26312,-2.10494c2.95179,-2.28074 5.24172,-5.13244 7.6059,-7.98045c-0.05383,-0.3028 -0.00254,-0.66337 0.26693,-1.06758c0.83205,-1.24808 2.08013,-0.41603 2.08013,-0.41603l1.07031,0.90387c0.87965,1.63343 0.98609,2.73799 0.99708,4.32207c0.00056,0.01438 0.00056,0.02213 0.00056,0.02213v0.07503c0.00134,0.28999 0,0.59633 0,0.92497c0,0 0,0.08634 -0.02072,0.2176c-0.12734,2.82005 -0.8346,5.5714 -2.18262,7.9365c-0.8618,1.51203 -0.51012,3.44018 -3.29666,3.5459c-2.57398,0.09766 -4.0214,-4.47031 -5.58776,-5.77113c0,0 -0.0022,-0.00192 -0.00632,-0.0057c-0.37185,0.02047 -0.80401,-0.10604 -1.18996,-0.60226zM259.58344,190.6964c0.29296,0.39407 1.09242,3.09437 1.76656,3.3536c0.67551,0.25975 0.34343,-1.42621 0.70334,-2.0541c1.19768,-2.08943 1.81451,-4.67824 1.79666,-7.2459v-0.4c0,0 0,-0.11543 0.03202,-0.28226c0.00443,-0.18453 0.00568,-0.36125 -0.00032,-0.53391c-1.75522,2.10014 -3.5157,4.15442 -5.54113,5.99056c0.44961,0.35865 0.90256,0.71425 1.24287,1.17201z" fill="#000000" stroke="none" stroke-width="0.5"/></g></g></svg>