<svg version="1.1" xmlns="http://www.w3.org/2000/svg" xmlns:xlink="http://www.w3.org/1999/xlink" width="15.48174" height="23.23907" viewBox="0,0,15.48174,23.23907"><g transform="translate(-238.45703,-187.82028)"><g data-paper-data="{&quot;isPaintingLayer&quot;:true}" fill-rule="nonzero" stroke="none" stroke-width="0.5" stroke-linecap="butt" stroke-linejoin="miter" stroke-miterlimit="10" stroke-dasharray="" stroke-dashoffset="0" style="mix-blend-mode: normal"><path d="" fill="#000000"/><path d="M246.4474,204.57694c-0.75985,0.75985 -1.5197,0 -1.5197,0l-0.28656,-0.28656c-0.0637,-0.06966 -0.13144,-0.1367 -0.20136,-0.20233c1.31264,1.52637 2.77903,2.93096 4.44499,4.02261c0.24022,-0.2429 0.55393,-0.32133 0.55393,-0.32133l1.06379,-0.26241c1.91986,-0.75061 1.27228,-2.8077 1.27437,-4.5695c0.00292,-2.46427 -0.54741,-4.67027 -1.30383,-6.84918c-0.29579,0.18674 -0.63043,0.18674 -0.63043,0.18674c-2.38335,-0.14931 -5.78279,4.69034 -3.68178,6.47571l0.28656,0.28656c0,0 0.75985,0.75985 0,1.5197zM251.01742,209.60693c0.08876,0.22152 0.10276,0.50542 -0.07038,0.8517c-0.48057,0.96114 -1.44171,0.48057 -1.44171,0.48057c-3.36006,-1.70132 -6.04438,-4.44278 -8.30131,-7.45572c-0.72325,-0.96552 -2.15828,-2.7763 -2.42383,-3.95504c-0.86304,-3.83093 -0.11563,-9.1437 3.68635,-11.13429c1.54605,-0.80946 3.15361,-0.55665 4.81127,-0.45654c4.1475,4.29272 6.64134,8.83622 6.64824,15.01983c0.00331,2.96923 0.34457,5.22188 -2.73742,6.60621z" fill="#000000"/><path d="M246.41606,203.07459l-0.28922,-0.29265c-2.10101,-1.78537 1.34239,-6.67067 3.72574,-6.52136c0,0 0.33756,0.00098 0.63335,-0.18575c0.75642,2.17891 1.32874,4.4265 1.32582,6.89078c-0.00209,1.7618 0.62483,3.84359 -1.29503,4.5942l-1.07014,0.26448c0,0 -0.31729,0.07904 -0.55751,0.32195c-1.66597,-1.09165 -3.16828,-2.51498 -4.48091,-4.04135c0.06991,0.06563 0.19973,0.09698 0.26343,0.16664l0.28458,0.28369c0,0 0.7518,0.75216 1.51165,-0.00769c0.75985,-0.75985 -0.05176,-1.47293 -0.05176,-1.47293z" data-paper-data="{&quot;noHover&quot;:false,&quot;origItem&quot;:[&quot;Path&quot;,{&quot;applyMatrix&quot;:true,&quot;selected&quot;:true,&quot;segments&quot;:[[[238.6474,209.17694],[0.75985,-0.75985],[-0.75985,0.75985],7],[[237.1277,209.17694],[0,0],[0,0],7],[[236.84115,208.89039],[0,0],[-0.0637,-0.06966],7],[[236.63979,208.68806],[0.06991,0.06563],[1.31264,1.52637],7],[[241.08478,212.71067],[-1.66597,-1.09165],[0.24022,-0.2429],7],[[241.63872,212.38933],[0,0],[0,0],7],[[242.70251,212.12692],[0,0],[1.91986,-0.75061],7],[[243.97688,207.55743],[-0.00209,1.7618],[0.00292,-2.46427],7],[[242.67305,200.70825],[0.75642,2.17891],[-0.29579,0.18674],7],[[242.04262,200.89499],[0,0],[-2.38335,-0.14931],7],[[238.36084,207.37069],[-2.10101,-1.78537],[0,0],7],[[238.6474,207.65725],[0,0],[0,0],7]],&quot;closed&quot;:true}]}" fill="#770000"/></g></g></svg>