<svg version="1.1" xmlns="http://www.w3.org/2000/svg" xmlns:xlink="http://www.w3.org/1999/xlink" width="20.28175" height="30.44418" viewBox="0,0,20.28175,30.44418"><g transform="translate(-241.45704,-183.41516)"><g data-paper-data="{&quot;isPaintingLayer&quot;:true}" fill-rule="nonzero" stroke="none" stroke-width="0.5" stroke-linecap="butt" stroke-linejoin="miter" stroke-miterlimit="10" stroke-dasharray="" stroke-dashoffset="0" style="mix-blend-mode: normal"><path d="" fill="#000000"/><path d="M251.92475,205.36712c-0.99544,0.99544 -1.99087,0 -1.99087,0l-0.37541,-0.37541c-0.08345,-0.09126 -0.17219,-0.17908 -0.26379,-0.26506c1.71961,1.99961 3.64065,3.83968 5.82313,5.26979c0.3147,-0.31821 0.72567,-0.42096 0.72567,-0.42096l1.39361,-0.34377c2.5151,-0.98333 1.66674,-3.67821 1.66948,-5.98624c0.00383,-3.2283 -0.71713,-6.11825 -1.70807,-8.97272c-0.3875,0.24464 -0.82589,0.24464 -0.82589,0.24464c-3.12229,-0.1956 -7.5757,6.14455 -4.82329,8.48346l0.37541,0.37541c0,0 0.99544,0.99544 0,1.99087zM257.91168,211.95662c0.11628,0.2902 0.13462,0.66212 -0.0922,1.11576c-0.62957,1.25913 -1.8887,0.62957 -1.8887,0.62957c-4.40182,-2.2288 -7.9184,-5.82023 -10.87507,-9.76731c-0.94749,-1.26487 -2.82744,-3.63707 -3.17532,-5.18127c-1.13062,-5.01868 -0.15148,-11.97864 4.82928,-14.5864c2.02539,-1.06043 4.13136,-0.72924 6.30297,-0.59809c5.4334,5.62365 8.70044,11.57583 8.70948,19.67662c0.00434,3.88982 0.4514,6.84089 -3.58614,8.65442z" fill="#000000"/><path d="M251.8837,203.39898l-0.37889,-0.38338c-2.75241,-2.33891 1.75859,-8.73886 4.88088,-8.54326c0,0 0.44222,0.00128 0.82972,-0.24334c0.99094,2.85447 1.74071,5.7989 1.73688,9.02722c-0.00274,2.30803 0.81855,5.03527 -1.69654,6.0186l-1.40193,0.34648c0,0 -0.41566,0.10355 -0.73036,0.42177c-2.18249,-1.43011 -4.15058,-3.29473 -5.87018,-5.29434c0.09159,0.08598 0.26165,0.12705 0.3451,0.21831l0.37281,0.37165c0,0 0.98489,0.98536 1.98033,-0.01007c0.99544,-0.99544 -0.06781,-1.9296 -0.06781,-1.9296z" data-paper-data="{&quot;noHover&quot;:false,&quot;origItem&quot;:[&quot;Path&quot;,{&quot;applyMatrix&quot;:true,&quot;selected&quot;:true,&quot;segments&quot;:[[[238.6474,209.17694],[0.75985,-0.75985],[-0.75985,0.75985],7],[[237.1277,209.17694],[0,0],[0,0],7],[[236.84115,208.89039],[0,0],[-0.0637,-0.06966],7],[[236.63979,208.68806],[0.06991,0.06563],[1.31264,1.52637],7],[[241.08478,212.71067],[-1.66597,-1.09165],[0.24022,-0.2429],7],[[241.63872,212.38933],[0,0],[0,0],7],[[242.70251,212.12692],[0,0],[1.91986,-0.75061],7],[[243.97688,207.55743],[-0.00209,1.7618],[0.00292,-2.46427],7],[[242.67305,200.70825],[0.75642,2.17891],[-0.29579,0.18674],7],[[242.04262,200.89499],[0,0],[-2.38335,-0.14931],7],[[238.36084,207.37069],[-2.10101,-1.78537],[0,0],7],[[238.6474,207.65725],[0,0],[0,0],7]],&quot;closed&quot;:true}]}" fill="#770000"/></g></g></svg>