<svg version="1.1" xmlns="http://www.w3.org/2000/svg" xmlns:xlink="http://www.w3.org/1999/xlink" width="41.29541" height="27.14768" viewBox="0,0,41.29541,27.14768"><g transform="translate(-227.94549,-178.83022)"><g data-paper-data="{&quot;isPaintingLayer&quot;:true}" fill-rule="nonzero" stroke-linecap="butt" stroke-linejoin="miter" stroke-miterlimit="10" stroke-dasharray="" stroke-dashoffset="0" style="mix-blend-mode: normal"><path d="M229.24669,197.75199c0,0 -0.90448,-0.11306 -0.79142,-1.01754c0.11306,-0.90448 1.01754,-0.79142 1.01754,-0.79142c2.66547,0.33397 5.47953,0.81873 8.1831,0.48354c4.24034,-0.52571 8.84407,-2.37009 12.63883,-4.19488c1.53605,-0.73864 2.76714,-2.17826 4.29504,-3.0169c0.89132,-0.74777 1.61957,-1.67183 2.46545,-2.47064c0.72136,-0.68123 1.76196,-1.04397 2.32081,-1.8638c1.07192,-1.57249 1.15823,-2.92924 2.65922,-4.25264c0.36464,-0.32149 0.62885,-0.88425 1.11123,-0.94447c2.81503,-0.3514 3.23819,2.1934 4.10273,4.12652c1.2856,2.87463 1.56999,6.14811 1.47486,9.39855c-0.24221,0.09555 -0.38895,0.18359 -0.38895,0.18359l0.02596,0.23575c-0.50054,0.07568 -0.99372,0.16631 -1.4803,0.27051c0.15146,-3.21979 -0.02652,-6.50606 -1.29577,-9.34411c-0.19385,-0.43346 -0.93342,-3.42694 -1.9519,-3.1139c-1.49755,0.4603 -2.04366,3.45772 -2.79248,4.52577c-0.5801,0.82739 -1.83635,1.44392 -2.53314,2.10312c-0.91425,0.86494 -1.72365,1.84292 -2.68878,2.65067c-1.65821,0.91037 -2.97471,2.38664 -4.65638,3.2084c-0.31509,0.15397 -0.70685,0.0423 -1.04194,0.14574c-1.62161,0.50059 -3.21754,1.60709 -4.78403,2.27099c-2.17193,0.92049 -4.9502,1.60404 -7.30081,1.89591c-0.20063,0.02491 -0.40185,0.0456 -0.60354,0.06241h-0.00002c1.74428,1.53248 3.48745,2.83526 5.44264,3.98146c-0.49893,0.42037 -0.95678,0.87275 -1.26987,1.36406c-1.99828,-1.20493 -3.80102,-2.57577 -5.60152,-4.17532l-0.28821,-0.10907c0,0 -0.67618,-0.33808 -0.48905,-1.01426c-1.9417,-0.0634 -3.89591,-0.36318 -5.7793,-0.59803z" fill="#000000" stroke="#000000" stroke-width="1"/><path d="M260.11667,195.84596c0.23951,-0.18761 0.47813,-0.37611 0.7161,-0.56458c-1.12458,-0.21688 -2.47218,0.00923 -3.88712,0.46017c0.68512,-0.05681 1.35582,-0.08747 2.00434,-0.09155h0.4c0,0 0.3862,0 0.76667,0.19596zM265.62186,195.3706c-6.18563,4.34388 -11.4618,9.87194 -19.82272,7.77459l-0.14951,-0.13452l-0.02809,0.05057l-1.77381,-0.98545c-0.17295,-0.0918 -0.32579,-0.21645 -0.45021,-0.36564c-0.25577,0.19468 -0.51347,0.39646 -0.76038,0.60618c-1.95891,-1.15356 -3.71024,-2.47165 -5.45426,-4.00389c0.2017,-0.01682 0.40295,-0.03733 0.60358,-0.06224h0.00001c2.35062,-0.29187 5.12835,-0.97879 7.30028,-1.89928c1.56649,-0.66389 3.17026,-1.80395 4.79187,-2.30454c0.33509,-0.10344 0.73958,-0.00501 1.05467,-0.15898c1.68168,-0.82176 3.05702,-2.29749 4.71523,-3.20786c0.96514,-0.80775 1.77688,-1.78388 2.69113,-2.64882c0.69679,-0.6592 1.88706,-1.20063 2.46715,-2.02802c0.74883,-1.06805 1.36054,-4.1409 2.85809,-4.60119c1.01848,-0.31304 1.76515,2.6876 1.959,3.12105c1.26794,2.83514 1.45209,6.13725 1.30453,9.36544c-0.21803,0.04625 -0.43473,0.09523 -0.65018,0.14681c0.0818,0.80852 -0.65638,1.33579 -0.65638,1.33579zM249.70785,200.68448c2.10471,-0.03317 4.02246,-0.70082 5.82968,-1.68901c-1.86324,0.37258 -3.65947,0.99194 -5.5348,1.58457c-0.09475,0.02994 -0.19331,0.06529 -0.29488,0.10443z" fill="#ffffff" stroke="none" stroke-width="0.5"/><path d="M254.56597,190.67091c-0.92091,-1.18403 0.26312,-2.10494 0.26312,-2.10494c2.95179,-2.28074 5.24172,-5.13244 7.6059,-7.98045c-0.05383,-0.3028 -0.00254,-0.66337 0.26693,-1.06758c0.83205,-1.24808 2.08013,-0.41603 2.08013,-0.41603l1.07031,0.90387c0.87965,1.63343 0.98609,2.73799 0.99708,4.32207c0.00056,0.01438 0.00056,0.02213 0.00056,0.02213v0.07503c0.00134,0.28999 0,0.59633 0,0.92497c0,0 0,0.08634 -0.02072,0.2176c-0.12734,2.82005 -0.8346,5.5714 -2.18262,7.9365c-0.20585,0.36116 -0.34247,0.74607 -0.46915,1.1242c-0.84062,0.27289 -1.66447,0.58173 -2.47614,0.91838c-0.10141,-0.03736 -0.20097,-0.07369 -0.29819,-0.10906c-0.80012,-0.29116 -1.74797,-0.2983 -2.77296,-0.12035c-1.08047,-1.40783 -1.95398,-3.27935 -2.86799,-4.0384c0,0 -0.0022,-0.00192 -0.00632,-0.0057c-0.37185,0.02047 -0.80401,-0.10604 -1.18996,-0.60226zM259.58344,190.6964c0.29296,0.39407 1.09242,3.09437 1.76656,3.3536c0.67551,0.25975 0.34343,-1.42621 0.70334,-2.0541c1.19768,-2.08943 1.81451,-4.67824 1.79666,-7.2459v-0.4c0,0 0,-0.11543 0.03202,-0.28226c0.00443,-0.18453 0.00568,-0.36125 -0.00032,-0.53391c-1.75522,2.10014 -3.5157,4.15442 -5.54113,5.99056c0.44961,0.35865 0.90256,0.71425 1.24287,1.17201z" fill="#000000" stroke="none" stroke-width="0.5"/><path d="M240.46376,202.77826c0.77175,-1.28624 2.05799,-0.5145 2.05799,-0.5145l0.4143,0.39783c7.11805,0.90356 14.3787,0.18667 19.55329,-4.97225c1.16877,-1.16523 3.20803,-2.65498 2.77224,-4.35329c0,0 -0.18605,-1.48842 1.30236,-1.67446c1.48841,-0.18605 1.67446,1.30237 1.67446,1.30237c0.00824,0.12346 0.01348,0.24452 0.0158,0.36334c0.0357,0.01467 0.07185,0.03093 0.10844,0.04891c-0.01806,0.01003 -0.02752,0.01569 -0.02752,0.01569l0.02596,0.23575c-0.03591,0.00543 -0.0718,0.01093 -0.10764,0.01652c-0.06711,2.69323 -1.68799,4.20639 -3.64279,6.1665c-5.84416,5.86001 -14.00923,6.81857 -22.04671,5.82775l-1.5857,-0.80218c0,0 -1.28624,-0.77175 -0.51449,-2.05799z" fill="#000000" stroke="none" stroke-width="0.5"/></g></g></svg>