<svg version="1.1" xmlns="http://www.w3.org/2000/svg" xmlns:xlink="http://www.w3.org/1999/xlink" width="39.98367" height="21.41978" viewBox="0,0,39.98367,21.41978"><g transform="translate(-227.23017,-178.83022)"><g data-paper-data="{&quot;isPaintingLayer&quot;:true}" fill-rule="nonzero" stroke-linecap="butt" stroke-linejoin="miter" stroke-miterlimit="10" stroke-dasharray="" stroke-dashoffset="0" style="mix-blend-mode: normal"><path d="M229.24669,197.75199c0,0 -0.90448,-0.11306 -0.79142,-1.01754c0.11306,-0.90448 1.01754,-0.79142 1.01754,-0.79142c2.66547,0.33397 5.47953,0.81873 8.1831,0.48354c4.24034,-0.52571 8.84407,-2.37009 12.63883,-4.19488c1.53605,-0.73864 2.76714,-2.17826 4.29504,-3.0169c0.89132,-0.74777 1.61957,-1.67183 2.46545,-2.47064c0.72136,-0.68123 1.76196,-1.04397 2.32081,-1.8638c1.07192,-1.57249 1.15823,-2.92924 2.65922,-4.25264c0.36464,-0.32149 0.62885,-0.88425 1.11123,-0.94447c2.04751,-0.25559 2.82963,1.02102 3.43659,2.48001c-0.30781,0.17667 -0.5782,0.41117 -0.79634,0.68868l-0.54877,0.68596c-0.35088,-0.99965 -0.91363,-2.31019 -1.60485,-2.09774c-1.49755,0.4603 -2.04366,3.45772 -2.79248,4.52577c-0.5801,0.82739 -1.83635,1.44392 -2.53314,2.10312c-0.88862,0.84069 -1.67819,1.78818 -2.60797,2.58234c-0.87721,0.42116 -1.7388,0.88972 -2.56073,1.47005c-0.7408,0.52304 -1.41148,1.14459 -2.08459,1.76096c-0.0305,0.01545 -0.06113,0.0307 -0.09187,0.04572c-0.31509,0.15397 -0.70685,0.0423 -1.04194,0.14574c-1.62161,0.50059 -3.21754,1.60709 -4.78403,2.27099c-2.17193,0.92049 -4.9502,1.60404 -7.30081,1.89591c-0.20063,0.02491 -0.40185,0.0456 -0.60354,0.06241h-0.00002c0.09475,0.08324 0.18949,0.16581 0.28427,0.24771c-0.82385,0.099 -1.64513,0.20578 -2.45784,0.33844c-0.06456,-0.14607 -0.09151,-0.32583 -0.03244,-0.53928c-1.9417,-0.0634 -3.89591,-0.36318 -5.7793,-0.59803z" fill="#000000" stroke="#000000" stroke-width="1"/><path d="M258.33965,188.03072c0.69679,-0.6592 1.88706,-1.20063 2.46715,-2.02802c0.74883,-1.06805 1.36054,-4.1409 2.85809,-4.60119c0.68911,-0.21181 1.25379,1.0934 1.60699,2.09399l-1.06927,1.33659c-1.30821,0.83846 -1.90077,2.56729 -3.2451,3.34652c-1.70008,0.98545 -3.53195,1.64064 -5.29886,2.49243c0.96069,-0.80609 1.76994,-1.77841 2.68099,-2.64032z" fill="#ffffff" stroke="none" stroke-width="0.5"/><path d="M237.18288,198.31244c0.2017,-0.01682 0.40295,-0.03733 0.60358,-0.06224h0.00001c2.35062,-0.29187 5.12835,-0.97879 7.30028,-1.89928c1.56649,-0.66389 3.17026,-1.80395 4.79187,-2.30454c0.33509,-0.10344 0.73958,-0.00501 1.05467,-0.15898c0.08832,-0.04316 0.17579,-0.08811 0.2625,-0.1347c-0.88109,0.80708 -1.75762,1.61776 -2.7923,2.19951c-3.31644,1.86469 -7.15661,2.14874 -10.93982,2.60499c-0.09364,-0.08098 -0.18722,-0.16256 -0.28078,-0.24476z" fill="#ffffff" stroke="none" stroke-width="0.5"/><path d="M227.32698,197.87566c0.47434,-1.42302 1.89737,-0.94868 1.89737,-0.94868l0.72566,0.32302c1.96552,0.01226 2.75535,-0.60407 4.57517,-1.13858c1.71009,-0.50228 3.69403,-0.49815 5.4,-1c3.68977,-1.08542 6.74232,-3.38187 10.55717,-4.00697c1.09892,-0.78297 2.75038,-1.66763 3.19907,-1.97738c1.01291,-0.69924 1.99382,-1.37742 2.93471,-2.07571c2.13444,-1.96942 3.95354,-4.21878 5.81887,-6.46585c-0.05383,-0.3028 -0.00254,-0.66337 0.26693,-1.06758c0.83205,-1.24808 2.08013,-0.41603 2.08013,-0.41603l1.07031,0.90387c0.42554,0.79019 0.67013,1.45661 0.8105,2.11342c-0.15158,0.08043 -0.29473,0.17462 -0.4278,0.28091c-0.27705,3.51372 -0.80262,6.87188 -1.85771,10.21107c-0.37299,1.18045 -0.70209,3.58612 -1.96099,4.36334c-2.69613,1.66454 -6.12889,0.03534 -8.65724,-1.04579l-0.49925,-0.07656c-0.75885,0.17018 -1.37053,-0.4415 -1.37053,-0.4415l-1.2,-1.2c0,0 -0.03559,-0.03559 -0.08721,-0.10025c-2.3745,0.39651 -4.25242,1.72487 -6.49288,2.63144c-2.8567,1.15593 -5.82136,1.38865 -8.73442,2.24673c-1.96847,0.57984 -3.26535,1.25045 -5.42483,1.26142l-1.67434,-0.47698c0,0 -1.42302,-0.47434 -0.94868,-1.89737zM256.62967,190.56498c-1.15188,0.82291 -1.63688,1.62688 -2.98472,2.16534c0.04196,0.04694 0.09234,0.10804 0.14377,0.18138l1.15215,0.25959c1.34751,0.57892 4.22895,2.18921 5.74276,1.35421c0.86341,-0.47625 0.54226,-1.89633 0.83901,-2.83666c0.6438,-2.04005 1.07175,-4.0844 1.36303,-6.1734c-0.00024,-0.00123 -0.00047,-0.00246 -0.00071,-0.00369c-1.12808,1.18925 -2.32777,2.17924 -3.6387,3.16128c-0.26015,0.25316 -0.52432,0.5029 -0.79311,0.74882c-0.19311,0.08567 -0.38667,0.17042 -0.58042,0.25492c-0.40354,0.28973 -0.81758,0.58425 -1.24308,0.88823z" fill="#000000" stroke="none" stroke-width="0.5"/><path d="M257.84028,189.63874c0.19375,-0.0845 0.4325,-0.17958 0.62561,-0.26526c0.26879,-0.24592 0.54808,-0.48884 0.80824,-0.742c1.31093,-0.98204 2.51811,-1.96588 3.6462,-3.15513c0.00023,0.00123 0.00049,0.00248 0.00072,0.00371c-0.29129,2.08901 -0.70945,4.19022 -1.35325,6.23027c-0.29675,0.94033 0.00339,2.3827 -0.86002,2.85895c-1.51381,0.835 -4.45631,-0.78537 -5.80382,-1.36429l-1.15772,-0.26695c-0.05143,-0.07334 -0.10291,-0.13631 -0.14487,-0.18325c1.34784,-0.53846 1.82807,-1.35423 2.97995,-2.17714c0.4255,-0.30398 0.85543,-0.64919 1.25897,-0.93892z" data-paper-data="{&quot;noHover&quot;:false,&quot;origItem&quot;:[&quot;Path&quot;,{&quot;applyMatrix&quot;:true,&quot;segments&quot;:[[[513.25935,381.12996],[0.851,-0.60796],[-2.30376,1.64582]],[[507.28991,385.46063],[2.69568,-1.07692],[0.08392,0.09388]],[[507.57745,385.82339],[-0.10286,-0.14668],[0,0]],[[509.88176,386.34256],[0,0],[2.69502,1.15784]],[[521.36728,389.05098],[-3.02762,1.67],[1.72682,-0.9525]],[[523.04531,383.37765],[-0.5935,1.88067],[1.2876,-4.08011]],[[525.77138,371.03085],[-0.58257,4.17801],[-0.00048,-0.00246]],[[525.76996,371.02346],[0.00047,0.00246],[-2.25617,2.37849]],[[518.49256,377.34603],[2.62186,-1.96408],[-0.52031,0.50631]],[[516.90634,378.84367],[0.53758,-0.49184],[-0.38622,0.17135]],[[515.74551,379.35351],[0.3875,-0.16899],[-0.80708,0.57946]]],&quot;closed&quot;:true}]}" fill="#ffffff" stroke="none" stroke-width="0.5"/><path d="" fill="#000000" stroke="none" stroke-width="0.5"/></g></g></svg>