<svg version="1.1" xmlns="http://www.w3.org/2000/svg" xmlns:xlink="http://www.w3.org/1999/xlink" width="41.32188" height="29.51318" viewBox="0,0,41.32188,29.51318"><g transform="translate(-227.94549,-178.83023)"><g data-paper-data="{&quot;isPaintingLayer&quot;:true}" fill-rule="nonzero" stroke-linecap="butt" stroke-linejoin="miter" stroke-miterlimit="10" stroke-dasharray="" stroke-dashoffset="0" style="mix-blend-mode: normal"><path d="M229.24669,197.75199c0,0 -0.90448,-0.11306 -0.79142,-1.01754c0.11306,-0.90448 1.01754,-0.79142 1.01754,-0.79142c2.66547,0.33397 5.47953,0.81873 8.1831,0.48354c4.24034,-0.52571 8.84407,-2.37009 12.63883,-4.19488c1.53605,-0.73864 2.76714,-2.17826 4.29504,-3.0169c0.89132,-0.74777 1.61957,-1.67183 2.46545,-2.47064c0.72136,-0.68123 1.76196,-1.04397 2.32081,-1.8638c1.07192,-1.57249 1.15823,-2.92924 2.65922,-4.25264c0.36464,-0.32149 0.62885,-0.88425 1.11123,-0.94447c2.81503,-0.3514 3.23819,2.1934 4.10273,4.12652c1.48951,3.33058 1.63502,7.19657 1.40343,10.9418c-0.28274,-0.09821 -0.58646,-0.15157 -0.90265,-0.15157c-0.32154,0 -0.63019,0.05518 -0.91699,0.1566c0.22229,-3.48923 0.13431,-7.1117 -1.24799,-10.20255c-0.19385,-0.43346 -0.93342,-3.42694 -1.9519,-3.1139c-1.49755,0.4603 -2.04366,3.45772 -2.79248,4.52577c-0.5801,0.82739 -1.83635,1.44392 -2.53314,2.10312c-0.91425,0.86494 -1.72365,1.84292 -2.68878,2.65067c-1.65821,0.91037 -2.97471,2.38664 -4.65638,3.2084c-0.31509,0.15397 -0.70685,0.0423 -1.04194,0.14574c-1.62161,0.50059 -3.21754,1.60709 -4.78403,2.27099c-2.17193,0.92049 -4.9502,1.60404 -7.30081,1.89591c-0.20063,0.02491 -0.40185,0.0456 -0.60354,0.06241l-0.00002,0c2.30066,2.0213 4.59938,3.64299 7.38524,5.03285c1.36227,0.77781 2.72396,1.53697 4.09233,2.28735c-0.76541,0.23863 -1.59593,0.48881 -2.3809,0.77015c-0.85827,-0.47735 -1.71469,-0.96009 -2.57163,-1.45019c-2.9918,-1.49908 -5.47492,-3.26775 -7.95378,-5.46996l-0.28821,-0.10907c0,0 -0.67618,-0.33808 -0.48905,-1.01426c-1.9417,-0.0634 -3.89591,-0.36318 -5.7793,-0.59803z" fill="#000000" stroke="#000000" stroke-width="1"/><path d="M261.31028,199.39767c1.15233,0.96028 0.19206,2.11261 0.19206,2.11261c-2.88939,3.41842 -5.55819,3.53972 -9.75233,3.53972h-1.2c0,0 -0.04943,0 -0.13034,-0.00897c-0.4986,0.20002 -1.11302,0.39654 -1.7732,0.60198c-1.35886,-0.74518 -2.71796,-1.50243 -4.06369,-2.2708c-2.78587,-1.38986 -5.09925,-3.03848 -7.39991,-5.05977c0.2017,-0.01682 0.40295,-0.03733 0.60358,-0.06224l0.00001,0c2.35062,-0.29187 5.12835,-0.97879 7.30028,-1.89928c1.56649,-0.66389 3.17026,-1.80395 4.79187,-2.30454c0.33509,-0.10344 0.73958,-0.00501 1.05467,-0.15898c1.68168,-0.82176 3.05702,-2.29749 4.71523,-3.20786c0.96514,-0.80775 1.77688,-1.78388 2.69113,-2.64882c0.69679,-0.6592 1.88706,-1.20063 2.46715,-2.02802c0.74883,-1.06805 1.36054,-4.1409 2.85809,-4.60119c1.01848,-0.31304 1.76515,2.6876 1.959,3.12105c1.37973,3.0851 1.47614,6.72314 1.25829,10.21718c-0.37111,0.12332 -0.7071,0.32358 -0.98908,0.58185l-2.07035,1.88214c-0.97043,0.63113 -1.94642,1.27963 -2.93105,1.92783c0.1356,0.06034 0.27562,0.14696 0.41859,0.26611z" fill="#ffffff" stroke="none" stroke-width="0.5"/><path d="M254.56597,190.67091c-0.92091,-1.18403 0.26312,-2.10494 0.26312,-2.10494c2.95179,-2.28074 5.24172,-5.13244 7.6059,-7.98045c-0.05383,-0.3028 -0.00254,-0.66337 0.26693,-1.06758c0.83205,-1.24808 2.08013,-0.41603 2.08013,-0.41603l1.07031,0.90387c0.87965,1.63343 0.98609,2.73799 0.99708,4.32207c0.00056,0.01438 0.00056,0.02213 0.00056,0.02213v0.07503c0.00134,0.28999 0,0.59633 0,0.92497c0,0 0,0.08634 -0.02072,0.2176c-0.12734,2.82005 -0.8346,5.5714 -2.18262,7.9365c-0.8618,1.51203 -0.51012,3.44018 -3.29666,3.5459c-2.57398,0.09766 -4.0214,-4.47031 -5.58776,-5.77113c0,0 -0.0022,-0.00192 -0.00632,-0.0057c-0.37185,0.02047 -0.80401,-0.10604 -1.18996,-0.60226zM259.58344,190.6964c0.29296,0.39407 1.09242,3.09437 1.76656,3.3536c0.67551,0.25975 0.34343,-1.42621 0.70334,-2.0541c1.19768,-2.08943 1.81451,-4.67824 1.79666,-7.2459v-0.4c0,0 0,-0.11543 0.03202,-0.28226c0.00443,-0.18453 0.00568,-0.36125 -0.00032,-0.53391c-1.75522,2.10014 -3.5157,4.15442 -5.54113,5.99056c0.44961,0.35865 0.90256,0.71425 1.24287,1.17201z" fill="#000000" stroke="none" stroke-width="0.5"/><path d="M245.25,206.35c0,-1.5 1.5,-1.5 1.5,-1.5l0.34926,0.00744c3.37323,0.3406 8.06807,0.94802 11.32476,-0.1122c1.40816,-0.45843 2.30599,-2.37907 3.1156,-3.48123c1.72218,-2.34449 3.40324,-4.84211 4.93838,-7.30901c0,0 0.795,-1.272 2.067,-0.477c1.272,0.795 0.477,2.067 0.477,2.067c-2.17715,3.46994 -5.58597,10.54681 -9.54601,12.00976c-3.5914,1.32676 -8.91716,0.66022 -12.67524,0.2878l-0.05074,0.00744c0,0 -1.5,0 -1.5,-1.5z" fill="#000000" stroke="none" stroke-width="0.5"/></g></g></svg>