<svg version="1.1" xmlns="http://www.w3.org/2000/svg" xmlns:xlink="http://www.w3.org/1999/xlink" width="17.88175" height="26.84163" viewBox="0,0,17.88175,26.84163"><g transform="translate(-241.45704,-182.81771)"><g data-paper-data="{&quot;isPaintingLayer&quot;:true}" fill-rule="nonzero" stroke="none" stroke-width="0.5" stroke-linecap="butt" stroke-linejoin="miter" stroke-miterlimit="10" stroke-dasharray="" stroke-dashoffset="0" style="mix-blend-mode: normal"><path d="" fill="#000000"/><path d="M250.68608,202.17203c-0.87765,0.87765 -1.75528,0 -1.75528,0l-0.33099,-0.33099c-0.07358,-0.08046 -0.15181,-0.15789 -0.23257,-0.23369c1.51612,1.76299 3.20984,3.38532 5.13406,4.6462c0.27746,-0.28056 0.6398,-0.37115 0.6398,-0.37115l1.2287,-0.30309c2.21748,-0.86697 1.46951,-3.24296 1.47193,-5.27787c0.00338,-2.84629 -0.63227,-5.39426 -1.50595,-7.91095c-0.34165,0.21569 -0.72816,0.21569 -0.72816,0.21569c-2.75282,-0.17245 -6.67924,5.41745 -4.25254,7.47959l0.33099,0.33099c0,0 0.87765,0.87765 0,1.75528zM255.96455,207.98178c0.10252,0.25586 0.11869,0.58377 -0.08129,0.98373c-0.55507,1.11013 -1.6652,0.55507 -1.6652,0.55507c-3.88094,-1.96506 -6.98139,-5.1315 -9.58819,-8.61151c-0.83537,-1.11519 -2.49286,-3.20668 -2.79957,-4.56815c-0.99683,-4.4248 -0.13355,-10.56117 4.25782,-12.86035c1.78572,-0.93495 3.64248,-0.64295 5.55712,-0.52732c4.79045,4.95819 7.67089,10.20603 7.67886,17.34823c0.00383,3.42953 0.39798,6.03139 -3.16178,7.63032z" fill="#000000"/><path d="M250.64988,200.43679l-0.33405,-0.33801c-2.42671,-2.06214 1.55049,-7.70476 4.30331,-7.53231c0,0 0.38989,0.00113 0.73154,-0.21454c0.87368,2.51669 1.53473,5.1127 1.53135,7.959c-0.00242,2.03491 0.72169,4.43943 -1.49578,5.3064l-1.23604,0.30548c0,0 -0.36647,0.0913 -0.64393,0.37186c-1.92423,-1.26088 -3.65943,-2.90485 -5.17554,-4.66784c0.08075,0.07581 0.23069,0.11202 0.30426,0.19248l0.32869,0.32767c0,0 0.86835,0.86876 1.74599,-0.00888c0.87765,-0.87765 -0.05979,-1.70126 -0.05979,-1.70126z" data-paper-data="{&quot;noHover&quot;:false,&quot;origItem&quot;:[&quot;Path&quot;,{&quot;applyMatrix&quot;:true,&quot;selected&quot;:true,&quot;segments&quot;:[[[238.6474,209.17694],[0.75985,-0.75985],[-0.75985,0.75985],7],[[237.1277,209.17694],[0,0],[0,0],7],[[236.84115,208.89039],[0,0],[-0.0637,-0.06966],7],[[236.63979,208.68806],[0.06991,0.06563],[1.31264,1.52637],7],[[241.08478,212.71067],[-1.66597,-1.09165],[0.24022,-0.2429],7],[[241.63872,212.38933],[0,0],[0,0],7],[[242.70251,212.12692],[0,0],[1.91986,-0.75061],7],[[243.97688,207.55743],[-0.00209,1.7618],[0.00292,-2.46427],7],[[242.67305,200.70825],[0.75642,2.17891],[-0.29579,0.18674],7],[[242.04262,200.89499],[0,0],[-2.38335,-0.14931],7],[[238.36084,207.37069],[-2.10101,-1.78537],[0,0],7],[[238.6474,207.65725],[0,0],[0,0],7]],&quot;closed&quot;:true}]}" fill="#770000"/></g></g></svg>