<svg version="1.1" xmlns="http://www.w3.org/2000/svg" xmlns:xlink="http://www.w3.org/1999/xlink" width="32.2673" height="17.2198" viewBox="0,0,32.2673,17.2198"><g transform="translate(-235.63018,-184.43022)"><g data-paper-data="{&quot;isPaintingLayer&quot;:true}" fill-rule="nonzero" stroke-linecap="butt" stroke-linejoin="miter" stroke-miterlimit="10" stroke-dasharray="" stroke-dashoffset="0" style="mix-blend-mode: normal"><path d="M237.25129,199.6418c0,0 -0.72713,-0.09089 -0.63624,-0.81802c0.09089,-0.72713 0.81802,-0.63624 0.81802,-0.63624c2.14282,0.26849 4.4051,0.65819 6.57855,0.38873c3.40889,-0.42263 7.10992,-1.90536 10.1606,-3.37235c1.23486,-0.59381 2.22456,-1.75115 3.45287,-2.42535c0.71655,-0.60115 1.302,-1.34402 1.98202,-1.9862c0.57992,-0.54765 1.41647,-0.83927 1.86574,-1.49835c0.86174,-1.26416 0.93112,-2.35487 2.1378,-3.41878c0.29314,-0.25845 0.50554,-0.71087 0.89334,-0.75928c1.64603,-0.20547 2.2748,0.82082 2.76274,1.99373c-0.24745,0.14203 -0.46483,0.33055 -0.64019,0.55364l-0.44117,0.55146c-0.28208,-0.80364 -0.73449,-1.85721 -1.29017,-1.68641c-1.20391,0.37004 -1.64294,2.77973 -2.24493,3.63836c-0.46635,0.66516 -1.47628,1.1608 -2.03644,1.69074c-0.71438,0.67585 -1.34913,1.43755 -2.0966,2.07599c-0.70521,0.33858 -1.39786,0.71526 -2.05862,1.1818c-0.59554,0.42048 -1.13472,0.92016 -1.67584,1.41567c-0.02452,0.01242 -0.04914,0.02468 -0.07386,0.03676c-0.25331,0.12378 -0.56825,0.03401 -0.83764,0.11716c-1.30364,0.40243 -2.58664,1.29197 -3.84598,1.82569c-1.74606,0.74 -3.97956,1.28952 -5.86926,1.52416c-0.16129,0.02003 -0.32306,0.03666 -0.4852,0.05017h-0.00002c0.07617,0.06692 0.15233,0.1333 0.22853,0.19914c-0.66231,0.07959 -1.32255,0.16543 -1.97591,0.27208c-0.0519,-0.11743 -0.07357,-0.26194 -0.02608,-0.43354c-1.56097,-0.05097 -3.132,-0.29197 -4.64609,-0.48077z" fill="#000000" stroke="#000000" stroke-width="1"/><path d="M260.6397,191.82668c0.56016,-0.52994 1.51704,-0.96521 1.98339,-1.63037c0.602,-0.85863 1.09376,-3.32895 2.29767,-3.69899c0.55399,-0.17028 1.00795,0.87901 1.29189,1.6834l-0.85961,1.07451c-1.0517,0.67405 -1.52807,2.06389 -2.6088,2.69033c-1.36673,0.79222 -2.8394,1.31894 -4.25986,2.00371c0.77232,-0.64803 1.42289,-1.4297 2.1553,-2.12261z" fill="#ffffff" stroke="none" stroke-width="0.5"/><path d="M243.63135,200.09235c0.16215,-0.01352 0.32394,-0.03001 0.48523,-0.05004h0.00001c1.88971,-0.23464 4.12278,-0.78687 5.86884,-1.52687c1.25933,-0.53371 2.54863,-1.45023 3.85228,-1.85266c0.26939,-0.08316 0.59456,-0.00403 0.84787,-0.12781c0.071,-0.0347 0.14132,-0.07083 0.21103,-0.10829c-0.70833,0.64883 -1.41299,1.30055 -2.24478,1.76823c-2.66615,1.49906 -5.75334,1.72741 -8.79474,2.0942c-0.07528,-0.0651 -0.15051,-0.13069 -0.22572,-0.19677z" fill="#ffffff" stroke="none" stroke-width="0.5"/><path d="M235.708,199.74122c0.38133,-1.14399 1.52533,-0.76266 1.52533,-0.76266l0.58337,0.25968c1.58012,0.00986 2.21508,-0.48562 3.67807,-0.91533c1.37477,-0.40379 2.9697,-0.40047 4.34117,-0.80392c2.96628,-0.87259 5.42028,-2.71875 8.48712,-3.22128c0.88344,-0.62944 2.21108,-1.34064 2.5718,-1.58965c0.8143,-0.56213 1.60287,-1.10733 2.35927,-1.6687c1.71592,-1.58326 3.17833,-3.39156 4.6779,-5.19802c-0.04327,-0.24343 -0.00204,-0.5333 0.21459,-0.85825c0.6689,-1.00336 1.67226,-0.33445 1.67226,-0.33445l0.86044,0.72664c0.3421,0.63525 0.53873,1.171 0.65158,1.69902c-0.12186,0.06466 -0.23694,0.14038 -0.34392,0.22583c-0.22273,2.82475 -0.64524,5.52444 -1.49345,8.20888c-0.29985,0.94899 -0.56442,2.88295 -1.57648,3.50777c-2.16747,1.33816 -4.92714,0.02841 -6.95973,-0.84073l-0.40136,-0.06155c-0.61005,0.13681 -1.1018,-0.35493 -1.1018,-0.35493l-0.9647,-0.9647c0,0 -0.02861,-0.02861 -0.07011,-0.08059c-1.90891,0.31876 -3.4186,1.38666 -5.21975,2.11547c-2.29656,0.92927 -4.67991,1.11636 -7.02177,1.80619c-1.58249,0.46614 -2.62508,1.00526 -4.36113,1.01408l-1.34603,-0.38345c0,0 -1.14399,-0.38133 -0.76266,-1.52533zM259.26501,193.86402c-0.92602,0.66155 -1.31592,1.30788 -2.39948,1.74076c0.03373,0.03774 0.07423,0.08686 0.11558,0.14581l0.92624,0.20869c1.08329,0.46541 3.39974,1.75995 4.61672,1.08868c0.69411,-0.38287 0.43593,-1.5245 0.6745,-2.28045c0.51756,-1.64004 0.8616,-3.28353 1.09577,-4.96292c-0.00019,-0.00099 -0.00038,-0.00198 -0.00057,-0.00297c-0.90689,0.95606 -1.87134,1.75193 -2.92522,2.54142c-0.20914,0.20352 -0.42151,0.40429 -0.6376,0.60199c-0.15524,0.06887 -0.31085,0.137 -0.46661,0.20494c-0.32441,0.23292 -0.65727,0.46969 -0.99934,0.71407z" fill="#000000" stroke="none" stroke-width="0.5"/><path d="M260.23824,193.1194c0.15576,-0.06793 0.3477,-0.14437 0.50294,-0.21325c0.21609,-0.1977 0.44061,-0.39299 0.64976,-0.59651c1.05388,-0.78948 2.02436,-1.58041 2.93125,-2.53647c0.00018,0.00099 0.00039,0.00199 0.00058,0.00298c-0.23417,1.6794 -0.57034,3.3686 -1.0879,5.00864c-0.23856,0.75595 0.00273,1.9155 -0.69139,2.29837c-1.21698,0.67127 -3.58252,-0.63137 -4.6658,-1.09678l-0.93071,-0.21461c-0.04135,-0.05896 -0.08273,-0.10958 -0.11646,-0.14732c1.08356,-0.43288 1.46962,-1.08869 2.39564,-1.75025c0.34207,-0.24438 0.6877,-0.5219 1.01211,-0.75482z" data-paper-data="{&quot;noHover&quot;:false,&quot;origItem&quot;:[&quot;Path&quot;,{&quot;applyMatrix&quot;:true,&quot;segments&quot;:[[[513.25935,381.12996],[0.851,-0.60796],[-2.30376,1.64582]],[[507.28991,385.46063],[2.69568,-1.07692],[0.08392,0.09388]],[[507.57745,385.82339],[-0.10286,-0.14668],[0,0]],[[509.88176,386.34256],[0,0],[2.69502,1.15784]],[[521.36728,389.05098],[-3.02762,1.67],[1.72682,-0.9525]],[[523.04531,383.37765],[-0.5935,1.88067],[1.2876,-4.08011]],[[525.77138,371.03085],[-0.58257,4.17801],[-0.00048,-0.00246]],[[525.76996,371.02346],[0.00047,0.00246],[-2.25617,2.37849]],[[518.49256,377.34603],[2.62186,-1.96408],[-0.52031,0.50631]],[[516.90634,378.84367],[0.53758,-0.49184],[-0.38622,0.17135]],[[515.74551,379.35351],[0.3875,-0.16899],[-0.80708,0.57946]]],&quot;closed&quot;:true}]}" fill="#ffffff" stroke="none" stroke-width="0.5"/><path d="" fill="#000000" stroke="none" stroke-width="0.5"/></g></g></svg>