<svg version="1.1" xmlns="http://www.w3.org/2000/svg" xmlns:xlink="http://www.w3.org/1999/xlink" width="191.35501" height="266.55306" viewBox="0,0,191.35501,266.55306"><g transform="translate(-381.91653,-96.01859)"><g data-paper-data="{&quot;isPaintingLayer&quot;:true}" fill-rule="nonzero" stroke-linejoin="miter" stroke-miterlimit="10" stroke-dasharray="" stroke-dashoffset="0" style="mix-blend-mode: normal"><path d="M415.18605,151.38406c0,1.3154 -1.3154,1.3154 -1.3154,1.3154h-1.3154c-1.04093,-0.00329 -2.08291,-0.11255 -3.11013,-0.281c0,0 -1.29751,-0.21625 -1.08126,-1.51376c0.21625,-1.29748 1.51376,-1.08123 1.51376,-1.08123c0.88363,0.15001 1.78134,0.24851 2.67763,0.24519h1.3154c0,0 1.3154,0 1.3154,1.3154z" fill="#000000" stroke="none" stroke-width="0.5" stroke-linecap="butt"/><path d="M489.04641,238.63807c-0.0502,0.20891 -0.10171,0.42188 -0.15395,0.63773c0.22788,0.11744 0.36944,0.25898 0.36944,0.25898c1.21517,1.37499 3.6721,1.51368 6.1124,1.39803c0.25537,0.77125 0.57686,1.55833 0.96777,2.36706c-3.02082,0.0895 -5.6809,0.45776 -8.10479,-1.22966c-0.40651,1.86098 -0.68419,3.56516 -0.46734,4.37689c0.06327,0.23682 0.17832,0.47636 0.33032,0.71555c0.01844,-0.03991 0.03907,-0.0805 0.06198,-0.12173c0.63881,-1.14987 1.78868,-0.51106 1.78868,-0.51106c8.59646,4.87648 15.86699,13.62718 23.85174,19.76918c0.16884,-0.08753 0.30125,-0.12062 0.30125,-0.12062l1.57459,-0.35316c0.02733,0.00008 0.05546,0.00005 0.08437,-0.00005c2.60097,-2.53501 4.71839,-2.88025 5.95505,0.48152c0.52116,1.41674 3.36195,-1.14566 4.52498,-0.18329c0.53934,0.44629 0.72728,1.42079 0.78553,2.39729c5.78016,-0.93109 15.42318,-3.39455 18.25376,-0.40059c1.881,1.9896 1.57372,6.30416 1.50269,9.13159c2.07126,2.40376 2.25357,6.00696 2.9878,9.17297c2.2923,9.88423 2.37638,19.43102 2.37638,29.68214c0,14.45423 -5.23182,27.18856 -10.93619,40.02761c-0.63694,1.14611 -1.67227,5.30112 -2.87084,5.97697c-3.37761,1.90462 -6.85823,-2.59097 -8.84104,-4.58322c-5.73275,-5.76003 -8.02171,-13.75006 -11.00285,-20.95788c-2.17028,-10.68103 -3.50728,-19.47232 -3.50728,-30.50785v-1.67306c-0.01392,-0.13241 -0.00881,-0.28034 0.0212,-0.44555c0.07035,-0.38686 0.2353,-0.63707 0.43203,-0.79774c0.03475,-0.02965 0.07216,-0.05775 0.11244,-0.0839c-2.2582,0.25535 -4.50317,-1.02015 -6.14424,-2.66121c-0.5833,-0.5833 -0.44219,-2.1174 -1.26707,-2.12579c-5.58319,-0.05685 -12.35871,4.1187 -12.27766,-5.95855c0.87108,-2.11038 2.59505,-4.7416 4.57836,-7.38971l-0.57236,0.26666c-0.67843,-0.90479 -1.37233,-1.79799 -2.07502,-2.68407c-9.46552,-7.55287 -14.55335,-19.24433 -23.76726,-26.91378c0,0 -0.71745,-0.59785 -0.43955,-1.39056c-3.44935,1.18068 -9.60997,0.14622 -11.74913,-1.39259l-0.31822,-0.21128c-0.13191,0.63052 -0.3444,1.16229 -0.67217,1.52684c-2.77492,3.0864 -6.73251,0.60648 -9.962,-1.54173c-0.28718,0.69582 -0.77948,1.26584 -1.53718,1.63236c-3.20058,1.54828 -7.44027,-4.74612 -9.61492,-6.30261c-0.23488,0.13622 -0.54971,0.20233 -0.96671,0.09808c-0.38823,-0.09705 -0.62884,-0.28273 -0.77569,-0.49406c-0.53455,-0.37426 -0.53455,-1.09594 -0.53455,-1.09594v-0.41877c-2.53851,-1.18147 -5.4018,-2.44183 -6.23,-5.19394c-0.23077,-0.76683 -0.40209,-1.68571 -0.5109,-2.70515c-4.59406,-6.59429 -8.2368,-15.78112 -0.89534,-18.35539c-0.9915,-0.58698 -1.60405,-1.49472 -1.39898,-2.93411c0.13796,-0.96806 4.51353,-4.15517 5.83559,-5.01917c-0.50885,-0.18739 -1.40956,-0.99747 -1.88589,-1.33203c-1.75577,-1.23311 -4.69374,-2.9636 -3.2614,-5.72525c-0.62218,0.00326 -1.24558,0.00492 -1.87037,0.00492c-11.01177,0 -27.54206,-2.71591 -34.12193,-12.98558c-4.12446,-1.04303 -15.0833,-14.89367 -9.78968,-18.04545c2.81743,-1.67748 11.21429,0.33832 14.53433,0.33832c0.55386,0 1.1083,0.0025 1.66317,0.00718c-0.8332,-0.27397 -0.83317,-1.24413 -0.83317,-1.24413c0,-0.37849 0,-0.97134 0,-1.45475l-0.34769,-0.50895c0.01889,-7.30984 -0.52616,-14.7287 -0.52616,-22.09873c0.03467,-7.827 13.2303,-15.78007 11.49642,-23.41413c-0.42156,0 -0.8,0 -0.97321,0c0,0 -1.3154,0 -1.3154,-1.3154c0,-1.3154 1.3154,-1.3154 1.3154,-1.3154c0.34408,0 0.68814,0 1.03222,0c0.09092,-0.06251 0.1971,-0.11952 0.32083,-0.169c0.10392,-0.04157 0.20252,-0.07074 0.29597,-0.08937c1.02457,-11.23599 12.67341,-21.83278 22.0268,-25.7597c1.5456,-0.01318 3.73171,-1.40182 4.63463,-0.14732c4.57512,6.35646 -19.79667,25.24643 -5.12109,14.82527c1.26421,-0.89771 2.24605,-1.48156 3.36148,-2.58763c5.76093,-3.49873 9.68003,-4.28058 15.88572,-6.05363l0.18245,0.04501v-0.05775h1.84156v0.51214l1.21527,0.29988c-0.20331,0.3535 -0.41443,0.71605 -0.63313,1.08552l0.34798,0.34798l-1.3154,1.3154l-0.02639,-0.02639c-1.93214,3.09872 -4.33727,6.45546 -7.11129,9.00005c0.90892,-0.12538 1.77321,-0.23527 2.48529,-0.3977c3.85794,-0.88011 5.22419,-4.58467 9.00663,-6.24899c1.8062,-0.79474 4.14885,-0.7688 6.10517,-1.46917l0.83433,-0.8765c0,0 0.93012,-0.93012 1.86027,0v0.00005c0.58262,0.58262 0.43534,1.16526 0.24398,1.51926c3.54808,-0.45934 7.16162,-0.51722 10.77542,-1.08044c7.69901,-1.19993 14.09591,-2.88865 22.06892,-2.81127c7.70201,3.0808 5.5285,6.78562 1.48703,13.30049c-1.92851,3.10874 -4.04449,5.60503 -6.28559,7.8637c4.91705,0.50206 11.62477,2.16486 14.6941,4.45484l1.49779,0.89868c0.39407,0.22722 0.65931,0.65281 0.65931,1.14035c0,0.56462 -0.35574,1.04616 -0.8553,1.23271l-1.54099,0.6164l-0.08124,-0.20305c-5.75411,3.06473 -12.18684,3.24875 -18.27504,5.27523c-4.09063,1.36157 -8.18687,3.59194 -12.65431,3.79598c-0.22483,0.18705 -1.01075,0.72918 -1.79663,-0.05669c-0.08584,-0.08584 -0.15585,-0.17171 -0.2122,-0.25682c-0.16856,0.07642 -0.33845,0.14869 -0.50985,0.21691c0.04612,0.03786 0.07122,0.06298 0.07122,0.06298c6.79136,6.79136 8.73481,23.95931 5.29199,32.85755c-0.49341,0.96103 -3.83705,8.50751 -3.73782,8.7221c0.05793,0.12528 3.998,2.11958 4.58264,2.55601l0.52616,2.30787c0,0 0,0.07337 -0.01734,0.18547c3.99979,-0.36102 8.11402,-0.5592 12.5129,-0.5592c7.3457,0.01963 12.46747,7.743 10.68423,14.84971c-1.25247,4.99142 -6.09499,6.49382 -9.12633,9.68169l-1.06753,0.33061c0.45394,3.12381 -0.11281,7.14239 -0.12304,9.85487c-0.34763,1.77219 -2.75,9.25634 -5.3897,10.31366c-0.09495,0.27992 -0.20625,0.55833 -0.33195,0.82773c1.14561,0.22507 1.01175,1.42971 1.01175,1.42971c-0.01105,0.09879 -0.02552,0.20549 -0.04312,0.31946c1.70457,-0.28521 3.41765,-0.81542 5.12222,-1.54025c-0.13835,0.9454 -0.1816,1.88899 -0.12249,2.84329c-1.85771,0.71224 -3.7264,1.20767 -5.58803,1.43202zM401.32738,172.81569c0,0 0,0.99455 -0.8648,1.25408c1.75017,0.02239 3.5042,0.06532 5.25881,0.12054c0.01197,-0.26532 0.09047,-0.63281 0.39212,-0.90115c-0.13525,-0.30691 -0.13525,-0.59559 -0.13525,-0.59559l0.00447,-1.42389c0.16566,-0.99402 0.35505,-2.02743 0.50632,-3.06359c-0.38754,-0.10599 -0.6517,-0.37015 -0.6517,-0.37015l-0.8859,-1.1983c-0.31354,-1.60392 -0.28863,-3.09945 -0.28863,-4.73034c0,-1.68611 -0.02433,-3.83558 0.04741,-6.17638c-0.03031,-0.11775 -0.04741,-0.25061 -0.04741,-0.40062c0,-0.19739 0.02962,-0.36513 0.07995,-0.50772c0.32135,-7.79622 1.83372,-17.26384 8.74081,-18.90362c-0.13243,-0.2846 -0.43232,-1.15161 0.49951,-1.7107c1.12793,-0.67677 1.8047,0.45116 1.8047,0.45116c5.77269,9.66604 9.92141,15.912 9.92141,27.77402c0,4.25866 -0.13262,8.48039 -2.65598,11.87109l-0.1137,0.29268c0,0 -0.05306,0.10613 -0.15919,0.23867c2.08901,0.05767 4.1634,0.09384 6.21735,0.09384c1.3415,0 3.01613,0.3228 4.34711,0.10434c-0.22401,-0.19344 -0.40091,-0.49893 -0.40091,-0.98129c0,-1.3154 1.3154,-1.3154 1.3154,-1.3154c6.87081,0 14.17928,-3.36035 21.20712,-1.74401c6.72212,1.54602 0.67264,6.65672 -2.6619,7.43769c-0.55339,-0.10018 -0.9071,0.04275 -1.24029,0.26708c4.07266,0.3706 10.72309,2.24297 9.71768,5.19544c-0.26545,0.77951 -1.76477,1.58903 -3.37192,2.26217c3.52248,0.22033 7.60499,1.51755 7.14802,5.04882c4.7135,-0.87548 9.25868,-1.59387 13.91191,-2.09772c-0.07592,-0.24106 -0.07592,-0.4375 -0.07592,-0.4375l0.52616,-0.20323c-1.19309,-0.89852 -5.02046,-2.49979 -5.4617,-3.72172c-0.67267,-1.86284 2.8777,-8.86256 3.79543,-10.73877c3.20989,-7.66042 1.12717,-24.04007 -4.75233,-29.91957c0,0 -0.58577,-0.58575 -0.36276,-1.29243c-2.27338,0.44855 -4.85322,0.3309 -7.99227,-0.21833c-2.22589,-0.38944 -8.2206,-2.5876 -7.34314,-6.11303c0.54305,-2.18193 5.48267,-3.59052 6.53188,-5.15419c8.32527,-8.23551 18.98194,-14.27865 29.28294,-19.46169c2.75374,-1.37686 5.02949,-2.60002 8.04402,-3.22499c-0.00145,-0.00318 -0.00292,-0.00637 -0.00437,-0.00952l-0.22049,0.0282c0,0 0.06085,-0.06085 0.16695,-0.13583c-0.38925,-0.72763 -1.29988,-1.38138 -2.93832,-2.03677c-7.67489,0.0935 -13.81412,1.68598 -21.24729,2.83866c-5.29317,0.82084 -10.71354,0.4057 -15.75424,2.13971c0,0 -0.6637,0.22122 -1.18439,-0.14301c-6.45683,3.25693 -12.71406,7.52814 -19.95055,7.84494l0.0492,0.39349l-2.08407,0.2605c-0.06003,0.00839 -0.12139,0.01273 -0.18374,0.01273c-0.72647,0 -1.3154,-0.58893 -1.3154,-1.3154c0,-0.43582 0.21196,-0.82215 0.53842,-1.0615l1.04006,-0.78006l0.05362,0.07148l0.12515,-0.18431c3.4483,-1.16968 7.23489,-7.5775 10.44954,-10.52741c-4.39633,1.21874 -7.57116,2.1064 -12.1865,4.83696c-1.80833,1.82507 -9.95663,10.11548 -12.47739,5.92522c-0.66151,-1.09967 0.17703,-2.61886 0.71863,-3.78228c1.22764,-2.63704 7.00443,-12.42846 9.62849,-14.39895c-0.54752,0.28592 -1.39469,0.6733 -1.83483,0.66914c-8.23922,3.61048 -20.21068,14.21532 -19.99548,24.49331c0,0 0,0.69429 -0.50443,1.07405c-0.04575,0.06075 -0.09602,0.11418 -0.14914,0.16119c1.70834,9.1123 -11.49523,15.03479 -11.44814,23.75737c0,7.09164 0.47068,14.20577 0.52206,21.24882c0.2177,0.2404 0.30067,0.54113 0.3323,0.73547l0.07579,-0.02644c0,0 0.93015,0.93015 0,1.86027c-0.01878,0.01878 -0.03754,0.03678 -0.0563,0.05409zM407.29365,177.95512c-1.00031,0 -1.23995,-0.76072 -1.29733,-1.12514c-2.71393,-0.08737 -5.42753,-0.14635 -8.12975,-0.14635c-2.68468,0 -5.3093,-0.22972 -7.94157,-0.35661c0.07871,0.16514 0.12749,0.36957 0.12749,0.62279v0.00003c0,1.31537 -1.3154,1.31537 -1.3154,1.31537c-0.72276,-0.04486 -1.48919,0.25921 -2.05105,0.71605l-0.52385,0.81486c0.52135,0.51356 0.96371,0.96992 1.1137,1.29467c1.64709,3.56687 3.38263,7.0455 7.44296,8.57841c6.7822,9.82378 21.59688,12.4455 32.52504,12.4455c5.29012,0 10.59103,-0.41727 15.78481,-0.43848c0.809,-0.00329 4.18908,0.48909 4.64092,0.15566c1.07913,-0.79632 2.25607,-1.32516 3.5359,-1.5768c-0.65489,-0.50548 -1.28501,-1.00255 -1.88265,-1.46591c0.36189,-4.51722 6.24757,-3.12223 10.21819,-4.86801c-0.03349,-0.08555 -0.0614,-0.18045 -0.08242,-0.2856c-0.25798,-1.28986 1.03188,-1.54783 1.03188,-1.54783c0.30841,-0.06169 0.61579,-0.12281 0.92223,-0.18334c0.8659,-1.18636 1.60495,-2.45201 1.29378,-2.45201c-2.99172,0 -6.38732,-0.20702 -9.59308,-1.07032v0.14017h-1.3154c-0.72647,0 -1.3154,-0.58893 -1.3154,-1.3154c0,-0.52511 0.3077,-0.97834 0.75265,-1.18928l1.72836,-0.86419l0.01413,0.02823l0.07077,-0.06695c1.65572,-0.55602 2.47714,-1.14514 3.52127,-1.83254c-2.16276,-0.29218 -5.01191,-1.55073 -7.284,-2.69018l-2.10648,-0.4213c-0.61482,-0.11044 -1.08131,-0.64805 -1.08131,-1.29464c0,-0.626 0.43729,-1.14987 1.02307,-1.2828l1.72717,-0.43179l0.01457,0.05832l0.14372,-0.08774c1.50448,0.2564 1.5466,-1.15426 3.53885,-1.31885c1.37023,-0.19168 4.78232,-1.80612 3.47747,-2.26615c-5.07574,-1.78939 -11.70038,0.37899 -17.41859,1.37346c-0.20052,0.59906 -0.85964,0.81878 -0.85964,0.81878l-0.00005,-0.00003l-0.93291,0.23593c-1.75737,2.38237 -5.0272,1.58543 -7.81393,1.58543c-6.66621,0 -13.53455,-0.38028 -20.42351,-0.64002c-0.082,0.38633 -0.35718,1.03459 -1.28059,1.03459zM474.05022,246.66604l1.25844,0.15566c2.0023,-5.02541 8.24538,-10.34839 5.0816,-16.29176c0,0 -0.58827,-1.17652 0.58825,-1.76479c0.10847,-0.05422 0.21194,-0.09347 0.31041,-0.11999c-0.79445,-2.2023 -1.92377,-4.08745 -5.61529,-5.95074c-3.39771,-3.39771 -8.00758,-5.08087 -11.20732,-8.67641c-0.37852,-0.42535 -0.99457,-0.80784 -1.56088,-1.24887c-8.00221,-0.9086 -15.5429,1.66872 -21.90229,6.64895c0.0196,0.0985 0.03041,0.20681 0.03041,0.3259c0,1.3154 -1.3154,1.3154 -1.3154,1.3154h-0.67196c-0.37649,0.33748 -0.74823,0.68367 -1.11501,1.0383c-4.82094,1.92838 -4.11702,10.34205 -4.11702,14.91001c0,0.23556 -0.01671,0.55684 -0.0306,0.92507c0.99789,1.26426 1.97513,2.36078 2.7842,3.16698l0.69443,1.00131c-0.173,-1.47922 -0.44008,-2.89272 -0.72486,-4.5632c0,0 -0.21623,-1.29751 1.08126,-1.51376c1.29748,-0.21625 1.51374,1.08126 1.51374,1.08126c0.45344,2.79491 0.90949,5.05871 0.95572,7.90345l0.0549,0.40399c0.50148,-0.05654 0.93259,0.23091 0.93259,0.23091c0.72505,0.49059 6.46735,6.61852 7.21313,6.16923c0.2087,-0.12573 0.3248,-0.36013 0.36918,-0.66946c-0.25742,-0.15185 -0.50435,-0.28807 -0.7392,-0.4038c0,0 -1.17652,-0.58825 -0.58825,-1.76479c0.20828,-0.41659 0.49033,-0.61192 0.7678,-0.69045c-0.57312,-1.56798 -1.41445,-3.11926 -1.77692,-3.44111l-0.38528,-1.55788c0,0 0,-1.3154 1.3154,-1.3154c1.3154,0 1.3154,1.3154 1.3154,1.3154l-0.38528,-0.30236c1.07965,1.15324 2.52799,3.91784 2.9285,6.46851c6.07036,3.32831 7.6953,5.09307 7.6953,-4.28284v-1.25552c0,0 0,-1.3154 1.3154,-1.3154c1.3154,0 1.3154,1.3154 1.3154,1.3154v1.25552c0,1.05387 0.22833,2.87065 0.27074,4.6341c0.40143,0.02757 0.71295,0.23525 0.71295,0.23525l1.00123,0.66993c4.07385,3.2492 14.31627,-1.42979 7.37177,-1.39893c0,0 -1.3154,0 -1.3154,-1.3154c0,-1.3154 1.3154,-1.3154 1.3154,-1.3154c0.70135,0.00263 1.48885,0.14756 2.25265,0.40914c0.38891,-0.42138 1.00476,-0.42138 1.00476,-0.42138zM548.98458,318.79255l-0.62779,-1.56943c-0.12481,-0.3891 -0.24961,-0.77819 -0.37442,-1.16729c-4.62626,-1.80604 -8.32517,-6.59534 -13.34637,-8.46418c-5.17389,-1.92567 -11.40544,-1.19688 -17.01436,-1.88549v0.35634c0,10.8469 1.33745,19.25467 3.39821,29.7582c2.63601,6.78644 4.97545,14.50884 10.34136,19.84724c0.65225,0.64891 4.21704,5.04935 5.59771,4.2056c1.497,-0.91486 1.05614,-3.36982 1.8977,-4.90921c5.10715,-11.48705 9.85716,-22.85837 10.56972,-35.58405c-0.30638,-0.24929 -0.44174,-0.58772 -0.44174,-0.58772zM535.64276,305.1611c5.26521,1.88289 9.30472,6.21248 13.87398,8.88379c-0.01689,-9.2811 -0.21181,-17.99476 -2.30682,-27.02577c-0.46244,-1.99344 -0.5832,-5.20438 -1.77953,-7.28035c-0.65628,-0.00921 -0.97818,-0.35045 -1.13609,-0.68296l-1.02841,-0.4204c-4.55297,-3.59454 -10.89896,-5.26305 -16.60143,-5.15719c0,0 -0.29352,0 -0.60327,-0.13867c-0.22293,0.12725 -0.51916,0.19134 -0.91023,0.11312c-0.04033,-0.00805 -0.07916,-0.01715 -0.11652,-0.02715c0.18915,1.04627 0.2393,2.30821 0.0764,2.84155c-1.59187,5.21167 -0.63686,11.49476 -2.58247,16.5233c-1.69929,3.16222 -0.90181,6.75177 -4.48033,9.29399c-0.51595,0.36655 -1.04343,0.62374 -1.57459,0.78693c0.09839,0.00913 0.18837,0.02631 0.2706,0.05004c6.19212,1.0877 13.01244,0.13478 18.89867,2.23976zM459.24283,201.3613c0.66904,0.40036 1.10651,0.83678 1.36083,1.2897c0.01907,0.00492 0.03817,0.00973 0.0573,0.01452l0.0874,0.12836l0.06919,0.04151l0.04094,-0.0614l1.29843,0.86561c0.36266,0.23419 0.60274,0.64197 0.60274,1.1058c0,0.72647 -0.58893,1.3154 -1.3154,1.3154c-0.25529,0 -0.49356,-0.07274 -0.69532,-0.1986l-0.52292,-0.31375c-0.60535,0.87216 -1.53631,1.64525 -2.40418,2.16223c2.01769,0.59243 2.15063,1.44691 1.36254,2.30911c0.82289,-0.01502 1.64767,0.00068 2.47248,0.0473c0.02326,-0.08826 0.05177,-0.17884 0.0859,-0.27184c0.61798,-1.68458 6.30024,-1.6221 10.74619,-1.29396c-0.03304,-0.05998 -0.06398,-0.12531 -0.09242,-0.19644c-0.18789,-0.46973 -0.12288,-0.83104 0.02831,-1.09789c-0.11165,0.02657 -0.23661,0.04141 -0.37641,0.04141c-1.3154,0 -1.3154,-1.3154 -1.3154,-1.3154l0.02555,-0.57186c0.35205,-1.72128 0.50727,-3.35617 0.0549,-4.98113c-0.62742,-0.02381 -1.26121,-0.03709 -1.90391,-0.03709h-1.25552c0,0 -1.3154,0 -1.3154,-1.3154c0,-1.3154 1.3154,-1.3154 1.3154,-1.3154h1.25552c0.8212,0 1.63775,0.01934 2.45093,0.05251c0.38773,-0.12625 0.69648,-0.07645 0.93504,0.04401c4.12057,0.21854 8.16669,0.74031 12.30831,0.84514c1.39251,0.03525 4.51453,-0.42432 4.08392,2.63825c-0.20065,1.42697 -2.66663,1.58453 -3.17651,2.93232c0,0 -0.22304,0.55762 -0.74452,0.76859c3.85039,0.42727 7.36882,2.03366 9.04411,5.69421c0.1091,-0.04141 0.21309,-0.06659 0.29917,-0.08192c2.80722,-2.47572 7.02663,-4.01005 8.05927,-8.16219c1.34705,-5.41637 -2.48032,-11.53404 -8.14891,-11.51665c-11.01908,0 -20.15751,1.2585 -30.2752,3.20345c-1.7298,2.063 -4.73628,2.93119 -7.2356,3.55887c-0.28534,0.07166 -2.39077,0.41027 -3.7797,0.42387c1.38891,0.79529 2.65201,1.78224 3.96588,2.65482c0.9267,-0.02431 1.80307,0.14872 2.54709,0.59393zM485.51301,237.45823c0,-0.41419 0.13044,-0.69798 0.30915,-0.89239c-0.67188,-0.08242 -1.38157,-0.60637 -2.07407,-1.78124c-0.01421,-0.0241 -0.02833,-0.0482 -0.04236,-0.07224c-0.38696,5.25897 -4.12483,10.5765 -7.1557,14.42884l-0.44571,0.02775c0.79784,1.14566 0.7879,2.59247 -0.91028,4.13512c0.31001,0.09447 0.5214,0.27066 0.5214,0.27066c9.28483,7.74584 14.43068,19.44522 23.94334,27.07455c0.58401,0.7246 1.16318,1.45341 1.73065,2.19112c0.19126,0.05961 0.33956,0.15548 0.45458,0.26829c2.0843,-2.64624 4.29341,-5.19254 6.02214,-7.1251c-2.72732,-3.55061 -5.7006,-6.98841 -8.87566,-10.17828c-3.29642,-4.38015 -5.93538,-9.6316 -9.61039,-13.66151c-1.21703,-1.33458 -3.76973,-3.11069 -4.17576,-5.1147c-0.38307,-1.8906 0.50214,-5.38188 1.18965,-8.3304c-0.38312,-0.11983 -0.88095,-0.43124 -0.88095,-1.24045zM517.29572,268.05432c-0.20094,5.20651 -2.87707,5.11175 -6.00378,8.1101c0.13091,0.35311 0.15161,0.83804 -0.3333,1.32295c-0.42966,0.42966 -0.85935,0.46236 -1.19733,0.37315c-2.54617,3.15712 -4.44503,6.94747 -6.82672,10.13795c-1.3083,1.75259 -3.73211,2.80286 -4.48373,4.81568c0.083,7.54059 5.771,2.18722 9.69434,2.83027c3.21429,0.52682 3.45429,5.3611 7.2845,4.73202c3.97724,-0.65323 3.51972,-6.17891 4.69874,-8.66375c1.75927,-4.19852 -0.25892,-9.54291 1.18418,-13.92362c0.10665,-0.32372 2.14934,-3.19798 1.2017,-4.15724c-1.15103,-1.16516 -3.41749,-0.58367 -4.52777,-2.39029c-0.51587,-0.83941 0.67467,-2.13371 0.12738,-2.953c-0.18081,-0.27066 -0.47646,-0.29849 -0.81823,-0.23419zM500.68376,111.43924c-2.29556,0.623 -4.14498,1.63812 -6.38901,2.76013c-9.92164,4.93344 -20.56402,10.81059 -28.47203,18.83232c-0.99,1.22937 -4.48922,4.04338 -6.02353,4.2624c-0.70148,0.10013 1.08426,0.91718 1.67343,1.31085c1.86119,1.24363 3.47061,1.60392 5.73604,1.99267c6.25523,1.07342 9.35694,-1.67566 12.94867,-6.46464c6.49069,-6.49069 12.76675,-10.28156 17.77719,-18.36633c1.0836,-1.74851 2.1128,-3.14978 2.74924,-4.32738zM467.06052,212.1548c-0.06572,0.32859 -0.19842,0.55673 -0.35968,0.71426c0.3213,0.47189 0.55889,0.85214 0.62774,0.9226c2.75179,2.81609 7.06286,3.94802 9.88334,6.7685c2.49163,1.23335 6.64398,4.1408 7.41657,7.0426c0.40351,1.51563 0.97703,2.80038 1.26918,4.45947c0.10336,0.58696 -0.36944,1.79434 0.22617,1.77358c0.51448,-0.01792 0.64491,-0.71658 0.66091,-1.3733c-0.19205,-0.25135 -0.38273,-0.55489 -0.57123,-0.91531c-0.67862,-1.29746 -0.43387,-5.26721 -0.69272,-6.79275c-0.33756,-1.98957 -3.59502,-4.29347 -4.76912,-5.75822l-0.53463,-1.34742c0,0 -0.41596,-1.24789 0.83194,-1.66385c1.24789,-0.41598 1.66385,0.83194 1.66385,0.83194l0.09313,0.53592c1.62323,2.03335 4.6777,4.12528 5.27523,6.7972c0.32901,1.47112 0.69356,3.47795 0.66294,5.01052c-0.00324,0.16122 -0.04057,0.42061 -0.08763,0.6848c0.00445,0.002 0.00884,0.004 0.01321,0.00605c0.70129,-2.16781 2.5921,-4.61514 3.09995,-7.09819c-0.01302,-2.93269 0.85472,-7.91574 -0.22017,-10.6669c-1.93785,-4.95993 -8.54676,-5.21367 -13.54981,-4.20349l1.33687,1.6025c0,0 0.84209,1.01052 -0.16842,1.85261c-0.50951,0.42458 -0.97616,0.37823 -1.31369,0.22785c-0.34182,0.1087 -0.6561,0.06382 -0.6561,0.06382c-3.06223,-0.44234 -6.13884,-0.30065 -9.23056,-0.30065c-0.25429,0 -0.58938,0.02091 -0.95698,0.04664c0.08258,0.20447 0.11344,0.46031 0.04964,0.77924zM408.32042,174.01402c0.01789,0.08934 0.03575,0.17871 0.05362,0.26808c4.11415,0.15364 8.2227,0.35195 12.28374,0.48841c-0.4455,-0.60145 -0.07127,-1.34994 -0.07127,-1.34994l0.41246,-0.75964c2.26594,-2.51157 2.07949,-6.86479 2.07949,-10.22763c0,-2.52223 -0.19486,-4.76946 -0.55873,-6.84008h-1.01975c-4.32412,0 -8.46579,0.70282 -12.6803,0.95972c0.05246,0.20215 0.05246,0.35568 0.05246,0.35568v0.78924c-0.14369,2.90327 0.52779,4.32264 0.12136,6.11403c0.4048,0.38957 0.4048,0.98915 0.4048,0.98915c-0.01597,2.20908 -0.4285,4.49417 -0.79371,6.6855l0.00447,1.20691c0,0 0,0.60066 -0.40591,0.99018c0.08805,0.18416 0.11728,0.3304 0.11728,0.3304zM437.52097,205.99285c-0.71368,0 -5.83188,-0.4047 -6.10043,0.00392c-0.63842,0.9714 5.84638,4.28221 5.84638,5.58616c0,4.32125 -11.40355,5.39014 -2.71409,6.54288c0.70769,0.09389 1.41313,0.20404 2.11972,0.30607c0.43527,-0.00068 0.87051,-0.00137 1.30577,-0.00205c3.34467,-3.07927 7.24749,-5.33458 11.4211,-6.73101c0.12488,-1.11738 1.30475,-1.11738 1.30475,-1.11738l1.0393,0.01789c1.85798,-0.29339 3.55771,-1.45957 5.47672,-0.79198c1.50792,0.52458 -2.42957,-2.12237 -3.33688,-3.43606l2.53593,-0.78827c1.30177,-0.51669 1.56051,-0.93643 1.22261,-1.19567c-0.1192,-0.05259 -0.23838,-0.10697 -0.35745,-0.16306c-1.29638,-0.37355 -4.79992,0.05514 -6.18083,1.90267c0,0 -0.8217,1.02717 -1.84887,0.20544c-1.02714,-0.82173 -0.20544,-1.84887 -0.20544,-1.84887c0.281,-0.3354 0.64502,-0.68527 1.07105,-1.03046c-0.96058,0.39607 -1.92027,0.80768 -3.14544,0.85388c-2.72498,0.10273 -5.43255,0.19547 -8.1412,0.26892c0.00179,0.03296 0.00271,0.06682 0.00271,0.10158v0.00008c-0.00005,1.31532 -1.3154,1.31532 -1.3154,1.31532zM421.49997,152.96254h0.44563c-1.38206,-5.27234 -3.93518,-9.55417 -7.13644,-14.83845c-0.31935,0.28399 -0.72226,0.35116 -0.72226,0.35116c-2.26149,0.16792 -3.43227,3.43164 -4.28281,5.30301c-1.52515,3.35569 -2.12579,6.71128 -2.36122,10.2104c4.68535,-0.16258 9.26892,-1.02609 14.05708,-1.02609zM489.28834,135.92068c3.74918,-1.25124 8.01218,-1.19978 11.82516,-2.47935c1.39856,-0.46933 3.42412,-2.04055 5.17187,-2.3366c-3.39828,-2.10009 -11.30834,-3.58291 -15.00472,-3.58357c-2.92598,2.68231 -6.01264,5.21225 -9.13588,8.33548c-1.08058,1.44076 -2.13192,2.63877 -3.19792,3.61735c3.59633,-0.56875 6.98867,-2.43436 10.34149,-3.55332zM513.05673,269.49934l-0.81947,-1.11467c-5.08826,-3.7631 -10.63528,-7.83121 -15.31586,-11.86731c-1.28288,-1.10625 -2.40332,-2.40371 -3.55013,-3.66126c2.70325,3.57831 4.95038,7.66936 7.60667,11.22552c3.13397,3.11724 6.0692,6.53152 8.76409,10.0249c2.00175,-1.64659 3.77654,-2.1113 4.53903,-4.06469c-0.72902,0.11789 -1.22432,-0.5425 -1.22432,-0.5425zM474.73409,205.65332c0.17895,0.07445 0.35682,0.15351 0.53292,0.2373c2.49274,-0.69727 5.50558,-1.14724 8.41246,-0.98734c-1.0659,-0.51858 -0.6109,-1.65601 -0.6109,-1.65601c0.1041,-0.25019 0.43335,-1.14813 0.88221,-1.94114c-1.34147,0.05867 -2.80109,-0.01634 -2.92937,-0.02797c-2.56992,-0.23272 -5.01315,-0.538 -7.49955,-0.73541c0.31588,1.74177 0.18337,3.46327 -0.18366,5.33432l0.00392,0.00858c0.56515,-0.56304 1.39196,-0.23233 1.39196,-0.23233zM543.37819,269.93557c-0.19147,-0.33122 -3.66976,0.03273 -4.30962,0.03183c-3.21684,-0.00442 -6.28593,0.58901 -9.40106,1.03151c4.90476,0.42979 9.99865,1.79539 13.99644,4.65686c0.18516,-0.08747 0.37547,-0.11284 0.54721,-0.1076c0.05514,-1.99133 0.01331,-4.14867 -0.83299,-5.6126zM434.17669,221.69479c-8.03644,0.24253 -6.74106,6.18817 -3.53698,11.66779c0.26192,-4.3319 1.39351,-9.03015 3.53698,-11.66779zM522.72003,270.15533c0,-0.98231 0.7336,-1.23106 1.10509,-1.29404c-0.75878,-0.99502 -2.14102,-1.72041 -3.4861,-1.88834c0.25719,0.873 -0.59254,2.16194 -0.06317,2.97238c0.42972,0.65791 1.89344,0.93117 3.02179,1.31751c-0.30012,-0.17663 -0.57762,-0.5033 -0.57762,-1.10749zM383.86287,176.81491c0.07279,-0.15869 0.13296,-0.33658 0.19126,-0.52716c-0.14538,0.0618 -0.23861,0.14619 -0.25364,0.25961c-0.01055,0.07961 -0.00897,0.16243 0.00339,0.24803c0.01947,0.00602 0.03912,0.0125 0.05896,0.01952zM524.03543,271.47073c0,0 -0.11673,0 -0.28063,-0.03478c0.15293,0.06522 0.29362,0.13467 0.41719,0.21012l0.03599,-0.17592c-0.05746,0.00037 -0.11497,0.00055 -0.17253,0.00055zM474.9977,208.6964c-0.01905,0.00668 -0.03802,0.01336 -0.05693,0.02005c0.03528,0.00355 0.07035,0.00716 0.10515,0.01071c-0.01602,-0.01034 -0.0321,-0.0206 -0.04825,-0.03078z" fill="#000000" stroke="none" stroke-width="0.5" stroke-linecap="butt"/><path d="M543.49881,269.88322c0.8463,1.46394 0.89008,3.72127 0.83494,5.7126c-0.17174,-0.00524 -0.3641,0.02507 -0.54926,0.11255c-3.99779,-2.86147 -9.34024,-4.31001 -14.245,-4.73981c3.11513,-0.4425 6.3924,-1.10986 9.60924,-1.10544c0.63986,0.00089 4.15864,-0.31114 4.35011,0.02007z" data-paper-data="{&quot;noHover&quot;:false,&quot;origItem&quot;:[&quot;Path&quot;,{&quot;applyMatrix&quot;:true,&quot;segments&quot;:[[[255.60242,205.73791],[0,0],[-0.07278,-0.1259]],[[253.96428,205.75001],[0.24322,0.00034],[-1.22276,-0.00168]],[[250.39082,206.1421],[1.1841,-0.1682],[1.86436,0.16337]],[[255.71104,207.91223],[-1.51961,-1.08768],[0.07038,-0.03325]],[[255.91904,207.87133],[-0.06528,-0.00199],[0.02096,-0.75693]],[[255.60241,205.73791],[0.32169,0.55646],[0,0]]],&quot;closed&quot;:true,&quot;fillColor&quot;:[0,0,0,1]}]}" fill="#ea0000" stroke="none" stroke-width="0.5" stroke-linecap="butt"/><path d="M535.67231,305.28928c-5.88623,-2.10498 -12.85052,-1.21527 -19.04263,-2.30298c-0.08224,-0.02373 0.05717,-0.16974 -0.04122,-0.17887c0.53116,-0.16319 0.82894,-0.2921 1.34489,-0.65865c3.57852,-2.54222 2.76468,-6.20745 4.46397,-9.36968c1.94561,-5.02854 1.06742,-11.42018 2.65929,-16.63184c0.1629,-0.53334 0.11889,-1.79786 -0.07027,-2.84413c0.03736,0.01 0.07674,0.01889 0.11707,0.02694c0.39107,0.07821 0.6924,0.01226 0.91533,-0.11499c0.30975,0.13867 0.60637,0.13764 0.60637,0.13764c5.70247,-0.10586 12.1619,1.57951 16.71487,5.17405l1.03467,0.42495c0.1579,0.33251 0.48693,0.67967 1.14321,0.68888c1.19633,2.07596 1.34863,5.32921 1.81107,7.32265c2.09501,9.03101 2.25375,17.90271 2.27064,27.1838c-4.56925,-2.67132 -8.6621,-6.97486 -13.9273,-8.85775z" data-paper-data="{&quot;noHover&quot;:false,&quot;origItem&quot;:[&quot;Path&quot;,{&quot;applyMatrix&quot;:true,&quot;segments&quot;:[[[252.66209,219.12757],[0,0],[2.00137,0.71571]],[[257.93576,222.50441],[-1.73683,-1.0154],[-0.00642,-3.52786]],[[257.05891,212.23158],[0.79634,3.4328],[-0.17578,-0.75773]],[[256.38249,209.46423],[0.45474,0.7891],[-0.24946,-0.0035]],[[255.95065,209.20463],[0.06002,0.12639],[0,0]],[[255.55974,209.04483],[0,0],[-1.73064,-1.36633]],[[249.24933,207.08452],[2.16758,-0.04024],[0,0]],[[249.02002,207.03181],[0.11774,0.05271],[-0.08474,0.04837]],[[248.67403,207.07481],[0.14865,0.02973],[-0.01533,-0.00306]],[[248.62974,207.06449],[0.0142,0.0038],[0.0719,0.3977]],[[248.65878,208.1446],[0.06192,-0.20273],[-0.60509,1.98102]],[[247.67715,214.42531],[0.73955,-1.91141],[-0.64592,1.202]],[[245.97412,217.95807],[1.36024,-0.96633],[-0.19612,0.13933]],[[245.3756,218.25719],[0.2019,-0.06203],[0.0374,0.00347]],[[245.47846,218.27621],[-0.03126,-0.00902],[2.3537,0.41345]],[[252.66208,219.12757],[-2.23743,-0.80013],[0,0]]],&quot;closed&quot;:true,&quot;fillColor&quot;:[0,0,0,1]}]}" fill="#ea0000" stroke="none" stroke-width="0.5" stroke-linecap="butt"/><path d="M500.7907,111.36268c-0.63644,1.1776 -1.65896,2.58918 -2.74256,4.33769c-5.01044,8.08477 -11.40021,12.07348 -17.89087,18.56417c-3.59173,4.78898 -6.78113,7.50452 -13.03635,6.4311c-2.26544,-0.38875 -3.89653,-0.77401 -5.75772,-2.01764c-0.58917,-0.39367 -2.38082,-1.22051 -1.67935,-1.32064c1.53431,-0.21901 5.03035,-3.03923 6.02035,-4.26861c7.908,-8.02173 18.7694,-14.04077 28.69104,-18.9742c2.24402,-1.12201 4.09989,-2.12884 6.39545,-2.75184z" data-paper-data="{&quot;noHover&quot;:false,&quot;origItem&quot;:[&quot;Path&quot;,{&quot;applyMatrix&quot;:true,&quot;segments&quot;:[[[478.74747,290.98299],[0,0],[-1.74514,0.47362]],[[473.89039,293.08131],[1.70596,-0.85298],[-7.54268,3.75052]],[[452.24525,307.39811],[6.01186,-6.09832],[-0.75262,0.9346]],[[447.66601,310.63849],[1.16642,-0.1665],[-0.53328,0.07612]],[[448.93819,311.63503],[-0.4479,-0.29928],[1.41492,0.94544]],[[453.29887,313.14991],[-1.72224,-0.29554],[4.75538,0.81604]],[[463.14277,308.23533],[-2.73052,3.6407],[4.93438,-4.93438]],[[476.65743,294.27279],[-3.80906,6.14624],[0.82378,-1.32926]],[[478.74747,290.98301],[-0.48384,0.89524],[0,0]]],&quot;closed&quot;:true}]}" fill="#ffffff" stroke="none" stroke-width="0.5" stroke-linecap="butt"/><path d="M438.74787,204.58019v-0.00008c0,-0.03475 -0.00016,-0.0693 -0.00195,-0.10226c2.70865,-0.07345 5.54939,-0.1916 8.27437,-0.29436c1.22516,-0.0462 2.21805,-0.43979 3.17864,-0.83586c-0.42603,0.34519 -0.79332,0.69269 -1.07431,1.02809c0,0 -0.80297,1.04306 0.22417,1.86479c1.02717,0.82173 1.86084,-0.19131 1.86084,-0.19131c1.38091,-1.84753 4.89474,-2.25978 6.19112,-1.88623c0.11907,0.05609 0.23951,0.11294 0.35871,0.16556c0.3379,0.25924 0.08142,0.68375 -1.22035,1.20043l-2.53767,0.78456c0.90731,1.31369 4.85764,4.00671 3.34972,3.48213c-1.91901,-0.66759 -3.61835,0.50406 -5.47635,0.79745l-1.03938,-0.01934c0,0 -1.1812,0.02786 -1.30609,1.14527c-4.17361,1.39643 -8.29302,3.73053 -11.63769,6.8098c-0.43527,0.00068 -0.87911,-0.00687 -1.31437,-0.00618c-0.70658,-0.10202 -1.42355,-0.22609 -2.13124,-0.31996c-8.68946,-1.15274 2.68984,-2.28693 2.68984,-6.60818c0,-1.30396 -6.47685,-4.67275 -5.83843,-5.64415c0.26855,-0.40862 5.40238,-0.03336 6.11603,-0.03336c0,0 1.33432,-0.02147 1.33437,-1.33679z" data-paper-data="{&quot;noHover&quot;:false,&quot;origItem&quot;:[&quot;Path&quot;,{&quot;applyMatrix&quot;:true,&quot;segments&quot;:[[[430.72955,362.86497],[0,0],[-0.54256,0]],[[426.09185,362.86795],[0.20416,-0.31064],[-0.48534,0.73848]],[[430.53641,367.11469],[0,-0.9913],[0,3.28512]],[[428.47309,372.08875],[-6.60594,-0.87634],[0.538,0.07138]],[[430.08455,372.32143],[-0.53716,-0.07756],[0.3309,-0.00052]],[[431.07723,372.31987],[-0.3309,0.00052],[2.5427,-2.34094]],[[439.75983,367.20279],[-3.17288,1.0616],[0.09494,-0.84946]],[440.75173,366.35333],[[441.54183,366.36693],[0,0],[1.41248,-0.22304]],[[445.70537,365.76485],[-1.45888,-0.50752],[1.14636,0.3988]],[[443.16859,363.15267],[0.68976,0.9987],[0,0]],[[445.09647,362.55341],[0,0],[0.98964,-0.3928]],[[446.02593,361.64443],[0.25688,0.19708],[-0.09062,-0.03998]],[[445.75419,361.52047],[0.09052,0.04264],[-0.98554,-0.28398]],[[441.05537,362.96693],[1.0498,-1.40454],[0,0]],[[439.64981,363.12311],[0.78088,0.6247],[-0.78086,-0.6247]],[[439.49363,361.71755],[0,0],[0.21362,-0.25498]],[[440.30787,360.93417],[-0.32388,0.26242],[-0.73026,0.3011]],[[437.91663,361.58331],[0.9314,-0.03512],[-2.0716,0.0781]],[[431.72749,361.78775],[2.05918,-0.05584],[0.00136,0.02506]],[[431.72955,361.86497],[0,-0.02642],[0,0]],[[431.72955,361.86503],[0,0],[-0.00004,0.99994]]],&quot;closed&quot;:true}]}" fill="#ffffff" stroke="none" stroke-width="0.5" stroke-linecap="butt"/><path d="M466.95198,212.08037c0.0638,-0.31893 0.03599,-0.57904 -0.04659,-0.78351c0.3676,-0.02573 0.70603,-0.05093 0.96032,-0.05093c3.09172,0 6.23915,-0.1865 9.30138,0.25585c0,0 0.32343,0.04299 0.66525,-0.06572c0.33753,0.15038 0.82305,0.19492 1.33255,-0.22967c1.01052,-0.84209 0.17232,-1.58958 0.17232,-1.58958l-1.35186,-1.86479c5.00305,-1.01017 11.73392,-0.70127 13.67177,4.25866c1.07489,2.75116 0.22914,7.83213 0.24217,10.76482c-0.50785,2.48306 -2.43504,5.00084 -3.13634,7.16864c-0.00437,-0.00205 -0.19521,-0.18965 -0.19965,-0.19168c0.04707,-0.26419 0.08048,-0.51945 0.08371,-0.68069c0.03062,-1.53257 -0.35868,-3.5002 -0.68767,-4.97132c-0.59753,-2.67192 -3.62511,-4.62337 -5.24834,-6.65669l-0.08461,-0.52779c0,0 -0.37371,-1.22316 -1.6216,-0.80718c-1.24789,0.41596 -0.75265,1.41319 -0.75265,1.41319l0.58388,1.37323c1.1741,1.46475 4.45629,3.94318 4.79385,5.93275c0.25884,1.52555 -0.02528,5.53331 0.65331,6.83077c0.1885,0.36042 0.37918,0.66396 0.57123,0.91531c-0.016,0.65673 -0.15637,1.36102 -0.67085,1.37893c-0.59561,0.02076 -0.24751,-1.41819 -0.35087,-2.00514c-0.29215,-1.65909 -0.87956,-2.93471 -1.28307,-4.45034c-0.77259,-2.9018 -4.97753,-5.70771 -7.46916,-6.94105c-2.82048,-2.82048 -7.11455,-4.01352 -9.86635,-6.82959c-0.06885,-0.07045 -0.3042,-0.45447 -0.6255,-0.92636c0.16127,-0.15753 0.29778,-0.39154 0.3635,-0.72013z" data-paper-data="{&quot;noHover&quot;:false,&quot;origItem&quot;:[&quot;Path&quot;,{&quot;applyMatrix&quot;:true,&quot;segments&quot;:[[[453.18625,367.54943],[0,0],[-0.04996,0.2498]],[[452.91281,368.09243],[0.1226,-0.11976],[0.24426,0.35874]],[[453.39003,368.79381],[-0.05234,-0.05356],[2.09198,2.14086]],[[460.90359,373.93939],[-2.1442,-2.1442],[1.8942,0.93762]],[[466.54185,379.29335],[-0.58734,-2.20602],[0.30676,1.15222]],[[467.50671,382.68355],[-0.2221,-1.26128],[0.07858,0.44622]],[[467.67865,384.03187],[-0.4528,0.01578],[0.39112,-0.01362]],[[468.18109,382.98785],[-0.01216,0.49926],[-0.146,-0.19108]],[[467.74683,382.29201],[0.1433,0.274],[-0.5159,-0.98636]],[[467.22021,377.12799],[0.19678,1.15976],[-0.25662,-1.51252]],[[463.59461,372.75045],[0.89258,1.11354],[0,0]],[463.18817,371.72611],[[463.82063,370.46121],[-0.94868,0.31622],[0.94868,-0.31624]],[465.08553,371.09367],[[465.15633,371.50109],[0,0],[1.23402,1.5458]],[[469.16669,376.66849],[-0.45426,-2.03126],[0.25012,1.11838]],[[469.67067,380.47761],[0.02328,-1.1651],[-0.00246,0.12256]],[[469.60405,380.99821],[0.03578,-0.20084],[0.00338,0.00152]],[[469.61409,381.00281],[-0.00332,-0.00156],[0.53314,-1.64802]],[[471.97075,375.60659],[-0.38608,1.88768],[-0.0099,-2.2295]],[[471.80337,367.49735],[0.81716,2.0915],[-1.4732,-3.77066]],[[461.50247,364.30175],[3.80344,-0.76796],[0,0]],[462.51879,365.52001],[[462.39075,366.92841],[0.76822,-0.64018],[-0.38734,0.32278]],[[461.39205,367.10163],[0.2566,0.11432],[-0.25986,0.08264]],[[460.89327,367.15015],[0,0],[-2.32798,-0.33628]],[[453.87597,366.92159],[2.3504,0],[-0.19332,0]],[[453.14845,366.95705],[0.27946,-0.01956],[0.06278,0.15544]],[[453.18619,367.54945],[0.0485,-0.24246],[0,0]]],&quot;closed&quot;:true}]}" fill="#ffffff" stroke="none" stroke-width="0.5" stroke-linecap="butt"/><path d="M408.46469,176.84774c6.88894,0.25974 13.92141,0.59317 20.58762,0.59317c2.78673,0 6.09814,0.82689 7.85552,-1.55549l0.93522,-0.23338l0.00005,0.00003c0,0 0.65891,-0.21996 0.85943,-0.81902c5.7182,-0.99447 12.36487,-3.1286 17.4406,-1.33921c1.30485,0.46002 -2.34902,2.17815 -3.71924,2.36983c-1.99225,0.16458 -2.03411,1.5759 -3.53859,1.31948l-0.14377,0.08761l-0.01447,-0.05804l-1.48551,0.32782c-0.58577,0.13293 -1.02141,0.66078 -1.02141,1.2868c0,0.6466 0.46949,1.19252 1.08431,1.30296l2.10801,0.4264c2.27209,1.13945 5.12493,2.41615 7.28769,2.70833c-1.04414,0.6874 -1.8649,1.2827 -3.52059,1.83875l-0.07074,0.06722l-0.01413,-0.02836l-1.72812,0.86772c-0.44495,0.21094 -0.75246,0.66996 -0.75246,1.19507c0,0.72647 0.58885,1.32179 1.31532,1.32179l1.0525,-0.00971l0.26292,-0.13133c3.20576,0.8633 6.60126,1.07297 9.59298,1.07297c0.31117,0 -0.42864,1.27452 -1.29454,2.46088c-0.30644,0.06053 -0.61395,0.1227 -0.92236,0.18439c0,0 -1.29078,0.26408 -1.0328,1.55394c0.02102,0.10515 0.04875,0.20102 0.08224,0.28657c-3.97062,1.74577 -9.86592,0.38152 -10.22782,4.89874c0.59764,0.46336 1.22674,0.96266 1.88163,1.46814c-1.27983,0.25164 -2.46359,0.79298 -3.54272,1.58929c-0.45184,0.33343 -3.83931,-0.14822 -4.64831,-0.14493c-5.19378,0.0212 -10.57466,0.4878 -15.86481,0.4878c-10.92816,0 -25.89852,-2.74135 -32.68073,-12.56513c-4.06033,-1.53292 -5.79431,-5.04346 -7.4414,-8.61032c-0.14998,-0.32475 -0.59169,-0.78472 -1.11304,-1.29827l0.52448,-0.81786c0.56186,-0.45684 1.32924,-0.76491 2.052,-0.72005c0,0 1.31698,-0.00566 1.31701,-1.32103v-0.00003c0,-0.25321 -0.04817,-0.45957 -0.12688,-0.62471c2.63227,0.12688 5.26021,0.34756 7.94489,0.34756c2.7022,0 5.42374,0.04275 8.13767,0.13012c0.0574,0.36442 0.29591,1.12704 1.29625,1.12704c0.92341,0 1.20406,-0.65723 1.28607,-1.04356z" data-paper-data="{&quot;noHover&quot;:false,&quot;origItem&quot;:[&quot;Path&quot;,{&quot;applyMatrix&quot;:true,&quot;segments&quot;:[[[407.75,341.55],[0.702,0],[-0.76047,0]],[[406.76374,340.69463],[0.04363,0.27705],[-2.06319,-0.06642]],[[400.58331,340.58337],[2.05429,0],[-2.04096,0]],[[394.54593,340.31227],[2.00112,0.09646],[0.05984,0.12554]],[[394.64285,340.78573],[0,-0.19249],[0,0]],[[394.64285,340.78575],[0,0],[-0.00001,0.99998]],[[393.64285,341.78573],[0,0],[-0.54946,-0.0341]],[[392.08359,342.33009],[0.42714,-0.3473],[0,0]],[[391.68535,342.94957],[0,0],[0.39634,0.39042]],[[392.53201,343.93381],[-0.11402,-0.24688],[1.25216,2.71162]],[[398.19033,350.45533],[-3.08676,-1.16536],[5.156,7.46828]],[[422.91667,359.91671],[-8.30786,0],[4.02168,0]],[[434.91667,359.58337],[-3.94844,0.01612],[0.61502,-0.0025]],[[438.44481,359.70171],[-0.3435,0.25348],[0.82038,-0.60538]],[[441.13289,358.50299],[-0.97296,0.1913],[-0.49786,-0.38428]],[[439.70165,357.38857],[0.45434,0.35226],[0.27512,-3.4341]],[[447.46977,353.68779],[-3.01856,1.32718],[-0.02546,-0.06504]],[[447.40711,353.47067],[0.01598,0.07994],[-0.19612,-0.98058]],[[448.19157,352.29397],[0,0],[0.23446,-0.0469]],[[448.89267,352.15459],[-0.23296,0.04602],[0.65828,-0.9019]],[[449.87623,350.29051],[0.23656,0],[-2.27438,0]],[[442.58333,349.47683],[2.4371,0.6563],[0,0]],[442.58333,349.58339],[[441.58333,349.58339],[0,0],[-0.55228,0]],[[440.58333,348.58339],[0,0.55228],[0,-0.3992]],[[441.15551,347.67927],[-0.33826,0.16036],[0,0]],[442.46945,347.02229],[442.48019,347.04375],[[442.53399,346.99285],[0,0],[1.25872,-0.4227]],[[445.21095,345.59971],[-0.79378,0.52258],[-1.64418,-0.22212]],[[439.67347,343.55457],[1.7273,0.86624],[0,0]],[[438.07207,343.23429],[0,0],[-0.4674,-0.08396]],[[437.25003,342.25007],[0,0.49156],[0,-0.4759]],[[438.02779,341.27485],[-0.44532,0.10106],[0,0]],[439.34083,340.94659],[439.35191,340.99093],[[439.46117,340.92423],[0,0],[1.14374,0.19492]],[[442.15149,339.92161],[-1.51456,0.12512],[1.04168,-0.14572]],[[444.79515,338.19883],[0.99198,0.34972],[-3.8587,-1.36034]],[[431.55311,339.24297],[4.34712,-0.75602],[-0.15244,0.45542]],[430.89959,339.86543],[430.89955,339.86541],[[430.19033,340.04477],[0,0],[-1.336,1.81114]],[[424.24999,341.25005],[2.11854,0],[-5.06782,0]],[[408.72354,340.76349],[5.23715,0.19745],[-0.06234,0.29371]]],&quot;closed&quot;:true}]}" fill="#ffffff" stroke="none" stroke-width="0.5" stroke-linecap="butt"/><path d="M408.11651,173.78262c0.40591,-0.38954 0.40262,-0.99318 0.40262,-0.99318l-0.01255,-1.21514c0.36521,-2.19133 0.74444,-4.5722 0.76041,-6.78128c0,0 0.00245,-0.61813 -0.40235,-1.0077c0.40643,-1.79139 -0.22446,-3.28177 -0.08077,-6.18504l0.00495,-0.7935c0,0 0.00171,-0.1549 -0.05072,-0.35705c4.21452,-0.2569 8.50633,-0.96879 12.83047,-0.96879l1.02783,0.00537c0.36387,2.07062 0.60545,4.37913 0.60545,6.90135c0,3.36285 0.13967,7.86862 -2.12627,10.38019l-0.42138,0.76551c0,0 -0.38094,0.75225 0.06456,1.3537c-4.06101,-0.13643 -8.31262,-0.34855 -12.42677,-0.50219c-0.01789,-0.08934 -0.03759,-0.18024 -0.05546,-0.26958c0,0 -0.03194,-0.14851 -0.11996,-0.33266z" data-paper-data="{&quot;noHover&quot;:false,&quot;origItem&quot;:[&quot;Path&quot;,{&quot;applyMatrix&quot;:true,&quot;segments&quot;:[[[408.53058,338.55388],[0,0],[0.01359,0.06793]],[[408.57134,338.75767],[-0.01359,-0.06793],[3.12769,0.1168]],[[417.90973,339.12897],[-3.08728,-0.10373],[-0.33868,-0.45724]],[417.85555,338.10271],[[418.16911,337.52521],[0,0],[1.72262,-1.90936]],[[419.74999,329.74991],[0,2.55652],[0,-1.91746]],[[419.32523,324.54991],[0.27662,1.57414],[0,0]],[[418.54999,324.54991],[0,0],[-3.2873,0]],[[408.91011,325.27951],[3.20398,-0.1953],[0.03988,0.15368]],[408.94999,325.54991],[[408.94999,326.14991],[0,0],[-0.10924,2.20714]],[[409.04225,330.79795],[0.30898,-1.36186],[0.30774,0.29616]],[[409.34999,331.54993],[0,0],[-0.01214,1.6794]],[[408.74659,336.63241],[0.27764,-1.6659],[0,0]],[408.74999,337.54993],[[408.44141,338.3027],[0.30858,-0.29613],[0.06693,0.14]]],&quot;closed&quot;:true}]}" fill="#ffffff" stroke="none" stroke-width="0.5" stroke-linecap="butt"/><path d="M421.59226,153.05625c-4.78816,0 -9.55281,0.8669 -14.23816,1.02948c0.23543,-3.49912 0.80558,-7.00735 2.33073,-10.36304c0.85054,-1.87137 2.13005,-5.21067 4.39154,-5.37859c0,0 0.41532,-0.06759 0.73468,-0.35155c3.20126,5.28428 5.84772,9.78837 7.22978,15.0607l-0.44855,0.00297z" data-paper-data="{&quot;noHover&quot;:false,&quot;origItem&quot;:[&quot;Path&quot;,{&quot;applyMatrix&quot;:true,&quot;segments&quot;:[[418.54999,322.55001],[[418.88877,322.55001],[0,0],[-1.05068,-4.00816]],[[413.46347,311.26945],[2.43368,4.01724],[-0.24278,0.2159]],[[412.91439,311.53641],[0,0],[-1.71924,0.12766]],[[409.65849,315.56789],[0.6466,-1.42266],[-1.15946,2.55108]],[[407.86343,323.33009],[0.17898,-2.66012],[3.56192,-0.1236]],[[418.54997,322.55003],[-3.64008,0],[0,0]]],&quot;closed&quot;:true}]}" fill="#740097" stroke="none" stroke-width="0.5" stroke-linecap="butt"/><path d="M430.62795,233.49359c-3.20408,-5.47962 -4.42732,-11.67315 3.60912,-11.91566c-2.14347,2.63764 -3.34719,7.58376 -3.60912,11.91566z" data-paper-data="{&quot;noHover&quot;:false,&quot;origItem&quot;:[&quot;Path&quot;,{&quot;applyMatrix&quot;:true,&quot;segments&quot;:[[[428.18715,374.80197],[-1.62952,2.0052],[-6.1095,0.18438]],[[425.49825,383.67211],[-2.43582,-4.16574],[0.19912,-3.29322]]],&quot;closed&quot;:true}]}" fill="#ffffff" stroke="none" stroke-width="0.5" stroke-linecap="butt"/><path d="M474.14964,246.75219c0,0 -0.6199,0.00445 -1.00881,0.42582c-0.7638,-0.26158 -1.55733,-0.40057 -2.25867,-0.4032c0,0 -1.3249,0.00802 -1.3249,1.32342c0,1.3154 1.31658,1.31448 1.31658,1.31448c6.9445,-0.03086 -3.33878,4.66978 -7.41262,1.42055l-1.00636,-0.66838c0,0 -0.37715,-0.46242 -0.77859,-0.48999c-0.04241,-1.76345 -0.27847,-3.57813 -0.27847,-4.632l-0.00374,-1.25431c0,0 0.07429,-1.06326 -1.24111,-1.06326c-1.3154,0 -1.33324,1.31864 -1.33324,1.31864l-0.00139,1.25565c0,9.37591 -1.68419,7.60338 -7.75455,4.27508c-0.40051,-2.55067 -1.88949,-5.33966 -2.96915,-6.4929l0.38875,0.3053c0,0 -0.01265,-1.32724 -1.32805,-1.32724c-1.3154,0 -1.12362,1.13535 -1.12362,1.13535l0.37744,1.55023c0.36247,0.32185 1.18297,1.85782 1.75609,3.4258c-0.27747,0.07853 -0.55773,0.27494 -0.76601,0.69153c-0.58827,1.17655 0.58038,1.76032 0.58038,1.76032c0.23485,0.11573 0.47702,0.24958 0.73444,0.40143c-0.04438,0.30933 -0.27313,0.78148 -0.48183,0.90721c-0.74578,0.44929 -6.53396,-5.71481 -7.25901,-6.2054c0,0 -0.43395,-0.2911 -0.93543,-0.23456l-0.05619,-0.40572c-0.04622,-2.84474 -0.52316,-5.1529 -0.97661,-7.94781c0,0 -0.21825,-1.30653 -1.51574,-1.09028c-1.29748,0.21625 -0.82418,1.45841 -0.82418,1.45841c0.28478,1.67048 0.54271,3.05849 0.71571,4.53771l-0.93438,-0.89368c-0.80908,-0.80621 -1.79297,-1.9233 -2.79086,-3.18753c0.01389,-0.36823 0.02957,-0.69424 0.02957,-0.9298c0,-4.56796 -0.6914,-13.06795 4.12954,-14.99633c0.36679,-0.35463 0.74281,-0.7084 1.11933,-1.04587l0.67312,-0.00187c0,0 1.32198,-0.00944 1.32198,-1.32485c0,-0.1191 -0.00989,-0.22859 -0.02949,-0.32709c6.35938,-4.98024 14.03845,-7.60336 22.04067,-6.69476c0.56631,0.44103 1.19409,0.82733 1.57261,1.25268c3.19974,3.59554 7.8792,5.33992 11.2769,8.73763c3.69151,1.86329 4.8347,3.78998 5.62915,5.99228c-0.09847,0.02652 -0.20186,0.06616 -0.31033,0.12039c-1.17652,0.58827 -0.58717,1.77424 -0.58717,1.77424c3.16377,5.94337 -3.1084,11.35985 -5.1107,16.38526l-1.26105,-0.15256z" data-paper-data="{&quot;noHover&quot;:false,&quot;origItem&quot;:[&quot;Path&quot;,{&quot;applyMatrix&quot;:true,&quot;segments&quot;:[[458.49999,393.78573],[[459.45669,393.90407],[0,0],[1.5222,-3.82044]],[[463.31985,381.51867],[2.40518,4.5183],[0,0]],[[463.76705,380.17703],[-0.89442,0.44722],[0.08246,-0.04122]],[[464.00303,380.08581],[-0.07486,0.02016],[-0.60396,-1.67424]],[[459.73415,375.56191],[2.80638,1.41652],[-2.58302,-2.58302]],[[451.21407,368.96589],[2.43252,2.73342],[-0.28776,-0.32336]],[[450.02745,368.01647],[0.43052,0.33528],[-6.08348,-0.69074]],[[433.37679,373.07117],[4.83456,-3.7861],[0.0149,0.07488]],[[433.39991,373.31893],[0,-0.09054],[0,1]],[432.39991,374.31893],[[431.88907,374.31893],[0,0],[-0.28622,0.25656]],[[431.04141,375.10827],[0.27884,-0.2696],[-3.665,1.466]],[[427.91155,386.44323],[0,-3.47268],[0,0.17908]],[[427.88829,387.14649],[0.01056,-0.27994],[0.75862,0.96112]],[[430.00491,389.55411],[-0.61508,-0.6129],[0,0]],[[430.53283,390.31533],[0,0],[-0.13152,-1.12454]],[[429.98177,386.84627],[0.2165,1.26994],[0,0]],[[430.80377,385.69547],[-0.98638,0.1644],[0.98638,-0.1644]],[[431.95455,386.51747],[0,0],[0.34472,2.12476]],[[432.68111,392.52587],[-0.03514,-2.16264],[0,0]],[[432.72285,392.83299],[0,0],[0.38124,-0.04298]],[[433.43183,393.00853],[0,0],[0.5512,0.37296]],[[438.91543,397.69853],[-0.56696,0.34156],[0.15866,-0.09558]],[[439.19609,397.18959],[-0.03374,0.23516],[-0.1957,-0.11544]],[[438.63413,396.88261],[0.17854,0.08798],[0,0]],[[438.18693,395.54097],[-0.44722,0.89444],[0.15834,-0.3167]],[[438.77063,395.01607],[-0.21094,0.0597],[-0.4357,-1.19202]],[[437.41977,392.40005],[0.27556,0.24468],[0,0]],[437.12687,391.21571],[[438.12687,390.21571],[-1,0],[1,0]],[439.12687,391.21571],[[438.83397,390.98585],[0,0],[0.82078,0.87672]],[[441.06029,395.90337],[-0.30448,-1.93908],[4.61484,2.53026]],[[446.91045,392.64745],[0,7.1278],[0,0]],[446.91045,391.69297],[[447.91045,390.69297],[-1,0],[1,0]],[448.91045,391.69297],[[448.91045,392.64745],[0,0],[0,0.80118]],[[449.11627,396.17041],[-0.03224,-1.34062],[0.30518,0.02096]],[449.65827,396.34925],[[450.41943,396.85855],[0,0],[3.09704,2.47012]],[[456.02363,395.79505],[5.27938,-0.02346],[0,0]],[[455.02363,394.79505],[0,1],[0,-1]],[[456.02363,393.79505],[0,0],[0.53318,0.002]],[[457.73615,394.10609],[-0.58066,-0.19886],[0.29566,-0.32034]],[458.49999,393.78575]],&quot;closed&quot;:true}]}" fill="#ffffff" stroke="none" stroke-width="0.5" stroke-linecap="butt"/><path d="M549.08195,318.70407c0,0 0.13841,0.3419 0.44479,0.59119c-0.71255,12.72568 -5.53213,24.30989 -10.63927,35.79694c-0.84157,1.53939 -0.41493,3.99695 -1.91193,4.91181c-1.38067,0.84375 -4.97445,-3.55624 -5.6267,-4.20512c-5.36591,-5.33839 -7.8209,-13.16127 -10.45693,-19.94771c-2.06076,-10.50353 -3.33741,-19.05486 -3.33741,-29.90176l0.00066,-0.35674c5.60892,0.68861 11.91277,-0.05809 17.08666,1.86758c5.0212,1.86884 8.80016,6.68986 13.42642,8.49591c0.12481,0.3891 0.25435,0.78248 0.37915,1.17157l0.63455,1.57635z" data-paper-data="{&quot;noHover&quot;:false,&quot;origItem&quot;:[&quot;Path&quot;,{&quot;applyMatrix&quot;:true,&quot;segments&quot;:[[515.46695,448.61809],[[514.98969,447.42497],[0,0],[-0.09488,-0.2958]],[[514.70505,446.53757],[0.09488,0.2958],[-3.517,-1.373]],[[504.55881,440.10289],[3.81724,1.42074],[-3.93332,-1.46394]],[[491.62407,438.66949],[4.26404,0.5235],[0,0]],[[491.62407,438.94039],[0,0],[0,8.24608]],[[494.20747,461.56331],[-1.56664,-7.98504],[2.00396,5.15922]],[[502.06923,476.65167],[-4.0793,-4.05838],[0.49586,0.49332]],[[506.32475,479.84887],[-1.04962,0.64144],[1.13806,-0.6955]],[[507.76743,476.11677],[-0.63978,1.17028],[3.88258,-8.73274]],[[515.80279,449.06489],[-0.5417,9.67438],[-0.23292,-0.18952]],[515.46697,448.61809]],&quot;closed&quot;:true}]}" fill="#ffffff" stroke="none" stroke-width="0.5" stroke-linecap="butt"/><path d="M517.34597,267.93277c0.34177,-0.0643 0.6432,-0.03391 0.82402,0.23675c0.54729,0.81928 -0.63431,2.11822 -0.11844,2.95763c1.11028,1.80662 3.41002,1.25205 4.56105,2.41721c0.94764,0.95927 -1.0806,3.85315 -1.18725,4.17687c-1.4431,4.3807 0.56581,9.87421 -1.19346,14.07273c-1.17902,2.48484 -0.78729,8.05528 -4.76454,8.7085c-3.83021,0.62908 -4.13559,-4.20265 -7.34988,-4.72947c-3.92334,-0.64305 -9.69103,4.65762 -9.77403,-2.88296c0.75162,-2.01283 3.1648,-3.08098 4.4731,-4.83357c2.38169,-3.19048 4.38128,-7.16922 6.92745,-10.32634c0.33798,0.08921 0.79182,0.05556 1.22148,-0.3741c0.48491,-0.48491 0.46847,-0.96956 0.33756,-1.32266c3.12671,-2.99835 5.84198,-2.89409 6.04292,-8.1006z" data-paper-data="{&quot;noHover&quot;:false,&quot;origItem&quot;:[&quot;Path&quot;,{&quot;applyMatrix&quot;:true,&quot;segments&quot;:[[[491.37629,410.04563],[0,0],[-0.15276,3.95812]],[[486.81207,416.21113],[2.377,-2.27942],[0.09952,0.26844]],[[486.55869,417.21687],[0.36864,-0.36864],[-0.32664,0.32664]],[[485.64845,417.50055],[0.25694,0.06782],[-1.93566,2.40012]],[[480.45861,425.20767],[1.81062,-2.42548],[-0.9946,1.33236]],[[477.04997,428.86867],[0.5714,-1.5302],[0.0631,5.73254]],[[484.41985,431.02031],[-2.98262,-0.48886],[2.44358,0.4005]],[[489.95771,434.61771],[-2.91182,0.47824],[3.0236,-0.4966]],[[493.52981,428.03131],[-0.89632,1.88904],[1.33744,-3.19182]],[[494.43005,417.44623],[-1.09708,3.33032],[0.08108,-0.2461]],[[495.34361,414.28579],[0.72042,0.72926],[-0.87504,-0.88578]],[[491.90149,412.46863],[0.84406,1.37344],[-0.39218,-0.63814]],[[491.99833,410.22369],[0.41606,0.62284],[-0.13746,-0.20576]],[[491.37629,410.04565],[0.25982,-0.04888],[0,0]]],&quot;closed&quot;:true}]}" fill="#ffffff" stroke="none" stroke-width="0.5" stroke-linecap="butt"/><path d="M478.82631,139.52672c1.066,-0.97858 2.10956,-2.20038 3.19014,-3.64113c3.12323,-3.12323 6.30953,-5.81047 9.23551,-8.49278c3.69638,0.00066 11.76468,1.58916 15.16296,3.68925c-1.74775,0.29604 -3.77133,1.88907 -5.16989,2.35841c-3.81298,1.27957 -8.31386,1.3064 -12.06304,2.55764c-3.35282,1.11896 -6.75937,2.95984 -10.3557,3.52859z" data-paper-data="{&quot;noHover&quot;:false,&quot;origItem&quot;:[&quot;Path&quot;,{&quot;applyMatrix&quot;:true,&quot;segments&quot;:[[[470.08439,309.59439],[-2.5489,0.85066],[2.85022,-0.95122]],[[479.07417,307.70953],[-2.89872,0.97276],[1.06322,-0.3568]],[[483.00595,305.93319],[-1.32868,0.22506],[-2.58346,-1.59654]],[[471.59899,303.20887],[2.81008,0.0005],[-2.2244,2.03916]],[[464.65367,309.54571],[2.37436,-2.37436],[-0.82148,1.0953]],[[462.22253,312.29571],[0.8104,-0.74394],[2.73402,-0.43238]]],&quot;closed&quot;:true}]}" fill="#ffd200" stroke="none" stroke-width="0.5" stroke-linecap="butt"/><path d="M401.21263,172.68978c0.01876,-0.01731 0.03749,-0.03536 0.05627,-0.05414c0.93015,-0.93012 -0.00182,-1.86363 -0.00182,-1.86363l-0.07582,0.02641c-0.03162,-0.19434 -0.11547,-0.49675 -0.33316,-0.73715c-0.05138,-7.04305 -0.53574,-14.20632 -0.53574,-21.29796c-0.04709,-8.72258 13.17053,-14.71502 11.46219,-23.82732c0.05312,-0.04701 0.10368,-0.10102 0.14943,-0.16177c0.50443,-0.37976 0.50611,-1.07718 0.50611,-1.07718c-0.2152,-10.27799 11.82253,-20.94133 20.06175,-24.55182c0.44013,0.00416 1.38014,-0.13712 1.92767,-0.42303c-2.62407,1.9705 -8.36163,11.73982 -9.58927,14.37685c-0.5416,1.16342 -1.55404,2.48545 -0.89253,3.58512c2.52075,4.19026 10.70883,-4.12617 12.51717,-5.95124c4.61535,-2.73056 7.83397,-3.62827 12.2303,-4.84701c-3.21465,2.94992 -6.94089,9.60937 -10.38919,10.77905l-0.12441,0.18397l-0.05354,-0.07153l-1.03514,0.77774c-0.32646,0.23935 -0.53468,0.62374 -0.53468,1.05956c0,0.72647 0.46573,1.08297 1.1922,1.08297c0.06235,0 0.12438,-0.00471 0.18442,-0.0131l2.09262,-0.2645l-0.04872,-0.39367c7.23649,-0.3168 13.57917,-4.59356 20.036,-7.85049c0.52069,0.36423 1.18862,0.14425 1.18862,0.14425c5.04069,-1.73401 10.49997,-1.29927 15.79314,-2.12011c7.43317,-1.15269 13.59674,-2.72201 21.27163,-2.81551c1.63844,0.65539 2.55348,1.31493 2.94273,2.04255c-0.1061,0.07498 -0.16692,0.13585 -0.16692,0.13585l0.22062,-0.02802c0.00145,0.00316 -0.21052,0.16016 -0.20904,0.16332c-3.01453,0.62497 -5.28723,1.85222 -8.04096,3.22907c-10.30101,5.18305 -20.94504,11.24018 -29.27029,19.47569c-1.04922,1.56367 -5.8176,2.77305 -6.36065,4.95498c-0.87745,3.52543 5.16674,5.80602 7.39263,6.19546c3.13905,0.54923 5.7201,0.67606 7.99348,0.22751c-0.22301,0.70669 0.36329,1.30025 0.36329,1.30025c5.8795,5.8795 7.92016,22.36049 4.71024,30.02094c-0.91773,1.87621 -4.49138,8.89313 -3.81871,10.75598c0.44124,1.22193 4.1303,2.59952 5.3234,3.49804l-0.38289,0.42387c0,0 -0.00037,0.19668 0.07556,0.43774c-4.65323,0.50385 -9.2304,1.23703 -13.9439,2.11251c0.45697,-3.53127 -3.6419,-4.8246 -7.16438,-5.04493c1.60716,-0.67314 3.11826,-1.48524 3.38371,-2.26475c1.00541,-2.95247 -5.67619,-4.82036 -9.74885,-5.19096c0.33319,-0.22433 0.67614,-0.63008 1.22953,-0.5299c3.33454,-0.78098 9.41495,-5.63089 2.69284,-7.1769c-7.02784,-1.61634 -14.42665,1.72759 -21.29746,1.72759c0,0 -1.17944,-0.22522 -1.17944,1.09018c0,0.48236 0.0422,1.01381 0.26621,1.20725c-1.33097,0.21846 -3.01698,-0.11173 -4.35847,-0.11173c-2.05395,0 -4.14093,-0.04659 -6.22995,-0.10426c0.10613,-0.13254 0.15908,-0.23877 0.15908,-0.23877l0.11344,-0.29294c2.52336,-3.39071 2.63843,-7.63274 2.63843,-11.8914c0,-11.86202 -4.16714,-18.22024 -9.93982,-27.88628c0,0 -0.42422,-1.05432 -1.55215,-0.37755c-0.93183,0.5591 -0.63037,1.42019 -0.49793,1.70479c-6.90709,1.63978 -8.41875,11.04894 -8.7401,18.84514c-0.05033,0.14259 -0.08024,0.30904 -0.08024,0.50643c0,0.15001 0.01686,0.28176 0.04714,0.39951c-0.07174,2.34081 -0.05204,4.47489 -0.05204,6.16099c0,1.63089 -0.02946,3.11558 0.28407,4.7195l0.88421,1.19488c0,0 0.2634,0.26271 0.65094,0.36871c-0.15127,1.03617 -0.34371,2.0641 -0.50938,3.05812l-0.00605,1.42126c0,0 -0.00076,0.28747 0.13449,0.59438c-0.30162,0.26832 -0.60148,0.77801 -0.61345,1.04332c-1.75464,-0.05522 -3.51217,-0.10386 -5.26234,-0.12625c0.8648,-0.25953 0.86403,-1.25539 0.86403,-1.25539z" data-paper-data="{&quot;noHover&quot;:false,&quot;origItem&quot;:[&quot;Path&quot;,{&quot;applyMatrix&quot;:true,&quot;segments&quot;:[[403.21429,337.64287],[[402.55685,338.59625],[0.65744,-0.1973],[1.33052,0.01701]],[[406.55474,338.68789],[-1.33392,-0.04198],[0.0091,-0.20171]],[[406.85283,338.00281],[-0.22931,0.20399],[-0.10282,-0.23331]],[406.75001,337.55003],[[406.75341,336.46755],[0,0],[0.12594,-0.75568]],[[407.13833,334.13853],[-0.115,0.78772],[-0.29462,-0.08058]],[406.64289,333.85713],[[405.96941,332.94615],[0,0],[-0.23836,-1.21934]],[[405.74999,329.35003],[0,1.23984],[0,-1.28182]],[[405.78603,324.65459],[-0.05454,1.77954],[-0.02304,-0.08952]],[[405.74999,324.35003],[0,0.11404],[0,-0.15006]],[[405.81077,323.96405],[-0.03826,0.1084],[0.2443,-5.92688]],[[412.45575,309.59305],[-5.25094,1.2466],[-0.10068,-0.21636]],[[412.83549,308.29253],[-0.7084,0.42504],[0.85748,-0.5145]],[[414.20747,308.63551],[0,0],[4.38854,7.34836]],[[421.74997,329.75001],[0,-9.0178],[0,3.23754]],[[419.73083,338.77471],[1.91832,-2.5777],[0,0]],[419.64439,338.99721],[[419.52337,339.17865],[0.08068,-0.10076],[1.58812,0.04384]],[[424.24995,339.24999],[-1.56146,0],[1.01984,0]],[[427.55473,339.32931],[-1.01184,0.16608],[-0.1703,-0.14706]],[[427.24995,338.58331],[0,0.3667],[0,-1]],[[428.24995,337.58331],[0,0],[5.22336,0]],[[444.37213,336.25747],[-5.34274,-1.22878],[5.11032,1.17532]],[[442.34849,341.91179],[2.535,-0.59372],[-0.4207,-0.07616]],[[441.40559,342.11483],[0.2533,-0.17054],[3.09614,0.28174]],[[448.79321,346.06453],[0.76434,-2.24454],[-0.2018,0.5926]],[[446.22979,347.78429],[1.2218,-0.51174],[2.67788,0.1675]],[[451.66389,351.62253],[0.3474,-2.68456],[3.58332,-0.66556]],[[462.24007,350.02779],[-3.5375,0.38304],[-0.05772,-0.18326]],[462.18235,349.69519],[[462.58235,349.54069],[0,0],[-0.90702,-0.68308]],[[458.43023,346.71135],[0.33544,0.92894],[-0.51138,-1.41618]],[[461.31561,338.54747],[-0.69768,1.42634],[2.44024,-5.82364]],[[457.70277,315.80187],[4.46974,4.46974],[0,0]],[[457.42699,314.81933],[-0.16954,0.53724],[-1.72828,0.341]],[[451.35107,314.65335],[2.38638,0.41754],[-1.69218,-0.29606]],[[445.76863,310.00607],[-0.66706,2.68012],[0.41284,-1.65876]],[[450.73433,306.08773],[-0.79764,1.18874],[6.32908,-6.26084]],[[472.99595,291.29247],[-7.83108,3.94028],[2.09346,-1.04672]],[[479.11121,288.84075],[-2.29172,0.47512],[-0.0011,-0.00242]],[[479.10789,288.83351],[0.0011,0.0024],[0,0]],[478.94027,288.85495],[[479.06719,288.75169],[-0.08066,0.057],[-0.29592,-0.55316]],[[476.83341,287.20329],[1.24558,0.49824],[-5.83464,0.07108]],[[460.68069,289.36131],[5.65088,-0.8763],[-4.024,0.62402]],[[448.70393,290.98797],[3.83206,-1.31824],[0,0]],[[447.80353,290.87925],[0.39584,0.2769],[-4.90864,2.476]],[[432.63663,296.84317],[5.50136,-0.24084],[0,0]],[432.67403,297.14231],[[431.08967,297.34035],[0,0],[-0.04564,0.00638]],[[430.94999,297.35003],[0.0474,0],[-0.55228,0]],[[429.94999,296.35003],[0,0.55228],[0,-0.33132]],[[430.35931,295.54305],[-0.24818,0.18196],[0,0]],[431.14999,294.95003],[431.19075,295.00437],[[431.28589,294.86425],[0,0],[2.62148,-0.88922]],[[439.22989,286.86105],[-2.44386,2.2426],[-3.3422,0.92652]],[[429.96541,290.53823],[3.5087,-2.07584],[-1.37474,1.38746]],[[420.47979,295.04273],[1.91634,3.18554],[-0.5029,-0.836]],[[421.02611,292.16735],[-0.41174,0.88446],[0.93328,-2.00474]],[[428.34593,281.22091],[-1.99488,1.49802],[-0.41624,0.21736]],[[426.95105,281.72961],[0.3346,0.00316],[-6.26366,2.74478]],[[411.74999,300.35003],[-0.1636,-7.81358],[0,0]],[[411.36651,301.16655],[0.38348,-0.2887],[-0.03478,0.04618]],[[411.25313,301.28909],[0.04038,-0.03574],[1.29872,6.9274]],[[402.54997,319.35003],[-0.0358,-6.63112],[0,5.39124]],[[402.94685,335.50391],[-0.03906,-5.3543],[0.1655,0.18276]],[[403.19947,336.06303],[-0.02404,-0.14774],[0,0]],[403.25709,336.04293],[[403.25709,337.45715],[0.70712,-0.7071],[-0.01428,0.01428]],[[403.21429,337.49827],[0.01426,-0.01316],[0,0]]],&quot;closed&quot;:true}]}" fill="#ffd200" stroke="none" stroke-width="0.5" stroke-linecap="butt"/><path d="M514.39247,270.11173c-0.76249,1.9534 -2.58471,2.46311 -4.58646,4.10971c-2.69489,-3.49339 -5.82283,-6.99546 -8.9568,-10.11269c-2.65629,-3.55616 -4.86698,-7.7681 -7.57021,-11.34641c1.14682,1.25755 2.26688,2.55535 3.54977,3.6616c4.68059,4.0361 10.43386,8.26387 15.52212,12.02697l0.81602,1.12027c0,0 0.49654,0.65846 1.22556,0.54058z" data-paper-data="{&quot;noHover&quot;:false,&quot;origItem&quot;:[&quot;Path&quot;,{&quot;applyMatrix&quot;:true,&quot;segments&quot;:[[488.15371,411.14417],[[487.53073,410.29677],[0,0],[-3.86822,-2.8608]],[[475.88723,401.27495],[3.5583,3.06834],[-0.97528,-0.841]],[[473.18833,398.49157],[0.87184,0.95602],[2.05508,2.72032]],[[478.97111,407.02549],[-2.01938,-2.70348],[2.38252,2.3698]],[[485.63379,414.64667],[-2.04872,-2.65576],[1.52178,-1.25178]],[[489.08447,411.55659],[-0.57966,1.48502],[-0.55422,0.08962]]],&quot;closed&quot;:true,&quot;fillColor&quot;:[0,0,0],&quot;strokeWidth&quot;:0.5}]}" fill="#ffd200" stroke="none" stroke-width="0.25" stroke-linecap="butt"/><path d="M486.42635,238.82617c-0.68751,2.94852 -1.54328,6.42841 -1.16021,8.31901c0.40604,2.00401 2.85708,3.53866 4.07411,4.87324c3.67502,4.02991 6.45041,9.49598 9.74683,13.87616c3.17506,3.18987 6.14266,6.63343 8.86998,10.18404c-1.72873,1.93256 -3.97719,4.50483 -6.0615,7.15107c-0.11502,-0.11281 -0.26479,-0.20804 -0.45605,-0.26766c-0.56746,-0.7377 -1.15069,-1.46494 -1.7347,-2.18954c-9.51266,-7.62932 -14.82919,-19.49397 -24.11403,-27.23981c0,0 -0.21115,-0.17684 -0.52116,-0.27131c1.69818,-1.54265 1.72131,-3.017 0.92346,-4.16266l0.44674,-0.02939c3.03087,-3.85233 6.83845,-9.22317 7.22542,-14.48214c0.01402,0.02405 0.02825,0.04812 0.04246,0.07222c0.69251,1.17486 1.41,1.69655 2.08188,1.77897c-0.17871,0.19442 -0.24106,0.73228 -0.24106,1.14648c0,0.80921 0.4947,1.12146 0.87782,1.24129z" data-paper-data="{&quot;noHover&quot;:false,&quot;origItem&quot;:[&quot;Path&quot;,{&quot;applyMatrix&quot;:true,&quot;segments&quot;:[[[467.21429,386.78573],[0,0.61518],[0,-0.31488]],[[467.44931,386.10731],[-0.13586,0.1478],[-0.51078,-0.06266]],[[465.87255,384.75317],[0.52646,0.89316],[-0.0108,-0.01832]],[[465.84035,384.69825],[0.01066,0.01828],[-0.29418,3.998]],[[460.40041,395.66741],[2.30414,-2.92864],[0,0]],[[460.06157,395.68851],[0,0],[0.60654,0.87096]],[[459.36955,398.83213],[1.291,-1.17276],[0.23568,0.07182]],[[459.76593,399.03789],[0,0],[7.05856,5.88858]],[[477.96825,419.62063],[-7.23176,-5.8],[0.44398,0.55086]],[[479.28393,421.28637],[-0.4314,-0.56082],[0.1454,0.04532]],[[479.62951,421.49033],[-0.08744,-0.08576],[1.58454,-2.01174]],[[484.20769,416.07365],[-1.31422,1.46918],[-2.07338,-2.69926]],[[477.46019,408.33587],[2.41376,2.42502],[-2.50602,-3.3299]],[[470.15413,397.95005],[2.79384,3.06364],[-0.92522,-1.01458]],[[466.97961,394.06173],[0.30868,1.5235],[-0.29122,-1.43728]],[[467.88401,387.72875],[-0.52266,2.24154],[-0.29126,-0.0911]]],&quot;closed&quot;:true,&quot;fillColor&quot;:[0,0,0],&quot;strokeWidth&quot;:0.5}]}" fill="#ffd200" stroke="none" stroke-width="0.25" stroke-linecap="butt"/><path d="M459.11137,201.36528c-0.74402,-0.44521 -1.62047,-0.62245 -2.54717,-0.59814c-1.31387,-0.87258 -2.57621,-1.87347 -3.96512,-2.66876c1.38893,-0.0136 3.49502,-0.35729 3.78036,-0.42895c2.49931,-0.62768 5.51742,-1.53378 7.24722,-3.59678c10.11769,-1.94495 19.48734,-3.21405 30.50642,-3.21405c5.66859,-0.01739 9.51448,6.17678 8.1674,11.59315c-1.03264,4.15214 -5.27015,5.74483 -8.07737,8.22054c-0.08608,0.01534 -0.41556,-0.09497 -0.52466,-0.05356c-1.67529,-3.66055 -4.96774,-5.1323 -8.81813,-5.55957c0.52148,-0.21096 0.51009,-0.8869 0.51009,-0.8869c0.50988,-1.34779 2.96525,-1.45902 3.16591,-2.88599c0.43061,-3.06257 -2.68576,-2.55866 -4.07827,-2.59392c-4.14162,-0.10484 -7.94754,-0.60032 -12.06811,-0.81886c-0.23856,-0.12046 -0.54358,-0.17737 -0.9313,-0.05112c-0.81318,-0.03317 -1.62399,-0.06606 -2.4452,-0.06606l-1.25384,-0.00505c0,0 -1.31106,-0.01857 -1.31106,1.29683c0,1.3154 1.31687,1.30098 1.31687,1.30098l0.99276,-0.01318c0.6427,0 1.53912,0.02857 2.16654,0.05238c0.45237,1.62497 0.27529,3.17856 -0.07677,4.89984l-0.02965,0.56607c0,0 -0.0196,1.29443 1.2958,1.29443c0.1398,0 0.26158,-0.01747 0.37323,-0.04404c-0.15119,0.26684 -0.22391,0.62239 -0.03602,1.09212c0.02844,0.07114 -0.08811,0.35429 -0.05506,0.41427c-4.44595,-0.32814 -10.16999,-0.43537 -10.78797,1.24921c-0.03412,0.093 -0.06196,0.18476 -0.08521,0.27302c-0.82481,-0.04662 -1.65348,-0.06953 -2.47637,-0.05451c0.78808,-0.86219 0.64857,-1.73217 -1.36912,-2.3246c0.86787,-0.51698 1.79613,-1.29877 2.40147,-2.17096l0.7758,0.24127c0.20176,0.12586 0.43913,0.19571 0.69443,0.19571c0.72647,0 1.06319,-0.51443 1.06319,-1.2409c0,-0.46384 -0.24235,-0.88163 -0.60498,-1.11583l-1.29969,-0.874l0.2203,0.03023l-0.33043,-0.01031l-0.08753,-0.12941c-0.01913,-0.00479 -0.03825,-0.00976 -0.05733,-0.01468c-0.25432,-0.45292 -0.69251,-0.89958 -1.36154,-1.29993z" data-paper-data="{&quot;noHover&quot;:false,&quot;origItem&quot;:[&quot;Path&quot;,{&quot;applyMatrix&quot;:true,&quot;segments&quot;:[[[447.24305,359.34395],[0,0],[0.50862,0.30436]],[[448.27759,360.32441],[-0.19334,-0.34432],[0.0145,0.00374]],[[448.32115,360.33545],[-0.01454,-0.00364],[0,0]],[448.38759,360.43303],[448.44019,360.46459],[448.47131,360.41791],[[449.45841,361.07597],[0,0],[0.2757,0.17804]],[[449.91663,361.91663],[0,-0.35262],[0,0.55228]],[[448.91663,362.91663],[0.55228,0],[-0.19408,0]],[[448.38803,362.76565],[0.15338,0.09568],[0,0]],[[447.99049,362.52713],[0,0],[-0.4602,0.66304]],[[446.16277,364.17091],[0.65978,-0.39302],[1.5339,0.45038]],[[447.19861,365.92635],[0.59912,-0.65546],[0.62558,-0.01142]],[[449.07825,365.96231],[-0.62704,-0.03544],[0.01768,-0.0671]],[[449.14355,365.75565],[-0.02594,0.0707],[0.4698,-1.28066]],[[457.31307,364.77195],[-3.37992,-0.24946],[-0.02512,-0.0456]],[[457.24281,364.62261],[0.02162,0.05408],[-0.14284,-0.3571]],[[457.26433,363.78797],[-0.11494,0.20286],[-0.08488,0.0202]],[[456.97817,363.81945],[0.10628,0],[-1,0]],[455.97817,362.81945],[[455.99759,362.38471],[0,0],[0.26764,-1.30856]],[[456.03933,358.59793],[0.3439,1.23534],[-0.47698,-0.0181]],[[454.59193,358.56973],[0.4886,0],[0,0]],[453.63745,358.56973],[[452.63745,357.56973],[0,1],[0,-1]],[453.63745,356.56973],[[454.59193,356.56973],[0,0],[0.6243,0]],[[456.45519,356.60965],[-0.6182,-0.02522],[0.29476,-0.09598]],[[457.16603,356.64311],[-0.18136,-0.09158],[3.13256,0.16614]],[[466.52311,357.28561],[-3.14856,-0.0797],[1.05862,0.0268]],[[469.62781,359.29127],[0.32736,-2.32824],[-0.15254,1.08482]],[[467.21295,361.52049],[0.38762,-1.02462],[0,0]],[[466.64695,362.10479],[0.39644,-0.16038],[2.92716,0.32482]],[[473.52251,366.43367],[-1.2736,-2.78284],[0.08294,-0.03148]],[[473.74995,366.37139],[-0.06544,0.01166],[2.13412,-1.8821]],[[479.87681,360.16629],[-0.78504,3.15656],[1.02406,-4.11766]],[[473.68181,351.41105],[4.3094,-0.01322],[-8.37698,0]],[[450.66585,353.84639],[7.69172,-1.4786],[-1.31504,1.56834]],[[445.16517,356.55193],[1.90004,-0.47718],[-0.21692,0.05448]],[[442.29175,356.87417],[1.0559,-0.01034],[1.05588,0.6046]],[[445.30671,358.89243],[-0.99884,-0.66336],[0.7045,-0.01848]],[[447.24307,359.34395],[-0.56562,-0.33846],[0,0]]],&quot;closed&quot;:true,&quot;fillColor&quot;:[0,0,0],&quot;strokeWidth&quot;:0.5}]}" fill="#ffd200" stroke="none" stroke-width="0.25" stroke-linecap="butt"/><path d="M445.93601,232.29939c0,-0.72647 0.58893,-1.3154 1.3154,-1.3154c0.72647,0 1.3154,0.58893 1.3154,1.3154c0,0.72647 -0.58893,1.3154 -1.3154,1.3154c-0.72647,0 -1.3154,-0.58893 -1.3154,-1.3154z" fill="#000000" stroke="none" stroke-width="0.5" stroke-linecap="butt"/><path d="M436.51945,227.90498c0,-0.72647 0.58893,-1.3154 1.3154,-1.3154c0.72647,0 1.3154,0.58893 1.3154,1.3154c0,0.72647 -0.58893,1.3154 -1.3154,1.3154c-0.72647,0 -1.3154,-0.58893 -1.3154,-1.3154z" fill="#000000" stroke="none" stroke-width="0.5" stroke-linecap="butt"/><path d="M510.92118,291.81005c-1.12793,-0.67677 -0.45116,-1.8047 -0.45116,-1.8047l0.8427,-1.36699c0.47691,-2.44736 1.8882,-4.98876 1.79481,-7.37279c0,0 0,-1.3154 1.3154,-1.3154c1.3154,0 1.3154,1.3154 1.3154,1.3154c-0.07161,2.88083 -1.38354,5.44944 -1.97181,8.32146l-1.04061,1.77187c0,0 -0.67677,1.12796 -1.80473,0.45118z" fill="#000000" stroke="none" stroke-width="0.5" stroke-linecap="butt"/><path d="M413.87065,194.00301l9.99704,-5.52468h4.20928" fill="none" stroke="#000000" stroke-width="1" stroke-linecap="round"/><path d="M518.26782,235.408c-7.45885,4.13638 -15.42331,6.60707 -24.88119,6.60707c0,0 -1.3154,0 -1.3154,-1.3154c0,-1.3154 1.3154,-1.3154 1.3154,-1.3154c1.81599,0 3.57197,-0.09518 5.27628,-0.27931c0.04672,-0.22049 0.0975,-0.42811 0.15222,-0.62379l-0.68572,-0.34287l0.26363,-0.52729c-2.59686,0.69616 -5.35029,1.09057 -8.29492,1.11556c0,0 -1.3154,0 -1.3154,-1.3154c0,-1.3154 1.3154,-1.3154 1.3154,-1.3154c7.37827,0.08282 13.54113,-2.56369 19.03321,-6.49918c0.77948,-1.49358 1.61681,-2.99051 3.05618,-4.29644c0.97597,-0.8855 2.26288,-1.23437 3.68133,-1.36318c2.95355,-2.81172 5.75559,-5.85616 8.51719,-8.83941c7.22928,-8.39886 11.86696,-18.69492 18.60994,-27.16983c2.33102,-2.92974 3.83981,-3.22213 5.07971,-6.92393l0.69666,-1.4008c0,0 0.58825,-1.17652 1.76479,-0.58825c1.17655,0.58825 0.58825,1.76479 0.58825,1.76479l-0.61874,1.23c-1.28459,3.89814 -3.06709,4.56586 -5.4435,7.54548c-6.77723,8.49749 -11.45248,18.86034 -18.71452,27.29451c-2.21342,2.39187 -4.43424,4.77517 -6.71804,7.04115c1.99102,0.02262 3.9477,-0.03609 5.46088,-0.89816c3.90445,-2.22439 6.98885,-5.65804 10.95158,-7.63022l-0.03741,-0.04988l0.80947,-0.60708l-0.06874,-0.10805l1.43037,-0.91023c0.20744,-0.13667 0.45581,-0.2162 0.72279,-0.2162c0.72647,0 1.3154,0.58893 1.3154,1.3154c0,0.43582 -0.21196,0.82215 -0.53842,1.0615l-1.8494,1.38706c-0.80873,2.56821 -2.99019,5.57361 -5.84932,8.39823c-0.06075,0.093 -0.13293,0.17784 -0.21457,0.25253l-1.08515,0.99926l-0.01126,-0.01223c-0.00145,0.00134 -0.00292,0.00263 -0.00439,0.00397l-0.01847,0.03862c-0.07345,0.0588 -0.14685,0.11744 -0.22028,0.17597c-1.95024,1.73988 -4.12436,3.36361 -6.34504,4.71353c-0.57691,0.39396 -1.15537,0.77877 -1.73588,1.154c-1.13869,0.98887 -2.1998,1.82265 -2.80236,2.37919zM520.03985,226.8444c-0.01431,0.00281 -0.02865,0.0056 -0.04299,0.00839c-0.61074,0.11849 -1.98531,-0.10279 -3.27845,-0.17974c-1.66482,1.52429 -3.37311,2.96652 -5.14477,4.28789c-0.02728,0.04949 -0.05448,0.09894 -0.08163,0.1483c2.19867,-1.27917 4.38728,-2.55164 7.11753,-3.49218c0.30646,-0.10555 0.81463,-0.39907 1.43031,-0.77264zM501.73661,238.66824c-0.15359,-0.01021 -0.31317,-0.02131 -0.47938,-0.03273l-0.13741,0.13741c0.20633,-0.03357 0.41193,-0.06845 0.61679,-0.10468zM506.03934,237.68927c1.40685,-0.39299 2.78202,-0.85009 4.13157,-1.3667c-0.21233,-0.23362 -0.34177,-0.54394 -0.34177,-0.8845c0,-0.23775 0.06309,-0.46076 0.1734,-0.65323c-0.4214,0.1836 -0.84188,0.36231 -1.26118,0.53495c-0.55915,0.62174 -1.21217,1.21746 -2.00917,1.78047c-0.24448,0.22459 -0.47381,0.41974 -0.69287,0.58898zM513.87741,232.99931c-0.24503,0.11718 -0.49004,0.23388 -0.73497,0.3499l0.01639,0.04099c0.23853,-0.13151 0.4781,-0.26174 0.71858,-0.39086zM528.16208,225.13062c0.28841,-0.21194 0.57259,-0.4284 0.85217,-0.64986l-0.04238,-0.08474l0.38933,-0.19465c1.35457,-1.10909 2.59326,-2.34302 3.66868,-3.7546c-2.27159,1.53541 -4.37415,2.97307 -6.61631,4.13086c0.27913,0.33616 0.46081,0.68895 0.55931,1.05385c0.39904,-0.18042 0.79576,-0.34803 1.18917,-0.50085z" fill="#ffd200" stroke="none" stroke-width="0.5" stroke-linecap="butt"/><path d="M532.19094,111.13273c0,1.3154 -1.3154,1.3154 -1.3154,1.3154l-1.46165,-0.1035c-1.20735,1.33387 -0.9533,3.71382 -1.17168,5.44684c0.00403,4.03336 -1.34694,10.82127 0.52132,14.45699c1.96342,3.8209 3.61598,7.40394 5.04014,11.08178c0.6607,-2.09022 1.46349,-4.07661 2.35662,-5.12877c-0.02531,-2.10414 -0.02315,-4.13149 -0.02315,-6.0223c0,-2.41668 -1.63849,-12.68099 2.8415,-12.47931c2.9128,0.13112 1.76287,8.83989 1.7624,10.50621c-0.00268,9.43458 1.02856,18.88121 1.26741,28.35688c0.14172,1.41766 0.28328,2.83535 0.42474,4.25303c0.99955,1.47596 2.91737,2.97993 3.9547,4.06175c0.54586,0.56925 1.56669,2.24544 1.88318,2.06665c-0.25966,-4.51853 -0.65052,-9.0253 -1.23061,-13.51203c-0.56802,-4.40109 -1.21893,-8.61714 -2.27149,-12.92923l0.03888,-0.14419l-0.05014,0.00121l-0.06317,-2.62491c-0.00034,-0.01221 -0.0005,-0.02447 -0.0005,-0.03678c0,-0.54415 0.3304,-1.01112 0.80155,-1.21125c-0.23585,-2.76902 -0.37323,-6.13503 -0.62689,-9.59182c-1.33808,-5.12843 -2.88157,-10.26462 -4.00134,-15.39847l-0.06672,0.03186l-1.13377,-2.37396l0.66175,-0.31606c-0.08216,-0.44166 -0.16037,-0.88327 -0.23422,-1.32487l1.15511,0.67835l0.53447,-0.53447l1.86027,1.86027l-0.05075,0.05075l0.18773,0.11026c3.10524,6.35562 3.55726,16.12726 4.12533,23.92298c0.6215,3.66902 1.13753,7.27906 1.55351,10.94353c5.09289,13.69711 7.12979,29.68864 9.96742,43.47133c3.62364,17.62105 6.33036,36.10166 7.42712,54.03968c0.66099,10.92919 3.60922,21.77214 5.15716,32.6042c0.20904,1.46286 2.32084,9.84046 0.5713,11.00809c-3.23717,2.16047 -5.40659,-1.57098 -7.22113,-3.39973c-5.60366,-8.90552 -10.05071,-19.01861 -13.99781,-29.26164c-0.04559,0.49572 -0.10657,0.9866 -0.18639,1.47091c0.02794,0.18926 0.05562,0.37878 0.08303,0.56862l-0.16585,0.09518h0.16929v1.9731c0,0.72647 -0.58893,1.3154 -1.3154,1.3154c-0.72647,0 -1.3154,-0.58893 -1.3154,-1.3154v-1.90128c-0.84204,-5.70489 -1.90449,-11.14099 -2.59008,-16.67515c-0.88492,-2.47422 -1.75848,-4.92581 -2.63027,-7.33912c-0.92407,-2.55801 -1.7599,-5.17521 -2.51962,-7.83697c-0.09345,-0.14643 -0.18766,-0.29323 -0.28276,-0.44021c-4.1152,-6.35986 -5.67527,-14.43933 -6.20445,-22.29954c-0.04441,-0.12223 -0.08887,-0.24443 -0.13333,-0.36663c-4.3046,-11.83021 -5.29846,-28.02111 -3.81411,-41.96454c-0.49343,-3.67749 -0.85572,-7.35288 -0.89513,-11.01251h-0.00355v-1.9731c0,-0.72647 0.58893,-1.3154 1.3154,-1.3154c0.72647,0 1.3154,0.58893 1.3154,1.3154v1.3154c0,0.22785 0.00132,0.45579 0.00392,0.6838c0.01176,0.03089 0.02349,0.06177 0.0352,0.09266c0.18539,-0.84941 0.4485,-2.00891 0.77659,-3.27372c-1.83004,-4.41196 -4.6174,-8.57625 -6.59608,-12.69917c-2.05718,-4.2865 -0.79847,-11.12455 -0.79408,-15.79722c0.42887,-3.45727 0.24761,-5.176 2.77452,-7.70717l2.48455,-0.1035c0,0 1.3154,0 1.3154,1.3154zM551.36654,185.63403c0.04688,8.28137 -0.10229,16.56776 -0.10229,24.81142c0,2.21571 0,4.43143 0,6.64717c1.32208,5.81707 2.61657,11.63587 4.17158,17.35331c0.07848,-2.06618 0.24059,-4.05972 0.20878,-5.55449c-0.26048,-12.24214 -1.00589,-23.68692 -3.04955,-35.76311c-0.42293,-2.49916 -0.83244,-4.997 -1.22853,-7.49428zM532.43782,173.29374c0.03354,6.31308 0.58349,12.67449 1.72286,18.52557c-0.00297,-1.29869 -0.00773,-2.5976 -0.01365,-3.89669c-0.34642,-3.01003 -0.66728,-5.99449 -0.97811,-8.93454c-0.20013,-1.89305 -0.45279,-3.7918 -0.7311,-5.69434zM547.97577,230.24218c0.02552,0.06043 0.05104,0.12083 0.07658,0.18124c0.18689,0.12399 0.38033,0.2389 0.58109,0.34382c0,-4.48139 0,-8.96274 0,-13.44413c-0.03425,-0.18168 -0.06843,-0.36339 -0.10252,-0.54513c-0.10223,-0.44516 -0.20476,-0.89026 -0.3077,-1.33529c-0.07979,4.9303 -0.24748,9.86479 -0.24748,14.73375c0,0.02191 0,0.04383 0.00003,0.06572zM551.2693,245.30362c0.01034,0.69824 0.03541,1.40945 0.06482,2.1285c4.48399,12.20415 9.47557,24.5409 16.08661,35.19914c0.34913,0.346 2.91074,3.43117 3.30208,3.17727c0.25458,-0.16519 -1.23206,-8.19226 -1.3154,-8.7758c-1.55767,-10.9072 -4.49891,-21.81089 -5.17871,-32.81569c-1.0891,-17.81257 -3.77154,-36.17383 -7.37798,-53.66971c-1.82091,-8.84441 -3.7299,-17.5934 -5.89762,-26.31761c1.21761,9.49564 2.62943,18.96707 4.23585,28.45961c2.49218,14.72659 6.03727,33.98687 3.12318,49.3257h0.18679v2.6308c0,0.69261 -0.53532,1.26021 -1.21477,1.31161c0.06472,0.28931 0.12954,0.57872 0.19447,0.86819l0.32469,1.45152c0.02478,0.10089 0.03794,0.20636 0.03794,0.31491c0,0.72647 -0.58893,1.3154 -1.3154,1.3154c-0.27639,0 -0.5329,-0.08526 -0.74462,-0.23091l-2.17399,-1.44933l0.24364,-0.36547c-1.06171,-0.76188 -1.88897,-1.61155 -2.58158,-2.55814zM548.67115,202.26109c0.079,-10.33744 0.21604,-20.71987 -0.28047,-31.04819c-1.68056,-0.18197 -3.75478,-1.82549 -5.48372,-3.64737c0.20447,2.05042 0.40891,4.10084 0.61358,6.15121c2.01067,9.05251 3.54229,18.26249 4.87482,26.79863c0.09095,0.58256 0.18289,1.16445 0.27581,1.74569zM536.35768,144.87141c-0.42482,1.01502 -0.73231,1.91007 -0.9905,2.81438c0.17695,0.53439 0.35003,1.07321 0.51945,1.61736c0.08111,-0.01563 0.16485,-0.02384 0.2505,-0.02384c0.19418,0 0.37855,0.04207 0.54444,0.11762c-0.14156,-1.50292 -0.24635,-3.01784 -0.3239,-4.52553zM551.26425,234.09531c0,1.23987 0,2.47974 0,3.71958c0.962,2.15184 1.94143,4.2866 2.93987,6.40137c-0.7456,-3.372 -1.47775,-6.73593 -2.1913,-10.09907c-0.05693,0.00545 -0.09084,0.00545 -0.09084,0.00545c-0.22454,-0.00347 -0.44368,-0.01265 -0.6577,-0.02733zM536.97734,163.62649c0.00087,0.14956 0.00168,0.29912 0.00245,0.44871c1.84182,6.5176 3.47781,13.159 5.23285,19.68905c-0.17913,-0.9232 -0.34656,-1.84709 -0.49567,-2.77197c-1.07863,-4.39946 -2.24634,-8.79077 -3.45685,-13.22932c-0.32338,-1.18568 -0.80232,-2.60886 -1.28275,-4.13646zM536.92786,177.25162c-0.03538,3.63937 -0.07863,7.27798 -0.10602,10.9128c0.85141,7.35351 1.86105,14.85469 3.26332,22.22072c1.72662,4.58275 3.49818,9.14456 5.32832,13.66064c0.12573,-6.52596 0.35768,-13.11399 0.09939,-19.60383c-0.70213,-2.61396 -1.4552,-5.21212 -2.28532,-7.78549c-2.07525,-6.43331 -4.26211,-12.90008 -6.29969,-19.40484zM534.17028,153.02594c-0.07414,0.39488 -0.14604,0.79327 -0.21565,1.19488c0.06198,0.1836 0.12365,0.36739 0.185,0.55142c0.00934,-0.58214 0.01955,-1.16426 0.03065,-1.7463zM551.26425,230.55522c0,0.30807 0,0.61613 0,0.92417c0.06432,0.00389 0.12925,0.00702 0.19476,0.00934c-0.06509,-0.31117 -0.13001,-0.62234 -0.19476,-0.93351z" fill="#ffd200" stroke="none" stroke-width="0.5" stroke-linecap="butt"/></g></g></svg>