<svg version="1.1" xmlns="http://www.w3.org/2000/svg" xmlns:xlink="http://www.w3.org/1999/xlink" width="206.22109" height="266.55306" viewBox="0,0,206.22109,266.55306"><g transform="translate(-381.91654,-96.01859)"><g data-paper-data="{&quot;isPaintingLayer&quot;:true}" fill-rule="nonzero" stroke-linejoin="miter" stroke-miterlimit="10" stroke-dasharray="" stroke-dashoffset="0" style="mix-blend-mode: normal"><path d="M415.18606,151.38405c0,1.3154 -1.3154,1.3154 -1.3154,1.3154h-1.3154c-1.04093,-0.00329 -2.08291,-0.11255 -3.11013,-0.281c0,0 -1.29751,-0.21625 -1.08126,-1.51376c0.21625,-1.29748 1.51376,-1.08123 1.51376,-1.08123c0.88363,0.15001 1.78134,0.24851 2.67763,0.24519h1.3154c0,0 1.3154,0 1.3154,1.3154z" fill="#000000" stroke="none" stroke-width="0.5" stroke-linecap="butt"/><path d="M425.90412,107.84183c0,0 -0.62017,1.0853 -1.70548,0.46513c-0.21299,-0.12171 -0.36029,-0.26133 -0.45949,-0.40714c-2.03314,1.37419 -4.36504,2.80064 -5.94582,4.3818c-2.91384,2.91453 -4.33198,7.01837 -5.72069,10.87666c0.16384,-0.06813 0.32744,-0.13669 0.49049,-0.2062c-0.01081,0.26968 -0.01355,0.53925 -0.0079,0.80861c0,0 0,0.69429 -0.50443,1.07405c-0.04575,0.06075 -0.09602,0.11418 -0.14914,0.16119c1.70834,9.1123 -11.49523,15.03479 -11.44814,23.75737c0,7.09164 0.47068,14.20577 0.52206,21.24882c0.2177,0.2404 0.30067,0.54113 0.3323,0.73547l0.07579,-0.02644c0,0 0.93015,0.93015 0,1.86027c-0.01878,0.01878 -0.03754,0.03678 -0.0563,0.05409l0.00003,0.19018c0,0 0,0.99455 -0.8648,1.25408c1.75017,0.02239 3.5042,0.06532 5.25881,0.12054c0.01197,-0.26532 0.09047,-0.63281 0.39212,-0.90115c-0.13525,-0.30691 -0.13525,-0.59559 -0.13525,-0.59559l0.00447,-1.42389c0.16566,-0.99402 0.35505,-2.02743 0.50632,-3.06359c-0.38754,-0.10599 -0.6517,-0.37015 -0.6517,-0.37015l-0.8859,-1.1983c-0.31354,-1.60392 -0.28863,-3.09945 -0.28863,-4.73034c0,-1.68611 -0.02433,-3.83558 0.04741,-6.17638c-0.03031,-0.11775 -0.04741,-0.25061 -0.04741,-0.40062c0,-0.19739 0.02962,-0.36513 0.07995,-0.50772c0.32135,-7.79622 1.83372,-17.26384 8.74081,-18.90362c-0.13243,-0.2846 -0.43232,-1.15161 0.49951,-1.7107c1.12793,-0.67677 1.8047,0.45116 1.8047,0.45116c5.77269,9.66604 9.92141,15.912 9.92141,27.77402c0,4.25866 -0.13262,8.48039 -2.65598,11.87109l-0.1137,0.29268c0,0 -0.05306,0.10613 -0.15919,0.23867c2.08901,0.05767 4.1634,0.09384 6.21735,0.09384c1.3415,0 3.01613,0.3228 4.34711,0.10434c-0.22401,-0.19344 -0.40091,-0.49893 -0.40091,-0.98129c0,-1.3154 1.3154,-1.3154 1.3154,-1.3154c6.87081,0 14.17928,-3.36035 21.20712,-1.74401c6.72212,1.54602 0.67264,6.65672 -2.6619,7.43769c-0.55339,-0.10018 -0.9071,0.04275 -1.24029,0.26708c4.07266,0.3706 10.72309,2.24297 9.71768,5.19544c-0.26545,0.77951 -1.76477,1.58903 -3.37192,2.26217c3.52248,0.22033 7.60499,1.51755 7.14802,5.04882c4.7135,-0.87548 9.25868,-1.59387 13.91191,-2.09772c-0.07592,-0.24106 -0.07592,-0.4375 -0.07592,-0.4375l0.52616,-0.20323c-1.19309,-0.89852 -5.02046,-2.49979 -5.4617,-3.72172c-0.67267,-1.86284 2.8777,-8.86256 3.79543,-10.73877c3.20989,-7.66042 1.12717,-24.04007 -4.75233,-29.91957c0,0 -0.58577,-0.58575 -0.36276,-1.29243c-2.27338,0.44855 -4.85322,0.3309 -7.99227,-0.21833c-2.22589,-0.38944 -8.2206,-2.5876 -7.34314,-6.11303c0.54305,-2.18193 5.48267,-3.59052 6.53188,-5.15419c8.32527,-8.23551 18.98194,-14.27865 29.28294,-19.46169c2.75374,-1.37686 5.02949,-2.60002 8.04402,-3.22499c-0.00145,-0.00318 -0.00292,-0.00637 -0.00437,-0.00952l-0.22049,0.0282c0,0 0.06085,-0.06085 0.16695,-0.13583c-0.38925,-0.72763 -1.29988,-1.38138 -2.93832,-2.03677c-7.67489,0.0935 -13.81412,1.68598 -21.24729,2.83866c-5.29317,0.82084 -10.71354,0.4057 -15.75424,2.13971c0,0 -0.6637,0.22122 -1.18439,-0.14301c-4.1421,2.08934 -8.20207,4.59609 -12.4911,6.20852c-0.09312,0.68447 -0.21478,1.37636 -0.35699,2.09607l-2.17541,1.05196c0,0 -1.24856,0.06003 -1.30859,-1.18852c-0.01891,-0.39338 0.09207,-0.66877 0.25298,-0.86149c-1.26265,0.29105 -2.55073,0.48058 -3.87145,0.5384l0.0492,0.39349l-2.08407,0.2605c-0.06003,0.00839 -0.12139,0.01273 -0.18374,0.01273c-0.55812,0 -1.03506,-0.34761 -1.22614,-0.83813c3.07635,-0.18364 6.00292,-0.76763 8.38511,-2.21473c0.06078,-1.07964 0.052,-2.11938 0.17667,-3.35081c0.05564,-0.54954 0.75342,-1.2223 0.36612,-1.61612c-0.38262,-0.38905 -1.05358,0.30299 -1.59561,0.36595c-1.45497,0.16902 -2.84279,0.71676 -4.28412,0.97762c-0.70992,0.12848 -1.47585,-0.34317 -2.16115,-0.11767c-0.37165,0.12229 -0.28156,0.768 -0.5809,1.01994c-1.06275,0.89445 -5.59306,4.36058 -7.09642,1.9601c-0.48955,-0.78169 0.6764,-1.71753 0.95895,-2.59552c0.12444,-0.38669 0.30184,-0.74943 0.50536,-1.10061c0.2683,-1.05271 0.85412,-2.00529 1.50835,-2.96844c-0.05805,-0.28458 -0.15293,-0.57834 -0.05212,-0.83323c0.70542,-1.78363 2.53392,-2.36991 2.44092,-4.4393c-0.00732,-0.29828 0.04176,-0.60506 0.01756,-0.9008c-0.17296,0.02854 -0.35013,0.05967 -0.53079,0.09345c-0.18486,0.28665 -0.39775,0.61847 -0.60223,0.72602c-0.7264,0.38204 -1.55188,0.53871 -2.34363,0.75492c-1.27099,0.34708 -2.38219,0.49437 -3.44631,0.75854c-1.05331,0.64442 -1.90148,1.42199 -2.3464,2.34615zM438.40407,101.45239c0.57432,0.71342 -0.0239,1.84055 -0.19178,2.7409c-0.46915,2.51605 -2.24132,4.75068 -3.52501,6.87712c-0.56893,0.94244 -1.23998,1.41823 -1.23388,2.14861c0.58251,-0.33328 1.21984,-0.58405 1.73629,-1.0104c0.46427,-0.38326 0.56965,-1.19169 1.13163,-1.40758c0.8841,-0.33962 1.91064,0.07053 2.83885,-0.11767c1.8148,-0.36794 6.32297,-2.44388 8.12027,-0.65644c0.80444,0.80003 0.28914,2.25196 0.36612,3.38389c0.03393,0.49896 0.04739,0.98285 0.04291,1.45806c0.02667,-0.00585 0.05315,-0.01177 0.07941,-0.01776c3.85794,-0.88011 5.22419,-4.58467 9.00663,-6.24899c1.8062,-0.79474 4.14885,-0.7688 6.10517,-1.46917l0.83433,-0.8765c0,0 0.93012,-0.93012 1.86027,0v0.00005c0.58262,0.58262 0.43534,1.16526 0.24398,1.51926c3.54808,-0.45934 7.16162,-0.51722 10.77542,-1.08044c7.69901,-1.19993 14.09591,-2.88865 22.06892,-2.81127c7.70201,3.0808 5.5285,6.78562 1.48703,13.30049c-1.92851,3.10874 -4.04449,5.60503 -6.28559,7.8637c4.91705,0.50206 11.62477,2.16486 14.6941,4.45484l1.49779,0.89868c0.39407,0.22722 0.65931,0.65281 0.65931,1.14035c0,0.56462 -0.35574,1.04616 -0.8553,1.23271l-1.54099,0.6164l-0.08124,-0.20305c-5.75411,3.06473 -12.18684,3.24875 -18.27504,5.27523c-4.09063,1.36157 -8.18687,3.59194 -12.65431,3.79598c-0.22483,0.18705 -1.01075,0.72918 -1.79663,-0.05669c-0.08584,-0.08584 -0.15585,-0.17171 -0.2122,-0.25682c-0.16856,0.07642 -0.33845,0.14869 -0.50985,0.21691c0.04612,0.03786 0.07122,0.06298 0.07122,0.06298c6.79136,6.79136 8.73481,23.95931 5.29199,32.85755c-0.49341,0.96103 -3.83705,8.50751 -3.73782,8.7221c0.05793,0.12528 3.998,2.11958 4.58264,2.55601l0.52616,2.30787c0,0 0,0.07337 -0.01734,0.18547c3.99979,-0.36102 8.11402,-0.5592 12.5129,-0.5592c7.3457,0.01963 12.46747,7.743 10.68423,14.84971c-1.25247,4.99142 -6.09499,6.49382 -9.12633,9.68169l-1.06753,0.33061c0.45394,3.12381 -0.11281,7.14239 -0.12304,9.85487c-0.34763,1.77219 -2.75,9.25634 -5.3897,10.31366c-0.09495,0.27992 -0.20625,0.55833 -0.33195,0.82773c1.14561,0.22507 1.01175,1.42971 1.01175,1.42971c-0.01105,0.09879 -0.02552,0.20549 -0.04312,0.31946c1.70457,-0.28521 3.41765,-0.81542 5.12222,-1.54025c-0.13835,0.9454 -0.1816,1.88899 -0.12249,2.84329c-1.85771,0.71224 -3.7264,1.20767 -5.58803,1.43202v-0.00001c-0.0502,0.20891 -0.10171,0.42188 -0.15395,0.63773c0.22788,0.11744 0.36944,0.25898 0.36944,0.25898c1.21517,1.37499 3.6721,1.51368 6.1124,1.39803c0.25537,0.77125 0.57686,1.55833 0.96777,2.36706c-3.02082,0.0895 -5.6809,0.45776 -8.10479,-1.22966c-0.40651,1.86098 -0.68419,3.56516 -0.46734,4.37689c0.06327,0.23682 0.17832,0.47636 0.33032,0.71555c0.01844,-0.03991 0.03907,-0.0805 0.06198,-0.12173c0.63881,-1.14987 1.78868,-0.51106 1.78868,-0.51106c8.59646,4.87648 15.86699,13.62718 23.85174,19.76918c0.16884,-0.08753 0.30125,-0.12062 0.30125,-0.12062l1.57459,-0.35316c0.02733,0.00008 0.05546,0.00005 0.08437,-0.00005c2.60097,-2.53501 4.71839,-2.88025 5.95505,0.48152c0.52116,1.41674 3.36195,-1.14566 4.52498,-0.18329c0.53934,0.44629 0.72728,1.42079 0.78553,2.39729c5.78016,-0.93109 15.42318,-3.39455 18.25376,-0.40059c1.881,1.9896 1.57372,6.30416 1.50269,9.13159c2.07126,2.40376 2.25357,6.00696 2.9878,9.17297c2.2923,9.88423 2.37638,19.43102 2.37638,29.68214c0,14.45423 -5.23182,27.18856 -10.93619,40.02761c-0.63694,1.14611 -1.67227,5.30112 -2.87084,5.97697c-3.37761,1.90462 -6.85823,-2.59097 -8.84104,-4.58322c-5.73275,-5.76003 -8.02171,-13.75006 -11.00285,-20.95788c-2.17028,-10.68103 -3.50728,-19.47232 -3.50728,-30.50785v-1.67306c-0.01392,-0.13241 -0.00881,-0.28034 0.0212,-0.44555c0.07035,-0.38686 0.2353,-0.63707 0.43203,-0.79774c0.03475,-0.02965 0.07216,-0.05775 0.11244,-0.0839c-2.2582,0.25535 -4.50317,-1.02015 -6.14424,-2.66121c-0.5833,-0.5833 -0.44219,-2.1174 -1.26707,-2.12579c-5.58319,-0.05685 -12.35871,4.1187 -12.27766,-5.95855c0.87108,-2.11038 2.59505,-4.7416 4.57836,-7.38971l-0.57236,0.26666c-0.67843,-0.90479 -1.37233,-1.79799 -2.07502,-2.68407c-9.46552,-7.55287 -14.55335,-19.24433 -23.76726,-26.91378c0,0 -0.71745,-0.59785 -0.43955,-1.39056c-3.44935,1.18068 -9.60997,0.14622 -11.74913,-1.39259l-0.31822,-0.21128c-0.13191,0.63052 -0.3444,1.16229 -0.67217,1.52684c-2.77492,3.0864 -6.73251,0.60648 -9.962,-1.54173c-0.28718,0.69582 -0.77948,1.26584 -1.53718,1.63236c-3.20058,1.54828 -7.44027,-4.74612 -9.61492,-6.30261c-0.23488,0.13622 -0.54971,0.20233 -0.96671,0.09808c-0.38823,-0.09705 -0.62884,-0.28273 -0.77569,-0.49406c-0.53455,-0.37426 -0.53455,-1.09594 -0.53455,-1.09594v-0.41877c-2.53851,-1.18147 -5.4018,-2.44183 -6.23,-5.19394c-0.23077,-0.76683 -0.40209,-1.68571 -0.5109,-2.70515c-4.59406,-6.59429 -8.2368,-15.78112 -0.89534,-18.35539c-0.9915,-0.58698 -1.60405,-1.49472 -1.39898,-2.93411c0.13796,-0.96806 4.51353,-4.15517 5.83559,-5.01917c-0.50885,-0.18739 -1.40956,-0.99747 -1.88589,-1.33203c-1.75577,-1.23311 -4.69374,-2.9636 -3.2614,-5.72525c-0.62218,0.00326 -1.24558,0.00492 -1.87037,0.00492c-11.01177,0 -27.54206,-2.71591 -34.12193,-12.98558c-4.12446,-1.04303 -15.0833,-14.89367 -9.78968,-18.04545c2.81743,-1.67748 11.21429,0.33832 14.53433,0.33832c0.55386,0 1.1083,0.0025 1.66317,0.00718c-0.8332,-0.27397 -0.83317,-1.24413 -0.83317,-1.24413c0,-0.37849 0,-0.97134 0,-1.45475l-0.34769,-0.50895c0.01889,-7.30984 -0.52616,-14.7287 -0.52616,-22.09873c0.03278,-7.4013 11.83384,-14.91532 11.65136,-22.16574c-0.01383,-0.00514 -0.02777,-0.01052 -0.0418,-0.01613c-0.72481,-0.28992 -0.8159,-0.85145 -0.78212,-1.23225c-0.12833,0 -0.23343,0 -0.30423,0c0,0 -1.3154,0 -1.3154,-1.3154c0,-0.45006 0.15398,-0.74612 0.35658,-0.9409l1.73221,0.79963c0.64159,-1.96465 1.04476,-4.10798 1.95237,-5.90764c1.05255,-2.08703 3.3259,-5.8227 4.92804,-7.43483c0.23068,-0.23212 3.92254,-2.61867 4.31423,-2.90807c2.60501,-1.92471 4.26612,-3.59015 7.19485,-4.47587c1.89737,-1.12289 4.09169,-1.8868 6.012,-2.15504c0.11309,-0.1167 0.23971,-0.20826 0.39736,-0.24507c0.89357,-0.20868 2.03361,-0.40678 2.74762,0.16959c0.04973,0.04015 0.09575,0.08289 0.13841,0.12799c0.78804,0.07942 1.44625,0.20804 1.59984,0.39883zM444.68054,119.11713c0.05122,-0.25276 0.09382,-0.49731 0.12948,-0.73559c-0.00325,0.00088 -0.00651,0.00176 -0.00975,0.00263zM407.29366,177.95512c-1.00031,0 -1.23995,-0.76072 -1.29733,-1.12514c-2.71393,-0.08737 -5.42753,-0.14635 -8.12975,-0.14635c-2.68468,0 -5.3093,-0.22972 -7.94157,-0.35661c0.07871,0.16514 0.12749,0.36957 0.12749,0.62279v0.00003c0,1.31537 -1.3154,1.31537 -1.3154,1.31537c-0.72276,-0.04486 -1.48919,0.25921 -2.05105,0.71605l-0.52385,0.81486c0.52135,0.51356 0.96371,0.96992 1.1137,1.29467c1.64709,3.56687 3.38263,7.0455 7.44296,8.57841c6.7822,9.82378 21.59688,12.4455 32.52504,12.4455c5.29012,0 10.59103,-0.41727 15.78481,-0.43848c0.809,-0.00329 4.18908,0.48909 4.64092,0.15566c1.07913,-0.79632 2.25607,-1.32516 3.5359,-1.5768c-0.65489,-0.50548 -1.28501,-1.00255 -1.88265,-1.46591c0.36189,-4.51722 6.24757,-3.12223 10.21819,-4.86801c-0.03349,-0.08555 -0.0614,-0.18045 -0.08242,-0.2856c-0.25798,-1.28986 1.03188,-1.54783 1.03188,-1.54783c0.30841,-0.06169 0.61579,-0.12281 0.92223,-0.18334c0.8659,-1.18636 1.60495,-2.45201 1.29378,-2.45201c-2.99172,0 -6.38732,-0.20702 -9.59308,-1.07032v0.14017h-1.3154c-0.72647,0 -1.3154,-0.58893 -1.3154,-1.3154c0,-0.52511 0.3077,-0.97834 0.75265,-1.18928l1.72836,-0.86419l0.01413,0.02823l0.07077,-0.06695c1.65572,-0.55602 2.47714,-1.14514 3.52127,-1.83254c-2.16276,-0.29218 -5.01191,-1.55073 -7.284,-2.69018l-2.10648,-0.4213c-0.61482,-0.11044 -1.08131,-0.64805 -1.08131,-1.29464c0,-0.626 0.43729,-1.14987 1.02307,-1.2828l1.72717,-0.43179l0.01457,0.05832l0.14372,-0.08774c1.50448,0.2564 1.5466,-1.15426 3.53885,-1.31885c1.37023,-0.19168 4.78232,-1.80612 3.47747,-2.26615c-5.07574,-1.78939 -11.70038,0.37899 -17.41859,1.37346c-0.20052,0.59906 -0.85964,0.81878 -0.85964,0.81878l-0.00005,-0.00003l-0.93291,0.23593c-1.75737,2.38237 -5.0272,1.58543 -7.81393,1.58543c-6.66621,0 -13.53455,-0.38028 -20.42351,-0.64002c-0.082,0.38633 -0.35718,1.03459 -1.28059,1.03459zM474.05023,246.66604l1.25844,0.15566c2.0023,-5.02541 8.24538,-10.34839 5.0816,-16.29176c0,0 -0.58827,-1.17652 0.58825,-1.76479c0.10847,-0.05422 0.21194,-0.09347 0.31041,-0.11999c-0.79445,-2.2023 -1.92377,-4.08745 -5.61529,-5.95074c-3.39771,-3.39771 -8.00758,-5.08087 -11.20732,-8.67641c-0.37852,-0.42535 -0.99457,-0.80784 -1.56088,-1.24887c-8.00221,-0.9086 -15.5429,1.66872 -21.90229,6.64895c0.0196,0.0985 0.03041,0.20681 0.03041,0.3259c0,1.3154 -1.3154,1.3154 -1.3154,1.3154h-0.67196c-0.37649,0.33748 -0.74823,0.68367 -1.11501,1.0383c-4.82094,1.92838 -4.11702,10.34205 -4.11702,14.91001c0,0.23556 -0.01671,0.55684 -0.0306,0.92507c0.99789,1.26426 1.97513,2.36078 2.7842,3.16698l0.69443,1.00131c-0.173,-1.47922 -0.44008,-2.89272 -0.72486,-4.5632c0,0 -0.21623,-1.29751 1.08126,-1.51376c1.29748,-0.21625 1.51374,1.08126 1.51374,1.08126c0.45344,2.79491 0.90949,5.05871 0.95572,7.90345l0.0549,0.40399c0.50148,-0.05654 0.93259,0.23091 0.93259,0.23091c0.72505,0.49059 6.46735,6.61852 7.21313,6.16923c0.2087,-0.12573 0.3248,-0.36013 0.36918,-0.66946c-0.25742,-0.15185 -0.50435,-0.28807 -0.7392,-0.4038c0,0 -1.17652,-0.58825 -0.58825,-1.76479c0.20828,-0.41659 0.49033,-0.61192 0.7678,-0.69045c-0.57312,-1.56798 -1.41445,-3.11926 -1.77692,-3.44111l-0.38528,-1.55788c0,0 0,-1.3154 1.3154,-1.3154c1.3154,0 1.3154,1.3154 1.3154,1.3154l-0.38528,-0.30236c1.07965,1.15324 2.52799,3.91784 2.9285,6.46851c6.07036,3.32831 7.6953,5.09307 7.6953,-4.28284v-1.25552c0,0 0,-1.3154 1.3154,-1.3154c1.3154,0 1.3154,1.3154 1.3154,1.3154v1.25552c0,1.05387 0.22833,2.87065 0.27074,4.6341c0.40143,0.02757 0.71295,0.23525 0.71295,0.23525l1.00123,0.66993c4.07385,3.2492 14.31627,-1.42979 7.37177,-1.39893c0,0 -1.3154,0 -1.3154,-1.3154c0,-1.3154 1.3154,-1.3154 1.3154,-1.3154c0.70135,0.00263 1.48885,0.14756 2.25265,0.40914c0.38891,-0.42138 1.00476,-0.42138 1.00476,-0.42138zM548.98459,318.79255l-0.62779,-1.56943c-0.12481,-0.3891 -0.24961,-0.77819 -0.37442,-1.16729c-4.62626,-1.80604 -8.32517,-6.59534 -13.34637,-8.46418c-5.17389,-1.92567 -11.40544,-1.19688 -17.01436,-1.88549v0.35634c0,10.8469 1.33745,19.25467 3.39821,29.7582c2.63601,6.78644 4.97545,14.50884 10.34136,19.84724c0.65225,0.64891 4.21704,5.04935 5.59771,4.2056c1.497,-0.91486 1.05614,-3.36982 1.8977,-4.90921c5.10715,-11.48705 9.85716,-22.85837 10.56972,-35.58405c-0.30638,-0.24929 -0.44174,-0.58772 -0.44174,-0.58772zM535.64277,305.1611c5.26521,1.88289 9.30472,6.21248 13.87398,8.88379c-0.01689,-9.2811 -0.21181,-17.99476 -2.30682,-27.02577c-0.46244,-1.99344 -0.5832,-5.20438 -1.77953,-7.28035c-0.65628,-0.00921 -0.97818,-0.35045 -1.13609,-0.68296l-1.02841,-0.4204c-4.55297,-3.59454 -10.89896,-5.26305 -16.60143,-5.15719c0,0 -0.29352,0 -0.60327,-0.13867c-0.22293,0.12725 -0.51916,0.19134 -0.91023,0.11312c-0.04033,-0.00805 -0.07916,-0.01715 -0.11652,-0.02715c0.18915,1.04627 0.2393,2.30821 0.0764,2.84155c-1.59187,5.21167 -0.63686,11.49476 -2.58247,16.5233c-1.69929,3.16222 -0.90181,6.75177 -4.48033,9.29399c-0.51595,0.36655 -1.04343,0.62374 -1.57459,0.78693c0.09839,0.00913 0.18837,0.02631 0.2706,0.05004c6.19212,1.0877 13.01244,0.13478 18.89867,2.23976zM459.24284,201.3613c0.66904,0.40036 1.10651,0.83678 1.36083,1.2897c0.01907,0.00492 0.03817,0.00973 0.0573,0.01452l0.0874,0.12836l0.06919,0.04151l0.04094,-0.0614l1.29843,0.86561c0.36266,0.23419 0.60274,0.64197 0.60274,1.1058c0,0.72647 -0.58893,1.3154 -1.3154,1.3154c-0.25529,0 -0.49356,-0.07274 -0.69532,-0.1986l-0.52292,-0.31375c-0.60535,0.87216 -1.53631,1.64525 -2.40418,2.16223c2.01769,0.59243 2.15063,1.44691 1.36254,2.30911c0.82289,-0.01502 1.64767,0.00068 2.47248,0.0473c0.02326,-0.08826 0.05177,-0.17884 0.0859,-0.27184c0.61798,-1.68458 6.30024,-1.6221 10.74619,-1.29396c-0.03304,-0.05998 -0.06398,-0.12531 -0.09242,-0.19644c-0.18789,-0.46973 -0.12288,-0.83104 0.02831,-1.09789c-0.11165,0.02657 -0.23661,0.04141 -0.37641,0.04141c-1.3154,0 -1.3154,-1.3154 -1.3154,-1.3154l0.02555,-0.57186c0.35205,-1.72128 0.50727,-3.35617 0.0549,-4.98113c-0.62742,-0.02381 -1.26121,-0.03709 -1.90391,-0.03709h-1.25552c0,0 -1.3154,0 -1.3154,-1.3154c0,-1.3154 1.3154,-1.3154 1.3154,-1.3154h1.25552c0.8212,0 1.63775,0.01934 2.45093,0.05251c0.38773,-0.12625 0.69648,-0.07645 0.93504,0.04401c4.12057,0.21854 8.16669,0.74031 12.30831,0.84514c1.39251,0.03525 4.51453,-0.42432 4.08392,2.63825c-0.20065,1.42697 -2.66663,1.58453 -3.17651,2.93232c0,0 -0.22304,0.55762 -0.74452,0.76859c3.85039,0.42727 7.36882,2.03366 9.04411,5.69421c0.1091,-0.04141 0.21309,-0.06659 0.29917,-0.08192c2.80722,-2.47572 7.02663,-4.01005 8.05927,-8.16219c1.34705,-5.41637 -2.48032,-11.53404 -8.14891,-11.51665c-11.01908,0 -20.15751,1.2585 -30.2752,3.20345c-1.7298,2.063 -4.73628,2.93119 -7.2356,3.55887c-0.28534,0.07166 -2.39077,0.41027 -3.7797,0.42387c1.38891,0.79529 2.65201,1.78224 3.96588,2.65482c0.9267,-0.02431 1.80307,0.14872 2.54709,0.59393zM485.51302,237.45823c0,-0.41419 0.13044,-0.69798 0.30915,-0.89239c-0.67188,-0.08242 -1.38157,-0.60637 -2.07407,-1.78124c-0.01421,-0.0241 -0.02833,-0.0482 -0.04236,-0.07224c-0.38696,5.25897 -4.12483,10.5765 -7.1557,14.42884l-0.44571,0.02775c0.79784,1.14566 0.7879,2.59247 -0.91028,4.13512c0.31001,0.09447 0.5214,0.27066 0.5214,0.27066c9.28483,7.74584 14.43068,19.44522 23.94334,27.07455c0.58401,0.7246 1.16318,1.45341 1.73065,2.19112c0.19126,0.05961 0.33956,0.15548 0.45458,0.26829c2.0843,-2.64624 4.29341,-5.19254 6.02214,-7.1251c-2.72732,-3.55061 -5.7006,-6.98841 -8.87566,-10.17828c-3.29642,-4.38015 -5.93538,-9.6316 -9.61039,-13.66151c-1.21703,-1.33458 -3.76973,-3.11069 -4.17576,-5.1147c-0.38307,-1.8906 0.50214,-5.38188 1.18965,-8.3304c-0.38312,-0.11983 -0.88095,-0.43124 -0.88095,-1.24045zM511.29194,276.16441c0.13091,0.35311 0.15161,0.83804 -0.3333,1.32295c-0.42966,0.42966 -0.85935,0.46236 -1.19733,0.37315c-2.54617,3.15712 -4.44503,6.94747 -6.82672,10.13795c-1.3083,1.75259 -3.73211,2.80286 -4.48373,4.81568c0.083,7.54059 5.771,2.18722 9.69434,2.83027c3.21429,0.52682 3.45429,5.3611 7.2845,4.73202c3.97724,-0.65323 3.51972,-6.17891 4.69874,-8.66375c1.75927,-4.19852 -0.25892,-9.54291 1.18418,-13.92362c0.10665,-0.32372 2.14934,-3.19798 1.2017,-4.15724c-1.15103,-1.16516 -3.41749,-0.58367 -4.52777,-2.39029c-0.51587,-0.83941 0.67467,-2.13371 0.12738,-2.953c-0.1808,-0.27065 -0.47645,-0.29848 -0.81821,-0.23419c-0.20095,5.20648 -2.87707,5.11172 -6.00378,8.11007zM500.68377,111.43924c-2.29556,0.623 -4.14498,1.63812 -6.38901,2.76013c-9.92164,4.93344 -20.56402,10.81059 -28.47203,18.83232c-0.99,1.22937 -4.48922,4.04338 -6.02353,4.2624c-0.70148,0.10013 1.08426,0.91718 1.67343,1.31085c1.86119,1.24363 3.47061,1.60392 5.73604,1.99267c6.25523,1.07342 9.35694,-1.67566 12.94867,-6.46464c6.49069,-6.49069 12.76675,-10.28156 17.77719,-18.36633c1.0836,-1.74851 2.1128,-3.14978 2.74924,-4.32738zM467.06053,212.1548c-0.06572,0.32859 -0.19842,0.55673 -0.35968,0.71426c0.3213,0.47189 0.55889,0.85214 0.62774,0.9226c2.75179,2.81609 7.06286,3.94802 9.88334,6.7685c2.49163,1.23335 6.64398,4.1408 7.41657,7.0426c0.40351,1.51563 0.97703,2.80038 1.26918,4.45947c0.10336,0.58696 -0.36944,1.79434 0.22617,1.77358c0.51448,-0.01792 0.64491,-0.71658 0.66091,-1.3733c-0.19205,-0.25135 -0.38273,-0.55489 -0.57123,-0.91531c-0.67862,-1.29746 -0.43387,-5.26721 -0.69272,-6.79275c-0.33756,-1.98957 -3.59502,-4.29347 -4.76912,-5.75822l-0.53463,-1.34742c0,0 -0.41596,-1.24789 0.83194,-1.66385c1.24789,-0.41598 1.66385,0.83194 1.66385,0.83194l0.09313,0.53592c1.62323,2.03335 4.6777,4.12528 5.27523,6.7972c0.32901,1.47112 0.69356,3.47795 0.66294,5.01052c-0.00324,0.16122 -0.04057,0.42061 -0.08763,0.6848c0.00445,0.002 0.00884,0.004 0.01321,0.00605c0.70129,-2.16781 2.5921,-4.61514 3.09995,-7.09819c-0.01302,-2.93269 0.85472,-7.91574 -0.22017,-10.6669c-1.93785,-4.95993 -8.54676,-5.21367 -13.54981,-4.20349l1.33687,1.6025c0,0 0.84209,1.01052 -0.16842,1.85261c-0.50951,0.42458 -0.97616,0.37823 -1.31369,0.22785c-0.34182,0.1087 -0.6561,0.06382 -0.6561,0.06382c-3.06223,-0.44234 -6.13884,-0.30065 -9.23056,-0.30065c-0.25429,0 -0.58938,0.02091 -0.95698,0.04664c0.08258,0.20447 0.11344,0.46031 0.04964,0.77924zM408.32043,174.01402c0.01789,0.08934 0.03575,0.17871 0.05362,0.26808c4.11415,0.15364 8.2227,0.35195 12.28374,0.48841c-0.4455,-0.60145 -0.07127,-1.34994 -0.07127,-1.34994l0.41246,-0.75964c2.26594,-2.51157 2.07949,-6.86479 2.07949,-10.22763c0,-2.52223 -0.19486,-4.76946 -0.55873,-6.84008h-1.01975c-4.32412,0 -8.46579,0.70282 -12.6803,0.95972c0.05246,0.20215 0.05246,0.35568 0.05246,0.35568v0.78924c-0.14369,2.90327 0.52779,4.32264 0.12136,6.11403c0.4048,0.38957 0.4048,0.98915 0.4048,0.98915c-0.01597,2.20908 -0.4285,4.49417 -0.79371,6.6855l0.00447,1.20691c0,0 0,0.60066 -0.40591,0.99018c0.08805,0.18416 0.11728,0.3304 0.11728,0.3304zM437.52098,205.99285c-0.71368,0 -5.83188,-0.4047 -6.10043,0.00392c-0.63842,0.9714 5.84638,4.28221 5.84638,5.58616c0,4.32125 -11.40355,5.39014 -2.71409,6.54288c0.70769,0.09389 1.41313,0.20404 2.11972,0.30607c0.43527,-0.00068 0.87051,-0.00137 1.30577,-0.00205c3.34467,-3.07927 7.24749,-5.33458 11.4211,-6.73101c0.12488,-1.11738 1.30475,-1.11738 1.30475,-1.11738l1.0393,0.01789c1.85798,-0.29339 3.55771,-1.45957 5.47672,-0.79198c1.50792,0.52458 -2.42957,-2.12237 -3.33688,-3.43606l2.53593,-0.78827c1.30177,-0.51669 1.56051,-0.93643 1.22261,-1.19567c-0.1192,-0.05259 -0.23838,-0.10697 -0.35745,-0.16306c-1.29638,-0.37355 -4.79992,0.05514 -6.18083,1.90267c0,0 -0.8217,1.02717 -1.84887,0.20544c-1.02714,-0.82173 -0.20544,-1.84887 -0.20544,-1.84887c0.281,-0.3354 0.64502,-0.68527 1.07105,-1.03046c-0.96058,0.39607 -1.92027,0.80768 -3.14544,0.85388c-2.72498,0.10273 -5.43255,0.19547 -8.1412,0.26892c0.00179,0.03296 0.00271,0.06682 0.00271,0.10158v0.00008c-0.00005,1.31532 -1.3154,1.31532 -1.3154,1.31532zM421.49998,152.96254h0.44563c-1.38206,-5.27234 -3.93518,-9.55417 -7.13644,-14.83845c-0.31935,0.28399 -0.72226,0.35116 -0.72226,0.35116c-2.26149,0.16792 -3.43227,3.43164 -4.28281,5.30301c-1.52515,3.35569 -2.12579,6.71128 -2.36122,10.2104c4.68535,-0.16258 9.26892,-1.02609 14.05708,-1.02609zM489.28835,135.92067c3.74918,-1.25124 8.01218,-1.19978 11.82516,-2.47935c1.39856,-0.46933 3.42412,-2.04055 5.17187,-2.3366c-3.39828,-2.10009 -11.30834,-3.58291 -15.00472,-3.58357c-2.92598,2.68231 -6.01264,5.21225 -9.13588,8.33548c-1.08058,1.44076 -2.13192,2.63877 -3.19792,3.61735c3.59633,-0.56875 6.98867,-2.43436 10.34149,-3.55332zM513.05674,269.49933l-0.81947,-1.11467c-5.08826,-3.7631 -10.63528,-7.83121 -15.31586,-11.86731c-1.28288,-1.10625 -2.40332,-2.40371 -3.55013,-3.66126c2.70325,3.57831 4.95038,7.66936 7.60667,11.22552c3.13397,3.11724 6.0692,6.53152 8.76409,10.0249c2.00175,-1.64659 3.77654,-2.1113 4.53903,-4.06469c-0.72902,0.11789 -1.22432,-0.5425 -1.22432,-0.5425zM474.7341,205.65332c0.17895,0.07445 0.35682,0.15351 0.53292,0.2373c2.49274,-0.69727 5.50558,-1.14724 8.41246,-0.98734c-1.0659,-0.51858 -0.6109,-1.65601 -0.6109,-1.65601c0.1041,-0.25019 0.43335,-1.14813 0.88221,-1.94114c-1.34147,0.05867 -2.80109,-0.01634 -2.92937,-0.02797c-2.56992,-0.23272 -5.01315,-0.538 -7.49955,-0.73541c0.31588,1.74177 0.18337,3.46327 -0.18366,5.33432l0.00392,0.00858c0.56515,-0.56304 1.39196,-0.23233 1.39196,-0.23233zM543.3782,269.93557c-0.19147,-0.33122 -3.66976,0.03273 -4.30962,0.03183c-3.21684,-0.00442 -6.28593,0.58901 -9.40106,1.03151c4.90476,0.42979 9.99865,1.79539 13.99644,4.65686c0.18516,-0.08747 0.37547,-0.11284 0.54721,-0.1076c0.05514,-1.99133 0.01331,-4.14867 -0.83299,-5.6126zM434.1767,221.69479c-8.03644,0.24253 -6.74106,6.18817 -3.53698,11.66779c0.26192,-4.3319 1.39351,-9.03015 3.53698,-11.66779zM522.72004,270.15533c0,-0.98231 0.7336,-1.23106 1.10509,-1.29404c-0.75878,-0.99502 -2.14102,-1.72041 -3.4861,-1.88834c0.25719,0.873 -0.59254,2.16194 -0.06317,2.97238c0.42972,0.65791 1.89344,0.93117 3.02179,1.31751c-0.30012,-0.17663 -0.57762,-0.5033 -0.57762,-1.10749zM383.86288,176.81491c0.07279,-0.15869 0.13296,-0.33658 0.19126,-0.52716c-0.14538,0.0618 -0.23861,0.14619 -0.25364,0.25961c-0.01055,0.07961 -0.00897,0.16243 0.00339,0.24803c0.01947,0.00602 0.03912,0.0125 0.05896,0.01952zM524.03544,271.47073c0,0 -0.11673,0 -0.28063,-0.03478c0.15293,0.06522 0.29362,0.13467 0.41719,0.21012l0.03599,-0.17592c-0.05746,0.00037 -0.11497,0.00055 -0.17253,0.00055zM474.99771,208.6964c-0.01905,0.00668 -0.03802,0.01336 -0.05693,0.02005c0.03528,0.00355 0.07035,0.00716 0.10515,0.01071c-0.01602,-0.01034 -0.0321,-0.0206 -0.04825,-0.03078z" fill="#000000" stroke="none" stroke-width="0.5" stroke-linecap="butt"/><path d="M433.38715,96.45494c1.26047,-0.33401 2.58152,-0.81395 3.24648,0.0573z" fill="#000000" stroke="none" stroke-width="0.5" stroke-linecap="butt"/><path d="M437.9755,107.23507c-0.10571,-0.00084 -0.21141,-0.00167 -0.31711,-0.00251c0.41808,-0.21399 0.82889,-0.41475 1.23452,-0.60412c-0.24806,0.34186 -0.5294,0.60971 -0.91741,0.60663z" fill="#000000" stroke="none" stroke-width="0.5" stroke-linecap="butt"/><path d="M543.49882,269.88322c0.8463,1.46394 0.89008,3.72127 0.83494,5.7126c-0.17174,-0.00524 -0.3641,0.02507 -0.54926,0.11255c-3.99779,-2.86147 -9.34024,-4.31001 -14.245,-4.73981c3.11513,-0.4425 6.3924,-1.10986 9.60924,-1.10544c0.63986,0.00089 4.15864,-0.31114 4.35011,0.02007z" data-paper-data="{&quot;noHover&quot;:false,&quot;origItem&quot;:[&quot;Path&quot;,{&quot;applyMatrix&quot;:true,&quot;segments&quot;:[[[255.60242,205.73791],[0,0],[-0.07278,-0.1259]],[[253.96428,205.75001],[0.24322,0.00034],[-1.22276,-0.00168]],[[250.39082,206.1421],[1.1841,-0.1682],[1.86436,0.16337]],[[255.71104,207.91223],[-1.51961,-1.08768],[0.07038,-0.03325]],[[255.91904,207.87133],[-0.06528,-0.00199],[0.02096,-0.75693]],[[255.60241,205.73791],[0.32169,0.55646],[0,0]]],&quot;closed&quot;:true,&quot;fillColor&quot;:[0,0,0,1]}]}" fill="#ea0000" stroke="none" stroke-width="0.5" stroke-linecap="butt"/><path d="M535.67232,305.28927c-5.88623,-2.10498 -12.85052,-1.21527 -19.04263,-2.30298c-0.08224,-0.02373 0.05717,-0.16974 -0.04122,-0.17887c0.53116,-0.16319 0.82894,-0.2921 1.34489,-0.65865c3.57852,-2.54222 2.76468,-6.20745 4.46397,-9.36968c1.94561,-5.02854 1.06742,-11.42018 2.65929,-16.63184c0.1629,-0.53334 0.11889,-1.79786 -0.07027,-2.84413c0.03736,0.01 0.07674,0.01889 0.11707,0.02694c0.39107,0.07821 0.6924,0.01226 0.91533,-0.11499c0.30975,0.13867 0.60637,0.13764 0.60637,0.13764c5.70247,-0.10586 12.1619,1.57951 16.71487,5.17405l1.03467,0.42495c0.1579,0.33251 0.48693,0.67967 1.14321,0.68888c1.19633,2.07596 1.34863,5.32921 1.81107,7.32265c2.09501,9.03101 2.25375,17.90271 2.27064,27.1838c-4.56925,-2.67132 -8.6621,-6.97486 -13.9273,-8.85775z" data-paper-data="{&quot;noHover&quot;:false,&quot;origItem&quot;:[&quot;Path&quot;,{&quot;applyMatrix&quot;:true,&quot;segments&quot;:[[[252.66209,219.12757],[0,0],[2.00137,0.71571]],[[257.93576,222.50441],[-1.73683,-1.0154],[-0.00642,-3.52786]],[[257.05891,212.23158],[0.79634,3.4328],[-0.17578,-0.75773]],[[256.38249,209.46423],[0.45474,0.7891],[-0.24946,-0.0035]],[[255.95065,209.20463],[0.06002,0.12639],[0,0]],[[255.55974,209.04483],[0,0],[-1.73064,-1.36633]],[[249.24933,207.08452],[2.16758,-0.04024],[0,0]],[[249.02002,207.03181],[0.11774,0.05271],[-0.08474,0.04837]],[[248.67403,207.07481],[0.14865,0.02973],[-0.01533,-0.00306]],[[248.62974,207.06449],[0.0142,0.0038],[0.0719,0.3977]],[[248.65878,208.1446],[0.06192,-0.20273],[-0.60509,1.98102]],[[247.67715,214.42531],[0.73955,-1.91141],[-0.64592,1.202]],[[245.97412,217.95807],[1.36024,-0.96633],[-0.19612,0.13933]],[[245.3756,218.25719],[0.2019,-0.06203],[0.0374,0.00347]],[[245.47846,218.27621],[-0.03126,-0.00902],[2.3537,0.41345]],[[252.66208,219.12757],[-2.23743,-0.80013],[0,0]]],&quot;closed&quot;:true,&quot;fillColor&quot;:[0,0,0,1]}]}" fill="#ea0000" stroke="none" stroke-width="0.5" stroke-linecap="butt"/><path d="M500.79071,111.36268c-0.63644,1.1776 -1.65896,2.58918 -2.74256,4.33769c-5.01044,8.08477 -11.40021,12.07348 -17.89087,18.56417c-3.59173,4.78898 -6.78113,7.50452 -13.03635,6.4311c-2.26544,-0.38875 -3.89653,-0.77401 -5.75772,-2.01764c-0.58917,-0.39367 -2.38082,-1.22051 -1.67935,-1.32064c1.53431,-0.21901 5.03035,-3.03923 6.02035,-4.26861c7.908,-8.02173 18.7694,-14.04077 28.69104,-18.9742c2.24402,-1.12201 4.09989,-2.12884 6.39545,-2.75184z" data-paper-data="{&quot;noHover&quot;:false,&quot;origItem&quot;:[&quot;Path&quot;,{&quot;applyMatrix&quot;:true,&quot;segments&quot;:[[[478.74747,290.98299],[0,0],[-1.74514,0.47362]],[[473.89039,293.08131],[1.70596,-0.85298],[-7.54268,3.75052]],[[452.24525,307.39811],[6.01186,-6.09832],[-0.75262,0.9346]],[[447.66601,310.63849],[1.16642,-0.1665],[-0.53328,0.07612]],[[448.93819,311.63503],[-0.4479,-0.29928],[1.41492,0.94544]],[[453.29887,313.14991],[-1.72224,-0.29554],[4.75538,0.81604]],[[463.14277,308.23533],[-2.73052,3.6407],[4.93438,-4.93438]],[[476.65743,294.27279],[-3.80906,6.14624],[0.82378,-1.32926]],[[478.74747,290.98301],[-0.48384,0.89524],[0,0]]],&quot;closed&quot;:true}]}" fill="#ffffff" stroke="none" stroke-width="0.5" stroke-linecap="butt"/><path d="M438.74788,204.58019v-0.00008c0,-0.03475 -0.00016,-0.0693 -0.00195,-0.10226c2.70865,-0.07345 5.54939,-0.1916 8.27437,-0.29436c1.22516,-0.0462 2.21805,-0.43979 3.17864,-0.83586c-0.42603,0.34519 -0.79332,0.69269 -1.07431,1.02809c0,0 -0.80297,1.04306 0.22417,1.86479c1.02717,0.82173 1.86084,-0.19131 1.86084,-0.19131c1.38091,-1.84753 4.89474,-2.25978 6.19112,-1.88623c0.11907,0.05609 0.23951,0.11294 0.35871,0.16556c0.3379,0.25924 0.08142,0.68375 -1.22035,1.20043l-2.53767,0.78456c0.90731,1.31369 4.85764,4.00671 3.34972,3.48213c-1.91901,-0.66759 -3.61835,0.50406 -5.47635,0.79745l-1.03938,-0.01934c0,0 -1.1812,0.02786 -1.30609,1.14527c-4.17361,1.39643 -8.29302,3.73053 -11.63769,6.8098c-0.43527,0.00068 -0.87911,-0.00687 -1.31437,-0.00618c-0.70658,-0.10202 -1.42355,-0.22609 -2.13124,-0.31996c-8.68946,-1.15274 2.68984,-2.28693 2.68984,-6.60818c0,-1.30396 -6.47685,-4.67275 -5.83843,-5.64415c0.26855,-0.40862 5.40238,-0.03336 6.11603,-0.03336c0,0 1.33432,-0.02147 1.33437,-1.33679z" data-paper-data="{&quot;noHover&quot;:false,&quot;origItem&quot;:[&quot;Path&quot;,{&quot;applyMatrix&quot;:true,&quot;segments&quot;:[[[430.72955,362.86497],[0,0],[-0.54256,0]],[[426.09185,362.86795],[0.20416,-0.31064],[-0.48534,0.73848]],[[430.53641,367.11469],[0,-0.9913],[0,3.28512]],[[428.47309,372.08875],[-6.60594,-0.87634],[0.538,0.07138]],[[430.08455,372.32143],[-0.53716,-0.07756],[0.3309,-0.00052]],[[431.07723,372.31987],[-0.3309,0.00052],[2.5427,-2.34094]],[[439.75983,367.20279],[-3.17288,1.0616],[0.09494,-0.84946]],[440.75173,366.35333],[[441.54183,366.36693],[0,0],[1.41248,-0.22304]],[[445.70537,365.76485],[-1.45888,-0.50752],[1.14636,0.3988]],[[443.16859,363.15267],[0.68976,0.9987],[0,0]],[[445.09647,362.55341],[0,0],[0.98964,-0.3928]],[[446.02593,361.64443],[0.25688,0.19708],[-0.09062,-0.03998]],[[445.75419,361.52047],[0.09052,0.04264],[-0.98554,-0.28398]],[[441.05537,362.96693],[1.0498,-1.40454],[0,0]],[[439.64981,363.12311],[0.78088,0.6247],[-0.78086,-0.6247]],[[439.49363,361.71755],[0,0],[0.21362,-0.25498]],[[440.30787,360.93417],[-0.32388,0.26242],[-0.73026,0.3011]],[[437.91663,361.58331],[0.9314,-0.03512],[-2.0716,0.0781]],[[431.72749,361.78775],[2.05918,-0.05584],[0.00136,0.02506]],[[431.72955,361.86497],[0,-0.02642],[0,0]],[[431.72955,361.86503],[0,0],[-0.00004,0.99994]]],&quot;closed&quot;:true}]}" fill="#ffffff" stroke="none" stroke-width="0.5" stroke-linecap="butt"/><path d="M466.95199,212.08037c0.0638,-0.31893 0.03599,-0.57904 -0.04659,-0.78351c0.3676,-0.02573 0.70603,-0.05093 0.96032,-0.05093c3.09172,0 6.23915,-0.1865 9.30138,0.25585c0,0 0.32343,0.04299 0.66525,-0.06572c0.33753,0.15038 0.82305,0.19492 1.33255,-0.22967c1.01052,-0.84209 0.17232,-1.58958 0.17232,-1.58958l-1.35186,-1.86479c5.00305,-1.01017 11.73392,-0.70127 13.67177,4.25866c1.07489,2.75116 0.22914,7.83213 0.24217,10.76482c-0.50785,2.48306 -2.43504,5.00084 -3.13634,7.16864c-0.00437,-0.00205 -0.19521,-0.18965 -0.19965,-0.19168c0.04707,-0.26419 0.08048,-0.51945 0.08371,-0.68069c0.03062,-1.53257 -0.35868,-3.5002 -0.68767,-4.97132c-0.59753,-2.67192 -3.62511,-4.62337 -5.24834,-6.65669l-0.08461,-0.52779c0,0 -0.37371,-1.22316 -1.6216,-0.80718c-1.24789,0.41596 -0.75265,1.41319 -0.75265,1.41319l0.58388,1.37323c1.1741,1.46475 4.45629,3.94318 4.79385,5.93275c0.25884,1.52555 -0.02528,5.53331 0.65331,6.83077c0.1885,0.36042 0.37918,0.66396 0.57123,0.91531c-0.016,0.65673 -0.15637,1.36102 -0.67085,1.37893c-0.59561,0.02076 -0.24751,-1.41819 -0.35087,-2.00514c-0.29215,-1.65909 -0.87956,-2.93471 -1.28307,-4.45034c-0.77259,-2.9018 -4.97753,-5.70771 -7.46916,-6.94105c-2.82048,-2.82048 -7.11455,-4.01352 -9.86635,-6.82959c-0.06885,-0.07045 -0.3042,-0.45447 -0.6255,-0.92636c0.16127,-0.15753 0.29778,-0.39154 0.3635,-0.72013z" data-paper-data="{&quot;noHover&quot;:false,&quot;origItem&quot;:[&quot;Path&quot;,{&quot;applyMatrix&quot;:true,&quot;segments&quot;:[[[453.18625,367.54943],[0,0],[-0.04996,0.2498]],[[452.91281,368.09243],[0.1226,-0.11976],[0.24426,0.35874]],[[453.39003,368.79381],[-0.05234,-0.05356],[2.09198,2.14086]],[[460.90359,373.93939],[-2.1442,-2.1442],[1.8942,0.93762]],[[466.54185,379.29335],[-0.58734,-2.20602],[0.30676,1.15222]],[[467.50671,382.68355],[-0.2221,-1.26128],[0.07858,0.44622]],[[467.67865,384.03187],[-0.4528,0.01578],[0.39112,-0.01362]],[[468.18109,382.98785],[-0.01216,0.49926],[-0.146,-0.19108]],[[467.74683,382.29201],[0.1433,0.274],[-0.5159,-0.98636]],[[467.22021,377.12799],[0.19678,1.15976],[-0.25662,-1.51252]],[[463.59461,372.75045],[0.89258,1.11354],[0,0]],[463.18817,371.72611],[[463.82063,370.46121],[-0.94868,0.31622],[0.94868,-0.31624]],[465.08553,371.09367],[[465.15633,371.50109],[0,0],[1.23402,1.5458]],[[469.16669,376.66849],[-0.45426,-2.03126],[0.25012,1.11838]],[[469.67067,380.47761],[0.02328,-1.1651],[-0.00246,0.12256]],[[469.60405,380.99821],[0.03578,-0.20084],[0.00338,0.00152]],[[469.61409,381.00281],[-0.00332,-0.00156],[0.53314,-1.64802]],[[471.97075,375.60659],[-0.38608,1.88768],[-0.0099,-2.2295]],[[471.80337,367.49735],[0.81716,2.0915],[-1.4732,-3.77066]],[[461.50247,364.30175],[3.80344,-0.76796],[0,0]],[462.51879,365.52001],[[462.39075,366.92841],[0.76822,-0.64018],[-0.38734,0.32278]],[[461.39205,367.10163],[0.2566,0.11432],[-0.25986,0.08264]],[[460.89327,367.15015],[0,0],[-2.32798,-0.33628]],[[453.87597,366.92159],[2.3504,0],[-0.19332,0]],[[453.14845,366.95705],[0.27946,-0.01956],[0.06278,0.15544]],[[453.18619,367.54945],[0.0485,-0.24246],[0,0]]],&quot;closed&quot;:true}]}" fill="#ffffff" stroke="none" stroke-width="0.5" stroke-linecap="butt"/><path d="M408.4647,176.84774c6.88894,0.25974 13.92141,0.59317 20.58762,0.59317c2.78673,0 6.09814,0.82689 7.85552,-1.55549l0.93522,-0.23338l0.00005,0.00003c0,0 0.65891,-0.21996 0.85943,-0.81902c5.7182,-0.99447 12.36487,-3.1286 17.4406,-1.33921c1.30485,0.46002 -2.34902,2.17815 -3.71924,2.36983c-1.99225,0.16458 -2.03411,1.5759 -3.53859,1.31948l-0.14377,0.08761l-0.01447,-0.05804l-1.48551,0.32782c-0.58577,0.13293 -1.02141,0.66078 -1.02141,1.2868c0,0.6466 0.46949,1.19252 1.08431,1.30296l2.10801,0.4264c2.27209,1.13945 5.12493,2.41615 7.28769,2.70833c-1.04414,0.6874 -1.8649,1.2827 -3.52059,1.83875l-0.07074,0.06722l-0.01413,-0.02836l-1.72812,0.86772c-0.44495,0.21094 -0.75246,0.66996 -0.75246,1.19507c0,0.72647 0.58885,1.32179 1.31532,1.32179l1.0525,-0.00971l0.26292,-0.13133c3.20576,0.8633 6.60126,1.07297 9.59298,1.07297c0.31117,0 -0.42864,1.27452 -1.29454,2.46088c-0.30644,0.06053 -0.61395,0.1227 -0.92236,0.18439c0,0 -1.29078,0.26408 -1.0328,1.55394c0.02102,0.10515 0.04875,0.20102 0.08224,0.28657c-3.97062,1.74577 -9.86592,0.38152 -10.22782,4.89874c0.59764,0.46336 1.22674,0.96266 1.88163,1.46814c-1.27983,0.25164 -2.46359,0.79298 -3.54272,1.58929c-0.45184,0.33343 -3.83931,-0.14822 -4.64831,-0.14493c-5.19378,0.0212 -10.57466,0.4878 -15.86481,0.4878c-10.92816,0 -25.89852,-2.74135 -32.68073,-12.56513c-4.06033,-1.53292 -5.79431,-5.04346 -7.4414,-8.61032c-0.14998,-0.32475 -0.59169,-0.78472 -1.11304,-1.29827l0.52448,-0.81786c0.56186,-0.45684 1.32924,-0.76491 2.052,-0.72005c0,0 1.31698,-0.00566 1.31701,-1.32103v-0.00003c0,-0.25321 -0.04817,-0.45957 -0.12688,-0.62471c2.63227,0.12688 5.26021,0.34756 7.94489,0.34756c2.7022,0 5.42374,0.04275 8.13767,0.13012c0.0574,0.36442 0.29591,1.12704 1.29625,1.12704c0.92341,0 1.20406,-0.65723 1.28607,-1.04356z" data-paper-data="{&quot;noHover&quot;:false,&quot;origItem&quot;:[&quot;Path&quot;,{&quot;applyMatrix&quot;:true,&quot;segments&quot;:[[[407.75,341.55],[0.702,0],[-0.76047,0]],[[406.76374,340.69463],[0.04363,0.27705],[-2.06319,-0.06642]],[[400.58331,340.58337],[2.05429,0],[-2.04096,0]],[[394.54593,340.31227],[2.00112,0.09646],[0.05984,0.12554]],[[394.64285,340.78573],[0,-0.19249],[0,0]],[[394.64285,340.78575],[0,0],[-0.00001,0.99998]],[[393.64285,341.78573],[0,0],[-0.54946,-0.0341]],[[392.08359,342.33009],[0.42714,-0.3473],[0,0]],[[391.68535,342.94957],[0,0],[0.39634,0.39042]],[[392.53201,343.93381],[-0.11402,-0.24688],[1.25216,2.71162]],[[398.19033,350.45533],[-3.08676,-1.16536],[5.156,7.46828]],[[422.91667,359.91671],[-8.30786,0],[4.02168,0]],[[434.91667,359.58337],[-3.94844,0.01612],[0.61502,-0.0025]],[[438.44481,359.70171],[-0.3435,0.25348],[0.82038,-0.60538]],[[441.13289,358.50299],[-0.97296,0.1913],[-0.49786,-0.38428]],[[439.70165,357.38857],[0.45434,0.35226],[0.27512,-3.4341]],[[447.46977,353.68779],[-3.01856,1.32718],[-0.02546,-0.06504]],[[447.40711,353.47067],[0.01598,0.07994],[-0.19612,-0.98058]],[[448.19157,352.29397],[0,0],[0.23446,-0.0469]],[[448.89267,352.15459],[-0.23296,0.04602],[0.65828,-0.9019]],[[449.87623,350.29051],[0.23656,0],[-2.27438,0]],[[442.58333,349.47683],[2.4371,0.6563],[0,0]],[442.58333,349.58339],[[441.58333,349.58339],[0,0],[-0.55228,0]],[[440.58333,348.58339],[0,0.55228],[0,-0.3992]],[[441.15551,347.67927],[-0.33826,0.16036],[0,0]],[442.46945,347.02229],[442.48019,347.04375],[[442.53399,346.99285],[0,0],[1.25872,-0.4227]],[[445.21095,345.59971],[-0.79378,0.52258],[-1.64418,-0.22212]],[[439.67347,343.55457],[1.7273,0.86624],[0,0]],[[438.07207,343.23429],[0,0],[-0.4674,-0.08396]],[[437.25003,342.25007],[0,0.49156],[0,-0.4759]],[[438.02779,341.27485],[-0.44532,0.10106],[0,0]],[439.34083,340.94659],[439.35191,340.99093],[[439.46117,340.92423],[0,0],[1.14374,0.19492]],[[442.15149,339.92161],[-1.51456,0.12512],[1.04168,-0.14572]],[[444.79515,338.19883],[0.99198,0.34972],[-3.8587,-1.36034]],[[431.55311,339.24297],[4.34712,-0.75602],[-0.15244,0.45542]],[430.89959,339.86543],[430.89955,339.86541],[[430.19033,340.04477],[0,0],[-1.336,1.81114]],[[424.24999,341.25005],[2.11854,0],[-5.06782,0]],[[408.72354,340.76349],[5.23715,0.19745],[-0.06234,0.29371]]],&quot;closed&quot;:true}]}" fill="#ffffff" stroke="none" stroke-width="0.5" stroke-linecap="butt"/><path d="M408.11652,173.78262c0.40591,-0.38954 0.40262,-0.99318 0.40262,-0.99318l-0.01255,-1.21514c0.36521,-2.19133 0.74444,-4.5722 0.76041,-6.78128c0,0 0.00245,-0.61813 -0.40235,-1.0077c0.40643,-1.79139 -0.22446,-3.28177 -0.08077,-6.18504l0.00495,-0.7935c0,0 0.00171,-0.1549 -0.05072,-0.35705c4.21452,-0.2569 8.50633,-0.96879 12.83047,-0.96879l1.02783,0.00537c0.36387,2.07062 0.60545,4.37913 0.60545,6.90135c0,3.36285 0.13967,7.86862 -2.12627,10.38019l-0.42138,0.76551c0,0 -0.38094,0.75225 0.06456,1.3537c-4.06101,-0.13643 -8.31262,-0.34855 -12.42677,-0.50219c-0.01789,-0.08934 -0.03759,-0.18024 -0.05546,-0.26958c0,0 -0.03194,-0.14851 -0.11996,-0.33266z" data-paper-data="{&quot;noHover&quot;:false,&quot;origItem&quot;:[&quot;Path&quot;,{&quot;applyMatrix&quot;:true,&quot;segments&quot;:[[[408.53058,338.55388],[0,0],[0.01359,0.06793]],[[408.57134,338.75767],[-0.01359,-0.06793],[3.12769,0.1168]],[[417.90973,339.12897],[-3.08728,-0.10373],[-0.33868,-0.45724]],[417.85555,338.10271],[[418.16911,337.52521],[0,0],[1.72262,-1.90936]],[[419.74999,329.74991],[0,2.55652],[0,-1.91746]],[[419.32523,324.54991],[0.27662,1.57414],[0,0]],[[418.54999,324.54991],[0,0],[-3.2873,0]],[[408.91011,325.27951],[3.20398,-0.1953],[0.03988,0.15368]],[408.94999,325.54991],[[408.94999,326.14991],[0,0],[-0.10924,2.20714]],[[409.04225,330.79795],[0.30898,-1.36186],[0.30774,0.29616]],[[409.34999,331.54993],[0,0],[-0.01214,1.6794]],[[408.74659,336.63241],[0.27764,-1.6659],[0,0]],[408.74999,337.54993],[[408.44141,338.3027],[0.30858,-0.29613],[0.06693,0.14]]],&quot;closed&quot;:true}]}" fill="#ffffff" stroke="none" stroke-width="0.5" stroke-linecap="butt"/><path d="M421.59227,153.05624c-4.78816,0 -9.55281,0.8669 -14.23816,1.02948c0.23543,-3.49912 0.80558,-7.00735 2.33073,-10.36304c0.85054,-1.87137 2.13005,-5.21067 4.39154,-5.37859c0,0 0.41532,-0.06759 0.73468,-0.35155c3.20126,5.28428 5.84772,9.78837 7.22978,15.0607l-0.44855,0.00297z" data-paper-data="{&quot;noHover&quot;:false,&quot;origItem&quot;:[&quot;Path&quot;,{&quot;applyMatrix&quot;:true,&quot;segments&quot;:[[418.54999,322.55001],[[418.88877,322.55001],[0,0],[-1.05068,-4.00816]],[[413.46347,311.26945],[2.43368,4.01724],[-0.24278,0.2159]],[[412.91439,311.53641],[0,0],[-1.71924,0.12766]],[[409.65849,315.56789],[0.6466,-1.42266],[-1.15946,2.55108]],[[407.86343,323.33009],[0.17898,-2.66012],[3.56192,-0.1236]],[[418.54997,322.55003],[-3.64008,0],[0,0]]],&quot;closed&quot;:true}]}" fill="#740097" stroke="none" stroke-width="0.5" stroke-linecap="butt"/><path d="M430.62796,233.49359c-3.20408,-5.47962 -4.42732,-11.67315 3.60912,-11.91566c-2.14347,2.63764 -3.34719,7.58376 -3.60912,11.91566z" data-paper-data="{&quot;noHover&quot;:false,&quot;origItem&quot;:[&quot;Path&quot;,{&quot;applyMatrix&quot;:true,&quot;segments&quot;:[[[428.18715,374.80197],[-1.62952,2.0052],[-6.1095,0.18438]],[[425.49825,383.67211],[-2.43582,-4.16574],[0.19912,-3.29322]]],&quot;closed&quot;:true}]}" fill="#ffffff" stroke="none" stroke-width="0.5" stroke-linecap="butt"/><path d="M474.14965,246.75219c0,0 -0.6199,0.00445 -1.00881,0.42582c-0.7638,-0.26158 -1.55733,-0.40057 -2.25867,-0.4032c0,0 -1.3249,0.00802 -1.3249,1.32342c0,1.3154 1.31658,1.31448 1.31658,1.31448c6.9445,-0.03086 -3.33878,4.66978 -7.41262,1.42055l-1.00636,-0.66838c0,0 -0.37715,-0.46242 -0.77859,-0.48999c-0.04241,-1.76345 -0.27847,-3.57813 -0.27847,-4.632l-0.00374,-1.25431c0,0 0.07429,-1.06326 -1.24111,-1.06326c-1.3154,0 -1.33324,1.31864 -1.33324,1.31864l-0.00139,1.25565c0,9.37591 -1.68419,7.60338 -7.75455,4.27508c-0.40051,-2.55067 -1.88949,-5.33966 -2.96915,-6.4929l0.38875,0.3053c0,0 -0.01265,-1.32724 -1.32805,-1.32724c-1.3154,0 -1.12362,1.13535 -1.12362,1.13535l0.37744,1.55023c0.36247,0.32185 1.18297,1.85782 1.75609,3.4258c-0.27747,0.07853 -0.55773,0.27494 -0.76601,0.69153c-0.58827,1.17655 0.58038,1.76032 0.58038,1.76032c0.23485,0.11573 0.47702,0.24958 0.73444,0.40143c-0.04438,0.30933 -0.27313,0.78148 -0.48183,0.90721c-0.74578,0.44929 -6.53396,-5.71481 -7.25901,-6.2054c0,0 -0.43395,-0.2911 -0.93543,-0.23456l-0.05619,-0.40572c-0.04622,-2.84474 -0.52316,-5.1529 -0.97661,-7.94781c0,0 -0.21825,-1.30653 -1.51574,-1.09028c-1.29748,0.21625 -0.82418,1.45841 -0.82418,1.45841c0.28478,1.67048 0.54271,3.05849 0.71571,4.53771l-0.93438,-0.89368c-0.80908,-0.80621 -1.79297,-1.9233 -2.79086,-3.18753c0.01389,-0.36823 0.02957,-0.69424 0.02957,-0.9298c0,-4.56796 -0.6914,-13.06795 4.12954,-14.99633c0.36679,-0.35463 0.74281,-0.7084 1.11933,-1.04587l0.67312,-0.00187c0,0 1.32198,-0.00944 1.32198,-1.32485c0,-0.1191 -0.00989,-0.22859 -0.02949,-0.32709c6.35938,-4.98024 14.03845,-7.60336 22.04067,-6.69476c0.56631,0.44103 1.19409,0.82733 1.57261,1.25268c3.19974,3.59554 7.8792,5.33992 11.2769,8.73763c3.69151,1.86329 4.8347,3.78998 5.62915,5.99228c-0.09847,0.02652 -0.20186,0.06616 -0.31033,0.12039c-1.17652,0.58827 -0.58717,1.77424 -0.58717,1.77424c3.16377,5.94337 -3.1084,11.35985 -5.1107,16.38526l-1.26105,-0.15256z" data-paper-data="{&quot;noHover&quot;:false,&quot;origItem&quot;:[&quot;Path&quot;,{&quot;applyMatrix&quot;:true,&quot;segments&quot;:[[458.49999,393.78573],[[459.45669,393.90407],[0,0],[1.5222,-3.82044]],[[463.31985,381.51867],[2.40518,4.5183],[0,0]],[[463.76705,380.17703],[-0.89442,0.44722],[0.08246,-0.04122]],[[464.00303,380.08581],[-0.07486,0.02016],[-0.60396,-1.67424]],[[459.73415,375.56191],[2.80638,1.41652],[-2.58302,-2.58302]],[[451.21407,368.96589],[2.43252,2.73342],[-0.28776,-0.32336]],[[450.02745,368.01647],[0.43052,0.33528],[-6.08348,-0.69074]],[[433.37679,373.07117],[4.83456,-3.7861],[0.0149,0.07488]],[[433.39991,373.31893],[0,-0.09054],[0,1]],[432.39991,374.31893],[[431.88907,374.31893],[0,0],[-0.28622,0.25656]],[[431.04141,375.10827],[0.27884,-0.2696],[-3.665,1.466]],[[427.91155,386.44323],[0,-3.47268],[0,0.17908]],[[427.88829,387.14649],[0.01056,-0.27994],[0.75862,0.96112]],[[430.00491,389.55411],[-0.61508,-0.6129],[0,0]],[[430.53283,390.31533],[0,0],[-0.13152,-1.12454]],[[429.98177,386.84627],[0.2165,1.26994],[0,0]],[[430.80377,385.69547],[-0.98638,0.1644],[0.98638,-0.1644]],[[431.95455,386.51747],[0,0],[0.34472,2.12476]],[[432.68111,392.52587],[-0.03514,-2.16264],[0,0]],[[432.72285,392.83299],[0,0],[0.38124,-0.04298]],[[433.43183,393.00853],[0,0],[0.5512,0.37296]],[[438.91543,397.69853],[-0.56696,0.34156],[0.15866,-0.09558]],[[439.19609,397.18959],[-0.03374,0.23516],[-0.1957,-0.11544]],[[438.63413,396.88261],[0.17854,0.08798],[0,0]],[[438.18693,395.54097],[-0.44722,0.89444],[0.15834,-0.3167]],[[438.77063,395.01607],[-0.21094,0.0597],[-0.4357,-1.19202]],[[437.41977,392.40005],[0.27556,0.24468],[0,0]],[437.12687,391.21571],[[438.12687,390.21571],[-1,0],[1,0]],[439.12687,391.21571],[[438.83397,390.98585],[0,0],[0.82078,0.87672]],[[441.06029,395.90337],[-0.30448,-1.93908],[4.61484,2.53026]],[[446.91045,392.64745],[0,7.1278],[0,0]],[446.91045,391.69297],[[447.91045,390.69297],[-1,0],[1,0]],[448.91045,391.69297],[[448.91045,392.64745],[0,0],[0,0.80118]],[[449.11627,396.17041],[-0.03224,-1.34062],[0.30518,0.02096]],[449.65827,396.34925],[[450.41943,396.85855],[0,0],[3.09704,2.47012]],[[456.02363,395.79505],[5.27938,-0.02346],[0,0]],[[455.02363,394.79505],[0,1],[0,-1]],[[456.02363,393.79505],[0,0],[0.53318,0.002]],[[457.73615,394.10609],[-0.58066,-0.19886],[0.29566,-0.32034]],[458.49999,393.78575]],&quot;closed&quot;:true}]}" fill="#ffffff" stroke="none" stroke-width="0.5" stroke-linecap="butt"/><path d="M549.08196,318.70407c0,0 0.13841,0.3419 0.44479,0.59119c-0.71255,12.72568 -5.53213,24.30989 -10.63927,35.79694c-0.84157,1.53939 -0.41493,3.99695 -1.91193,4.91181c-1.38067,0.84375 -4.97445,-3.55624 -5.6267,-4.20512c-5.36591,-5.33839 -7.8209,-13.16127 -10.45693,-19.94771c-2.06076,-10.50353 -3.33741,-19.05486 -3.33741,-29.90176l0.00066,-0.35674c5.60892,0.68861 11.91277,-0.05809 17.08666,1.86758c5.0212,1.86884 8.80016,6.68986 13.42642,8.49591c0.12481,0.3891 0.25435,0.78248 0.37915,1.17157l0.63455,1.57635z" data-paper-data="{&quot;noHover&quot;:false,&quot;origItem&quot;:[&quot;Path&quot;,{&quot;applyMatrix&quot;:true,&quot;segments&quot;:[[515.46695,448.61809],[[514.98969,447.42497],[0,0],[-0.09488,-0.2958]],[[514.70505,446.53757],[0.09488,0.2958],[-3.517,-1.373]],[[504.55881,440.10289],[3.81724,1.42074],[-3.93332,-1.46394]],[[491.62407,438.66949],[4.26404,0.5235],[0,0]],[[491.62407,438.94039],[0,0],[0,8.24608]],[[494.20747,461.56331],[-1.56664,-7.98504],[2.00396,5.15922]],[[502.06923,476.65167],[-4.0793,-4.05838],[0.49586,0.49332]],[[506.32475,479.84887],[-1.04962,0.64144],[1.13806,-0.6955]],[[507.76743,476.11677],[-0.63978,1.17028],[3.88258,-8.73274]],[[515.80279,449.06489],[-0.5417,9.67438],[-0.23292,-0.18952]],[515.46697,448.61809]],&quot;closed&quot;:true}]}" fill="#ffffff" stroke="none" stroke-width="0.5" stroke-linecap="butt"/><path d="M517.34597,267.93277c0.34177,-0.0643 0.6432,-0.03391 0.82402,0.23675c0.54729,0.81928 -0.63431,2.11822 -0.11844,2.95763c1.11028,1.80662 3.41002,1.25205 4.56105,2.41721c0.94764,0.95927 -1.0806,3.85315 -1.18725,4.17687c-1.4431,4.3807 0.56581,9.87421 -1.19346,14.07273c-1.17902,2.48484 -0.78729,8.05528 -4.76454,8.7085c-3.83021,0.62908 -4.13559,-4.20265 -7.34988,-4.72947c-3.92334,-0.64305 -9.69103,4.65762 -9.77403,-2.88296c0.75162,-2.01283 3.1648,-3.08098 4.4731,-4.83357c2.38169,-3.19048 4.38128,-7.16922 6.92745,-10.32634c0.33798,0.08921 0.79182,0.05556 1.22148,-0.3741c0.48491,-0.48491 0.46847,-0.96956 0.33756,-1.32266c3.12671,-2.99835 5.84198,-2.89409 6.04292,-8.1006z" data-paper-data="{&quot;noHover&quot;:false,&quot;origItem&quot;:[&quot;Path&quot;,{&quot;applyMatrix&quot;:true,&quot;segments&quot;:[[[491.37629,410.04563],[0,0],[-0.15276,3.95812]],[[486.81207,416.21113],[2.377,-2.27942],[0.09952,0.26844]],[[486.55869,417.21687],[0.36864,-0.36864],[-0.32664,0.32664]],[[485.64845,417.50055],[0.25694,0.06782],[-1.93566,2.40012]],[[480.45861,425.20767],[1.81062,-2.42548],[-0.9946,1.33236]],[[477.04997,428.86867],[0.5714,-1.5302],[0.0631,5.73254]],[[484.41985,431.02031],[-2.98262,-0.48886],[2.44358,0.4005]],[[489.95771,434.61771],[-2.91182,0.47824],[3.0236,-0.4966]],[[493.52981,428.03131],[-0.89632,1.88904],[1.33744,-3.19182]],[[494.43005,417.44623],[-1.09708,3.33032],[0.08108,-0.2461]],[[495.34361,414.28579],[0.72042,0.72926],[-0.87504,-0.88578]],[[491.90149,412.46863],[0.84406,1.37344],[-0.39218,-0.63814]],[[491.99833,410.22369],[0.41606,0.62284],[-0.13746,-0.20576]],[[491.37629,410.04565],[0.25982,-0.04888],[0,0]]],&quot;closed&quot;:true}]}" fill="#ffffff" stroke="none" stroke-width="0.5" stroke-linecap="butt"/><path d="M478.82632,139.52672c1.066,-0.97858 2.10956,-2.20038 3.19014,-3.64113c3.12323,-3.12323 6.30953,-5.81047 9.23551,-8.49278c3.69638,0.00066 11.76468,1.58916 15.16296,3.68925c-1.74775,0.29604 -3.77133,1.88907 -5.16989,2.35841c-3.81298,1.27957 -8.31386,1.3064 -12.06304,2.55764c-3.35282,1.11896 -6.75937,2.95984 -10.3557,3.52859z" data-paper-data="{&quot;noHover&quot;:false,&quot;origItem&quot;:[&quot;Path&quot;,{&quot;applyMatrix&quot;:true,&quot;segments&quot;:[[[470.08439,309.59439],[-2.5489,0.85066],[2.85022,-0.95122]],[[479.07417,307.70953],[-2.89872,0.97276],[1.06322,-0.3568]],[[483.00595,305.93319],[-1.32868,0.22506],[-2.58346,-1.59654]],[[471.59899,303.20887],[2.81008,0.0005],[-2.2244,2.03916]],[[464.65367,309.54571],[2.37436,-2.37436],[-0.82148,1.0953]],[[462.22253,312.29571],[0.8104,-0.74394],[2.73402,-0.43238]]],&quot;closed&quot;:true}]}" fill="#ffd200" stroke="none" stroke-width="0.5" stroke-linecap="butt"/><path d="M514.39248,270.11172c-0.76249,1.9534 -2.58471,2.46311 -4.58646,4.10971c-2.69489,-3.49339 -5.82283,-6.99546 -8.9568,-10.11269c-2.65629,-3.55616 -4.86698,-7.7681 -7.57021,-11.34641c1.14682,1.25755 2.26688,2.55535 3.54977,3.6616c4.68059,4.0361 10.43386,8.26387 15.52212,12.02697l0.81602,1.12027c0,0 0.49654,0.65846 1.22556,0.54058z" data-paper-data="{&quot;noHover&quot;:false,&quot;origItem&quot;:[&quot;Path&quot;,{&quot;applyMatrix&quot;:true,&quot;segments&quot;:[[488.15371,411.14417],[[487.53073,410.29677],[0,0],[-3.86822,-2.8608]],[[475.88723,401.27495],[3.5583,3.06834],[-0.97528,-0.841]],[[473.18833,398.49157],[0.87184,0.95602],[2.05508,2.72032]],[[478.97111,407.02549],[-2.01938,-2.70348],[2.38252,2.3698]],[[485.63379,414.64667],[-2.04872,-2.65576],[1.52178,-1.25178]],[[489.08447,411.55659],[-0.57966,1.48502],[-0.55422,0.08962]]],&quot;closed&quot;:true,&quot;fillColor&quot;:[0,0,0],&quot;strokeWidth&quot;:0.5}]}" fill="#ffd200" stroke="none" stroke-width="0.25" stroke-linecap="butt"/><path d="M486.42636,238.82617c-0.68751,2.94852 -1.54328,6.42841 -1.16021,8.31901c0.40604,2.00401 2.85708,3.53866 4.07411,4.87324c3.67502,4.02991 6.45041,9.49598 9.74683,13.87616c3.17506,3.18987 6.14266,6.63343 8.86998,10.18404c-1.72873,1.93256 -3.97719,4.50483 -6.0615,7.15107c-0.11502,-0.11281 -0.26479,-0.20804 -0.45605,-0.26766c-0.56746,-0.7377 -1.15069,-1.46494 -1.7347,-2.18954c-9.51266,-7.62932 -14.82919,-19.49397 -24.11403,-27.23981c0,0 -0.21115,-0.17684 -0.52116,-0.27131c1.69818,-1.54265 1.72131,-3.017 0.92346,-4.16266l0.44674,-0.02939c3.03087,-3.85233 6.83845,-9.22317 7.22542,-14.48214c0.01402,0.02405 0.02825,0.04812 0.04246,0.07222c0.69251,1.17486 1.41,1.69655 2.08188,1.77897c-0.17871,0.19442 -0.24106,0.73228 -0.24106,1.14648c0,0.80921 0.4947,1.12146 0.87782,1.24129z" data-paper-data="{&quot;noHover&quot;:false,&quot;origItem&quot;:[&quot;Path&quot;,{&quot;applyMatrix&quot;:true,&quot;segments&quot;:[[[467.21429,386.78573],[0,0.61518],[0,-0.31488]],[[467.44931,386.10731],[-0.13586,0.1478],[-0.51078,-0.06266]],[[465.87255,384.75317],[0.52646,0.89316],[-0.0108,-0.01832]],[[465.84035,384.69825],[0.01066,0.01828],[-0.29418,3.998]],[[460.40041,395.66741],[2.30414,-2.92864],[0,0]],[[460.06157,395.68851],[0,0],[0.60654,0.87096]],[[459.36955,398.83213],[1.291,-1.17276],[0.23568,0.07182]],[[459.76593,399.03789],[0,0],[7.05856,5.88858]],[[477.96825,419.62063],[-7.23176,-5.8],[0.44398,0.55086]],[[479.28393,421.28637],[-0.4314,-0.56082],[0.1454,0.04532]],[[479.62951,421.49033],[-0.08744,-0.08576],[1.58454,-2.01174]],[[484.20769,416.07365],[-1.31422,1.46918],[-2.07338,-2.69926]],[[477.46019,408.33587],[2.41376,2.42502],[-2.50602,-3.3299]],[[470.15413,397.95005],[2.79384,3.06364],[-0.92522,-1.01458]],[[466.97961,394.06173],[0.30868,1.5235],[-0.29122,-1.43728]],[[467.88401,387.72875],[-0.52266,2.24154],[-0.29126,-0.0911]]],&quot;closed&quot;:true,&quot;fillColor&quot;:[0,0,0],&quot;strokeWidth&quot;:0.5}]}" fill="#ffd200" stroke="none" stroke-width="0.25" stroke-linecap="butt"/><path d="M459.11138,201.36528c-0.74402,-0.44521 -1.62047,-0.62245 -2.54717,-0.59814c-1.31387,-0.87258 -2.57621,-1.87347 -3.96512,-2.66876c1.38893,-0.0136 3.49502,-0.35729 3.78036,-0.42895c2.49931,-0.62768 5.51742,-1.53378 7.24722,-3.59678c10.11769,-1.94495 19.48734,-3.21405 30.50642,-3.21405c5.66859,-0.01739 9.51448,6.17678 8.1674,11.59315c-1.03264,4.15214 -5.27015,5.74483 -8.07737,8.22054c-0.08608,0.01534 -0.41556,-0.09497 -0.52466,-0.05356c-1.67529,-3.66055 -4.96774,-5.1323 -8.81813,-5.55957c0.52148,-0.21096 0.51009,-0.8869 0.51009,-0.8869c0.50988,-1.34779 2.96525,-1.45902 3.16591,-2.88599c0.43061,-3.06257 -2.68576,-2.55866 -4.07827,-2.59392c-4.14162,-0.10484 -7.94754,-0.60032 -12.06811,-0.81886c-0.23856,-0.12046 -0.54358,-0.17737 -0.9313,-0.05112c-0.81318,-0.03317 -1.62399,-0.06606 -2.4452,-0.06606l-1.25384,-0.00505c0,0 -1.31106,-0.01857 -1.31106,1.29683c0,1.3154 1.31687,1.30098 1.31687,1.30098l0.99276,-0.01318c0.6427,0 1.53912,0.02857 2.16654,0.05238c0.45237,1.62497 0.27529,3.17856 -0.07677,4.89984l-0.02965,0.56607c0,0 -0.0196,1.29443 1.2958,1.29443c0.1398,0 0.26158,-0.01747 0.37323,-0.04404c-0.15119,0.26684 -0.22391,0.62239 -0.03602,1.09212c0.02844,0.07114 -0.08811,0.35429 -0.05506,0.41427c-4.44595,-0.32814 -10.16999,-0.43537 -10.78797,1.24921c-0.03412,0.093 -0.06196,0.18476 -0.08521,0.27302c-0.82481,-0.04662 -1.65348,-0.06953 -2.47637,-0.05451c0.78808,-0.86219 0.64857,-1.73217 -1.36912,-2.3246c0.86787,-0.51698 1.79613,-1.29877 2.40147,-2.17096l0.7758,0.24127c0.20176,0.12586 0.43913,0.19571 0.69443,0.19571c0.72647,0 1.06319,-0.51443 1.06319,-1.2409c0,-0.46384 -0.24235,-0.88163 -0.60498,-1.11583l-1.29969,-0.874l0.2203,0.03023l-0.33043,-0.01031l-0.08753,-0.12941c-0.01913,-0.00479 -0.03825,-0.00976 -0.05733,-0.01468c-0.25432,-0.45292 -0.69251,-0.89958 -1.36154,-1.29993z" data-paper-data="{&quot;noHover&quot;:false,&quot;origItem&quot;:[&quot;Path&quot;,{&quot;applyMatrix&quot;:true,&quot;segments&quot;:[[[447.24305,359.34395],[0,0],[0.50862,0.30436]],[[448.27759,360.32441],[-0.19334,-0.34432],[0.0145,0.00374]],[[448.32115,360.33545],[-0.01454,-0.00364],[0,0]],[448.38759,360.43303],[448.44019,360.46459],[448.47131,360.41791],[[449.45841,361.07597],[0,0],[0.2757,0.17804]],[[449.91663,361.91663],[0,-0.35262],[0,0.55228]],[[448.91663,362.91663],[0.55228,0],[-0.19408,0]],[[448.38803,362.76565],[0.15338,0.09568],[0,0]],[[447.99049,362.52713],[0,0],[-0.4602,0.66304]],[[446.16277,364.17091],[0.65978,-0.39302],[1.5339,0.45038]],[[447.19861,365.92635],[0.59912,-0.65546],[0.62558,-0.01142]],[[449.07825,365.96231],[-0.62704,-0.03544],[0.01768,-0.0671]],[[449.14355,365.75565],[-0.02594,0.0707],[0.4698,-1.28066]],[[457.31307,364.77195],[-3.37992,-0.24946],[-0.02512,-0.0456]],[[457.24281,364.62261],[0.02162,0.05408],[-0.14284,-0.3571]],[[457.26433,363.78797],[-0.11494,0.20286],[-0.08488,0.0202]],[[456.97817,363.81945],[0.10628,0],[-1,0]],[455.97817,362.81945],[[455.99759,362.38471],[0,0],[0.26764,-1.30856]],[[456.03933,358.59793],[0.3439,1.23534],[-0.47698,-0.0181]],[[454.59193,358.56973],[0.4886,0],[0,0]],[453.63745,358.56973],[[452.63745,357.56973],[0,1],[0,-1]],[453.63745,356.56973],[[454.59193,356.56973],[0,0],[0.6243,0]],[[456.45519,356.60965],[-0.6182,-0.02522],[0.29476,-0.09598]],[[457.16603,356.64311],[-0.18136,-0.09158],[3.13256,0.16614]],[[466.52311,357.28561],[-3.14856,-0.0797],[1.05862,0.0268]],[[469.62781,359.29127],[0.32736,-2.32824],[-0.15254,1.08482]],[[467.21295,361.52049],[0.38762,-1.02462],[0,0]],[[466.64695,362.10479],[0.39644,-0.16038],[2.92716,0.32482]],[[473.52251,366.43367],[-1.2736,-2.78284],[0.08294,-0.03148]],[[473.74995,366.37139],[-0.06544,0.01166],[2.13412,-1.8821]],[[479.87681,360.16629],[-0.78504,3.15656],[1.02406,-4.11766]],[[473.68181,351.41105],[4.3094,-0.01322],[-8.37698,0]],[[450.66585,353.84639],[7.69172,-1.4786],[-1.31504,1.56834]],[[445.16517,356.55193],[1.90004,-0.47718],[-0.21692,0.05448]],[[442.29175,356.87417],[1.0559,-0.01034],[1.05588,0.6046]],[[445.30671,358.89243],[-0.99884,-0.66336],[0.7045,-0.01848]],[[447.24307,359.34395],[-0.56562,-0.33846],[0,0]]],&quot;closed&quot;:true,&quot;fillColor&quot;:[0,0,0],&quot;strokeWidth&quot;:0.5}]}" fill="#ffd200" stroke="none" stroke-width="0.25" stroke-linecap="butt"/><path d="M445.93602,232.29939c0,-0.72647 0.58893,-1.3154 1.3154,-1.3154c0.72647,0 1.3154,0.58893 1.3154,1.3154c0,0.72647 -0.58893,1.3154 -1.3154,1.3154c-0.72647,0 -1.3154,-0.58893 -1.3154,-1.3154z" fill="#000000" stroke="none" stroke-width="0.5" stroke-linecap="butt"/><path d="M436.51946,227.90498c0,-0.72647 0.58893,-1.3154 1.3154,-1.3154c0.72647,0 1.3154,0.58893 1.3154,1.3154c0,0.72647 -0.58893,1.3154 -1.3154,1.3154c-0.72647,0 -1.3154,-0.58893 -1.3154,-1.3154z" fill="#000000" stroke="none" stroke-width="0.5" stroke-linecap="butt"/><path d="M510.92119,291.81005c-1.12793,-0.67677 -0.45116,-1.8047 -0.45116,-1.8047l0.8427,-1.36699c0.47691,-2.44736 1.8882,-4.98876 1.79481,-7.37279c0,0 0,-1.3154 1.3154,-1.3154c1.3154,0 1.3154,1.3154 1.3154,1.3154c-0.07161,2.88083 -1.38354,5.44944 -1.97181,8.32146l-1.04061,1.77187c0,0 -0.67677,1.12796 -1.80473,0.45118z" fill="#000000" stroke="none" stroke-width="0.5" stroke-linecap="butt"/><path d="M413.87066,194.00301l9.99704,-5.52468h4.20928" fill="none" stroke="#000000" stroke-width="1" stroke-linecap="round"/><path d="M546.33753,176.79279c0.03857,-0.01928 0.07647,-0.03657 0.1137,-0.05198c-0.12954,-1.04595 -0.25069,-2.09259 -0.3629,-3.13991c-0.20531,-1.91618 -0.34638,-3.83502 -0.44761,-5.75577c-5.55727,-7.19403 -10.58775,-14.78941 -16.04058,-22.06546c-2.75643,-3.67807 -5.77292,-7.18042 -8.4652,-10.90903c0.17531,0.58913 0.35063,1.17826 0.52594,1.76739c1.18989,3.99934 2.48829,8.02008 3.46999,12.07582c0.86019,3.55373 1.24762,7.1968 1.9085,10.78411c0.57631,0.43186 1.00526,1.10418 1.54054,1.6004c0.16122,0.14946 0.32105,0.29686 0.47941,0.44269c-0.56388,-2.36804 -1.44898,-5.31506 -1.14178,-7.59926c-0.05191,-0.34355 -0.10145,-0.6872 -0.14849,-1.03096h-0.12251v-2.5c0,-0.69036 0.55964,-1.25 1.25,-1.25c0.69036,0 1.25,0.55964 1.25,1.25v1.44137c0.57838,4.55523 1.61504,9.09309 2.81037,13.61876c0.62427,0.77126 1.19749,1.60835 1.71136,2.56828c4.25245,8.065 9.19896,16.06136 12.86497,24.40588c1.09515,2.49278 2.08017,5.05498 3.00799,7.64882c-1.37693,-6.3375 -2.59117,-12.70612 -3.51806,-19.10184c-0.11624,-0.2548 -0.23696,-0.50765 -0.3627,-0.75832l-0.88197,-1.76393c0,0 -0.55902,-1.11803 0.55902,-1.67705zM552.05332,195.15094c1.94596,9.55221 4.33021,19.03579 6.71994,28.43677c0.153,0.60187 0.30815,1.20333 0.46401,1.80468c1.37464,3.98827 2.71653,7.98687 4.01528,12.00677c0.44545,1.37877 2.72486,6.25868 0.87489,7.52572c-3.36892,2.30738 -3.70825,-2.75366 -3.92659,-3.73601c-1.14241,-5.13994 -2.1939,-10.25756 -3.44705,-15.36866c-1.03167,-2.97267 -2.08382,-5.93854 -3.14234,-8.90575c-2.76565,-7.75259 -5.05759,-15.9308 -8.36706,-23.46378c-2.22914,-5.07395 -4.93784,-10.0188 -7.67265,-14.92901c0.07664,0.39891 0.0703,0.8226 0.09179,1.09489c0.20536,2.6013 0.60056,5.10286 1.06314,7.65191c2.01294,9.04959 4.26654,18.04903 7.80481,26.65894c1.8787,4.57156 4.34139,8.98774 6.49075,13.43997c0,0 0.54344,1.12569 -0.58225,1.66913c-1.12569,0.54344 -1.66913,-0.58225 -1.66913,-0.58225c-1.49227,-3.09113 -3.1317,-6.16504 -4.62726,-9.2846c1.53554,4.46091 3.16151,8.8963 4.92204,13.29876c0.29756,0.83292 0.59563,1.66562 0.8942,2.49811c5.71571,8.44496 11.60083,16.81211 16.97346,25.46618c1.29891,2.09225 2.51219,4.29639 3.91932,6.31702c0.17438,0.25041 0.4457,0.55421 0.74585,0.89024c-0.60534,-9.83171 -2.30604,-19.5108 -2.84166,-29.36666c-0.38176,-7.02455 -1.93497,-13.57188 -3.62491,-20.29523c-2.95897,-4.50728 -5.88226,-9.03809 -8.82071,-13.55878c-1.95177,-3.00273 -4.5983,-6.09033 -6.25788,-9.26836zM535.60899,174.99922c0.23362,0.82962 0.46549,1.65895 0.69374,2.48802c0.33433,-0.04004 0.58376,0.01832 0.77039,0.13989c-0.48895,-0.87671 -0.97786,-1.7525 -1.46413,-2.62791zM571.1628,224.07212c1.02384,4.60304 1.82717,9.22344 2.09032,14.06552c0.55776,10.26314 3.16132,20.49582 2.82976,30.77163l1.30609,1.74145c0.16156,0.21062 0.25758,0.47415 0.25758,0.7601c0,0.69036 -0.55964,1.25 -1.25,1.25h-1.5v-0.03398c-0.18523,-0.00307 -0.36853,-0.03108 -0.54919,-0.09312c-0.96213,-0.3304 -1.33004,-1.54 -1.97235,-2.32885c-1.62364,-1.99404 -2.89448,-4.15046 -4.24722,-6.32961c-3.90222,-6.28617 -8.029,-12.43904 -12.18542,-18.57083c2.93515,6.46734 5.3747,13.06688 7.84876,19.73254c0.85257,2.297 2.40022,4.63695 3.04073,6.97283c0.44082,1.60761 0.45725,3.3151 0.92988,4.91364l-0.00857,0.05403l0.01994,-0.00412l0.34236,1.65924c0.02034,0.08947 0.03108,0.1826 0.03108,0.27822c0,0.69036 -0.55964,1.25 -1.25,1.25c-0.53655,0 -0.99415,-0.33806 -1.17141,-0.8128l-0.91766,-2.29416l0.29782,-0.11913c-2.48059,-4.31095 -3.83972,-9.24977 -5.58316,-13.95214c-2.37947,-6.41785 -4.73776,-12.84124 -7.06942,-19.27497c-1.75375,-3.78729 -3.50854,-7.57409 -5.26422,-11.36047c-1.5012,-2.25343 -2.98872,-4.51175 -4.46394,-6.77596c0.56603,5.03253 0.90877,10.09025 0.92161,15.1835l-0.00041,0.00148h0.00041l0.00037,2.49997c0,0.00007 0,0.00014 0,0.00021c0,0.69036 -0.55964,1.25 -1.25,1.25c-0.54994,0 -1.01693,-0.35514 -1.18415,-0.84858l-0.8476,-2.32092l0.27665,-0.10103c-1.8845,-3.66021 -2.96708,-7.64276 -4.10691,-11.6548c-0.09929,0.17518 -0.22113,0.35323 -0.37151,0.5361c-0.21684,0.25316 -0.43369,0.50632 -0.65053,0.75948l-0.64841,0.757c-0.09172,0.10839 -0.22875,0.17721 -0.38186,0.17721c-0.27245,0 -0.49401,-0.21792 -0.49988,-0.48896l-0.02515,-0.99813l0.02843,-0.00072c-0.39293,-1.8972 -0.67014,-3.85773 -0.88747,-5.84355c-0.06671,0.0717 -0.13391,0.14334 -0.20159,0.2149c0,0.57215 0,1.14431 0,1.71646c0,0 0,0.5 -0.5,0.5c-0.5,0 -0.5,-0.5 -0.5,-0.5c0,-0.22218 0,-0.44436 0,-0.66653c-0.04093,0.05032 -0.08551,0.09755 -0.13333,0.1413l-1.08515,0.99926l-0.01126,-0.01223c-0.00145,0.00134 -0.00292,0.00263 -0.00439,0.00397l-0.01847,0.03862c-0.07345,0.0588 -0.14685,0.11744 -0.22028,0.17597c-1.95024,1.73988 -4.12436,3.36361 -6.34504,4.71353c-0.57691,0.39396 -1.15537,0.77877 -1.73588,1.154c-1.13869,0.98887 -2.1998,1.82265 -2.80236,2.37919l-1.27256,0.0701c-7.45885,4.13638 -15.42331,6.60707 -24.88119,6.60707c0,0 -1.3154,0 -1.3154,-1.3154c0,-1.3154 1.3154,-1.3154 1.3154,-1.3154c1.81599,0 3.57197,-0.09518 5.27628,-0.27931c0.04672,-0.22049 0.0975,-0.42811 0.15222,-0.62379l-0.68572,-0.34287l0.26363,-0.52729c-2.59686,0.69616 -5.35029,1.09057 -8.29492,1.11556c0,0 -1.3154,0 -1.3154,-1.3154c0,-1.3154 1.3154,-1.3154 1.3154,-1.3154c7.37827,0.08282 13.54113,-2.56369 19.03321,-6.49918c0.77948,-1.49358 1.61681,-2.99051 3.05618,-4.29644c0.97597,-0.8855 2.26288,-1.23437 3.68133,-1.36318c2.95355,-2.81172 5.75559,-5.85616 8.51719,-8.83941c1.26838,-1.47358 2.45698,-3.00557 3.59118,-4.57587c0.38018,0.97251 0.7594,1.93252 1.13584,2.87837c-0.88325,1.17786 -1.80108,2.33064 -2.76443,3.44948c-2.21342,2.39187 -4.43424,4.77517 -6.71804,7.04115c1.99102,0.02262 3.9477,-0.03609 5.46088,-0.89816c2.18897,-1.24707 4.12019,-2.87422 6.09294,-4.41084c0.24198,0.62509 0.47867,1.25223 0.71214,1.88063c0,-1.88213 0,-3.76427 0,-5.6464c-0.6638,-2.2095 -1.2626,-4.42582 -1.72288,-6.64613c-0.23162,-1.11728 -0.4173,-2.25231 -0.57574,-3.39648c-0.13119,-0.21429 -0.2623,-0.42866 -0.39335,-0.6431c-3.03758,-4.97061 -6.57933,-9.94916 -8.77168,-15.34834c-1.87864,-4.64631 -3.38616,-9.18578 -4.73299,-14.00972c-0.2306,-0.82592 -2.32944,-5.05973 1.08789,-5.10657c1.55672,-0.02134 5.18514,4.55389 6.29593,5.66468c0.94121,0.94121 1.76646,1.97427 2.50383,3.07553c-0.72868,-3.68177 -1.47033,-7.36353 -2.13899,-11.07388c-0.00355,-0.01969 -0.61584,-4.85228 -0.62545,-4.95814c-0.10693,-1.17716 -1.13155,-2.76425 -0.23801,-3.53802c0.46818,-0.40543 1.09461,-0.4506 1.75445,-0.3367c-0.50948,-3.07074 -0.90452,-6.16469 -1.6385,-9.19704c-0.97155,-4.01382 -2.25867,-7.993 -3.43634,-11.95102c-0.23925,-0.80425 -0.4785,-1.60851 -0.71775,-2.41276l-0.00122,-0.01754l-0.00336,0.0009l-0.63913,-2.38741c-0.03248,-0.1113 -0.04989,-0.22901 -0.04989,-0.3508c0,-0.69036 0.55964,-1.25 1.25,-1.25c0.18865,0 0.36753,0.04179 0.5279,0.11661l2.26374,0.99481l-0.00814,0.01853c0.09263,0.04298 0.18387,0.08945 0.27355,0.13984c0.81568,0.45838 1.17347,1.45769 1.75316,2.19213c2.06498,2.61625 4.09289,5.2628 6.13888,7.89393c5.36143,6.89478 10.20043,14.18459 15.4162,21.18734c-0.18776,-6.58331 -0.12516,-13.18247 -0.7904,-19.76775l-0.7489,-2.24671c-0.04749,-0.1321 -0.07337,-0.27451 -0.07337,-0.42297c0,-0.69036 0.55964,-1.25 1.25,-1.25c0.39976,0 0.75569,0.18766 0.9845,0.47968l1.55163,1.94529l-0.02242,0.01788c0.05063,0.05622 0.09997,0.11379 0.14788,0.17284c0.57284,0.70596 0.5668,1.72768 0.84546,2.59306c1.02167,3.1728 2.0181,6.35398 3.02711,9.53082c2.7659,8.70841 5.47015,17.43288 8.1443,26.1685c1.2793,1.5872 2.47983,3.20685 3.52839,4.87536c2.18272,3.47326 3.61257,7.75048 5.34296,11.47416c2.71112,5.83414 5.64728,11.27874 8.95759,16.79592c3.5132,5.85534 6.51697,11.61087 9.20174,17.89327c0.60207,1.40885 0.76611,2.99111 0.82208,4.52219c0.03647,0.99793 0.97292,2.37307 0.18761,2.9899c-2.46876,1.93911 -4.67645,-0.67164 -6.10776,-1.89599c-4.35602,-3.72617 -7.43058,-8.54112 -10.55423,-13.27988zM535.84064,227.1852c-0.52411,-1.7573 -1.09605,-3.52251 -1.67699,-5.29414c0.13109,1.12768 0.26217,2.25536 0.39326,3.38304c0.15489,1.33241 0.68159,3.26694 0.39393,4.72099c0.1509,-0.17617 0.30179,-0.35233 0.45269,-0.5285c0.44907,-0.49633 0.59107,-1.01525 0.64865,-1.56434c-0.06982,-0.23908 -0.14028,-0.47812 -0.21154,-0.71705zM555.71253,175.9365c-1.87414,-6.09701 -3.7671,-12.1879 -5.69832,-18.26833c-0.58962,-1.85641 -1.49532,-3.99882 -2.32836,-6.2073c0.19048,5.16077 0.16625,10.32057 0.41069,15.46999c0.79996,1.02713 1.61162,2.04536 2.43794,3.05244c1.62612,1.98183 3.4057,3.95422 5.17806,5.9532zM526.19814,166.39129c0.25012,1.79987 0.45008,3.63087 0.84259,5.29969c0.38388,1.63218 0.7384,3.2729 1.06835,4.91989c0.10625,-1.08866 0.32013,-2.11378 0.68105,-3.03698c-0.91834,-2.37862 -1.81607,-4.76238 -2.59199,-7.18261zM533.49827,196.93285c1.02811,2.21107 2.05607,4.4222 3.08385,6.63342c-0.29728,-1.48571 -0.60018,-2.97053 -0.90575,-4.45474c-0.62627,-3.04286 -1.20811,-6.09695 -1.76176,-9.15776c-0.42126,2.03194 -0.67498,4.04891 -0.82599,6.06978c0.13361,0.30594 0.27002,0.60916 0.40966,0.9093zM533.20962,185.97247c-0.10673,-0.35658 -0.21358,-0.7132 -0.32058,-1.06986c-0.98928,-3.2976 -2.23207,-6.51439 -3.47867,-9.72771c-0.1403,1.12386 0.01414,2.32309 0.02914,3.44482c0.04497,3.36141 0.45047,6.68088 0.85256,10.0124c0.65282,1.81775 1.28598,3.64066 1.9767,5.40368c0.23668,-2.17295 0.61235,-4.34815 1.2048,-6.54867c0.00018,-0.00066 0.00035,-0.00132 0.00053,-0.00197c-0.08878,-0.50409 -0.17692,-1.00833 -0.26449,-1.5127zM569.45165,216.95609c0.97469,1.48334 1.95341,2.96403 2.93796,4.44086c3.07674,4.61511 5.976,9.15151 9.88458,13.12379c0.83922,0.8529 1.73792,1.64886 2.66893,2.40049c0.31517,0.25444 0.81808,1.00053 1.02518,0.65242c0.22092,-0.37134 -0.71417,-0.58932 -0.81239,-1.0101c-0.29431,-1.26085 -0.11088,-2.6478 -0.63405,-3.83214c-2.71872,-6.15452 -5.58848,-11.82964 -9.05222,-17.60254c-3.35433,-5.59054 -6.33383,-11.11684 -9.08102,-17.02862c-1.39919,-3.01096 -2.58985,-6.41076 -4.16996,-9.41329c2.42877,8.15542 4.28415,16.49504 6.34762,24.74889c0.29528,1.18112 0.5921,2.35345 0.88537,3.52023zM527.35632,187.7635c-1.01092,-2.8286 -2.09133,-5.61324 -3.50512,-8.16729c-1.23328,-2.22794 -4.06539,-3.52095 -5.75435,-5.53574c0.23463,0.70328 0.38774,1.43125 0.5818,2.14681c1.09272,4.02923 2.50758,7.7684 4.07196,11.63746c1.56831,3.89674 3.89405,7.57384 6.19674,11.18459c-0.11716,-1.12706 -0.23803,-2.24912 -0.38021,-3.35807c-0.34036,-2.65481 -0.75413,-5.28735 -1.21082,-7.90776zM535.701,185.57763c0.11692,0.39088 0.2337,0.7817 0.35037,1.17247c-0.02049,-0.09292 -0.04095,-0.18584 -0.06139,-0.27876c-0.16307,-0.74121 -0.33402,-1.48252 -0.51154,-2.22394c-0.00084,0.00284 -0.00167,0.00568 -0.00251,0.00852c0.07465,0.44065 0.14965,0.88123 0.22508,1.32172zM541.03381,235.86762c-0.2171,-5.07695 -0.73516,-10.12136 -1.44324,-15.14375c-0.10314,-0.16076 -0.20623,-0.32155 -0.30926,-0.48238c-0.48587,1.50462 -1.14067,2.94503 -1.64054,4.44168c0.45362,1.39863 0.89554,2.79327 1.31009,4.18324c0.69457,2.32884 1.32708,4.69113 2.08294,7.00121zM533.37063,210.88333c1.05231,4.11123 2.43711,8.20779 3.77154,12.27293c0.51089,-1.32684 1.07044,-2.63656 1.43228,-4.02001c-1.74968,-2.7405 -3.48348,-5.4909 -5.20382,-8.25292zM524.86788,161.38461c-0.04315,-0.21003 -0.08509,-0.4203 -0.12595,-0.63077c-0.20473,-0.22467 -0.37543,-0.36471 -0.38655,-0.15285c-0.01676,0.31931 0.25451,0.54541 0.51249,0.78362zM549.45057,180.31136c1.87936,4.35863 2.57927,9.23529 4.69532,13.44154c1.60452,3.18943 4.30499,6.29405 6.26141,9.30392c1.62761,2.50402 3.25056,5.01116 4.87751,7.51568c-1.81043,-7.41479 -3.54051,-14.86878 -5.76087,-22.16425c-0.66276,-2.17765 -1.32624,-4.3549 -1.9913,-6.53156c-2.87779,-3.53288 -6.14085,-6.9073 -8.93085,-10.30761c-0.07426,-0.0905 -0.1484,-0.18109 -0.22244,-0.27177c0.05747,0.67932 0.12202,1.35841 0.19475,2.03725c0.24954,2.32905 0.54373,4.65471 0.87647,6.9768zM540.86049,212.77396c0.58553,1.26058 1.17099,2.52119 1.75637,3.78183c-0.82933,-2.48623 -1.63426,-4.97977 -2.42234,-7.47931c0.229,1.2316 0.45153,2.46404 0.66597,3.69748zM528.09921,164.07052c0.79757,2.71793 1.77629,5.38237 2.7946,8.03639c-0.35105,-2.13256 -0.70367,-4.26415 -1.06333,-6.39326c-0.55009,-0.55573 -1.13136,-1.09053 -1.73127,-1.64313zM538.63308,214.56639c-0.05815,-0.34449 -0.11699,-0.6889 -0.17648,-1.03323c-1.85723,-3.99831 -3.71519,-7.99629 -5.5737,-11.99402c-0.01117,1.26036 -0.00561,2.52869 0.00148,3.80944c1.89998,3.08736 3.81507,6.15915 5.74869,9.21781zM531.88064,202.2514c0.00437,-0.93072 0.01612,-1.85668 0.04111,-2.77962c-0.16188,-0.34816 -0.32376,-0.69633 -0.48564,-1.04449c0.14818,1.2747 0.29635,2.54941 0.44453,3.82411zM532.89655,222.46324c0,0.24446 0,0.48892 0,0.73338c0.0317,0.08742 0.06339,0.17485 0.09509,0.26227c-0.033,-0.33142 -0.06461,-0.66336 -0.09509,-0.99565zM526.41358,224.57764c0.27913,0.33616 0.46081,0.68895 0.55931,1.05385c0.39904,-0.18042 0.79576,-0.34803 1.18917,-0.50085l0.00003,-0.00001c0.28841,-0.21194 0.57259,-0.4284 0.85217,-0.64986l-0.04238,-0.08474l0.38933,-0.19465c0.90104,-0.73775 1.7508,-1.53073 2.53534,-2.3945c0,-0.19817 0,-0.39634 0,-0.59451c-1.84949,1.24552 -3.61793,2.40222 -5.48297,3.36527zM520.03986,226.8444c-0.01431,0.00281 -0.02865,0.0056 -0.04299,0.00839c-0.61074,0.11849 -1.98531,-0.10279 -3.27845,-0.17974c-1.66482,1.52429 -3.37311,2.96652 -5.14477,4.28789c-0.02728,0.04949 -0.05448,0.09894 -0.08163,0.1483c2.19867,-1.27917 4.38728,-2.55164 7.11753,-3.49218c0.30646,-0.10555 0.81463,-0.39907 1.43031,-0.77264zM506.03935,237.68927c1.40685,-0.39299 2.78202,-0.85009 4.13157,-1.3667c-0.21233,-0.23362 -0.34177,-0.54394 -0.34177,-0.8845c0,-0.23775 0.06309,-0.46076 0.1734,-0.65323c-0.4214,0.1836 -0.84188,0.36231 -1.26118,0.53495c-0.55915,0.62174 -1.21217,1.21746 -2.00917,1.78047c-0.24448,0.22459 -0.47381,0.41974 -0.69287,0.58898zM501.73662,238.66824c-0.15359,-0.01021 -0.31317,-0.02131 -0.47938,-0.03273l-0.13741,0.13741c0.20633,-0.03357 0.41193,-0.06845 0.61679,-0.10468zM513.87742,232.99931c-0.24503,0.11718 -0.49004,0.23388 -0.73497,0.3499l0.01639,0.04099c0.23853,-0.13151 0.4781,-0.26174 0.71858,-0.39086z" fill="#ffd200" stroke="none" stroke-width="0.5" stroke-linecap="butt"/><path d="" fill="#ffd200" stroke="none" stroke-width="0.5" stroke-linecap="butt"/><path d="" fill="#ffd200" stroke="none" stroke-width="0.5" stroke-linecap="butt"/><path d="M545.56529,118.61285c-1.47476,-1.85335 -1.62907,-4.25862 -1.70305,-6.76599c0.98517,2.06602 1.69765,4.48147 2.22996,7.06621c-0.20204,-0.02756 -0.38237,-0.11857 -0.52691,-0.30022z" fill="#ffd200" stroke="none" stroke-width="0.5" stroke-linecap="butt"/><path d="M419.62539,115.10045c1.4263,-2.26202 2.90669,-4.43188 4.16488,-6.77156c0.47622,-0.88554 0.56327,-2.02429 1.27649,-2.73301c0.42884,-0.42614 1.26499,-0.00572 1.78682,-0.31097c0.66555,-0.38931 0.96309,-1.23609 1.60026,-1.6703c1.64086,-1.11822 3.08336,-1.30215 4.92658,-1.73462l1.88871,-1.05053c0.18441,-0.10722 0.39875,-0.16863 0.62743,-0.16863c0.69036,0 1.25,0.55965 1.25,1.25c0,0.20995 -0.05176,0.4078 -0.14321,0.5815l-0.69997,1.39995c-0.01828,0.10577 -0.03742,0.21122 -0.05762,0.3163c0.36402,0.08855 0.8103,0.34455 0.8926,1.05925c0.143,1.24179 -1.09879,1.38479 -1.09879,1.38479l-0.6601,0.06428c-0.83571,1.46084 -2.3013,2.92441 -2.78654,4.55616c-0.44111,1.48337 -0.12256,4.08523 0.00627,5.99809c0.39261,0.01195 0.74793,0.01968 0.97627,0.02264c0.29996,-0.24515 0.61775,-0.46329 0.94884,-0.66326c0.61322,-0.8307 0.9685,-1.97286 1.89391,-2.37455c0.92361,-0.40092 2.12655,0.0972 2.99155,-0.41815c0.25923,-0.15444 0.51911,-0.32078 0.77877,-0.49017c0.46607,-0.47846 0.91845,-0.94451 1.05087,-1.00015c0.75091,-0.31551 1.69444,-0.86244 2.44339,-0.66984c0.88382,-0.0329 1.70837,0.45285 2.4287,1.90686c0.41148,0.8306 1.00228,1.66304 1.01252,2.58991c0.00088,0.07904 -0.00049,0.15783 -0.00389,0.23638h0.02645v1.09425c4.43083,-1.60789 8.62487,-4.18876 12.8682,-6.32917c0.52069,0.36423 1.18862,0.14425 1.18862,0.14425c5.04069,-1.73401 10.49997,-1.29927 15.79314,-2.12011c7.43317,-1.15269 13.59674,-2.72201 21.27163,-2.81551c1.63844,0.65539 2.55348,1.31493 2.94273,2.04255c-0.1061,0.07498 -0.16692,0.13585 -0.16692,0.13585l0.22062,-0.02802c0.00145,0.00316 -0.21052,0.16016 -0.20904,0.16332c-3.01453,0.62497 -5.28723,1.85222 -8.04096,3.22907c-10.30101,5.18305 -20.94504,11.24018 -29.27029,19.47569c-1.04922,1.56367 -5.8176,2.77305 -6.36065,4.95498c-0.87745,3.52543 5.16674,5.80602 7.39263,6.19546c3.13905,0.54923 5.7201,0.67606 7.99348,0.22751c-0.22301,0.70669 0.36329,1.30025 0.36329,1.30025c5.8795,5.8795 7.92016,22.36049 4.71024,30.02094c-0.91773,1.87621 -4.49138,8.89313 -3.81871,10.75598c0.44124,1.22193 4.1303,2.59952 5.3234,3.49804l-0.38289,0.42387c0,0 -0.00037,0.19668 0.07556,0.43774c-4.65323,0.50385 -9.2304,1.23703 -13.9439,2.11251c0.45697,-3.53127 -3.6419,-4.8246 -7.16438,-5.04493c1.60716,-0.67314 3.11826,-1.48524 3.38371,-2.26475c1.00541,-2.95247 -5.67619,-4.82036 -9.74885,-5.19096c0.33319,-0.22433 0.67614,-0.63008 1.22953,-0.5299c3.33454,-0.78098 9.41495,-5.63089 2.69284,-7.1769c-7.02784,-1.61634 -14.42665,1.72759 -21.29746,1.72759c0,0 -1.17944,-0.22522 -1.17944,1.09018c0,0.48236 0.0422,1.01381 0.26621,1.20725c-1.33097,0.21846 -3.01698,-0.11173 -4.35847,-0.11173c-2.05395,0 -4.14093,-0.04659 -6.22995,-0.10426c0.10613,-0.13254 0.15908,-0.23877 0.15908,-0.23877l0.11344,-0.29294c2.52336,-3.39071 2.63843,-7.63274 2.63843,-11.8914c0,-11.86202 -4.16714,-18.22024 -9.93982,-27.88628c0,0 -0.42422,-1.05432 -1.55215,-0.37755c-0.93183,0.5591 -0.63037,1.42019 -0.49793,1.70479c-6.90709,1.63978 -8.41875,11.04894 -8.7401,18.84514c-0.05033,0.14259 -0.08024,0.30904 -0.08024,0.50643c0,0.15001 0.01686,0.28176 0.04714,0.39951c-0.07174,2.34081 -0.05204,4.47489 -0.05204,6.16099c0,1.63089 -0.02946,3.11558 0.28407,4.7195l0.88421,1.19488c0,0 0.2634,0.26271 0.65094,0.36871c-0.15127,1.03617 -0.34371,2.0641 -0.50938,3.05812l-0.00605,1.42126c0,0 -0.00076,0.28747 0.13449,0.59438c-0.30162,0.26832 -0.60148,0.77801 -0.61345,1.04332c-1.75464,-0.05522 -3.51217,-0.10386 -5.26234,-0.12625c0.8648,-0.25953 0.86403,-1.25539 0.86403,-1.25539l-0.00016,-0.19054c0.01876,-0.01731 0.03749,-0.03536 0.05627,-0.05414c0.93015,-0.93012 -0.00182,-1.86363 -0.00182,-1.86363l-0.07582,0.02641c-0.03162,-0.19434 -0.11547,-0.49675 -0.33316,-0.73715c-0.05138,-7.04305 -0.53574,-14.20632 -0.53574,-21.29796c-0.04709,-8.72258 13.17053,-14.71502 11.46219,-23.82732c0.05312,-0.04701 0.10368,-0.10102 0.14943,-0.16177c0.50443,-0.37976 0.50611,-1.07718 0.50611,-1.07718c-0.00484,-0.2313 -0.00348,-0.46278 0.00391,-0.69438c1.03242,-0.43673 2.04585,-0.90635 2.96496,-1.53932c0.9186,-0.63262 1.40054,-1.73641 2.14208,-2.57288c0.81455,-1.41342 1.52958,-2.92605 2.07434,-3.79001zM431.21197,108.45572c-0.00576,0.00431 -0.01152,0.00863 -0.01726,0.01297c-1.4737,1.11425 -1.61625,5.19145 -1.1574,7.533c-0.11864,-1.89007 -0.2416,-3.99336 0.16288,-5.45309c0.2016,-0.72758 0.57691,-1.4206 1.01178,-2.09288z" fill="#ffd200" stroke="none" stroke-width="0.5" stroke-linecap="butt"/><path d="M421.0031,120.51117c-0.66228,0.75423 -1.20889,1.77421 -2.16539,1.94116c-1.84635,0.32228 -2.46855,-0.41504 -2.5692,-1.38069l-0.57139,0c-0.0115,0.18296 -0.0258,0.3657 -0.0441,0.54812l-0.0363,0.06808l0.02234,0.00496l-0.39466,1.77597c-0.11471,0.57199 -0.61982,1.00287 -1.22557,1.00287c-0.52567,0 -0.97555,-0.32448 -1.16028,-0.78408l-0.58865,-1.37352l0.07812,-0.03348c-0.08304,-0.17488 -0.14417,-0.35876 -0.1755,-0.55489c-0.12037,-0.75362 0.65303,-1.35767 1.08957,-2.0111c0.03415,-1.31832 0.05605,-2.65086 0.63385,-3.84211c2.2814,-4.70356 6.43267,-7.86868 11.72289,-7.90081c0,0 1.25,0 1.25,1.25c0,1.25 -1.25,1.25 -1.25,1.25c-0.78596,-0.00573 -1.51236,0.06139 -2.18795,0.19966c0.26805,0.22926 0.43795,0.56996 0.43795,0.95034c0,0.25777 -0.07802,0.49731 -0.21174,0.6963l-1.35268,2.08104c-0.2097,0.48178 -0.53718,0.89932 -0.84778,1.32692c1.93693,-2.25205 4.18469,-4.39075 6.04939,-6.35824c0.82616,-0.8717 2.1589,-3.10751 3.95894,-2.3137c2.00936,0.88612 1.65185,3.5829 1.60302,5.11388c-0.09719,3.04732 -1.05929,4.87128 -2.61053,7.42432c-0.90064,-0.37112 -2.15616,-0.3065 -2.70193,-1.11336c-0.09294,-0.1374 -0.14136,-0.79578 -0.1654,-1.60749c-0.00304,-0.00007 -0.00608,-0.00015 -0.00912,-0.00024c-2.07985,1.81698 -4.19001,3.00541 -6.57788,3.64008zM430.57269,109.38933c-0.12958,-0.36394 -0.35145,0.03408 -0.60373,0.54928c0.38207,0.09496 0.69469,0.36569 0.84705,0.72139c-0.01784,-0.42139 -0.0918,-0.84509 -0.24333,-1.27066z" fill="#ffd200" stroke="none" stroke-width="0.5" stroke-linecap="butt"/><path d="M434.84724,114.8877c-0.39354,-0.85471 0.42158,-1.46605 0.42158,-1.46605l1.41196,-0.84235c1.62302,-0.1802 8.05305,-1.73626 6.44526,2.62249c-0.29638,0.80349 -1.58203,0.68353 -2.41861,0.86672c-1.96314,0.42988 -3.85098,0.65953 -5.79621,1.50208c0,0 -1.14893,0.4924 -1.64133,-0.65653c-0.4924,-1.14893 0.65653,-1.64133 0.65653,-1.64133c0.29443,-0.12503 0.60304,-0.25486 0.92082,-0.38502z" fill="#ffd200" stroke="none" stroke-width="0.5" stroke-linecap="butt"/></g></g></svg>