<svg version="1.1" xmlns="http://www.w3.org/2000/svg" xmlns:xlink="http://www.w3.org/1999/xlink" width="239.28145" height="101.47168" viewBox="0,0,239.28145,101.47168"><g transform="translate(-115.54564,-127.26544)"><g data-paper-data="{&quot;isPaintingLayer&quot;:true}" fill-rule="nonzero" stroke="none" stroke-width="0.5" stroke-linecap="butt" stroke-linejoin="miter" stroke-miterlimit="10" stroke-dasharray="" stroke-dashoffset="0" style="mix-blend-mode: normal"><path d="M308.70844,227.13486c-1.06942,1.91479 -5.31666,1.57831 -7.06861,1.58125c-3.59464,0.00604 -7.26461,0.18621 -10.76055,-0.85054c-1.28306,-0.3805 -2.31306,-1.40043 -3.59283,-1.79186c-0.73199,-0.22389 -1.55806,-0.0044 -2.28261,-0.25131c-2.22558,-0.75843 -4.65562,-2.55842 -6.77627,-3.62281c-7.51131,-2.51896 -13.62832,-9.47884 -15.89074,-17.05377c-1.21911,-4.08175 -3.61414,-10.66955 0.75127,-13.54996c0.9088,-0.59965 1.88201,-1.3798 2.97059,-1.35829c0.97428,0.01925 1.63649,1.07511 2.52872,1.46693c0.85739,0.37652 1.73403,0.71743 2.59866,1.08177c-0.00246,-1.18979 0.00028,-2.36621 0.00028,-2.42372c0,-4.00355 0.37885,-8.0487 1.3347,-11.94492c0.18589,-0.75772 0.54283,-1.46743 0.90441,-2.15878c0.42835,-0.81899 0.73889,-1.77794 1.45815,-2.35837c2.71222,-2.18868 2.92706,-1.08699 5.60328,-0.41595c2.20925,0.55395 3.48532,0.93605 4.69654,1.74592c-0.27312,-2.39814 -1.38088,-4.49895 -1.96276,-6.83136c-0.99376,-3.98335 -1.07617,-8.10708 -1.07617,-12.18521c0,-1.86883 -0.08734,-3.7397 0,-5.6065c0.05157,-1.10237 -0.3796,-2.41773 0.28545,-3.2984c2.67409,-3.54105 8.40943,-2.24262 11.55374,-0.49678c2.67741,0.80182 6.95814,2.23295 9.13563,4.11166c1.42205,1.22692 2.24802,2.68893 2.80452,4.26512c-0.04648,-1.50535 -0.2603,-2.8209 -0.84593,-3.68633c0.00018,-1.40273 0.00083,-2.80547 0.00226,-4.2082c0.00432,-4.23064 0.08698,-9.08665 3.83679,-11.98805c2.6817,-2.07495 7.10891,-1.10565 10.06699,-0.63853c4.59557,0.72569 10.5062,3.5354 11.76579,8.54862c0.38867,1.54693 0.32316,4.37492 0.3242,6.11669c-0.01071,2.56514 -0.2262,5.18102 -1.48439,7.49723c-0.60113,1.10663 -1.5526,2.00644 -2.1004,3.14041c-0.19338,0.40031 -0.32541,0.82571 -0.4395,1.25832c1.85134,-1.97737 2.49851,-4.38555 4.93689,-5.88035c1.57318,-0.96441 2.89338,-1.20214 4.70256,-1.29736c3.09998,-0.16315 6.66967,-0.45769 9.39705,1.38065c1.81526,1.22355 2.40696,3.55662 3.18557,5.38944c1.48312,3.49119 1.96876,6.48539 1.83656,10.26786c-1.08861,1.5492 -1.94609,3.25254 -3.03515,4.80143c-0.18405,0.26176 -0.37322,0.52056 -0.56707,0.77654c0.63366,0.05123 1.25847,0.18202 1.8626,0.40725c3.77885,1.40879 5.84333,8.13876 5.3988,11.91843c-0.47588,4.04626 -3.15527,6.14222 -6.07009,8.4747c-3.73811,2.9913 -7.60328,5.59264 -11.50052,8.34308c-3.09886,1.14377 -5.82756,0.54371 -8.70851,2.0614l-2.21893,0.18782c-1.08978,0.45818 -2.21791,0.91368 -2.60669,0.99883c-2.62769,0.57551 -5.61301,0.3926 -8.43938,-0.15243l0.52427,0.54293c2.6266,1.9817 6.55212,7.03294 3.14312,10.43658c-0.76944,0.76823 -2.15025,0.34157 -3.23468,0.42041c-2.42238,0.1761 -4.96099,0.00333 -7.39038,0c-0.80903,-0.00111 -1.61428,-0.07608 -2.41851,-0.1725c1.30979,2.10224 3.59271,5.69135 2.86127,7.00099zM301.68595,179.21993c-1.85424,-0.46356 -1.39068,-2.3178 -1.39068,-2.3178l0.19777,-0.5558c0.03511,-4.89768 1.1143,-9.89441 3.08511,-14.44871c-0.58438,-2.64455 -0.61299,-6.09233 -2.90815,-8.03892c-1.93977,-1.64517 -5.83238,-2.82399 -8.19354,-3.53356c-1.66762,-0.98531 -3.53596,-1.4809 -5.52632,-1.40576c-0.44296,0.01672 -1.0454,0.01623 -1.26847,0.39929c-0.22142,0.38022 0.25483,0.84981 0.28545,1.28874c0.17566,2.51811 0.00151,5.11868 0,7.64522c-0.00182,3.05891 0.21633,6.24363 0.96255,9.22141c0.66512,2.65417 1.82529,4.90662 2.08782,7.68128c0.21173,2.23779 0.09674,4.6283 0.03678,6.93721c0.33834,-0.22106 0.66652,-0.48329 0.99319,-0.75745c-0.38271,2.30752 -0.78348,4.60874 -1.02997,6.90557c-0.2143,1.99687 0.00773,4.19269 0.00773,6.19937c0,0 0,0.24984 -0.09033,0.56886c1.25903,2.09147 3.31827,4.04224 4.77158,5.88648c1.25874,1.59734 1.82847,2.51325 3.9382,3.19518c3.1349,1.01329 7.65147,0.15188 10.92215,0.17227l2.0875,-0.47558c0,0 1.08782,-0.24173 1.7868,0.47458c3.19308,1.01315 7.23376,1.78343 10.49874,1.04344c0.16004,-0.03627 3.57439,-1.50675 3.94084,-1.66383l0.9175,-0.46244c0,0 0.86424,-0.43212 1.67098,-0.06739c0.09026,-0.03036 0.18145,-0.05824 0.2737,-0.08326c2.04129,-0.55365 3.63117,0.18932 5.65662,-0.59119c3.67008,-2.65746 7.36991,-5.12306 10.92548,-7.96673c1.46817,-1.1742 3.18702,-2.15045 4.05721,-3.92988c1.11107,-2.27202 0.13126,-5.18733 -0.60073,-7.45578c-0.24189,-0.74963 -0.55524,-2.12007 -1.57935,-2.36988c-1.91666,-0.46754 -3.81882,0.06388 -5.41309,1.06403c-1.53271,1.4336 -3.13151,2.79528 -4.68251,4.12471l-1.73102,1.73301c0,0 -0.24073,0.24073 -0.62059,0.41739c0.78687,0.97711 1.49785,2.01971 2.16408,3.07946l0.89106,1.09321c0,0 1.19398,1.49248 -0.2985,2.68646c-1.49248,1.19399 -2.68646,-0.2985 -2.68646,-0.2985l-1.14767,-1.4552c-0.87753,-1.41348 -1.84448,-2.79696 -3.02191,-3.9724c-1.02795,-1.02621 -2.49635,-1.57222 -3.43624,-2.67965c-1.48383,-1.74833 -2.10312,-4.36984 -3.60808,-6.16497c-1.70542,-2.03423 -3.83338,-3.99481 -6.11985,-5.37505c-0.32489,0.04479 -0.70542,-0.00637 -1.14159,-0.22446c-1.70953,-0.85476 -0.85476,-2.56428 -0.85476,-2.56428l0.72966,-1.45543c1.49934,-3.32391 4.08258,-5.71758 5.68421,-8.84439c0.56947,-1.11175 0.59504,-2.44544 1.13809,-3.57032c0.56042,-1.16086 1.50762,-2.09776 2.1404,-3.22081c0.98375,-1.74592 1.07375,-3.81825 1.06402,-5.75449c0.00078,-1.22832 0.051,-4.01646 -0.18549,-5.0963c-0.76147,-3.4769 -5.67918,-5.34616 -8.68051,-5.79356c-1.3592,-0.20261 -5.73768,-1.30851 -7.20314,-0.05776c-2.54237,2.16986 -2.28253,5.97439 -2.27939,8.9089c0.00545,5.0968 0,10.19364 0,15.29045c0,0 0,1.0137 -0.73824,1.56461c0.79393,1.55567 1.37197,3.13537 1.80261,4.80168c-0.62373,-0.4862 -1.26695,-0.92635 -1.84257,-1.33878c-0.05729,0.48005 -0.3546,1.72578 -1.89763,1.72578c-0.45174,0 -0.7967,-0.10677 -1.06014,-0.26983c-0.5743,2.42237 -0.87242,4.89505 -0.85117,7.27796l-0.31191,1.48293c0,0 -0.46356,1.85424 -2.3178,1.39068zM266.90459,195.1368c-0.44468,-0.22841 -0.55351,-0.96247 -1.03905,-1.08147c-0.2931,-0.07184 -0.36207,0.49125 -0.59718,0.68044c-0.26665,0.21457 -0.79165,0.18663 -0.88832,0.51496c-0.60247,2.04626 0.92164,5.07442 1.40142,6.89628c0.16882,0.64108 0.05428,1.33757 0.23817,1.97448c1.87422,6.49156 7.28698,12.43203 13.67079,14.54649c1.94348,0.96848 4.40333,2.83997 6.47545,3.51273c0.73521,0.2387 1.56795,0.02392 2.30453,0.25837c2.25154,0.71669 3.34912,1.85878 5.80705,2.22063c2.44383,0.35977 4.90219,0.22936 7.36238,0.2338c0.63717,0.00115 1.53692,-0.17335 2.28377,-0.17167c-0.65793,-0.93367 -1.28726,-2.41768 -1.69812,-3.30124l-1.44174,-0.96055c0,0 -0.41672,-0.29766 -0.66467,-0.80052c-2.03623,-0.03639 -4.00347,-0.04544 -5.987,-0.64687c0.39434,-0.13918 0.64749,-0.2491 0.68139,-0.30841c0.55113,-0.96448 0.78979,-2.0569 0.9985,-3.16283c2.44229,0.62783 4.95393,0.20987 7.51456,0.43918c1.64832,0.14761 3.28426,0.5056 4.93917,0.50317c2.3686,-0.00348 5.04157,-0.29118 7.39038,0c0.31155,0.03862 0.53671,0.49029 0.84277,0.42041c0.19513,-0.04455 -0.09982,-0.39115 -0.19135,-0.56914c-0.25908,-0.5038 -0.61053,-0.95764 -0.85627,-1.46808c-0.21452,-0.44558 -0.20267,-1.00997 -0.51955,-1.38964c-0.35855,-0.4296 -0.93726,-0.61156 -1.40589,-0.91733l-1.51478,-1.478c0,0 -1.3515,-1.3515 0,-2.70299c0.07151,-0.07151 0.14302,-0.13545 0.21433,-0.19243c-0.51654,-0.14782 -1.01981,-0.30396 -1.50597,-0.46546c0,0 -0.02206,-0.00735 -0.06049,-0.02287l-1.67495,0.36438c-3.86481,0.01963 -8.78848,0.80201 -12.52321,-0.33741c-2.76256,-0.84283 -4.05025,-2.35756 -5.74575,-4.45005c-1.7701,-2.18455 -4.28902,-4.64264 -5.56009,-7.20523c-0.27947,-0.56345 -1.03211,-4.11338 -1.18097,-4.78304c0,0 -0.36889,-1.65999 1.155,-2.19639c0.01509,-0.40262 0.04087,-0.8011 0.08141,-1.19313c0.09473,-0.91593 0.21547,-1.8304 0.35065,-2.74415c-0.35838,-0.53552 -0.35837,-1.16166 -0.35837,-1.16166c0,-1.13274 0.04133,-2.29964 0.07372,-3.47228c-0.06537,-0.06023 -0.10063,-0.0999 -0.10063,-0.0999c-0.60482,-0.69306 -1.13555,-1.45852 -1.81447,-2.07918c-1.20668,-1.10314 -2.29765,-0.72496 -3.89141,-1.17083c-0.5268,-0.14738 -0.9501,-0.58695 -1.48612,-0.69614c-0.65894,-0.13423 -1.10443,1.42011 -1.13641,1.48959c-1.01523,2.20566 -1.5942,5.56753 -1.84975,8.02117c-0.25994,2.49588 -0.45959,6.17248 -0.01926,8.62469c0.24049,1.3393 0.92927,2.75844 1.72389,4.13467c-1.1758,0.55849 -2.18642,1.40826 -2.93862,2.45606c-0.73707,-1.25954 -1.44127,-2.56477 -1.94527,-3.8711c-1.53713,-0.92243 -3.31853,-1.37216 -4.91371,-2.19151zM327.59792,177.95673c1.47061,1.76152 2.09791,4.37062 3.52746,6.06739c0.56607,0.67188 1.36111,1.09777 2.10728,1.57989c0.17793,-0.40849 0.43981,-0.67038 0.43981,-0.67038l1.83675,-1.83476c1.02583,-0.87928 2.07799,-1.77326 3.1129,-2.69198c0.21656,-0.42575 0.52992,-0.68689 0.52992,-0.68689c0.35471,-0.28946 0.73859,-0.57344 1.1459,-0.8447c0.86788,-0.82096 1.705,-1.66454 2.48315,-2.53726c1.84064,-2.06434 2.96634,-4.35007 4.70073,-6.45745c-0.14768,-2.06625 -0.29651,-3.90229 -1.00276,-5.87903c-0.5778,-1.61722 -1.15354,-4.50792 -2.63969,-5.4768c-2.25516,-1.47023 -7.58998,-1.32014 -9.85542,0.0833c-1.94417,1.2044 -2.71524,3.69981 -4.21238,5.30605c-2.58078,2.76883 -5.65406,5.16933 -8.50461,7.73672c0,0 -0.14358,0.12922 -0.38053,0.25986c-0.00667,0.01393 -0.01333,0.02788 -0.01997,0.04184c2.5144,1.61149 4.82801,3.72423 6.73147,6.00421z" fill="#000000"/><path d="M271.85591,197.33511c0.504,1.30634 1.20879,2.60359 1.94586,3.86313c0.7522,-1.0478 1.68677,-1.90178 2.86257,-2.46026c-0.79462,-1.37623 -1.48111,-2.80402 -1.72161,-4.14332c-0.44033,-2.45221 -0.23277,-6.14118 0.02717,-8.63706c0.25554,-2.45364 0.84259,-5.82194 1.85782,-8.0276c0.03198,-0.06947 0.4796,-1.625 1.13854,-1.49077c0.53602,0.10919 0.96065,0.54811 1.48745,0.69549c1.59375,0.44587 2.68935,0.06589 3.89603,1.16903c0.67891,0.62066 1.21159,1.38556 1.81641,2.07862c0,0 0.05422,0.11373 0.11959,0.17396c-0.0324,1.17264 -0.07177,2.33898 -0.07177,3.47173c0,0 0,0.62614 0.35838,1.16166c-0.13519,0.91375 -0.25292,1.82714 -0.34765,2.74307c-0.04055,0.39203 -0.06488,0.78989 -0.07997,1.19251c-1.52388,0.5364 -1.14924,2.19314 -1.14924,2.19314c0.14886,0.66966 0.90862,4.21329 1.18809,4.77674c1.27107,2.56258 3.75671,4.95747 5.52681,7.14202c1.6955,2.09249 2.96283,3.6162 5.72539,4.45903c3.73473,1.13943 8.64781,0.37191 12.51262,0.35228l1.67436,-0.36278c0.03844,0.01552 0.06049,0.02286 0.06049,0.02286c0.48616,0.16151 1.06171,0.34257 1.57824,0.49039c-0.07131,0.05698 -0.14296,0.12131 -0.21447,0.19282c-1.3515,1.3515 -0.00156,2.70675 -0.00156,2.70675l1.51434,1.47889c0.46863,0.30578 1.04723,0.48795 1.40578,0.91755c0.31688,0.37967 0.3044,0.94522 0.51892,1.3908c0.24575,0.51044 0.59665,0.96521 0.85573,1.46901c0.09153,0.17799 0.38622,0.525 0.1911,0.56955c-0.30606,0.06988 -0.53128,-0.38169 -0.84283,-0.42031c-2.34881,-0.29118 -5.02556,0.00157 -7.39416,0.00505c-1.65491,0.00243 -3.29482,-0.35168 -4.94313,-0.49929c-2.56063,-0.22931 -5.08386,0.19537 -7.52615,-0.43246c-0.20872,1.10593 -0.45136,2.19956 -1.00249,3.16404c-0.03389,0.05931 -0.30376,0.09464 -0.6981,0.23382c1.98352,0.60142 3.94096,0.61391 5.9772,0.6503c0.24796,0.50287 0.66433,0.8007 0.66433,0.8007l1.44057,0.96119c0.41086,0.88356 1.07786,2.4341 1.7358,3.36777c-0.74685,-0.00168 -1.64925,0.17417 -2.28642,0.17303c-2.46018,-0.00443 -4.92855,0.12904 -7.37237,-0.23073c-2.45793,-0.36184 -3.56499,-1.5036 -5.81653,-2.22029c-0.73657,-0.23446 -1.57333,-0.02024 -2.30854,-0.25895c-2.07212,-0.67276 -4.54415,-2.54891 -6.48763,-3.5174c-6.38381,-2.11447 -11.81485,-8.08245 -13.68908,-14.574c-0.18389,-0.63692 -0.06965,-1.33648 -0.23847,-1.97755c-0.47978,-1.82186 -2.00315,-4.8601 -1.40068,-6.90636c0.09667,-0.32833 0.62189,-0.30137 0.88854,-0.51595c0.23511,-0.18919 0.37818,-0.73349 0.67128,-0.66165c0.48554,0.11901 0.59467,0.85188 1.03935,1.08029c1.59517,0.81935 3.37699,1.2671 4.91412,2.18953z" data-paper-data="{&quot;noHover&quot;:false,&quot;origItem&quot;:[&quot;Path&quot;,{&quot;applyMatrix&quot;:true,&quot;segments&quot;:[[[163.90458,227.13679],[1.59517,0.81935],[-0.44468,-0.22841]],[[162.86553,226.05532],[0.48554,0.11901],[-0.2931,-0.07184]],[[162.26835,226.73575],[0.23511,-0.18919],[-0.26665,0.21457]],[[161.38003,227.25071],[0.09667,-0.32833],[-0.60247,2.04626]],[[162.78145,234.14699],[-0.47978,-1.82186],[0.16882,0.64108]],[[163.01962,236.12147],[-0.18389,-0.63692],[1.87422,6.49156]],[[176.69041,250.66796],[-6.38381,-2.11447],[1.94348,0.96848]],[[183.16586,254.1807],[-2.07212,-0.67276],[0.73521,0.2387]],[[185.47039,254.43907],[-0.73657,-0.23446],[2.25154,0.71669]],[[191.27744,256.6597],[-2.45793,-0.36184],[2.44383,0.35977]],[[198.63982,256.89349],[-2.46018,-0.00443],[0.63717,0.00115]],[[200.92359,256.72183],[-0.74685,-0.00168],[-0.65793,-0.93367]],[[199.22547,253.42058],[0.41086,0.88356],[0,0]],[197.78373,252.46003],[[197.11906,251.65951],[0.24796,0.50287],[-2.03623,-0.03639]],[[191.13206,251.01264],[1.98352,0.60142],[0.39434,-0.13918]],[[191.81345,250.70423],[-0.03389,0.05931],[0.55113,-0.96448]],[[192.81195,247.5414],[-0.20872,1.10593],[2.44229,0.62783]],[[200.32651,247.98058],[-2.56063,-0.22931],[1.64832,0.14761]],[[205.26568,248.48375],[-1.65491,0.00243],[2.3686,-0.00348]],[[212.65606,248.48375],[-2.34881,-0.29118],[0.31155,0.03862]],[[213.49883,248.90416],[-0.30606,0.06988],[0.19513,-0.04455]],[[213.30748,248.33502],[0.09153,0.17799],[-0.25908,-0.5038]],[[212.45121,246.86694],[0.24575,0.51044],[-0.21452,-0.44558]],[[211.93167,245.4773],[0.31688,0.37967],[-0.35855,-0.4296]],[[210.52577,244.55996],[0.46863,0.30578],[0,0]],[209.011,243.08196],[[209.011,240.37897],[-1.3515,1.3515],[0.07151,-0.07151]],[[209.22533,240.18654],[-0.07131,0.05698],[-0.51654,-0.14782]],[[207.71936,239.72108],[0.48616,0.16151],[0,0]],[[207.65887,239.69821],[0.03844,0.01552],[0,0]],[[205.98392,240.06259],[0,0],[-3.86481,0.01963]],[[193.46071,239.72518],[3.73473,1.13943],[-2.76256,-0.84283]],[[187.71496,235.27513],[1.6955,2.09249],[-1.7701,-2.18455]],[[182.15487,228.0699],[1.27107,2.56258],[-0.27947,-0.56345]],[[180.9739,223.28687],[0.14886,0.66966],[0,0]],[[182.12889,221.09048],[-1.52388,0.5364],[0.01509,-0.40262]],[[182.21031,219.89735],[-0.04055,0.39203],[0.09473,-0.91593]],[[182.56096,217.15321],[-0.13519,0.91375],[-0.35838,-0.53552]],[[182.20259,215.99154],[0,0],[0,-1.13274]],[[182.27631,212.51927],[-0.0324,1.17264],[-0.06537,-0.06023]],[[182.17568,212.41937],[0,0],[-0.60482,-0.69306]],[[180.36122,210.3402],[0.67891,0.62066],[-1.20668,-1.10314]],[[176.46981,209.16937],[1.59375,0.44587],[-0.5268,-0.14738]],[[174.98369,208.47323],[0.53602,0.10919],[-0.65894,-0.13423]],[[173.84729,209.96282],[0.03198,-0.06947],[-1.01523,2.20566]],[[171.99754,217.98399],[0.25554,-2.45364],[-0.25994,2.49588]],[[171.97828,226.60868],[-0.44033,-2.45221],[0.24049,1.3393]],[[173.70217,230.74335],[-0.79462,-1.37623],[-1.1758,0.55849]],[[170.76355,233.19941],[0.7522,-1.0478],[-0.73707,-1.25954]],[[168.81828,229.3283],[0.504,1.30634],[-1.53713,-0.92243]]],&quot;closed&quot;:true}]}" fill="#ffffff"/><path d="M320.82826,171.95369c0.00664,-0.01396 0.01329,-0.02803 0.01996,-0.04196c0.23695,-0.13064 0.38052,-0.2606 0.38052,-0.2606c2.85055,-2.56738 5.94295,-5.00131 8.52374,-7.77014c1.49715,-1.60624 2.28676,-4.10675 4.23092,-5.31116c2.26545,-1.40344 7.62361,-1.546 9.87877,-0.07577c1.48615,0.96888 2.07169,3.8703 2.64949,5.48752c0.70625,1.97674 0.86043,3.82801 1.0081,5.89427c-1.73439,2.10738 -2.86463,4.41646 -4.70527,6.4808c-0.77815,0.87272 -1.62416,1.72705 -2.49204,2.548c-0.40731,0.27126 -0.79582,0.55855 -1.15053,0.84801c0,0 -0.31609,0.26265 -0.53265,0.6884c-1.03491,0.91872 -2.09983,1.8165 -3.12566,2.69579l-1.84257,1.83498c0,0 -0.26301,0.26183 -0.44093,0.67032c-0.74616,-0.48212 -1.54773,-0.90901 -2.11379,-1.58089c-1.42955,-1.69677 -2.07514,-4.31632 -3.54576,-6.07784c-1.90345,-2.27999 -4.2279,-4.41823 -6.7423,-6.02973z" data-paper-data="{&quot;noHover&quot;:false,&quot;origItem&quot;:[&quot;Path&quot;,{&quot;applyMatrix&quot;:true,&quot;segments&quot;:[[[224.59792,209.95672],[-1.90345,-2.27999],[1.47061,1.76152]],[[228.12538,216.02411],[-1.42955,-1.69677],[0.56607,0.67188]],[[230.23265,217.604],[-0.74616,-0.48212],[0.17793,-0.40849]],[230.67246,216.93362],[[232.50921,215.09886],[0,0],[1.02583,-0.87928]],[[235.62212,212.40688],[-1.03491,0.91872],[0.21656,-0.42575]],[[236.15203,211.71999],[0,0],[0.35471,-0.28946]],[[237.29794,210.87529],[-0.40731,0.27126],[0.86788,-0.82096]],[[239.78109,208.33803],[-0.77815,0.87272],[1.84064,-2.06434]],[[244.48183,201.88057],[-1.73439,2.10738],[-0.14768,-2.06625]],[[243.47906,196.00154],[0.70625,1.97674],[-0.5778,-1.61722]],[[240.83937,190.52474],[1.48615,0.96888],[-2.25516,-1.47023]],[[230.98395,190.60804],[2.26545,-1.40344],[-1.94417,1.2044]],[[226.77156,195.91409],[1.49715,-1.60624],[-2.58078,2.76883]],[[218.26695,203.6508],[2.85055,-2.56738],[0,0]],[[217.88642,203.91066],[0.23695,-0.13064],[-0.00667,0.01393]],[[217.86645,203.95251],[0.00664,-0.01396],[2.5144,1.61149]]],&quot;closed&quot;:true}]}" fill="#ffffff"/><path d="M303.96862,178.35404l0.31076,-1.48594c-0.02126,-2.3829 0.27565,-4.87521 0.84995,-7.29758c0.26344,0.16306 0.60837,0.27 1.06011,0.27c1.54304,0 1.84241,-1.25266 1.89969,-1.73271c0.57562,0.41243 1.21801,0.85485 1.84174,1.34105c-0.43065,-1.66631 -1.003,-3.25688 -1.79694,-4.81255c0.73823,-0.55091 0.74147,-1.56839 0.74147,-1.56839c0,-5.09681 0.01915,-10.20266 0.0137,-15.29946c-0.00314,-2.9345 -0.25724,-6.74073 2.28513,-8.9106c1.46547,-1.25075 5.85203,-0.14568 7.21123,0.05693c3.00134,0.4474 7.93057,2.31849 8.69204,5.79539c0.23649,1.07984 0.18886,3.86891 0.18808,5.09724c0.00973,1.93624 -0.07807,4.00954 -1.06181,5.75546c-0.63279,1.12305 -1.61164,2.12952 -2.17206,3.29038c-0.54305,1.12488 -0.56982,2.45803 -1.13928,3.56978c-1.60163,3.1268 -4.14077,5.51224 -5.6401,8.83615l-0.72051,1.41906c0,0 -0.88076,1.68294 0.82876,2.5377c0.43618,0.21809 0.80305,0.26777 1.12794,0.22298c2.28647,1.38024 4.39456,3.34815 6.09998,5.38238c1.50496,1.79513 2.12556,4.41573 3.60939,6.16405c0.93989,1.10743 2.40637,1.65481 3.43433,2.68102c1.17743,1.17544 2.19087,2.61961 3.0684,4.0331l1.10117,1.39451c0,0 1.19211,1.49401 2.68459,0.30003c1.49248,-1.19399 0.29658,-2.68467 0.29658,-2.68467l-0.8912,-1.09307c-0.66623,-1.05975 -1.37795,-2.10157 -2.16482,-3.07869c0.37986,-0.17667 0.61981,-0.41654 0.61981,-0.41654l1.72864,-1.73001c1.55099,-1.32942 3.14553,-2.68339 4.67824,-4.11699c1.59427,-1.00015 3.49518,-1.52806 5.41184,-1.06052c1.02411,0.24982 1.41002,1.64426 1.65191,2.39388c0.732,2.26845 1.70882,5.19011 0.59775,7.46213c-0.87018,1.77943 -2.59233,2.76042 -4.06049,3.93462c-3.55557,2.84366 -7.26646,5.31856 -10.93654,7.97603c-2.02545,0.78052 -3.62079,0.04005 -5.66208,0.5937c-0.09225,0.02502 -0.18375,0.05301 -0.27401,0.08338c-0.80674,-0.36473 -1.67274,0.06797 -1.67274,0.06797l-0.91862,0.46276c-0.36645,0.15708 -3.78548,1.62852 -3.94553,1.66479c-3.26498,0.73999 -7.31765,-0.03052 -10.51074,-1.04367c-0.69898,-0.71631 -1.78889,-0.47501 -1.78889,-0.47501l-2.08959,0.47502c-3.27067,-0.02039 -7.79687,0.83664 -10.93177,-0.17666c-2.10973,-0.68193 -2.68354,-1.60083 -3.94228,-3.19817c-1.45332,-1.84425 -3.51787,-3.80049 -4.77691,-5.89195c0.09033,-0.31902 0.09008,-0.56917 0.09008,-0.56917c0,-2.00668 -0.22512,-4.20715 -0.01083,-6.20402c0.24649,-2.29683 0.64436,-4.60452 1.02706,-6.91204c-0.32667,0.27416 -0.65469,0.53685 -0.99303,0.75791c0.05997,-2.30891 0.173,-4.70775 -0.03873,-6.94554c-0.26253,-2.77465 -1.42262,-5.0367 -2.08774,-7.69087c-0.74622,-2.97778 -0.96178,-6.17209 -0.95995,-9.231c0.00151,-2.52654 0.17895,-5.13332 0.00329,-7.65143c-0.03062,-0.43892 -0.50637,-0.90926 -0.28496,-1.28948c0.22307,-0.38306 0.82611,-0.38342 1.26907,-0.40014c1.99036,-0.07513 3.86018,0.41854 5.52781,1.40385c2.36116,0.70957 6.25636,1.88557 8.19613,3.53074c2.29516,1.94658 2.38239,5.44282 2.96677,8.08737c-1.97081,4.5543 -3.0448,9.52013 -3.07991,14.41781l-0.19804,0.55484c0,0 -0.46547,1.84908 1.38877,2.31264c1.85424,0.46356 2.24788,-1.35977 2.24788,-1.35977z" data-paper-data="{&quot;noHover&quot;:false,&quot;origItem&quot;:[&quot;Path&quot;,{&quot;applyMatrix&quot;:true,&quot;segments&quot;:[[[198.68594,211.21992],[1.85424,0.46356],[-1.85424,-0.46356]],[197.29526,208.90212],[[197.49304,208.34632],[0,0],[0.03511,-4.89768]],[[200.57814,193.89761],[-1.97081,4.5543],[-0.58438,-2.64455]],[[197.66999,185.85869],[2.29516,1.94658],[-1.93977,-1.64517]],[[189.47645,182.32513],[2.36116,0.70957],[-1.66762,-0.98531]],[[183.95013,180.91937],[1.99036,-0.07513],[-0.44296,0.01672]],[[182.68166,181.31866],[0.22307,-0.38306],[-0.22142,0.38022]],[[182.96711,182.6074],[-0.03062,-0.43892],[0.17566,2.51811]],[[182.96711,190.25262],[0.00151,-2.52654],[-0.00182,3.05891]],[[183.92966,199.47404],[-0.74622,-2.97778],[0.66512,2.65417]],[[186.01747,207.15531],[-0.26253,-2.77465],[0.21173,2.23779]],[[186.05425,214.09252],[0.05997,-2.30891],[0.33834,-0.22106]],[[187.04744,213.33507],[-0.32667,0.27416],[-0.38271,2.30752]],[[186.01747,220.24065],[0.24649,-2.29683],[-0.2143,1.99687]],[[186.0252,226.44002],[0,-2.00668],[0,0]],[[185.93487,227.00887],[0.09033,-0.31902],[1.25903,2.09147]],[[190.70645,232.89536],[-1.45332,-1.84425],[1.25874,1.59734]],[[194.64466,236.09053],[-2.10973,-0.68193],[3.1349,1.01329]],[[205.56681,236.2628],[-3.27067,-0.02039],[0,0]],[207.65431,235.78722],[[209.4411,236.2618],[-0.69898,-0.71631],[3.19308,1.01315]],[[219.93984,237.30524],[-3.26498,0.73999],[0.16004,-0.03627]],[[223.88068,235.64141],[-0.36645,0.15708],[0,0]],[224.79818,235.17897],[[226.46916,235.11158],[-0.80674,-0.36473],[0.09026,-0.03036]],[[226.74286,235.02831],[-0.09225,0.02502],[2.04129,-0.55365]],[[232.39948,234.43712],[-2.02545,0.78052],[3.67008,-2.65746]],[[243.32496,226.4704],[-3.55557,2.84366],[1.46817,-1.1742]],[[247.38216,222.54052],[-0.87018,1.77943],[1.11107,-2.27202]],[[246.78143,215.08474],[0.732,2.26845],[-0.24189,-0.74963]],[[245.20208,212.71486],[1.02411,0.24982],[-1.91666,-0.46754]],[[239.78899,213.77889],[1.59427,-1.00015],[-1.53271,1.4336]],[[235.10648,217.9036],[1.55099,-1.32942],[0,0]],[233.37546,219.63661],[[232.75487,220.054],[0.37986,-0.17667],[0.78687,0.97711]],[[234.91895,223.13346],[-0.66623,-1.05975],[0,0]],[235.81001,224.22667],[[235.51151,226.91313],[1.49248,-1.19399],[-1.49248,1.19399]],[232.82505,226.61464],[[231.67738,225.15944],[0,0],[-0.87753,-1.41348]],[[228.65547,221.18704],[1.17743,1.17544],[-1.02795,-1.02621]],[[225.21923,218.50739],[0.93989,1.10743],[-1.48383,-1.74833]],[[221.61115,212.34242],[1.50496,1.79513],[-1.70542,-2.03423]],[[215.4913,206.96737],[2.28647,1.38024],[-0.32489,0.04479]],[[214.34971,206.74291],[0.43618,0.21809],[-1.70953,-0.85476]],[213.49494,204.17863],[[214.2246,202.7232],[0,0],[1.49934,-3.32391]],[[219.90881,193.87881],[-1.60163,3.1268],[0.56947,-1.11175]],[[221.0469,190.30849],[-0.54305,1.12488],[0.56042,-1.16086]],[[223.1873,187.08769],[-0.63279,1.12305],[0.98375,-1.74592]],[[224.25132,181.33319],[0.00973,1.93624],[0.00078,-1.22832]],[[224.06583,176.23689],[0.23649,1.07984],[-0.76147,-3.4769]],[[215.38531,170.44333],[3.00134,0.4474],[-1.3592,-0.20261]],[[208.18217,170.38557],[1.46547,-1.25075],[-2.54237,2.16986]],[[205.90278,179.29447],[-0.00314,-2.9345],[0.00545,5.0968]],[[205.90278,194.58492],[0,-5.09681],[0,0]],[[205.16454,196.14953],[0.73823,-0.55091],[0.79393,1.55567]],[[206.96716,200.95121],[-0.43065,-1.66631],[-0.62373,-0.4862]],[[205.12459,199.61242],[0.57562,0.41243],[-0.05729,0.48005]],[[203.22695,201.3382],[1.54304,0],[-0.45174,0]],[[202.16681,201.06837],[0.26344,0.16306],[-0.5743,2.42237]],[[201.31565,208.34632],[-0.02126,-2.3829],[0,0]],[201.00374,209.82925]],&quot;closed&quot;:true}]}" fill="#ffffff"/><path d="M164.52556,213.36935c-0.80423,0.09641 -1.60949,0.17139 -2.41851,0.1725c-2.42939,0.00333 -4.968,0.1761 -7.39038,0c-1.08443,-0.07883 -2.46524,0.34782 -3.23468,-0.42041c-3.409,-3.40363 0.51652,-8.45488 3.14312,-10.43658l0.52428,-0.54293c-2.82637,0.54502 -5.81169,0.72794 -8.43938,0.15243c-0.38877,-0.08515 -1.5169,-0.54065 -2.60669,-0.99883l-2.21893,-0.18782c-2.88095,-1.5177 -5.60965,-0.91763 -8.70851,-2.0614c-3.89723,-2.75044 -7.7624,-5.35178 -11.50052,-8.34308c-2.91482,-2.33249 -5.59421,-4.42845 -6.07009,-8.4747c-0.44452,-3.77967 1.61995,-10.50964 5.3988,-11.91843c0.60414,-0.22523 1.22895,-0.35601 1.8626,-0.40725c-0.19385,-0.25598 -0.38302,-0.51477 -0.56707,-0.77654c-1.08906,-1.54888 -1.94654,-3.25223 -3.03515,-4.80143c-0.1322,-3.78246 0.35344,-6.77667 1.83656,-10.26786c0.77862,-1.83282 1.37031,-4.16589 3.18557,-5.38944c2.72738,-1.83835 6.29707,-1.5438 9.39705,-1.38065c1.80918,0.09521 3.12938,0.33295 4.70256,1.29736c2.43838,1.49481 3.08555,3.90298 4.93689,5.88035c-0.11409,-0.43261 -0.24612,-0.85802 -0.4395,-1.25832c-0.5478,-1.13397 -1.49927,-2.03378 -2.1004,-3.14041c-1.25819,-2.31621 -1.47368,-4.93209 -1.48439,-7.49723c0.00104,-1.74177 -0.06448,-4.56975 0.3242,-6.11669c1.25959,-5.01321 7.17022,-7.82293 11.76579,-8.54862c2.95809,-0.46712 7.38529,-1.43642 10.06699,0.63853c3.74981,2.90139 3.83247,7.75741 3.83679,11.98805c0.00143,1.40273 0.00208,2.80546 0.00226,4.2082c-0.58564,0.86543 -0.79946,2.18098 -0.84593,3.68633c0.5565,-1.57619 1.38247,-3.0382 2.80452,-4.26512c2.1775,-1.87871 6.45822,-3.30984 9.13563,-4.11166c3.14431,-1.74583 8.87965,-3.04427 11.55374,0.49678c0.66505,0.88067 0.23388,2.19603 0.28545,3.2984c0.08734,1.86679 0,3.73766 0,5.6065c0,4.07813 -0.08242,8.20187 -1.07617,12.18521c-0.58188,2.33241 -1.68964,4.43322 -1.96276,6.83136c1.21122,-0.80987 2.48729,-1.19197 4.69654,-1.74592c2.67621,-0.67104 2.89106,-1.77273 5.60328,0.41595c0.71926,0.58043 1.0298,1.53938 1.45815,2.35837c0.36158,0.69134 0.71852,1.40105 0.90441,2.15877c0.95586,3.89622 1.3347,7.94137 1.3347,11.94493c0,0.05751 0.00274,1.23393 0.00028,2.42372c0.86463,-0.36434 1.74127,-0.70525 2.59866,-1.08177c0.89222,-0.39182 1.55444,-1.44769 2.52872,-1.46694c1.08859,-0.02151 2.0618,0.75864 2.97059,1.35829c4.36542,2.88041 1.97038,9.4682 0.75127,13.54996c-2.26242,7.57493 -8.37944,14.53481 -15.89074,17.05377c-2.12065,1.06439 -4.55069,2.86438 -6.77627,3.62281c-0.72455,0.24691 -1.55062,0.02742 -2.28261,0.25131c-1.27976,0.39143 -2.30977,1.41136 -3.59283,1.79186c-3.49594,1.03675 -7.16591,0.85657 -10.76055,0.85054c-1.75195,-0.00294 -5.99919,0.33353 -7.06861,-1.58125c-0.73144,-1.30964 1.55147,-4.89875 2.86126,-7.00099zM166.36899,171.06473l-0.31191,-1.48293c0.02126,-2.3829 -0.27686,-4.85558 -0.85117,-7.27796c-0.26344,0.16306 -0.6084,0.26983 -1.06014,0.26983c-1.54304,0 -1.84035,-1.24572 -1.89763,-1.72578c-0.57562,0.41243 -1.21884,0.85258 -1.84257,1.33878c0.43065,-1.66631 1.00868,-3.24601 1.80261,-4.80168c-0.73823,-0.55091 -0.73824,-1.56461 -0.73824,-1.56461c0,-5.09681 -0.00545,-10.19365 0,-15.29045c0.00314,-2.9345 0.26298,-6.73904 -2.27939,-8.9089c-1.46547,-1.25075 -5.84394,-0.14485 -7.20314,0.05776c-3.00134,0.4474 -7.91904,2.31666 -8.68051,5.79356c-0.23649,1.07984 -0.18627,3.86798 -0.18549,5.0963c-0.00973,1.93624 0.08027,4.00857 1.06402,5.75449c0.63279,1.12305 1.57998,2.05995 2.1404,3.22081c0.54305,1.12488 0.56862,2.45857 1.13809,3.57032c1.60163,3.1268 4.18487,5.52047 5.68421,8.84439l0.72966,1.45543c0,0 0.85476,1.70952 -0.85476,2.56428c-0.43618,0.21809 -0.8167,0.26925 -1.14159,0.22446c-2.28647,1.38024 -4.41443,3.34081 -6.11985,5.37505c-1.50496,1.79513 -2.12426,4.41665 -3.60808,6.16497c-0.93989,1.10743 -2.40828,1.65344 -3.43624,2.67965c-1.17743,1.17544 -2.14438,2.55892 -3.02191,3.9724l-1.14767,1.4552c0,0 -1.19399,1.49248 -2.68646,0.2985c-1.49248,-1.19399 -0.2985,-2.68646 -0.2985,-2.68646l0.89106,-1.09321c0.66623,-1.05975 1.37721,-2.10234 2.16408,-3.07946c-0.37986,-0.17667 -0.62059,-0.41739 -0.62059,-0.41739l-1.73102,-1.73301c-1.55099,-1.32942 -3.1498,-2.6911 -4.68251,-4.12471c-1.59427,-1.00015 -3.49642,-1.53157 -5.41309,-1.06403c-1.02411,0.24982 -1.33746,1.62026 -1.57935,2.36988c-0.732,2.26845 -1.7118,5.18376 -0.60073,7.45578c0.87018,1.77943 2.58904,2.75568 4.05721,3.92988c3.55557,2.84366 7.25539,5.30926 10.92548,7.96673c2.02545,0.78052 3.61533,0.03754 5.65662,0.59119c0.09225,0.02502 0.18344,0.0529 0.2737,0.08326c0.80674,-0.36473 1.67098,0.06739 1.67098,0.06739l0.9175,0.46244c0.36645,0.15708 3.7808,1.62756 3.94084,1.66383c3.26498,0.73999 7.30566,-0.03029 10.49874,-1.04344c0.69898,-0.71631 1.7868,-0.47458 1.7868,-0.47458l2.0875,0.47558c3.27067,-0.02039 7.78725,0.84102 10.92215,-0.17227c2.10973,-0.68193 2.67946,-1.59784 3.9382,-3.19518c1.45332,-1.84425 3.51255,-3.79502 4.77158,-5.88648c-0.09033,-0.31902 -0.09033,-0.56886 -0.09033,-0.56886c0,-2.00668 0.22202,-4.2025 0.00773,-6.19937c-0.24649,-2.29683 -0.64726,-4.59806 -1.02997,-6.90557c0.32667,0.27416 0.65485,0.53639 0.99319,0.75745c-0.05997,-2.30891 -0.17495,-4.69942 0.03678,-6.93721c0.26253,-2.77465 1.4227,-5.0271 2.08782,-7.68128c0.74622,-2.97778 0.96437,-6.1625 0.96255,-9.22141c-0.00151,-2.52654 -0.17566,-5.12711 0,-7.64522c0.03062,-0.43892 0.50687,-0.90852 0.28545,-1.28874c-0.22307,-0.38306 -0.82551,-0.38257 -1.26847,-0.39929c-1.99036,-0.07513 -3.8587,0.42045 -5.52632,1.40576c-2.36116,0.70957 -6.25377,1.88839 -8.19354,3.53356c-2.29516,1.94658 -2.32377,5.39437 -2.90815,8.03892c1.97081,4.5543 3.05,9.55103 3.08511,14.44871l0.19777,0.5558c0,0 0.46356,1.85424 -1.39068,2.3178c-1.85424,0.46356 -2.3178,-1.39068 -2.3178,-1.39068zM198.55444,190.56379c-0.504,1.30634 -1.2082,2.61157 -1.94527,3.87111c-0.7522,-1.0478 -1.76282,-1.89758 -2.93862,-2.45606c0.79462,-1.37623 1.4834,-2.79537 1.72389,-4.13467c0.44033,-2.45221 0.24069,-6.12881 -0.01925,-8.62469c-0.25555,-2.45364 -0.83452,-5.81551 -1.84975,-8.02117c-0.03198,-0.06947 -0.47747,-1.62382 -1.13641,-1.48959c-0.53602,0.10919 -0.95932,0.54876 -1.48612,0.69614c-1.59375,0.44587 -2.68472,0.06769 -3.8914,1.17083c-0.67892,0.62066 -1.20965,1.38612 -1.81447,2.07918c0,0 -0.03526,0.03966 -0.10063,0.0999c0.0324,1.17264 0.07372,2.33953 0.07372,3.47228c0,0 0,0.62614 -0.35837,1.16166c0.13519,0.91375 0.25592,1.82821 0.35065,2.74415c0.04055,0.39203 0.06632,0.79051 0.08141,1.19313c1.52388,0.5364 1.155,2.19639 1.155,2.19639c-0.14886,0.66966 -0.9015,4.21959 -1.18097,4.78304c-1.27107,2.56258 -3.78999,5.02067 -5.56009,7.20523c-1.6955,2.09249 -2.98319,3.60722 -5.74575,4.45005c-3.73473,1.13943 -8.6584,0.35704 -12.52321,0.33741l-1.67495,-0.36438c-0.03844,0.01552 -0.06049,0.02287 -0.06049,0.02287c-0.48616,0.16151 -0.98943,0.31765 -1.50596,0.46546c0.07131,0.05698 0.14282,0.12092 0.21433,0.19243c1.3515,1.3515 0,2.703 0,2.703l-1.51478,1.478c-0.46863,0.30578 -1.04735,0.48773 -1.4059,0.91734c-0.31688,0.37967 -0.30503,0.94406 -0.51954,1.38964c-0.24574,0.51044 -0.5972,0.96427 -0.85627,1.46808c-0.09153,0.17799 -0.38647,0.52458 -0.19135,0.56914c0.30606,0.06988 0.53122,-0.38178 0.84277,-0.42041c2.34881,-0.29118 5.02178,-0.00348 7.39038,0c1.65491,0.00244 3.29086,-0.35556 4.93917,-0.50317c2.56063,-0.22931 5.07227,0.18865 7.51456,-0.43918c0.20872,1.10593 0.44737,2.19835 0.9985,3.16283c0.03389,0.05931 0.28705,0.16923 0.68139,0.30841c-1.98352,0.60142 -3.95077,0.61047 -5.987,0.64687c-0.24795,0.50287 -0.66467,0.80052 -0.66467,0.80052l-1.44174,0.96055c-0.41086,0.88356 -1.04019,2.36758 -1.69812,3.30124c0.74685,-0.00168 1.6466,0.17282 2.28377,0.17167c2.46018,-0.00443 4.91855,0.12597 7.36238,-0.23379c2.45794,-0.36184 3.55551,-1.50394 5.80705,-2.22063c0.73657,-0.23446 1.56932,-0.01967 2.30453,-0.25837c2.07212,-0.67276 4.53197,-2.54425 6.47545,-3.51273c6.38381,-2.11447 11.79656,-8.05494 13.67079,-14.5465c0.18389,-0.63692 0.06935,-1.33341 0.23817,-1.97449c0.47978,-1.82186 2.00389,-4.85002 1.40142,-6.89628c-0.09667,-0.32833 -0.62167,-0.30038 -0.88832,-0.51496c-0.23511,-0.18919 -0.30408,-0.75227 -0.59718,-0.68044c-0.48554,0.11901 -0.59437,0.85307 -1.03905,1.08147c-1.59517,0.81935 -3.37657,1.26908 -4.9137,2.19151zM149.50627,165.18799c-0.00664,-0.01396 -0.01329,-0.02791 -0.01997,-0.04184c-0.23695,-0.13064 -0.38053,-0.25986 -0.38053,-0.25986c-2.85055,-2.56738 -5.92383,-4.96789 -8.50461,-7.73672c-1.49715,-1.60624 -2.26822,-4.10164 -4.21238,-5.30605c-2.26545,-1.40344 -7.60027,-1.55352 -9.85542,-0.0833c-1.48615,0.96888 -2.06189,3.85958 -2.63969,5.4768c-0.70625,1.97674 -0.85508,3.81278 -1.00276,5.87903c1.73439,2.10738 2.86009,4.39311 4.70073,6.45745c0.77815,0.87272 1.61528,1.71631 2.48315,2.53726c0.40731,0.27126 0.79119,0.55523 1.1459,0.8447c0,0 0.31336,0.26113 0.52992,0.68689c1.03491,0.91872 2.08707,1.81269 3.1129,2.69198l1.83675,1.83476c0,0 0.26188,0.26189 0.43981,0.67038c0.74616,-0.48212 1.54121,-0.908 2.10728,-1.57989c1.42955,-1.69677 2.05684,-4.30587 3.52746,-6.06739c1.90345,-2.27999 4.21707,-4.39272 6.73147,-6.00421z" data-paper-data="{&quot;index&quot;:null}" fill="#000000"/><path d="M203.43094,188.38107c0.44468,-0.22841 0.55381,-0.96128 1.03935,-1.08029c0.2931,-0.07184 0.43617,0.47246 0.67128,0.66165c0.26665,0.21457 0.79187,0.18762 0.88854,0.51595c0.60247,2.04626 -0.9209,5.0845 -1.40068,6.90636c-0.16883,0.64107 -0.05458,1.34064 -0.23847,1.97755c-1.87423,6.49156 -7.30526,12.45953 -13.68908,14.574c-1.94348,0.96849 -4.4155,2.84464 -6.48763,3.5174c-0.73521,0.2387 -1.57197,0.02449 -2.30854,0.25895c-2.25154,0.71669 -3.3586,1.85844 -5.81654,2.22029c-2.44383,0.35977 -4.91219,0.2263 -7.37237,0.23073c-0.63717,0.00115 -1.53957,-0.1747 -2.28642,-0.17302c0.65793,-0.93367 1.32494,-2.48421 1.7358,-3.36777l1.44057,-0.96119c0,0 0.41637,-0.29783 0.66433,-0.8007c2.03623,-0.0364 3.99367,-0.04888 5.9772,-0.6503c-0.39434,-0.13918 -0.66421,-0.17451 -0.6981,-0.23383c-0.55113,-0.96448 -0.79378,-2.05811 -1.0025,-3.16404c-2.44229,0.62783 -4.96552,0.20315 -7.52615,0.43246c-1.64831,0.14761 -3.28822,0.50173 -4.94313,0.49929c-2.3686,-0.00348 -5.04534,-0.29623 -7.39416,-0.00505c-0.31155,0.03862 -0.53677,0.49019 -0.84283,0.42031c-0.19513,-0.04455 0.09956,-0.39156 0.1911,-0.56955c0.25908,-0.5038 0.60998,-0.95857 0.85573,-1.46901c0.21452,-0.44558 0.20204,-1.01113 0.51892,-1.3908c0.35855,-0.4296 0.93715,-0.61177 1.40578,-0.91755l1.51434,-1.47889c0,0 1.34993,-1.35525 -0.00156,-2.70675c-0.07151,-0.07151 -0.14316,-0.13585 -0.21447,-0.19282c0.51653,-0.14782 1.09209,-0.32888 1.57824,-0.49039c0,0 0.02206,-0.00735 0.06049,-0.02286l1.67436,0.36278c3.86481,0.01963 8.77789,0.78714 12.51262,-0.35228c2.76256,-0.84283 4.02989,-2.36654 5.72539,-4.45903c1.7701,-2.18455 4.25574,-4.57944 5.52681,-7.14202c0.27947,-0.56345 1.03923,-4.10708 1.18809,-4.77674c0,0 0.37464,-1.65675 -1.14925,-2.19314c-0.01509,-0.40262 -0.03942,-0.80048 -0.07997,-1.19251c-0.09473,-0.91593 -0.21246,-1.82933 -0.34765,-2.74307c0.35838,-0.53552 0.35838,-1.16166 0.35838,-1.16166c0,-1.13274 -0.03938,-2.29909 -0.07177,-3.47173c0.06537,-0.06023 0.11959,-0.17396 0.11959,-0.17396c0.60482,-0.69306 1.13749,-1.45796 1.81641,-2.07862c1.20668,-1.10314 2.30228,-0.72317 3.89603,-1.16904c0.5268,-0.14738 0.95143,-0.5863 1.48745,-0.69549c0.65894,-0.13423 1.10657,1.4213 1.13854,1.49077c1.01523,2.20566 1.60227,5.57396 1.85782,8.0276c0.25995,2.49588 0.4675,6.18486 0.02717,8.63707c-0.24049,1.3393 -0.92699,2.76708 -1.72161,4.14331c1.1758,0.55849 2.11037,1.41246 2.86257,2.46026c0.73706,-1.25954 1.44186,-2.55679 1.94586,-3.86313c1.53713,-0.92243 3.31894,-1.37017 4.91412,-2.18953z" data-paper-data="{&quot;noHover&quot;:false,&quot;origItem&quot;:[&quot;Path&quot;,{&quot;applyMatrix&quot;:true,&quot;segments&quot;:[[[371.64782,433.57537],[4.17299,2.14344],[-1.16329,-0.59752]],[[368.92964,430.74622],[1.27018,0.31132],[-0.76675,-0.18793]],[[367.36742,432.52625],[0.61504,-0.49493],[-0.69755,0.56133]],[[365.04357,433.87338],[0.25288,-0.85891],[-1.57606,5.35304]],[[368.7097,451.91412],[-1.2551,-4.766],[0.44165,1.67706]],[[369.33276,457.0794],[-0.48106,-1.66618],[4.903,16.98199]],[[405.09571,495.13321],[-16.70013,-5.53148],[5.08416,2.53357]],[[422.03557,504.32256],[-5.4207,-1.75995],[1.92332,0.62445]],[[428.06424,504.99847],[-1.92688,-0.61335],[5.89006,1.87487]],[[443.25556,510.80766],[-6.42999,-0.94659],[6.39308,0.94115]],[[462.51563,511.41927],[-6.43587,-0.01159],[1.66685,0.003]],[[468.49001,510.97018],[-1.95378,-0.0044],[-1.72116,-2.44248]],[[464.0477,502.33409],[1.07482,2.3114],[0,0]],[460.2761,499.82127],[[458.53731,497.72709],[0.64865,1.31551],[-5.32681,-0.09521]],[[442.87524,496.03488],[5.18892,1.57333],[1.0316,-0.3641]],[[444.65776,495.22807],[-0.08866,0.15516],[1.44176,-2.52309]],[[447.26985,486.95407],[-0.54601,2.89313],[6.38906,1.64241]],[[466.92803,488.10297],[-6.69863,-0.59988],[4.31201,0.38615]],[[479.84896,489.41927],[-4.32926,0.00637],[6.19628,-0.00911]],[[499.18229,489.41927],[-6.14452,-0.76174],[0.81502,0.10104]],[[501.38699,490.51906],[-0.80066,0.1828],[0.51045,-0.11655]],[[500.88642,489.03019],[0.23945,0.46563],[-0.67775,-1.31796]],[[498.6464,485.18968],[0.64287,1.33532],[-0.56118,-1.16564]],[[497.28727,481.55436],[0.82895,0.99322],[-0.93797,-1.12384]],[[493.60943,479.1546],[1.22594,0.79992],[0,0]],[489.64676,475.28814],[[489.64676,468.21707],[-3.53553,3.53553],[0.18707,-0.18707]],[[490.20744,467.71368],[-0.18655,0.14905],[-1.35126,-0.38669]],[[486.26782,466.49602],[1.27179,0.4225],[0,0]],[[486.10957,466.4362],[0.10055,0.04059],[0,0]],[[481.72788,467.38942],[0,0],[-10.11039,0.05134]],[[448.96701,466.50674],[9.7701,2.98076],[-7.22688,-2.20485]],[[433.93606,454.86536],[4.43544,5.47397],[-4.6306,-5.71482]],[[419.3908,436.0164],[3.32513,6.70375],[-0.73111,-1.47398]],[[416.30136,423.50392],[0.38943,1.75184],[0,0]],[[419.32285,417.75815],[-3.9865,1.40322],[0.03948,-1.05325]],[[419.53583,414.63691],[-0.10607,1.02555],[0.24781,-2.39609]],[[420.45314,407.45819],[-0.35365,2.39037],[-0.93752,-1.40093]],[[419.51563,404.41927],[0,0],[0,-2.96327]],[[419.70849,395.33575],[-0.08475,3.06763],[-0.17101,-0.15757]],[[419.44525,395.07442],[0,0],[-1.58222,-1.81305]],[[414.69858,389.63527],[1.77605,1.62365],[-3.15669,-2.88582]],[[404.51862,386.57237],[4.16927,1.1664],[-1.37812,-0.38554]],[[400.63092,384.75127],[1.40223,0.28564],[-1.7238,-0.35115]],[[397.65806,388.64805],[0.08365,-0.18174],[-2.65585,5.77003]],[[392.8191,409.63152],[0.66851,-6.41875],[-0.68002,6.52926]],[[392.76873,432.19381],[-1.15191,-6.41501],[0.62913,3.50362]],[[397.27844,443.01016],[-2.07873,-3.60024],[-3.0759,1.46101]],[[389.59097,449.43525],[1.96777,-2.74107],[-1.92817,-3.29497]],[[384.50213,439.30839],[1.31846,3.4174],[-4.02115,-2.41308]]],&quot;closed&quot;:true}],&quot;index&quot;:null}" fill="#ffffff"/><path d="M142.80217,171.21889c-1.47061,1.76152 -2.11621,4.38107 -3.54576,6.07784c-0.56607,0.67188 -1.36763,1.09878 -2.11379,1.58089c-0.17793,-0.40849 -0.44093,-0.67032 -0.44093,-0.67032l-1.84257,-1.83498c-1.02583,-0.87928 -2.09075,-1.77708 -3.12566,-2.69579c-0.21656,-0.42575 -0.53265,-0.6884 -0.53265,-0.6884c-0.35471,-0.28946 -0.74322,-0.57675 -1.15053,-0.84801c-0.86788,-0.82096 -1.71389,-1.67528 -2.49204,-2.548c-1.84064,-2.06434 -2.97088,-4.37341 -4.70527,-6.4808c0.14768,-2.06625 0.30186,-3.91753 1.00811,-5.89427c0.5778,-1.61722 1.16334,-4.51864 2.64949,-5.48752c2.25516,-1.47023 7.61332,-1.32767 9.87877,0.07577c1.94417,1.2044 2.73378,3.70492 4.23092,5.31116c2.58078,2.76883 5.67319,5.20276 8.52374,7.77014c0,0 0.14357,0.12996 0.38052,0.2606c0.00667,0.01393 0.01333,0.028 0.01996,0.04196c-2.5144,1.61149 -4.83885,3.74974 -6.7423,6.02973z" data-paper-data="{&quot;noHover&quot;:false,&quot;origItem&quot;:[&quot;Path&quot;,{&quot;applyMatrix&quot;:true,&quot;segments&quot;:[[[530.42234,388.63209],[-4.97946,-5.96447],[3.84714,4.60817]],[[539.65021,404.50446],[-3.73972,-4.43877],[1.48084,1.75765]],[[545.16287,408.63746],[-1.95197,-1.26123],[0.46546,-1.06862]],[546.31342,406.88374],[[551.11838,402.08399],[0,0],[2.68358,-2.30022]],[[559.26177,395.04174],[-2.70735,2.40337],[0.56652,-1.11378]],[[560.64804,393.24483],[0,0],[0.92793,-0.75724]],[[563.64574,391.03509],[-1.06554,0.70962],[2.27038,-2.14763]],[[570.1417,384.39758],[-2.03565,2.28305],[4.81514,-5.40034]],[[582.43888,367.5048],[-4.53719,5.51294],[-0.38633,-5.40534]],[[579.81564,352.12518],[1.84756,5.17117],[-1.51154,-4.23066]],[[572.91018,337.7978],[3.88779,2.5346],[-5.89952,-3.84613]],[[547.12827,338.01571],[5.92644,-3.67141],[-5.08596,3.15073]],[[536.10862,351.89639],[3.91656,-4.20194],[-6.75136,7.2433]],[[513.86045,372.13574],[7.45707,-6.71631],[0,0]],[[512.86497,372.81554],[0.61987,-0.34175],[-0.01746,0.03644]],[[512.81274,372.925],[0.01736,-0.03653],[6.5777,4.21569]]],&quot;closed&quot;:true}],&quot;index&quot;:null}" fill="#ffffff"/><path d="M168.65198,172.94929c1.85424,-0.46356 1.38877,-2.31264 1.38877,-2.31264l-0.19804,-0.55484c-0.03511,-4.89768 -1.1091,-9.86351 -3.07992,-14.41781c0.58438,-2.64455 0.67161,-6.14079 2.96678,-8.08737c1.93977,-1.64517 5.83497,-2.82116 8.19613,-3.53074c1.66762,-0.98531 3.53745,-1.47899 5.52781,-1.40385c0.44296,0.01672 1.046,0.01708 1.26907,0.40014c0.22142,0.38022 -0.25434,0.85055 -0.28496,1.28948c-0.17566,2.51811 0.00178,5.12489 0.00328,7.65144c0.00182,3.05891 -0.21374,6.25322 -0.95995,9.231c-0.66512,2.65417 -1.82521,4.91622 -2.08773,7.69087c-0.21173,2.23779 -0.09869,4.63663 -0.03873,6.94554c-0.33834,-0.22106 -0.66636,-0.48375 -0.99303,-0.75791c0.38271,2.30752 0.78058,4.61521 1.02706,6.91204c0.2143,1.99687 -0.01083,4.19734 -0.01083,6.20402c0,0 -0.00024,0.25016 0.09008,0.56918c-1.25903,2.09147 -3.32359,4.04771 -4.77691,5.89195c-1.25874,1.59734 -1.83255,2.51624 -3.94228,3.19817c-3.1349,1.01329 -7.6611,0.15626 -10.93177,0.17666l-2.08959,-0.47502c0,0 -1.08991,-0.2413 -1.78889,0.47501c-3.19308,1.01315 -7.24576,1.78366 -10.51073,1.04367c-0.16004,-0.03627 -3.57908,-1.50771 -3.94553,-1.66479l-0.91862,-0.46276c0,0 -0.866,-0.4327 -1.67274,-0.06797c-0.09026,-0.03036 -0.18176,-0.05835 -0.27401,-0.08337c-2.04129,-0.55365 -3.63663,0.18681 -5.66208,-0.5937c-3.67008,-2.65746 -7.38097,-5.13237 -10.93654,-7.97603c-1.46817,-1.1742 -3.19031,-2.1552 -4.06049,-3.93462c-1.11107,-2.27202 -0.13424,-5.19368 0.59775,-7.46213c0.24189,-0.74963 0.6278,-2.14407 1.65191,-2.39388c1.91666,-0.46754 3.81757,0.06037 5.41184,1.06052c1.53271,1.4336 3.12724,2.78757 4.67824,4.11699l1.72864,1.73001c0,0 0.23995,0.23988 0.61981,0.41654c-0.78687,0.97711 -1.49859,2.01894 -2.16481,3.07869l-0.8912,1.09307c0,0 -1.1959,1.49069 0.29658,2.68467c1.49248,1.19399 2.68459,-0.30003 2.68459,-0.30003l1.10117,-1.3945c0.87753,-1.41348 1.89097,-2.85766 3.0684,-4.0331c1.02795,-1.02621 2.49443,-1.57359 3.43433,-2.68102c1.48383,-1.74833 2.10443,-4.36892 3.60939,-6.16405c1.70542,-2.03423 3.81351,-4.00214 6.09998,-5.38238c0.32489,0.04479 0.69176,-0.00489 1.12794,-0.22298c1.70953,-0.85476 0.82876,-2.5377 0.82876,-2.5377l-0.72051,-1.41906c-1.49934,-3.32391 -4.03847,-5.70935 -5.6401,-8.83616c-0.56947,-1.11175 -0.59623,-2.44489 -1.13928,-3.56978c-0.56042,-1.16086 -1.53927,-2.16733 -2.17206,-3.29038c-0.98375,-1.74592 -1.07154,-3.81922 -1.06181,-5.75546c-0.00078,-1.22832 -0.04842,-4.01739 0.18808,-5.09724c0.76147,-3.4769 5.69071,-5.34799 8.69204,-5.79539c1.3592,-0.20261 5.74576,-1.30768 7.21123,-0.05693c2.54237,2.16986 2.28827,5.97609 2.28513,8.9106c-0.00545,5.0968 0.0137,10.20265 0.0137,15.29946c0,0 0.00323,1.01748 0.74147,1.56839c-0.79393,1.55567 -1.36629,3.14624 -1.79693,4.81255c0.62373,-0.4862 1.26612,-0.92862 1.84174,-1.34105c0.05729,0.48005 0.35666,1.73271 1.89969,1.73271c0.45174,0 0.79667,-0.10694 1.06011,-0.27c0.5743,2.42237 0.87121,4.91468 0.84995,7.29758l0.31076,1.48594c0,0 0.39364,1.82333 2.24788,1.35977z" data-paper-data="{&quot;noHover&quot;:false,&quot;origItem&quot;:[&quot;Path&quot;,{&quot;applyMatrix&quot;:true,&quot;segments&quot;:[[[462.63628,391.93665],[4.85071,1.21268],[-4.85071,-1.21268]],[458.99825,385.87326],[[459.51563,384.41927],[0,0],[0.09185,-12.81239]],[[467.58631,346.62126],[-5.15567,11.91411],[-1.52874,-6.91817]],[[459.97855,325.59136],[6.00417,5.09228],[-5.07447,-4.30378]],[[438.54415,316.34752],[6.17682,1.85625],[-4.36252,-2.57759]],[[424.08722,312.67003],[5.20681,-0.19655],[-1.1588,0.04374]],[[420.76888,313.71459],[0.58356,-1.00209],[-0.57923,0.99465]],[[421.51563,317.08594],[-0.0801,-1.14823],[0.45953,6.58741]],[[421.51563,337.08594],[0.00394,-6.60947],[-0.00477,8.00215]],[[424.03367,361.20927],[-1.95211,-7.78991],[1.73996,6.94335]],[[429.49542,381.30358],[-0.68677,-7.25852],[0.55389,5.85408]],[[429.59163,399.4514],[0.15687,-6.04013],[0.88511,-0.5783]],[[432.18983,397.46991],[-0.85457,0.71721],[-1.00117,6.03649]],[[429.49542,415.53497],[0.64481,-6.00854],[-0.5606,5.22384]],[[429.51563,431.7526],[0,-5.24949],[0,0]],[[429.27933,433.24074],[0.2363,-0.83456],[3.29365,5.4713]],[[441.76185,448.63985],[-3.80189,-4.82457],[3.29289,4.17866]],[[452.06424,456.99847],[-5.51908,-1.78393],[8.20093,2.65079]],[[480.63671,457.44913],[-8.55612,-0.05335],[0,0]],[486.09764,456.205],[[490.77192,457.4465],[-1.82853,-1.87388],[8.35314,2.65042]],[[518.23675,460.17616],[-8.54122,1.93582],[0.41867,-0.09489]],[[528.54603,455.82355],[-0.95864,0.41093],[0,0]],[530.94622,454.6138],[[535.31752,454.43751],[-2.11045,-0.95414],[0.23613,-0.07943]],[[536.03353,454.21969],[-0.24133,0.06546],[5.34005,-1.44836]],[[550.83132,452.67312],[-5.29861,2.04184],[9.60098,-6.95196]],[[579.4125,431.83207],[-9.30141,7.43905],[3.84074,-3.07173]],[[590.0262,421.55146],[-2.27641,4.655],[2.90658,-5.94362]],[[588.45468,402.04706],[1.91491,5.93428],[-0.6328,-1.96103]],[[584.32307,395.84742],[2.67909,0.65352],[-5.01401,-1.22308]],[[570.16237,398.63094],[4.17063,-2.61641],[-4.00958,3.75032]],[[557.91287,409.42122],[4.05742,-3.47779],[0,0]],[553.38449,413.9548],[[551.76103,415.04671],[0.99371,-0.46216],[2.05846,2.55614]],[[557.42228,423.10261],[-1.74286,-2.77232],[0,0]],[559.7533,425.96246],[[558.97243,432.99028],[3.90434,-3.12348],[-3.90434,3.12348]],[551.94461,432.20941],[[548.9423,428.4026],[0,0],[-2.29563,-3.69769]],[[541.03694,418.01075],[3.08017,3.07496],[-2.68914,-2.68459]],[[532.0477,411.00075],[2.45877,2.89706],[-3.88171,-4.57364]],[[522.60891,394.87311],[3.937,4.69608],[-4.46139,-5.32158]],[[506.59931,380.81192],[5.98144,3.61073],[-0.84991,0.11717]],[[503.61289,380.22474],[1.14104,0.57052],[-4.47214,-2.23607]],[501.37682,373.51654],[[503.28561,369.70911],[0,0],[3.92228,-8.6954]],[[518.15557,346.57209],[-4.18989,8.17975],[1.48973,-2.90834]],[[521.13282,337.23209],[-1.42063,2.94271],[1.46606,-3.03682]],[[526.73214,328.80642],[-1.65538,2.93791],[2.57349,-4.56734]],[[529.51563,313.7526],[0.02546,5.06524],[0.00204,-3.21331]],[[529.03038,300.42061],[0.61867,2.82488],[-1.99202,-9.0956]],[[506.32205,285.26459],[7.85153,1.17041],[-3.55568,-0.53004]],[[487.47854,285.11348],[3.83368,-3.27197],[-6.65087,5.67639]],[[481.51563,308.41927],[-0.00821,-7.6767],[0.01426,13.3333]],[[481.51563,348.41927],[0,-13.33331],[0,0]],[[479.58439,352.51231],[1.93123,-1.4412],[2.07694,4.06966]],[[484.30005,365.07356],[-1.12658,-4.35909],[-1.63168,-1.2719]],[[479.47986,361.57129],[1.50583,1.07893],[-0.14986,1.25582]],[[474.51563,366.08594],[4.0366,0],[-1.18175,0]],[[471.74229,365.38005],[0.68915,0.42658],[-1.50238,6.33696]],[[469.51563,384.41927],[-0.05561,-6.2337],[0,0]],[468.69967,388.29862]],&quot;closed&quot;:true}],&quot;index&quot;:null}" fill="#ffffff"/></g></g></svg>