<svg version="1.1" xmlns="http://www.w3.org/2000/svg" xmlns:xlink="http://www.w3.org/1999/xlink" width="11.83723" height="20.86445" viewBox="0,0,11.83723,20.86445"><g transform="translate(-239.17005,-175.39149)"><g data-paper-data="{&quot;isPaintingLayer&quot;:true}" fill-rule="nonzero" stroke="none" stroke-width="0.5" stroke-linecap="butt" stroke-linejoin="miter" stroke-miterlimit="10" stroke-dasharray="" stroke-dashoffset="0" style="mix-blend-mode: normal"><path d="M244.14868,190.69387c0.289,0.26039 0.40968,0.61326 0.46008,0.86257c0.67486,0.60765 1.74811,0.90417 2.64813,0.7393c0.06662,-0.10731 0.13394,-0.22711 0.20201,-0.36021c0.23786,-0.46507 0.28844,-1.00413 0.43266,-1.50619c-0.01361,-1.69586 0.18831,-3.56299 -0.00471,-5.24864c-0.04178,-0.36486 -0.10149,-0.64906 -0.17682,-0.89172h-1.34888c-0.71627,-0.0102 -1.43688,0.09716 -2.13541,0.27918c-0.19344,1.51833 -0.54737,3.8155 -0.32711,5.47547c0.08118,0.21651 0.16458,0.43317 0.25005,0.65024zM243.04033,178.54496c-1.18162,0.31366 -0.82322,2.66918 -0.81839,3.22011c0.00066,0.07487 0.0017,0.14949 0.00313,0.22387c1.02975,-0.83166 2.2575,-1.19464 3.89839,-1.30019c-0.50961,-1.40384 -1.14358,-2.65864 -3.08313,-2.14377zM244.19356,195.58659c-1.13126,0.25307 -1.6392,-0.88978 -1.6392,-0.88978c-1.8984,-4.2737 -3.39646,-8.20247 -3.36113,-12.93174c0.01337,-1.78979 -0.2815,-3.02918 0.90587,-4.53938c1.28165,-1.63011 4.51623,-2.49574 6.39585,-1.2242c0.95118,0.64346 1.62472,1.65319 2.21681,2.63716c0.3895,0.64731 0.39066,1.46337 0.67239,2.16432c0.5323,1.32445 1.32113,2.59263 1.50871,4.00767c0.25383,1.91484 0.00792,4.13888 -0.00471,6.0585c-0.73684,2.39558 -2.00179,5.98168 -5.4325,5.30275c-0.45119,-0.08929 -0.87101,-0.3023 -1.26209,-0.5853z" fill="#000000"/><path d="M243.02357,178.51974c1.93955,-0.51486 2.61971,0.77231 3.12932,2.17615c-1.64089,0.10556 -2.92028,0.48198 -3.95004,1.31364c-0.00143,-0.07439 -0.00381,-0.15054 -0.00447,-0.22541c-0.00483,-0.55093 -0.35645,-2.95073 0.82517,-3.26439z" data-paper-data="{&quot;noHover&quot;:false,&quot;origItem&quot;:[&quot;Path&quot;,{&quot;applyMatrix&quot;:true,&quot;segments&quot;:[[[237.6844,167.01735],[0,0],[-1.95071,0.51782]],[[236.33334,172.33334],[-0.00797,-0.90952],[0.00108,0.1236]],[[236.33851,172.70292],[-0.00236,-0.1228],[1.69999,-1.37296]],[[242.77427,170.55646],[-2.70891,0.17426],[-0.84131,-2.31756]],[[237.68441,167.01736],[3.20195,-0.84997],[0,0]]],&quot;closed&quot;:true}]}" fill="#ffffff"/><path d="M243.25533,185.71255c-0.01547,-0.0964 -0.02383,-0.20055 -0.02383,-0.31304c0,-1.51435 1.51435,-1.51435 1.51435,-1.51435h1.0117c0.66008,-0.32266 1.33443,-0.53066 1.9239,-0.22464c2.20509,1.14474 0.35686,5.11539 0.15654,6.71798l-0.09078,0.12703l0.05058,0.01686l-0.5947,1.78409c-0.1903,0.6188 -0.76647,1.0686 -1.44768,1.0686c-0.72068,0 -1.32378,-0.50342 -1.47682,-1.1778l-0.39614,-1.58457c-0.19323,-0.37366 -0.05525,-0.86491 -0.25248,-1.23647c-0.36806,-0.6934 -1.43812,-1.10459 -1.40649,-1.88897c0.02787,-0.69117 0.54503,-1.22815 1.03184,-1.77471z" fill="#ea0000"/></g></g></svg>