<svg version="1.1" xmlns="http://www.w3.org/2000/svg" xmlns:xlink="http://www.w3.org/1999/xlink" width="30.75671" height="9.81447" viewBox="0,0,30.75671,9.81447"><g transform="translate(-236.5766,-174.5)"><g data-paper-data="{&quot;isPaintingLayer&quot;:true}" fill="#000000" fill-rule="nonzero" stroke="none" stroke-width="0.5" stroke-linecap="butt" stroke-linejoin="miter" stroke-miterlimit="10" stroke-dasharray="" stroke-dashoffset="0" style="mix-blend-mode: normal"><path d="M257.74083,179.49671c-0.14048,0.08102 -0.28974,0.15071 -0.43914,0.22019c-0.01151,0.0113 -0.02325,0.02232 -0.03525,0.03305c-0.07111,0.06364 -0.47543,0.37051 -1.01322,0.7727c-0.35787,0.74546 0.28709,1.71413 -0.42403,2.39377c-0.5859,0.55997 -2.34512,0.5094 -3.7822,0.41979c-4.13998,1.48609 -9.37039,0.83728 -13.61011,0.83728c0,0 -1.86029,0 -1.86029,-1.86029c0,-0.89012 0.42591,-1.35432 0.87014,-1.59642c-0.13001,-0.06571 -0.96412,-0.53141 -0.53755,-1.46986c0.46187,-1.01613 1.478,-0.55425 1.478,-0.55425c1.2971,0.61735 2.03897,0.35159 3.5203,0.4606c2.70814,0.19928 5.28132,0.90291 7.9595,0.97471c0.50583,-0.13444 0.99204,-0.30072 1.45267,-0.50519c2.06835,-0.91815 3.50233,-3.61994 5.50425,-4.4851c0.75645,-0.32691 1.6528,-0.01336 2.46891,-0.12767c1.39531,-0.19543 2.787,-0.50114 4.1959,-0.51002h1.98431c0,0 1.86028,0 1.86029,1.86028v0.00001c-0.00001,1.86028 -1.86029,1.86028 -1.86029,1.86028h-1.98431c-1.25737,-0.00997 -2.49087,0.34991 -3.74132,0.48214c-0.28671,0.03032 -0.5865,-0.0808 -0.87737,-0.14378z"/></g></g></svg>