<svg version="1.1" xmlns="http://www.w3.org/2000/svg" xmlns:xlink="http://www.w3.org/1999/xlink" width="26.74111" height="15.15973" viewBox="0,0,26.74111,15.15973"><g transform="translate(-233.6875,-171.70183)"><g data-paper-data="{&quot;isPaintingLayer&quot;:true}" fill-rule="nonzero" stroke="none" stroke-linecap="butt" stroke-linejoin="miter" stroke-miterlimit="10" stroke-dasharray="" stroke-dashoffset="0" style="mix-blend-mode: normal"><path d="M247.32956,183.37365c0.02048,0.03531 0.04174,0.07009 0.06386,0.10426zM247.32616,183.36776c0.01599,0.01622 0.38943,0.40041 0.39956,0.9123c2.23634,0.14404 4.45839,0.13457 6.56351,-0.39871c0.94048,-0.23825 2.02537,-0.04811 2.85929,-0.54393c1.43698,-0.85439 0.7718,-3.97261 0.10338,-5.63812c-0.05683,-0.08217 -0.09907,-0.16831 -0.1301,-0.25449c-0.91664,1.18589 -2.10216,2.59823 -3.59025,2.57241c-1.73658,-0.03012 -3.79633,-3.60739 -4.50971,-4.90475c0,0 -0.19417,-0.35597 -0.16255,-0.77578c-3.03968,-0.32625 -6.04055,0.20308 -9.11651,0.81224c0.19009,0.18606 0.28513,0.37615 0.28513,0.37615c1.04919,2.16886 1.37294,4.63639 0.71699,6.93652c1.47447,-1.66434 3.053,-3.59286 5.35297,-1.5934c0.70053,0.609 0.76335,1.69305 1.22831,2.49958zM244.42568,183.54158c-0.15591,-0.34087 -0.01431,-1.34778 -0.28446,-1.08794c-0.43847,0.42175 -0.85241,0.91773 -1.26797,1.41181c0.60306,0.04703 1.21064,0.10269 1.82061,0.1594c-0.09923,-0.15579 -0.19139,-0.31539 -0.26818,-0.48328zM253.75415,177.47946c0.28741,-0.03251 1.08909,-1.14324 1.58479,-1.84752c-1.11424,-0.33657 -2.45736,-0.44323 -3.43573,-0.67309c0.67742,1.0788 1.65124,2.54319 1.85094,2.52061zM235.70803,175.99479c-0.18024,0.12331 -0.42214,0.20605 -0.74679,0.20605c-1.27375,0 -1.27375,-1.27375 -1.27375,-1.27375l1.08006,-1.36508c0.45997,-0.07076 0.91992,-0.14153 1.37989,-0.21229c0,0 0.04279,-0.00658 0.11381,-0.00943c0.24563,-0.15084 0.47841,-0.19517 0.47841,-0.19517c5.3341,-1.01602 10.293,-2.26232 15.56009,-0.71498c2.8933,0.84999 5.65288,0.67724 7.25891,3.5195l-0.00366,0.49199c0.42182,0.7039 0.60188,1.05624 0.76546,2.25722c0.26997,1.98192 0.1464,5.38655 -1.69165,6.71182c-0.02705,0.0195 -3.46361,0.87836 -3.72173,0.9421c-4.80505,1.18657 -9.99587,-0.07516 -14.85086,-0.06811c-0.42458,0 -0.84916,0 -1.27375,0h-0.32434c-0.23323,0.26058 -0.57217,0.42458 -0.94941,0.42458c-0.70347,0 -1.27375,-0.57027 -1.27375,-1.27375c0,-0.50551 0.29448,-0.94224 0.72125,-1.14801c0.11668,-0.18074 0.27356,-0.30212 0.43165,-0.38364c0.00327,-0.40754 0.20832,-0.73562 0.20832,-0.73562l0.45129,-0.70116c0.86291,-1.76325 0.58868,-4.10508 -0.29813,-5.80274c0,0 -0.28689,-0.57378 -0.04628,-1.11054c-0.16197,0.03155 -0.32421,0.06287 -0.48673,0.09382c0,0 -0.05841,0.01112 -0.15237,0.01595c-0.26676,0.16366 -0.52915,0.20403 -0.52915,0.20403c-0.2756,0.0424 -0.55119,0.0848 -0.82678,0.1272z" fill="#000000" stroke-width="0.5"/><path d="M247.31108,183.40746c-0.46496,-0.80654 -0.54965,-1.90936 -1.25017,-2.51836c-2.29997,-1.99946 -3.88111,-0.07644 -5.35558,1.58789c0.65595,-2.30013 0.33272,-4.79972 -0.71647,-6.96858c0,0 -0.09465,-0.19099 -0.28473,-0.37705c3.07596,-0.60916 6.11537,-1.16338 9.15505,-0.83713c-0.03162,0.41981 0.16417,0.7758 0.16417,0.7758c0.71338,1.29736 2.81359,4.92354 4.55017,4.95366c1.48808,0.02581 2.59022,-1.3837 3.50686,-2.56959c0.03103,0.08618 0.15641,0.15507 0.21323,0.23723c0.66843,1.66552 1.33005,4.81031 -0.10693,5.6647c-0.83392,0.49583 -1.92454,0.31449 -2.86503,0.55274c-2.10512,0.53327 -4.36911,0.55669 -6.60545,0.41266c-0.01013,-0.51189 -0.38912,-0.89777 -0.40511,-0.91399z" data-paper-data="{&quot;noHover&quot;:false,&quot;origItem&quot;:[&quot;Path&quot;,{&quot;applyMatrix&quot;:true,&quot;segments&quot;:[[[249.74878,183.06497],[0,0],[0.01883,0.0191]],[[250.21931,184.13932],[-0.01193,-0.60282],[2.63358,0.16962]],[[257.94869,183.66979],[-2.47905,0.628],[1.10754,-0.28057]],[[261.31587,183.02924],[-0.98205,0.5839],[1.69223,-1.00616]],[[261.43761,176.38962],[0.78716,1.96136],[-0.06692,-0.09676]],[[261.2844,176.08992],[0.03654,0.10149],[-1.07946,1.39654]],[[257.05642,179.11927],[1.75241,0.0304],[-2.04505,-0.03547]],[[251.74565,173.34329],[0.8401,1.52781],[0,0]],[[251.55423,172.42971],[-0.03724,0.49438],[-3.57961,-0.3842]],[[240.81836,173.38623],[3.62234,-0.71737],[0.22385,0.21911]],[[241.15414,173.82919],[0,0],[1.23556,2.55411]],[[241.99849,181.99784],[0.77246,-2.7087],[1.73638,-1.95997]],[[248.3023,180.1214],[-2.70851,-2.35462],[0.82496,0.71718]],[[249.74879,183.06498],[-0.54755,-0.9498],[0,0]]],&quot;closed&quot;:true,&quot;fillColor&quot;:[0,0,0],&quot;strokeWidth&quot;:0.5}]}" fill="#ea0000" stroke-width="0.25"/></g></g></svg>