<svg version="1.1" xmlns="http://www.w3.org/2000/svg" xmlns:xlink="http://www.w3.org/1999/xlink" width="29.21593" height="18.14998" viewBox="0,0,29.21593,18.14998"><g transform="translate(-229.6429,-172.83372)"><g data-paper-data="{&quot;isPaintingLayer&quot;:true}" fill-rule="nonzero" stroke="none" stroke-linecap="butt" stroke-linejoin="miter" stroke-miterlimit="10" stroke-dasharray="" stroke-dashoffset="0" style="mix-blend-mode: normal"><path d="M233.68276,190.55403c-0.66196,-0.84503 0.18307,-1.507 0.18307,-1.507l0.67545,-0.48658c0.31544,-0.13547 0.63895,-0.2557 0.96804,-0.35904c-0.92132,-1.67734 -1.76458,-5.06 -1.65136,-6.33693c0.01383,-0.15597 0.03543,-0.30858 0.0639,-0.45824c-0.8311,0.92899 -1.5897,1.9776 -2.26358,3.15679c0,0 -0.53282,0.93186 -1.46469,0.39905c-0.93186,-0.53282 -0.39905,-1.46469 -0.39905,-1.46469c4.99396,-8.72958 15.2998,-11.99667 24.84393,-10.17804c1.77342,1.90781 5.05405,6.11301 4.0246,9.05213c-0.62842,1.79414 -3.28226,2.16877 -4.77037,2.69979c-3.41766,1.21958 -6.92644,2.87025 -10.50522,3.54408c-1.6992,0.31994 -3.4423,0.31377 -5.09048,0.75987c-0.23529,0.51761 -0.86475,0.59094 -0.86475,0.59094c-0.6972,0.07308 -1.38852,0.27074 -2.02719,0.55973l-0.2153,0.21118c0,0 -0.84503,0.66196 -1.507,-0.18307zM238.31056,177.88109c0.01457,0.03287 0.02837,0.06744 0.04134,0.10377c0.36077,1.01101 -0.65022,1.37177 -0.65022,1.37177l-0.67526,0.16656c-0.97957,2.31344 -1.08486,3.15196 -0.22282,5.56768c0.19464,0.54545 0.39371,2.26652 0.96387,2.27318c1.60791,-0.63257 3.50491,-0.54249 5.23166,-0.86015c2.94729,-0.5422 5.84639,-1.91103 8.65552,-2.91345c1.17949,-0.4209 2.35483,-0.85367 3.5385,-1.2627c0.49867,-0.17232 1.34189,-0.13789 1.44035,-0.65622c0.39523,-2.08079 -1.93413,-4.96361 -3.03563,-6.47433c-5.43387,-0.42395 -10.85613,0.17819 -15.28731,2.68389z" fill="#000000" stroke-width="0.5"/><path d="M238.27659,177.86984c4.43118,-2.50571 9.91726,-3.11633 15.35113,-2.69239c1.10149,1.51072 3.43653,4.41758 3.0413,6.49836c-0.09845,0.51833 -0.94219,0.48694 -1.44084,0.65926c-1.18367,0.40903 -2.36269,0.85174 -3.54218,1.27265c-2.80913,1.00243 -5.75436,2.38656 -8.70166,2.92876c-1.72675,0.31766 -3.63591,0.21853 -5.24381,0.8511c-0.57016,-0.00666 -0.77393,-1.7346 -0.96858,-2.28004c-0.86203,-2.41571 -0.76072,-3.2743 0.21886,-5.58774l0.67537,-0.16757c0,0 1.01242,-0.36725 0.65164,-1.37825c-0.01297,-0.03633 -0.02665,-0.07127 -0.04122,-0.10414z" data-paper-data="{&quot;noHover&quot;:false,&quot;origItem&quot;:[&quot;Path&quot;,{&quot;applyMatrix&quot;:true,&quot;segments&quot;:[[[243.68183,168.46901],[0,0],[0.00374,0.05011]],[[243.6875,168.625],[0,-0.05391],[0,1.5]],[242.1875,170.125],[[241.22057,170.02708],[0,0],[-2.3757,2.58465]],[[238.3125,177.25],[0,-3.58415],[0,0.80926]],[[238.51346,180.69439],[-0.74726,-0.27654],[2.41323,-0.07738]],[[245.80277,182.01937],[-2.42175,-0.39289],[4.13354,0.6706]],[[258.5625,182.25],[-4.16785,0],[1.75,0]],[[263.8125,182.25],[-1.74991,-0.01758],[0.73721,0.00741]],[[266.01632,182.0628],[-0.373,0.63593],[1.49739,-2.55288]],[[265.06178,172.11634],[0.74017,2.50555],[-6.95235,-3.10993]],[[243.68182,168.46901],[7.00863,-1.21666],[0,0]]],&quot;closed&quot;:true,&quot;fillColor&quot;:[0,0,0],&quot;strokeWidth&quot;:0.5}]}" fill="#ea0000" stroke-width="0.25"/></g></g></svg>