<svg version="1.1" xmlns="http://www.w3.org/2000/svg" xmlns:xlink="http://www.w3.org/1999/xlink" width="27.1775" height="12.28128" viewBox="0,0,27.1775,12.28128"><g transform="translate(-225.52877,-178.36825)"><g data-paper-data="{&quot;isPaintingLayer&quot;:true}" fill-rule="nonzero" stroke="none" stroke-linecap="butt" stroke-linejoin="miter" stroke-miterlimit="10" stroke-dasharray="" stroke-dashoffset="0" style="mix-blend-mode: normal"><path d="M230.11479,188.15109l-0.31415,-0.16435c-0.73664,-0.47106 -1.51212,-0.88408 -2.30675,-1.2489c0,0 -1.11277,-0.51359 -0.59918,-1.62636c0.51359,-1.11277 1.62636,-0.59918 1.62636,-0.59918c0.04866,0.02257 0.09726,0.04528 0.14579,0.06816c-0.1711,-1.02959 -0.05502,-2.19329 -0.04702,-3.14622c-0.36176,0.18108 -0.70323,0.41344 -1.01807,0.71015c0,0 -0.91096,0.81987 -1.73083,-0.09109c-0.81987,-0.91096 0.09109,-1.73083 0.09109,-1.73083c2.62768,-2.29043 5.69473,-1.84658 8.99035,-1.84658c6.24053,0 14.35439,-1.36684 17.3001,5.64034c0.25215,1.02522 0.6552,2.13509 0.33578,3.22025c-1.11213,3.77816 -5.90279,3.29243 -9.05687,3.29301c-3.37264,0.00061 -8.8052,-0.29007 -12.2005,-2.5155c-0.55268,0.36881 -1.21611,0.03709 -1.21611,0.03709zM231.90343,180.83097c0.10238,0.79484 -0.69246,1.19226 -0.69246,1.19226l-0.13957,-0.68766c0,0.83969 -0.29359,2.51891 0.15739,3.29529c0.54325,0.93523 2.12435,1.52835 3.05141,1.89736c3.24685,1.29239 5.77373,1.64947 9.25118,1.65013c2.9202,0.00055 7.4285,0.74882 6.39429,-3.29132c-2.28625,-5.55766 -10.22448,-3.95998 -14.9733,-3.95998c-0.97562,0 -2.02145,-0.0934 -3.04895,-0.09607z" fill="#000000" stroke-width="0.5"/><path d="M231.86579,180.81509c1.0275,0.00267 2.0765,0.09004 3.05212,0.09004c4.74881,0 12.76233,-1.57395 15.04858,3.98371c1.03421,4.04014 -3.48918,3.32181 -6.40938,3.32126c-3.47746,-0.00065 -6.06887,-0.3767 -9.31572,-1.66909c-0.92706,-0.36901 -2.51021,-0.9742 -3.05346,-1.90943c-0.45098,-0.77638 -0.15531,-2.46916 -0.15531,-3.30885l0.13883,0.69014c0,0 0.79672,-0.40293 0.69434,-1.19777z" data-paper-data="{&quot;noHover&quot;:false,&quot;origItem&quot;:[&quot;Path&quot;,{&quot;applyMatrix&quot;:true,&quot;segments&quot;:[[[233.33083,174.63242],[0,0],[0.12531,0.97282]],[232.48332,176.09165],[[232.3125,175.25001],[0,0],[0,1.02771]],[[232.50513,179.28318],[-0.55196,-0.95023],[0.66489,1.14465]],[[236.23981,181.60539],[-1.13465,-0.45164],[3.97388,1.58178]],[[247.5625,183.62501],[-4.25612,-0.0008],[3.57408,0.00067]],[[255.38859,179.5967],[1.26579,4.9448],[-2.79818,-6.80212]],[[237.0625,174.75001],[5.81216,0],[-1.19408,0]],[[233.33083,174.63243],[1.25758,0.00327],[0,0]]],&quot;closed&quot;:true,&quot;fillColor&quot;:[0,0,0],&quot;strokeWidth&quot;:0.5}]}" fill="#ea0000" stroke-width="0.25"/></g></g></svg>