<svg version="1.1" xmlns="http://www.w3.org/2000/svg" xmlns:xlink="http://www.w3.org/1999/xlink" width="27.79145" height="19.60208" viewBox="0,0,27.79145,19.60208"><g transform="translate(-234.067,-171.02009)"><g data-paper-data="{&quot;isPaintingLayer&quot;:true}" fill-rule="nonzero" stroke="none" stroke-linecap="butt" stroke-linejoin="miter" stroke-miterlimit="10" stroke-dasharray="" stroke-dashoffset="0" style="mix-blend-mode: normal"><path d="M235.54973,180.37621c1.34763,-3.07594 3.4736,-5.91026 6.16246,-7.71017c1.64641,-1.10211 4.33328,-1.27804 6.17276,-1.48891c6.08177,-0.69718 10.18762,0.81839 12.7403,6.73935c0.80799,2.27399 2.25639,6.86226 0.11406,8.93654c-1.10583,1.0707 -4.78979,1.22086 -6.3052,1.34438c-3.5035,0.28559 -7.01515,0.69796 -10.46301,1.30814c-3.27832,0.58017 -5.40394,1.94313 -8.62238,0.41875c-0.61494,-1.17593 -0.90347,-2.28655 -1.02087,-3.41543c-0.33239,-0.44115 -0.2524,-1.02101 -0.2524,-1.02101c0.05213,-0.371 0.11705,-0.74472 0.19439,-1.1198c0.02363,-0.79655 0.08117,-1.62484 0.12528,-2.51032l1.04507,-1.4066c0,0 0.03962,-0.0317 0.10956,-0.07491zM236.78671,185.25492c-0.02834,0.99047 0.04693,1.95918 0.3962,2.76597c1.85556,0.71387 4.51108,-0.79094 6.35647,-1.12319c3.51436,-0.63274 7.10989,-1.05502 10.6836,-1.33519c0.88112,-0.06908 4.08518,-0.08741 4.70866,-0.63812c1.07809,-0.95225 -0.4187,-5.0728 -0.76705,-6.04231c-2.07244,-4.87038 -5.08447,-5.62967 -9.98059,-5.07861c-1.3064,0.14704 -3.81425,0.22609 -5.02904,1.0774c-3.32394,2.32936 -5.67073,6.43187 -6.36825,10.37404z" fill="#000000" stroke-width="0.5"/><path d="M243.12725,174.84663c1.21479,-0.85131 3.75119,-0.94016 5.05759,-1.0872c4.89612,-0.55106 7.9505,0.24353 10.02294,5.11391c0.34835,0.96951 1.84331,5.11398 0.76523,6.06623c-0.62348,0.5507 -3.83366,0.5803 -4.71478,0.64938c-3.57372,0.28017 -7.23104,0.71116 -10.7454,1.3439c-1.84539,0.33226 -4.51124,1.82598 -6.3668,1.11212c-0.34927,-0.80679 -0.42877,-1.78378 -0.40043,-2.77425c0.69752,-3.94217 3.05773,-8.09473 6.38167,-10.42409z" data-paper-data="{&quot;noHover&quot;:false,&quot;origItem&quot;:[&quot;Path&quot;,{&quot;applyMatrix&quot;:true,&quot;segments&quot;:[[[236.90369,181.7807],[0.79164,-4.4741],[-0.03216,1.12412]],[[237.35335,184.91989],[-0.3964,-0.91565],[2.10594,0.81019]],[[244.56752,183.64514],[-2.09439,0.37709],[3.98857,-0.71812]],[[256.6927,182.12979],[-4.05593,0.31797],[1.00001,-0.0784]],[[262.03672,181.40557],[-0.70761,0.62501],[1.22356,-1.08074]],[[261.16617,174.54795],[0.39535,1.10033],[-2.35208,-5.52756]],[[249.83886,168.78407],[5.55677,-0.62542],[-1.48268,0.16688]],[[244.13123,170.00685],[1.37871,-0.96618],[-3.77245,2.64367]]],&quot;closed&quot;:true,&quot;fillColor&quot;:[0,0,0],&quot;strokeWidth&quot;:0.5}]}" fill="#ea0000" stroke-width="0.25"/></g></g></svg>