<svg version="1.1" xmlns="http://www.w3.org/2000/svg" xmlns:xlink="http://www.w3.org/1999/xlink" width="32.01296" height="19.32543" viewBox="0,0,32.01296,19.32543"><g transform="translate(-239.56785,-171.64523)"><g data-paper-data="{&quot;isPaintingLayer&quot;:true}" fill-rule="nonzero" stroke-width="0.5" stroke-linejoin="miter" stroke-miterlimit="10" stroke-dasharray="" stroke-dashoffset="0" style="mix-blend-mode: normal"><path d="M255.03904,183.49437c-0.8806,-0.55252 -0.32808,-1.43312 -0.32808,-1.43312l0.66776,-1.06343c0.31698,-0.39084 0.50632,-0.93681 0.95092,-1.17251c1.62714,-0.86264 3.23201,0.28421 4.78501,-0.0748c1.69668,-0.39221 0.68314,-2.81076 2.91327,-3.33109c0.55497,-0.12949 1.70122,0.37884 2.62426,0.81573c-0.92748,-1.28029 -1.92025,-2.48836 -2.72955,-3.60916c-2.63786,1.37025 -5.70905,2.4032 -8.44909,3.4922c-2.08116,0.82715 -4.40954,1.08478 -6.61888,1.6438c0.07245,0.31453 -0.01774,0.60306 -0.01774,0.60306l-0.37602,1.19825c-0.75007,1.76016 -1.00607,2.94836 -1.17714,4.82666c-0.07898,0.86723 -0.30043,1.399 -0.54446,2.18003c-0.02646,0.08467 -0.10667,0.207 -0.16223,0.31279c0.08774,-0.01039 0.23384,-0.01827 0.39468,0.01229c0.10831,-0.10586 0.21538,-0.22361 0.34499,-0.27644c1.02851,-0.41915 2.38991,-0.54711 3.4666,-0.79359c2.82771,-0.62184 5.47772,-0.59831 8.32022,-0.92306c2.02245,-0.23105 4.03229,-0.99373 6.03002,-1.38371c0.85072,-0.16608 2.23939,-0.3048 3.02781,-0.31782c0.47808,-0.0079 1.44176,0.38274 1.43125,-0.0953c-0.03584,-1.62983 -0.65104,-3.20209 -1.51192,-4.69656c-0.44829,0.52957 -1.15931,0.24089 -1.15931,0.24089c-0.65323,-0.26527 -1.96787,-1.13029 -2.57964,-1.17475c-0.45782,-0.03328 -0.26808,0.88205 -0.46921,1.29467c-0.55085,1.13003 -0.96226,1.6231 -2.21339,1.98769c-1.25392,0.3654 -3.88243,-0.96105 -4.55243,0.39699l-0.63455,1.01217c0,0 -0.55252,0.8806 -1.43312,0.32808zM241.2345,190.16641c-0.23198,-1.01337 0.78139,-1.24536 0.78139,-1.24536c0.89481,-0.20485 1.82118,-0.41691 2.74054,-0.62738c-0.03715,-0.2648 -0.06235,-0.53044 -0.09565,-0.77486c-0.10809,-0.79342 0.48807,-1.53942 0.55433,-2.33743c0.16765,-2.01912 0.48986,-3.45768 1.29514,-5.33762l0.11154,-0.35818c-0.24567,0.10275 -0.48792,0.21389 -0.72616,0.33483c-1.60265,0.8136 -3.21982,2.26136 -4.58295,3.44826c0,0 -0.78498,0.68157 -1.46656,-0.1034c-0.68157,-0.78498 0.1034,-1.46656 0.1034,-1.46656c1.48664,-1.28749 3.22738,-2.82087 4.97484,-3.71668c3.03522,-1.55593 6.67098,-1.53449 9.7819,-2.79624c3.22602,-1.30845 6.31861,-3.04103 9.84854,-3.54055c2.88252,2.89224 5.4014,6.04121 6.4727,10.07144c0.15282,0.57487 0.62891,2.7976 0.54304,3.02948c-0.80798,2.18189 -3.32218,1.48321 -5.01047,1.65986c-2.43364,0.25462 -4.7501,1.27463 -7.17108,1.5555c-2.79055,0.32372 -5.3773,0.28119 -8.15015,0.89223c-0.72278,0.16547 -2.84977,0.87011 -4.34616,1.08384c-1.44279,0.3303 -2.88557,0.66058 -4.32836,0.99088l-0.08445,0.01933c0,0 -1.01337,0.23198 -1.24536,-0.78139z" fill="#000000" stroke="none" stroke-linecap="butt"/><path d="M256.48196,183.13305l0.62304,-1.01354c0.67,-1.35805 3.26584,-0.00131 4.51976,-0.36671c1.25113,-0.36459 1.66299,-0.84632 2.21383,-1.97635c0.20113,-0.4126 0.07784,-1.347 0.53563,-1.31373c0.61176,0.04447 1.92817,0.91624 2.5814,1.18151c0,0 0.71099,0.2885 1.15929,-0.24109c0.86088,1.49447 1.4756,3.08009 1.51144,4.70992c0.01051,0.47802 -0.95348,0.0886 -1.43156,0.0965c-0.78841,0.01304 -2.1785,0.1559 -3.02922,0.32196c-1.99771,0.38999 -4.02581,1.1712 -6.04826,1.40226c-2.84249,0.32474 -5.53203,0.2926 -8.35973,0.91444c-1.07669,0.24647 -2.44124,0.37036 -3.46975,0.78951c-0.12963,0.05283 -0.23662,0.17068 -0.34492,0.27653c-0.16084,-0.03056 -0.30729,-0.02322 -0.39503,-0.01284c0.05556,-0.10581 0.13551,-0.22856 0.16196,-0.31322c0.24404,-0.78103 0.46311,-1.31732 0.5421,-2.18457c0.17107,-1.87831 0.42432,-3.08268 1.1744,-4.84284l0.37675,-1.20324c0,0 0.09081,-0.29086 0.01834,-0.60539c2.20933,-0.55903 4.55836,-0.83915 6.63952,-1.66629c2.74003,-1.089 5.84715,-2.11533 8.485,-3.48557c0.8093,1.1208 1.81081,2.34136 2.73829,3.62164c-0.92303,-0.43689 -2.12995,-0.91251 -2.68493,-0.78302c-2.23013,0.52033 -1.15528,2.90784 -2.85196,3.30006c-1.55301,0.35901 -3.1741,-0.74585 -4.80126,0.1168c-0.44459,0.2357 -0.61594,0.75485 -0.93292,1.14569l-0.66979,1.04753c0,0 -0.56219,0.86669 0.31841,1.41921c0.8806,0.55252 1.42015,-0.33519 1.42015,-0.33519z" data-paper-data="{&quot;noHover&quot;:false,&quot;origItem&quot;:[&quot;Path&quot;,{&quot;applyMatrix&quot;:true,&quot;segments&quot;:[[[246.75184,180.81066],[1.06066,1.06066],[-1.06066,-1.06066]],[246.75184,178.68934],[[248.03345,177.40864],[0,0],[0.57167,-0.44765]],[[249.74846,176.06569],[-0.70122,0.18837],[2.56634,-0.68938]],[[256.50264,177.50119],[-2.29989,0.0049],[2.51266,-0.00535]],[[261.67271,173.75405],[-3.30421,0.01378],[0.82226,-0.00343]],[[265.10107,175.74634],[-1.15756,-0.91168],[-0.89226,-2.09936]],[[262.42406,169.79119],[0.7774,1.83699],[-4.15134,1.0779]],[[249.41602,171.98249],[4.20449,-0.64944],[-3.19347,0.49328]],[[239.57731,172.16332],[3.28741,-0.0749],[0.00064,0.46571]],[239.35817,173.00581],[[238.44348,174.57007],[0,0],[-1.62172,2.23415]],[[235.23372,180.97973],[0.8454,-2.58674],[-0.39033,1.19433]],[[233.76599,183.87063],[0.59473,-1.01994],[-0.06447,0.11057]],[[233.43711,184.25835],[0.1122,-0.13092],[0.12674,0.01364]],[[233.98826,184.40273],[-0.21637,-0.09477],[0.18643,-0.11403]],[[234.5625,184.125],[-0.19932,0.03257],[1.58155,-0.25836]],[[239.69378,184.12502],[-1.59372,-0.00001],[4.17738,0.03586]],[[251.69334,185.50572],[-4.10252,-0.45849],[2.91897,0.32622]],[[260.62007,185.50111],[-2.93534,-0.09473],[1.25002,0.04034]],[[264.981,186.029],[-1.1131,-0.23553],[0.67496,0.14282]],[[267.02473,186.35582],[-0.13913,0.67572],[0.47437,-2.3039]],[[266.41045,179.26331],[0.72962,2.37916],[-0.80104,0.6005]],[[264.70231,179.22885],[0,0],[-0.83335,-0.58343]],[[261.45229,176.74595],[0.84613,0.25953],[-0.6332,-0.19422]],[[260.37548,178.4158],[0.41574,-0.51557],[-1.13862,1.41202]],[[256.62236,180.49881],[1.8771,-0.10995],[-1.88129,0.11019]],[[250.09155,179.59136],[1.37962,-1.69436],[0,0]],[248.87316,180.81066]],&quot;closed&quot;:true}]}" fill="#ffffff" stroke="none" stroke-linecap="butt"/><path d="M255.06041,182.31017l0.23481,0.82184" fill="none" stroke="#000000" stroke-linecap="round"/></g></g></svg>