<svg version="1.1" xmlns="http://www.w3.org/2000/svg" xmlns:xlink="http://www.w3.org/1999/xlink" width="29.46381" height="10.56367" viewBox="0,0,29.46381,10.56367"><g transform="translate(-231.65088,-179.08194)"><g data-paper-data="{&quot;isPaintingLayer&quot;:true}" fill="#000000" fill-rule="nonzero" stroke="none" stroke-width="0.5" stroke-linecap="butt" stroke-linejoin="miter" stroke-miterlimit="10" stroke-dasharray="" stroke-dashoffset="0" style="mix-blend-mode: normal"><path d="M247.46238,187.55218c-0.25968,-0.34552 -0.51936,-0.69106 -0.77903,-1.03658c0,0 -0.19254,-0.25618 -0.25184,-0.60608c-2.48506,0.44396 -5.01185,0.77491 -7.4175,1.12608l0.43973,0.6295c0,0 0.71017,1.01874 -0.30856,1.72891c-1.01874,0.71017 -1.72891,-0.30856 -1.72891,-0.30856l-0.55492,-0.79752c-0.18414,-0.28617 -0.36826,-0.57233 -0.5524,-0.85849c-1.16625,0.16069 -2.30293,0.29969 -2.45717,0.2534c-1.93947,-0.58202 -2.3579,-1.95988 -2.15427,-3.53616l0.80904,-0.4078l-0.07849,-0.15574l0.57944,-0.40393l-0.01318,-0.0189c0.50206,0.09335 0.94236,-0.07197 1.51447,-0.35494c-0.00609,0.02133 -0.01213,0.04249 -0.01813,0.06344c-0.04539,0.15863 -0.70115,2.44755 0.02686,2.4212c3.2433,-0.11735 6.63085,-1.2154 9.80066,-1.85039c2.39366,-0.47949 4.83238,-0.52592 7.17075,-1.25003c2.4087,-0.61264 4.61471,-1.56603 6.89157,-2.5441l0.94413,-0.4412c0,0 1.12536,-0.52512 1.65048,0.60024c0.52512,1.12536 -0.60024,1.65048 -0.60024,1.65048l-1.01405,0.47253c-2.37659,1.02091 -4.68701,2.00902 -7.20007,2.65316c-1.038,0.31597 -2.11018,0.58819 -3.20188,0.82859c0.16301,0.21691 0.32603,0.43381 0.48904,0.65072l0.46779,0.66989c-0.94529,0.24835 -1.61622,0.4409 -2.40008,0.89875z"/></g></g></svg>