<svg version="1.1" xmlns="http://www.w3.org/2000/svg" xmlns:xlink="http://www.w3.org/1999/xlink" width="28.50285" height="20.40858" viewBox="0,0,28.50285,20.40858"><g transform="translate(-232.06522,-171.4321)"><g data-paper-data="{&quot;isPaintingLayer&quot;:true}" fill-rule="nonzero" stroke="none" stroke-width="0.5" stroke-linecap="butt" stroke-linejoin="miter" stroke-miterlimit="10" stroke-dasharray="" stroke-dashoffset="0" style="mix-blend-mode: normal"><path d="M250.04505,183.69626c-1.45669,-0.35782 -1.09888,-1.81451 -1.09888,-1.81451l0.29603,-1.15661c0.40227,-0.75553 0.48466,-1.80708 1.20681,-2.26659c0.48235,-0.30693 3.37043,-0.29057 4.94048,-0.41662c-0.88838,-1.52477 -1.97526,-2.8771 -3.22182,-3.56409c-0.94475,-0.52066 -3.55698,0.65275 -4.48386,0.77363c-3.29147,0.42928 -5.61408,1.55033 -8.51202,2.98409l-0.00284,0.16143c-0.06395,2.19398 2.00042,2.97261 3.24017,4.66577c1.58023,2.15816 2.91466,3.67888 5.28271,5.11556c2.80101,1.69935 7.90777,0.35149 9.66869,-2.40394c0.47406,-0.74179 0.11237,-1.75805 0.21886,-2.63193c-0.20485,-0.67252 -0.47567,-1.44923 -0.80695,-2.26c-1.57986,0.41571 -2.41759,0.78439 -4.10247,0.54344c-0.25769,-0.03684 -0.44776,-0.53103 -0.6717,-0.39834c-0.22094,0.13092 0.03071,0.51271 0.04606,0.76906l-0.18476,0.80078c0,0 -0.35782,1.45669 -1.81451,1.09888zM236.32015,179.59783c-0.54448,0.36615 -0.98812,0.87339 -1.39152,1.79957c0,0 -0.64161,1.35586 -1.99747,0.71424c-1.35586,-0.64161 -0.71424,-1.99747 -0.71424,-1.99747c2.36643,-4.74872 10.13427,-7.20252 15.07431,-7.83692c1.991,-0.25569 4.13948,-1.40938 6.17534,-0.50365c3.66084,1.62867 6.14842,7.60807 7.10149,11.10865c-0.03617,0.39046 -0.30206,3.87032 -0.55734,4.2979c-0.46637,0.78113 -2.69342,2.43736 -3.59648,3.00272c-6.48276,4.0585 -12.5525,0.04735 -16.44463,-5.37401c-1.53324,-2.13565 -3.13545,-2.85547 -3.64948,-5.21104z" fill="#000000"/><path d="M251.81557,182.57362l0.1805,-0.79006c-0.01536,-0.25634 -0.26869,-0.62711 -0.04775,-0.75803c0.22395,-0.1327 0.41442,0.35687 0.67212,0.39372c1.68487,0.24093 2.62216,-0.12117 4.20202,-0.53688c0.33128,0.81078 0.60057,1.59983 0.80541,2.27235c-0.1065,0.87387 0.25028,1.9024 -0.22378,2.64421c-1.76092,2.75542 -6.91813,4.12826 -9.71914,2.42891c-2.36805,-1.43668 -3.74287,-2.99063 -5.3231,-5.1488c-1.23975,-1.69316 -3.30521,-2.50073 -3.24126,-4.69472l0.00305,-0.16218c2.89794,-1.43376 5.2598,-2.59058 8.55127,-3.01986c0.92689,-0.12089 3.57176,-1.28909 4.51651,-0.76843c1.24656,0.68698 2.35568,2.06371 3.24406,3.58848c-1.57004,0.12605 -4.53321,0.16998 -5.01556,0.47691c-0.72214,0.45951 -0.72777,1.45532 -1.13004,2.21085l-0.33188,1.22026c0,0 -0.39119,1.363 1.0655,1.72082c1.45669,0.35782 1.79208,-1.07753 1.79208,-1.07753z" data-paper-data="{&quot;noHover&quot;:false,&quot;origItem&quot;:[&quot;Path&quot;,{&quot;applyMatrix&quot;:true,&quot;selected&quot;:true,&quot;segments&quot;:[[[242.72088,182.05763],[0.87106,1.22117],[-0.87106,-1.22117],7],[[243.07099,179.9654],[0,0],[0,0],7],[[244.04963,179.28156],[0,0],[0.79765,-0.31049],7],[[246.44258,178.3501],[-0.84713,-0.12252],[0.56584,0.08184],7],[[250.45984,181.25587],[-1.27252,-0.92824],[0.32076,-1.73529],7],[[250.34135,176.45287],[0.4971,1.3337],[-0.37674,-1.01079],7],[[246.43747,174.11552],[0.78154,0.51276],[-2.77533,-1.82087],7],[[238.03825,170.82731],[3.13199,0.80272],[0,0],7],[[237.93084,170.94783],[0,0],[-1.47915,1.62165],7],[[237.34485,176.59803],[0.16418,-2.09209],[-0.20927,2.66664],7],[[238.01411,183.92115],[-0.85848,-2.63339],[1.01544,3.11486],7],[[246.91195,188.40346],[-3.13181,0.94073],[0.84312,-0.25326],7],[[248.79412,186.55081],[-0.65058,0.59308],[0.28324,-0.64345],7],[[249.65606,184.3112],[-0.27754,0.83071],[-1.46884,-0.71504],7],[[246.19143,182.04804],[1.12026,1.28135],[-0.17134,-0.19597],7],[[245.94194,181.30803],[0.25632,0.04543],[-0.25287,-0.04482],7],[[245.47537,181.92112],[0.15552,-0.20436],[0,0],7],[[244.81311,182.40773],[0,0],[0,0],7]],&quot;closed&quot;:true}]}" fill="#f5f5f5"/></g></g></svg>