<svg version="1.1" xmlns="http://www.w3.org/2000/svg" xmlns:xlink="http://www.w3.org/1999/xlink" width="16.4466" height="20.38099" viewBox="0,0,16.4466,20.38099"><g transform="translate(-243.30642,-171.03752)"><g data-paper-data="{&quot;isPaintingLayer&quot;:true}" fill-rule="nonzero" stroke="none" stroke-linecap="butt" stroke-linejoin="miter" stroke-miterlimit="10" stroke-dasharray="" stroke-dashoffset="0" style="mix-blend-mode: normal"><path d="M254.84695,178.7559c-3.86879,-0.01054 -5.95058,0.9851 -7.9326,4.05819l0.62583,1.26889c0.06292,0.38371 0.28795,0.99569 0.60837,1.647c0.03723,0.02823 0.07497,0.0561 0.11322,0.08358c0,0 0.58818,0.44113 0.5614,1.10465c0.53577,0.81908 1.16443,1.51041 1.73884,1.65749c1.83415,0.46967 5.52383,-0.04871 6.30905,-2.21598c0.54418,-1.50199 0.19064,-3.81574 0.19064,-5.38907c0.00211,-0.77293 0.01429,-1.69757 -0.05602,-2.60174c-0.15338,0.15077 -0.33563,0.2428 -0.50097,0.29897c-0.14794,0.05685 -0.30861,0.08801 -0.47656,0.08801zM254.84695,176.0982h1.1812c0.16795,0 0.32862,0.03116 0.47656,0.08801c0.02895,0.00983 0.05843,0.02077 0.08817,0.03294c-0.00937,-0.02527 -0.01892,-0.05035 -0.02867,-0.07522c-0.95895,-2.44856 -5.41735,-3.17891 -7.48234,-1.74169c-1.63959,1.14114 -2.74917,3.14887 -3.06899,5.23383c2.22313,-2.50762 4.8893,-3.52837 8.83406,-3.53786zM246.05678,187.41825c-4.27711,-4.03548 -3.4207,-11.993 1.56205,-15.23477c3.59992,-2.34211 9.70437,-0.96971 11.41685,2.98311c0.70496,1.62723 0.67953,4.06569 0.68371,5.80407c0,3.05549 0.44221,5.95989 -1.8805,8.33669c-3.73161,3.81852 -9.33304,2.0142 -11.78212,-1.88909z" fill="#000000" stroke-width="0.5"/><path d="M254.8907,176.09137c-3.94476,0.00949 -6.69328,1.05884 -8.91641,3.56646c0.31983,-2.08496 1.43688,-4.14597 3.07647,-5.28712c2.065,-1.43722 6.59859,-0.67962 7.55754,1.76895c0.00974,0.02488 0.01936,0.0506 0.02873,0.07587c-0.02975,-0.01216 -0.14748,-0.01552 -0.17644,-0.02535c-0.14794,-0.05686 -0.30849,-0.08681 -0.47644,-0.08681l-1.18097,0.00168z" data-paper-data="{&quot;noHover&quot;:false,&quot;origItem&quot;:[&quot;Path&quot;,{&quot;applyMatrix&quot;:true,&quot;segments&quot;:[[256.83333,177.5],[[258.16666,177.5],[0,0],[0.18958,0]],[[258.7046,177.59935],[-0.16699,-0.06418],[0.03268,0.0111]],[[258.80413,177.63653],[-0.03358,-0.01373],[-0.01058,-0.02852]],[[258.77177,177.55162],[0.011,0.02808],[-1.08246,-2.76393]],[[250.32573,175.58561],[2.33096,-1.62233],[-1.85076,1.28812]],[[246.86146,181.49354],[0.36102,-2.3535],[2.50946,-2.83059]],[[256.83332,177.50002],[-4.45283,0.01071],[0,0]]],&quot;closed&quot;:true,&quot;fillColor&quot;:[0,0,0],&quot;strokeWidth&quot;:0.5}]}" fill="#ebebeb" stroke-width="0.25"/><path d="M247.01183,183.89877c-0.08902,-0.12613 -0.17657,-0.25325 -0.26256,-0.38134c0.45989,-0.89942 0.67097,-1.97839 1.37967,-2.69825c0.12639,-0.12838 0.39159,-0.26528 0.74309,-0.39656c0.34427,-0.50443 0.76179,-0.98722 1.46906,-1.45325c0.9822,-0.64718 2.22347,-0.83955 3.39222,-0.97204c0.84749,-0.09608 1.76402,-0.6999 2.53634,-0.33796c1.83231,0.85868 1.54874,3.7519 1.54874,5.30456c0,0.69541 0.05481,2.66765 -0.23408,3.21681c-0.78313,1.48867 -2.56525,2.35011 -4.32861,2.42893c-2.15614,1.42479 -5.66279,-0.10418 -6.29286,-2.57533c-0.17622,-0.69116 -0.03447,-1.4165 0.04898,-2.13558z" fill="#ea0000" stroke-width="0.5"/></g></g></svg>