<svg version="1.1" xmlns="http://www.w3.org/2000/svg" xmlns:xlink="http://www.w3.org/1999/xlink" width="203.41305" height="326.41455" viewBox="0,0,203.41305,326.41455"><g transform="translate(-102.24487,-17.47684)"><g data-paper-data="{&quot;isPaintingLayer&quot;:true}" fill-rule="nonzero" stroke-linejoin="miter" stroke-miterlimit="10" stroke-dasharray="" stroke-dashoffset="0" style="mix-blend-mode: normal"><path d="M218.31066,222.47733c-0.03828,0.03828 -0.07656,0.0738 -0.11479,0.1067c0.07529,1.41169 0.17914,2.79142 0.17914,3.99932c0,1.07647 -0.5366,3.66676 0.39115,4.54341c0.51104,0.48289 1.40605,-0.06413 2.10885,-0.04341c2.53867,0.07484 3.64896,-1.89797 4.94171,-3.98374c0.95391,-1.83984 1.82863,-4.7248 1.80829,-6.76626c-0.00791,-0.79461 0.58827,-1.72814 0.13405,-2.38018c-1.76442,-2.53286 -4.65783,-2.86982 -7.38405,-2.86982h-1.25c0,0 -0.07744,0 -0.19712,-0.0176h-0.00001c-0.13711,0.42128 -0.25018,0.80162 -0.33812,1.09084c-0.36635,1.20481 -0.4734,2.61632 -0.47021,4.07705l0.19111,0.12236c0,0 1.06066,1.06066 0,2.12132zM204.34264,219.46915c-1.25596,-0.46456 -2.23231,-1.55969 -3.51441,-1.94634c-0.82746,-0.24954 -3.84247,-0.45507 -4.39837,-0.68734c-1.1459,-0.4788 -2.42884,-0.98385 -3.14389,-1.99925c-0.52978,-0.75229 -0.13509,-1.83526 -0.20263,-2.75289c0,-3.22551 0.7863,-4.4675 2.13064,-7.27892c0.3231,-0.67569 0.05329,-1.72182 0.67187,-2.14409c3.71243,-2.5343 5.70277,0.85264 8.62786,2.04695c4.6315,1.89103 9.54731,3.01351 14.37216,4.57874c0.44805,-0.34934 0.95081,-0.64434 1.51479,-0.87568c0,0 1.42302,-0.47434 1.89737,0.94868c0.15708,0.47124 0.10609,0.83845 -0.03239,1.11885c0.18075,0.06985 0.36125,0.14075 0.54146,0.21276c0,0 1.20908,0.48363 0.92351,1.67621c2.7028,0.49581 5.2502,1.72777 6.76035,4.34671c0.35368,0.61336 0.10785,1.41229 0.13405,2.11982c0.12265,3.31184 -0.75089,6.77923 -2.19171,9.73373c-0.99782,1.5857 -1.93441,2.96263 -3.12034,3.94446c2.47693,-0.31058 5.17425,-0.03468 7.49588,-0.03468c0.39774,0 3.86842,-0.04851 4.17082,0.15836c1.00311,0.68619 1.50147,1.91153 2.25221,2.8673c0.01851,0.59877 0.13818,1.40767 0.25545,2.26835c1.86696,-0.30913 3.73949,-0.66623 5.32809,-1.24923c1.38658,-0.50886 2.56183,-1.51227 3.96033,-1.98739c2.46656,-0.78771 4.137,-2.55871 6.35241,-3.85295c4.47209,-2.61259 8.60583,-5.15565 11.54052,-9.55607c0.40112,-0.60145 1.63225,-2.16364 1.77514,-3.11828c0.28745,-1.9204 -0.02706,-4.46064 -0.02706,-6.383c0,-3.12492 0.18041,-6.06947 -2.22733,-8.27267c-1.29104,-1.30193 -2.75207,-2.15818 -4.32189,-2.6991c-0.40924,0.18914 -1.18696,0.3791 -1.81745,-0.46156c-0.0066,-0.0088 -0.01309,-0.01758 -0.01946,-0.02635c-4.3318,-0.84258 -9.25734,0.15985 -13.65682,0.62124c-5.74373,0.60236 -11.51957,-0.41293 -16.55828,2.04789c0.32992,0.13295 0.66047,0.2655 0.99165,0.39784l-0.22375,-0.10728c0,0 1.5,0 1.5,1.5c0,1.5 -1.5,1.5 -1.5,1.5l-0.89042,-0.10729c-0.97195,-0.3892 -1.94114,-0.77905 -2.90618,-1.17431c-0.28944,0.19581 -1.22254,0.7017 -2.0224,-0.25813c-0.21511,-0.25814 -0.32421,-0.50663 -0.364,-0.73685c-3.81117,-1.62214 -7.5389,-3.39209 -11.09691,-5.60901c-1.85255,-1.15429 -3.01886,-2.87311 -4.94385,-3.55503c0,0 -0.25253,-0.10101 -0.49953,-0.32456c-0.53143,0.20586 -1.0844,0.02153 -1.0844,0.02153l-1.72566,-0.85635c-1.84599,-2.46305 -3.5518,-4.21206 -6.03334,-6.03334c0,0 -0.02704,-0.02029 -0.06996,-0.05882c-0.35166,-0.09073 -0.5967,-0.27451 -0.5967,-0.27451c-5.31171,-3.98379 -10.5898,-8.66468 -16.46499,-11.87247c-3.72158,-2.03194 -7.92434,-2.2956 -11.91736,-3.50774c-1.76683,-0.53635 -3.41585,-1.18982 -5.08112,-1.71474c-2.93088,-0.13252 -6.15071,-0.42038 -9.13343,-0.26382c-0.27399,0.16273 -0.52515,0.21296 -0.52515,0.21296c-0.97884,0.18536 -1.88673,0.24299 -2.73656,0.18945c-0.27124,0.05766 -0.53815,0.12196 -0.80024,0.1935c-3.43452,0.9375 -6.55445,3.12459 -9.79976,4.66585c-0.4496,-0.24603 -0.87157,-0.5301 -1.24287,-0.88473c-0.29561,-0.28233 -0.36559,-0.65695 -0.34165,-1.07332c0.05311,-0.22103 0.09888,-0.44491 0.13704,-0.67138c0.04951,-0.02276 0.09898,-0.04568 0.14843,-0.06876c-1.17467,-0.10215 -2.32412,-0.10186 -3.17916,0.14397l0.00002,-0.00001c-0.58978,0.16957 -0.86355,0.89296 -1.3922,1.2046c-4.33405,2.55493 -8.26022,4.13756 -11.18956,8.54534c-1.59618,2.40177 -3.76732,4.30024 -5.33664,6.6716c-0.36186,0.54679 -0.56804,1.20463 -1.01323,1.686c-0.278,0.30059 -1.14224,0.17514 -1.08264,0.58022c0.05934,0.40337 0.81274,0.10591 1.20161,0.22842c0.76584,0.24127 1.5003,0.57274 2.25045,0.85911c3.022,-0.02662 6.04361,-0.02407 9.06569,-0.02407h1.66667c0.82843,0 1.5,0.67157 1.5,1.5c0,0.49699 -0.2417,0.93752 -0.61397,1.21048l-1.31937,0.98952l-0.14887,-0.19849c-2.54209,2.68135 -5.59123,4.57871 -8.46669,7.20201c-2.94676,2.68836 -4.85774,6.18636 -7.49913,9.12913c-1.88076,2.09535 -4.25195,3.95197 -5.63544,6.4997c-2.36677,4.35843 -4.0089,10.21939 -3.98321,15.16765c0,1.33334 0.1971,2.68132 0,4c-0.03688,0.24676 -0.68399,0.55708 -0.43934,0.60601c0.44007,0.08802 0.82676,-0.38867 1.27268,-0.43934c1.66507,-0.18921 2.94379,0.27023 4.55275,-0.2651c3.00804,-1.00083 6.71629,-4.03253 9.15193,-6.03012c1.4452,-1.18528 3.12454,-4.13696 5.78773,-2.79037c1.22882,0.62133 0.5848,4.57412 0.29168,5.63347c-1.50637,5.44405 -2.74455,10.071 -1.53446,15.78907c6.02682,3.98659 13.7947,-4.11463 18.24277,-7.07905c3.97402,-2.64848 7.84168,-3.6752 12.10007,-4.05304c1.64209,-1.28339 3.16997,-2.72786 4.5268,-4.07908c-0.17541,-0.10227 -0.3487,-0.20673 -0.51966,-0.31354c-0.03423,0.00116 -0.06846,0.00233 -0.10269,0.00349c-0.04076,0.75143 -0.47836,1.09495 -0.86996,1.252c0.03123,-1.59548 -0.05072,-3.03993 -0.24346,-4.19237c0.6723,0.01524 1.3446,0.03049 2.0169,0.04574c3.30416,1.91336 6.83996,3.45109 10.49989,4.70813c-0.13369,-2.38592 0.41932,-4.76451 2.58445,-5.96213c1.40357,-0.77638 5.49812,-0.09622 7.07054,-0.02962c0.51103,0.3941 0.99411,0.85106 1.46442,1.33942c-0.86971,0.3767 -1.67058,0.89781 -2.36691,1.56908c-0.03005,-0.026 -0.06022,-0.05187 -0.09054,-0.07761c-1.37371,0.11576 -3.71877,-0.46016 -4.92946,-0.02963c-1.04433,0.37138 -0.96216,2.32828 -0.55751,4.20441c0.99793,0.29596 2.00257,0.57371 3.01184,0.83506c-0.01876,0.18902 -0.02836,0.38075 -0.02836,0.57471c0,0.48295 0.05954,0.952 0.17168,1.40019c0,0.3062 0.01005,0.59297 0.02955,0.86141c-0.74227,-0.2219 -1.49275,-0.45208 -2.25922,-0.68908c0.11507,0.26537 0.22093,0.4715 0.30761,0.59776c3.44325,5.01575 7.11965,9.59856 11.10211,14.15153c1.04441,1.19404 1.96997,2.54868 3.27012,3.45759c0,0 1.2206,0.87186 0.34874,2.09246c-0.35743,0.50041 -0.77348,0.64912 -1.14001,0.65042c1.08772,1.86002 2.96525,3.6395 3.93692,5.1756c2.09782,3.31641 4.8621,7.31789 7.74616,9.94647c1.01529,0.92535 1.64729,0.82682 2.80734,1.60029c3.12243,2.08191 5.99339,4.3824 9.27215,6.26477c3.5418,2.86846 7.58126,3.79292 11.83391,5.05268c4.78884,1.41859 9.78058,2.0623 14.23683,-1.05747c3.76931,-2.63885 6.25281,-6.94483 8.54171,-10.76264c1.78786,-3.0729 2.34027,-7.10654 3.07289,-10.53308c0.36596,-1.71159 1.26932,-3.26486 1.79846,-4.93324c0.77187,-2.43371 1.25899,-5.13097 1.49932,-7.88681c0.76937,1.01411 1.73047,1.8659 2.78251,2.45123c-0.63837,3.79318 -2.36857,7.23811 -3.13732,10.95102l-0.00004,-0.00004c-0.78368,3.78499 -1.50634,8.05625 -3.4271,11.46692c-2.50413,4.17021 -5.2965,8.91481 -9.45829,11.73736c-5.23649,3.55142 -11.09351,3.09884 -16.76317,1.44253c-4.53192,-1.32393 -8.8775,-2.44983 -12.66609,-5.44733c-3.27114,-1.85969 -6.12176,-4.16482 -9.22785,-6.23523c-1.03043,-0.68685 -2.26837,-1.07554 -3.19266,-1.89971c-3.97335,-3.543 -6.51649,-8.7357 -9.66863,-12.93253c-1.90688,-2.53886 -3.70197,-3.74684 -3.81634,-7.13036c-4.22273,-4.07008 -7.47082,-9.4629 -10.72561,-14.17605c-0.93848,-1.35898 -2.21752,-2.57404 -2.70221,-4.15285c-0.04764,-0.15518 -0.09435,-0.31433 -0.13969,-0.47691c-0.47215,-0.05457 -0.9382,-0.1342 -1.38778,-0.28239c-0.53166,-0.17525 -0.8195,-0.81344 -1.34551,-1.00498c-1.78232,-0.649 -3.71954,-1.31124 -5.5847,-2.11198c-0.23636,0.26742 -0.50379,0.40113 -0.50379,0.40113l-0.27683,0.05235c-0.63793,0.63793 -1.3017,1.27886 -1.9895,1.90937c0.30703,-0.00234 0.61659,-0.00337 0.92884,-0.00337h0.66666c0,0 1.5,0 1.5,1.5c0,1.5 -1.5,1.5 -1.5,1.5h-0.66666c-1.06176,0 -2.64321,-0.22367 -4.13528,-0.30883c-0.61094,0.46142 -1.23587,0.90301 -1.87382,1.31762c-0.02687,-0.41716 -0.07721,-0.85292 -0.14773,-1.30423c-0.38662,0.0402 -0.73758,0.10959 -1.0355,0.21847c-0.5218,0.1907 -0.79728,0.8541 -1.33334,1c-1.20872,0.32899 -2.66272,-0.13359 -3.71912,0.53965c-7.05632,4.49699 -17.70169,15.28108 -26.33818,8.53371c-1.3495,-4.936 -1.49445,-10.58256 0.13533,-15.48657c0.30497,-0.91765 0.72933,-1.7951 0.99688,-2.72436c0.06007,-0.20864 0.08511,-0.42616 0.10387,-0.64499c-1.67265,1.78287 -5.31304,3.42606 -6.43518,4.23759c-3.50705,2.53631 -6.07288,3.93824 -10.55128,3.62194c-1.13793,-0.08037 -2.5145,0.2872 -3.394,-0.43934c-1.03809,-0.85755 -0.43934,-5.41642 -0.43934,-6.72733c0.02467,-5.4587 1.71529,-11.75171 4.33221,-16.57201c1.50768,-2.77713 3.9978,-4.80954 6.04914,-7.09397c2.71215,-3.02033 4.67602,-6.56346 7.70278,-9.336c2.37644,-2.17684 4.55175,-3.71879 7.13321,-5.4984c-2.43945,-0.00115 -4.87874,-0.00572 -7.3183,-0.02369c-1.44514,-0.53481 -5.41603,-1.59023 -5.88127,-3.57914c-0.24116,-1.03093 1.04994,-1.83893 1.58402,-2.75312c1.42182,-2.43374 3.35846,-4.14166 5.02963,-6.37445c2.52533,-3.374 4.7239,-6.59114 8.32485,-8.98609c1.56633,-1.04174 3.47715,-1.46235 5.10609,-2.40318c0.70146,-0.40514 1.16198,-1.24045 1.94112,-1.46207c2.3501,-0.66844 5.99941,-0.12667 8.40977,0.26918c0,0 0.09452,0.01575 0.2318,0.06319c0.92376,-0.49983 1.85375,-0.98466 2.80017,-1.41074c-1.84682,-1.22611 -3.45092,-3.04599 -5.08811,-5.10519c-1.94318,-2.44406 -2.1946,-4.66425 -3.25077,-7.44141c-1.83649,-4.82896 -4.52589,-9.57855 -5.07756,-14.82297c-0.18992,-1.80549 0.30462,-3.65533 0.00771,-5.44633c-0.33551,-2.02383 -0.96425,-4.02246 -0.99301,-6.07371c-0.02356,-4.05196 -1.35948,-7.65804 -1.84109,-11.64517c-1.23907,-10.25791 -0.18526,-21.19485 -0.18526,-31.52139c0,-5.26537 -0.56685,-10.73987 0.9253,-15.8045c0.92695,-3.089 1.51441,-6.70742 2.58962,-9.67892c0.34269,-0.9471 1.1949,-1.64283 1.59053,-2.56906c0.51721,-1.21087 -0.03443,-2.70625 0.47153,-3.92186c0.36851,-0.88538 1.15371,-1.53481 1.66664,-2.34511c1.59714,-2.52305 2.67683,-5.53894 4.46935,-7.92555c1.56838,-2.08818 3.99889,-4.08816 5.84769,-5.93697c0.04665,-0.04665 3.95477,-3.9713 4.12197,-4.07576c0.86575,-0.54091 4.7065,-1.70859 5.73722,-2.23303c2.47091,-1.25722 4.65422,-2.97082 7.15834,-4.22341c7.92275,-3.0489 16.19186,-7.45477 24.78671,-8.27972c3.75919,-0.36081 8.1636,0.91576 11.79047,0.03403c0.93565,-0.22746 1.6551,-1.0233 2.57389,-1.31141c3.541,-1.11035 7.71358,-0.73151 11.37706,-0.72494c1.21103,0.21099 2.57017,0.01544 3.63309,0.63295c2.24332,1.30328 2.26192,3.67375 2.99876,5.74729c0.92676,2.60801 2.21023,5.15831 3.44511,7.62845c3.07679,6.15457 4.69064,12.86968 7.56112,19.04803c1.7668,3.80282 2.69879,7.46372 3.70481,11.5381c0.39212,1.58807 1.30574,3.04205 1.53158,4.66214c0.25192,1.8072 0.18883,3.65255 0.492,5.45186c0.80539,4.87781 0.52722,9.84928 0.52722,14.78742v0.07854c2.40516,0.11446 4.7918,0.3883 6.57403,1.03563c0.51996,0.18886 0.82997,0.79397 1.36065,0.95018c2.10163,0.61863 4.94907,0.14023 7.23989,0.3811c1.77557,-15.33262 16.72993,-24.50589 28.00764,-33.70293c0.88605,-0.44637 1.84051,-1.00094 2.82488,-1.56508c0.14138,-0.5388 0.59291,-0.87745 0.59291,-0.87745c2.87021,-2.10544 8.52464,-3.8949 11.91917,-1.40059c0.48864,0.35905 0.29223,1.2181 0.67289,1.6901c0.38858,0.48183 1.2011,0.52461 1.53406,1.04641c0.9461,1.48267 0.49519,2.76169 1.14565,4.25725c0.56419,1.29718 1.40309,2.52526 1.61699,3.92356c0.16829,1.10012 -0.34925,2.27283 -0.02889,3.33864c0.28175,0.93733 1.02535,1.6885 1.32529,2.62016c0.84104,2.61239 0.21484,6.53532 0.21484,9.22447c0,6.83333 0,13.66667 0,20.5c0,1.04133 0.07359,2.19279 0.14943,3.38149c-1.43322,-0.71339 -3.05216,-1.09094 -4.83344,-1.00755c-0.06533,0.00306 -0.13008,0.00739 -0.19425,0.01295c0.02742,-0.01403 0.05491,-0.02812 0.08245,-0.04229l1.42082,-0.15836c0,0 0.21064,0 0.47406,0.07894c-0.05622,-0.80395 -0.09906,-1.57071 -0.09906,-2.26519c0,-6.83333 0,-13.66667 0,-20.5c0,-1.66667 -0.0006,-3.33333 0,-5c0.0004,-1.10332 -0.08371,-1.82105 -0.23066,-2.43275c-0.36722,2.9628 -0.86988,5.90669 -1.41816,8.88527c-0.29181,1.58527 0.06529,3.25094 -0.2663,4.82836c-0.8965,4.26474 -2.22562,9.03842 -3.98183,13.28042c0.60204,-0.16874 1.2015,-0.34889 1.79762,-0.54808l1.43017,-0.29784c0,0 1.47087,-0.29417 1.76505,1.1767c0.29417,1.47087 -1.1767,1.76505 -1.1767,1.76505l-1.06983,0.20215c-0.8365,0.2782 -1.67785,0.52142 -2.52366,0.74768c-0.85443,-1.54378 -1.90596,-2.75124 -3.23755,-3.584c1.82473,-4.23049 3.13269,-9.12564 4.07699,-13.43132c0.33401,-1.52296 -0.04202,-3.13706 0.23369,-4.67164c0.07305,-0.40657 0.14551,-0.81235 0.21713,-1.2175c-0.16874,0.56702 -0.35406,1.12115 -0.56248,1.65558c-1.35051,3.46303 -3.5388,6.7599 -5.05739,10.18658c-0.91172,2.0573 -1.9945,4.10144 -2.86928,6.19912c-0.98052,-0.09588 -2.05849,-0.07828 -3.24615,0.05848c0.34059,-0.85903 0.68587,-1.59405 0.87489,-2.02135c2.29613,-5.19062 5.45573,-10.26327 7.50294,-15.51281c1.0323,-2.64706 1.44222,-5.80139 2.16163,-8.55428c0.51269,-1.96184 2.03826,-4.32383 1.95488,-6.27755c0,0 0,-1.1426 0.99724,-1.43334c0.00183,-0.18858 0.00276,-0.37746 0.00276,-0.56666c0,0 0,-0.27793 0.11964,-0.59452c-0.13374,-0.24138 -0.26067,-0.48494 -0.36641,-0.7349c-0.49858,-1.17855 -0.11494,-2.69833 -0.85435,-3.74275c-0.33682,-0.47577 -1.10397,-0.49665 -1.46594,-0.95359c-0.27945,-0.35277 -0.00138,-0.99935 -0.32711,-1.3099c-0.57567,-0.54885 -4.07808,-0.18782 -4.79755,-0.11183c-1.47248,0.15553 -1.70307,0.40563 -2.57203,1.13602c0.04935,0.14381 0.09596,0.26965 0.13876,0.37523c0.02906,0.07169 0.06009,0.14275 0.09303,0.2132c-1.56915,0.83627 -3.13828,1.85664 -4.52524,2.54426c-10.50862,8.78625 -25.31196,17.34289 -26.71071,31.97835c0.86719,0.32245 1.73293,0.64981 2.64203,0.78501c1.65423,0.24602 3.27867,0.39023 4.88941,0.50329c-0.0213,0.96101 0.04513,1.91933 0.13664,2.70518c-1.85651,0.01727 -3.71182,0.02413 -5.52427,-0.25013c-0.84026,-0.12715 -1.64358,-0.41748 -2.44542,-0.7153c-0.18978,0.37032 -0.56473,0.73613 -1.30548,0.73613c-1.5,0 -1.5,-1.5 -1.5,-1.5c0,-0.0189 0.00001,-0.03778 0.00006,-0.05665c-2.51018,-0.358 -5.52246,0.1657 -7.93474,-0.50771c-0.625,-0.17448 -1.03451,-0.81478 -1.63934,-1.04982c-2.39918,-0.93234 -5.10177,-0.09078 -7.57378,-0.39312c-1.4492,-0.17724 -2.89221,-0.49845 -4.35219,-0.4927c0,0 -1.5,0 -1.5,-1.5c0,-1.5 1.5,-1.5 1.5,-1.5c1.03479,0.00352 2.23335,-0.00721 3.5,0.00279v-0.00279c0,-4.76266 0.30502,-9.59319 -0.4864,-14.29422c-0.29783,-1.8052 -0.26275,-3.65162 -0.4944,-5.4665c-0.19672,-1.54128 -1.10747,-2.91152 -1.48202,-4.41949c-0.96568,-3.88784 -1.83799,-7.37246 -3.51459,-10.99763c-2.84982,-6.16191 -4.4571,-12.83805 -7.52259,-18.96804c-1.28919,-2.57795 -2.62929,-5.2448 -3.58985,-7.96897c-0.17018,-0.48262 -0.6935,-3.65413 -1.70987,-4.17333c-0.68769,-0.35129 -1.53774,-0.14372 -2.30661,-0.21558c-3.24965,0.00647 -7.1208,-0.41729 -10.25637,0.59178c-0.98728,0.31772 -1.78193,1.13933 -2.79266,1.37187c-3.84723,0.88512 -8.26803,-0.34725 -12.20953,0.03403c-8.26235,0.79925 -16.22554,5.1144 -23.84674,8.03699c-2.45504,1.22695 -4.58126,2.91735 -7.00806,4.15212c-1.73607,0.88333 -3.80616,1.05035 -5.46293,2.07472c-1.46692,0.90699 -2.41586,2.46208 -3.63539,3.6816c-4.37376,4.37375 -8.71261,9.33581 -11.25896,15.035c-0.55917,1.25151 -0.01925,2.80549 -0.52848,4.07814c-0.36406,0.90983 -1.22447,1.57086 -1.56094,2.49124c-1.0624,2.9061 -1.62485,6.4797 -2.53483,9.51382c-1.69457,5.53346 -0.79878,12.16963 -0.79878,17.94246c0,9.22635 -0.94361,18.99514 0.16362,28.16164c0.49555,4.10251 1.81822,7.8015 1.86262,11.97991c0.00322,1.89956 0.65599,3.74221 0.95439,5.61818c0.33886,2.13043 -0.2,3.50309 0.00772,5.55367c0.50643,4.9994 3.17921,9.57657 4.92244,14.17703c0.30825,0.81349 1.06939,3.91366 1.2834,4.377c1.12953,2.44549 4.76068,6.42948 7.0136,7.81007c0.15885,0.09735 0.32518,0.17075 0.49689,0.22426c4.94484,-1.19631 11.05781,-0.31843 16.11152,-0.31843c0,0 1.24561,-0.00001 1.46667,1.13507c1.29986,0.47027 2.60892,0.94224 3.95896,1.32645c-1.5019,-2.65219 -3.00243,-5.41762 -3.75107,-8.41246l0.00005,0.00001c-0.90007,-3.6006 -0.29956,-7.92928 -0.29956,-11.63239c0,-7.8114 0.49173,-14.92035 2.29748,-22.37442c0.49884,-2.05918 1.82598,-3.76462 2.96193,-5.46876c1.50001,-2.25029 2.68092,-4.90665 4.29306,-7.06012c1.79722,-2.40069 4.20602,-4.09374 6.46844,-5.9831c3.78261,-3.29526 8.06883,-2.61361 12.72909,-2.61361c5.64659,0 12.04117,0.08289 17.30161,2.35511c4.58254,1.9794 8.23159,7.49001 11.02224,11.4396c2.072,5.70732 7.87733,10.76596 8.90679,16.96502c0.3768,2.26898 0.01937,4.93514 0.01937,7.24027c0,4.91667 0,9.83333 0,14.75c0,6.91667 0,13.83333 0,20.75c0,3.70992 0.66332,8.22534 -0.04013,11.84463c-0.48735,2.50748 -0.85574,4.49746 -0.9411,7.02237c1.00016,-0.24732 2.00314,-0.44177 2.98923,-0.58993c2.68469,-0.40339 5.49341,0.12732 8.21995,0.05966c-0.42156,-0.1862 -0.80551,-0.40696 -1.00393,-0.79813c-0.49706,-0.97988 -0.17268,-2.19105 -0.22403,-3.28859c-0.12016,-2.56831 0,-5.18072 0,-7.75c0,-11.35458 -0.69557,-22.9795 0.27962,-34.29048c2.17598,-6.63706 3.00769,-14.77611 7.52832,-20.37001c4.36088,-5.39621 12.68585,-5.59547 17.72719,-1.1751c2.53787,2.22526 3.51518,6.30385 4.40716,9.42351c1.29992,4.55316 1.05771,8.92858 1.05771,13.66208c0,5.58701 -0.01108,11.21344 -0.7659,16.71782c-0.59174,4.31514 -2.5143,8.44359 -3.04846,12.71686c-1.44609,2.87812 -1.99719,6.24737 -2.80543,9.41395c0.52038,-0.2711 1.04336,-0.4909 1.56683,-0.64183c0.87678,-0.25279 1.83406,-0.39711 2.83086,-0.47289c0.02627,-0.60065 0.47019,-1.04458 0.47019,-1.04458l0.36066,-0.33934c1.70317,-2.20828 1.85091,-4.49749 2.9801,-7.00866c1.35638,-3.01642 2.36377,-5.90868 3.19314,-9.16808c0.01217,-0.13379 0.04434,-0.25901 0.08643,-0.37231c0.17763,-0.87373 0.48154,-1.69828 0.80012,-2.51444c0.17631,0.10519 0.35561,0.21142 0.53665,0.31796c1.01768,-3.39634 2.47925,-5.91712 4.25939,-9.02021c0.55322,-0.96435 -0.00251,-2.28073 0.42115,-3.3086c0.48443,-1.17531 1.10635,-2.23928 1.7221,-3.28955c0.09319,0.23955 0.20053,0.47346 0.32593,0.70014c0.17834,0.32238 1.08695,0.9463 2.25691,1.64709c-0.00409,0.00967 -0.00827,0.01931 -0.01255,0.02891c-0.31966,0.718 -1.12408,1.14525 -1.44633,1.86208c-0.51069,1.13599 -0.00084,2.58814 -0.57886,3.6914c-0.44514,0.84963 -1.39209,1.36956 -1.82265,2.22668c-0.24536,0.48842 0.10442,1.13603 -0.1175,1.63553c-1.03012,2.31854 -1.81308,3.29295 -2.44881,5.83587l-1.08625,1.32171c-0.5179,1.86748 -1.35581,3.51528 -1.93333,5.24916c-1.23442,3.70609 -2.13799,8.12418 -4.40862,11.49971c1.61206,0.04589 3.20479,0.14607 4.62257,0.14897c0.27704,0.00056 0.56025,0.0065 0.84731,0.01847c-0.00513,-0.04584 -0.00831,-0.09042 -0.00969,-0.13377c0.72445,0.23101 1.55213,0.40797 2.5128,0.53195c0.60264,0.07778 1.2979,0.11749 2.04444,0.11937c-0.10537,0.05888 -0.21071,0.11793 -0.31603,0.17717c2.91939,0.95549 4.91969,3.02219 2.95424,7.07232c-0.95045,1.95857 -3.44183,3.87285 -4.83667,5.61928c-0.89764,1.25712 -1.56524,2.72994 -2.72988,3.74469c-0.25838,0.22513 -0.86703,0.02258 -0.96652,0.35053c-0.07981,0.26309 0.56548,0.05015 0.8029,0.1888c1.38094,0.80644 2.80171,1.59273 3.99239,2.66027c2.93072,2.62761 6.16176,7.07727 5.53294,11.27465c-0.14734,0.98352 -0.02716,2.1863 -0.72608,2.89377c-0.76871,0.77812 -2.1261,0.55604 -3.12415,1.00358c-1.44799,0.6493 -2.74245,1.67996 -4.27307,2.09884c-1.10834,0.30331 -2.62486,-0.44508 -3.42648,0.37822c-1.28861,1.32348 -0.4465,5.91 -0.45242,7.64967c-0.29168,0.89296 -0.13758,2.09699 -0.87505,2.67887c-1.0734,0.84695 -6.37739,0.4071 -7.69237,0.33813c-5.73115,-0.30063 -11.15706,-1.66481 -16.92528,-1.66481h-1c0,0 -1.16844,-0.00001 -1.44282,-1.03126c-0.24245,0.1027 -0.49184,0.1989 -0.7495,0.28761c-1.43049,0.4658 -2.62459,1.50191 -4.03967,2.01262c-0.02004,0.00723 -0.04011,0.01443 -0.06023,0.02159c1.73999,-0.20804 5.18949,-0.75253 6.1229,0.14228c0.41442,0.39729 0.66945,0.93435 0.82565,1.53146c-0.7731,0.84167 -1.29857,1.91439 -1.46098,3.10272c-0.01878,0.13737 -0.0327,0.27628 -0.04159,0.41656c-0.07309,0.84486 -0.09036,1.77477 -0.08446,2.59363c-1.1772,-0.19807 -1.1772,-1.47431 -1.1772,-1.47431v-1c0.00532,-0.94352 0.6643,-2.10414 0.06141,-2.82994c-0.18657,-0.22459 -0.52195,0.29167 -0.81141,0.32994c-0.55089,0.07282 -1.11248,-0.03736 -1.66705,-0.0023c-1.41172,0.08927 -2.84809,-0.04895 -4.23832,0.21217c-1.16913,0.21959 -2.04148,1.2672 -3.17381,1.63177c-0.98721,0.31785 -2.20479,1.22921 -3.04789,0.62522c-0.31359,-0.22466 -0.43337,-0.56712 -0.46451,-0.96165c0.37536,-0.77484 0.59158,-1.82572 0.59158,-3.25521c0,-1.424 -0.25552,-2.49956 -0.69403,-3.30573c0.00344,-0.24046 0.01027,-0.48049 0.02101,-0.71992c-0.57611,-0.87265 -1.33616,-1.11296 -2.21342,-1.13676c-1.81241,-0.66313 -4.16684,-0.34714 -6.11355,-0.08758c-0.20714,0.02762 -0.41125,0.05559 -0.61236,0.08404c-0.64806,-0.00522 -1.26455,0.02474 -1.79302,0.12584c-0.49738,0.09515 -0.91111,0.23719 -1.27831,0.41185c-4.07995,0.90607 -6.59351,2.49903 -8.26397,6.56165c-0.25263,0.35718 -0.46555,0.74442 -0.63234,1.15533c-0.63416,-0.00151 -1.2685,-0.00502 -1.90283,-0.00992c-0.70628,0.673 -1.4118,1.34968 -1.95732,2.15214c-0.49015,0.72101 -0.18333,2.12948 -1.00755,2.41369c-1.50716,0.5197 -4.76271,-2.54292 -5.61297,-3.58396c-0.12904,-0.10432 -0.25432,-0.21245 -0.37611,-0.32411c-0.35339,-1.37377 -0.67518,-2.50476 -0.78198,-2.61156c-0.59608,-0.59608 -1.31817,-1.17086 -2.10231,-1.61901c-1.52899,-3.16195 -2.66544,-6.72954 -5.41147,-8.69702c-0.36908,-0.26443 -0.90682,-0.0493 -1.36067,-0.06186c-0.82006,-0.0227 -2.13329,-0.1852 -2.90319,0.36769c-0.39233,0.28175 -0.30824,1.19488 -0.26816,1.66795c-0.898,-0.6004 -1.85745,-1.07706 -2.84252,-1.42423c0.2351,-1.65107 1.12744,-2.98195 3.83944,-3.58445c0.76825,-0.17067 1.57659,-0.08657 2.36084,-0.02117c0.88873,0.07411 1.88929,-0.04433 2.63933,0.43813c3.99113,2.56729 4.88944,8.10268 7.51622,11.79823c2.50848,0.01723 5.02782,0.05531 7.54742,0.07512c1.28915,-1.18771 2.60466,-2.21047 4.10822,-3.30331c1.3604,-0.98879 2.53906,-2.20121 3.95464,-3.15555c-0.01426,0.00036 -0.02856,0.00068 -0.04288,0.00097c-0.94492,0.01931 -3.1863,0.08135 -3.89115,-0.54342c-2.13389,-1.89142 -1.60885,-4.52239 -1.60885,-6.95658c0,-1.27375 -0.05769,-2.77895 -0.07437,-4.3739c-3.75945,-0.23414 -7.46411,-1.44799 -10.95797,-2.7403zM203.31963,207.4594c-0.60326,-0.25572 -4.42244,-3.57294 -5.37214,-2.61972c-0.27979,0.28083 0.15344,0.82158 0.0052,1.18924c-1.05077,2.60612 -1.86936,3.08692 -1.86936,6.05441c-0.46282,2.84839 3.61689,1.94441 5.58843,2.56052c1.37957,0.43112 2.45748,1.56833 3.81893,2.05366c3.16988,1.13001 6.46653,2.27281 9.8483,2.50843c0.11394,-2.65911 0.49109,-5.3256 1.54331,-7.40827c-4.56839,-1.41447 -9.20422,-2.49076 -13.56268,-4.33827zM230.45421,160.38222l-0.80352,-0.41862c-4.15784,-1.44456 -7.82557,-5.28104 -11.22219,-8.00938c-2.58203,-2.07402 -5.37225,-3.44278 -8.15972,-5.18205c-3.65806,-2.8133 -7.20381,-5.86772 -10.90109,-8.58836c-0.83609,-0.61524 -1.92702,-0.84404 -2.72418,-1.50894c-1.5919,-1.32778 -2.70275,-3.39475 -4.42897,-4.69223c-4.84692,-3.6431 -10.1305,-6.38412 -14.98845,-9.98264c-0.27773,0.47299 -0.56246,0.93679 -0.86047,1.38375c-0.935,1.40233 -2.149,2.82062 -2.53807,4.53124c-0.65098,2.86218 -1.24429,5.67282 -1.99265,8.47021c-0.41323,1.54468 0.11741,3.88519 0.03859,5.47334c-0.12779,2.57477 -0.24846,5.09875 -0.24846,7.68203c0,3.40997 -0.62727,7.55716 0.20044,10.86761c0.75739,3.0292 2.33095,5.73958 3.85193,8.38819l0.19764,0.99421c0,0 0,0.23861 -0.09517,0.52549c0.60234,0.12351 1.19796,0.24188 1.78886,0.36815c0.93779,0.60697 1.94067,1.16719 2.95279,1.77446c1.32193,0.79316 3.04007,0.23554 4.61853,0.04746c0.16453,0.17766 0.33251,0.35231 0.50399,0.52379c0,0 0.55598,0.55597 0.46035,1.2654c4.91592,3.11127 9.46689,7.02786 14.04566,10.46193c0,0 0.02704,0.02029 0.06997,0.05882c0.35166,0.09073 0.5967,0.27452 0.5967,0.27452c2.65872,2.02758 4.58956,3.91031 6.63333,6.63333l0.27434,-0.1897c0,0 0.3039,0.1013 0.58401,0.35072c0.56855,-0.22582 1.1654,0.01292 1.1654,0.01292c2.31863,0.99625 3.19278,2.44545 5.38178,3.77317c0.51809,0.31425 1.03867,0.61995 1.56166,0.91789c1.64347,1.68217 3.8047,2.79784 6.21211,3.1743c1.24491,0.5752 2.50112,1.1259 3.76774,1.66192c1.3098,-0.85198 2.74261,-1.542 4.22851,-2.09344c0.01693,-3.16508 0.41871,-5.63762 1.03957,-8.63576c0.6837,-3.30161 -0.04013,-7.74619 -0.04013,-11.15537c0,-6.35065 0,-12.7013 0,-19.05195c-0.58895,0.18452 -1.17082,-0.10641 -1.17082,-0.10641zM264.20957,194.29406c1.34058,-3.9439 1.83497,-8.63035 3.7298,-12.43816c0.51609,-4.12873 2.38658,-8.11472 2.95154,-12.28314c0.72741,-5.36704 0.7341,-10.83457 0.7341,-16.28218c0,-4.45008 0.27726,-8.57257 -0.94229,-12.83792c-0.71813,-2.51534 -1.49469,-6.33036 -3.59284,-8.07649c-3.73275,-3.10648 -10.01566,-3.29981 -13.27281,0.8249c-4.1823,5.29627 -4.87808,12.93382 -6.9734,19.15072c-0.88909,11.12058 -0.21866,22.53097 -0.21866,33.6888c0,2.5523 0.1779,5.19983 0,7.75c-0.04003,0.57394 -0.41482,1.16863 -0.22403,1.71141c0.10128,0.28814 0.59656,0.1313 0.89485,0.19695c0,0 1.24587,0.62293 0.73616,1.8688c4.35989,-0.55497 9.45288,-1.33957 13.62939,-0.53233c0.6501,-0.5499 1.32336,-1.14696 2.01381,-1.74149c0.2229,-0.30957 0.41115,-0.63734 0.53437,-0.99984zM194.03552,129.5985c1.77588,1.3295 2.94147,3.45794 4.57103,4.80777c0.74084,0.61366 1.7691,0.79303 2.5432,1.36417c3.67288,2.70993 7.20228,5.73686 10.83154,8.53852c2.84232,1.77989 5.69647,3.19738 8.34028,5.31795c3.02014,2.42242 6.54711,6.31992 10.27781,7.49062l1.02566,0.49838c0,-4.52512 0,-9.05024 0,-13.57536c0,-2.13009 0.3697,-4.66809 0.01937,-6.75973c-0.36272,-2.16562 -1.76881,-3.65714 -2.81673,-5.48738c-1.93488,-3.37933 -4.41194,-7.01018 -5.77648,-10.5476c-2.06529,-2.85265 -4.11089,-5.20194 -6.69533,-7.60471c-0.52589,-0.48892 -1.85603,-2.09038 -2.78243,-2.45569c-5.04766,-1.99048 -10.82444,-2.14489 -16.19839,-2.14489c-3.75275,0 -7.80671,-0.83117 -10.77091,1.88639c-2.102,1.74832 -4.36268,3.2964 -6.03156,5.5169c-0.67993,0.90467 -1.2795,1.90349 -1.85881,2.92363c4.93879,3.71864 10.3598,6.51626 15.32178,10.23102zM269.99138,236.79244c1.18265,0.06291 5.71652,0.57543 5.43258,-0.31633c-0.012,-3.04591 -0.87845,-7.28215 1.54759,-9.68366c0.60585,-0.59973 3.81108,-0.75823 4.57352,-0.95511c1.35032,-0.34868 2.42251,-1.40779 3.72694,-1.90116c0.69641,-0.2634 1.59005,0.08381 2.20918,-0.32975c0.34055,-0.22748 -0.18049,-3.46157 -0.31667,-3.82904c-0.78859,-2.1279 -2.531,-4.5053 -4.20981,-6.00254c-1.512,-1.34847 -5.78391,-2.58791 -5.87138,-5.15093c-0.02072,-0.60703 3.93022,-5.38222 4.30361,-5.90479c1.14522,-1.42942 6.28528,-5.48996 4.8911,-7.6895c-0.76801,-1.21166 -4.62369,-0.90805 -5.6947,-0.90571c-3.21997,0.00702 -7.19534,-0.48486 -10.32204,0.29321c-1.44754,0.36021 -1.62989,1.04712 -2.66646,1.98109c-0.8224,0.741 -1.68946,1.39784 -2.57168,2.03293c1.22283,0.8116 2.33457,1.85268 3.2875,2.79878c2.90123,3.06678 3.10601,6.24065 3.10601,10.394c0,2.06339 0.33642,4.91517 -0.02707,6.95032c-1.21371,6.79555 -9.37508,11.5667 -14.68433,14.65899c-1.03201,0.60108 -1.94885,1.26469 -2.86826,1.90174c5.482,0.12991 10.68674,1.36665 16.15438,1.65748zM209.45594,244.27575c0.14443,-0.24683 0.33975,-0.509 0.54301,-0.75803c-0.52318,-0.00643 -1.04611,-0.01296 -1.56867,-0.01925c0.36121,0.23942 0.72192,0.47977 1.02566,0.77728zM239.71652,240.88332c0.09159,-0.05464 0.18329,-0.10749 0.27311,-0.15785c-0.08916,0.01495 -0.17828,0.0298 -0.26734,0.04456c-0.00161,0.03811 -0.00353,0.07588 -0.00577,0.11329z" fill="#000000" stroke="none" stroke-width="0.5" stroke-linecap="butt"/><path d="M252.8383,240.81775c0.12234,-0.1837 0.29822,-0.35404 0.55108,-0.46417c-0.19335,0.14324 -0.3774,0.29832 -0.55108,0.46417z" fill="#000000" stroke="none" stroke-width="0.5" stroke-linecap="butt"/><path d="M188.14161,261.54904c0.36652,-0.00129 0.77622,-0.24979 1.13365,-0.75019c0.87186,-1.2206 -0.34079,-1.99278 -0.34079,-1.99278c-1.30015,-0.90892 -2.23169,-2.26346 -3.27611,-3.45749c-3.98245,-4.55297 -7.69394,-9.15237 -11.1372,-14.16812c-0.08668,-0.12626 -0.11673,-0.39759 -0.23181,-0.66296c0.76647,0.237 1.51245,0.4624 2.25472,0.6843c-0.01951,-0.26844 -0.09917,-0.48345 -0.09917,-0.78965c-0.11214,-0.44819 -0.17444,-0.92027 -0.17444,-1.40322c0,-0.19396 0.0086,-0.38693 0.02736,-0.57595c-1.00927,-0.26136 -2.01845,-0.546 -3.01638,-0.84196c-0.40465,-1.87613 -0.49154,-3.84519 0.5528,-4.21657c1.21069,-0.43053 3.65079,0.11507 5.0245,-0.00069c0.03032,0.02574 -0.03218,0.08917 -0.00214,0.11517c0.69633,-0.67127 1.49559,-1.19689 2.3653,-1.57359c-0.4703,-0.48836 -0.9555,-0.95752 -1.46653,-1.35162c-1.57242,-0.0666 -5.56704,-0.75038 -6.97061,0.02599c-2.16513,1.19762 -2.81485,3.59528 -2.68116,5.9812c-3.65993,-1.25704 -7.19891,-2.8096 -10.50307,-4.72296c-0.6723,-0.01525 -1.24476,-0.03615 -1.91706,-0.05139c0.19274,1.15244 0.2738,2.58979 0.24257,4.18527c0.3916,-0.15705 0.7308,-0.48284 0.77156,-1.23427c0.03423,-0.00116 0.16718,-0.01824 0.20141,-0.0194c0.17096,0.10681 0.34413,0.21057 0.51954,0.31284c-1.35683,1.35122 -2.88579,2.79092 -4.52788,4.07431c-4.25839,0.37784 -8.12625,1.40387 -12.10027,4.05235c-4.44807,2.96442 -12.31151,11.09507 -18.33833,7.10848c-1.21009,-5.71807 0.0258,-10.35685 1.53217,-15.8009c0.29312,-1.05935 0.93703,-5.01676 -0.29179,-5.63809c-2.66319,-1.34659 -4.24255,1.60519 -5.68775,2.79047c-2.43564,1.99759 -6.14411,5.02547 -9.15215,6.0263c-1.60896,0.53533 -2.88767,0.076 -4.55274,0.26521c-0.44592,0.05067 -0.93214,0.53706 -1.37221,0.44904c-0.24465,-0.04893 0.40243,-0.35959 0.43931,-0.60635c0.1971,-1.31868 -0.00017,-2.6691 -0.00017,-4.00244c-0.02569,-4.94826 1.61695,-10.81883 3.98372,-15.17726c1.38349,-2.54773 3.75566,-4.40917 5.63642,-6.50452c2.64139,-2.94277 4.55482,-6.44806 7.50158,-9.13641c2.87546,-2.6233 5.92809,-4.52741 8.47018,-7.20876l0.14884,0.19855l1.32,-0.99052c0.37227,-0.27296 0.61455,-0.71435 0.61455,-1.21134c0,-0.82843 -0.58904,-1.44353 -1.41747,-1.44353l-1.66628,-0.00057c-3.02208,0 -6.04193,-0.00538 -9.06394,0.02124c-0.75015,-0.28637 -1.48449,-0.61805 -2.25033,-0.85932c-0.38887,-0.12251 -1.22929,0.12567 -1.28863,-0.2777c-0.0596,-0.40508 0.80496,-0.2802 1.08297,-0.58079c0.44519,-0.48137 0.65201,-1.14028 1.01387,-1.68707c1.56932,-2.37136 3.74354,-4.27428 5.33973,-6.67605c2.92934,-4.40778 6.86164,-5.997 11.19569,-8.55193c0.52865,-0.31164 0.80334,-1.03583 1.39311,-1.2054l-0.00002,0.00001c0.85504,-0.24583 2.0058,-0.2472 3.18046,-0.14505c-0.04945,0.02308 -0.03648,0.12411 -0.08599,0.14687c-0.03816,0.22647 -0.08365,0.45012 -0.13676,0.67115c-0.02394,0.41637 -0.01725,0.71357 0.27836,0.9959c0.3713,0.35463 0.79349,0.63852 1.24309,0.88455c3.24531,-1.54126 6.37151,-3.7327 9.80603,-4.6702c0.26209,-0.07154 0.52949,-0.13613 0.80073,-0.19379c0.84983,0.05354 1.75931,-0.00496 2.73815,-0.19032c0,0 0.25153,-0.05042 0.52552,-0.21316c2.98272,-0.15655 6.20829,0.1288 9.13918,0.26131c1.66527,0.52492 3.31757,1.17732 5.0844,1.71367c3.99302,1.21214 8.20517,1.47406 11.92675,3.506c5.87519,3.20779 11.17069,7.89021 16.48241,11.874c0,0 0.24574,0.18397 0.5974,0.2747c0.04292,0.03853 0.07005,0.05885 0.07005,0.05885c2.48154,1.82128 4.19586,3.5736 6.04185,6.03665l1.72773,0.85744c0,0 0.55395,0.18489 1.08538,-0.02097c0.247,0.22355 0.50014,0.32493 0.50014,0.32493c1.92499,0.68192 3.09726,2.405 4.94981,3.55929c3.55801,2.21692 7.29475,3.99665 11.10592,5.61879c0.03979,0.23022 0.14939,0.47944 0.3645,0.73758c0.79986,0.95983 1.73373,0.45513 2.02317,0.25932c0.96504,0.39526 1.93556,0.78733 2.90751,1.17652l0.89068,0.10775c0,0 1.41266,0.04869 1.41266,-1.45131c0,-1.5 -1.49899,-1.49829 -1.49899,-1.49829l0.22365,0.1071c-0.33118,-0.13234 -0.57692,-0.31786 -0.90684,-0.45081c5.03871,-2.46082 10.81719,-1.44083 16.56092,-2.04319c4.39948,-0.46139 9.32645,-1.46066 13.65825,-0.61808c0.00637,0.00877 0.01287,0.01757 0.01947,0.02637c0.63049,0.84066 1.40847,0.65134 1.81771,0.4622c1.56982,0.54092 3.03169,1.39946 4.32273,2.70139c2.40774,2.2032 2.22872,5.15267 2.22872,8.27759c0,1.92236 0.31521,4.46631 0.02776,6.38671c-0.14289,0.95464 -1.37379,2.51857 -1.77491,3.12002c-2.93469,4.40042 -7.06811,6.94946 -11.5402,9.56205c-2.21541,1.29424 -3.88597,3.06838 -6.35253,3.85609c-1.3985,0.47512 -2.57392,1.48045 -3.9605,1.98931c-1.58861,0.58301 -3.56034,0.92765 -5.4273,1.23678c-0.11727,-0.86068 -0.23719,-1.6675 -0.2557,-2.26627c-0.75073,-0.95577 -1.24929,-2.17849 -2.2524,-2.86469c-0.3024,-0.20686 -3.67319,-0.15354 -4.07093,-0.15354c-3.56205,0 -8.00863,-0.64704 -11.18655,1.16868c-1.745,0.99702 -3.08066,2.45311 -4.66029,3.60125c-1.50356,1.09284 -2.82128,2.12267 -4.11043,3.31038c-2.5196,-0.01981 -5.12923,-0.10038 -7.63771,-0.11761c-2.62678,-3.69555 -3.53081,-9.19978 -7.52194,-11.76707c-0.75004,-0.48246 -1.74973,-0.35945 -2.63846,-0.43356c-0.78426,-0.0654 -1.49645,-0.17668 -2.2647,-0.00601c-2.712,0.6025 -3.61137,1.9783 -3.84646,3.62938c0.98507,0.34716 1.86114,0.76879 2.75914,1.36919c-0.04009,-0.47306 -0.12972,-1.37287 0.26261,-1.65462c0.7699,-0.5529 2.08192,-0.384 2.90199,-0.3613c0.45385,0.01256 1.09094,-0.19114 1.46001,0.07329c2.74604,1.96748 3.8747,5.55687 5.40369,8.71882c0.78414,0.44816 1.50595,1.02336 2.10203,1.61944c0.1068,0.1068 0.42635,1.2409 0.77974,2.61468c0.12178,0.11166 0.24703,0.21982 0.37607,0.32414c0.85026,1.04103 4.02644,4.04284 5.5336,3.52313c0.82422,-0.28421 0.51496,-1.6891 1.00511,-2.41011c0.54552,-0.80247 1.24872,-1.47496 1.95499,-2.14796c0.63432,0.0049 1.26809,0.0096 1.90225,0.0111c0.16679,-0.41091 0.37888,-0.79626 0.63152,-1.15344c1.67046,-4.06262 4.18075,-5.6438 8.2607,-6.54987c0.3672,-0.17466 0.78083,-0.31596 1.27821,-0.4111c0.52847,-0.1011 1.1449,-0.13062 1.79296,-0.1254c0.20111,-0.02845 0.40518,-0.05623 0.61233,-0.08385c1.94671,-0.25956 4.4005,-0.56422 6.21291,0.09891c0.87726,0.0238 1.6372,0.265 2.21332,1.13765c-0.01074,0.23943 -0.01765,0.48018 -0.0211,0.72064c0.43851,0.80617 0.6935,1.88477 0.6935,3.30878c0,1.4295 -0.21697,2.48349 -0.59232,3.25833c0.03114,0.39453 0.05462,0.71006 0.36821,0.93472c0.8431,0.60399 2.06033,-0.30611 3.04754,-0.62395c1.13233,-0.36456 2.0042,-1.41017 3.17333,-1.62976c1.39023,-0.26112 2.82642,-0.12202 4.23815,-0.2113c0.55457,-0.03507 1.11611,0.07537 1.667,0.00254c0.28946,-0.03826 0.72311,-0.536 0.90967,-0.31141c0.60289,0.7258 -0.05652,1.88853 -0.06184,2.83205l-0.00018,1.00073c0,0 -0.08464,1.28854 1.12861,1.45721c0.00881,1.24563 0.07134,2.23557 0.07283,2.28086c0.05892,1.78026 0.77591,3.52566 1.86945,4.94529c-0.24244,2.74479 -0.72947,5.43043 -1.49767,7.85256c-0.52914,1.66838 -1.43421,3.2248 -1.80016,4.9364c-0.73263,3.42654 -1.28899,7.46593 -3.07685,10.53884c-2.28889,3.81781 -4.77853,8.13024 -8.54783,10.76908c-4.45625,3.11977 -9.45454,2.48093 -14.24338,1.06234c-4.25265,-1.25976 -8.29755,-2.18127 -11.83934,-5.04973c-3.27876,-1.88237 -6.15504,-4.18076 -9.27747,-6.26266c-1.16005,-0.77347 -1.7942,-0.67428 -2.80949,-1.59963c-2.88406,-2.62858 -5.65467,-6.62872 -7.75249,-9.94513c-0.97168,-1.5361 -2.85421,-3.31511 -3.94193,-5.17513z" data-paper-data="{&quot;noHover&quot;:false,&quot;origItem&quot;:[&quot;Path&quot;,{&quot;applyMatrix&quot;:true,&quot;segments&quot;:[[[384.15253,452.26826],[-1.94335,-3.07221],[4.19564,6.63282]],[[399.64485,472.16121],[-5.76813,-5.25717],[2.03058,1.8507]],[[405.25954,475.36179],[-2.3201,-1.54695],[6.24487,4.16382]],[[423.80385,487.89133],[-6.55753,-3.76475],[7.08359,5.73692]],[[447.47167,497.99668],[-8.5053,-2.51951],[9.57768,2.83718]],[[475.94533,495.88175],[-8.9125,6.23953],[7.53862,-5.27769]],[[493.02874,474.35647],[-4.57779,7.63563],[3.57572,-6.14581]],[[499.17453,453.29031],[-1.46525,6.85308],[0.73191,-3.42319]],[[502.77145,443.42382],[-1.05829,3.33676],[3.28882,-10.36957]],[[505.6175,409.10197],[1.14682,11.19028],[0,0]],[505.6175,410.3725],[[502.6175,413.3725],[3,0],[-3,0]],[499.6175,410.3725],[[499.6175,408.3725],[0,0],[0.01065,-1.88704]],[[499.74031,402.71263],[1.20578,1.45159],[-0.37313,-0.44919]],[[498.1175,403.3725],[0.57891,-0.07653],[-1.10178,0.14565]],[[494.7834,403.36791],[1.10915,-0.07014],[-2.82345,0.17855]],[[486.30675,403.79225],[2.78046,-0.52225],[-2.33825,0.43919]],[[479.95914,407.05579],[2.26466,-0.72913],[-1.97442,0.63569]],[[473.86336,408.30623],[1.68619,1.20798],[-0.62719,-0.44932]],[[472.93434,406.38293],[0.06228,0.78907],[0.75071,-1.54969]],[[474.1175,399.8725],[0,2.85899],[0,-2.84801]],[[472.72944,393.26104],[0.87702,1.61235],[0.00688,-0.48092]],[[472.77145,391.82119],[-0.02148,0.47886],[-1.15223,-1.7453]],[[468.34461,389.54767],[1.75452,0.0476],[-3.62482,-1.32625]],[[456.1175,389.3725],[3.89342,-0.51912],[-0.41429,0.05524]],[[454.89279,389.54058],[0.40221,-0.0569],[-1.29612,-0.01044]],[[451.30675,389.79225],[1.05694,-0.2022],[-0.99476,0.1903]],[[448.75014,390.61596],[0.7344,-0.34932],[-8.1599,1.81213]],[[432.2222,403.73925],[3.34091,-8.12524],[-0.50526,0.71435]],[[430.95752,406.04991],[0.33357,-0.82181],[-1.26832,-0.00301]],[[427.15187,406.03007],[1.26865,0.00979],[-1.41256,1.34601]],[[423.23722,410.33436],[1.09105,-1.60493],[-0.98031,1.44203]],[[421.22211,415.16174],[1.64844,-0.56842],[-3.01431,1.03941]],[[409.99618,407.99383],[1.70052,2.08206],[-0.25808,-0.20865]],[[409.24396,407.34562],[0.24357,0.22332],[-0.70677,-2.74754]],[[407.68,402.1225],[0.21359,0.21359],[-1.19216,-1.19216]],[[403.47538,398.88447],[1.56828,0.89631],[-3.05798,-6.32389]],[[392.65243,381.49044],[5.49207,3.93495],[-0.73815,-0.52887]],[[389.93108,381.36671],[0.9077,0.02513],[-1.64013,-0.0454]],[[384.12471,382.1021],[1.5398,-1.1058],[-0.78466,0.5635]],[[383.58839,385.43799],[-0.08017,-0.94612],[-1.796,-1.2008]],[[377.90335,382.58954],[1.97015,0.69433],[0.47019,-3.30215]],[[385.58222,375.42064],[-5.424,1.20499],[1.5365,-0.34135]],[[390.30391,375.3783],[-1.56851,-0.1308],[1.77746,0.14822]],[[395.58256,376.25457],[-1.50008,-0.96493],[7.98225,5.13458]],[[410.615,399.85103],[-5.25355,-7.39109],[5.01696,0.03446]],[[425.70984,400.00126],[-5.03919,-0.03962],[2.5783,-2.37543]],[[433.92628,393.39464],[-3.00712,2.18568],[3.15926,-2.29626]],[[443.24475,386.205],[-3.49,1.99404],[6.35583,-3.63145]],[[465.6175,383.8725],[-7.12409,0],[0.79548,0]],[[473.95914,384.18922],[-0.6048,-0.41373],[2.00622,1.37239]],[[478.46355,389.92382],[-1.50147,-1.91153],[0.03702,1.19755]],[[478.97445,394.46052],[-0.23453,-1.72136],[3.73392,-0.61827]],[[489.63063,391.96205],[-3.17721,1.16601],[2.77316,-1.01772]],[[497.55129,387.98727],[-2.797,0.95024],[4.93312,-1.57542]],[[510.25611,380.28137],[-4.43082,2.58848],[8.94418,-5.22518]],[[533.33715,361.16923],[-5.86938,8.80084],[0.80224,-1.2029]],[[536.88743,354.93267],[-0.28578,1.90928],[0.5749,-3.8408]],[[536.83331,342.16667],[0,3.84472],[0,-6.24984]],[[532.37865,325.62133],[4.81548,4.4064],[-2.58208,-2.60386]],[[523.73487,320.22313],[3.13964,1.08184],[-0.81848,0.37828]],[[520.09997,319.30001],[1.26098,1.68132],[-0.0132,-0.0176]],[[520.06105,319.24731],[0.01274,0.01754],[-8.6636,-1.68516]],[[492.74741,320.48979],[8.79896,-0.92278],[-11.48746,1.20472]],[[459.63085,324.58557],[10.07742,-4.92164],[0.65984,0.2659]],[[461.61415,325.38125],[-0.66236,-0.26468],[0,0]],[461.16665,325.16669],[[464.16665,328.16669],[0,-3],[0,3]],[461.16665,331.16669],[[459.38581,330.95211],[0,0],[-1.9439,-0.7784]],[[453.57345,328.60349],[1.93008,0.79052],[-0.57888,0.39162]],[[449.52865,328.08723],[1.59972,1.91966],[-0.43022,-0.51628]],[[448.80065,326.61353],[0.07958,0.46044],[-7.62234,-3.24428]],[[426.60683,315.39551],[7.11602,4.43384],[-3.7051,-2.30858]],[[416.71913,308.28545],[3.84998,1.36384],[0,0]],[[415.72007,307.63633],[0.494,0.4471],[-1.06286,0.41172]],[413.55127,307.67939],[[410.09995,305.96669],[0,0],[-3.69198,-4.9261]],[[398.03327,293.90001],[4.96308,3.64256],[0,0]],[[397.89335,293.78237],[0.08584,0.07706],[-0.70332,-0.18146]],[[396.69995,293.23335],[0,0],[-10.62342,-7.96758]],[[363.76997,269.48841],[11.75038,6.41558],[-7.44316,-4.06388]],[[339.93525,262.47293],[7.98604,2.42428],[-3.53366,-1.0727]],[[329.77301,259.04345],[3.33054,1.04984],[-5.86177,-0.26503]],[[311.50615,258.51581],[5.96543,-0.31311],[-0.54798,0.32547]],[[310.45584,258.94174],[0,0],[-1.95768,0.37072]],[[304.98273,259.32064],[1.69966,0.10708],[-0.54248,0.11532]],[[303.38225,259.70765],[0.52417,-0.14308],[-6.86904,1.875]],[[283.78273,269.03935],[6.49062,-3.08252],[-0.8992,-0.49206]],[[281.29699,267.26989],[0.7426,0.70926],[-0.59122,-0.56466]],[[280.61369,265.12325],[-0.04788,0.83274],[0.10622,-0.44206]],[[280.88777,263.78049],[-0.07632,0.45294],[0.09902,-0.04552]],[[281.18463,263.64297],[-0.0989,0.04616],[-2.34934,-0.2043]],[[274.82631,263.93091],[1.71008,-0.49166],[0,0]],[[274.82635,263.93089],[0,0],[-1.17956,0.33914]],[[272.04195,266.34009],[1.0573,-0.62328],[-8.6681,5.10986]],[[249.66283,283.43077],[5.85868,-8.81556],[-3.19236,4.80354]],[[238.98955,296.77397],[3.13864,-4.74272],[-0.72372,1.09358]],[[236.96309,300.14597],[0.89038,-0.96274],[-0.556,0.60118]],[[234.79781,301.30641],[-0.1192,-0.81016],[0.11868,0.80674]],[[237.20103,301.76325],[-0.77774,-0.24502],[1.53168,0.48254]],[[241.70193,303.48147],[-1.5003,-0.57274],[6.044,-0.05324]],[[259.83331,303.43333],[-6.04416,0],[0,0]],[[263.16665,303.43333],[0,0],[1.65686,0]],[[266.16665,306.43333],[0,-1.65686],[0,0.99398]],[[264.93871,308.85429],[0.74454,-0.54592],[0,0]],[262.29997,310.83333],[[262.00223,310.43635],[0,0],[-5.08418,5.3627]],[[245.06885,324.84037],[5.75092,-5.2466],[-5.89352,5.37672]],[[230.07059,343.09863],[5.28278,-5.88554],[-3.76152,4.1907]],[[218.79971,356.09803],[2.76698,-5.09546],[-4.73354,8.71686]],[[210.83329,386.43333],[-0.05138,-9.89652],[0,2.66668]],[[210.83329,394.43333],[0.3942,-2.63736],[-0.07376,0.49352]],[[209.95461,395.64535],[-0.4893,-0.09786],[0.88014,0.17604]],[[212.49997,394.76667],[-0.89184,0.10134],[3.33014,-0.37842]],[[221.60547,394.23647],[-3.21792,1.07066],[6.01608,-2.00166]],[[239.90933,382.17623],[-4.87128,3.99518],[2.8904,-2.37056]],[[251.48479,376.59549],[-5.32638,-2.69318],[2.45764,1.24266]],[[252.06815,387.86243],[0.58624,-2.1187],[-3.01274,10.8881]],[[248.99923,419.44057],[-2.42018,-11.43614],[12.05364,7.97318]],[[285.48477,405.28247],[-8.89614,5.92884],[7.94804,-5.29696]],[[309.68491,397.17639],[-8.51678,0.75568],[3.28418,-2.56678]],[[318.73851,389.01823],[-2.71366,2.70244],[-0.35082,-0.20454]],[[317.69919,388.39115],[0.34192,0.21362],[-0.06846,0.00232]],[[317.49381,388.39813],[0.06846,-0.00232],[-0.08152,1.50286]],[[315.75389,390.90213],[0.7832,-0.3141],[0.06246,-3.19096]],[[315.26697,382.51739],[0.38548,2.30488],[1.3446,0.03048]],[[319.30077,382.60887],[-1.3446,-0.0305],[6.60831,3.82673]],[[340.30054,392.02513],[-7.31986,-2.51408],[-0.26738,-4.77185]],[[345.46945,380.10087],[-4.33027,2.39525],[2.80714,-1.55275]],[[359.61052,380.04162],[-3.14484,-0.13319],[1.02206,0.78821]],[[362.53936,382.72045],[-0.94061,-0.97671],[-1.73941,0.7534]],[[357.80554,385.85861],[1.39266,-1.34254],[-0.06009,-0.052]],[[357.62447,385.70339],[0.06063,0.05148],[-2.74741,0.23151]],[[347.76555,385.64414],[2.42137,-0.86107],[-2.08867,0.74276]],[[346.65054,394.05295],[-0.80931,-3.75226],[1.99586,0.59193]],[[352.67422,395.72308],[-2.01854,-0.52271],[-0.03752,0.37805]],[[352.6175,396.8725],[0,-0.38793],[0,0.9659]],[[352.96086,399.67288],[-0.22428,-0.89639],[0,0.61239]],[[353.01997,401.3957],[-0.03901,-0.53688],[-1.48453,-0.44381]],[[348.50153,400.01754],[1.53294,0.474],[0.23015,0.53073]],[[349.11675,401.21306],[-0.17335,-0.25252],[6.88651,10.03149]],[[371.32097,429.51611],[-7.96491,-9.10594],[2.08883,2.38807]],[[377.86121,436.4313],[-2.6003,-1.81783],[0,0]],[[378.5587,440.61622],[1.74371,-2.4412],[-0.71486,1.00081]],[[376.27869,441.91705],[0.73305,-0.00258],[2.17544,3.72003]]],&quot;closed&quot;:true}]}" fill="#ffffff" stroke="none" stroke-width="0.5" stroke-linecap="butt"/><path d="M280.61582,170.93013c-0.18104,-0.10654 -0.36041,-0.21271 -0.53672,-0.31789c-0.31857,0.81616 -0.62343,1.64165 -0.80106,2.51538c-0.0421,0.11329 -0.07439,0.23864 -0.08657,0.37243c-0.82938,3.2594 -1.84026,6.1547 -3.19664,9.17112c-1.12918,2.51117 -1.2797,4.80241 -2.98287,7.01069l-0.36086,0.33948c0,0 -0.44434,0.4442 -0.47061,1.04486c-0.9968,0.07578 -1.95522,0.22083 -2.832,0.47362c-0.52347,0.15093 -1.0986,0.28541 -1.61898,0.55651c0.80824,-3.16658 1.35597,-6.53363 2.80206,-9.41174c0.53416,-4.27327 2.45204,-8.39792 3.04378,-12.71306c0.75482,-5.50438 0.76024,-11.12469 0.76024,-16.7117c0,-4.7335 0.23777,-9.10217 -1.06215,-13.65533c-0.89198,-3.11966 -1.87171,-7.19318 -4.40958,-9.41844c-5.04134,-4.42037 -13.2784,-4.17448 -17.63928,1.22173c-4.52063,5.5939 -5.36818,13.74809 -7.54416,20.38515c-0.97519,11.31098 -0.28979,22.94056 -0.28979,34.29514c0,2.56928 -0.12147,5.1821 -0.00131,7.75041c0.05135,1.09754 -0.30127,2.21278 0.19579,3.19266c0.19842,0.39117 0.61061,0.70785 1.03217,0.89405c-2.72654,0.06766 -5.53949,-0.46198 -8.22418,-0.05859c-0.98609,0.14816 -1.99072,0.34293 -2.99088,0.59025c0.08536,-2.52491 0.43565,-4.61323 0.923,-7.12071c0.70345,-3.61929 0.03854,-8.13437 0.03854,-11.84429c0,-6.91667 -0.00433,-13.83213 -0.00433,-20.7488c0,-4.91667 -0.00561,-9.8311 -0.00561,-14.74777c0,-2.30513 0.35318,-4.96905 -0.02362,-7.23803c-1.02946,-6.19906 -6.83798,-11.25564 -8.90998,-16.96296c-2.79065,-3.94959 -6.45926,-9.43252 -11.0418,-11.41192c-5.26044,-2.27222 -11.55745,-2.33386 -17.20404,-2.33386c-4.66026,0 -8.94586,-0.68845 -12.72847,2.60681c-2.26242,1.88936 -4.67162,3.57484 -6.46884,5.97553c-1.61214,2.15347 -2.79443,4.80297 -4.29444,7.05326c-1.13595,1.70414 -2.46446,3.40537 -2.9633,5.46455c-1.80575,7.45407 -2.30538,14.54915 -2.30538,22.36055c0,3.70311 -0.60488,8.02702 0.29519,11.62762l-0.00005,-0.00001c0.74864,2.99484 2.24488,5.75661 3.74678,8.4088c-1.35004,-0.38421 -2.72164,-0.7782 -4.0215,-1.24847c-0.22106,-1.13508 -1.46758,-1.13586 -1.46758,-1.13586c-5.05371,0 -11.17137,-0.88263 -16.11621,0.31368c-0.17172,-0.05352 -0.33822,-0.12713 -0.49707,-0.22448c-2.25292,-1.38059 -5.88759,-5.36924 -7.01712,-7.81473c-0.21401,-0.46334 -0.97647,-3.56558 -1.28472,-4.37907c-1.74323,-4.60046 -4.41974,-9.18525 -4.92617,-14.18465c-0.20772,-2.05058 0.33013,-3.42611 -0.00873,-5.55654c-0.29839,-1.87597 -0.95208,-3.72184 -0.9553,-5.62139c-0.04441,-4.17841 -1.36829,-7.88448 -1.86384,-11.987c-1.10724,-9.1665 -0.16251,-18.95171 -0.16251,-28.17806c0,-5.77283 -0.89265,-12.41817 0.80192,-17.95164c0.90998,-3.03412 1.47482,-6.61233 2.53722,-9.51843c0.33647,-0.92038 1.19771,-1.58276 1.56176,-2.49259c0.50923,-1.27265 -0.02962,-2.82827 0.52955,-4.07978c2.54635,-5.69919 6.89149,-10.66874 11.26526,-15.04249c1.21953,-1.21952 2.17043,-2.77643 3.63735,-3.68342c1.65677,-1.02437 3.72908,-1.19323 5.46516,-2.07655c2.42681,-1.23477 4.55653,-2.92767 7.01157,-4.15462c7.6212,-2.92259 15.5966,-7.2435 23.85895,-8.04275c3.9415,-0.38128 8.36874,0.84953 12.21596,-0.0356c1.01074,-0.23254 1.80704,-1.05441 2.79432,-1.37213c3.13557,-1.00906 7.01247,-0.58577 10.26212,-0.59225c0.76887,0.07186 1.62022,-0.13572 2.30791,0.21557c1.01637,0.51919 1.54071,3.69072 1.71089,4.17334c0.96057,2.72416 2.30312,5.39113 3.5923,7.96908c3.06549,6.13 4.68022,12.80723 7.53004,18.96915c1.6766,3.62518 2.55462,7.11144 3.5203,10.99928c0.37455,1.50797 1.28822,2.87936 1.48494,4.42064c0.23164,1.81488 0.19944,3.66264 0.49727,5.46784c0.79142,4.70103 0.49622,9.53807 0.49622,14.30074l-0.06472,0.07902c-1.26665,-0.01 -2.46132,0.00372 -3.49611,0.00021c0,0 -1.44369,-0.08264 -1.44369,1.41736c0,1.5 1.50339,1.50248 1.50339,1.50248c1.45998,-0.00576 2.90798,0.32004 4.35718,0.49728c2.47201,0.30234 5.17983,-0.5327 7.57901,0.39963c0.60483,0.23504 1.01577,0.87756 1.64077,1.05204c2.41227,0.67341 5.42715,0.15463 7.93732,0.51263c-0.00004,0.01888 -0.00003,0.03781 -0.00003,0.05671c0,0 0.00094,1.50221 1.50094,1.50221c0.74075,0 1.11561,-0.36602 1.30539,-0.73634c0.80183,0.29782 1.60579,0.58978 2.44604,0.71693c1.81246,0.27426 3.57314,0.29966 5.42965,0.28238c-0.09151,-0.78585 -0.15712,-1.74175 -0.13581,-2.70275c-1.61074,-0.11306 -3.2343,-0.25509 -4.88853,-0.50111c-0.9091,-0.1352 -1.77402,-0.46075 -2.64121,-0.7832c1.39875,-14.63547 16.2075,-23.18326 26.71613,-31.96951c1.38696,-0.68763 3.03575,-1.76844 4.6049,-2.60471c-0.03294,-0.07045 -0.1438,-0.08129 -0.17286,-0.15298c-0.0428,-0.10557 -0.08927,-0.23124 -0.13862,-0.37505c0.86897,-0.73038 1.17926,-1.04087 2.65175,-1.1964c0.71947,-0.076 4.22278,-0.43578 4.79846,0.11308c0.32573,0.31055 0.04804,0.95768 0.32749,1.31044c0.36196,0.45693 1.12958,0.47851 1.46641,0.95428c0.73942,1.04443 0.35679,2.5658 0.85537,3.74436c0.43806,1.0355 1.2406,1.9628 1.3839,3.07797c0.16856,1.31173 -0.35,2.28023 0.02971,3.66287c0.82486,3.00359 1.4624,3.1287 1.46131,6.15841c-0.0006,1.66667 0.00096,3.33571 0.00096,5.00238c0,6.83333 0.00275,13.67773 0.00275,20.51107c0,0.74162 0.04888,1.56603 0.11075,2.43032c-0.51569,-0.0577 -1.04737,-0.07556 -1.59435,-0.04995c-0.43583,0.0204 -0.84569,0.09723 -1.23326,0.22247c-0.76115,0.13773 -1.49233,0.36162 -2.18306,0.66119c-2.40852,-5.34811 -6.57229,-7.45987 -15.07166,-5.14185c-1.30676,0.35639 -0.72237,1.44012 -1.05329,2.10657c-1.14481,2.30563 -2.77634,4.42382 -3.45366,6.90732c-0.21055,0.77203 0.81809,2.18108 1.05394,3.07947c0.1029,0.39196 0.18377,0.76378 0.25057,1.11926c-0.00038,0.03592 -0.00057,0.07187 -0.00057,0.10788c0,1.14108 0.19112,2.23751 0.54309,3.25905c0.32,1.34684 0.95832,2.63334 2.73707,4.25136c2.18361,1.9863 4.56343,2.69048 6.8195,2.48911c1.41357,-0.0138 2.75695,-0.3209 3.97222,-0.86335c0.42282,4.57206 -0.22397,9.27266 -0.32189,13.88278c-0.11591,5.4574 -7.79719,12.27342 -6.5,17.98105c0.30737,1.35246 0.39115,2.80024 0.8496,4.09893c-0.65933,1.12593 -1.33767,2.25933 -1.85728,3.52002c-0.42366,1.02788 0.13103,2.34562 -0.42219,3.30997c-1.78013,3.10309 -3.24538,5.62804 -4.26306,9.02438z" data-paper-data="{&quot;noHover&quot;:false,&quot;origItem&quot;:[&quot;Path&quot;,{&quot;applyMatrix&quot;:true,&quot;segments&quot;:[[[570.17915,242.66853],[-3.56027,6.20619],[1.10643,-1.92871]],[[571.02145,236.05132],[-0.84732,2.05576],[2.51237,-6.09548]],[[579.09586,218.85195],[-1.20068,6.50596],[2.94609,-4.43504]],[[583.14196,206.74643],[-2.20538,5.11949],[0.66448,-1.54251]],[[586.15868,202.71068],[-0.75094,1.50232],[2.48442,-4.97025]],[[593.21243,187.60335],[-2.58848,5.01223],[1.36919,-2.65125]],[[595.09586,178.85195],[-1.15924,2.74954],[0.59458,-1.41026]],[[598.2569,175.5219],[-0.76212,1.32723],[1.27758,-2.2249]],[[600.94775,168.31074],[-0.74701,2.45446],[1.42534,-4.68327]],[[600.91711,150.84345],[0.26569,5.47351],[-0.40266,-0.347]],[[599.66814,149.85071],[0.42966,0.3145],[2.04173,-4.43346]],[[604.94775,136.31074],[-1.21591,4.66554],[1.49554,-5.73851]],[[604.8675,116],[0,5.95674],[0,-13.66667]],[[604.8675,75],[0,13.66667],[0,-3.33333]],[[604.8675,65],[-0.0012,3.33333],[0.00218,-6.05942]],[[601.94775,52.68926],[1.64972,6.00717],[-0.75942,-2.76529]],[[601.88997,45.36655],[0.33712,2.62347],[-0.2866,-2.23034]],[[599.12395,39.21366],[0.87611,2.07099],[-0.99715,-2.35711]],[[597.41525,31.72815],[1.47883,2.08886],[-0.67365,-0.95154]],[[594.48338,29.82098],[0.72393,0.91387],[-0.5589,-0.70554]],[[593.82915,27.20117],[0.65146,0.6211],[-1.15135,-1.09771]],[[584.23405,26.97752],[1.43894,-0.15199],[-2.94496,0.31106]],[[579.08999,29.24955],[1.73793,-1.46077],[0.0987,0.28762]],[[579.3675,30],[-0.0856,-0.21115],[0.05812,0.14338]],[[579.55355,30.4264],[-0.06587,-0.1409],[-3.1383,1.67253]],[[570.50307,35.51493],[2.77391,-1.37526],[-21.01725,17.5725]],[[517.08165,99.47164],[2.79749,-29.27094],[1.73437,0.6449]],[[522.36571,101.04166],[-1.8182,-0.2704],[3.30847,0.49204]],[[532.14454,102.04824],[-3.22148,-0.22613],[-0.04261,1.92201]],[[532.41783,107.45861],[-0.18302,-1.5717],[-3.71302,0.03455]],[[521.36928,106.95834],[3.62492,0.54853],[-1.68051,-0.2543]],[[516.47845,105.52775],[1.60367,0.59564],[-0.37957,0.74064]],[[513.8675,107],[1.4815,0],[-3,0]],[[510.8675,104],[0,0],[0,-0.03779]],[[510.86761,103.88669],[-0.00008,0.03775],[-5.02035,-0.716]],[[494.99814,102.87128],[4.82455,1.34682],[-1.25,-0.34895]],[[491.71945,100.77164],[1.20966,0.47008],[-4.79837,-1.86467]],[[476.57188,99.9854],[4.94403,0.60468],[-2.8984,-0.35449]],[[467.8675,99],[2.91997,-0.01151],[0,0]],[[464.8675,96],[0,3],[0,-3]],[[467.8675,93],[0,0],[2.06958,0.00703]],[[474.8675,93.00557],[-2.53329,-0.01999],[0,0]],[[474.8675,93],[0,0],[0,-9.52532]],[[473.89471,64.41156],[1.58283,9.40206],[-0.59566,-3.6104]],[[472.90591,53.47855],[0.46329,3.62976],[-0.39345,-3.08257]],[[469.94187,44.63956],[0.74911,3.01594],[-1.93136,-7.77568]],[[462.91268,22.64429],[3.35321,7.25035],[-5.69964,-12.32383]],[[447.8675,-15.2918],[6.13098,12.25999],[-2.57837,-5.1559]],[[440.68779,-31.22974],[1.92113,5.44833],[-0.34035,-0.96524]],[[437.26805,-39.57639],[2.03274,1.03838],[-1.37539,-0.70258]],[[432.65483,-40.00755],[1.53774,0.14372],[-6.4993,0.01295]],[[412.14208,-38.824],[6.27114,-2.01813],[-1.97456,0.63544]],[[406.55675,-36.08025],[2.02148,-0.46508],[-7.69445,1.77025]],[[382.13769,-36.01219],[7.883,-0.76256],[-16.5247,1.5985]],[[334.44422,-19.9382],[15.24239,-5.84518],[-4.91008,2.45389]],[[320.42809,-11.63395],[4.85361,-2.46955],[-3.47215,1.76665]],[[309.50224,-7.48452],[3.31354,-2.04874],[-2.93384,1.81397]],[[302.23146,-0.12132],[2.43905,-2.43904],[-8.74753,8.74749]],[[279.71355,29.94868],[5.0927,-11.39839],[-1.11833,2.50302]],[[278.65659,38.10496],[1.01846,-2.54529],[-0.72811,1.81965]],[[275.53471,43.08745],[0.67294,-1.84077],[-2.12479,5.81219]],[[270.46506,62.11509],[1.81995,-6.06824],[-3.38913,11.06693]],[[268.8675,98],[0,-11.54566],[0,18.45271]],[[269.19474,154.32327],[-2.21447,-18.333],[0.9911,8.20503]],[[272.91999,178.28309],[-0.08881,-8.35682],[0.00643,3.79911]],[[274.82876,189.51945],[-0.59678,-3.75195],[0.67773,4.26086]],[[274.84419,200.62679],[-0.41544,-4.10116],[1.01286,9.99881]],[[284.68908,228.98084],[-3.48647,-9.20092],[0.6165,1.62697]],[[287.25588,237.73484],[-0.42802,-0.92668],[2.25906,4.89099]],[[301.28307,253.35498],[-4.50583,-2.76118],[0.31771,0.19469]],[[302.27685,253.80351],[-0.34343,-0.10703],[9.88969,-2.39262]],[[334.49989,253.16665],[-10.10742,0],[0,0]],[[337.43323,255.43679],[-0.44212,-2.27016],[2.59972,0.94054]],[[345.35115,258.08969],[-2.70008,-0.76842],[-3.0038,-5.30438]],[[337.84901,241.26477],[1.49728,5.98968],[0,0]],[[337.84911,241.26479],[0,0],[-1.80014,-7.2012]],[[337.24999,218.00001],[0,7.40622],[0,-15.6228]],[[341.84495,173.25117],[-3.6115,14.90814],[0.99768,-4.11836]],[[347.76881,162.31365],[-2.2719,3.40828],[3.00002,-4.50058]],[[356.35493,148.19341],[-3.22428,4.30694],[3.59444,-4.80138]],[[369.29181,136.22721],[-4.52484,3.77872],[7.56522,-6.59052]],[[394.74999,130.99999],[-9.32052,0],[11.29318,0]],[[429.35321,135.71021],[-10.52088,-4.54444],[9.16508,3.9588]],[[451.39769,158.58941],[-5.5813,-7.89918],[4.144,11.41464]],[[469.21127,192.51945],[-2.05892,-12.39812],[0.7536,4.53796]],[[469.25001,206.99999],[0,-4.61026],[0,9.83334]],[[469.25001,236.49999],[0,-9.83334],[0,13.83334]],[[469.25001,277.99999],[0,-13.83334],[0,7.41984]],[[469.16975,301.68925],[1.4069,-7.23858],[-0.9747,5.01496]],[[467.28755,315.73399],[0.17072,-5.04982],[2.00032,-0.49464]],[[473.26601,314.55413],[-1.97218,0.29632],[5.36938,-0.80678]],[[489.70591,314.67345],[-5.45308,0.13532],[-0.84312,-0.3724]],[[487.69805,313.07719],[0.39684,0.78234],[-0.99412,-1.95976]],[[487.24999,306.50001],[0.1027,2.19508],[-0.24032,-5.13662]],[[487.24999,291.00001],[0,5.13856],[0,-22.70916]],[[487.80923,222.41905],[-1.95038,22.62196],[4.35196,-13.27412]],[[502.86587,181.67903],[-9.04126,11.1878],[8.72176,-10.79242]],[[538.32025,179.32883],[-10.08268,-8.84074],[5.07574,4.45052]],[[547.13457,198.17585],[-1.78396,-6.23932],[2.59984,9.10632]],[[549.24999,225.50001],[0,-9.467],[0,11.17402]],[[547.71819,258.93565],[1.50964,-11.00876],[-1.18348,8.63028]],[[541.62127,284.36937],[1.06832,-8.54654],[-2.89218,5.75624]],[[536.01041,303.19727],[1.61648,-6.33316],[1.04076,-0.5422]],[[539.14407,301.91361],[-1.04694,0.30186],[1.75357,-0.50558]],[[544.80579,300.96783],[-1.99359,0.15156],[0.05254,-1.20131]],[545.74618,298.87868],[[546.4675,298.2],[0,0],[3.40634,-4.41657]],[[552.42769,284.18269],[-2.25836,5.02233],[2.71275,-6.03284]],[[558.81397,265.84652],[-1.65875,6.5188],[0.02434,-0.26758]],[[558.98684,265.10191],[-0.08419,0.22659],[0.35526,-1.74745]],[[560.58707,260.07303],[-0.63714,1.63232],[0.35261,0.21037]],[[561.66038,260.70895],[-0.36209,-0.21307],[2.03537,-6.79268]]],&quot;closed&quot;:true}]}" fill="#ffd200" stroke="none" stroke-width="0.5" stroke-linecap="butt"/><path d="M193.98803,129.58296c-4.96198,-3.71476 -10.37976,-6.52004 -15.31855,-10.23868c0.57931,-1.02014 1.18186,-2.02393 1.86179,-2.9286c1.66888,-2.2205 3.93883,-3.7788 6.04083,-5.52712c2.9642,-2.71756 7.03474,-1.89556 10.78749,-1.89556c5.37395,0 11.18382,0.15517 16.23148,2.14565c0.9264,0.36531 2.26353,1.97004 2.78942,2.45896c2.58444,2.40277 4.64685,4.7676 6.71214,7.62024c1.36454,3.53742 3.85007,7.19313 5.78495,10.57246c1.04792,1.83024 2.45354,3.3324 2.81626,5.49802c0.35033,2.09164 -0.02252,4.64103 -0.02252,6.77112c0,4.52512 -0.00955,9.06525 -0.00955,13.59037l-1.02598,-0.49804c-3.7307,-1.1707 -7.26021,-5.06568 -10.28035,-7.4881c-2.64381,-2.12057 -5.50582,-3.53214 -8.34814,-5.31203c-3.62926,-2.80166 -7.22737,-5.84526 -10.90025,-8.55519c-0.7741,-0.57114 -1.80895,-0.7681 -2.54979,-1.38175c-1.62956,-1.34983 -2.79339,-3.50225 -4.56927,-4.83175z" data-paper-data="{&quot;noHover&quot;:false,&quot;origItem&quot;:[&quot;Path&quot;,{&quot;applyMatrix&quot;:true,&quot;segments&quot;:[[[388.07097,178.11589],[0,0],[3.55176,2.659]],[[397.21303,187.73143],[-3.25912,-2.69966],[1.48168,1.22732]],[[402.29943,190.45977],[-1.5482,-1.14228],[7.34576,5.41986]],[[423.96251,207.53681],[-7.25852,-5.60332],[5.68464,3.55978]],[[440.64307,218.17271],[-5.28762,-4.24114],[6.04028,4.84484]],[[461.19869,233.15395],[-7.4614,-2.3414],[0,0]],[[463.25001,234.15071],[0,0],[0,-9.05024]],[[463.25001,206.99999],[0,9.05024],[0,-4.26018]],[[463.28875,193.48053],[0.70066,4.18328],[-0.72544,-4.33124]],[[457.65529,182.50577],[2.09584,3.66048],[-3.86976,-6.75866]],[[446.10233,161.41057],[2.72908,7.07484],[-4.13058,-5.7053]],[[432.71167,146.20115],[5.16888,4.80554],[-1.05178,-0.97784]],[[427.14681,141.28977],[1.8528,0.73062],[-10.09532,-3.98096]],[[394.75003,136.99999],[10.7479,0],[-7.5055,0]],[[373.20821,140.77277],[5.9284,-5.43512],[-4.204,3.49664]],[[361.14509,151.80657],[3.33776,-4.441],[-1.35986,1.80934]],[[357.42747,157.65383],[1.15862,-2.04028],[9.87758,7.43728]],[[388.07103,178.11587],[-9.92396,-7.42952],[0,0]]],&quot;closed&quot;:true,&quot;fillColor&quot;:[0,0,0,1]}]}" fill="#ffd200" stroke="none" stroke-width="0.5" stroke-linecap="butt"/><path d="M231.67499,160.48657c0,6.35065 -0.007,12.72892 -0.007,19.07957c0,3.40918 0.71682,7.86293 0.03312,11.16454c-0.62086,2.99814 -1.0281,5.47555 -1.04503,8.64063c-1.4859,0.55144 -2.92278,1.24428 -4.23258,2.09626c-1.26662,-0.53602 -2.52513,-1.08537 -3.77005,-1.66057c-2.40741,-0.37645 -4.57329,-1.48987 -6.21676,-3.17204c-0.52299,-0.29794 -1.04494,-0.60308 -1.56304,-0.91733c-2.189,-1.32772 -3.06874,-2.77512 -5.38737,-3.77137c0,0 -0.59863,-0.23832 -1.16717,-0.0125c-0.28011,-0.24942 -0.58481,-0.35055 -0.58481,-0.35055l-0.27483,0.18979c-2.04378,-2.72302 -3.9859,-4.60489 -6.64462,-6.63247c0,0 -0.24634,-0.18385 -0.598,-0.27458c-0.04292,-0.03853 -0.07013,-0.05883 -0.07013,-0.05883c-4.57877,-3.43407 -9.16532,-7.36912 -14.08124,-10.48039c0.09563,-0.70943 -0.4623,-1.26799 -0.4623,-1.26799c-0.17148,-0.17148 -0.34048,-0.34764 -0.50501,-0.5253c-1.57846,0.18808 -3.2993,0.74102 -4.62124,-0.05214c-1.01211,-0.60727 -2.01728,-1.1727 -2.95507,-1.77966c-0.5909,-0.12626 -1.1871,-0.24631 -1.78944,-0.36982c0.09517,-0.28688 0.0949,-0.52631 0.0949,-0.52631l-0.19816,-0.996c-1.52098,-2.64861 -3.09624,-5.37431 -3.85364,-8.40351c-0.82771,-3.31044 -0.19683,-7.47423 -0.19683,-10.88419c0,-2.58327 0.12539,-5.1162 0.25319,-7.69098c0.07883,-1.58815 -0.44833,-3.93329 -0.03509,-5.47798c0.74835,-2.79739 1.34799,-5.61427 1.99897,-8.47644c0.38907,-1.71062 1.60731,-3.13205 2.54231,-4.53438c0.29802,-0.44697 0.58408,-0.91162 0.86181,-1.38461c4.85795,3.59852 10.15258,6.33448 14.9995,9.97757c1.72622,1.29748 2.84237,3.36307 4.43428,4.69086c0.79716,0.6649 1.89306,0.89296 2.72915,1.5082c3.69728,2.72064 7.27284,5.78148 10.9309,8.59478c2.78747,1.73927 5.59597,3.12621 8.178,5.20023c3.39662,2.72834 7.07105,6.58687 11.22889,8.03143l0.80357,0.41943c0,0 0.58188,0.2912 1.17083,0.10668z" data-paper-data="{&quot;noHover&quot;:false,&quot;origItem&quot;:[&quot;Path&quot;,{&quot;applyMatrix&quot;:true,&quot;segments&quot;:[[230.45418,119.84164],[[229.65066,119.42302],[0,0],[-4.15784,-1.44456]],[[218.42846,111.41365],[3.39662,2.72834],[-2.58203,-2.07402]],[[210.26874,106.23159],[2.78747,1.73927],[-3.65806,-2.8133]],[[199.36766,97.64323],[3.69728,2.72064],[-0.83609,-0.61524]],[[196.64348,96.13429],[0.79716,0.6649],[-1.5919,-1.32778]],[[192.21451,91.44206],[1.72622,1.29748],[-4.84692,-3.6431]],[[177.22606,81.45942],[4.85795,3.59852],[-0.27773,0.47299]],[[176.36559,82.84318],[0.29802,-0.44697],[-0.935,1.40233]],[[173.82752,87.37442],[0.38907,-1.71062],[-0.65098,2.86218]],[[171.83487,95.84463],[0.74835,-2.79739],[-0.41323,1.54468]],[[171.87346,101.31797],[0.07883,-1.58815],[-0.12779,2.57477]],[[171.625,109],[0,-2.58327],[0,3.40997]],[[171.82544,119.86761],[-0.82771,-3.31044],[0.75739,3.0292]],[[175.67736,128.25579],[-1.52098,-2.64861],[0,0]],[175.875,129.25],[[175.77983,129.77549],[0.09517,-0.28688],[0.60234,0.12351]],[[177.56869,130.14363],[-0.5909,-0.12626],[0.93779,0.60697]],[[180.52148,131.91809],[-1.01211,-0.60727],[1.32193,0.79316]],[[185.14001,131.96555],[-1.57846,0.18808],[0.16453,0.17766]],[[185.644,132.48934],[-0.17148,-0.17148],[0,0]],[[186.10434,133.75474],[0.09563,-0.70943],[4.91592,3.11127]],[[200.15,144.21667],[-4.57877,-3.43407],[0,0]],[[200.21997,144.27549],[-0.04292,-0.03853],[0.35166,0.09073]],[[200.81667,144.55],[0,0],[2.65872,2.02758]],[[207.45,151.18334],[-2.04378,-2.72302],[0,0]],[207.72434,150.99364],[[208.30836,151.34436],[-0.28011,-0.24942],[0.56855,-0.22582]],[[209.47376,151.35728],[0,0],[2.31863,0.99625]],[[214.85554,155.13046],[-2.189,-1.32772],[0.51809,0.31425]],[[216.4172,156.04835],[-0.52299,-0.29794],[1.64347,1.68217]],[[222.62931,159.22264],[-2.40741,-0.37645],[1.24491,0.5752]],[[226.39705,160.88457],[-1.26662,-0.53602],[1.3098,-0.85198]],[[230.62556,158.79113],[-1.4859,0.55144],[0.01693,-3.16508]],[[231.66513,150.15537],[-0.62086,2.99814],[0.6837,-3.30161]],[[231.625,139],[0,3.40918],[0,-6.35065]],[[231.625,119.94805],[0,6.35065],[-0.58895,0.18452]]],&quot;closed&quot;:true}]}" fill="#ffffff" stroke="none" stroke-width="0.5" stroke-linecap="butt"/><path d="M263.68253,195.34337c-0.69045,0.59454 -1.36707,1.19197 -2.01717,1.74188c-4.17651,-0.80724 -9.28894,-0.02492 -13.64884,0.53004c0.5097,-1.24587 -0.73794,-1.86941 -0.73794,-1.86941c-0.29828,-0.06565 -0.7948,0.09071 -0.89609,-0.19743c-0.1908,-0.54278 0.18338,-1.13771 0.22342,-1.71165c0.1779,-2.55017 -0.00524,-5.20023 -0.00524,-7.75253c0,-11.15783 -0.68248,-22.64621 0.20662,-33.76679c2.09531,-6.21689 2.81913,-13.86943 7.00143,-19.1657c3.25715,-4.12471 9.56087,-3.9305 13.29361,-0.82402c2.09815,1.74613 2.88462,5.56485 3.60275,8.08019c1.21955,4.26535 0.95832,8.40054 0.95832,12.85062c0,5.44761 -0.00008,10.96894 -0.72749,16.33598c-0.56496,4.16843 -2.45825,8.17744 -2.97434,12.30617c-1.89483,3.80782 -2.40299,8.49875 -3.74358,12.44265c-0.12322,0.3625 -0.31255,0.69044 -0.53545,1.00001z" data-paper-data="{&quot;noHover&quot;:false,&quot;origItem&quot;:[&quot;Path&quot;,{&quot;applyMatrix&quot;:true,&quot;segments&quot;:[[[264.20956,153.75349],[-0.12322,0.3625],[1.34058,-3.9439]],[[267.93936,141.31533],[-1.89483,3.80782],[0.51609,-4.12873]],[[270.8909,129.03218],[-0.56496,4.16843],[0.72741,-5.36704]],[[271.625,112.75],[0,5.44761],[0,-4.45008]],[[270.68271,99.91208],[1.21955,4.26535],[-0.71813,-2.51534]],[[267.08987,91.83559],[2.09815,1.74613],[-3.73275,-3.10648]],[[253.81706,92.66049],[3.25715,-4.12471],[-4.1823,5.29627]],[[246.84366,111.81121],[2.09531,-6.21689],[-0.88909,11.12058]],[[246.625,145.5],[0,-11.15783],[0,2.5523]],[[246.625,153.25],[0.1779,-2.55017],[-0.04003,0.57394]],[[246.40098,154.96141],[-0.1908,-0.54278],[0.10128,0.28814]],[[247.29582,155.15836],[-0.29828,-0.06565],[0,0]],[[248.03199,157.02716],[0.5097,-1.24587],[4.35989,-0.55497]],[[261.66138,156.49483],[-4.17651,-0.80724],[0.6501,-0.5499]],[[263.67519,154.75333],[-0.69045,0.59454],[0.2229,-0.30957]]],&quot;closed&quot;:true}]}" fill="#ffffff" stroke="none" stroke-width="0.5" stroke-linecap="butt"/><path d="M217.25003,156.42389c0.0209,0.00241 0.05082,0.3209 0.0831,0.75789c-0.55696,-0.30109 -1.11377,-0.60184 -1.67041,-0.90245c0.51584,0.03475 1.04399,0.08187 1.58731,0.14456z" fill="#000000" stroke="none" stroke-width="0.5" stroke-linecap="butt"/><path d="" fill="#000000" stroke="none" stroke-width="0.5" stroke-linecap="butt"/><path d="M140.55381,172.33018c-0.04944,0.02308 -0.02179,0.10966 -0.0713,0.13242c-0.03816,0.22647 -0.08361,0.44996 -0.13672,0.67099c-0.02394,0.41637 0.04637,0.79057 0.34198,1.07291c0.3713,0.35462 0.7148,0.57671 1.1644,0.82273c3.24531,-1.54126 6.37158,-3.735 9.80609,-4.67249c3.89647,-1.06359 8.87091,-0.53437 13.20451,-0.33843c1.66527,0.52492 3.31819,1.17651 5.08501,1.71286c3.99302,1.21214 8.20882,1.47216 11.9304,3.5041c5.87519,3.20778 11.18232,7.89342 16.49404,11.87721c0,0 0.24616,0.18436 0.59782,0.27509c0.04292,0.03853 0.07011,0.0589 0.07011,0.0589c2.48154,1.82128 4.20047,3.58037 6.04646,6.04342l1.72796,0.859c0,0 0.55373,0.18531 1.08516,-0.02055c0.24699,0.22354 0.50016,0.32539 0.50016,0.32539c1.92499,0.68192 3.09635,2.40929 4.9489,3.56359c3.55801,2.21693 7.28959,3.99914 11.10076,5.62128c0.03979,0.23022 0.14906,0.47973 0.36417,0.73786c0.79986,0.95982 1.73306,0.45463 2.0225,0.25882c0.96505,0.39525 1.93446,0.78693 2.90641,1.17612l0.79095,0.11755c0,0 1.50017,0.00146 1.50017,-1.49854c0,-1.5 -1.49972,-1.49813 -1.49972,-1.49813l0.22373,0.10712c-0.33118,-0.13234 -0.66162,-0.26427 -0.99153,-0.39722c5.03871,-2.46082 10.91311,-1.46242 16.65684,-2.06479c4.39948,-0.46139 9.32518,-1.46275 13.65698,-0.62017c0.00637,0.00877 0.01287,0.01757 0.01947,0.02637c0.63049,0.84065 1.40827,0.65117 1.81752,0.46203c1.56982,0.54092 3.03107,1.39919 4.32211,2.70112c2.40774,2.2032 2.22753,5.15292 2.22753,8.27784c0,1.92237 0.31431,4.46649 0.02686,6.38689c-0.14289,0.95463 -1.37425,2.51883 -1.77536,3.12029c-2.93469,4.40043 -7.07003,6.95104 -11.54212,9.56364c-2.21541,1.29424 -3.88718,3.06915 -6.35374,3.85686c-1.3985,0.47512 -2.57474,1.48091 -3.96132,1.98977c-2.37718,0.8724 -5.39175,1.24217 -8.07095,1.70013c-1.11747,-4.0362 -5.48966,-3.44755 -8.73129,-3.01533c-5.51132,0.73485 -8.86694,1.71784 -11.04501,5.35996c-4.69624,0.02609 -9.41172,-0.08555 -14.07327,-0.08555c-0.13097,0 -0.2625,0.00056 -0.39455,0.00163c-1.35048,-0.96802 -2.98934,-1.63226 -4.51508,-1.33151c-0.62562,0.12332 -3.36288,-3.32341 -4.00774,-4.01604c-4.98347,-5.35262 -13.98074,-5.60629 -16.89554,0.86249c-0.43429,0.72219 -0.71443,1.54763 -0.79487,2.43077c-5.86679,-1.52142 -11.58233,-3.59663 -16.72158,-6.57266c-0.6723,-0.01524 -1.2649,-0.09087 -1.9372,-0.10611c0.19273,1.15244 0.27181,2.59331 0.24058,4.18879c0.39159,-0.15705 0.75385,-0.43483 0.79462,-1.18626c0.03423,-0.00116 0.14406,-0.06778 0.17829,-0.06894c0.17095,0.10681 0.34373,0.21068 0.51914,0.31295c-1.35683,1.35122 -2.9592,2.8624 -4.60129,4.14579c-4.25839,0.37785 -8.12897,1.40098 -12.10299,4.04947c-4.44806,2.96442 -12.21793,11.06275 -18.24475,7.07616c-1.21009,-5.71807 0.02372,-10.35358 1.53009,-15.79763c0.29312,-1.05935 0.93576,-5.01612 -0.29306,-5.63745c-2.66319,-1.34659 -4.24695,1.57569 -5.69215,2.76097c-2.43564,1.99758 -6.14447,5.02752 -9.15252,6.02835c-1.60896,0.53533 -2.98211,0.10881 -4.64718,0.29802c-0.44592,0.05067 -0.8326,0.52736 -1.27267,0.43934c-0.24465,-0.04893 0.40237,-0.35949 0.43926,-0.60625c0.1971,-1.31868 -0.00066,-2.6688 -0.00066,-4.00214c-0.02569,-4.94826 1.61479,-10.81778 3.98156,-15.17621c1.38349,-2.54773 3.75443,-4.40844 5.63519,-6.50379c2.6414,-2.94277 4.5527,-6.44771 7.49947,-9.13607c2.87546,-2.6233 5.92592,-4.52761 8.46802,-7.20897l0.14883,0.19862l1.31967,-0.99063c0.37226,-0.27295 0.61431,-0.71462 0.61431,-1.21161c0,-0.82843 -0.5764,-1.46933 -1.40483,-1.46933l-1.66653,-0.00042c-3.02209,0 -6.0431,-0.00451 -9.06511,0.02211c-0.75015,-0.28637 -1.48465,-0.61769 -2.25049,-0.85896c-0.38887,-0.12251 -1.23857,0.148 -1.29791,-0.25537c-0.0596,-0.40508 0.8048,-0.2802 1.0828,-0.58079c0.44519,-0.48138 0.65176,-1.14051 1.01362,-1.6873c1.56932,-2.37136 3.74258,-4.27531 5.33876,-6.67708c2.92934,-4.40778 6.86054,-5.99901 11.19458,-8.55394c0.52865,-0.31164 0.8033,-1.03618 1.39307,-1.20575c0.85504,-0.24583 2.00556,-0.24747 3.18023,-0.14532z" data-paper-data="{&quot;noHover&quot;:false,&quot;origItem&quot;:[&quot;Path&quot;,{&quot;applyMatrix&quot;:true,&quot;segments&quot;:[[[274.82635,263.93088],[1.71008,-0.49166],[-1.17955,0.33913]],[[272.04194,266.34008],[1.0573,-0.62328],[-8.66809,5.10986]],[[249.66282,283.43077],[5.85868,-8.81557],[-3.19236,4.80355]],[[238.98955,296.77397],[3.13863,-4.74272],[-0.72371,1.09358]],[[236.9631,300.14598],[0.89038,-0.96275],[-0.556,0.60119]],[[234.79782,301.30641],[-0.1192,-0.81015],[0.11869,0.80673]],[[237.20104,301.76325],[-0.77774,-0.24502],[1.53169,0.48254]],[[241.70194,303.48147],[-1.5003,-0.57274],[6.044,-0.05324]],[[259.83333,303.43333],[-6.04417,0],[0,0]],[[263.16667,303.43333],[0,0],[1.65685,0]],[[266.16667,306.43333],[0,-1.65685],[0,0.99398]],[[264.93874,308.85428],[0.74453,-0.5459],[0,0]],[262.3,310.83333],[[262.00227,310.43636],[0,0],[-5.08419,5.36271]],[[245.06889,324.84038],[5.75092,-5.2466],[-5.89353,5.37671]],[[230.07063,343.09863],[5.28279,-5.88554],[-3.76152,4.1907]],[[218.79974,356.09802],[2.76699,-5.09546],[-4.73353,8.71686]],[[210.83333,386.43333],[-0.05139,-9.89653],[0,2.66667]],[[210.83333,394.43333],[0.3942,-2.63737],[-0.07377,0.49352]],[[209.95465,395.64535],[-0.48931,-0.09786],[0.88015,0.17603]],[[212.5,394.76667],[-0.89184,0.10134],[3.33014,-0.37842]],[[221.6055,394.23646],[-3.21793,1.07066],[6.01609,-2.00166]],[[239.90936,382.17623],[-4.87128,3.99517],[2.8904,-2.37056]],[[251.48481,376.59548],[-5.32638,-2.69317],[2.45764,1.24265]],[[252.06817,387.86242],[0.58624,-2.1187],[-3.01273,10.8881]],[[248.99925,419.44056],[-2.42018,-11.43615],[12.05365,7.97318]],[[285.48478,405.28246],[-8.89613,5.92883],[7.94803,-5.29697]],[[309.68492,397.17637],[-8.51677,0.7557],[3.28417,-2.56677]],[[318.73851,389.01822],[-2.71366,2.70244],[-0.35081,-0.20454]],[[317.6992,388.39114],[0.3419,0.21361],[-0.06846,0.00233]],[[317.49383,388.39813],[0.06846,-0.00233],[-0.08153,1.50285]],[[315.75391,390.90214],[0.78319,-0.3141],[0.06246,-3.19097]],[[315.267,382.51739],[0.38547,2.30488],[1.3446,0.03049]],[[319.3008,382.60886],[-1.3446,-0.03049],[15.95735,9.24057]],[[372.24944,399.86233],[-18.33246,-3.15299],[10.47726,1.80198]],[[405.83333,399.83333],[-10.6568,0],[18.73901,0]],[[462.13345,398.52248],[-18.42222,2.24578],[2.93378,-0.35765]],[[470.59934,395.88746],[-2.89666,0.58678],[5.97697,-1.21077]],[[489.63065,391.96206],[-5.63431,2.06773],[2.77317,-1.01772]],[[497.55132,387.98728],[-2.797,0.95025],[4.93312,-1.57543]],[[510.25614,380.28138],[-4.43082,2.58848],[8.94419,-5.22519]],[[533.33718,361.16923],[-5.86939,8.80085],[0.80223,-1.20291]],[[536.88746,354.93268],[-0.28578,1.90927],[0.5749,-3.84081]],[[536.83333,342.16667],[0,3.84473],[0,-6.24984]],[[532.37868,325.62132],[4.81548,4.40641],[-2.58208,-2.60387]],[[523.73491,320.22312],[3.13964,1.08185],[-0.81849,0.37829]],[[520.1,319.3],[1.26098,1.68131],[-0.0132,-0.0176]],[[520.06108,319.2473],[0.01275,0.01753],[-8.6636,-1.68515]],[[492.74744,320.48978],[8.79896,-0.92278],[-11.48746,1.20473]],[[459.63088,324.58556],[10.07742,-4.92164],[0.65984,0.2659]],[[461.61417,325.38124],[-0.66235,-0.26467],[0,0]],[461.16667,325.16667],[[464.16667,328.16667],[0,-3],[0,3]],[461.16667,331.16667],[[459.38583,330.9521],[0,0],[-1.9439,-0.77839]],[[453.57346,328.60348],[1.9301,0.79051],[-0.57888,0.39162]],[[449.52867,328.08722],[1.59971,1.91965],[-0.43022,-0.51627]],[[448.80067,326.61352],[0.07958,0.46045],[-7.62235,-3.24429]],[[426.60686,315.39549],[7.11602,4.43386],[-3.70511,-2.30859]],[[416.71916,308.28543],[3.84998,1.36383],[0,0]],[[415.72011,307.63632],[0.49398,0.44708],[-1.06286,0.41171]],[413.55132,307.67938],[[410.1,305.96667],[0,0],[-3.69197,-4.9261]],[[398.03333,293.9],[4.96308,3.64256],[0,0]],[[397.8934,293.78236],[0.08585,0.07707],[-0.70332,-0.18147]],[[396.7,293.23333],[0,0],[-10.62343,-7.96757]],[[363.77002,269.4884],[11.75038,6.41556],[-7.44315,-4.06387]],[[339.93529,262.47292],[7.98605,2.42428],[-3.53365,-1.07269]],[[329.77306,259.04343],[3.33054,1.04985],[-8.66719,-0.39188]],[[303.38229,259.70762],[7.79294,-2.12719],[-6.86903,1.87499]],[[283.78278,269.03933],[6.49061,-3.08252],[-0.8992,-0.49205]],[[281.29704,267.26987],[0.7426,0.70925],[-0.59122,-0.56467]],[[280.61374,265.12323],[-0.04788,0.83274],[0.10622,-0.44206]],[[280.88782,263.78046],[-0.07632,0.45294],[0.09901,-0.04552]],[[281.18467,263.64294],[-0.09889,0.04616],[-2.34934,-0.2043]]],&quot;closed&quot;:true}]}" fill="#ffffff" stroke="none" stroke-width="0.5" stroke-linecap="butt"/><path d="M150.08336,191.29057c0,0.5988 -0.35088,1.11566 -0.85825,1.35618l-0.63415,0.31707c0.00204,-1.05775 0.003,-2.11548 0.00248,-3.17321c0.82378,0.00542 1.48992,0.6749 1.48992,1.49997z" fill="#ffffff" stroke="none" stroke-width="0.5" stroke-linecap="butt"/><path d="M253.80446,235.17289c0.91941,-0.63705 1.89981,-1.37783 2.93182,-1.97891c5.30925,-3.09229 13.42899,-7.87304 14.6427,-14.66859c0.36349,-2.03516 0.0288,-4.78889 0.0288,-6.85228c0,-4.15335 -0.18752,-7.32711 -3.08876,-10.39389c-0.95292,-0.9461 -2.08882,-2.08391 -3.31165,-2.89551c0.88221,-0.63509 1.75704,-1.29384 2.57944,-2.03484c1.03657,-0.93398 1.22591,-1.62153 2.67345,-1.98174c3.12669,-0.77806 7.12412,-0.28158 10.34409,-0.2886c1.07101,-0.00233 4.936,-0.30035 5.70401,0.91131c1.39418,2.19954 -3.80822,6.33824 -4.95344,7.76766c-0.37338,0.52256 -4.25825,5.22273 -4.23753,5.82977c0.08747,2.56302 4.37489,3.83219 5.88689,5.18066c1.67881,1.49724 3.42008,3.89418 4.20867,6.02209c0.13618,0.36747 0.65384,3.61073 0.31329,3.83821c-0.61913,0.41356 -1.51454,0.06966 -2.21094,0.33306c-1.30442,0.49337 -2.38371,1.56193 -3.73403,1.91061c-0.76244,0.19688 -3.97961,0.36458 -4.58546,0.96431c-2.42604,2.40151 -1.57286,6.64279 -1.56085,9.6887c0.28394,0.89176 -4.26257,0.38042 -5.44522,0.31751c-5.46764,-0.29083 -10.70326,-1.53961 -16.18526,-1.66952z" data-paper-data="{&quot;noHover&quot;:false,&quot;origItem&quot;:[&quot;Path&quot;,{&quot;applyMatrix&quot;:true,&quot;segments&quot;:[[[539.98277,392.50372],[-10.93528,-0.58165],[2.3653,0.12581]],[[550.84793,391.87105],[0.56788,1.78352],[-0.02401,-6.09182]],[[553.94311,372.50373],[-4.85208,4.80303],[1.2117,-1.19946]],[[563.09015,370.59351],[-1.52488,0.39376],[2.70064,-0.69736]],[[570.54402,366.79119],[-2.60885,0.98673],[1.39281,-0.52679]],[[574.96239,366.13169],[-1.23827,0.82712],[0.68111,-0.45496]],[[574.32905,358.47361],[0.27236,0.73493],[-1.57718,-4.2558]],[[565.90943,346.46853],[3.35761,2.99448],[-3.02399,-2.69694]],[[554.16667,336.16667],[0.17495,5.12604],[-0.04144,-1.21407]],[[562.77388,324.3571],[-0.74677,1.04513],[2.29044,-2.85884]],[[572.55607,308.9781],[2.78836,4.39908],[-1.53602,-2.42331]],[[561.16667,307.16667],[2.14202,-0.00467],[-6.43993,0.01405]],[[540.52259,307.75308],[6.25339,-1.55612],[-2.89507,0.72042]],[[535.18968,311.71527],[2.07314,-1.86795],[-1.6448,1.482]],[[530.04632,315.78112],[1.76443,-1.27018],[2.44565,1.62321]],[[536.62132,321.37868],[-1.90585,-1.89221],[5.80247,6.13356]],[[542.83333,342.16667],[0,-8.30669],[0,4.12678]],[[542.7792,356.06732],[0.72697,-4.07031],[-2.42741,13.5911]],[[513.41053,385.38529],[10.6185,-6.18457],[-2.06402,1.20216]],[[507.67401,389.18877],[1.83883,-1.2741],[10.96401,0.25982]]],&quot;closed&quot;:true}]}" fill="#ffffff" stroke="none" stroke-width="0.5" stroke-linecap="butt"/><path d="M164.85359,170.02471c1.66527,0.52492 3.31665,1.17646 5.08347,1.7128c3.99302,1.21214 8.20478,1.47025 11.92635,3.50219c5.87519,3.20778 11.17871,7.8839 16.49042,11.86769c0,0 0.24663,0.18392 0.5983,0.27466c0.04292,0.03853 0.07016,0.05885 0.07016,0.05885c2.48154,1.82128 4.20837,3.57764 6.05436,6.0407l1.73064,0.85993c0,0 0.55488,0.18597 1.08631,-0.01988c0.24699,0.22354 0.50082,0.32577 0.50082,0.32577c1.92499,0.68192 3.10112,2.41411 4.95368,3.5684c3.55801,2.21693 7.29085,4.00455 11.10202,5.62669c0.03979,0.23022 0.149,0.48008 0.36411,0.73822c0.79986,0.95982 1.73299,0.4546 2.02244,0.25879c0.96505,0.39525 1.93431,0.78715 2.90626,1.17634l0.79043,0.10864c0,0 1.50007,0.0021 1.50007,-1.4979c0,-1.5 -1.49983,-1.49768 -1.49983,-1.49768l0.22374,0.1071c-0.33118,-0.13234 -0.66165,-0.26415 -0.99157,-0.3971c5.03871,-2.46082 10.91391,-1.45685 16.65764,-2.05921c4.39948,-0.46139 9.3251,-1.46307 13.6569,-0.6205c0.00637,0.00877 0.01286,0.01757 0.01946,0.02638c0.63049,0.84065 1.40826,0.65119 1.8175,0.46204c1.56982,0.54092 3.031,1.39938 4.32204,2.70132c2.40774,2.2032 2.22725,5.15359 2.22725,8.27851c0,1.92237 0.31401,4.46696 0.02656,6.38737c-0.14289,0.95463 -1.37446,2.51914 -1.77557,3.1206c-2.93469,4.40043 -7.07118,6.95239 -11.54328,9.56499c-2.21541,1.29424 -3.88804,3.06983 -6.35459,3.85755c-1.3985,0.47512 -2.57537,1.4813 -3.96195,1.99016c-2.37527,0.87169 -5.38807,1.24223 -8.06603,1.69989c-1.11486,-4.04263 -5.48971,-3.45362 -8.73291,-3.0212c-5.51447,0.73526 -8.87077,1.71895 -11.04873,5.3662c-4.70076,0.02572 -9.42081,-0.08655 -14.0846,-0.08655c-0.12366,0 -0.24782,0.0005 -0.37245,0.00145c-1.35182,-0.97075 -2.99373,-1.63784 -4.52212,-1.33657c-0.62562,0.12332 -3.36288,-3.32341 -4.00774,-4.01604c-4.98347,-5.35262 -13.98074,-5.60629 -16.89554,0.86249c-0.43435,0.72228 -0.71449,1.54781 -0.7949,2.43106c-5.86695,-1.52181 -11.58128,-3.5979 -16.72361,-6.57573c-0.6723,-0.01524 -1.26122,-0.08569 -1.93353,-0.10094c0.19273,1.15244 0.27254,2.59382 0.24131,4.18931c0.39159,-0.15705 0.74912,-0.44069 0.78988,-1.19212c0.03423,-0.00116 0.1488,-0.06187 0.18303,-0.06304c0.17095,0.10681 0.34389,0.21079 0.51929,0.31306c-1.57363,1.56713 -3.40104,3.2776 -5.36773,4.7151c-1.4804,-6.07414 -5.41205,-13.92328 -5.45799,-17.62296c-0.12079,-9.72772 -0.01084,-19.45674 0.00768,-29.18539l0.58607,-0.2934c0.50737,-0.24051 0.8587,-0.75887 0.8587,-1.35767c0,-0.82843 -0.57678,-1.46815 -1.40521,-1.46815l-0.03716,-0.00001c-0.00065,-1.34991 -0.00373,-2.69981 -0.01009,-4.04969c-0.00996,-2.11461 -0.57787,-7.05167 -2.37839,-8.52052c-1.25368,-1.02274 -2.94647,-1.41749 -4.35746,-2.20068c3.24631,-1.54264 6.37001,-3.73537 9.80461,-4.67289c3.89647,-1.06359 8.86786,-0.5344 13.20146,-0.33846z" data-paper-data="{&quot;noHover&quot;:false,&quot;origItem&quot;:[&quot;Path&quot;,{&quot;applyMatrix&quot;:true,&quot;segments&quot;:[[[303.38229,259.70762],[7.79294,-2.12719],[-7.83975,2.13996]],[[281.01353,270.2581],[7.5088,-3.01506],[-7.04591,2.82919]],[[264.224,281.69232],[4.93958,-6.53731],[-0.6083,1.88855]],[[262.81201,287.8096],[-0.04672,-2.00139],[0.0722,3.09269]],[[270.50831,293.48339],[-1.55388,-0.78905],[7.31172,3.71282]],[[293.57282,298.5],[-7.74821,-2.86345],[0,0]],[[297.16667,298.5],[0,0],[1.65685,0]],[[300.16667,301.5],[0,-1.65685],[0,1.19761]],[[298.45018,304.21235],[1.01474,-0.48103],[0,0]],[293.14174,306.86656],[[292.86146,306.306],[0,0],[-3.88947,2.5849]],[[280.31472,312.93831],[4.55167,-1.88867],[-9.50291,3.94314]],[[255.88737,330.76404],[4.78584,-10.4325],[-1.81784,3.96266]],[[252.1087,343.42025],[0.90617,-4.15646],[-0.70586,3.23767]],[[251.54782,356.34181],[-2.62943,-3.16455],[1.36344,1.64092]],[[256.40197,360.51331],[-1.50568,-1.51145],[4.83918,3.4498]],[[275.26601,362.55413],[-5.92797,0.46831],[1.87754,-0.14833]],[[280.84855,361.68246],[-1.25865,-1.40106],[1.86456,2.07553]],[[281.93831,369.98138],[0.71324,-2.69735],[-0.56507,2.137]],[[277.38049,374.79812],[1.31172,-1.77918],[-4.47557,6.07055]],[[268.64165,393.22183],[2.39273,-6.98256],[-0.39193,1.14373]],[[266.72448,396.3008],[0.43309,-1.12879],[-1.60051,4.17147]],[[275.18926,405.24692],[-2.75902,-0.72197],[2.35768,0.61695]],[[282.5,405.16667],[-2.43706,-0.00234],[5.26537,0.00505]],[[297.86754,403.90076],[-5.21631,0.51626],[7.77562,-2.5392]],[[318.73851,389.01822],[-5.77343,5.74956],[-0.35081,-0.20454]],[[317.6992,388.39114],[0.3419,0.21361],[-0.06846,0.00233]],[[317.49383,388.39813],[0.06846,-0.00233],[-0.08153,1.50285]],[[315.75391,390.90214],[0.78319,-0.3141],[0.06246,-3.19097]],[[315.267,382.51739],[0.38547,2.30488],[1.3446,0.03049]],[[319.3008,382.60886],[-1.3446,-0.03049],[15.95735,9.24057]],[[372.24944,399.86233],[-18.33246,-3.15299],[10.47726,1.80198]],[[405.83333,399.83333],[-10.6568,0],[18.73901,0]],[[462.13345,398.52248],[-18.42222,2.24578],[2.93378,-0.35765]],[[470.59934,395.88746],[-2.89666,0.58678],[5.97697,-1.21077]],[[489.63065,391.96206],[-5.63431,2.06773],[2.77317,-1.01772]],[[497.55132,387.98728],[-2.797,0.95025],[4.93312,-1.57543]],[[510.25614,380.28138],[-4.43082,2.58848],[8.94419,-5.22519]],[[533.33718,361.16923],[-5.86939,8.80085],[0.80223,-1.20291]],[[536.88746,354.93268],[-0.28578,1.90927],[0.5749,-3.84081]],[[536.83333,342.16667],[0,3.84473],[0,-6.24984]],[[532.37868,325.62132],[4.81548,4.40641],[-2.58208,-2.60387]],[[523.73491,320.22312],[3.13964,1.08185],[-0.81849,0.37829]],[[520.1,319.3],[1.26098,1.68131],[-0.0132,-0.0176]],[[520.06108,319.2473],[0.01275,0.01753],[-8.6636,-1.68515]],[[492.74744,320.48978],[8.79896,-0.92278],[-11.48746,1.20473]],[[459.63088,324.58556],[10.07742,-4.92164],[0.65984,0.2659]],[[461.61417,325.38124],[-0.66235,-0.26467],[0,0]],[461.16667,325.16667],[[464.16667,328.16667],[0,-3],[0,3]],[461.16667,331.16667],[[459.38583,330.9521],[0,0],[-1.9439,-0.77839]],[[453.57346,328.60348],[1.9301,0.79051],[-0.57888,0.39162]],[[449.52867,328.08722],[1.59971,1.91965],[-0.43022,-0.51627]],[[448.80067,326.61352],[0.07958,0.46045],[-7.62235,-3.24429]],[[426.60686,315.39549],[7.11602,4.43386],[-3.70511,-2.30859]],[[416.71916,308.28543],[3.84998,1.36383],[0,0]],[[415.72011,307.63632],[0.49398,0.44708],[-1.06286,0.41171]],[413.55132,307.67938],[[410.1,305.96667],[0,0],[-3.69197,-4.9261]],[[398.03333,293.9],[4.96308,3.64256],[0,0]],[[397.8934,293.78236],[0.08585,0.07707],[-0.70332,-0.18147]],[[396.7,293.23333],[0,0],[-10.62343,-7.96757]],[[363.77002,269.4884],[11.75038,6.41556],[-7.44315,-4.06387]],[[339.93529,262.47292],[7.98605,2.42428],[-3.53365,-1.07269]],[[329.77306,259.04343],[3.33054,1.04985],[-8.66719,-0.39188]]],&quot;closed&quot;:true}]}" fill="#ffffff" stroke="none" stroke-width="0.5" stroke-linecap="butt"/><path d="" fill="#000000" stroke="none" stroke-width="0.5" stroke-linecap="butt"/><path d="" fill="#000000" stroke="none" stroke-width="0.5" stroke-linecap="butt"/><path d="M258.25883,201.71789c3.34272,0.35616 7.04789,0.99126 4.3912,5.53936c-1.10728,1.89559 -6.13746,1.78014 -7.98327,1.38877c-0.88313,-0.18725 -2.08802,-0.13324 -2.55158,-0.9079c-1.7846,-2.98223 -0.68955,-4.01478 1.25365,-4.59577c-0.04677,-0.20974 -0.04688,-0.45743 0.02599,-0.7489c0.36381,-1.45522 1.81902,-1.09141 1.81902,-1.09141c0.66196,0.1709 1.54548,0.2614 2.49012,0.35822l0.14607,-0.00301c0,0 0.17669,0 0.4088,0.06064z" fill="#000000" stroke="none" stroke-width="0.5" stroke-linecap="butt"/><path d="M248.12503,158.04056l-1,29" fill="none" stroke="#000000" stroke-width="4.5" stroke-linecap="round"/><path d="M230.12503,159.79056l1.25,28" fill="none" stroke="#000000" stroke-width="4.5" stroke-linecap="round"/><path d="M154.68168,81.01545l1.70419,-11.38401l4.82627,-14.34249l11.97708,-15.75356l11.48627,-6.68043l9.25717,-1.76554l5.00352,0.46354l-4.67631,14.88102l-2.17455,15.11278l-1.60195,21.3365l-0.43627,10.10246l-6.5032,-5.8488l-8.77319,-8.58232l-4.09007,-3.85148l-5.26255,6.10783l-7.66887,5.38525z" fill="#ffffff" stroke="#000000" stroke-width="2.5" stroke-linecap="round"/><path d="M294.44795,118.40186l-2.1392,18.82496l-4.25,21" fill="none" stroke="#000000" stroke-width="2.5" stroke-linecap="round"/><path d="M300.30878,115.72682l3.75,-15.5l-2.25,14.5l-7.5,14.25" fill="none" stroke="#000000" stroke-width="2.5" stroke-linecap="round"/><path d="M303.15281,104.85063c-0.31981,4.15756 -3.33889,15.3235 -6.26562,17.95462c-1.8684,1.67969 -4.09258,2.19778 -6.57843,1.92157c-0.68298,-0.07588 -1.38529,-0.19282 -2,-0.5c-0.24007,-0.11997 -0.17665,-0.84866 -0.39946,-0.69905c-1.28819,0.86503 -3.4386,3.89839 -3.60054,5.69905c-0.08723,0.9699 0.99879,6.60138 1.67862,7.13675c0.61876,0.48728 1.285,-1.09306 2.07138,-1.13675c1.85564,-0.10309 3.73859,2.82941 4,4c0.69543,3.11415 -2.914,5.09604 -3,8.10794c-0.07997,2.80118 1.13936,6.11929 -0.5,8.39206c-0.06786,0.09409 -3.39258,2.00597 -3.5,2c-5.84089,-0.32449 -4.1099,-9.84601 -4.25,-12.79086c-0.22693,-4.76986 -5.98771,-11.37195 -4.52158,-17.23649c0.49322,-1.97288 1.2637,-3.40798 2.182,-4.7378c-0.48101,-0.34066 -0.90483,-0.74544 -1.23813,-1.19599c-2.93736,-3.97083 -1.10192,-9.85292 -0.92229,-14.78885c0.0693,-1.90442 0.75,-3.76196 0.75,-5.66764c-0.47202,-0.65657 -0.75,-1.462 -0.75,-2.33236c0,-1.40064 0.7199,-2.63314 1.80986,-3.34768c0.62862,-1.30971 1.01908,-2.42839 1.82623,-4.71191c0.04231,-0.11971 0.02786,-0.26382 0.139,-0.35909c0.94167,-0.80715 1.98818,-1.40318 3.02846,-1.74058l0.00841,-0.04232c0.12525,-0.70191 0.73871,-1.23475 1.47662,-1.23475c0.37293,0 0.71407,0.13609 0.97647,0.36132c-0.00963,-0.31578 -0.01506,-0.62456 -0.01506,-0.925c0,0 0,-1.5 1.5,-1.5c1.5,0 1.5,1.5 1.5,1.5c0,1.21587 0.07625,2.53968 0.16077,3.9051c0.36525,0.80523 0.57897,1.82946 0.58923,3.0949c0.0059,0.72754 0.01098,1.42012 0.01457,2.08156c1.09484,-0.69989 2.2292,-1.35021 3.23929,-1.80067c1.40755,-0.62769 3.23417,2.11709 4.18256,2.36001c0.10198,0.02612 0.22656,0.0163 0.36576,-0.01374c0.32675,-0.15339 0.67763,-0.26388 1.04539,-0.32421c0.21231,-0.03483 0.43025,-0.05295 0.65242,-0.05295c1.12369,0 2.13917,0.46335 2.86578,1.20942c2.2147,1.5647 3.2223,4.26959 1.58031,7.00625z" fill="#ffd200" stroke="none" stroke-width="0.5" stroke-linecap="butt"/><path d="M304.30878,96.72682l-2.25,17.5l-7.75,12.5" fill="none" stroke="#000000" stroke-width="2.5" stroke-linecap="round"/><path d="M292.80878,127.97682l-2.75,21.25l-5.25,17.75" fill="none" stroke="#000000" stroke-width="2.5" stroke-linecap="round"/><path d="M231.05878,94.97682l30.25,-25.25c0,0 4.69058,0.68827 6.56115,0.86974c5.22085,0.5065 26.93885,2.38026 26.93885,2.38026l-27.5,10.5l-11,5.5l25.5,-0.5l18,11l-27.75,-1l-12.25,2.25l25.5,10.25l3.5,14l-16.75,-9l-23.25,-1" fill="none" stroke="#000000" stroke-width="2.5" stroke-linecap="round"/><path d="M239.30878,90.97682c0.42346,-1.13097 1.00322,-2.22223 1.70081,-3.27359c3.42819,-5.16677 9.70211,-9.3702 14.25672,-12.59079c1.72359,-1.21876 3.40255,-3.33547 5.50337,-3.76882c1.91456,-0.39493 12.42193,-0.91352 12.61681,2.59435c0.06615,1.19073 0.06615,2.38697 0,3.57771c-0.21172,3.8109 -7.90799,1.86581 -8.94271,3.99491c-0.28294,0.58219 -0.00817,1.37492 -0.38083,1.90418c-0.7153,1.01587 -3.62761,1.72736 -4.45542,2.01219c-3.70545,1.27497 -6.2794,5.32467 -10.57688,5.46059c-1.60104,0.05064 -3.58443,6.66192 -6.55741,4.00188z" fill="#ffd200" stroke="none" stroke-width="0.5" stroke-linecap="butt"/><path d="M250.41121,91.93702c0.20946,-0.17972 0.47362,-0.34591 0.78208,-0.49947c0.14736,-0.07783 0.30016,-0.14673 0.45769,-0.20597c2.91572,-1.19177 8.61035,-1.52108 10.91879,-1.50476c0.20689,0.00146 4.70607,-0.28294 5.48901,0.5c0.95015,0.95014 2,2.15629 2,3.5c0,1.34371 -1.04985,2.54986 -2,3.5c-0.75748,0.75749 -4.587,0.48217 -5.03504,0.5c-1.01576,0.04044 -6.76896,1.13028 -9.66238,1.23873c-0.09989,0.00747 -0.20078,0.01127 -0.30258,0.01127c-0.04892,0 -0.09765,-0.00088 -0.14615,-0.00262c-2.14144,-0.07691 -3.85385,-1.83716 -3.85385,-3.99738c0,-1.01315 0.37667,-1.93831 0.9976,-2.6431c0.1008,-0.14524 0.21737,-0.27875 0.35483,-0.3967z" fill="#ffd200" stroke="none" stroke-width="0.5" stroke-linecap="butt"/><path d="M260.80878,69.97682l-28.75,23.25" fill="none" stroke="#000000" stroke-width="2.5" stroke-linecap="round"/><path d="M269.30878,82.72682l-20.25,10" fill="none" stroke="#000000" stroke-width="2.5" stroke-linecap="round"/><path d="M174.80878,240.47682l0.25,-9.75l9,-1.25l8.75,2.25l13.25,11.75" fill="none" stroke="#000000" stroke-width="2.5" stroke-linecap="round"/><path d="M212.30878,244.72682l12,-11.75l11.5,-0.5l2.25,4v7.5" fill="none" stroke="#000000" stroke-width="2.5" stroke-linecap="round"/><path d="M250.80878,240.47682l0.25,7.5l-1.25,1.75l2.25,-1.25h3.75l1.25,3l-3,5" fill="none" stroke="#000000" stroke-width="2.5" stroke-linecap="round"/><path d="M221.8864,293.9334c1.88639,1.89571 2.68828,4.55325 4.33239,6.59244c1.10932,1.37588 2.8658,2.10983 4.22987,3.22596c0.38808,0.69329 0.95317,1.46374 1.28918,2.28843l0.3816,0.37593c0,0 1.06066,1.06067 0,2.12133c-0.2248,0.2248 -0.4496,0.35431 -0.6643,0.41883c-1.36001,1.87484 -3.4594,0.94361 -5.25789,1.46934c-2.69857,0.78884 -5.34365,0.26828 -7.99615,0.99896c-3.39148,0.93424 -6.71064,2.06852 -10.14097,3.04774c-0.36329,0.1037 -4.57069,1.6685 -5.23815,1.42328c-0.83412,-0.30646 -1.15798,-1.34839 -1.72403,-2.03343c-1.56079,-1.88887 -2.98183,-4.22373 -3.67151,-6.55302c-0.61507,-1.06725 -1.63085,-1.92158 -2.03311,-3.08585c-1.20126,-3.47689 -1.18132,-8.18277 -2.91745,-11.55848c-1.86084,-3.61819 -3.41177,-7.5217 -5.01992,-11.29004c-1.62588,-3.8099 -4.16328,-7.43946 -4.8815,-11.68162c-0.26638,-2.27607 -1.18888,-4.20471 -2.65557,-5.99135c-0.94154,-1.14694 -3.80435,-3.47774 -3.61011,-5.22502c0.05913,-0.53195 0.18058,-0.9815 0.35232,-1.35844c-0.71845,-1.00859 -1.09285,-2.25156 -1.8173,-3.26189c-1.45388,-2.02759 -3.61725,-4.55455 -4.2449,-7.03504c-0.83814,-3.31238 -0.26553,-8.62425 0.78685,-11.81897c0,0 0.47434,-1.42302 1.89736,-0.94868c1.42302,0.47434 0.94869,1.89737 0.94869,1.89737c-0.67109,1.98549 -1.10808,5.00302 -1.02884,7.57624c0.18478,0.14343 0.28984,0.2785 0.28984,0.2785c1.25816,1.6219 2.35683,3.33759 3.42648,5.07393c1.35332,1.41383 3.21964,2.38986 4.80599,3.65954c3.64997,2.92135 8.33142,5.04908 11.63677,8.36945c3.64684,3.66341 5.11197,9.5612 9.50739,12.50733c0.74287,1.08316 3.45676,3.76315 4.58087,5.8789c0.97443,0.8447 1.90395,1.73651 2.753,2.71221c1.90076,2.18427 3.59833,4.50392 5.27119,6.8278c2.21496,1.58879 4.46672,3.14355 6.4119,5.09834z" fill="#ffd200" stroke="none" stroke-width="0.5" stroke-linecap="butt"/><path d="M179.80878,260.72682l23.25,56" fill="none" stroke="#ffd200" stroke-width="3" stroke-linecap="round"/><path d="M232.05878,306.97682l-30.25,-34.5" fill="none" stroke="#ffd200" stroke-width="3" stroke-linecap="round"/><path d="M206.80878,330.97683l-6.5,-13.50001l-31,-72.5l0.75,-11" fill="none" stroke="#000000" stroke-width="2.5" stroke-linecap="round"/><path d="M178.30878,246.22682l57,61l-23,-24.5l-37.25,-39.75v-7.5" fill="none" stroke="#000000" stroke-width="3" stroke-linecap="round"/><path d="M225.83425,295.45286c-0.27614,0.01514 -0.53603,0.02396 -0.77546,0.02396c0,0 -1.5,0 -1.5,-1.5c0,-1.5 1.5,-1.5 1.5,-1.5c2.67052,0 7.86828,-0.97655 10.32403,0.11418c3.01423,1.33878 3.07098,5.81794 5.05632,8.14976c0.16329,0.19178 0.34318,0.36198 0.53093,0.52008c-0.62736,-1.69384 -1.26349,-3.32795 -2.19798,-4.51306c-0.44325,-1.03068 -1.75139,-3.42642 -1.06834,-4.66429c0.25183,-0.45639 0.63665,-0.82394 1.10388,-1.13573c-0.21139,-1.04173 0.83033,-1.56259 0.83033,-1.56259l1.5,-0.75c2.03091,-0.95087 2.7199,-2.68626 3.93024,-4.50154c1.41891,-2.12811 3.11159,-4.20947 4.17901,-6.57478c0.67318,-2.29199 1.23386,-4.62055 1.7603,-7.07815l0.48015,-0.23924l-0.13916,-0.16699l0.95652,-0.7971c-0.03629,-0.44145 0.08864,-1.02006 0.83293,-1.3922c1.34164,-0.67082 2.01246,0.67082 2.01246,0.67082c1.34187,2.70202 1.6817,5.82602 3.20573,8.41793c2.9325,4.98731 6.90676,9.3604 9.96573,14.19382c0.74951,1.18428 0.8962,2.6561 1.36876,3.97556c0.36984,1.03263 1.38344,1.70358 2.03359,2.587c-0.03771,1.57207 -0.5666,3.52229 -1.93088,4.30433c-2.0895,1.19777 -4.69837,1.63649 -6.87773,2.56394c-3.27795,1.39497 -5.94685,2.70425 -9.48793,3.58216c-1.85174,0.45909 -5.88751,1.3371 -7.76869,0.39803c-1.13556,-0.56686 -1.97549,-1.50234 -2.65426,-2.6257c-1.46671,2.9672 -7.58612,1.32362 -9.51445,0.03075c-0.65813,-0.44125 -1.04812,-1.18861 -1.57219,-1.78292c-1.75777,-2.00927 -3.06661,-4.15226 -4.71386,-6.2073l-1.20612,-1.20612l0.35999,-0.35999zM232.00936,295.04299c0.24866,0.14368 0.49623,0.30357 0.74177,0.47648c0.11857,-0.13272 0.23364,-0.26682 0.33482,-0.40631c-0.33819,-0.04055 -0.69954,-0.06246 -1.07659,-0.07018zM235.30572,297.11674c-0.05755,0.09858 -0.08965,0.20837 -0.09908,0.32784c0.06653,0.06212 0.13308,0.12606 0.19955,0.19164c-0.03025,-0.16976 -0.06273,-0.34494 -0.10047,-0.51947z" fill="#ffd200" stroke="none" stroke-width="0.5" stroke-linecap="butt"/><path d="M251.80878,264.47683l21.25,33.25l-21,-31.5l-3.75,13l-5.25,9l-5.25,3.5l7.5,16.25l-9.5,-16.5" fill="none" stroke="#000000" stroke-width="2.5" stroke-linecap="round"/><path d="M197.30878,337.22683l-17.25,-60.5l8.75,41.74999l-10,-49.75" fill="none" stroke="#000000" stroke-width="2.5" stroke-linecap="round"/><path d="M193.30878,299.72683l-11,-23.75l17,39.49999l-25,-61.25l-4.25,-12.75l-0.25,-7l3.25,-1.25" fill="none" stroke="#000000" stroke-width="2.5" stroke-linecap="round"/><path d="M239.30878,291.97683l-5,1l-11.25,-2" fill="none" stroke="#000000" stroke-width="2.5" stroke-linecap="round"/><path d="M244.30878,306.22683l8.5,23.75l-17,-22l-15,-17.25" fill="none" stroke="#000000" stroke-width="2.5" stroke-linecap="round"/><path d="M188.30878,317.22683l3,16.75" fill="none" stroke="#000000" stroke-width="2.5" stroke-linecap="round"/><path d="M273.05878,296.97683l19,28.25" fill="none" stroke="#000000" stroke-width="2.5" stroke-linecap="round"/><path d="M205.10878,339.87683c-0.28528,-0.38038 -0.35956,-0.73061 -0.32795,-1.03159c-2.47698,1.17654 -6.69525,0.72222 -9.00422,-0.39779c-0.47315,0.53594 -0.98089,1.04032 -1.63488,1.02708c-3.30509,-0.06691 -2.78725,-2.83829 -2.83295,-4.7477c-0.07119,-2.97487 -0.5,-5.75727 -0.5,-8.75c0,-0.23982 -0.00233,-2.51542 0.00448,-3.7233c-0.48727,-1.43987 -0.26495,-2.59729 -0.74837,-3.79811c-0.26023,-0.26713 -0.46562,-0.54127 -0.60029,-0.81286c-0.99856,-2.01376 -0.42789,-3.92381 -0.58741,-5.96272c-0.06318,-0.10642 -0.12392,-0.21555 -0.18189,-0.32779c-1.22027,-2.36228 -3.24318,-5.60548 -4.07216,-8.19056c-1.12017,-3.49314 -1.34234,-7.39562 -1.70989,-11.0652c-0.18635,-1.86054 -0.94854,-3.75987 -0.51179,-5.22906c-0.03104,-0.29608 -0.05466,-0.59291 -0.07034,-0.89042h-0.02234v-2.25c0,-0.31218 0.09536,-0.60209 0.25856,-0.84219c-0.20695,-0.08767 -0.42994,-0.16011 -0.67064,-0.21553c0,0 -1.44229,-0.41208 -1.03021,-1.85437c0.41208,-1.44228 1.85437,-1.0302 1.85437,-1.0302c7.5405,2.4111 5.94588,12.39939 8.01439,18.47841c1.12571,3.30825 2.48754,6.11635 3.91177,9.2863c1.51171,2.63945 3.63561,5.79263 3.88769,8.90993c0.05869,0.72575 0.18975,1.5532 0.06713,2.27625l0.85927,1.03111l-0.00002,0.00002c2.06002,2.4522 2.1956,4.51625 3.66661,7.2458c0.41355,0.76736 0.8773,1.51366 1.35217,2.25596c0.20604,0.03683 0.40349,0.09641 0.5926,0.17629c-0.22284,-0.34069 -0.42848,-0.69254 -0.61117,-1.05876c-1.00585,-2.01639 -1.57234,-4.2655 -1.92213,-6.52422l-0.07203,0.03602l-0.9865,-1.97301c-0.10975,-0.20844 -0.17185,-0.44588 -0.17185,-0.69781c0,-0.82842 0.67157,-1.5 1.5,-1.5c0.0046,0 0.00919,0.00002 0.01378,0.00006c-0.21568,-0.26009 -0.43335,-0.51804 -0.65267,-0.77387c0,0 -0.97619,-1.13889 0.1627,-2.11507c0.00676,-0.00579 0.01352,-0.01151 0.02026,-0.01716c0.09023,-0.41012 0.3626,-0.86679 1.09212,-1.04917c1.45522,-0.36381 1.81902,1.09141 1.81902,1.09141c0.07403,0.30593 0.15819,0.6057 0.25132,0.90002c7.1409,-6.1298 15.81104,-7.20149 25.06507,-7.28112c-0.01421,-0.0829 -0.0216,-0.16814 -0.0216,-0.25509c0,-0.82842 0.67157,-1.5 1.5,-1.5c0.41422,0 0.78921,0.16789 1.06066,0.43934l1.75,1.75l-0.01373,0.01373c0.02365,0.0154 0.04725,0.03091 0.07077,0.04655c2.51287,1.67027 3.1421,5.63886 5.19297,7.68972c0.88602,0.88603 2.3364,1.12869 3.10584,2.11764c1.09302,1.40485 2.23257,3.62582 3.13586,5.19881l-0.01503,0.42215c1.29523,1.39097 2.70208,3.49937 4.47736,4.16312c1.40874,0.52671 3.2119,0.57052 4.1657,1.73338c0.973,1.18626 1.44133,5.6902 0.67156,7.07534c-0.7739,1.39257 -3.97681,2.58816 -5.41728,3.03586c-3.83224,1.19106 -9.79774,-0.01984 -13.50476,-0.73678c-2.80518,-0.54253 -5.89304,-0.21271 -8.74225,-0.45015c-3.58533,0.00158 -9.77752,1.21675 -12.97192,-0.72431c-1.44649,0.39592 -3.38921,-0.41919 -4.20844,-1.14988c-0.63458,-0.56599 -0.91438,-1.39166 -1.10758,-2.26104c-0.59769,-0.87524 -1.3233,-1.68962 -2.06287,-2.50711c0.81484,1.97373 1.15334,4.33191 1.16316,5.64363l-1.6,1.95c0,0 -1.2,0.9 -2.1,-0.3zM205.8095,338.16218c-0.01058,0.00988 -0.02124,0.01971 -0.03197,0.02948l0.03126,0.03517c0.00021,-0.02182 0.00045,-0.04336 0.00071,-0.06465zM199.40031,325.89739c-0.00805,0.20335 -0.01537,0.40906 -0.01959,0.61731l0.00641,-0.01763c0.0335,-0.09932 0.07712,-0.19398 0.12964,-0.28276c-0.03932,-0.10609 -0.07805,-0.21173 -0.11646,-0.31692zM185.6186,288.20187c0.13118,0.63678 0.29934,1.27044 0.49543,1.89873c-0.07692,-0.33059 -0.16098,-0.65921 -0.25408,-0.98533c-0.08473,-0.29681 -0.16354,-0.60299 -0.24135,-0.9134zM189.85734,304.2179c0.09417,0.342 0.20005,0.68625 0.31276,1.03247c0.03208,-0.03738 0.06598,-0.07316 0.10154,-0.10721c-0.1393,-0.30833 -0.27754,-0.61651 -0.4143,-0.92525z" fill="#ffd200" stroke="none" stroke-width="0.5" stroke-linecap="butt"/><path d="M206.50003,337.00002l-15.19125,-0.02319l-10.5,-62.75" fill="none" stroke="#000000" stroke-width="3" stroke-linecap="round"/><path d="M223.30878,293.97682l26.75,32.25l7.75,11.5l-49,0.5l-25.5,-61.25" fill="none" stroke="#000000" stroke-width="3" stroke-linecap="round"/><path d="M247.30878,321.22682c-0.04673,0 -0.09201,-0.00146 -0.13587,-0.00428c-0.03767,0.00283 -0.07573,0.00428 -0.11413,0.00428c-0.52892,0 -0.9939,-0.27376 -1.26098,-0.68731l-0.93486,-1.40229c-0.83591,-0.82074 -1.64653,-1.66882 -2.07473,-2.28284c-0.23711,-0.34 -0.44524,-0.69147 -0.63055,-1.05191c-2.21134,-2.70021 -4.43179,-5.42453 -6.34695,-8.2436c0,0 -0.83205,-1.24808 0.41603,-2.08013c1.24808,-0.83205 2.08013,0.41603 2.08013,0.41603c0.46361,0.71272 0.95389,1.41882 1.46367,2.11939l-0.19723,-1.57781c-0.00957,-0.06847 -0.01452,-0.13842 -0.01452,-0.20953c0,-0.82843 0.67157,-1.5 1.5,-1.5c0.35883,0 0.68823,0.126 0.94637,0.33616l1.24067,0.99254l-0.09316,0.11645c0.18075,0.11896 0.35133,0.25227 0.50808,0.40507c0.39491,0.38497 -0.11952,1.13302 0.06349,1.65327c0.4859,1.38132 2.04878,2.89511 2.84806,4.18808c1.12481,1.81958 1.84733,4.47271 2.21609,6.56183l0.02041,0.7466c0,0 0,1.5 -1.5,1.5z" fill="#ffd200" stroke="none" stroke-width="0.5" stroke-linecap="butt"/><path d="M251.05878,324.22682l-12.75,-30.25l20.75,47" fill="none" stroke="#000000" stroke-width="2.5" stroke-linecap="round"/><path d="M263.86942,342.03748c-1.06066,1.06066 -2.12132,0 -2.12132,0l-0.93742,-0.97861c-3.94354,-5.92147 -8.43019,-11.84491 -8.50113,-19.20187c-0.76992,-1.04776 -1.75183,-2.03892 -2.30862,-3.14561c-2.07271,-4.11979 -4.66164,-9.08521 -4.69217,-13.73456c0,0 0,-1.5 1.5,-1.5c1.5,0 1.5,1.5 1.5,1.5c-0.00689,0.85146 0.07771,1.68388 0.23552,2.49992c0.5786,-0.8713 1.05503,-1.83877 1.8801,-2.46148c0.50446,-0.38073 1.28859,-0.19703 1.81589,-0.54545c1.96091,-1.29568 3.71295,-3.60142 5.73877,-4.99262c3.26502,-2.2422 7.52666,-2.92467 11.39382,-2.99426c0.28652,-1.00611 1.4359,-1.00611 1.4359,-1.00611l1.18704,0.3287c8.10642,6.49736 8.92248,17.35937 15.23426,25.23426c1.32865,1.6868 3.89888,4.77144 4.52057,6.77352c0.62611,2.01631 -0.19561,2.7123 -1.1938,4.24557c-2.98077,4.57864 -8.55203,4.03003 -13.27373,5.59097c-4.384,1.4493 -8.79917,5.19576 -13.15969,4.07635c-0.06624,0.10309 -0.1499,0.20719 -0.254,0.31128z" fill="#ffd200" stroke="none" stroke-width="0.5" stroke-linecap="butt"/><path d="M268.30878,291.22682l26.5,37.5l-34.5,13.25l-16.25,-37.25" fill="none" stroke="#000000" stroke-width="3" stroke-linecap="round"/><path d="M225.58333,225.08334l-27,-8.66667l2.33333,-6.33333l4,-4l20.66667,8" fill="none" stroke="#000000" stroke-width="2.5" stroke-linecap="round"/><path d="M221.41696,212.75001l-0.00017,10.33333" fill="none" stroke="#000000" stroke-width="2.5" stroke-linecap="round"/><path d="M201.91667,211.08334l10.66667,4" fill="none" stroke="#000000" stroke-width="2.5" stroke-linecap="round"/></g></g></svg>