<svg version="1.1" xmlns="http://www.w3.org/2000/svg" xmlns:xlink="http://www.w3.org/1999/xlink" width="151.03972" height="335.74271" viewBox="0,0,151.03972,335.74271"><g transform="translate(-179.87919,-20.98061)"><g data-paper-data="{&quot;isPaintingLayer&quot;:true}" fill-rule="nonzero" stroke-linejoin="miter" stroke-miterlimit="10" stroke-dasharray="" stroke-dashoffset="0" style="mix-blend-mode: normal"><path d="M265.71583,180.28852c0,0 -1.54351,0.11025 -1.83133,-1.32803c-0.10138,-0.00061 -0.1993,-0.00093 -0.29335,-0.00086c0,0 -1.75,0 -1.75,-1.75c0,-1.75 1.75,-1.75 1.75,-1.75c0.78207,0.00069 4.68537,0.12234 5.78596,-0.24552c0.88117,-0.29453 1.53766,-1.10917 2.43155,-1.36252c0.64191,-0.18193 1.37713,0.28569 2.00748,0.11048c0.19454,-0.13481 0.38629,-0.27396 0.57531,-0.41737c0.27988,-0.35566 0.47348,-0.83303 0.84313,-1.08807c0.37178,-0.25651 0.76228,-0.48458 1.16401,-0.6932c1.24755,-1.28168 2.35916,-2.77746 3.35862,-4.45416l0.03487,-0.0704c-0.2677,-0.20835 -0.49554,-0.53753 -0.59985,-1.05292c-0.34715,-1.71522 1.36807,-2.06238 1.36807,-2.06238c0.95281,-0.19284 1.90561,-0.38568 2.85841,-0.57853c0.00696,-0.64195 0.01751,-1.28393 0.1067,-1.91622l-0.01758,-1.08585c0,0 0,-1.75 1.75,-1.75c1.75,0 1.75,1.75 1.75,1.75l-0.01759,1.58082c-0.03505,0.24191 -0.06673,0.48113 -0.09618,0.71785c0.28461,-0.0576 0.56923,-0.11521 0.85384,-0.17281l1.63354,-0.33062c0,0 1.71522,-0.34715 2.06237,1.36807l0.00001,0.00002c0.34715,1.71522 -1.36807,2.06237 -1.36807,2.06237c-1.00774,0.20397 -2.30446,0.46641 -3.64707,0.73815c-0.29947,1.656 -0.83402,3.22163 -2.12483,4.77979c-0.63466,0.76611 -1.27024,1.27217 -1.9165,1.64851c-0.54309,0.9243 -1.13156,1.84034 -1.96294,2.6825c-1.51776,1.53744 -4.25768,2.1341 -6.85514,2.53149c-2.3175,1.18368 -4.92192,1.91827 -7.85342,2.13942z" fill="#000000" stroke="none" stroke-width="0.5" stroke-linecap="butt"/><path d="M241.29702,111.27882l1.29158,21.50449" fill="none" stroke="#000000" stroke-width="4.5" stroke-linecap="round"/><path d="M250.77286,120.43296l-0.12179,-6.62615" fill="none" stroke="#000000" stroke-width="4.5" stroke-linecap="round"/><path d="M250.90152,127.43296l0.12322,6.70374" fill="none" stroke="#000000" stroke-width="4.5" stroke-linecap="round"/><path d="M201.64258,174.59962l-0.02707,1.38301c0.37381,0.90141 0.26851,1.99628 0.79608,2.81724c2.18685,3.40301 6.53463,6.14874 9.45832,9.07243c2.94843,2.94843 5.70953,6.88699 10.11582,7.57049c0.85416,-2.87955 1.92978,-5.65286 2.7616,-8.55721c0.17881,0.33769 0.43186,0.66144 0.78415,0.94606c-0.01558,-0.0939 -0.02369,-0.19032 -0.02369,-0.28863l0.00001,-0.00001c0,-0.23694 0.04709,-0.46289 0.13242,-0.66899c-8.30573,-2.92702 -15.94299,-7.62646 -22.24608,-13.88066c-0.88849,-0.18072 -1.24831,-1.12278 -1.24831,-1.12278c-0.03133,-0.08668 -0.06393,-0.17273 -0.09776,-0.25816c-0.02885,-0.03061 -0.05768,-0.06125 -0.08648,-0.09193l-0.62529,1.75978c-0.02489,0.09178 -0.05026,0.18344 -0.07607,0.27498c0.38236,0.44136 0.38236,1.04439 0.38236,1.04439zM209.74859,189.99362c-2.81779,-2.81779 -5.81192,-5.4184 -8.38657,-8.38938c-0.41804,-0.48239 -1.15459,-0.66079 -1.48845,-1.20485c-0.24435,-0.39818 -0.40557,-0.83309 -0.53233,-1.28371c-0.42912,1.18181 -0.83786,2.36728 -1.16363,3.57155c-0.52734,1.9494 0.1947,2.48783 -0.91243,4.46895c-0.7604,1.36067 -1.30308,3.31142 -2.80029,3.745c-1.14479,0.33152 -2.09522,-0.37628 -2.86431,-1.35819c3.49054,-0.00629 3.49055,-3.49999 3.49055,-3.49999l-0.36951,-2.23191c-0.01623,-0.03145 -0.03256,-0.06278 -0.04897,-0.09397c0.99129,-3.85646 2.26841,-7.56429 3.32236,-11.47896l0.67074,-1.89565c0,0 0.41419,-1.16823 1.52858,-1.18976c-0.04043,-0.19832 -0.04923,-0.41816 0.00339,-0.64732c-1.61552,-2.08533 -3.67181,-3.95033 -5.00956,-6.16376c-1.40445,-2.32378 -2.4832,-5.13808 -3.0332,-7.78767c-0.14685,-0.70745 -1.1706,-5.42226 -0.90401,-5.89135c3.4092,-5.99881 10.27849,-1.6568 14.74445,0.91362c-0.86638,-1.54305 -1.65091,-3.11938 -2.7491,-4.74609c-0.1412,-0.20915 -3.92442,-4.43544 -4.10209,-4.80758c-1.44229,-3.02088 -1.85173,-7.40225 -2.52693,-10.67609c-0.69854,-3.38702 -1.87287,-7.05285 -2.15085,-10.49626c-0.54623,-6.76628 0.32625,-14.01157 0.81344,-20.94146c-0.15597,-0.80102 -0.35817,-1.60178 -0.61791,-2.40221c0.02572,-1.10526 -0.66448,-2.10926 -0.96495,-3.17321c-0.06905,-0.24451 -0.05443,-3.29444 -0.05443,-3.73373c0,-4.81723 -0.12946,-8.21845 3.89629,-11.50464l0.93289,-0.50367c0,0 0.63208,-0.31604 1.24547,-0.08041c0.43425,-0.88591 0.90553,-1.74611 1.41558,-2.57274c0.06817,0.01989 0.13708,0.03775 0.20663,0.05349l-0.09788,0.12195c-0.63857,0.78416 -0.93393,1.83747 -0.71767,2.90601c0.1176,0.58103 0.37281,1.09908 0.72483,1.52708c0.92809,-1.26622 1.85351,-2.51817 3.23144,-3.32528c2.30003,-1.34722 5.75807,-1.61334 8.34099,-2.13611c7.15488,-1.44812 15.43058,-2.86281 21.20989,1.51477c-0.06951,-0.33042 -0.13944,-0.66075 -0.20979,-0.99099c0.35882,-0.09163 0.7127,-0.19477 1.05847,-0.31321c0.48847,1.11177 0.90402,2.21987 1.28059,3.32942c0.39191,0.4634 0.76603,0.96599 1.12072,1.51041c0,0 0.66691,1.06737 -0.03561,1.95732c0.48486,1.63227 0.9617,3.27905 1.53604,4.95637c1.32075,3.8572 3.5932,7.3991 4.96956,11.1629c0.43023,1.17651 0.75122,2.48757 1.01841,3.84252c0.22456,-0.86865 0.4463,-1.71465 0.59332,-2.50529c0.57418,-3.08776 1.48012,-6.63662 3.29313,-9.30531c3.20414,-4.7164 8.1768,-8.2185 12.72213,-11.88043c0.88691,-0.83954 1.6645,-1.83046 2.74567,-2.37682c0.06009,-0.03037 0.12054,-0.06006 0.18133,-0.08908c0.00134,-0.0012 0.00267,-0.00239 0.00401,-0.00359c0.00027,0.00043 0.00055,0.00086 0.00082,0.00128c3.60977,-1.7209 8.43535,-1.1055 12.28127,-1.10257c1.68207,0.00128 4.02763,-0.10386 5.61022,0.44317c4.10072,1.41743 7.42919,4.29773 11.00387,6.50214c1.39843,0.86237 3.16017,1.09087 4.46288,2.092c1.44885,1.11344 2.56429,2.60415 3.82161,3.93007c1.11119,6.68772 5.16727,13.11212 6.80392,19.85889c0.29528,-0.5132 0.46416,-1.10835 0.46416,-1.74293c0,-0.67925 -0.19349,-1.31331 -0.52837,-1.85006l-1.71155,-2.85258c0.07117,-0.06776 0.1427,-0.13712 0.21461,-0.2081c0.00545,-0.00538 0.01087,-0.01076 0.01626,-0.01615c0.23961,0.49595 0.47991,0.99052 0.7211,1.48341c0.34271,0.70034 1.12547,1.13552 1.42365,1.85594c0.12399,0.29958 1.31104,6.24161 1.38201,6.59226c0.71238,3.51977 2.00337,7.0567 0.70732,10.53621c0.73079,3.37757 -0.58313,6.86528 -1.47042,10.13698c-1.59961,5.89821 -4.51622,11.54348 -8.02403,16.67564c0.85077,-0.21774 1.69453,-0.36881 2.44773,-0.01799c1.04807,0.48816 1.25433,1.97523 1.59489,3.08012c1.1606,3.7654 -0.91782,9.3256 -1.77998,12.94039c-2.44624,3.74103 -3.65738,8.20936 -6.53754,11.65317c0.59271,0.97073 0.94174,1.99115 1.8237,3.11112c1.007,1.27876 2.70112,1.97033 3.53594,3.36761c1.35303,2.26462 2.32083,5.04791 3.89959,7.36358c1.01108,1.48303 2.41969,2.81406 3.25025,4.44656c0.53159,1.04484 0.31254,2.50137 1.14724,3.32448c0.56563,0.55776 1.34911,-0.87729 1.87066,-1.47647c0.87797,-1.11827 1.80694,-2.17033 2.74414,-3.20438c-1.68237,2.75093 -3.56579,5.41492 -5.73388,7.99417c-0.19586,-0.07493 -0.39974,-0.16506 -0.61238,-0.27163c-1.61672,-0.81018 -2.2721,-4.56128 -3.38052,-6.05166c-2.5294,-3.40103 -4.34844,-6.95537 -6.30743,-10.54322c-0.35516,-0.65046 -0.97883,-1.07829 -1.61395,-1.50152c-1.90913,8.60635 -12.03387,12.95962 -18.92248,17.10831l-0.44132,0.26479c0.32303,1.37815 0.85225,2.67862 1.20402,4.04726c0.85494,3.32634 1.214,7.51309 1.87078,11.00324c0.57651,3.06358 1.65398,5.90538 2.11708,9.01093c0.41109,2.75675 0.02851,5.6464 0.02851,8.46965c0,3.94485 0.4314,8.829 -0.05733,12.6653c-0.1085,0.85171 -0.78865,1.37962 -0.90284,2.22969c-0.21771,1.62083 -0.24475,2.98376 -0.31775,4.26843c-1.09301,0.28084 -2.19213,0.53066 -3.29647,0.75274c-1.00529,1.33523 -2.01658,2.65854 -2.84076,4.154c-0.32536,0.59036 -0.31601,1.39416 -0.74929,1.89648c-0.54252,0.62897 -2.00747,1.40702 -3.02426,2.10381c2.42275,-0.25371 4.83568,-0.59276 7.23471,-1.04423c-0.38034,0.51272 -0.78337,0.98006 -1.20481,1.4085c-2.09837,-0.01684 -4.46051,-0.0202 -6.49809,-0.02092c-0.05613,0.04498 -0.10913,0.0894 -0.15859,0.13319c-1.12382,0.9952 -2.10185,2.26304 -3.42088,2.9188c-2.22019,1.10377 -4.48969,0.80651 -6.84078,0.80651c-3.38223,0 -6.76446,0 -10.1467,0c-0.66981,0 -1.33962,0 -2.00943,0c-0.84622,0.14774 -1.6994,0.27093 -2.56764,0.33616c-2.37965,0.17877 -5.41455,1.35912 -7.81186,0.6053c-1.56311,-0.49151 -2.69128,-1.78037 -3.57783,-3.20358c-0.24051,-0.06872 -0.476,-0.1515 -0.7014,-0.26193c-2.52856,-1.23883 -6.73245,-4.78337 -8.16153,-7.43751c-0.63911,-1.18697 -0.25935,-2.48798 -0.3481,-3.68524c-0.12959,0.00206 -0.25916,0.00408 -0.38853,0.00669c-0.29674,-2.29309 -2.12502,-2.80069 -2.91991,-2.91306c-1.57817,-3.44186 -2.85488,-7.2574 -4.09352,-10.67247c-0.20184,-12.147 -0.0755,-24.35121 2.13804,-36.07652c0.06159,-0.32622 0.12814,-0.64998 0.19909,-0.97159c-5.01682,-1.05138 -8.02442,-4.89941 -11.47835,-8.35333zM275.18968,198.03804c-0.26594,-0.44323 -0.28751,-0.82537 -0.20154,-1.13588c-0.575,-1.73845 -1.50207,-3.20811 -2.14309,-4.90505c-0.23844,-0.63121 -0.47127,-1.2794 -0.69908,-1.94174c0.43007,-0.42691 0.71022,-0.86496 0.88103,-1.29565c-0.54397,-0.34821 -1.19061,-0.55008 -1.88441,-0.55008c-0.77486,0 -1.49091,0.2518 -2.07079,0.67804c-0.0173,-0.05974 -0.03458,-0.1195 -0.05184,-0.17928c-2.00346,0.37059 -3.98544,0.7024 -5.96757,0.99719l0.53774,0.36129c0.09321,0.07695 0.19011,0.14838 0.28995,0.21544c-0.36457,-0.17209 -0.7328,-0.33525 -1.10429,-0.48902c0,0 -2.00432,-0.80173 -3.49442,0.4282c-0.45342,0.05661 -0.90756,0.11137 -1.36266,0.16428c1.09701,0.04431 2.17504,0.07386 3.22388,0.07386c6.11273,0 9.19901,3.95807 11.47447,9.07312c3.33796,7.50349 3.77553,16.18147 3.77553,24.51021c0,6.44445 0,12.88888 0,19.33333c0,1.76003 0.34243,4.0995 0.26803,6.14679c1.00525,-1.33317 2.02613,-2.65281 2.87004,-4.15812c0.04154,-0.43615 0.09231,-0.89221 0.15729,-1.37145c0.11522,-0.84976 0.78852,-1.37966 0.90284,-2.2297c0.45156,-3.35772 -0.05732,-7.95434 -0.05732,-11.41542c0,-2.5281 0.41462,-5.12167 0.02851,-7.58418c-0.46686,-2.97752 -1.50333,-5.70415 -2.05966,-8.64772c-0.6325,-3.3466 -0.94774,-7.4198 -1.77711,-10.58077c-0.47354,-1.80479 -1.17413,-3.5224 -1.47183,-5.39782c-0.02159,-0.03182 -0.04283,-0.06509 -0.06369,-0.09987zM292.25141,184.39993c1.39358,-2.0024 2.49974,-2.64667 2.73958,-5.01244c0,0 0.1092,-0.76441 0.71934,-1.11798c-0.42511,-0.80038 -0.55625,-1.47078 -0.92408,-2.103c-2.25833,1.64163 -5.10279,2.78519 -7.32691,4.36557c-1.76751,1.25592 -3.67994,2.30881 -5.38819,3.6442c-0.60479,0.47278 -0.85408,1.33744 -1.50663,1.74175c-0.07056,0.04372 -0.14281,0.08638 -0.21666,0.12802c-0.058,-0.00307 -0.09007,-0.00307 -0.09007,-0.00307l-2.34826,0.01737c-1.54229,0.16626 -2.4935,0.20986 -3.34016,0.33359c0.31221,1.18419 0.65621,2.33059 1.05737,3.38185l0.00001,-0.00002c0.65009,1.70356 1.47193,3.2779 2.1036,4.99142c5.04521,-2.96048 11.10055,-5.45246 14.52105,-10.36727zM198.97592,110.59963c0,1.95935 -0.42732,4.47456 -0.02707,6.383c0.88017,4.19671 1.13873,8.43525 1.99794,12.65616c0,0 0.18446,0.9223 -0.46909,1.4523c0.40384,2.50677 0.82169,5.27467 1.77768,7.32804c0.83271,1.78859 2.79101,2.82149 3.89465,4.45686c2.03873,3.02097 2.83186,5.81137 5.35175,8.54411c0,0 0.20015,0.21916 0.34535,0.55939c0.40156,0.12408 0.75431,0.23209 1.02125,0.31745c6.27039,3.53927 12.99479,5.35307 20.03175,6.63649l1.90256,1.38395c1.35376,-0.37337 2.60803,-0.72412 3.64697,-0.9344c0.51296,-0.10382 1.04488,-0.2277 1.59079,-0.36394c-2.19168,-4.17399 -3.18507,-9.21589 -3.51283,-13.80085c-0.11946,-1.67106 -0.60046,-6.75292 3.21175,-6.46436c3.94974,0.29897 3.81996,4.10581 4.44758,6.55527c1.02042,3.98246 1.91561,7.96196 2.7554,11.97518c1.36355,-0.26388 2.69407,-0.42512 3.92616,-0.3826c2.62698,0.09066 5.25882,0.80447 7.78189,1.26574c2.74845,0.50247 5.34683,0.75079 7.83098,1.63324c0.19959,-0.69312 0.85923,-1.07206 0.85923,-1.07206l1.43859,-0.72288c1.09737,-0.17517 1.94167,-1.08589 2.95018,-1.55259c2.38047,-1.1016 5.6017,-0.89839 8.07929,-1.68662c4.15287,-1.32121 8.71679,-3.50709 12.67396,-5.24773c1.31158,-0.57692 2.42385,-1.21368 3.59239,-1.7528c1.67525,-2.09288 3.30889,-4.1726 4.69527,-6.50018c1.20832,-2.02864 1.65892,-4.42628 2.66047,-6.53649c2.26045,-4.76263 5.0987,-10.09225 4.06079,-15.55865c0.49227,-1.45263 0.56097,-2.82372 0.42516,-4.18997c-1.22628,0.06084 -1.65244,-1.21763 -1.65244,-1.21763l0.00001,-0.00002l-0.73387,-2.27308c0.01696,-4.31226 -2.16493,-8.0268 -3.2912,-12.14211c-0.67378,-2.46195 -1.24428,-5.08712 -2.26079,-7.45879c-0.63586,-1.48355 -1.43504,-2.95994 -1.61919,-4.56347c-2.52188,-2.33035 -4.18716,-2.88683 -7.04884,-4.6446c-3.40905,-2.09399 -6.46607,-4.72574 -10.32946,-6.16453c-0.82675,-0.3079 -3.56078,-0.22416 -4.38978,-0.2235c-3.30671,0.00265 -7.79845,-0.70186 -10.8659,0.80604c-0.02409,0.01184 -0.04796,0.02399 -0.07163,0.03642c-0.11712,0.10106 -0.23339,0.19898 -0.34882,0.29333c-0.29207,0.23874 -0.59028,0.47989 -0.89348,0.72344c-0.45489,0.48468 -0.88117,1.01298 -1.39362,1.42395c0,0 -0.37108,0.29686 -0.88119,0.38782c-3.85766,3.06876 -8.04194,6.48455 -10.58343,10.244c-3.46123,5.11997 -2.145,11.43877 -4.37589,16.87114c-0.00929,0.02263 -0.01868,0.04519 -0.02817,0.06772l0.01065,0.00288l-0.76795,2.84157c-0.1576,0.63583 -0.66741,1.15667 -1.35213,1.29525c-0.94729,0.19173 -1.87064,-0.42078 -2.06238,-1.36807l-0.42981,-2.1236c-0.64384,-3.18109 -0.94333,-7.29911 -2.07129,-10.34777c-1.40716,-3.80331 -3.68662,-7.3942 -5.01873,-11.30215c-0.65888,-1.93292 -1.17625,-3.82039 -1.73356,-5.69136c0.19935,-0.20063 0.35698,-0.4183 0.48112,-0.64248c-4.26447,-6.92551 -14.00038,-4.64922 -20.68944,-3.29538c-2.1382,0.43277 -5.26809,0.60913 -7.20878,1.69128c-2.25707,1.25855 -3.27622,4.46279 -5.53321,6.02214c-0.13256,0.20893 -0.26513,0.41786 -0.39769,0.6268c-0.82948,3.22728 -1.26377,6.50804 -1.38201,9.44921c-0.07164,1.69513 -0.18989,3.42072 -0.32504,5.16338c0.51364,3.65003 0.30715,7.32975 0.30715,11.13111zM233.75177,195.15802c-1.03448,0.20604 -2.08358,0.40654 -2.96606,0.95682c0,0 -1.07187,0.64312 -1.71499,-0.42874c-0.64312,-1.07187 0.42874,-1.71499 0.42874,-1.71499c1.35761,-0.79074 2.96349,-1.06731 4.495,-1.4178c2.45504,-0.56185 4.70188,-1.60763 7.16347,-2.05647c-0.72965,-0.23354 -1.46286,-0.44841 -2.21856,-0.53753c-1.33605,-0.15758 -2.66466,-0.35841 -3.98347,-0.60176c-0.05689,0.1051 -0.11253,0.21036 -0.16697,0.31579c-0.47181,-0.13621 -0.94621,-0.26537 -1.42404,-0.38461c0.09181,-0.81232 -0.12662,-1.76648 -1.08077,-2.72063c-2.47487,-2.47487 -4.94975,0 -4.94975,0l-1.16143,1.67628c0.10909,0.05567 0.22441,0.10843 0.34627,0.15797c0.41073,0.16697 0.78763,0.25328 1.1325,0.27728c-1.17189,3.95768 -2.8067,7.7352 -3.56733,11.82702c-2.07378,11.15608 -1.82457,22.22623 -2.13565,33.71388c0.4501,1.15412 0.89976,2.37656 1.36519,3.61913c0.10582,-0.05384 0.22946,-0.09598 0.37383,-0.12206c1.17289,-0.21191 1.36837,1.05955 1.36837,1.05955l0.26003,1.82895c0.31483,0.56641 0.62966,1.13281 0.94449,1.69922c0.40501,2.11499 1.07982,2.58462 1.84181,4.32511c0.20921,0.47787 0.26523,1.05406 0.27808,1.65396c0.07754,0.10181 0.15587,0.20211 0.23499,0.30085c-0.20537,-0.91562 0.05339,-1.83138 -0.05017,-2.75243c-0.5003,-4.44921 -0.33942,-8.95997 -0.33942,-13.45651c0,-3.54002 -0.42033,-9.19376 1.73081,-12.06195c-0.06786,-2.58972 0.55544,-3.20962 1.30263,-5.55857c0.32323,-1.01615 -0.12839,-2.13767 -0.02407,-3.19887c0.16988,-1.72807 0.68211,-3.30973 1.00271,-5.02065c0.69508,-3.70939 0.06967,-7.91955 1.51377,-11.37824zM273.21377,187.05066c0.21579,-0.14686 0.41494,-0.31982 0.59368,-0.51479c-0.38477,0.08909 -0.77912,0.20887 -1.23182,0.37966c0.09217,0.31985 0.1816,0.64163 0.26784,0.96566c0.07082,0.26611 0.14083,0.53584 0.21041,0.80841c0.21324,-0.57625 0.23395,-1.13744 0.1599,-1.63894zM196.76315,84.00027l0.26058,-0.39284c0.04357,-0.06369 0.08714,-0.12738 0.1307,-0.19106c0.22386,-0.82428 0.47165,-1.64395 0.74444,-2.4541c-0.71309,0.97226 -1.03821,1.99748 -1.1804,3.11319c0.02699,-0.04852 0.04468,-0.07519 0.04468,-0.07519zM230.62954,252.45621c-0.42273,-1.28078 -1.47814,-2.28641 -1.92489,-3.55901c-0.01271,-0.03619 -0.02454,-0.07238 -0.03555,-0.10856c-0.07792,0.01409 -0.15589,0.02788 -0.23392,0.04134c-0.01727,0.00298 -0.03455,0.00589 -0.05185,0.00874c-0.00522,0.96544 -0.03465,1.93324 0.35328,2.60397c0.40342,0.69751 1.34268,1.3675 2.0695,1.94738c-0.03921,-0.31789 -0.07854,-0.63684 -0.17658,-0.93386zM237.02647,194.59352l-0.24113,0.23032c-1.66906,1.9197 -0.72824,3.47977 -1.44457,5.90865c-1.00324,3.40169 -1.25954,7.54963 -1.62421,11.12988c-0.0103,0.10118 0.04173,3.23776 -0.02407,3.46779c-0.544,1.90161 -1.32198,3.79731 -1.36404,5.77476c-2.03153,2.70872 -1.60252,7.90741 -1.60252,11.27138c0,4.41543 -0.15259,8.84202 0.32725,13.21017c0.09445,0.85977 -0.26106,1.78604 0.04666,2.59439c0.46633,1.22503 1.48605,2.2016 1.88914,3.44887c0.18903,0.58492 -0.0015,1.29672 0.33005,1.81435c0.74101,1.15691 2.06117,1.84367 2.88688,2.94173c0.22638,0.44922 0.4768,1.00769 0.76522,1.58486c0.70991,0.22029 1.40405,0.45994 2.02572,0.83102c0.55208,0.32954 0.88581,1.01199 1.45127,1.31369c0.92565,0.49387 2.06265,-0.07266 3.09434,-0.07266c2.06155,0 4.1231,0 6.18465,0c1.76092,-0.32527 3.49822,-0.7294 5.2923,-0.91032c4.7264,-0.47661 9.45066,-0.19937 13.83598,-2.30597c2.42831,0.17153 4.36569,-3.48425 5.07063,-5.7373c0.65228,-2.08476 -0.03344,-5.53293 -0.03344,-7.71281c0,-6.44445 0,-12.88888 0,-19.33333c0,-7.97877 -0.37788,-16.3285 -3.5578,-23.48979c-1.87795,-4.22922 -4.12195,-7.59355 -9.1922,-7.59355c-4.22222,0 -8.44445,0 -12.66666,0c-2.07026,0 -4.72559,-0.40524 -6.76362,-0.02255c-1.53385,0.28802 -2.96399,0.78765 -4.41813,1.26178c-0.11499,0.24193 -0.2677,0.39464 -0.2677,0.39464zM274.27455,182.25147c1.62484,-0.64993 2.27477,0.9749 2.27477,0.9749l0.20727,0.51818c0.74273,-0.19309 1.39495,-0.42668 1.83392,-0.71666c0.54694,-0.3613 0.7149,-1.12962 1.23146,-1.53316c1.7826,-1.39263 3.76628,-2.50788 5.61137,-3.81657c2.12991,-1.51071 5.0194,-2.61199 7.17482,-4.21979l-0.0635,-0.11218c0,0 -0.34715,-1.71522 1.36807,-2.06238l-0.00001,-0.00002c0.35179,-0.0712 0.64603,-0.05564 0.89153,0.01407c2.47211,-3.12543 3.50091,-7.13829 5.73177,-10.44878c0.67766,-3.05715 1.4233,-6.1022 1.60078,-9.24128c0.03052,-0.53978 -0.06212,-1.0815 -0.03621,-1.62152c0.01156,-0.24087 0.3889,-0.71854 0.14798,-0.70815c-1.26808,0.05468 -2.55641,0.52005 -3.81341,1.11541c-0.2415,0.30827 -0.48458,0.61414 -0.72906,0.91756l-1.53126,1.40557c0,0 -1.19506,1.09145 -2.33627,0.02582c-1.08029,0.44169 -2.27569,0.55949 -3.37466,0.95772c-3.28475,1.19027 -6.20197,3.32643 -9.54697,4.38621c-2.07887,0.65865 -5.59104,0.49361 -7.60273,1.48735c-1.19439,0.59 -2.30337,1.42905 -3.57812,1.79459c0.51045,0.17813 1.02091,0.35628 1.53136,0.53441l2.00429,1.02642c0,0 1.55623,0.80041 0.75582,2.35664c-0.80041,1.55623 -2.35663,0.75582 -2.35663,0.75582l-1.7918,-0.92601c-0.6399,-0.23012 -1.2798,-0.46024 -1.91969,-0.69035c-3.10201,-2.09474 -6.45666,-2.18072 -10.05996,-2.83937c-2.28378,-0.41745 -4.60814,-1.05706 -6.99787,-1.18438c-1.09945,-0.05858 -2.16423,0.32281 -3.23537,0.63458c-0.002,0.34712 -0.08308,0.87094 -0.4896,1.25624c0.10082,0.06963 0.20349,0.13835 0.30808,0.20615c0,0 1.45832,0.96738 0.49095,2.42569c-0.96737,1.45831 -2.42569,0.49095 -2.42569,0.49095c-1.31634,-0.88969 -2.45555,-1.9746 -3.4387,-3.20227c-2.07812,0.4206 -4.15624,0.8412 -6.23437,1.26181c-4.53569,0.918 -9.29204,2.77811 -13.68918,1.11039c0,0 -1.61972,-0.66258 -0.95713,-2.2823c0.66259,-1.61972 2.2823,-0.95713 2.2823,-0.95713c1.41702,0.64623 3.30948,0.64585 5.332,0.35022c-6.05833,-1.30584 -11.86536,-3.15052 -17.36573,-6.18642c-4.4018,-1.38657 -7.90969,-4.18122 -12.2124,-5.60011c-0.78141,-0.25769 -4.12968,-1.49493 -4.761,0.04042c-0.17853,0.43419 0.42577,0.84372 0.55072,1.29625c0.2366,0.85682 0.35754,1.74147 0.529,2.61366c1.26287,6.42418 6.72234,10.15957 9.3893,15.75345c9.15852,9.53024 21.37809,15.22273 34.45811,16.88116c1.7681,0.22418 3.40696,1.15506 5.18174,1.31813c1.73422,0.15935 4.99761,-0.17113 6.69121,-0.30292c6.91608,-0.53515 13.33104,-1.458 20.14966,-2.83805c0.43527,-0.0881 1.07347,-0.17752 1.79937,-0.28318c-0.11392,-0.40604 -0.31791,-1.60175 1.01968,-2.13679zM240.01155,144.88288c0.15355,1.09555 0.44663,2.16698 0.66757,3.25095c0.03689,0.18098 0.0732,0.36174 0.1091,0.54223c0.50267,-0.10002 0.91951,0.07598 1.21598,0.28441c-0.51612,-2.26847 -1.17374,-4.43964 -2.10169,-6.34369c0.0716,0.7526 0.00408,1.51723 0.10904,2.2661z" fill="#000000" stroke="none" stroke-width="0.5" stroke-linecap="butt"/><path d="M201.60263,174.56957c0,0 0.00119,-0.60454 -0.38117,-1.0459c0.02581,-0.09154 0.05171,-0.18384 0.0766,-0.27562l0.6289,-1.76363c0.0288,0.03068 0.1269,0.13344 0.15575,0.16405c0.03383,0.08543 0.06667,0.17125 0.098,0.25793c0,0 0.29034,0.87014 1.17883,1.05086c6.30309,6.2542 14.02312,11.00314 22.32885,13.93016c-0.08533,0.2061 -0.13321,0.43461 -0.13321,0.67155l-0.00001,0.00001c0,0.09831 -0.08632,0.16183 -0.07074,0.25573c-0.35229,-0.28462 -0.51042,-0.57701 -0.68923,-0.9147c-0.83182,2.90435 -1.92627,5.70393 -2.78043,8.58348c-4.40629,-0.6835 -7.21337,-4.61571 -10.1618,-7.56414c-2.92369,-2.92369 -7.30057,-5.73599 -9.48742,-9.139c-0.52757,-0.82096 -0.41847,-1.92307 -0.79228,-2.82448l0.02935,-1.3863z" data-paper-data="{&quot;noHover&quot;:false,&quot;origItem&quot;:[&quot;Path&quot;,{&quot;applyMatrix&quot;:true,&quot;segments&quot;:[[201.64258,174.59962],[[201.61551,175.98263],[0,0],[0.37381,0.90141]],[[202.41159,178.79987],[-0.52757,-0.82096],[2.18685,3.40301]],[[211.86991,187.8723],[-2.92369,-2.92369],[2.94843,2.94843]],[[221.98573,195.44279],[-4.40629,-0.6835],[0.85416,-2.87955]],[[224.74733,186.88558],[-0.83182,2.90435],[0.17881,0.33769]],[[225.53148,187.83164],[-0.35229,-0.28462],[-0.01558,-0.0939]],[[225.50779,187.54301],[0,0.09831],[0,0]],[[225.5078,187.543],[0,0],[0,-0.23694]],[[225.64022,186.87401],[-0.08533,0.2061],[-8.30573,-2.92702]],[[203.39414,172.99335],[6.30309,6.2542],[-0.88849,-0.18072]],[[202.14583,171.87057],[0,0],[-0.03133,-0.08668]],[[202.04807,171.61241],[0.03383,0.08543],[-0.02885,-0.03061]],[[201.96159,171.52048],[0.0288,0.03068],[0,0]],[[201.3363,173.28026],[0,0],[-0.02489,0.09178]],[[201.26023,173.55524],[0.02581,-0.09154],[0.38236,0.44136]],[201.64259,174.59963]],&quot;closed&quot;:true,&quot;fillColor&quot;:[0,0,0,1]}]}" fill="#fff196" stroke="none" stroke-width="0.5" stroke-linecap="butt"/><path d="M292.30085,184.3925c-3.4205,4.91481 -9.55644,7.45331 -14.60165,10.41379c-0.63167,-1.71352 -1.4679,-3.30634 -2.11799,-5.0099l-0.00001,0.00002c-0.40116,-1.05126 -0.74942,-2.21392 -1.06163,-3.39811c0.84666,-0.12373 1.89751,-0.17579 3.4398,-0.34205l2.34808,-0.01914c0,0 -0.06722,0.01186 -0.00922,0.01493c0.07385,-0.04164 0.14598,-0.08539 0.21654,-0.12911c0.65255,-0.40431 0.90551,-1.29326 1.5103,-1.76604c1.70825,-1.33539 3.68804,-2.41415 5.45555,-3.67007c2.22412,-1.58038 5.08331,-2.71339 7.34164,-4.35502c0.36783,0.63222 0.5043,1.30918 0.92941,2.10956c-0.61014,0.35357 -0.71812,1.11986 -0.71812,1.11986c-0.23984,2.36577 -1.3391,3.02888 -2.73268,5.03128z" data-paper-data="{&quot;noHover&quot;:false,&quot;origItem&quot;:[&quot;Path&quot;,{&quot;applyMatrix&quot;:true,&quot;segments&quot;:[[[292.25141,184.39993],[0,0],[1.39358,-2.0024]],[[294.99099,179.38749],[-0.23984,2.36577],[0,0]],[[295.71033,178.26951],[-0.61014,0.35357],[-0.42511,-0.80038]],[[294.78625,176.16651],[0.36783,0.63222],[-2.25833,1.64163]],[[287.45934,180.53208],[2.22412,-1.58038],[-1.76751,1.25592]],[[282.07115,184.17628],[1.70825,-1.33539],[-0.60479,0.47278]],[[280.56452,185.91803],[0.65255,-0.40431],[-0.07056,0.04372]],[[280.34786,186.04605],[0.07385,-0.04164],[-0.058,-0.00307]],[280.25779,186.04298],[[277.90953,186.06035],[0,0],[-1.54229,0.16626]],[[274.56937,186.39394],[0.84666,-0.12373],[0.31221,1.18419]],[[275.62674,189.77579],[-0.40116,-1.05126],[0,0]],[[275.62675,189.77577],[0,0],[0.65009,1.70356]],[[277.73035,194.76719],[-0.63167,-1.71352],[5.04521,-2.96048]],[[292.2514,184.39992],[-3.4205,4.91481],[0,0]]],&quot;closed&quot;:true,&quot;fillColor&quot;:[0,0,0,1]}]}" fill="#fff196" stroke="none" stroke-width="0.5" stroke-linecap="butt"/><path d="M241.69709,192.88945c2.03803,-0.38269 4.70271,0.02053 6.77296,0.02053c4.22222,0 8.46285,0.00125 12.68507,0.00125c5.07025,0 7.33006,3.37154 9.20801,7.60076c3.17992,7.16129 3.57912,15.54641 3.57912,23.52518c0,6.44445 -0.01033,12.92555 -0.01033,19.36999c0,2.17989 0.67931,5.63481 0.02703,7.71957c-0.70494,2.25305 -2.65143,5.91516 -5.07974,5.74363c-4.38533,2.10661 -9.12948,1.83525 -13.85587,2.31186c-1.79408,0.18092 -3.53936,0.58504 -5.30028,0.91031c-2.06155,0 -4.1319,-0.00151 -6.19345,-0.00151c-1.03169,0 -2.17267,0.56529 -3.09832,0.07142c-0.56546,-0.30169 -0.90161,-0.98508 -1.45369,-1.31462c-0.62167,-0.37108 -1.31865,-0.61202 -2.02857,-0.83231c-0.28842,-0.57716 -0.54066,-1.13657 -0.76704,-1.58579c-0.82571,-1.09806 -2.15094,-1.78799 -2.89195,-2.9449c-0.33155,-0.51763 -0.14268,-1.23067 -0.33172,-1.81559c-0.4031,-1.24728 -1.42728,-2.22776 -1.89362,-3.45279c-0.30772,-0.80835 0.04556,-1.73697 -0.04889,-2.59674c-0.47984,-4.36814 -0.33819,-8.81501 -0.33819,-13.23044c0,-3.36397 -0.42899,-8.58868 1.60254,-11.29739c0.04206,-1.97744 0.82539,-3.88576 1.36939,-5.78737c0.06581,-0.23003 0.01733,-3.3718 0.02763,-3.47298c0.36468,-3.58025 0.6327,-7.73902 1.63594,-11.14071c0.71633,-2.42888 -0.219,-3.9921 1.45006,-5.9118l0.24154,-0.23052c0,0 0.15323,-0.15296 0.26823,-0.39491c1.45414,-0.47413 2.89027,-0.97612 4.42412,-1.26413z" data-paper-data="{&quot;noHover&quot;:false,&quot;origItem&quot;:[&quot;Path&quot;,{&quot;applyMatrix&quot;:true,&quot;segments&quot;:[[[237.29418,194.19886],[1.45414,-0.47413],[-0.11499,0.24194]],[237.02647,194.59352],[[236.78534,194.82384],[0,0],[-1.66906,1.9197]],[[235.34077,200.73249],[0.71633,-2.42888],[-1.00324,3.40169]],[[233.71655,211.86237],[0.36468,-3.58025],[-0.0103,0.10118]],[[233.69248,215.33016],[0.06581,-0.23003],[-0.544,1.90161]],[[232.32844,221.10492],[0.04206,-1.97744],[-2.03153,2.70872]],[[230.72592,232.3763],[0,-3.36397],[0,4.41543]],[[231.05317,245.58647],[-0.47984,-4.36814],[0.09445,0.85977]],[[231.09983,248.18086],[-0.30772,-0.80835],[0.46633,1.22503]],[[232.98897,251.62973],[-0.4031,-1.24728],[0.18903,0.58492]],[[233.31902,253.44408],[-0.33155,-0.51763],[0.74101,1.15691]],[[236.2059,256.38581],[-0.82571,-1.09806],[0.22638,0.44922]],[[236.97113,257.97066],[-0.28842,-0.57716],[0.70991,0.22029]],[[238.99685,258.80168],[-0.62167,-0.37108],[0.55208,0.32954]],[[240.44812,260.11537],[-0.56546,-0.30169],[0.92565,0.49387]],[[243.54246,260.04271],[-1.03169,0],[2.06155,0]],[[249.72711,260.04271],[-2.06155,0],[1.76092,-0.32527]],[[255.01941,259.13239],[-1.79408,0.18092],[4.7264,-0.47661]],[[268.8554,256.82641],[-4.38533,2.10661],[2.42831,0.17153]],[[273.92603,251.08911],[-0.70494,2.25305],[0.65228,-2.08476]],[[273.89259,243.3763],[0,2.17989],[0,-6.44445]],[[273.89259,224.04297],[0,6.44445],[0,-7.97877]],[[270.33479,200.55318],[3.17992,7.16129],[-1.87795,-4.22922]],[[261.14259,192.95964],[5.07025,0],[-4.22222,0]],[[248.47592,192.95964],[4.22222,0],[-2.07026,0]],[[241.7123,192.93708],[2.03803,-0.38269],[-1.53385,0.28802]]],&quot;closed&quot;:true}]}" fill="#fff196" stroke="none" stroke-width="0.5" stroke-linecap="butt"/><path d="M232.23474,206.58615c-0.3206,1.71092 -0.82668,3.29259 -0.99656,5.02067c-0.10432,1.06121 0.35082,2.1824 0.02759,3.19855c-0.74719,2.34895 -1.35506,2.87429 -1.2872,5.46401c-2.15114,2.86819 -1.74206,8.51804 -1.74206,12.05806c0,4.49654 -0.16632,9.00643 0.33398,13.45564c0.10357,0.92105 -0.15571,1.83676 0.04965,2.75238c-0.07912,-0.09874 -0.16713,-0.09951 -0.24467,-0.20132c-0.01284,-0.59991 -0.0696,-1.17618 -0.27881,-1.65405c-0.76199,-1.7405 -1.44126,-2.21085 -1.84627,-4.32584c-0.31483,-0.56641 -0.63219,-1.13342 -0.94702,-1.69982l-0.26155,-1.82937c0,0 -0.19894,-1.27263 -1.37183,-1.06072c-0.14437,0.02608 -0.26865,0.06797 -0.37447,0.12181c-0.46543,-1.24257 -0.92107,-2.46785 -1.37117,-3.62197c0.31108,-11.48765 0.06565,-22.64701 2.13944,-33.80309c0.76063,-4.09182 2.40922,-7.87331 3.58111,-11.83099c-0.34486,-0.024 -0.70629,-0.01153 -1.11702,-0.1785c-0.12187,-0.04954 -0.25503,-0.2007 -0.36412,-0.25637l1.16376,-1.67665c0,0 2.48293,-2.47533 4.95781,-0.00046c0.95415,0.95415 1.17464,1.90839 1.08283,2.72072c0.47783,0.11924 0.95484,0.24864 1.42665,0.38485c0.05444,-0.10542 0.1103,-0.21066 0.1672,-0.31576c1.31882,0.24335 2.65448,0.44557 3.99053,0.60314c0.7557,0.08912 1.45872,0.39924 2.18837,0.63279c-2.46159,0.44884 -4.69638,1.49735 -7.15141,2.0592c-1.53151,0.35049 -3.128,0.62712 -4.4856,1.41785c0,0 -1.08208,0.54365 -0.43896,1.61552c0.64312,1.07187 1.71893,0.42844 1.71893,0.42844c0.88247,-0.55027 1.93841,-0.75056 2.9729,-0.9566c-1.4441,3.45869 -0.82694,7.76849 -1.52202,11.47788z" data-paper-data="{&quot;noHover&quot;:false,&quot;origItem&quot;:[&quot;Path&quot;,{&quot;applyMatrix&quot;:true,&quot;segments&quot;:[[[233.75177,195.15802],[-1.4441,3.45869],[-1.03448,0.20604]],[[230.78571,196.11484],[0.88247,-0.55027],[0,0]],[[229.07072,195.68609],[0.64312,1.07187],[-0.64312,-1.07187]],[[229.49947,193.97111],[0,0],[1.35761,-0.79074]],[[233.99447,192.5533],[-1.53151,0.35049],[2.45504,-0.56185]],[[241.15794,190.49684],[-2.46159,0.44884],[-0.72965,-0.23354]],[[238.93938,189.9593],[0.7557,0.08912],[-1.33605,-0.15758]],[[234.95591,189.35755],[1.31882,0.24335],[-0.05689,0.1051]],[[234.78894,189.67333],[0.05444,-0.10542],[-0.47181,-0.13621]],[[233.3649,189.28872],[0.47783,0.11924],[0.09181,-0.81232]],[[232.28413,186.5681],[0.95415,0.95415],[-2.47487,-2.47487]],[227.33438,186.5681],[[226.17294,188.24437],[0,0],[0.10909,0.05567]],[[226.51922,188.40235],[-0.12187,-0.04954],[0.41073,0.16697]],[[227.65171,188.67962],[-0.34486,-0.024],[-1.17189,3.95768]],[[224.08438,200.50664],[0.76063,-4.09182],[-2.07378,11.15608]],[[221.94873,234.22052],[0.31108,-11.48765],[0.4501,1.15412]],[[223.31392,237.83965],[-0.46543,-1.24257],[0.10582,-0.05384]],[[223.68775,237.71759],[-0.14437,0.02608],[1.17289,-0.21191]],[225.05612,238.77714],[[225.31615,240.60609],[0,0],[0.31483,0.56641]],[[226.26064,242.30531],[-0.31483,-0.56641],[0.40501,2.11499]],[[228.10245,246.63042],[-0.76199,-1.7405],[0.20921,0.47787]],[[228.38052,248.28439],[-0.01284,-0.59991],[0.07754,0.10181]],[[228.61551,248.58524],[-0.07912,-0.09874],[-0.20537,-0.91562]],[[228.56534,245.83281],[0.10357,0.92105],[-0.5003,-4.44921]],[[228.22592,232.3763],[0,4.49654],[0,-3.54002]],[[229.95673,220.31435],[-2.15114,2.86819],[-0.06786,-2.58972]],[[231.25936,214.75578],[-0.74719,2.34895],[0.32323,-1.01615]],[[231.23529,211.55691],[-0.10432,1.06121],[0.16988,-1.72807]],[[232.238,206.53626],[-0.3206,1.71092],[0.69508,-3.70939]]],&quot;closed&quot;:true}]}" fill="#0077ff" stroke="none" stroke-width="0.5" stroke-linecap="butt"/><path d="M257.93733,190.43217c0.45511,-0.05291 0.87405,-0.20123 1.32747,-0.25785c1.49009,-1.22993 3.49997,-0.42979 3.49997,-0.42979c0.37149,0.15377 0.74135,0.3166 1.10592,0.48868c-0.09984,-0.06706 -0.17754,-0.04035 -0.27076,-0.1173l-0.55809,-0.45919c1.98213,-0.29479 3.97412,-0.62773 5.97758,-0.99832c0.01726,0.05978 0.03462,0.11953 0.05192,0.17928c0.57988,-0.42624 1.29931,-0.67796 2.07418,-0.67796c0.6938,0 1.34358,0.20216 1.88755,0.55036c-0.17082,0.43069 -0.46187,0.96814 -0.89193,1.39505c0.2278,0.66234 0.47193,1.21119 0.71037,1.8424c0.71404,1.89026 1.78974,3.49986 2.33166,5.51176c0.22282,2.12573 1.03766,4.02636 1.56373,6.03138c0.82936,3.16097 1.16732,7.2562 1.79981,10.6028c0.55633,2.94357 1.59565,5.70965 2.06251,8.68716c0.38611,2.46251 -0.04085,5.07548 -0.04085,7.60358c0,3.46108 0.49603,8.06676 0.04447,11.42449c-0.11431,0.85003 -0.79063,1.38129 -0.90585,2.23106c-0.06498,0.47924 -0.11684,0.93574 -0.15838,1.37188c-0.84391,1.50531 -1.87112,2.82692 -2.87637,4.16008c0.07441,-2.04729 -0.29344,-4.48345 -0.29344,-6.24348c0,-6.44445 -0.02648,-12.87044 -0.02648,-19.31488c0,-8.32874 -0.40562,-16.92782 -3.74358,-24.43131c-2.27546,-5.11506 -5.33952,-9.07438 -11.45225,-9.07438c-1.04884,0 -2.12212,-0.03119 -3.21913,-0.0755z" data-paper-data="{&quot;noHover&quot;:false,&quot;origItem&quot;:[&quot;Path&quot;,{&quot;applyMatrix&quot;:true,&quot;segments&quot;:[[[261.14259,190.45964],[-1.04884,0],[6.11273,0]],[[272.61705,199.53276],[-2.27546,-5.11506],[3.33796,7.50349]],[[276.39259,224.04297],[0,-8.32874],[0,6.44445]],[[276.39259,243.3763],[0,-6.44445],[0,1.76003]],[[276.66061,249.52309],[0.07441,-2.04729],[1.00525,-1.33317]],[[279.53065,245.36497],[-0.84391,1.50531],[0.04154,-0.43615]],[[279.68794,243.99352],[-0.06498,0.47924],[0.11522,-0.84976]],[[280.59078,241.76382],[-0.11431,0.85003],[0.45156,-3.35772]],[[280.53346,230.3484],[0,3.46108],[0,-2.5281]],[[280.56197,222.76422],[0.38611,2.46251],[-0.46686,-2.97752]],[[278.5023,214.1165],[0.55633,2.94357],[-0.6325,-3.3466]],[[276.7252,203.53573],[0.82936,3.16097],[-0.52607,-2.00502]],[[275.17,197.50753],[0.22282,2.12573],[-0.54192,-2.01191]],[[272.84504,191.99711],[0.71404,1.89026],[-0.23844,-0.63121]],[[272.14596,190.05537],[0.2278,0.66234],[0.43007,-0.42691]],[[273.02699,188.75972],[-0.17082,0.43069],[-0.54397,-0.34821]],[[271.14259,188.20964],[0.6938,0],[-0.77486,0]],[[269.07179,188.88768],[0.57988,-0.42624],[-0.0173,-0.05974]],[[269.01996,188.7084],[0.01726,0.05978],[-2.00346,0.37059]],[[263.05238,189.7056],[1.98213,-0.29479],[0,0]],[[263.59012,190.06689],[0,0],[0.09321,0.07695]],[[263.88007,190.28233],[-0.09984,-0.06706],[-0.36457,-0.17209]],[[262.77579,189.7933],[0.37149,0.15377],[0,0]],[[259.28137,190.2215],[1.49009,-1.22993],[-0.45342,0.05661]],[[257.91871,190.38577],[0.45511,-0.05291],[1.09701,0.04431]]],&quot;closed&quot;:true}]}" fill="#0077ff" stroke="none" stroke-width="0.5" stroke-linecap="butt"/><path d="M266.50068,191.66828c0.08211,0.06019 0.16094,0.12334 0.23679,0.18913c-0.46723,-0.29622 -0.94347,-0.57819 -1.42764,-0.84467c0.41573,0.18942 0.82586,0.388 1.19084,0.65555z" fill="#000000" stroke="none" stroke-width="0.5" stroke-linecap="butt"/><path d="M182.71446,157.51996c-1.0147,-2.71735 -2.00244,-5.38318 -2.83527,-8.15188c0.02561,-1.97969 0.15569,-3.97791 0.19837,-5.86957c0.70431,4.69296 1.6745,9.35751 2.6369,14.02145z" fill="#000000" stroke="none" stroke-width="0.5" stroke-linecap="butt"/><path d="" fill="#000000" stroke="none" stroke-width="0.5" stroke-linecap="butt"/><path d="M195.38987,51.13725c2.16064,-4.21882 5.15808,-7.9509 8.01906,-11.69667c0.21555,-0.28222 4.30395,-5.64692 4.44107,-5.77582c4.05586,-3.81253 9.80951,-6.51687 14.83008,-8.91849l0.68462,-0.38756c0,0 0.06149,-0.01244 0.16354,-0.02098c2.85004,-1.41913 3.31279,-2.62107 6.7869,-3.35712c1.26191,0.46652 2.63006,0.7107 3.78572,1.39954c4.24347,2.52934 3.70541,9.45371 4.93988,13.51705c0.61929,2.03845 1.19738,4.00556 1.72386,5.99673c7.58105,-2.25336 15.39409,-3.76705 23.15893,-5.33862c5.92841,-1.14766 10.59913,1.05625 15.80499,3.7975c5.00596,2.63599 10.32577,5.03683 14.66523,8.74373c0.71589,0.61154 1.40784,1.23784 2.078,1.87811c3.026,-2.86263 6.67691,-3.52478 10.70612,-4.79933c3.65995,-1.15774 8.15362,-3.41989 12.14675,-2.7019c1.17876,0.21195 2.22715,0.90601 3.39166,1.18589c2.02234,0.48606 6.0385,0.40807 7.47807,2.25627c0.75172,0.96509 0.4271,2.41052 0.56843,3.62564c0.50339,4.3278 -0.30691,9.72693 -1.06038,14.01769c-1.63395,5.0863 -4.68955,9.81418 -6.19874,14.93686c-0.27436,0.93125 -0.15942,1.95466 -0.47092,2.87414c-0.507,1.49658 -1.4171,2.70377 -2.15967,4.03157c0.58011,0.41096 0.7281,1.14212 0.7281,1.14212c0.03528,0.17428 0.07058,0.34855 0.10592,0.52281c-0.7955,-0.24665 -3.19279,-0.72917 -4.33294,1.93118c-0.05834,0.13613 -0.10845,0.26896 -0.15093,0.39854c-0.16678,-0.05267 -0.34226,-0.13591 -0.52549,-0.25746c-1.45832,-0.96737 -0.49095,-2.42569 -0.49095,-2.42569l0.59067,-0.79592c0.73165,-2.02447 2.27667,-3.66753 2.9208,-5.67154c1.8966,-5.90062 4.73414,-11.60382 6.58493,-17.5205c0.60462,-3.44689 0.88923,-7.10358 1.17461,-10.53706c0.06604,-0.79463 -0.19711,-1.58596 -0.2051,-2.38329c-0.00581,-0.58053 0.52318,-1.27794 0.16386,-1.73394c-0.58287,-0.73969 -4.59866,-0.78287 -5.4181,-0.98169c-0.20514,-0.04977 -0.4064,-0.11274 -0.60527,-0.1838c1.18321,2.46509 -2.87969,4.87833 -3.85294,6.13305c-1.57711,2.03323 -1.43155,5.38996 -2.06656,7.67287c-0.84866,3.05099 -2.72316,6.40114 -5.35198,8.21011c-0.44648,0.8915 -1.21624,0.96815 -1.71809,0.90558c-0.25627,0.09592 -0.51788,0.17714 -0.78467,0.24241c0,0 -1.71522,0.34716 -2.06237,-1.36807c-0.06851,-0.33853 -0.05669,-0.62376 0.00642,-0.86356c-3.70842,-6.38515 -7.78598,-12.20419 -13.45961,-17.07737c-4.12335,-3.54161 -9.25923,-5.79662 -14.02312,-8.30927c-4.38133,-2.31088 -8.48896,-4.53032 -13.48242,-3.46525c-7.72111,1.56271 -15.48182,3.07063 -23.01298,5.31984c0.1574,0.69358 0.3082,1.3961 0.45202,2.11125l0.82429,2.44339c0,0 0.55722,1.65892 -1.1017,2.21614c-1.65892,0.55722 -2.21614,-1.1017 -2.21614,-1.1017l-0.88712,-2.6517c-0.13374,-0.65688 -0.2775,-1.30905 -0.42869,-1.95761c-1.36888,0.45681 -2.72866,0.94259 -4.07769,1.46231c-3.88268,1.49578 -8.40069,1.74819 -12.16766,3.49088c-1.06548,0.49292 -1.88517,1.42806 -2.94747,1.92781c-2.44285,1.14923 -5.09108,1.08577 -7.48081,2.48499c0,0 -1.51742,0.87174 -2.38916,-0.64568c-0.87174,-1.51742 0.64569,-2.38916 0.64569,-2.38916c0.33635,-0.19028 0.67815,-0.35549 1.02392,-0.50186c-0.12795,-0.66558 0.2186,-1.27206 0.2186,-1.27206c3.63829,-6.30598 5.12568,-13.85853 8.05722,-20.52844c-3.21488,1.63796 -6.39456,3.48167 -8.88298,5.8208c-1.63073,1.53289 -2.6983,3.57147 -4.05679,5.3501c-2.71452,3.55401 -5.57745,7.08788 -7.64293,11.08201c-0.63106,1.22031 -0.99893,2.5007 -1.30561,3.78787c-1.22463,-0.92377 -2.54852,-0.61183 -3.32942,-0.27732c0.36009,-1.72325 0.6918,-3.48635 1.47743,-5.02034zM220.49245,37.82447c-1.4798,4.3357 -3.30843,9.01189 -5.45908,13.13763c0.88695,-0.2367 1.76195,-0.50897 2.60156,-0.91482c1.0438,-0.50455 1.85205,-1.42869 2.90698,-1.90954c3.87798,-1.76761 8.44232,-2.05289 12.41619,-3.59361c1.46523,-0.56809 2.94342,-1.09616 4.43238,-1.59045c-0.84918,-3.20578 -1.76974,-6.37018 -2.43427,-9.63297c-0.80417,-3.94843 -0.84491,-7.28259 -4.91938,-8.85118c-1.87937,0.33317 -3.32996,2.19826 -5.20742,3.12794c-0.14254,0.07058 -0.28588,0.14123 -0.42996,0.21198c-1.86065,3.09555 -2.73504,6.58127 -3.907,10.01502zM310.30168,64.22855c1.65558,-3.23613 2.00191,-6.34455 3.3632,-9.70258c0.59461,-1.46681 1.67976,-2.72019 2.81237,-3.82576c0.32265,-0.31495 0.39392,-0.83884 0.70533,-1.15824c-2.25651,0.40952 -4.69846,-0.55939 -7.10915,-0.05114l-0.32671,0.06612c0,0 -0.62304,0.1261 -1.19411,-0.14921c-0.11196,0.03778 -0.22224,0.07392 -0.33068,0.10822c-3.37128,1.06631 -6.7915,1.44918 -9.32211,3.93748c3.7683,4.10471 6.83103,8.69045 9.68059,13.5784c0.77274,-0.6009 1.09536,-1.57983 1.72128,-2.8033z" fill="#000000" stroke="none" stroke-width="0.5" stroke-linecap="butt"/><path d="M224.39045,27.76027c0.14408,-0.07075 0.28965,-0.14175 0.43219,-0.21233c1.87746,-0.92968 3.34869,-2.79327 5.22806,-3.12644c4.07447,1.56859 4.14602,4.92833 4.95019,8.87676c0.66453,3.26279 1.58569,6.47086 2.43487,9.67664c-1.48896,0.49429 -2.97729,1.03672 -4.44252,1.60481c-3.97387,1.54072 -8.59724,1.83435 -12.47522,3.60196c-1.05493,0.48085 -1.86783,1.40211 -2.91163,1.90666c-0.83961,0.40585 -1.71831,0.67529 -2.60526,0.91199c2.15065,-4.12574 3.96153,-8.83919 5.44134,-13.17489c1.17196,-3.43375 2.08734,-6.96961 3.94799,-10.06516z" data-paper-data="{&quot;noHover&quot;:false,&quot;origItem&quot;:[&quot;Path&quot;,{&quot;applyMatrix&quot;:true,&quot;segments&quot;:[[[440.98489,75.64894],[2.34392,-6.8675],[-2.9596,8.6714]],[[430.06673,101.9242],[4.3013,-8.25148],[1.7739,-0.4734]],[[435.26985,100.09456],[-1.67922,0.8117],[2.0876,-1.0091]],[[441.08381,96.27548],[-2.10986,0.9617],[7.75596,-3.53522]],[[465.91619,89.08826],[-7.94774,3.08144],[2.93046,-1.13618]],[[474.78095,85.90736],[-2.97792,0.98858],[-1.69836,-6.41156]],[[469.91241,66.64142],[1.32906,6.52558],[-1.60834,-7.89686]],[[460.07365,48.93906],[8.14894,3.13718],[-3.75874,0.66634]],[[449.65881,55.19494],[3.75492,-1.85936],[-0.28508,0.14116]],[[448.79889,55.6189],[0.28816,-0.1415],[-3.7213,6.1911]]],&quot;closed&quot;:true}]}" fill="#fff196" stroke="none" stroke-width="0.5" stroke-linecap="butt"/><path d="M310.31921,64.27537c-0.62592,1.22347 -0.96301,2.20548 -1.73575,2.80638c-2.84956,-4.88795 -5.95974,-9.54658 -9.72804,-13.65129c2.53061,-2.4883 5.99627,-2.89818 9.36755,-3.96449c0.10844,-0.0343 0.22059,-0.07037 0.33255,-0.10815c0.57107,0.27531 1.2009,0.15008 1.2009,0.15008l0.3284,-0.06576c2.41069,-0.50825 4.87759,0.475 7.1341,0.06548c-0.31141,0.3194 -0.38161,0.84445 -0.70426,1.1594c-1.13261,1.10557 -2.21325,2.36486 -2.80786,3.83167c-1.36129,3.35803 -1.73201,6.54055 -3.38759,9.77668z" data-paper-data="{&quot;noHover&quot;:false,&quot;origItem&quot;:[&quot;Path&quot;,{&quot;applyMatrix&quot;:true,&quot;segments&quot;:[[[620.60335,128.4571],[0,0],[3.31116,-6.47226]],[[627.32975,109.05194],[-2.72258,6.71606],[1.18922,-2.93362]],[[632.95449,101.40042],[-2.26522,2.21114],[0.6453,-0.6299]],[[634.36515,99.08394],[-0.62282,0.6388],[-4.51302,0.81904]],[[620.14685,98.98166],[4.82138,-1.0165],[0,0]],[619.49343,99.1139],[[617.10521,98.81548],[1.14214,0.55062],[-0.22392,0.07556]],[[616.44385,99.03192],[0.21688,-0.0686],[-6.74256,2.13262]],[[597.79963,106.90688],[5.06122,-4.9766],[7.5366,8.20942]],[[617.16081,134.06368],[-5.69912,-9.7759],[1.54548,-1.2018]],[[620.60337,128.45708],[-1.25184,2.44694],[0,0]]],&quot;closed&quot;:true}]}" fill="#fff196" stroke="none" stroke-width="0.5" stroke-linecap="butt"/><path d="M217.96204,99.70676c0,0 -2.44046,-2.84721 0.40675,-5.28768c2.84721,-2.44047 5.28768,0.40674 5.28768,0.40674c2.50188,2.92555 4.94913,5.85858 7.33822,8.83326c0.36355,-1.38281 1.00806,-2.62696 1.97783,-3.53217c-0.50188,-1.13642 -1.06132,-2.25488 -1.41903,-3.4406c-1.47556,-4.89114 -2.20525,-9.12153 -6.17946,-12.56832c-1.16878,-1.01367 -1.94649,-2.29223 -3.56721,-2.49521c-2.29326,-0.28721 -4.92375,0.0968 -7.19911,0.36455c-1.46877,0.17284 -2.99655,0.45104 -4.27098,1.20137c-2.56559,1.51051 -4.09745,2.54658 -5.53341,5.14034c-3.17944,6.90415 -0.45355,14.71778 0.3945,21.81239c0.26168,2.1892 0.25692,4.4022 0.35677,6.60472c0.04566,1.00719 -0.56752,2.22986 0.05338,3.02421c0.41178,0.52681 4.82579,0.07926 5.20127,0.07926c1.88682,0 3.77363,0 5.66045,0c-3.50186,-1.25794 -7.14545,-3.543 -8.87989,-6.66039c-2.03944,-3.66559 -1.53056,-7.62469 -1.53056,-11.58961l1.3959,-3.67706c0,0 1.67705,-3.3541 5.03115,-1.67705c3.3541,1.67705 1.67705,5.03115 1.67705,5.03115l-0.60411,0.32295c0,2.07012 -0.66453,5.78075 0.46944,7.74371c2.05976,3.56557 5.84247,3.22149 9.13104,3.83719c0.31989,-0.60409 0.80002,-1.11029 1.38375,-1.46198l2.19799,-1.37374c-2.83678,-3.60174 -5.76332,-7.12821 -8.77943,-10.63805zM247.40581,127.34963c-5.97663,0 -11.95326,0 -17.92989,0c-7.10648,0 -14.22805,0.13465 -21.33334,0c-3.50031,-0.06633 -5.35935,0.41136 -8.13206,-2.58741c-3.25457,-3.51993 -1.76404,-9.43263 -2.25651,-13.7044c-0.23014,-1.99627 -1.00684,-3.89745 -1.31704,-5.88287c-1.04365,-6.68001 -0.98021,-14.11151 1.71153,-20.30474c0.88392,-1.41045 1.52139,-3.00949 2.65176,-4.23135c0.88436,-0.95594 2.18151,-1.42322 3.25775,-2.15646c5.31827,-3.62333 14.31539,-6.18617 20.96497,-3.73162c1.18344,-0.41727 2.36244,-0.12252 2.36244,-0.12252c4.24139,1.10909 7.66098,3.33664 10.14114,6.44862c-0.10176,-0.34345 -0.20293,-0.68608 -0.30451,-1.02806c0.70252,-0.88995 0.03669,-1.95788 0.03669,-1.95788c-0.35469,-0.54442 -0.72917,-1.04683 -1.12108,-1.51023c-0.37657,-1.10955 -0.74716,-2.12833 -1.23563,-3.2401c-0.34577,0.11844 -0.69857,0.22102 -1.05739,0.31265c0.07035,0.33024 0.14056,0.66042 0.21007,0.99084c-5.77931,-4.37758 -14.0425,-2.97242 -21.19737,-1.5243c-2.58292,0.52277 -6.03719,0.78445 -8.33722,2.13167c-1.37793,0.80711 -2.30128,2.05609 -3.22937,3.32231c-0.35202,-0.428 -0.69089,-1.00083 -0.80849,-1.58186c-0.21626,-1.06854 0.08032,-2.1236 0.71889,-2.90776l0.09795,-0.12204c-0.06955,-0.01574 -0.05772,0.0254 -0.12589,0.00551c-1.76789,2.86521 -3.066,6.12715 -3.97431,9.47161c-0.04356,0.06368 -0.08705,0.12721 -0.13062,0.1909l-0.26041,0.39251c0,0 -0.57552,0.86731 -0.16842,1.7084c-0.62838,2.88374 -0.97665,5.76237 -1.09493,8.44149c-0.33919,8.0254 -1.67406,16.67384 -1.02831,24.67285c0.27798,3.44341 1.45067,7.10052 2.14921,10.48754c0.6752,3.27384 1.08147,7.64688 2.52376,10.66776c0.17767,0.37214 3.95845,4.594 4.09965,4.80315c1.09819,1.62671 1.80023,3.25939 2.66661,4.80244c-4.46596,-2.57042 -11.25169,-6.96697 -14.66089,-0.96816c-0.26659,0.46909 0.75522,5.18073 0.90207,5.88818c0.55,2.64959 1.62559,5.45964 3.03004,7.78342c1.33775,2.21343 3.39058,4.07467 5.0061,6.16c-0.05262,0.22916 -0.11366,0.52057 -0.07323,0.71889c-1.11439,0.02153 -1.45882,1.11811 -1.45882,1.11811l-0.67112,1.89529c-1.06004,3.93727 -2.34754,7.66379 -3.34201,11.54353c-1.67139,-3.19555 -4.26978,-5.03342 -6.04169,-8.07756c-2.24743,-3.8611 -2.61096,-8.9394 -4.0981,-13.15247c-0.63729,-1.80544 -1.29488,-3.55231 -1.93971,-5.28048c-0.9243,-4.47525 -1.85174,-8.9547 -2.53745,-13.45622c0.01268,-0.47439 0.02051,-0.94254 0.02051,-1.4025c0,-6.44822 0,-12.89643 0,-19.34465c0.33229,-2.0597 -0.13838,-4.22896 0.26185,-6.28495c0.1617,-0.83061 0.85965,-1.49886 1,-2.33334c0.94947,-5.64498 0.3997,-11.56442 0.18067,-17.42719c0.2663,-6.17324 1.07726,-12.40227 3.04453,-18.16974c0,0 0.06424,-0.19274 0.11534,-0.50083c1.62851,-2.49116 3.36212,-4.89664 5.05156,-7.20042c2.42912,-3.31244 4.10854,-6.48387 7.54704,-8.89081c0,0 2.84807,-2.03433 0.81374,-4.8824c-0.28765,-0.40271 -0.59157,-0.70781 -0.90141,-0.93484c0.30777,-1.29035 0.6767,-2.57411 1.30894,-3.7967c2.06548,-3.99413 4.93438,-7.53276 7.6489,-11.08676c1.35849,-1.77863 2.4291,-3.81911 4.05983,-5.352c2.48842,-2.33913 5.71289,-4.09363 8.92776,-5.73159c-2.93154,6.66991 -4.40995,14.21745 -8.04825,20.52343c0,0 -0.34606,0.60613 -0.21811,1.27171c-0.34577,0.14637 -0.68696,0.31114 -1.02331,0.50142c0,0 -1.51638,0.87094 -0.64464,2.38836c0.87174,1.51742 2.32823,0.5664 2.32823,0.5664c2.38973,-1.39922 5.04242,-1.33876 7.48527,-2.48799c1.0623,-0.49975 1.88419,-1.43613 2.94967,-1.92905c3.76697,-1.74269 8.29338,-1.99861 12.17606,-3.49439c1.34903,-0.51972 2.71185,-1.00635 4.08073,-1.46316c0.15119,0.64856 0.29491,1.30074 0.42865,1.95762l0.88729,2.65166c0,0 0.55871,1.65858 2.21762,1.10136c1.65892,-0.55722 1.10287,-2.21637 1.10287,-2.21637l-0.80568,-2.34514c-0.14382,-0.71515 -0.31353,-1.51587 -0.47093,-2.20945c7.53116,-2.24921 15.3081,-3.75757 23.02921,-5.32028c4.99346,-1.06507 9.1103,1.15653 13.49163,3.4674c4.76389,2.51265 9.9099,4.77239 14.03325,8.314c5.67363,4.87318 9.76287,10.70211 13.47129,17.08726c-0.06311,0.2398 -0.07461,0.5254 -0.0061,0.86393c0.34715,1.71523 2.06349,1.36943 2.06349,1.36943c0.26679,-0.06527 0.52854,-0.14632 0.78481,-0.24224c0.50185,0.06257 1.19278,0.04745 1.63926,-0.84405c2.62882,-1.80897 4.50459,-5.15755 5.35325,-8.20854c0.63501,-2.28291 0.4912,-5.63767 2.06831,-7.6709c0.97325,-1.25472 5.03683,-3.66725 3.85363,-6.13234c0.19887,0.07106 0.47192,0.06442 0.67706,0.11419c0.81944,0.19882 4.83679,0.2437 5.41967,0.98339c0.35932,0.456 -0.16926,1.15388 -0.16345,1.73441c0.00799,0.79733 0.2718,1.58945 0.20576,2.38408c-0.28538,3.43348 -0.56743,7.09357 -1.17205,10.54046c-1.85079,5.91668 -4.6846,11.62628 -6.5812,17.5269c-0.64413,2.00401 -2.18798,3.64965 -2.91963,5.67412l-0.59053,0.79627c0,0 -0.9667,1.46004 0.49162,2.42741c0.16967,0.11255 0.3327,0.19228 0.48834,0.24532c-0.61383,1.82988 0.29266,3.01469 1.07131,3.65135c-0.94996,1.38243 -0.36687,3.13172 -0.36687,3.13172c0.62414,1.87242 1.50304,3.67534 1.89454,5.60982c0.44049,2.17654 -0.07038,4.46963 0.33067,6.65378c0.16574,0.90265 0.81186,1.6588 1.05035,2.54502c1.10777,4.11641 1.62898,8.51834 2.66048,12.64351c1.26536,5.06041 3.48375,10.06118 4.63232,15.19107c0.50117,2.23838 -0.07923,4.61365 0.3082,6.8745c0.27038,1.57783 0.98785,3.10861 0.94384,4.70884c0,1.52768 0.01099,3.06171 0.011,4.59715c-1.53623,0.36991 -2.67767,1.75308 -2.67767,3.40285v3.33334c0,0.23621 0.00031,0.47374 0.00069,0.71239c-0.03269,0.14586 -0.06889,0.28578 -0.11728,0.40841c-0.93678,2.37403 -1.40963,4.91226 -2.31957,7.29671c-2.70866,7.09796 -5.49265,13.72886 -9.30965,19.91832c-0.88007,0.97428 -1.7504,1.96686 -2.57534,3.0176c-0.52155,0.59918 -1.30601,2.03492 -1.87164,1.47716c-0.8347,-0.82311 -0.67235,-2.36201 -1.20394,-3.40685c-0.83056,-1.6325 -2.23911,-2.96357 -3.25019,-4.4466c-1.57876,-2.31567 -2.54705,-5.09861 -3.90008,-7.36324c-0.83482,-1.39728 -2.47146,-2.00702 -3.47846,-3.28578c-0.88196,-1.11997 -1.28813,-2.22245 -1.88084,-3.19318c2.88016,-3.44381 4.08464,-7.90656 6.53088,-11.64759c0.86216,-3.61479 2.93518,-9.16862 1.77458,-12.93402c-0.34056,-1.10489 -0.54758,-2.59087 -1.59565,-3.07903c-0.7532,-0.35082 -1.59627,-0.20074 -2.44705,0.017c3.50781,-5.13216 6.41733,-10.76294 8.01694,-16.66115c0.18401,-0.67848 0.38628,-1.36587 0.58481,-2.05942c-0.11397,0.24538 -0.25524,0.4488 -0.42883,0.601c-1.75465,1.53847 -4.56503,1.19208 -6.89862,1.19165c-0.2172,-0.00004 -1.42623,-0.5265 -2.62801,-1.0437l-3.20711,0.96213l-0.05217,-0.17388c-0.15763,0.10115 -0.31781,0.1987 -0.48084,0.29228c-0.88215,0.50637 -5.41372,-0.24836 -6.41859,-0.29933c-3.24352,-0.1645 -6.54334,0.00574 -9.79262,0.00574c-5.54287,0 -11.01054,-0.57177 -16.45544,-1.3313c-2.62004,1.10894 -5.697,-0.00098 -8.54456,-0.00203c-2.54083,-0.00094 -5.13837,-0.11326 -7.73677,-0.33333zM242.816,100.84563c0.24985,1.49658 1.33177,3.00504 2.21568,4.49745c0.29788,-0.37937 0.57435,-0.76875 0.77593,-1.18859c0.07965,-3.6579 1.76311,-5.57005 3.26639,-8.79934c2.01242,-4.323 3.88154,-9.67231 7.60343,-12.91472c6.43538,-5.60632 14.41396,-5.92989 22.46515,-5.92414c2.30548,0.00164 5.61065,-0.12702 7.80852,0.5114c0.39363,0.11434 4.27371,2.40054 5.07515,2.69157c0.57801,0.2099 1.20384,0.31286 1.82662,0.41779c-0.23533,-0.10986 -0.46489,-0.23005 -0.68548,-0.36608c-3.57468,-2.20441 -6.89376,-5.07628 -10.99448,-6.49371c-1.58259,-0.54703 -3.92362,-0.4391 -5.60569,-0.44038c-3.84592,-0.00293 -8.65954,-0.61369 -12.26931,1.10721c-0.00027,-0.00042 -0.00055,-0.00085 -0.00082,-0.00128c-0.00134,0.0012 -0.00266,0.00239 -0.00401,0.00359c-0.06079,0.02902 -0.12106,0.05876 -0.18115,0.08913c-1.08117,0.54636 -1.85599,1.53787 -2.7429,2.37741l-0.00001,-0.00002c-4.54533,3.66193 -9.49719,7.16344 -12.70133,11.87984c-1.81301,2.66869 -2.70496,6.2118 -3.27914,9.29957c-0.14702,0.79064 -0.36419,1.63353 -0.58875,2.50218c-0.26719,-1.35495 -0.64577,-2.74768 -1.076,-3.92418c-0.50814,-1.38955 -1.13806,-2.74907 -1.79705,-4.10542c0.37499,2.90758 0.42897,6.02372 0.88924,8.7807zM298.41938,84.4428c2.0707,2.97317 3.58722,5.97783 5.12723,9.25023c0.9676,2.05608 1.67726,5.28267 3.00198,7.09023c0.08323,0.11357 0.17695,0.21738 0.27817,0.31423c-1.89945,-5.12766 -4.52013,-10.13544 -5.38023,-15.31197c-1.25732,-1.32592 -2.37002,-2.81243 -3.81887,-3.92587c-0.22515,-0.17303 -0.46393,-0.32288 -0.71213,-0.45685c0.71517,0.82489 0.95868,2.06533 1.50386,3.04zM308.83153,102.71298c0.05984,0.08366 0.11824,0.16739 0.17521,0.2512c-0.08092,-0.36563 -0.1395,-0.61069 -0.16227,-0.66569c-0.29818,-0.72042 -1.08053,-1.15371 -1.42324,-1.85405c-0.23361,-0.47738 -0.46602,-0.95499 -0.69812,-1.43518c-0.0525,0.05138 -0.10478,0.10192 -0.1569,0.15154l1.71222,2.85542c0.05255,0.08423 0.10163,0.17089 0.14702,0.25978c0.15123,0.13097 0.28947,0.27397 0.40608,0.43698zM310.1775,117.20031c-0.30743,1.85205 0.60498,6.46995 0.1843,9.16074c0.61857,-2.29842 1.06943,-4.64747 0.57137,-6.94943c0.90084,-2.4185 0.55175,-4.86021 0.01587,-7.30639c-0.16512,1.6832 -0.48744,3.38348 -0.77155,5.09507zM285.36481,92.31432c0.10379,0.17715 0.21306,0.35425 0.32995,0.5307c-0.02609,-0.10274 -0.05406,-0.20504 -0.08414,-0.30683c-0.08162,-0.0751 -0.16357,-0.14973 -0.24581,-0.22387zM306.70048,98.96245c-0.00041,0.00042 -0.00025,0.00068 0.00039,0.0008c-0.00013,-0.00027 -0.00026,-0.00053 -0.00039,-0.0008z" fill="#0077ff" stroke="none" stroke-width="0.5" stroke-linecap="butt"/><path d="M222.83708,161.22496c0.16787,0.04992 0.34008,0.06875 0.51489,0.06904c-0.13024,-0.03314 -0.31179,-0.06697 -0.51685,-0.06963c0.00065,0.00019 0.00131,0.00039 0.00196,0.00059zM226.81673,161.99572l0.66116,0.22038l-0.03975,0.11925l0.82236,0.35244c0.70399,0.1197 1.4911,0.28082 2.61836,0.46232l1.04563,-0.02382c0,0 1.09353,0.00001 1.55174,0.86443c0.7894,-0.19119 1.57518,-0.37703 2.35434,-0.53473c2.07813,-0.42061 4.16733,-0.85792 6.24545,-1.27853c0.98315,1.22767 2.12386,2.31114 3.4402,3.20083c0,0 1.48625,0.95456 2.45362,-0.50375c0.96737,-1.45831 -0.47757,-2.32661 -0.47757,-2.32661c-0.10459,-0.0678 -0.22441,-0.23501 -0.32523,-0.30464c0.40652,-0.3853 0.49236,-0.90982 0.49436,-1.25694c1.07114,-0.31177 2.15552,-0.69118 3.25496,-0.6326c2.38973,0.12732 4.73975,0.78522 7.02353,1.20267c3.6033,0.65865 6.96652,0.76387 10.06853,2.85861c0.63989,0.23011 1.28023,0.46265 1.92013,0.69277l1.79214,0.92855c0,0 1.45689,0.81198 2.2573,-0.74425c0.80041,-1.55623 -0.75499,-2.35193 -0.75499,-2.35193l-2.00353,-1.02348c-0.51045,-0.17813 -1.02029,-0.35429 -1.53074,-0.53242c1.27475,-0.36554 2.47819,-1.2374 3.67258,-1.8274c2.01169,-0.99374 5.4292,-0.79651 7.50807,-1.45516c3.345,-1.05978 6.26267,-3.19461 9.54742,-4.38488c1.09897,-0.39823 2.38876,-0.54905 3.46905,-0.99074c1.14121,1.06563 2.24157,0.00629 2.24157,0.00629l1.53152,-1.40479c0.24448,-0.30342 0.48776,-0.60874 0.72926,-0.91701c1.257,-0.59536 2.63942,-1.09459 3.9075,-1.14927c0.24092,-0.01039 -0.13624,0.46779 -0.1478,0.70866c-0.02591,0.54002 0.06716,1.08304 0.03664,1.62282c-0.17748,3.13908 -0.92134,6.19186 -1.599,9.24901c-2.23086,3.31049 -3.25922,7.33362 -5.73133,10.45905c-0.2455,-0.06971 -0.53974,-0.08523 -0.89153,-0.01403l-0.00005,0.00001c-1.71522,0.34716 -1.36827,2.06479 -1.36827,2.06479l0.06349,0.11229c-2.15542,1.6078 -5.04606,2.71554 -7.17597,4.22625c-1.84509,1.30869 -3.83109,2.43102 -5.61369,3.82365c-0.51656,0.40354 -0.68567,1.17443 -1.23261,1.53573c-1.51986,1.00399 -5.60004,1.33909 -7.13911,1.65059c-6.81862,1.38005 -13.26697,2.32364 -20.18305,2.85879c-1.6936,0.13179 -4.97419,0.46191 -6.7084,0.30256c-1.77478,-0.16307 -3.42633,-1.09828 -5.19443,-1.32246c-13.08002,-1.65843 -25.32725,-7.39441 -34.48577,-16.92464c-2.66696,-5.59388 -8.12462,-9.3439 -9.38749,-15.76808c-0.17146,-0.87219 -0.29179,-1.75887 -0.52839,-2.61569c-0.12495,-0.45253 -0.72895,-0.86294 -0.55042,-1.29713c0.63132,-1.53535 4.07362,-0.26411 4.85503,-0.00642c4.30271,1.41889 7.811,4.21245 12.2128,5.59902c5.50037,3.0359 11.30745,4.88044 17.36578,6.18628c-0.75777,0.11076 -1.49716,0.17971 -2.20011,0.18864c0.04168,0.03133 0.08323,0.06294 0.12471,0.09471z" fill="#fff196" stroke="none" stroke-width="0.5" stroke-linecap="butt"/><path d="M242.01992,149.00793c-0.29647,-0.20843 -0.73189,-0.38197 -1.23456,-0.28195c-0.0359,-0.18049 -0.07516,-0.3615 -0.11205,-0.54248c-0.22095,-1.08397 -0.54426,-2.23971 -0.69781,-3.33526c-0.10496,-0.74887 -0.01713,-1.52631 -0.08872,-2.27892c0.92795,1.90405 1.61702,4.17015 2.13314,6.43862z" data-paper-data="{&quot;noHover&quot;:false,&quot;origItem&quot;:[&quot;Path&quot;,{&quot;applyMatrix&quot;:true,&quot;segments&quot;:[[[239.90251,142.61677],[0.92795,1.90405],[0.0716,0.75261]],[[240.01154,144.88288],[-0.10496,-0.74887],[0.15355,1.09555]],[[240.67912,148.13383],[-0.22095,-1.08397],[0.03689,0.18098]],[[240.78822,148.67606],[-0.0359,-0.18049],[0.50267,-0.10002]],[[242.0042,148.96047],[-0.29647,-0.20843],[-0.51612,-2.26847]]],&quot;closed&quot;:true}]}" fill="#ffffff" stroke="none" stroke-width="0.5" stroke-linecap="butt"/><path d="M258.46341,126.44629l-0.07129,-0.11406c-0.27471,0.20493 -0.5674,0.38641 -0.8824,0.53875c-2.2736,1.09952 -5.05723,-0.07219 -7.57562,0.11722c-1.21783,0.0916 -2.41421,0.35639 -3.61357,0.60036c0.53074,0.32423 1.15457,0.51108 1.82205,0.51108h0.00001c0.76795,0 1.47811,-0.24733 2.05522,-0.66667c2.2949,0 5.00569,0 6.61144,0c0,0 2.37942,0 3.2145,-1.96188zM233.74787,80.49743c0.55731,1.87097 1.07623,3.75755 1.73512,5.69047c1.33211,3.90795 3.61442,7.49701 5.02158,11.30032c1.12795,3.04866 1.4393,7.15515 2.08315,10.33625l0.43328,2.11817c0.0885,0.43725 0.31411,0.79311 0.62456,1.03069c0.36479,0.27307 0.84525,0.38487 1.35528,0.28164c0.40001,-0.08097 0.74255,-0.29465 0.98967,-0.58512c0.17267,-0.2057 0.29796,-0.44912 0.36275,-0.71049l0.77787,-2.85067l-0.01068,-0.00286c0.00949,-0.02253 0.01913,-0.04528 0.02841,-0.06791c2.23089,-5.43237 0.94034,-11.75989 4.40157,-16.87986c2.09644,-3.10113 5.31822,-5.96742 8.55027,-8.59826c0.68588,-0.55872 1.37203,-1.10683 2.04772,-1.64435c0.00097,-0.00017 0.00194,-0.00035 0.00291,-0.00052c0.77486,-0.61549 1.53631,-1.21703 2.26832,-1.80464c0.00189,-0.00202 0.00378,-0.00403 0.00567,-0.00605c0.30321,-0.24355 0.60216,-0.48448 0.89423,-0.72322c0.11543,-0.09435 0.23197,-0.19218 0.34909,-0.29324c0.00063,-0.00033 0.00126,-0.00066 0.00189,-0.00099c0.5934,-0.51198 1.20878,-1.1043 1.84611,-1.72053c0.02081,-0.00111 0.03181,-0.00203 0.03181,-0.00203c1.50449,-0.13829 3.03885,-0.0861 4.51348,-0.41487c1.1214,-0.25002 2.06044,-1.09861 3.19107,-1.30286c0.02354,-0.00425 0.04713,-0.00843 0.07077,-0.01254c-0.35796,0.54903 -0.56598,1.20473 -0.56598,1.90902c0,0.22558 0.02134,0.44618 0.06212,0.65989c0.62506,0.02668 1.2282,0.04721 1.79609,0.04675c0.829,-0.00066 3.56637,-0.08231 4.39312,0.22559c3.86339,1.43879 6.92919,4.07816 10.33824,6.17215c2.86168,1.75777 4.53158,2.32017 7.05347,4.65051c0.18415,1.60353 0.9856,3.08366 1.62146,4.56721c1.01651,2.37167 1.59002,5.00345 2.2638,7.4654c0.75414,2.75556 1.9828,5.33662 2.70732,8.036c0.08727,0.00652 0.17544,0.00984 0.26439,0.00984c0.45307,0 0.88604,-0.08609 1.28343,-0.2428c0.10298,0.81682 0.19195,1.63798 0.35356,2.43648c0.38485,1.90148 0.89675,3.65111 1.0715,5.40829c0.00013,-0.00001 0.00025,-0.00001 0.00037,-0.00002c0.05203,0.52348 0.07405,1.04821 0.05372,1.57811c-0.03248,0.85362 -0.17483,1.71997 -0.47863,2.61675c0.23899,1.2593 0.27213,2.51212 0.15396,3.75284c-0.39441,4.1453 -2.47843,8.15547 -4.21828,11.82121c-0.19157,0.40362 -0.36307,0.81796 -0.52364,1.23837c-0.60789,1.59214 -1.05908,3.27107 -1.84892,4.78272c-0.09202,0.17617 -0.18863,0.35007 -0.29062,0.5213c-1.38639,2.32759 -3.024,4.41352 -4.69925,6.5064c-1.16854,0.53913 -2.28293,1.17854 -3.59452,1.75546c-3.95717,1.74065 -8.53075,3.93515 -12.68362,5.25637c-2.4776,0.78823 -5.70619,0.58919 -8.08666,1.69079c-0.01264,0.00585 -0.02526,0.01177 -0.03785,0.01776c-0.80741,0.38422 -1.51441,1.0465 -2.33407,1.37257c-0.18707,0.07448 -0.37999,0.13144 -0.58133,0.16361l-1.43974,0.72324c0,0 -0.66088,0.37937 -0.86047,1.07248c-0.0002,-0.00007 -0.00041,-0.00015 -0.00061,-0.00021c-0.00005,0.00015 -0.00009,0.0003 -0.00013,0.00045c-2.48415,-0.88245 -5.09048,-1.12903 -7.83893,-1.6315c-2.52307,-0.46126 -5.16401,-1.17468 -7.79099,-1.26534c-1.23209,-0.04252 -2.5672,0.11828 -3.93076,0.38216c-0.00001,-0.00005 -0.00002,-0.00009 -0.00003,-0.00014c-0.00012,0.00002 -0.00024,0.00005 -0.00036,0.00007c-0.83979,-4.01322 -1.74257,-7.99446 -2.76299,-11.97693c-0.50463,-1.96945 -0.52702,-4.8198 -2.56942,-6.01672c-0.49742,-0.29107 -1.1146,-0.48414 -1.88766,-0.54265c-2.07614,-0.15715 -2.86455,1.25259 -3.13277,2.83908c-0.2235,1.32708 -0.08334,2.7777 -0.02894,3.5387c0.32776,4.58496 1.31045,9.6221 3.50213,13.79609c-0.25573,0.06382 -0.51522,0.14577 -0.77157,0.22554c-0.29052,0.09065 -0.57696,0.17849 -0.84965,0.23368c-1.03895,0.21027 -2.2963,0.5599 -3.65006,0.93327l-0.0006,-0.00043c-0.00008,0.00002 -0.00016,0.00004 -0.00024,0.00006l-1.90432,-1.3846c-7.03682,-1.2834 -13.77697,-3.10876 -20.04723,-6.64795c-0.26694,-0.08536 -0.62026,-0.19401 -1.02182,-0.31808c-0.00015,-0.00035 -0.00029,-0.00069 -0.00044,-0.00104c-0.0002,-0.00006 -0.0004,-0.00012 -0.0006,-0.00018c-0.11574,-0.2712 -0.26664,-0.46577 -0.32311,-0.53356c-0.01373,-0.01644 -0.02159,-0.02505 -0.02159,-0.02505c-0.19986,-0.21673 -0.38887,-0.43387 -0.56855,-0.6515c-1.69178,-2.0488 -2.5546,-4.14106 -3.8212,-6.34221c-0.29531,-0.51309 -0.61256,-1.03211 -0.96739,-1.55788c-1.10364,-1.63537 -3.06436,-2.67292 -3.89706,-4.46151c-0.04104,-0.08816 -0.08109,-0.17764 -0.1202,-0.26837c-1.18529,-2.74868 -1.50012,-6.64384 -2.0934,-9.52167c-0.05532,-0.26833 -0.11396,-0.53862 -0.17515,-0.81059c-0.67904,-3.01744 -1.67149,-6.24017 -1.9159,-9.26774c-0.63368,-7.84937 0.70906,-16.40655 1.04202,-24.28454c0.11825,-2.94117 0.55587,-6.22885 1.38535,-9.45613c0.00027,-0.00042 0.00053,-0.00084 0.0008,-0.00126c0.00001,-0.00004 0.00002,-0.00008 0.00003,-0.00012c0.13256,-0.20893 0.26545,-0.41837 0.39802,-0.6273c1.1106,-0.76731 1.92244,-1.9342 2.72953,-3.07157c0.1838,-0.25902 0.36735,-0.51651 0.55414,-0.76739c0.65984,-0.8863 1.35996,-1.69027 2.25347,-2.18849c1.9407,-1.08214 5.07417,-1.26232 7.21237,-1.69509c6.68906,-1.35384 16.43742,-3.63883 20.70188,3.28668c-0.06155,0.11116 -0.12028,0.24268 -0.18815,0.37149c-0.06842,0.13066 -0.1463,0.25852 -0.2468,0.35966z" fill="#0077ff" stroke="none" stroke-width="0.5" stroke-linecap="butt"/><path d="M307.96667,114.97826h-0.00001c0,-0.00002 0,-0.00003 0,-0.00005z" fill="#ffffff" stroke="none" stroke-width="0.5" stroke-linecap="butt"/><path d="" fill="#000000" stroke="none" stroke-width="0.5" stroke-linecap="butt"/><path d="M276.14259,319.3763l-6,-60" fill="none" stroke="none" stroke-width="0" stroke-linecap="round"/><path d="M293.14258,325.26629l-20,-1.33333l-13.33333,5.33333l0.33333,-4.55666l-6.66666,-61.66666l13.33333,-4.11001l8,-1.88999l16.33333,67.66666l-1.66667,-4.11001" fill="none" stroke="#000000" stroke-width="3" stroke-linecap="round"/><path d="M268.03494,342.49434c-0.85246,0.42135 -1.74459,0.7873 -2.67091,1.00211c-1.54436,1.25141 -4.65639,5.21738 -2.63493,7.3668c1.19511,1.27076 4.31044,2.36086 5.90522,3.03051c1.69191,0.71044 4.76564,0.23254 6.50826,0.23254c4.90343,0 9.81007,-0.04668 14.71281,0.03344c2.28301,-1.21602 6.89727,-1.60382 8.42616,-3.88115c0.81011,-1.20668 1.30302,-2.63427 2.25775,-3.7301c0.82418,-0.94599 1.94404,-2.44457 2.43265,-3.61051c0.17732,-0.42312 0.10101,-0.9212 0.26005,-1.35152c0.05615,-0.15191 0.50797,-0.3922 0.36003,-0.32628c-2.10089,0.93602 -5.78433,0.39443 -8.26382,0.36717c-0.38486,0.23784 -0.75513,0.48518 -1.10229,0.74895l-1.41667,0.25c0,0 -1.25,0 -1.25,-1.25c0,-1.25 1.25,-1.25 1.25,-1.25l-0.08333,0.25c0.5,-0.37095 1.08717,-0.71318 1.71064,-1.04951c0.0319,-0.01898 0.06408,-0.03616 0.0962,-0.05171c1.92925,-1.0331 4.17738,-2.02142 5.26244,-3.62967c0.9992,-1.48098 1.48896,-2.87785 2.19253,-4.41413c0.77885,-1.70065 2.03413,-3.16411 1.36156,-5.31349c-0.41558,-1.32806 -3.06707,-0.53974 -3.97647,-0.62908c-3.74597,-0.368 -7.44695,-0.32907 -11.23023,-0.32907c-2.54543,0 -6.18118,-0.71631 -8.60471,-0.06414c-1.25019,0.33643 -2.33943,1.24445 -3.62552,1.39322c-4.00162,0.46287 -7.84885,0.86031 -11.63306,2.37106c-2.53334,1.01137 -5.13005,1.74934 -6.87381,3.61772c2.36386,1.23066 3.64074,3.84261 5.97714,4.98807c3.88374,1.90408 8.49266,2.86075 12.75997,2.86075l1.55055,1.03278c0,0 0.88389,0.88388 0,1.76776c-0.88389,0.88389 -1.76777,0 -1.76777,0l0.21722,-0.30055c-2.45083,0 -5.0457,-0.28802 -7.56587,-0.87613zM303.14259,339.1263c0.74667,0.06007 1.70065,-0.17636 2.21722,0.36612c1.59427,1.67424 -0.58192,5.48338 -1.41937,6.75065c-0.76715,1.16089 -2.03253,1.9492 -2.74688,3.1433c-0.44716,0.74747 -0.43506,1.73021 -0.94555,2.43595c-2.02569,2.80045 -6.87435,3.36696 -9.81822,4.77055c-5.09503,0.06502 -10.19174,0.03343 -15.28719,0.03343c-2.27866,0 -5.31381,0.40314 -7.49175,-0.43412c-1.81013,-0.69587 -5.51007,-2.10658 -6.76143,-3.63616c-3.13614,-3.83337 0.35607,-8.91212 3.36507,-11.29986c0.4214,-0.1117 0.83957,-0.24112 1.25061,-0.39001c-1.1334,-0.39243 -2.23062,-0.85172 -3.2692,-1.3791c-2.38729,-1.21224 -3.58868,-3.83147 -5.98566,-4.99272c0,0 -0.12541,-0.0627 -0.27123,-0.18812c-0.27041,0.2638 -0.73556,0.51806 -1.39544,0.18812c-1.11803,-0.55901 -0.55901,-1.67705 -0.55901,-1.67705c1.93514,-3.83997 5.50362,-4.95947 9.32964,-6.48006c3.96735,-1.57676 8.12334,-2.19909 12.35196,-2.53999c1.09545,-0.08832 1.9761,-1.00238 3.04115,-1.27345c2.75925,-0.70227 6.53364,-0.06414 9.39529,-0.06414c4.24581,0 8.45713,0.25686 12.66667,0.33334c2.03729,0.03701 3.59316,-0.3618 4.7933,2.04184c1.29174,2.58711 -0.35946,5.25832 -1.30511,7.35318c-0.76223,1.68852 -1.30604,3.34877 -2.47413,4.9192c-0.56336,0.75741 -1.28055,1.37935 -2.07225,1.9303c1.14141,-0.01417 2.27836,-0.00074 3.39153,0.08882z" fill="#000000" stroke="none" stroke-width="0.5" stroke-linecap="butt"/><path d="M268.62581,341.74072c2.52017,0.5881 5.1064,0.8562 7.55723,0.8562l-0.21782,0.29974c0,0 0.87554,0.87525 1.75942,-0.00863c0.88389,-0.88389 -0.07429,-1.70306 -0.07429,-1.70306l-1.55719,-1.05105c-4.26731,0 -8.87642,-0.97061 -12.76015,-2.87469c-2.33639,-1.14547 -3.61143,-3.76591 -5.97529,-4.99657c1.74376,-1.86838 4.34658,-2.61919 6.87993,-3.63057c3.78421,-1.51075 7.65659,-1.9277 11.6582,-2.39057c1.28609,-0.14877 2.38848,-1.05948 3.63867,-1.39591c2.42354,-0.65217 6.08592,0.06979 8.63135,0.06979c3.78328,0 7.50095,-0.02471 11.24692,0.34329c0.90941,0.08934 3.56393,-0.69445 3.97951,0.63361c0.67258,2.14938 -0.57902,3.62045 -1.35787,5.32111c-0.70358,1.53629 -1.19098,2.94135 -2.19018,4.42233c-1.08506,1.60825 -3.33225,2.60563 -5.2615,3.63872c-0.03213,0.01555 -0.06431,0.03291 -0.0962,0.05189c-0.62347,0.33633 -1.21078,0.68278 -1.71078,1.05373l0.0834,-0.25104c0,0 -1.25067,0.00584 -1.25067,1.25584c0,1.25 1.15233,1.22892 1.15233,1.22892l1.41618,-0.24793c0.34716,-0.26378 0.71686,-0.50795 1.10172,-0.74579c2.4795,0.02726 6.16256,0.57222 8.26345,-0.36381c0.14794,-0.06592 -0.20426,0.18295 -0.26041,0.33486c-0.15904,0.43032 -0.0831,0.93139 -0.26042,1.35451c-0.48861,1.16594 -1.61075,2.67356 -2.43493,3.61955c-0.95473,1.09582 -1.45207,2.53274 -2.26218,3.73941c-1.52889,2.27733 -6.15904,2.68131 -8.44205,3.89733c-4.90274,-0.08012 -9.85337,-0.02869 -14.7568,-0.02869c-1.74262,0 -4.83093,0.46956 -6.52283,-0.24088c-1.59479,-0.66965 -4.72044,-1.77137 -5.91554,-3.04212c-2.02146,-2.14943 1.08434,-6.1295 2.6287,-7.38091c0.92632,-0.21481 1.81818,-0.58181 2.67064,-1.00316z" data-paper-data="{&quot;noHover&quot;:false,&quot;origItem&quot;:[&quot;Path&quot;,{&quot;applyMatrix&quot;:true,&quot;segments&quot;:[[[268.03494,342.49434],[0,0],[-0.85246,0.42135]],[[265.36403,343.49645],[0.92632,-0.21481],[-1.54436,1.25141]],[[262.72911,350.86325],[-2.02146,-2.14943],[1.19511,1.27076]],[[268.63433,353.89376],[-1.59479,-0.66965],[1.69191,0.71044]],[[275.14259,354.1263],[-1.74262,0],[4.90343,0]],[[289.8554,354.15974],[-4.90274,-0.08012],[2.28301,-1.21602]],[[298.28156,350.2786],[-1.52889,2.27733],[0.81011,-1.20668]],[[300.53931,346.5485],[-0.95473,1.09582],[0.82418,-0.94599]],[[302.97195,342.93799],[-0.48861,1.16594],[0.17732,-0.42312]],[[303.232,341.58647],[-0.15904,0.43032],[0.05615,-0.15191]],[[303.59204,341.26019],[0.14794,-0.06592],[-2.10089,0.93602]],[[295.32821,341.62735],[2.4795,0.02726],[-0.38486,0.23784]],[[294.22592,342.3763],[0.34716,-0.26378],[0,0]],[292.80925,342.6263],[[291.55925,341.3763],[0,1.25],[0,-1.25]],[292.80925,340.1263],[[292.72592,340.3763],[0,0],[0.5,-0.37095]],[[294.43656,339.32679],[-0.62347,0.33633],[0.0319,-0.01898]],[[294.53276,339.27509],[-0.03213,0.01555],[1.92925,-1.0331]],[[299.7952,335.64542],[-1.08506,1.60825],[0.9992,-1.48098]],[[301.98774,331.23128],[-0.70358,1.53629],[0.77885,-1.70065]],[[303.34929,325.91779],[0.67258,2.14938],[-0.41558,-1.32806]],[[299.37282,325.28871],[0.90941,0.08934],[-3.74597,-0.368]],[[288.14259,324.95964],[3.78328,0],[-2.54543,0]],[[279.53787,324.89549],[2.42354,-0.65217],[-1.25019,0.33643]],[[275.91235,326.28871],[1.28609,-0.14877],[-4.00162,0.46287]],[[264.27929,328.65977],[3.78421,-1.51075],[-2.53334,1.01137]],[[257.40548,332.27748],[1.74376,-1.86838],[2.36386,1.23066]],[[263.38262,337.26556],[-2.33639,-1.14547],[3.88374,1.90408]],[[276.14259,340.1263],[-4.26731,0],[0,0]],[277.69314,341.15909],[[277.69314,342.92685],[0.88389,-0.88389],[-0.88389,0.88389]],[275.92537,342.92685],[[276.14259,342.6263],[0,0],[-2.45083,0]],[[268.57671,341.75018],[2.52017,0.5881],[0,0]]],&quot;closed&quot;:true}]}" fill="#ffffff" stroke="none" stroke-width="0.5" stroke-linecap="butt"/><path d="M241.47592,336.79297l0.93284,0.00405c0.73441,-0.4862 1.05453,-1.42307 1.64607,-2.36993c1.37025,-2.19331 4.04969,-3.53654 4.85389,-6.1839c0.17631,-0.58038 -1.11451,-0.48052 -1.65849,-0.74886c-2.23063,-1.10035 -5.35693,-2.33035 -7.05686,-4.03028c-3.88189,-0.80498 -8.41873,-0.17108 -12.38413,-0.17108c-5.71303,0 -11.42606,0 -17.13909,0c3.73055,2.36458 6.52482,6.36683 10.25515,8.78483l0.8983,0.58364c0,0 1.04819,0.68103 0.36717,1.72922c-0.50268,0.77369 -1.2054,0.60526 -1.53898,0.46399c-0.26949,0.10498 -0.50921,0.10498 -0.50921,0.10498c-1.0428,0 -4.21754,-0.44286 -5.18831,-0.09515c-1.17776,0.42186 -1.73498,1.82771 -2.76475,2.5381c-1.74904,1.20657 -3.51483,2.40133 -5.25792,3.60326c-1.35867,0.93685 -2.74458,1.83476 -4.08433,2.79847c-0.56219,0.4044 -1.16722,0.74812 -1.77698,1.07642c-0.12346,0.06647 -0.53937,0.04989 -0.40852,0.10027c3.92909,1.51301 8.87762,3.02094 13.02466,3.71723c7.85528,2.02827 15.71068,2.09473 23.78949,2.09473c2.64892,0 7.11905,0.67192 9.58624,-0.26287c2.44508,-0.9264 3.80074,-5.67762 4.55073,-7.79157c-2.02585,-1.79706 -5.61718,-2.76499 -8.28969,-3.45493l-0.55222,0.0028c-0.54289,0.19052 -1.18221,0.30532 -1.96172,0.3399h-1.33333c0,0 -1.25,0 -1.25,-1.25c0,-1.25 1.25,-1.25 1.25,-1.25h1.11305c0.36908,-0.33333 0.88695,-0.33333 0.88695,-0.33333zM254.00562,342.01407c-0.52129,3.55311 -2.34262,9.31722 -6.11594,10.8751c-2.70307,1.116 -7.50277,0.4038 -10.41376,0.4038c-8.24792,0 -16.29407,-0.07291 -24.31308,-2.15017c-3.79494,-0.65666 -8.60643,-1.98197 -12.1206,-3.59414c-0.99255,-0.45535 -2.3287,-0.77051 -2.75217,-1.77707c-0.91039,-2.16393 3.82173,-4.76033 5.04662,-5.59991c2.43171,-1.66676 4.98469,-3.14995 7.42564,-4.82166c1.17585,-0.8053 1.89736,-2.30413 3.23525,-2.79523c0.68971,-0.25317 1.95311,-0.26484 3.21127,-0.21981c-3.08879,-2.76295 -5.87162,-6.3821 -9.53049,-7.79807c0,0 -0.9037,-0.36148 -0.79725,-1.24393c-0.02394,0 -0.0479,0 -0.07184,0c0,0 -1.25,0 -1.25,-1.25c0,-1.25 1.25,-1.25 1.25,-1.25c7.77778,0 15.55555,0 23.33334,0c3.69794,0 7.70174,-0.47357 11.28254,0.49558c1.70683,1.70682 4.7088,2.83895 6.94314,3.96972c0.92022,0.46571 2.93405,1.25987 3.00817,2.58447c0.06033,1.07815 -0.7906,2.01065 -1.23386,2.99532c-0.94511,2.09949 -2.82946,2.99593 -3.91225,4.82079c-0.34572,0.58267 -0.6591,1.10733 -0.97949,1.56995c3.2922,0.93732 6.41191,2.31403 8.75477,4.78528z" fill="#000000" stroke="none" stroke-width="0.5" stroke-linecap="butt"/><path d="M240.63897,337.12659l-1.11305,0.00002c0,0 -1.2503,0.00516 -1.2503,1.25516c0,1.25 1.24939,1.25402 1.24939,1.25402l1.235,-0.01817c0.77952,-0.03458 1.41852,-0.14738 1.96141,-0.33791l0.65135,0.01035c2.67252,0.68994 6.26306,1.6623 8.28891,3.45937c-0.74999,2.11395 -2.11241,6.88134 -4.55749,7.80774c-2.4672,0.93479 -6.94752,0.27435 -9.59644,0.27435c-8.07881,0 -16.00252,-0.07082 -23.8578,-2.09909c-4.14704,-0.69629 -9.10682,-2.22352 -13.03591,-3.73654c-0.13085,-0.05039 0.28507,-0.03375 0.40853,-0.10022c0.60976,-0.32831 1.21449,-0.67301 1.77668,-1.07741c1.33975,-0.96371 2.72471,-1.86545 4.08338,-2.80231c1.7431,-1.20193 3.50787,-2.40551 5.25691,-3.61208c1.02978,-0.71039 1.58789,-2.1271 2.76566,-2.54896c0.97078,-0.34771 4.14736,0.08828 5.19017,0.08828c0,0 0.24052,-0.00212 0.51,-0.1071c0.33358,0.14128 1.04127,0.30031 1.54395,-0.47338c0.68103,-1.04819 -0.29067,-1.66561 -0.29067,-1.66561l-0.89717,-0.58479c-3.73033,-2.418 -6.59813,-6.48801 -10.32867,-8.85259c5.71303,0 11.4695,-0.0164 17.18253,-0.0164c3.9654,0 8.53213,-0.61899 12.41402,0.18599c1.69993,1.69993 4.83582,2.94406 7.06645,4.04442c0.54398,0.26835 1.83588,0.17105 1.65957,0.75144c-0.8042,2.64736 -3.48081,4.00139 -4.85106,6.1947c-0.59154,0.94686 -0.91115,1.89019 -1.64556,2.37639l-0.93284,-0.00411c0,0 -0.51786,0.0011 -0.88694,0.33443z" data-paper-data="{&quot;noHover&quot;:false,&quot;origItem&quot;:[&quot;Path&quot;,{&quot;applyMatrix&quot;:true,&quot;segments&quot;:[[241.47592,336.79297],[[242.40876,336.79703],[0,0],[0.73441,-0.4862]],[[244.05484,334.4271],[-0.59154,0.94686],[1.37025,-2.19331]],[[248.90873,328.2432],[-0.8042,2.64736],[0.17631,-0.58038]],[[247.25024,327.49433],[0.54398,0.26835],[-2.23063,-1.10035]],[[240.19338,323.46405],[1.69993,1.69993],[-3.88189,-0.80498]],[[227.80925,323.29297],[3.9654,0],[-5.71303,0]],[[210.67016,323.29297],[5.71303,0],[3.73055,2.36458]],[[220.92531,332.0778],[-3.73033,-2.418],[0,0]],[221.82361,332.66145],[[222.19078,334.39067],[0.68103,-1.04819],[-0.50268,0.77369]],[[220.6518,334.85465],[0.33358,0.14128],[-0.26949,0.10498]],[[220.14259,334.95964],[0,0],[-1.0428,0]],[[214.95427,334.86449],[0.97078,-0.34771],[-1.17776,0.42186]],[[212.18952,337.40259],[1.02978,-0.71039],[-1.74904,1.20657]],[[206.9316,341.00585],[1.7431,-1.20193],[-1.35867,0.93685]],[[202.84727,343.80432],[1.33975,-0.96371],[-0.56219,0.4044]],[[201.07029,344.88075],[0.60976,-0.32831],[-0.12346,0.06647]],[[200.66177,344.98102],[-0.13085,-0.05039],[3.92909,1.51301]],[[213.68643,348.69825],[-4.14704,-0.69629],[7.85528,2.02827]],[[237.47592,350.79297],[-8.07881,0],[2.64892,0]],[[247.06216,350.5301],[-2.4672,0.93479],[2.44508,-0.9264]],[[251.61289,342.73853],[-0.74999,2.11395],[-2.02585,-1.79706]],[[243.32319,339.28361],[2.67252,0.68994],[0,0]],[[242.77097,339.28641],[0,0],[-0.54289,0.19052]],[[240.80925,339.6263],[0.77952,-0.03458],[0,0]],[239.47592,339.6263],[[238.22592,338.3763],[0,1.25],[0,-1.25]],[239.47592,337.1263],[[240.58897,337.1263],[0,0],[0.36908,-0.33333]]],&quot;closed&quot;:true}]}" fill="#ffffff" stroke="none" stroke-width="0.5" stroke-linecap="butt"/><path d="M225.80925,191.70964l0.33333,-6l11.33333,4" fill="none" stroke="#000000" stroke-width="3" stroke-linecap="round"/><path d="M273.14258,187.37631l-23,2.33333l-25,-3" fill="none" stroke="#000000" stroke-width="3" stroke-linecap="round"/><path d="M281.80925,246.3763l-15.66667,13.33333l-25.33333,1l-16.33333,-14.66667" fill="none" stroke="#000000" stroke-width="3" stroke-linecap="round"/><path d="M251.47593,265.70963l-2.33334,-2.66666l-3,62.66666l-11,-3.44334l-21.66667,-1" fill="none" stroke="#000000" stroke-width="3" stroke-linecap="round"/><path d="M213.47592,324.04297l14.33333,-73.66667l13,11.55666h8.66667" fill="none" stroke="#000000" stroke-width="3" stroke-linecap="round"/><path d="M227.17122,258.35678c0,0 0.30386,-1.21545 1.26286,-2.06563c-0.31196,-0.21163 -0.77494,-0.68197 -0.45209,-1.4891c0.46424,-1.1606 1.62483,-0.69636 1.62483,-0.69636c1.09074,0.46408 2.05935,1.09924 2.96723,1.82022c0.68929,0.3201 1.14595,0.76427 1.44458,1.24552c0.09802,0.08999 0.19569,0.18049 0.29309,0.27137c2.12331,0.02313 3.18496,2.14643 3.18496,2.14643l0.23514,0.4832c0.03604,0.06529 0.07168,0.13067 0.10693,0.19616c0.20592,-0.03532 0.41824,-0.06395 0.63716,-0.08563c1.63396,-0.16183 3.12806,1.10614 4.49351,2.01802c0.47421,0.31669 0.88972,0.60586 1.25449,0.87719c1.57959,-0.11209 3.46459,-0.41827 4.37489,0.97226c0.40971,0.62585 -0.45236,1.43147 -0.573,2.16971c-0.25356,1.55165 -0.41499,2.80278 -0.78191,4.09259c0.70922,7.71591 0.3777,15.90791 -0.80785,23.65963c0.23056,0.30387 0.47528,0.60048 0.57784,0.96025c0.45274,1.58816 0.04536,4.37761 0.04536,6.00033c0,3.33333 0,6.66667 0,10c0,3.36756 -0.01176,6.84323 -1.4653,9.89235l0.13197,0.44098c0,0 0,1.25 -1.25,1.25c-0.46972,0 -0.76293,-0.17651 -0.94595,-0.39687c-0.25254,0.28026 -0.53538,0.52832 -0.85489,0.73308c-1.39023,0.89093 -3.30167,0.20396 -4.95165,0.14029c-2.15073,-0.083 -4.14812,-1.15139 -6.21,-1.76879c-3.01689,-0.90336 -7.19669,0.66663 -10.37083,0.12563c-1.91767,-0.32685 -4.66826,0.20751 -5.64682,-1.47377c-1.23653,-2.12452 -0.0227,-4.95664 0.50702,-7.35706c0.14808,-0.67101 1.16891,-2.27956 2.02331,-3.67158c-0.00059,-0.40732 0.00428,-0.79392 0.01449,-1.14762c-0.06457,-0.16026 -0.12946,-0.32446 -0.19478,-0.49265c-1.49194,-3.84155 0.8787,-8.14017 2.93357,-11.90502c0.00052,-0.003 0.00104,-0.00599 0.00156,-0.00899c0.32152,-1.85172 1.09521,-3.61731 1.30641,-5.48483c0.27299,-2.41389 0.13656,-4.90427 0.7848,-7.24546c0.2748,-0.99247 0.5754,-1.96834 0.88604,-2.93787c-0.01888,-0.68238 -0.03285,-1.35859 -0.03227,-2.02515c0.00179,-2.03881 -0.28219,-7.76807 1.43168,-8.98498c0.30838,-0.21896 0.60887,-0.41744 0.90165,-0.59635v-0.08533c0,-0.50776 0.10092,-0.99195 0.28378,-1.4336c0.0188,-2.73276 0.17894,-5.44541 0.82818,-8.14257zM246.35302,265.14881c0.05312,-0.07711 0.00947,-0.05421 -0.07916,0.00766c0.01143,0.01981 0.02269,0.03968 0.03376,0.05961c0.01495,-0.02262 0.03009,-0.04504 0.0454,-0.06727z" fill="#0077ff" stroke="none" stroke-width="0.5" stroke-linecap="butt"/><path d="M254.85887,268.71547c-0.38538,-0.48078 -0.677,-1.13796 -0.77668,-2.03506c-0.41412,-3.72706 3.31295,-4.14118 3.31295,-4.14118c2.90803,-0.31788 5.73222,0.20033 8.32119,-1.25115c1.9119,-1.07189 6.70037,-4.69016 8.25259,-3.9213c4.44701,2.2027 3.90206,7.82106 3.92367,11.56619c0.02274,3.94043 -0.43058,8.23292 0.55779,12.10292c0.77527,3.03562 2.20557,5.98774 3.00444,9.01822c0.85242,3.2336 1.05998,6.49351 2.80063,9.40025c1.52907,5.01362 5.94801,10.37935 6.26406,15.60073c0.1151,1.90157 0.45725,4.11485 -0.62803,5.68053c-2.89189,4.17197 -7.16351,1.89272 -10.85794,2.57233c-4.49043,0.82604 -8.58621,3.51011 -12.67252,5.37223l-3.59338,1.63336c-0.49164,0.23676 -1.04285,0.36944 -1.62504,0.36944c-2.07107,0 -3.75,-1.67893 -3.75,-3.75c0,-1.27603 0.63733,-2.40319 1.61103,-3.08055l1.75156,-1.25111c0.0209,-0.13952 0.03684,-0.28026 0.04733,-0.42234c0.2079,-2.81333 -1.06949,-4.11466 -1.66156,-6.80087c-0.83435,-3.78544 0.68715,-8.00764 -0.02152,-11.77604c-0.17545,-0.93298 -0.84332,-1.73035 -1,-2.66667c-0.48956,-2.92568 0.49224,-6.10436 0,-9c-0.60278,-3.54593 -2.34649,-7.21344 -3.26297,-10.6883c-0.96243,-3.64907 -1.08458,-7.3897 -0.95164,-11.12521c0.34726,-0.43333 0.65378,-0.91609 0.95406,-1.40641z" fill="#0077ff" stroke="none" stroke-width="0.5" stroke-linecap="butt"/><path d="M250.80925,263.59963l-6,61.66667l-23.33333,-4.66667l-6.33333,2l13.33333,-69" fill="none" stroke="#000000" stroke-width="3" stroke-linecap="round"/><path d="M274.14258,257.59963l17.66667,65.33333l-15.66667,1.66667l-16,2.66667l-5,-63.33333" fill="none" stroke="#000000" stroke-width="3" stroke-linecap="round"/><path d="M198.14259,119.93296l107.66667,2" fill="none" stroke="#0077ff" stroke-width="4" stroke-linecap="round"/><path d="M203.14259,126.93296l-3.66666,-5l13.66666,1.33333" fill="none" stroke="#0077ff" stroke-width="4" stroke-linecap="round"/><path d="M197.80926,111.93296l109,2h-107.66667" fill="none" stroke="#0077ff" stroke-width="4" stroke-linecap="round"/><path d="M307.47592,115.59963l-2.33333,11h-104.33333" fill="none" stroke="#0077ff" stroke-width="4" stroke-linecap="round"/><path d="M288.47592,116.93296l17.66667,1.33333l-108.33333,-2" fill="none" stroke="#0077ff" stroke-width="4" stroke-linecap="round"/><path d="M197.80925,108.26629l108,3.33334" fill="none" stroke="#0077ff" stroke-width="4" stroke-linecap="round"/><path d="M306.80926,109.59963l-107.66667,-5" fill="none" stroke="#0077ff" stroke-width="4" stroke-linecap="round"/><path d="M240.80925,99.59963l-41.33333,-1l31.33333,-0.66667" fill="none" stroke="#0077ff" stroke-width="4" stroke-linecap="round"/><path d="M199.14259,93.93296l40.33334,3.33333" fill="none" stroke="#0077ff" stroke-width="4" stroke-linecap="round"/><path d="M198.14259,97.26629h28.33334" fill="none" stroke="#0077ff" stroke-width="4" stroke-linecap="round"/><path d="M200.80925,91.26629l37.66667,3.33334" fill="none" stroke="#0077ff" stroke-width="4" stroke-linecap="round"/><path d="M200.80925,88.59963l36.66667,3.33333" fill="none" stroke="#0077ff" stroke-width="4" stroke-linecap="round"/><path d="M200.80925,85.26629l35.33334,3.33334" fill="none" stroke="#0077ff" stroke-width="4" stroke-linecap="round"/><path d="M204.14259,81.93296l30.66666,2.66667" fill="none" stroke="#0077ff" stroke-width="4" stroke-linecap="round"/><path d="M207.47592,77.93296l27,4" fill="none" stroke="#0077ff" stroke-width="4" stroke-linecap="round"/><path d="M241.14259,103.26629l-41.33334,-1.66666l5.33334,-22l5,2" fill="none" stroke="#0077ff" stroke-width="4" stroke-linecap="round"/><path d="M215.80925,76.93296l16,1.66667" fill="none" stroke="#0077ff" stroke-width="4" stroke-linecap="round"/><path d="M234.14259,78.59963l-14,-3.66667" fill="none" stroke="#0077ff" stroke-width="4" stroke-linecap="round"/><path d="M194.14259,107.26629l0.66666,-19l6,-10.33333l9,-3l11.33334,-2.66667l10,1.33334l5.66666,3.33333l4.66667,9.33333l3.66666,16.66667l8,-16.66667l14.66667,-11.33333h11.33333" fill="none" stroke="#000000" stroke-width="4" stroke-linecap="round"/><path d="M304.14259,106.59963l-56,-3" fill="none" stroke="#0077ff" stroke-width="4" stroke-linecap="round"/><path d="M249.80925,97.93296l53.33334,1.66667" fill="none" stroke="#0077ff" stroke-width="4" stroke-linecap="round"/><path d="M253.14259,92.93296l48,4l-49.33334,-2.33333" fill="none" stroke="#0077ff" stroke-width="4" stroke-linecap="round"/><path d="M301.47592,95.26629l5.33333,22.66667l-18.33333,-9" fill="none" stroke="#0077ff" stroke-width="4" stroke-linecap="round"/><path d="M284.14259,100.59963l18.66667,3l-53.33333,-2.33334" fill="none" stroke="#0077ff" stroke-width="4" stroke-linecap="round"/><path d="M266.80925,77.93296l18,0.66667l13.66667,7l7.03021,14.24947l5.4,20.2l-5.2,15.4" fill="none" stroke="#000000" stroke-width="4" stroke-linecap="round"/><path d="M264.14259,81.59963l25,1.33333" fill="none" stroke="#0077ff" stroke-width="4" stroke-linecap="round"/><path d="M263.47592,78.59963l24.66667,1.66666l11.33333,14.33334l-43.33333,-3.33334" fill="none" stroke="#0077ff" stroke-width="4" stroke-linecap="round"/><path d="M255.80925,88.59963l39,3" fill="none" stroke="#0077ff" stroke-width="4" stroke-linecap="round"/><path d="M260.14259,83.93296l31.66667,2.66667" fill="none" stroke="#0077ff" stroke-width="4" stroke-linecap="round"/><path d="M256.47592,85.26629l35.33333,3.33334" fill="none" stroke="#0077ff" stroke-width="4" stroke-linecap="round"/><path d="M299.47592,111.26629h-38.66667" fill="none" stroke="#0077ff" stroke-width="4" stroke-linecap="round"/><path d="M268.47592,118.26629l39,7l-6,-1.33333h-102.33333" fill="none" stroke="#0077ff" stroke-width="4" stroke-linecap="round"/><path d="M299.80925,124.93296l-94,-5" fill="none" stroke="#0077ff" stroke-width="4" stroke-linecap="round"/><path d="M220.3354,151.19302c1.45609,-0.97072 2.42682,0.48536 2.42682,0.48536l-0.66259,-0.13445c3.01639,0.69609 6.6558,1.30227 9.65529,2.63652c0.01785,-1.37332 0.03996,-2.7621 0.42604,-3.82514c0.01837,-0.05059 0.03722,-0.10099 0.05651,-0.15117l-0.02226,-0.00593l0.33423,-1.25335c-0.10806,-1.93807 -0.07533,-3.96531 0.33973,-5.5584c-0.07357,-0.93858 -0.1131,-1.8914 -0.10147,-2.86827l0.22433,-0.2667l-0.13074,-0.05229l0.46404,-1.16012c-0.17247,-0.06601 -0.3449,-0.13406 -0.51713,-0.20392c-4.66939,0.19494 -9.37413,0.16397 -13.92208,0.16397h-2c-0.9665,0 -1.75,-0.7835 -1.75,-1.75c0,-0.86022 0.62065,-1.57547 1.43858,-1.72237l0.657,-0.1314c-0.28253,0.00244 -0.56442,0.00377 -0.84558,0.00377h-2.5c-0.9665,0 -1.75,-0.7835 -1.75,-1.75c0,-0.92656 0.72009,-1.68493 1.63117,-1.74603l2.58461,-0.19882l0.00133,0.01721c0.02188,-0.0071 0.04379,-0.01414 0.06573,-0.02107c1.07642,-0.34045 2.71771,0.86443 0.81108,-0.88056l-0.03161,0.55546c0,0 -1.7262,-0.2877 -1.4385,-2.01389c0.2877,-1.72619 2.01389,-1.43849 2.01389,-1.43849l2.3623,0.95301c0,-1.78393 0,-3.56518 0,-4.72682c0.00156,-0.67454 -0.0154,-1.34647 -0.04945,-2.01589c-2.35031,0.11097 -4.70133,0.18524 -7.05054,0.22645v2.48944c0,0.9665 -0.7835,1.75 -1.75,1.75c-0.76818,0 -1.42075,-0.49495 -1.65622,-1.18333l-1.11141,-3.01667c-0.0108,0 -0.02158,0.00001 -0.03238,0.00001h-0.8c0,0 -1.75,0 -1.75,-1.75c0,-1.10162 0.69348,-1.50978 1.20734,-1.661c-1.73622,-5.57353 -1.77886,-13.09105 -0.05363,-17.93111c0.88529,-2.48363 2.9367,-9.31472 7.10341,-8.08281c1.80666,0.53415 3.38789,5.61454 3.96039,7.1376c1.84396,4.90565 3.54372,9.88948 4.54712,15.00454c0.53576,-3.10056 1.35731,-6.11465 2.8776,-8.70596c0.80775,-1.37681 0.98219,-3.65987 2.52516,-4.06893c3.787,-1.004 4.28463,4.80107 4.6502,6.34469c0.57557,2.43031 1.26082,4.82504 1.98118,7.20856l0.80804,-0.16161l0.05402,0.27013c0.05823,-0.02869 0.11651,-0.05718 0.17485,-0.08544c0.45482,-1.24725 1.21669,-2.21934 2.44463,-2.68547c1.06613,-0.40471 2.20579,-0.47587 3.3678,-0.3465c0.87421,-2.80643 2.6074,-4.82026 4.61445,-7.95867c0.96776,-1.51329 2.12251,-3.27446 3.84848,-3.77209c3.28138,-0.94609 7.80237,-0.49327 11.17022,-0.29585c0.73129,0.8986 2.08976,1.54191 2.19386,2.69578c0.01231,0.13642 0.01891,0.27238 0.02005,0.40787c0.34864,0.19075 0.69155,0.40482 1.02869,0.63818c0.6477,-0.61218 2.99897,-1.65625 4.87138,-1.87354c0.43631,-0.08283 0.85497,-0.09314 1.23056,0.00305c0.45382,0.07462 0.81834,0.24992 1.03531,0.55945c0.16777,0.23934 0.26732,0.49667 0.31573,0.76721c0.05003,0.12313 0.09141,0.24616 0.12455,0.36901c0.17081,-0.03312 0.34105,-0.06455 0.51065,-0.09417c0.89461,-0.15624 1.79897,-0.28987 2.7103,-0.4057c-2.30124,-2.24169 -4.70301,-4.55752 -6.67908,-6.91325c-1.62052,-1.93185 -3.47884,-4.0479 -5.05506,-6.06492c-0.60062,-0.76858 -0.86561,-1.81316 -1.60989,-2.44364c-0.95006,-0.80479 -2.22926,-0.05889 -3.15871,0.07367c-4.40821,0.6287 -5.13701,5.02192 -5.11959,9.07089c0,0 0,1.75 -1.75,1.75c-1.75,0 -1.75,-1.75 -1.75,-1.75c0.02113,-5.84964 1.71571,-11.54057 8.08041,-12.52912c2.20414,-0.34234 3.25302,-1.15104 5.64128,0.47368c1.09118,0.74232 1.55509,2.13439 2.39012,3.15636c1.64726,2.01605 3.31715,3.96738 4.94494,5.93507c2.49739,3.01888 5.78128,5.97479 8.59079,8.78974c0.00112,0.00138 0.00222,0.00276 0.00334,0.00415c3.43809,-0.26079 6.90908,-0.38467 10.27042,-0.61655l2.29079,-0.15799c0.0455,-0.00355 0.09149,-0.00535 0.13791,-0.00535c0.9665,0 1.75,0.7835 1.75,1.75c0,0.35965 -0.10849,0.69396 -0.29453,0.97199l-1.88759,2.9172l-0.0204,-0.0132c-0.06486,0.09895 -0.13254,0.19627 -0.20333,0.29181c-0.76514,1.03263 -2.12104,1.45206 -3.189,2.16706c-0.73161,0.48981 -1.45049,0.87288 -2.17063,1.1868c1.31837,0.11248 2.63126,0.34768 3.98221,0.82258l1.7484,0.5828c0.7151,0.21992 1.23488,0.88574 1.23488,1.67296c0,0.69861 -0.40936,1.3016 -1.00128,1.5822l-3.09659,1.54829l-0.00408,-0.00815c-0.01975,0.01281 -0.03953,0.02557 -0.05935,0.03828c-1.76157,1.13013 -4.05535,1.17423 -6.25408,1.08931c0.00117,0.11987 0.00578,0.23691 0.01537,0.35007c0.19117,2.2545 0.23111,4.92728 -0.1223,7.47695v0c0.0084,0.00174 0.01679,0.00351 0.02517,0.00532c1.29444,-0.42377 2.92282,-0.92617 3.85023,-0.04082c0.23822,0.22741 0.41156,0.49265 0.53668,0.78475c0.15422,-0.01186 0.31188,0.0037 0.47306,0.052c0.33149,0.09933 0.62123,0.27473 0.87424,0.50494c0.11899,-0.10319 0.23492,-0.20029 0.34785,-0.29146c0.25808,-1.015 0.51613,-1.98532 0.72035,-2.85726l1.98591,-4.17718c1.00831,1.5689 2.35296,2.96698 3.02493,4.70669c0.01515,0.03921 0.02945,0.0786 0.04296,0.11817l0.20889,-0.15368c0.01893,0.07098 0.03767,0.14145 0.0562,0.21143c0.41229,-2.53186 1.02136,-5.08613 1.69785,-7.82989l2.31888,-3.24951c0.71376,2.43978 1.58996,4.97467 1.35122,7.50548l0.00788,0.23409c0,0 0,1.68844 -1.65848,1.74836c-0.09774,0.42834 -0.18953,0.85799 -0.27294,1.28948c-0.05222,0.27011 -0.096,0.5345 -0.13367,0.79354c0.04711,0.08452 0.09519,0.16883 0.14375,0.25305c0.23428,-0.6244 0.49835,-1.2461 0.80609,-1.86706c0,0 0.78262,-1.56525 2.34787,-0.78262c0.76259,0.38129 0.96788,0.94836 0.97789,1.42967l0.32237,-0.53728c0.30228,-0.52425 0.86848,-0.87714 1.51711,-0.87714c0.9665,0 1.75,0.7835 1.75,1.75v2.4h-0.05361c0.01175,0.10074 0.02087,0.20194 0.02706,0.30363c0.14718,2.41554 -2.16809,5.88034 -3.12704,8.01326c-2.24573,4.99501 -3.90308,9.35481 -8.55822,12.69188c-1.1738,0.84144 -2.76549,0.83421 -4.14256,1.26957c-1.66402,0.52608 -3.31946,1.1241 -4.98701,1.70168c-0.14011,0.63276 -0.62275,1.13675 -1.24343,1.30747l-1.90233,0.5707c-0.07193,0.0538 -0.14401,0.10738 -0.21624,0.16075c-0.05755,0.04694 -0.11518,0.08941 -0.17286,0.12706c-0.14656,0.10717 -0.29379,0.2134 -0.44178,0.31857l0.00754,0.01184l-0.25121,0.15986c-0.11257,0.07864 -0.22559,0.15663 -0.33911,0.23394l-0.0283,0.00325l0.00659,0.01054l-1.57712,0.9857c-0.27367,0.17733 -0.6,0.2803 -0.95038,0.2803c-0.55273,0 -1.04562,-0.25626 -1.36633,-0.65645c-1.45625,0.80501 -2.88834,1.67247 -4.41723,2.45432c-1.6101,0.82339 -2.83783,1.63894 -4.6206,1.37149c-0.5582,0.72313 -1.56997,0.62195 -1.56997,0.62195c-2.18453,-0.23984 -3.77714,-1.28641 -5.87999,-1.60986c-3.01141,-0.4632 -6.48833,0.0251 -9.54588,0.01855c-1.46146,-0.00313 -3.96225,0.17188 -5.15815,-0.83807c-0.66501,-0.5616 -1.02408,-1.43641 -1.2261,-2.40613c-0.65752,-0.72079 -0.84791,-1.89545 -0.96555,-2.8793c-0.09698,-0.81108 0.20613,-1.59158 0.50616,-2.37732c-0.37632,-2.97335 -1.20259,-6.01633 -2.05799,-8.84059c-0.00177,-0.04642 -0.00467,-0.0932 -0.00857,-0.14029c-0.46163,-0.31795 -0.97904,-0.79086 -1.45229,-1.33356c-0.35402,0.16332 -0.6973,0.37338 -1.07952,0.40811c-0.76206,0.06924 -1.57133,0.02456 -2.40798,-0.10863v1.16578h-0.03716c0.01024,0.05731 0.01981,0.11479 0.02864,0.17244c0.17571,1.14648 -0.37361,2.26919 -0.65818,3.41201c0.07001,0.9922 0.15992,1.98819 0.26789,2.98151l0.47364,1.1841l-0.11581,0.04632l0.2094,0.27267c-0.01208,0.68283 -0.2106,1.38819 -0.03624,2.0485c0.16766,0.63496 1.06101,1.02883 1.02194,1.68439c-0.01129,0.1895 -0.03565,0.37647 -0.07046,0.56142l0.10765,0.01076l-0.1559,1.55894c0.71716,0.92524 1.95012,1.82217 1.95334,2.46891c0.01809,3.62902 -2.58273,3.73414 -4.99288,3.52947c-0.40578,-0.03446 -0.80775,-0.11035 -1.20662,-0.21431c-0.10976,0.02156 -0.22319,0.03286 -0.33926,0.03286c-0.52459,0 -0.99527,-0.23082 -1.31601,-0.59644c-1.11423,-0.44479 -2.21175,-0.96592 -3.30945,-1.25607c-3.53605,-0.93464 -6.81954,-0.71334 -10.32595,-2.11702c-3.31717,-1.85582 -5.38271,-4.62399 -8.18302,-7.04797c-2.52566,-2.18624 -5.2118,-4.60981 -6.6457,-7.78039c-0.32689,-0.72279 -0.17803,-1.59302 -0.45759,-2.3354c-0.51741,-1.37398 -1.69051,-2.4378 -2.20482,-3.81294c-1.29889,-3.47298 -2.45556,-7.0438 -2.09876,-10.77789c0,0 0.17413,-1.74132 1.91545,-1.56718c1.74131,0.17413 1.56718,1.91545 1.56718,1.91545c-0.5223,4.95785 2.41934,8.65398 4.09642,13.00916c0.25069,0.651 0.06426,1.42485 0.34241,2.0646c1.20236,2.76546 3.57692,4.73046 5.75429,6.61961c2.53239,2.19717 4.41554,4.90025 7.41698,6.55203c0.03831,0.01531 0.07663,0.03044 0.11497,0.04541l-0.32247,-0.29422c0,0 -0.97073,-1.45609 0.48536,-2.42682zM236.09194,157.75822c-0.01466,0.04263 -0.03064,0.08474 -0.04787,0.12636c0.36616,0.13521 0.72894,0.27598 0.52329,0.16254c-0.17174,-0.09474 -0.32982,-0.19096 -0.47543,-0.2889zM219.08192,135.49902c0.13268,-0.04825 0.26601,-0.09534 0.39995,-0.1413c-0.29057,0.00673 -0.58072,0.01296 -0.87034,0.01842l0.0246,0.12297h0.27c0.05862,0 0.11722,-0.00003 0.17579,-0.00009zM286.03456,148.36082c0.17447,-0.04472 0.3484,-0.08979 0.52173,-0.13535c0.00072,-0.05459 0.00395,-0.10858 0.00956,-0.16185c-0.07241,0.03977 -0.14495,0.07962 -0.2176,0.11955c-0.1044,0.05738 -0.20896,0.11666 -0.31368,0.17765zM276.40319,120.12813c0.22455,-0.49896 0.37788,-1.06179 0.54564,-1.61384c-0.47735,-0.31252 -0.7927,-0.85202 -0.7927,-1.46518c0,-0.08488 0.00605,-0.16835 0.01773,-0.25c-0.53951,0 -1.07903,0 -1.61855,0c0.63309,1.11681 1.25777,2.24297 1.82567,3.37851c0.00738,-0.0165 0.01479,-0.03299 0.02221,-0.04949zM265.47484,128.13704c1.04451,-0.23893 2.07268,-0.44891 3.10174,-0.6157c0.07347,-0.12588 0.14741,-0.25147 0.22138,-0.37583c0.00254,-0.14407 0.00502,-0.28801 0.00739,-0.4318c-1.33742,-0.53887 -2.66893,-1.06277 -3.98818,-1.57045c-0.23471,-0.09032 0.38825,0.36908 0.43548,0.6161c0.12606,0.6593 -0.13468,1.37243 0.06716,2.01261c0.04033,0.12792 0.09254,0.24941 0.15502,0.36507zM253.32151,126.19172c-0.31681,-0.70791 -0.54229,-1.40187 -0.69046,-2.08452c-0.5688,0.06734 -1.13774,0.13836 -1.70674,0.2123c-1.38573,0.60971 -2.8584,1.02252 -4.39354,1.20067c-1.23964,0.14386 -2.73551,1.20185 -3.71873,0.43328c-0.1467,-0.11468 -0.28135,-0.24823 -0.40494,-0.39804c-1.1085,0.16595 -2.21525,0.32904 -3.31949,0.48376c-0.00074,0.76073 -0.00866,1.50942 -0.02921,2.2542c4.86312,-0.05136 10.05823,-0.43137 15.18477,-0.43545c-0.34446,-0.51608 -0.65423,-1.06865 -0.92165,-1.66622zM256.49075,124.70649c0.63106,1.33329 1.49984,2.37224 2.49302,3.27731c0.97764,0.05756 1.94805,0.13746 2.90829,0.24479c-0.18169,-1.21003 -0.24716,-3.14912 0.12312,-4.53607c-1.30639,-0.08501 -2.62309,-0.17803 -3.89803,-0.09694c-0.66382,0.04222 -1.32828,0.09274 -1.99322,0.15036c0.09443,0.32097 0.21569,0.64125 0.36682,0.96055zM249.5638,105.96823c1.0267,-0.67706 2.14943,-1.21358 3.41257,-1.62756c-0.68339,0.03952 -1.36172,0.10115 -2.03126,0.20248c-0.99114,0.15001 -1.1304,0.72777 -1.3813,1.42508zM265.48194,116.79911c-1.1263,0.8733 -2.34206,1.54034 -3.56866,1.89129c-1.95226,0.55858 -3.22433,0.60731 -3.83928,-0.18949c-0.07664,0.10294 -0.15422,0.20506 -0.2327,0.30635c0.13063,0.04163 0.26159,0.08182 0.39288,0.12046c2.72338,0.80142 5.68283,1.0269 8.57814,1.19089c0.94985,0.00356 1.64451,0.00621 1.64508,0.00634c0.01337,0.00303 0.02675,0.0061 0.0401,0.00918l0.00038,-0.00763l3.48521,0.17426c0.20506,0.00888 0.40097,0.05304 0.58181,0.12657l0.00254,-0.00269c-0.65557,-1.21881 -1.35734,-2.42569 -2.03164,-3.62554c-1.68462,0 -3.36924,0 -5.05387,0zM271.39586,111.30252l2.60352,-0.18596c1.95497,-0.68861 6.61746,-0.58037 4.77414,-3.42272c-0.0881,-0.13586 -0.18251,-0.26707 -0.28132,-0.39502c-2.54071,0.30032 -5.06264,0.7075 -7.56276,1.30915c-0.13387,0.62286 -0.33773,1.25923 -0.60147,1.89502c0.24388,0.29312 0.48256,0.58015 0.71603,0.85779c0.11313,-0.0309 0.23083,-0.05072 0.35187,-0.05825zM284.96592,109.06336c1.46963,-0.6354 2.80313,-1.68467 4.18421,-2.61697l-0.01463,-0.00947l0.00187,-0.00288c-2.32235,0.15466 -4.63295,0.29778 -6.9296,0.49273c0.43608,0.88652 0.70788,1.82306 0.63368,2.7703c0.72823,-0.15017 1.44349,-0.33928 2.12447,-0.6337zM248.25371,120.74108c-0.00858,0.16293 -0.03154,0.30986 -0.06614,0.44237c0.88978,-0.12227 1.78014,-0.23929 2.6707,-0.34822c0.25807,-0.19516 0.51248,-0.4084 0.76184,-0.63432c-0.54462,-0.22758 -1.08898,-0.45786 -1.6334,-0.68686c-0.53105,0.06965 -1.08068,0.122 -1.63542,0.16127c-0.07168,0.07197 -0.14684,0.14719 -0.22522,0.22501c0.09421,0.22567 0.14545,0.50213 0.12763,0.84076zM230.89972,114.91495c-0.57392,-1.80528 -1.16209,-3.61387 -1.54266,-5.46957c-0.19141,-0.93333 -0.41854,-1.86183 -0.54601,-2.80584c-0.35394,2.5789 -1.72142,4.55348 -2.13512,7.32626c-0.20904,1.40105 -0.44023,2.80169 -0.66955,4.20304c1.91876,-0.15717 3.83561,-0.33849 5.75145,-0.54276c-0.28367,-0.90268 -0.57035,-1.80599 -0.8581,-2.71114zM225.09139,124.29297c-0.01415,0.115 -0.20619,2.22021 -0.38096,4.10796l0.5296,-0.08148l0.0033,0.02141c0.04295,-0.01269 0.08606,-0.02492 0.12936,-0.03666c2.59292,-0.70328 6.22111,-0.37108 9.43472,-0.14889c-0.14907,-0.58929 -0.30246,-1.17693 -0.45968,-1.76327c-0.89227,-0.08006 -1.5916,-0.82982 -1.5916,-1.74292c0,-0.57698 0.27923,-1.08875 0.70992,-1.40753c-0.20298,-0.69862 -0.41013,-1.39615 -0.62055,-2.09316c-2.46708,0.26972 -4.94003,0.49129 -7.41589,0.66898c-0.1222,0.82452 -0.23657,1.64964 -0.33822,2.47558zM214.89648,101.34072c-0.61852,-1.65347 -0.47395,-3.7441 -1.69747,-5.01671c-0.21318,-0.22173 -0.47045,0.42278 -0.59825,0.70256c-0.2063,0.45163 -0.32179,0.93842 -0.45893,1.41711c0.07512,0.2067 0.09672,0.35793 0.09672,0.35793c0.95265,6.66854 0.87176,13.33332 0.83015,20.04659c2.23925,-0.04976 4.47324,-0.13558 6.70336,-0.25559c-0.80728,-5.91808 -2.77904,-11.64729 -4.87557,-17.25189zM209.58798,112.09252c-0.01266,-1.60624 -0.04484,-3.21069 -0.1124,-4.81398c-0.05935,1.59409 0.01094,3.34305 0.1124,4.81398z" fill="#0077ff" stroke="none" stroke-width="0.5" stroke-linecap="butt"/><path d="M209.30613,152.84911l-8.6,-13l-5.2,-15.8l-1.8,-20" fill="none" stroke="#000000" stroke-width="4" stroke-linecap="round"/><path d="M244.70613,103.04911l6.6,-13.4l9.2,-10l10,-2.8l16,0.2l13,9.6" fill="none" stroke="#000000" stroke-width="4" stroke-linecap="round"/><path d="M242.50613,150.44911l3.8,14" fill="none" stroke="#000000" stroke-width="4" stroke-linecap="round"/><path d="M255.90613,159.6491l27,-4.6" fill="none" stroke="#000000" stroke-width="4" stroke-linecap="round"/><path d="M262.90613,159.4491l8.6,-0.8" fill="none" stroke="#000000" stroke-width="4" stroke-linecap="round"/><path d="M239.30613,160.0491l-24.4,-5.6" fill="none" stroke="#000000" stroke-width="4" stroke-linecap="round"/><path d="M232.50613,160.4491l1.8,0.2" fill="none" stroke="#000000" stroke-width="4" stroke-linecap="round"/><path d="M281.50613,154.4491l15.8,-6.8" fill="none" stroke="#000000" stroke-width="4" stroke-linecap="round"/><path d="M217.30613,153.6491l-9,-4" fill="none" stroke="#000000" stroke-width="4" stroke-linecap="round"/></g></g></svg>