<svg version="1.1" xmlns="http://www.w3.org/2000/svg" xmlns:xlink="http://www.w3.org/1999/xlink" width="151.03972" height="335.74271" viewBox="0,0,151.03972,335.74271"><g transform="translate(-179.87919,-20.98061)"><g data-paper-data="{&quot;isPaintingLayer&quot;:true}" fill-rule="nonzero" stroke-linejoin="miter" stroke-miterlimit="10" stroke-dasharray="" stroke-dashoffset="0" style="mix-blend-mode: normal"><path d="M265.71583,180.28852c0,0 -1.54351,0.11025 -1.83133,-1.32803c-0.10138,-0.00061 -0.1993,-0.00093 -0.29335,-0.00086c0,0 -1.75,0 -1.75,-1.75c0,-1.75 1.75,-1.75 1.75,-1.75c0.78207,0.00069 4.68537,0.12234 5.78596,-0.24552c0.88117,-0.29453 1.53766,-1.10917 2.43155,-1.36252c0.64191,-0.18193 1.37713,0.28569 2.00748,0.11048c0.19454,-0.13481 0.38629,-0.27396 0.57531,-0.41737c0.27988,-0.35566 0.47348,-0.83303 0.84313,-1.08807c0.37178,-0.25651 0.76228,-0.48458 1.16401,-0.6932c1.24755,-1.28168 2.35916,-2.77746 3.35862,-4.45416l0.03487,-0.0704c-0.2677,-0.20835 -0.49554,-0.53753 -0.59985,-1.05292c-0.34715,-1.71522 1.36807,-2.06238 1.36807,-2.06238c0.95281,-0.19284 1.90561,-0.38568 2.85841,-0.57853c0.00696,-0.64195 0.01751,-1.28393 0.1067,-1.91622l-0.01758,-1.08585c0,0 0,-1.75 1.75,-1.75c1.75,0 1.75,1.75 1.75,1.75l-0.01759,1.58082c-0.03505,0.24191 -0.06673,0.48113 -0.09618,0.71785c0.28461,-0.0576 0.56923,-0.11521 0.85384,-0.17281l1.63354,-0.33062c0,0 1.71522,-0.34715 2.06237,1.36807l0.00001,0.00002c0.34715,1.71522 -1.36807,2.06237 -1.36807,2.06237c-1.00774,0.20397 -2.30446,0.46641 -3.64707,0.73815c-0.29947,1.656 -0.83402,3.22163 -2.12483,4.77979c-0.63466,0.76611 -1.27024,1.27217 -1.9165,1.64851c-0.54309,0.9243 -1.13156,1.84034 -1.96294,2.6825c-1.51776,1.53744 -4.25768,2.1341 -6.85514,2.53149c-2.3175,1.18368 -4.92192,1.91827 -7.85342,2.13942z" fill="#000000" stroke="none" stroke-width="0.5" stroke-linecap="butt"/><path d="M242.5886,132.78331l-1.29158,-21.50449" fill="none" stroke="#000000" stroke-width="4.5" stroke-linecap="round"/><path d="M250.65107,113.80681l0.37367,20.32989" fill="none" stroke="#000000" stroke-width="4.5" stroke-linecap="round"/><path d="M202.15089,173.26214l0.52503,1.10415c1.97744,2.68244 2.20511,5.98622 3.75444,8.79749c0.94747,1.7192 3.36624,3.63614 4.77289,5.04185c3.41695,3.41468 5.85747,6.68972 11.06054,5.90907c0,0 0.05088,-0.00727 0.13514,-0.0097c0.7699,-2.40828 1.64606,-4.76715 2.34841,-7.21943c0.17881,0.33769 0.43186,0.66144 0.78415,0.94606c-0.01558,-0.0939 -0.02369,-0.19032 -0.02369,-0.28863l0.00001,-0.00001c0,-0.23694 0.04709,-0.46289 0.13242,-0.66899c-8.30573,-2.92702 -15.94299,-7.62646 -22.24608,-13.88066c-0.88849,-0.18072 -1.24831,-1.12278 -1.24831,-1.12278c-0.03133,-0.08668 -0.06393,-0.17273 -0.09776,-0.25816c-0.02885,-0.03061 -0.05768,-0.06125 -0.08648,-0.09193l-0.391,1.10042c0.38687,0.25438 0.58031,0.64125 0.58031,0.64125zM209.08192,190.32695c-1.56898,-1.57 -4.15039,-3.70776 -5.22711,-5.62481c-1.48746,-2.64834 -1.63806,-5.89939 -3.48239,-8.40734c-0.75753,2.12863 -1.60991,4.23021 -2.19481,6.39243c-0.52734,1.9494 0.1947,2.48783 -0.91243,4.46895c-0.7604,1.36067 -1.30308,3.31142 -2.80029,3.745c-1.14479,0.33152 -2.09522,-0.37628 -2.86431,-1.35819c3.49054,-0.00629 3.49055,-3.49999 3.49055,-3.49999l-0.36951,-2.23191c-0.01623,-0.03145 -0.03256,-0.06278 -0.04897,-0.09397c0.99129,-3.85646 2.26841,-7.56429 3.32236,-11.47896l0.67074,-1.89565c0,0 0.41419,-1.16823 1.52858,-1.18976c-0.04043,-0.19832 -0.04923,-0.41816 0.00339,-0.64732c-1.61552,-2.08533 -3.67181,-3.95033 -5.00956,-6.16376c-1.40445,-2.32378 -2.4832,-5.13808 -3.0332,-7.78767c-0.14685,-0.70745 -1.1706,-5.42226 -0.90401,-5.89135c3.4092,-5.99881 10.27849,-1.6568 14.74445,0.91362c-0.86638,-1.54305 -1.65091,-3.11938 -2.7491,-4.74609c-0.1412,-0.20915 -3.92442,-4.43544 -4.10209,-4.80758c-1.44229,-3.02088 -1.85173,-7.40225 -2.52693,-10.67609c-0.69854,-3.38702 -1.87287,-7.05285 -2.15085,-10.49626c-0.64575,-7.99901 0.69125,-16.66746 1.03044,-24.69286c0.11828,-2.67912 0.46894,-5.56385 1.09732,-8.44759c-0.40711,-0.84109 0.16896,-1.70952 0.16896,-1.70952l0.26058,-0.39284c0.04357,-0.06369 0.08714,-0.12738 0.1307,-0.19106c0.90831,-3.34446 2.21049,-6.613 3.97838,-9.47821c0.06817,0.01989 0.13708,0.03775 0.20663,0.05349l-0.09788,0.12195c-0.63857,0.78416 -0.93393,1.83747 -0.71767,2.90601c0.1176,0.58103 0.37281,1.09908 0.72483,1.52708c0.92809,-1.26622 1.85351,-2.51817 3.23144,-3.32528c2.30003,-1.34722 5.75807,-1.61334 8.34099,-2.13611c7.15488,-1.44812 15.43058,-2.86281 21.20989,1.51477c-0.06951,-0.33042 -0.13944,-0.66075 -0.20979,-0.99099c0.35882,-0.09163 0.7127,-0.19477 1.05847,-0.31321c0.48847,1.11177 0.90402,2.21987 1.28059,3.32942c0.39191,0.4634 0.76603,0.96599 1.12072,1.51041c0,0 0.66691,1.06737 -0.03561,1.95732c0.48486,1.63227 0.9617,3.27905 1.53604,4.95637c1.32075,3.8572 3.5932,7.3991 4.96956,11.1629c0.43023,1.17651 0.75122,2.48757 1.01841,3.84252c0.22456,-0.86865 0.4463,-1.71465 0.59332,-2.50529c0.57418,-3.08776 1.48012,-6.63662 3.29313,-9.30531c3.20414,-4.7164 8.1768,-8.2185 12.72213,-11.88043c0.88691,-0.83954 1.6645,-1.83046 2.74567,-2.37682c0.06009,-0.03037 0.12054,-0.06006 0.18133,-0.08908c0.00134,-0.0012 0.00267,-0.00239 0.00401,-0.00359c0.00027,0.00043 0.00055,0.00086 0.00082,0.00128c3.60977,-1.7209 8.43535,-1.1055 12.28127,-1.10257c1.68207,0.00128 4.02763,-0.10386 5.61022,0.44317c4.10072,1.41743 7.42919,4.29773 11.00387,6.50214c1.39843,0.86237 3.16017,1.09087 4.46288,2.092c1.44885,1.11344 2.56429,2.60415 3.82161,3.93007c1.11119,6.68772 5.16727,13.11212 6.80392,19.85889c0.29528,-0.5132 0.46416,-1.10835 0.46416,-1.74293c0,-0.67925 -0.19349,-1.31331 -0.52837,-1.85006l-1.71155,-2.85258c0.07117,-0.06776 0.1427,-0.13712 0.21461,-0.2081c0.00545,-0.00538 0.01087,-0.01076 0.01626,-0.01615c0.23961,0.49595 0.47991,0.99052 0.7211,1.48341c0.34271,0.70034 1.12547,1.13552 1.42365,1.85594c0.12399,0.29958 1.31104,6.24161 1.38201,6.59226c0.71238,3.51977 2.00337,7.0567 0.70732,10.53621c0.73079,3.37757 -0.58313,6.86528 -1.47042,10.13698c-1.59961,5.89821 -4.51622,11.54348 -8.02403,16.67564c0.85077,-0.21774 1.69453,-0.36881 2.44773,-0.01799c1.04807,0.48816 1.25433,1.97523 1.59489,3.08012c1.1606,3.7654 -0.91782,9.3256 -1.77998,12.94039c-2.44624,3.74103 -3.65738,8.20936 -6.53754,11.65317c0.59271,0.97073 0.94174,1.99115 1.8237,3.11112c1.007,1.27876 2.70112,1.97033 3.53594,3.36761c1.35303,2.26462 2.32083,5.04791 3.89959,7.36358c1.01108,1.48303 2.41969,2.81406 3.25025,4.44656c0.53159,1.04484 0.31254,2.50137 1.14724,3.32448c0.56563,0.55776 1.34911,-0.87729 1.87066,-1.47647c0.87797,-1.11827 1.80694,-2.17033 2.74414,-3.20438c-1.68237,2.75093 -3.56579,5.41492 -5.73388,7.99417c-0.19586,-0.07493 -0.39974,-0.16506 -0.61238,-0.27163c-1.61672,-0.81018 -2.2721,-4.56128 -3.38052,-6.05166c-2.5294,-3.40103 -4.34844,-6.95537 -6.30743,-10.54322c-0.5607,-1.02692 -1.79069,-1.49894 -2.67833,-2.27399c-0.34183,0.49602 -0.67972,0.99441 -0.92684,1.53944c-0.86893,1.91644 -0.95265,4.21949 -1.61331,6.19611c-1.64886,4.93324 -4.45003,8.7942 -9.04857,11.1815c-1.83438,0.9523 -4.32043,0.56123 -6.3552,0.51505c0.28398,0.91948 0.6078,1.82414 0.84853,2.76073c0.85494,3.32634 1.214,7.51309 1.87078,11.00324c0.57651,3.06358 1.65398,5.90538 2.11708,9.01093c0.41109,2.75675 0.02851,5.6464 0.02851,8.46965c0,3.94485 0.4314,8.829 -0.05733,12.6653c-0.1085,0.85171 -0.78865,1.37962 -0.90284,2.22969c-0.21771,1.62083 -0.24475,2.98376 -0.31775,4.26843c-1.09301,0.28084 -2.19213,0.53066 -3.29647,0.75274c-1.00529,1.33523 -2.01658,2.65854 -2.84076,4.154c-0.32536,0.59036 -0.31601,1.39416 -0.74929,1.89648c-0.54252,0.62897 -2.00747,1.40702 -3.02426,2.10381c2.42275,-0.25371 4.83568,-0.59276 7.23471,-1.04423c-0.38034,0.51272 -0.78337,0.98006 -1.20481,1.4085c-2.09837,-0.01684 -4.46051,-0.0202 -6.49809,-0.02092c-0.05613,0.04498 -0.10913,0.0894 -0.15859,0.13319c-1.12382,0.9952 -2.10185,2.26304 -3.42088,2.9188c-2.22019,1.10377 -4.48969,0.80651 -6.84078,0.80651c-3.38223,0 -6.76446,0 -10.1467,0c-0.66981,0 -1.33962,0 -2.00943,0c-0.84622,0.14774 -1.6994,0.27093 -2.56764,0.33616c-2.37965,0.17877 -5.41455,1.35912 -7.81186,0.6053c-1.56311,-0.49151 -2.69128,-1.78037 -3.57783,-3.20358c-0.24051,-0.06872 -0.476,-0.1515 -0.7014,-0.26193c-2.52856,-1.23883 -6.73245,-4.78337 -8.16153,-7.43751c-0.63911,-1.18697 -0.25935,-2.48798 -0.3481,-3.68524c-0.12959,0.00206 -0.25916,0.00408 -0.38853,0.00669c-0.29674,-2.29309 -2.12502,-2.80069 -2.91991,-2.91306c-1.57817,-3.44186 -2.85488,-7.2574 -4.09352,-10.67247c-0.20184,-12.147 -0.0755,-24.35121 2.13804,-36.07652c0.13542,-0.71734 0.29489,-1.42279 0.47216,-2.11954c-5.54076,0.29843 -8.53618,-2.98764 -12.41809,-6.87205zM278.47592,196.09962c1.45971,0 4.02881,0.6197 5.29221,-0.15585c1.41034,-0.86574 3.49496,-1.9604 4.54777,-3.29514c2.89997,-3.67652 2.94478,-8.60926 4.79035,-12.66058c0.52325,-1.14863 1.49353,-2.06863 1.96152,-3.23966c-0.08208,-0.19905 -0.17114,-0.39218 -0.28151,-0.58187c-2.25833,1.64163 -5.10279,2.78519 -7.32691,4.36557c-1.76751,1.25592 -3.67994,2.30881 -5.38819,3.6442c-0.60479,0.47278 -0.85408,1.33744 -1.50663,1.74175c-0.07056,0.04372 -0.14281,0.08638 -0.21666,0.12802c-0.058,-0.00307 -0.09007,-0.00307 -0.09007,-0.00307l-2.34826,0.01737c-1.54229,0.16626 -2.4935,0.20986 -3.34016,0.33359c0.31221,1.18419 0.65621,2.33059 1.05737,3.38185l0.00001,-0.00002c0.81888,2.14589 1.91029,4.08672 2.55084,6.35902c0.17543,-0.03517 0.29832,-0.03517 0.29832,-0.03517zM233.75177,195.15802c-1.03448,0.20604 -2.08358,0.40654 -2.96606,0.95682c0,0 -1.07187,0.64312 -1.71499,-0.42874c-0.64312,-1.07187 0.42874,-1.71499 0.42874,-1.71499c1.35761,-0.79074 2.96349,-1.06731 4.495,-1.4178c2.45504,-0.56185 4.70188,-1.60763 7.16347,-2.05647c-0.72965,-0.23354 -1.46286,-0.44841 -2.21856,-0.53753c-1.33605,-0.15758 -2.66466,-0.35841 -3.98347,-0.60176c-0.05689,0.1051 -0.11253,0.21036 -0.16697,0.31579c-0.47181,-0.13621 -0.94621,-0.26537 -1.42404,-0.38461c0.09181,-0.81232 -0.12662,-1.76648 -1.08077,-2.72063c-2.47487,-2.47487 -4.94975,0 -4.94975,0l-1.16143,1.67628c0.10909,0.05567 0.22441,0.10843 0.34627,0.15797c0.41073,0.16697 0.78763,0.25328 1.1325,0.27728c-1.17189,3.95768 -2.8067,7.7352 -3.56733,11.82702c-2.07378,11.15608 -1.82457,22.22623 -2.13565,33.71388c0.4501,1.15412 0.89976,2.37656 1.36519,3.61913c0.10582,-0.05384 0.22946,-0.09598 0.37383,-0.12206c1.17289,-0.21191 1.36837,1.05955 1.36837,1.05955l0.26003,1.82895c0.31483,0.56641 0.62966,1.13281 0.94449,1.69922c0.40501,2.11499 1.07982,2.58462 1.84181,4.32511c0.20921,0.47787 0.26523,1.05406 0.27808,1.65396c0.07754,0.10181 0.15587,0.20211 0.23499,0.30085c-0.20537,-0.91562 0.05339,-1.83138 -0.05017,-2.75243c-0.5003,-4.44921 -0.33942,-8.95997 -0.33942,-13.45651c0,-3.54002 -0.42033,-9.19376 1.73081,-12.06195c-0.06786,-2.58972 0.55544,-3.20962 1.30263,-5.55857c0.32323,-1.01615 -0.12839,-2.13767 -0.02407,-3.19887c0.16988,-1.72807 0.68211,-3.30973 1.00271,-5.02065c0.69508,-3.70939 0.06967,-7.91955 1.51377,-11.37824zM261.14259,190.45964c6.11273,0 9.19901,3.95807 11.47447,9.07312c3.33796,7.50349 3.77553,16.18147 3.77553,24.51021c0,6.44445 0,12.88888 0,19.33333c0,1.76003 0.34243,4.0995 0.26803,6.14679c1.00525,-1.33317 2.02613,-2.65281 2.87004,-4.15812c0.04154,-0.43615 0.09231,-0.89221 0.15729,-1.37145c0.11522,-0.84976 0.78852,-1.37966 0.90284,-2.2297c0.45156,-3.35772 -0.05732,-7.95434 -0.05732,-11.41542c0,-2.5281 0.41462,-5.12167 0.02851,-7.58418c-0.46686,-2.97752 -1.50333,-5.70415 -2.05966,-8.64772c-0.6325,-3.3466 -0.94774,-7.4198 -1.77711,-10.58077c-0.52607,-2.00502 -1.33238,-3.90246 -1.55519,-6.0282c-0.54192,-2.01191 -1.61092,-3.62016 -2.32497,-5.51042c-0.23844,-0.63121 -0.47127,-1.2794 -0.69908,-1.94174c0.43007,-0.42691 0.71022,-0.86496 0.88103,-1.29565c-0.54397,-0.34821 -1.19061,-0.55008 -1.88441,-0.55008c-0.77486,0 -1.49091,0.2518 -2.07079,0.67804c-0.0173,-0.05974 -0.03458,-0.1195 -0.05184,-0.17928c-2.00346,0.37059 -3.98544,0.7024 -5.96757,0.99719l0.53774,0.36129c0.09321,0.07695 0.19011,0.14838 0.28995,0.21544c-0.36457,-0.17209 -0.7328,-0.33525 -1.10429,-0.48902c0,0 -2.00432,-0.80173 -3.49442,0.4282c-0.45342,0.05661 -0.90756,0.11137 -1.36266,0.16428c1.09701,0.04431 2.17504,0.07386 3.22388,0.07386zM273.21377,187.05066c0.21579,-0.14686 0.41494,-0.31982 0.59368,-0.51479c-0.38477,0.08909 -0.77912,0.20887 -1.23182,0.37966c0.09217,0.31985 0.1816,0.64163 0.26784,0.96566c0.07082,0.26611 0.14083,0.53584 0.21041,0.80841c0.21324,-0.57625 0.23395,-1.13744 0.1599,-1.63894zM230.62954,252.45621c-0.42273,-1.28078 -1.47814,-2.28641 -1.92489,-3.55901c-0.01271,-0.03619 -0.02454,-0.07238 -0.03555,-0.10856c-0.07792,0.01409 -0.15589,0.02788 -0.23392,0.04134c-0.01727,0.00298 -0.03455,0.00589 -0.05185,0.00874c-0.00522,0.96544 -0.03465,1.93324 0.35328,2.60397c0.40342,0.69751 1.34268,1.3675 2.0695,1.94738c-0.03921,-0.31789 -0.07854,-0.63684 -0.17658,-0.93386zM237.02647,194.59352l-0.24113,0.23032c-1.66906,1.9197 -0.72824,3.47977 -1.44457,5.90865c-1.00324,3.40169 -1.25954,7.54963 -1.62421,11.12988c-0.0103,0.10118 0.04173,3.23776 -0.02407,3.46779c-0.544,1.90161 -1.32198,3.79731 -1.36404,5.77476c-2.03153,2.70872 -1.60252,7.90741 -1.60252,11.27138c0,4.41543 -0.15259,8.84202 0.32725,13.21017c0.09445,0.85977 -0.26106,1.78604 0.04666,2.59439c0.46633,1.22503 1.48605,2.2016 1.88914,3.44887c0.18903,0.58492 -0.0015,1.29672 0.33005,1.81435c0.74101,1.15691 2.06117,1.84367 2.88688,2.94173c0.22638,0.44922 0.4768,1.00769 0.76522,1.58486c0.70991,0.22029 1.40405,0.45994 2.02572,0.83102c0.55208,0.32954 0.88581,1.01199 1.45127,1.31369c0.92565,0.49387 2.06265,-0.07266 3.09434,-0.07266c2.06155,0 4.1231,0 6.18465,0c1.76092,-0.32527 3.49822,-0.7294 5.2923,-0.91032c4.7264,-0.47661 9.45066,-0.19937 13.83598,-2.30597c2.42831,0.17153 4.36569,-3.48425 5.07063,-5.7373c0.65228,-2.08476 -0.03344,-5.53293 -0.03344,-7.71281c0,-6.44445 0,-12.88888 0,-19.33333c0,-7.97877 -0.37788,-16.3285 -3.5578,-23.48979c-1.87795,-4.22922 -4.12195,-7.59355 -9.1922,-7.59355c-4.22222,0 -8.44445,0 -12.66666,0c-2.07026,0 -4.72559,-0.40524 -6.76362,-0.02255c-1.53385,0.28802 -2.96399,0.78765 -4.41813,1.26178c-0.11499,0.24193 -0.2677,0.39464 -0.2677,0.39464zM306.26428,113.76303l-0.73387,-2.27308c0.01696,-4.31226 -2.16493,-8.0268 -3.2912,-12.14211c-0.67378,-2.46195 -1.24428,-5.08712 -2.26079,-7.45879c-0.63586,-1.48355 -1.43504,-2.95994 -1.61919,-4.56347c-2.52188,-2.33035 -4.18716,-2.88683 -7.04884,-4.6446c-3.40905,-2.09399 -6.46607,-4.72574 -10.32946,-6.16453c-0.82675,-0.3079 -3.56078,-0.22416 -4.38978,-0.2235c-3.30671,0.00265 -7.79845,-0.70186 -10.8659,0.80604c-0.02409,0.01184 -0.04796,0.02399 -0.07163,0.03642c-0.11712,0.10106 -0.23339,0.19898 -0.34882,0.29333c-0.29207,0.23874 -0.59028,0.47989 -0.89348,0.72344c-0.45489,0.48468 -0.88117,1.01298 -1.39362,1.42395c0,0 -0.37108,0.29686 -0.88119,0.38782c-3.85766,3.06876 -8.04194,6.48455 -10.58343,10.244c-3.46123,5.11997 -2.145,11.43877 -4.37589,16.87114c-0.00929,0.02263 -0.01868,0.04519 -0.02817,0.06772l0.01065,0.00288l-0.76795,2.84157c-0.1576,0.63583 -0.66741,1.15667 -1.35213,1.29525c-0.94729,0.19173 -1.87064,-0.42078 -2.06238,-1.36807l-0.42981,-2.1236c-0.64384,-3.18109 -0.94333,-7.29911 -2.07129,-10.34777c-1.40716,-3.80331 -3.68662,-7.3942 -5.01873,-11.30215c-0.65888,-1.93292 -1.17625,-3.82039 -1.73356,-5.69136c0.19935,-0.20063 0.35698,-0.4183 0.48112,-0.64248c-4.26447,-6.92551 -14.00038,-4.64922 -20.68944,-3.29538c-2.1382,0.43277 -5.26809,0.60913 -7.20878,1.69128c-2.25707,1.25855 -3.27622,4.46279 -5.53321,6.02214c-0.13256,0.20893 -0.26513,0.41786 -0.39769,0.6268c-0.82948,3.22728 -1.26377,6.50804 -1.38201,9.44921c-0.33296,7.87799 -1.67235,16.41407 -1.03867,24.26344c0.26649,3.30112 1.4209,6.82499 2.09008,10.07106c0.61273,2.97219 0.92576,7.02073 2.21016,9.77949c0.83271,1.78859 2.79101,2.82149 3.89465,4.45686c2.03873,3.02097 2.83186,5.81137 5.35175,8.54411c0,0 0.20015,0.21916 0.34535,0.55939c0.40156,0.12408 0.75431,0.23209 1.02125,0.31745c6.27039,3.53927 12.99479,5.35307 20.03175,6.63649l1.90256,1.38395c1.35376,-0.37337 2.60803,-0.72412 3.64697,-0.9344c0.51296,-0.10382 1.04488,-0.2277 1.59079,-0.36394c-2.19168,-4.17399 -3.18507,-9.21589 -3.51283,-13.80085c-0.11946,-1.67106 -0.60046,-6.75292 3.21175,-6.46436c3.94974,0.29897 3.81996,4.10581 4.44758,6.55527c1.02042,3.98246 1.91561,7.96196 2.7554,11.97518c1.36355,-0.26388 2.69407,-0.42512 3.92616,-0.3826c2.62698,0.09066 5.25882,0.80447 7.78189,1.26574c2.74845,0.50247 5.34683,0.75079 7.83098,1.63324c0.19959,-0.69312 0.85923,-1.07206 0.85923,-1.07206l1.43859,-0.72288c1.09737,-0.17517 1.94167,-1.08589 2.95018,-1.55259c2.38047,-1.1016 5.6017,-0.89839 8.07929,-1.68662c4.15287,-1.32121 8.71679,-3.50709 12.67396,-5.24773c1.31158,-0.57692 2.42385,-1.21368 3.59239,-1.7528c1.67525,-2.09288 3.30889,-4.1726 4.69527,-6.50018c1.20832,-2.02864 1.65892,-4.42628 2.66047,-6.53649c2.26045,-4.76263 5.0987,-10.09225 4.06079,-15.55865c0.49227,-1.45263 0.56097,-2.82372 0.42516,-4.18997c-1.22628,0.06084 -1.65244,-1.21763 -1.65244,-1.21763zM274.27455,182.25147c1.62484,-0.64993 2.27477,0.9749 2.27477,0.9749l0.20727,0.51818c0.74273,-0.19309 1.39495,-0.42668 1.83392,-0.71666c0.54694,-0.3613 0.7149,-1.12962 1.23146,-1.53316c1.7826,-1.39263 3.76628,-2.50788 5.61137,-3.81657c2.12991,-1.51071 5.0194,-2.61199 7.17482,-4.21979l-0.0635,-0.11218c0,0 -0.34715,-1.71522 1.36807,-2.06238l-0.00001,-0.00002c0.35179,-0.0712 0.64603,-0.05564 0.89153,0.01407c2.47211,-3.12543 3.50091,-7.13829 5.73177,-10.44878c0.67766,-3.05715 1.4233,-6.1022 1.60078,-9.24128c0.03052,-0.53978 -0.06212,-1.0815 -0.03621,-1.62152c0.01156,-0.24087 0.3889,-0.71854 0.14798,-0.70815c-1.26808,0.05468 -2.55641,0.52005 -3.81341,1.11541c-0.2415,0.30827 -0.48458,0.61414 -0.72906,0.91756l-1.53126,1.40557c0,0 -1.19506,1.09145 -2.33627,0.02582c-1.08029,0.44169 -2.27569,0.55949 -3.37466,0.95772c-3.28475,1.19027 -6.20197,3.32643 -9.54697,4.38621c-2.07887,0.65865 -5.59104,0.49361 -7.60273,1.48735c-1.19439,0.59 -2.30337,1.42905 -3.57812,1.79459c0.51045,0.17813 1.02091,0.35628 1.53136,0.53441l2.00429,1.02642c0,0 1.55623,0.80041 0.75582,2.35664c-0.80041,1.55623 -2.35663,0.75582 -2.35663,0.75582l-1.7918,-0.92601c-0.6399,-0.23012 -1.2798,-0.46024 -1.91969,-0.69035c-3.10201,-2.09474 -6.45666,-2.18072 -10.05996,-2.83937c-2.28378,-0.41745 -4.60814,-1.05706 -6.99787,-1.18438c-1.09945,-0.05858 -2.16423,0.32281 -3.23537,0.63458c-0.002,0.34712 -0.08308,0.87094 -0.4896,1.25624c0.10082,0.06963 0.20349,0.13835 0.30808,0.20615c0,0 1.45832,0.96738 0.49095,2.42569c-0.96737,1.45831 -2.42569,0.49095 -2.42569,0.49095c-1.31634,-0.88969 -2.45555,-1.9746 -3.4387,-3.20227c-2.07812,0.4206 -4.15624,0.8412 -6.23437,1.26181c-4.53569,0.918 -9.29204,2.77811 -13.68918,1.11039c0,0 -1.61972,-0.66258 -0.95713,-2.2823c0.66259,-1.61972 2.2823,-0.95713 2.2823,-0.95713c1.41702,0.64623 3.30948,0.64585 5.332,0.35022c-6.05833,-1.30584 -11.86536,-3.15052 -17.36573,-6.18642c-4.4018,-1.38657 -7.90969,-4.18122 -12.2124,-5.60011c-0.78141,-0.25769 -4.12968,-1.49493 -4.761,0.04042c-0.17853,0.43419 0.42577,0.84372 0.55072,1.29625c0.2366,0.85682 0.35754,1.74147 0.529,2.61366c1.26287,6.42418 6.72234,10.15957 9.3893,15.75345c9.15852,9.53024 21.37809,15.22273 34.45811,16.88116c1.7681,0.22418 3.40696,1.15506 5.18174,1.31813c1.73422,0.15935 4.99761,-0.17113 6.69121,-0.30292c6.91608,-0.53515 13.33104,-1.458 20.14966,-2.83805c0.43527,-0.0881 1.07347,-0.17752 1.79937,-0.28318c-0.11392,-0.40604 -0.31791,-1.60175 1.01968,-2.13679zM240.01155,144.88288c0.15355,1.09555 0.44663,2.16698 0.66757,3.25095c0.03689,0.18098 0.0732,0.36174 0.1091,0.54223c0.50267,-0.10002 0.91951,0.07598 1.21598,0.28441c-0.51612,-2.26847 -1.17374,-4.43964 -2.10169,-6.34369c0.0716,0.7526 0.00408,1.51723 0.10904,2.2661z" fill="#000000" stroke="none" stroke-width="0.5" stroke-linecap="butt"/><path d="M278.44885,196.14167c0,0 -0.1237,-0.00053 -0.29913,0.03464c-0.64055,-2.2723 -1.75076,-4.23673 -2.56964,-6.38262l-0.00001,0.00002c-0.40116,-1.05126 -0.74847,-2.21486 -1.06068,-3.39905c0.84666,-0.12373 1.79788,-0.1694 3.34017,-0.33566l2.34829,-0.01827c0,0 0.03207,-0.00001 0.09007,0.00306c0.07385,-0.04164 0.1462,-0.08591 0.21676,-0.12963c0.65255,-0.40431 0.91178,-1.2952 1.51657,-1.76798c1.70825,-1.33539 3.68155,-2.40355 5.44906,-3.65947c2.22412,-1.58038 5.08277,-2.71411 7.3411,-4.35574c0.11037,0.18969 0.20095,0.38439 0.28303,0.58344c-0.46799,1.17103 -1.43504,2.09488 -1.95829,3.24351c-1.84557,4.05132 -1.90629,9.05808 -4.80626,12.7346c-1.05281,1.33474 -3.1668,2.43524 -4.57714,3.30098c-1.2634,0.77555 -3.85418,0.14818 -5.31389,0.14818z" data-paper-data="{&quot;noHover&quot;:false,&quot;origItem&quot;:[&quot;Path&quot;,{&quot;applyMatrix&quot;:true,&quot;segments&quot;:[[[278.47592,196.09962],[0,0],[1.45971,0]],[[283.76813,195.94377],[-1.2634,0.77555],[1.41034,-0.86574]],[[288.3159,192.64863],[-1.05281,1.33474],[2.89997,-3.67652]],[[293.10625,179.98805],[-1.84557,4.05132],[0.52325,-1.14863]],[[295.06777,176.74839],[-0.46799,1.17103],[-0.08208,-0.19905]],[[294.78626,176.16652],[0.11037,0.18969],[-2.25833,1.64163]],[[287.45935,180.53209],[2.22412,-1.58038],[-1.76751,1.25592]],[[282.07116,184.17629],[1.70825,-1.33539],[-0.60479,0.47278]],[[280.56453,185.91804],[0.65255,-0.40431],[-0.07056,0.04372]],[[280.34787,186.04606],[0.07385,-0.04164],[-0.058,-0.00307]],[280.2578,186.04299],[[277.90954,186.06036],[0,0],[-1.54229,0.16626]],[[274.56938,186.39395],[0.84666,-0.12373],[0.31221,1.18419]],[[275.62675,189.7758],[-0.40116,-1.05126],[0,0]],[[275.62676,189.77578],[0,0],[0.81888,2.14589]],[[278.1776,196.1348],[-0.64055,-2.2723],[0.17543,-0.03517]],[278.47592,196.09963]],&quot;closed&quot;:true,&quot;fillColor&quot;:[0,0,0,1]}]}" fill="#fff196" stroke="none" stroke-width="0.5" stroke-linecap="butt"/><path d="M202.11261,173.23c0,0 -0.1932,-0.38716 -0.58007,-0.64154l0.39326,-1.1029c0.0288,0.03068 0.12923,0.13113 0.15808,0.16174c0.03383,0.08543 0.06669,0.17122 0.09802,0.2579c0,0 0.28783,0.87265 1.17632,1.05337c6.30309,6.2542 14.02373,11.00418 22.32946,13.9312c-0.08533,0.2061 -0.13332,0.43454 -0.13332,0.67148l-0.00001,0.00001c0,0.09831 -0.08461,0.15729 -0.06903,0.25119c-0.35229,-0.28462 -0.51212,-0.57225 -0.69093,-0.90994c-0.70235,2.45228 -1.59473,4.83358 -2.36463,7.24186c-0.08426,0.00243 -0.13545,0.00994 -0.13545,0.00994c-5.20307,0.78065 -7.69465,-2.48841 -11.1116,-5.90309c-1.40665,-1.40571 -3.85483,-3.36623 -4.8023,-5.08543c-1.54933,-2.81127 -1.76649,-6.14777 -3.74393,-8.83021l-0.52388,-1.10558z" data-paper-data="{&quot;noHover&quot;:false,&quot;origItem&quot;:[&quot;Path&quot;,{&quot;applyMatrix&quot;:true,&quot;segments&quot;:[[202.15089,173.26214],[[202.67592,174.36629],[0,0],[1.97744,2.68244]],[[206.43036,183.16378],[-1.54933,-2.81127],[0.94747,1.7192]],[[211.20325,188.20563],[-1.40665,-1.40571],[3.41695,3.41468]],[[222.26379,194.1147],[-5.20307,0.78065],[0,0]],[[222.39893,194.105],[-0.08426,0.00243],[0.7699,-2.40828]],[[224.74734,186.88557],[-0.70235,2.45228],[0.17881,0.33769]],[[225.53149,187.83163],[-0.35229,-0.28462],[-0.01558,-0.0939]],[[225.5078,187.543],[0,0.09831],[0,0]],[[225.50781,187.54299],[0,0],[0,-0.23694]],[[225.64023,186.874],[-0.08533,0.2061],[-8.30573,-2.92702]],[[203.39415,172.99334],[6.30309,6.2542],[-0.88849,-0.18072]],[[202.14584,171.87056],[0,0],[-0.03133,-0.08668]],[[202.04808,171.6124],[0.03383,0.08543],[-0.02885,-0.03061]],[[201.9616,171.52047],[0.0288,0.03068],[0,0]],[[201.5706,172.62089],[0,0],[0.38687,0.25438]],[202.15091,173.26214]],&quot;closed&quot;:true,&quot;fillColor&quot;:[0,0,0,1]}]}" fill="#fff196" stroke="none" stroke-width="0.5" stroke-linecap="butt"/><path d="M241.69709,192.88945c2.03803,-0.38269 4.70271,0.02053 6.77296,0.02053c4.22222,0 8.46285,0.00125 12.68507,0.00125c5.07025,0 7.33006,3.37154 9.20801,7.60076c3.17992,7.16129 3.57912,15.54641 3.57912,23.52518c0,6.44445 -0.01033,12.92555 -0.01033,19.36999c0,2.17989 0.67931,5.63481 0.02703,7.71957c-0.70494,2.25305 -2.65143,5.91516 -5.07974,5.74363c-4.38533,2.10661 -9.12948,1.83525 -13.85587,2.31186c-1.79408,0.18092 -3.53936,0.58504 -5.30028,0.91031c-2.06155,0 -4.1319,-0.00151 -6.19345,-0.00151c-1.03169,0 -2.17267,0.56529 -3.09832,0.07142c-0.56546,-0.30169 -0.90161,-0.98508 -1.45369,-1.31462c-0.62167,-0.37108 -1.31865,-0.61202 -2.02857,-0.83231c-0.28842,-0.57716 -0.54066,-1.13657 -0.76704,-1.58579c-0.82571,-1.09806 -2.15094,-1.78799 -2.89195,-2.9449c-0.33155,-0.51763 -0.14268,-1.23067 -0.33172,-1.81559c-0.4031,-1.24728 -1.42728,-2.22776 -1.89362,-3.45279c-0.30772,-0.80835 0.04556,-1.73697 -0.04889,-2.59674c-0.47984,-4.36814 -0.33819,-8.81501 -0.33819,-13.23044c0,-3.36397 -0.42899,-8.58868 1.60254,-11.29739c0.04206,-1.97744 0.82539,-3.88576 1.36939,-5.78737c0.06581,-0.23003 0.01733,-3.3718 0.02763,-3.47298c0.36468,-3.58025 0.6327,-7.73902 1.63594,-11.14071c0.71633,-2.42888 -0.219,-3.9921 1.45006,-5.9118l0.24154,-0.23052c0,0 0.15323,-0.15296 0.26823,-0.39491c1.45414,-0.47413 2.89027,-0.97612 4.42412,-1.26413z" data-paper-data="{&quot;noHover&quot;:false,&quot;origItem&quot;:[&quot;Path&quot;,{&quot;applyMatrix&quot;:true,&quot;segments&quot;:[[[237.29418,194.19886],[1.45414,-0.47413],[-0.11499,0.24194]],[237.02647,194.59352],[[236.78534,194.82384],[0,0],[-1.66906,1.9197]],[[235.34077,200.73249],[0.71633,-2.42888],[-1.00324,3.40169]],[[233.71655,211.86237],[0.36468,-3.58025],[-0.0103,0.10118]],[[233.69248,215.33016],[0.06581,-0.23003],[-0.544,1.90161]],[[232.32844,221.10492],[0.04206,-1.97744],[-2.03153,2.70872]],[[230.72592,232.3763],[0,-3.36397],[0,4.41543]],[[231.05317,245.58647],[-0.47984,-4.36814],[0.09445,0.85977]],[[231.09983,248.18086],[-0.30772,-0.80835],[0.46633,1.22503]],[[232.98897,251.62973],[-0.4031,-1.24728],[0.18903,0.58492]],[[233.31902,253.44408],[-0.33155,-0.51763],[0.74101,1.15691]],[[236.2059,256.38581],[-0.82571,-1.09806],[0.22638,0.44922]],[[236.97113,257.97066],[-0.28842,-0.57716],[0.70991,0.22029]],[[238.99685,258.80168],[-0.62167,-0.37108],[0.55208,0.32954]],[[240.44812,260.11537],[-0.56546,-0.30169],[0.92565,0.49387]],[[243.54246,260.04271],[-1.03169,0],[2.06155,0]],[[249.72711,260.04271],[-2.06155,0],[1.76092,-0.32527]],[[255.01941,259.13239],[-1.79408,0.18092],[4.7264,-0.47661]],[[268.8554,256.82641],[-4.38533,2.10661],[2.42831,0.17153]],[[273.92603,251.08911],[-0.70494,2.25305],[0.65228,-2.08476]],[[273.89259,243.3763],[0,2.17989],[0,-6.44445]],[[273.89259,224.04297],[0,6.44445],[0,-7.97877]],[[270.33479,200.55318],[3.17992,7.16129],[-1.87795,-4.22922]],[[261.14259,192.95964],[5.07025,0],[-4.22222,0]],[[248.47592,192.95964],[4.22222,0],[-2.07026,0]],[[241.7123,192.93708],[2.03803,-0.38269],[-1.53385,0.28802]]],&quot;closed&quot;:true}]}" fill="#fff196" stroke="none" stroke-width="0.5" stroke-linecap="butt"/><path d="M232.23474,206.58615c-0.3206,1.71092 -0.82668,3.29259 -0.99656,5.02067c-0.10432,1.06121 0.35082,2.1824 0.02759,3.19855c-0.74719,2.34895 -1.35506,2.87429 -1.2872,5.46401c-2.15114,2.86819 -1.74206,8.51804 -1.74206,12.05806c0,4.49654 -0.16632,9.00643 0.33398,13.45564c0.10357,0.92105 -0.15571,1.83676 0.04965,2.75238c-0.07912,-0.09874 -0.16713,-0.09951 -0.24467,-0.20132c-0.01284,-0.59991 -0.0696,-1.17618 -0.27881,-1.65405c-0.76199,-1.7405 -1.44126,-2.21085 -1.84627,-4.32584c-0.31483,-0.56641 -0.63219,-1.13342 -0.94702,-1.69982l-0.26155,-1.82937c0,0 -0.19894,-1.27263 -1.37183,-1.06072c-0.14437,0.02608 -0.26865,0.06797 -0.37447,0.12181c-0.46543,-1.24257 -0.92107,-2.46785 -1.37117,-3.62197c0.31108,-11.48765 0.06565,-22.64701 2.13944,-33.80309c0.76063,-4.09182 2.40922,-7.87331 3.58111,-11.83099c-0.34486,-0.024 -0.70629,-0.01153 -1.11702,-0.1785c-0.12187,-0.04954 -0.25503,-0.2007 -0.36412,-0.25637l1.16376,-1.67665c0,0 2.48293,-2.47533 4.95781,-0.00046c0.95415,0.95415 1.17464,1.90839 1.08283,2.72072c0.47783,0.11924 0.95484,0.24864 1.42665,0.38485c0.05444,-0.10542 0.1103,-0.21066 0.1672,-0.31576c1.31882,0.24335 2.65448,0.44557 3.99053,0.60314c0.7557,0.08912 1.45872,0.39924 2.18837,0.63279c-2.46159,0.44884 -4.69638,1.49735 -7.15141,2.0592c-1.53151,0.35049 -3.128,0.62712 -4.4856,1.41785c0,0 -1.08208,0.54365 -0.43896,1.61552c0.64312,1.07187 1.71893,0.42844 1.71893,0.42844c0.88247,-0.55027 1.93841,-0.75056 2.9729,-0.9566c-1.4441,3.45869 -0.82694,7.76849 -1.52202,11.47788z" data-paper-data="{&quot;noHover&quot;:false,&quot;origItem&quot;:[&quot;Path&quot;,{&quot;applyMatrix&quot;:true,&quot;segments&quot;:[[[233.75177,195.15802],[-1.4441,3.45869],[-1.03448,0.20604]],[[230.78571,196.11484],[0.88247,-0.55027],[0,0]],[[229.07072,195.68609],[0.64312,1.07187],[-0.64312,-1.07187]],[[229.49947,193.97111],[0,0],[1.35761,-0.79074]],[[233.99447,192.5533],[-1.53151,0.35049],[2.45504,-0.56185]],[[241.15794,190.49684],[-2.46159,0.44884],[-0.72965,-0.23354]],[[238.93938,189.9593],[0.7557,0.08912],[-1.33605,-0.15758]],[[234.95591,189.35755],[1.31882,0.24335],[-0.05689,0.1051]],[[234.78894,189.67333],[0.05444,-0.10542],[-0.47181,-0.13621]],[[233.3649,189.28872],[0.47783,0.11924],[0.09181,-0.81232]],[[232.28413,186.5681],[0.95415,0.95415],[-2.47487,-2.47487]],[227.33438,186.5681],[[226.17294,188.24437],[0,0],[0.10909,0.05567]],[[226.51922,188.40235],[-0.12187,-0.04954],[0.41073,0.16697]],[[227.65171,188.67962],[-0.34486,-0.024],[-1.17189,3.95768]],[[224.08438,200.50664],[0.76063,-4.09182],[-2.07378,11.15608]],[[221.94873,234.22052],[0.31108,-11.48765],[0.4501,1.15412]],[[223.31392,237.83965],[-0.46543,-1.24257],[0.10582,-0.05384]],[[223.68775,237.71759],[-0.14437,0.02608],[1.17289,-0.21191]],[225.05612,238.77714],[[225.31615,240.60609],[0,0],[0.31483,0.56641]],[[226.26064,242.30531],[-0.31483,-0.56641],[0.40501,2.11499]],[[228.10245,246.63042],[-0.76199,-1.7405],[0.20921,0.47787]],[[228.38052,248.28439],[-0.01284,-0.59991],[0.07754,0.10181]],[[228.61551,248.58524],[-0.07912,-0.09874],[-0.20537,-0.91562]],[[228.56534,245.83281],[0.10357,0.92105],[-0.5003,-4.44921]],[[228.22592,232.3763],[0,4.49654],[0,-3.54002]],[[229.95673,220.31435],[-2.15114,2.86819],[-0.06786,-2.58972]],[[231.25936,214.75578],[-0.74719,2.34895],[0.32323,-1.01615]],[[231.23529,211.55691],[-0.10432,1.06121],[0.16988,-1.72807]],[[232.238,206.53626],[-0.3206,1.71092],[0.69508,-3.70939]]],&quot;closed&quot;:true}]}" fill="#0077ff" stroke="none" stroke-width="0.5" stroke-linecap="butt"/><path d="M257.93733,190.43217c0.45511,-0.05291 0.87405,-0.20123 1.32747,-0.25785c1.49009,-1.22993 3.49997,-0.42979 3.49997,-0.42979c0.37149,0.15377 0.74135,0.3166 1.10592,0.48868c-0.09984,-0.06706 -0.17754,-0.04035 -0.27076,-0.1173l-0.55809,-0.45919c1.98213,-0.29479 3.97412,-0.62773 5.97758,-0.99832c0.01726,0.05978 0.03462,0.11953 0.05192,0.17928c0.57988,-0.42624 1.29931,-0.67796 2.07418,-0.67796c0.6938,0 1.34358,0.20216 1.88755,0.55036c-0.17082,0.43069 -0.46187,0.96814 -0.89193,1.39505c0.2278,0.66234 0.47193,1.21119 0.71037,1.8424c0.71404,1.89026 1.78974,3.49986 2.33166,5.51176c0.22282,2.12573 1.03766,4.02636 1.56373,6.03138c0.82936,3.16097 1.16732,7.2562 1.79981,10.6028c0.55633,2.94357 1.59565,5.70965 2.06251,8.68716c0.38611,2.46251 -0.04085,5.07548 -0.04085,7.60358c0,3.46108 0.49603,8.06676 0.04447,11.42449c-0.11431,0.85003 -0.79063,1.38129 -0.90585,2.23106c-0.06498,0.47924 -0.11684,0.93574 -0.15838,1.37188c-0.84391,1.50531 -1.87112,2.82692 -2.87637,4.16008c0.07441,-2.04729 -0.29344,-4.48345 -0.29344,-6.24348c0,-6.44445 -0.02648,-12.87044 -0.02648,-19.31488c0,-8.32874 -0.40562,-16.92782 -3.74358,-24.43131c-2.27546,-5.11506 -5.33952,-9.07438 -11.45225,-9.07438c-1.04884,0 -2.12212,-0.03119 -3.21913,-0.0755z" data-paper-data="{&quot;noHover&quot;:false,&quot;origItem&quot;:[&quot;Path&quot;,{&quot;applyMatrix&quot;:true,&quot;segments&quot;:[[[261.14259,190.45964],[-1.04884,0],[6.11273,0]],[[272.61705,199.53276],[-2.27546,-5.11506],[3.33796,7.50349]],[[276.39259,224.04297],[0,-8.32874],[0,6.44445]],[[276.39259,243.3763],[0,-6.44445],[0,1.76003]],[[276.66061,249.52309],[0.07441,-2.04729],[1.00525,-1.33317]],[[279.53065,245.36497],[-0.84391,1.50531],[0.04154,-0.43615]],[[279.68794,243.99352],[-0.06498,0.47924],[0.11522,-0.84976]],[[280.59078,241.76382],[-0.11431,0.85003],[0.45156,-3.35772]],[[280.53346,230.3484],[0,3.46108],[0,-2.5281]],[[280.56197,222.76422],[0.38611,2.46251],[-0.46686,-2.97752]],[[278.5023,214.1165],[0.55633,2.94357],[-0.6325,-3.3466]],[[276.7252,203.53573],[0.82936,3.16097],[-0.52607,-2.00502]],[[275.17,197.50753],[0.22282,2.12573],[-0.54192,-2.01191]],[[272.84504,191.99711],[0.71404,1.89026],[-0.23844,-0.63121]],[[272.14596,190.05537],[0.2278,0.66234],[0.43007,-0.42691]],[[273.02699,188.75972],[-0.17082,0.43069],[-0.54397,-0.34821]],[[271.14259,188.20964],[0.6938,0],[-0.77486,0]],[[269.07179,188.88768],[0.57988,-0.42624],[-0.0173,-0.05974]],[[269.01996,188.7084],[0.01726,0.05978],[-2.00346,0.37059]],[[263.05238,189.7056],[1.98213,-0.29479],[0,0]],[[263.59012,190.06689],[0,0],[0.09321,0.07695]],[[263.88007,190.28233],[-0.09984,-0.06706],[-0.36457,-0.17209]],[[262.77579,189.7933],[0.37149,0.15377],[0,0]],[[259.28137,190.2215],[1.49009,-1.22993],[-0.45342,0.05661]],[[257.91871,190.38577],[0.45511,-0.05291],[1.09701,0.04431]]],&quot;closed&quot;:true}]}" fill="#0077ff" stroke="none" stroke-width="0.5" stroke-linecap="butt"/><path d="M266.50068,191.66828c0.08211,0.06019 0.16094,0.12334 0.23679,0.18913c-0.46723,-0.29622 -0.94347,-0.57819 -1.42764,-0.84467c0.41573,0.18942 0.82586,0.388 1.19084,0.65555z" fill="#000000" stroke="none" stroke-width="0.5" stroke-linecap="butt"/><path d="M182.71446,157.51996c-1.0147,-2.71735 -2.00244,-5.38318 -2.83527,-8.15188c0.02561,-1.97969 0.15569,-3.97791 0.19837,-5.86957c0.70431,4.69296 1.6745,9.35751 2.6369,14.02145z" fill="#000000" stroke="none" stroke-width="0.5" stroke-linecap="butt"/><path d="" fill="#000000" stroke="none" stroke-width="0.5" stroke-linecap="butt"/><path d="M195.38987,51.13725c2.16064,-4.21882 5.15808,-7.9509 8.01906,-11.69667c0.21555,-0.28222 4.30395,-5.64692 4.44107,-5.77582c4.05586,-3.81253 9.80951,-6.51687 14.83008,-8.91849l0.68462,-0.38756c0,0 0.06149,-0.01244 0.16354,-0.02098c2.85004,-1.41913 3.31279,-2.62107 6.7869,-3.35712c1.26191,0.46652 2.63006,0.7107 3.78572,1.39954c4.24347,2.52934 3.70541,9.45371 4.93988,13.51705c0.61929,2.03845 1.19738,4.00556 1.72386,5.99673c7.58105,-2.25336 15.39409,-3.76705 23.15893,-5.33862c5.92841,-1.14766 10.59913,1.05625 15.80499,3.7975c5.00596,2.63599 10.32577,5.03683 14.66523,8.74373c0.71589,0.61154 1.40784,1.23784 2.078,1.87811c3.026,-2.86263 6.67691,-3.52478 10.70612,-4.79933c3.65995,-1.15774 8.15362,-3.41989 12.14675,-2.7019c1.17876,0.21195 2.22715,0.90601 3.39166,1.18589c2.02234,0.48606 6.0385,0.40807 7.47807,2.25627c0.75172,0.96509 0.4271,2.41052 0.56843,3.62564c0.50339,4.3278 -0.30691,9.72693 -1.06038,14.01769c-1.63395,5.0863 -4.68955,9.81418 -6.19874,14.93686c-0.27436,0.93125 -0.15942,1.95466 -0.47092,2.87414c-0.507,1.49658 -1.4171,2.70377 -2.15967,4.03157c0.58011,0.41096 0.7281,1.14212 0.7281,1.14212c0.03528,0.17428 0.07058,0.34855 0.10592,0.52281c-0.7955,-0.24665 -3.19279,-0.72917 -4.33294,1.93118c-0.05834,0.13613 -0.10845,0.26896 -0.15093,0.39854c-0.16678,-0.05267 -0.34226,-0.13591 -0.52549,-0.25746c-1.45832,-0.96737 -0.49095,-2.42569 -0.49095,-2.42569l0.59067,-0.79592c0.73165,-2.02447 2.27667,-3.66753 2.9208,-5.67154c1.8966,-5.90062 4.73414,-11.60382 6.58493,-17.5205c0.60462,-3.44689 0.88923,-7.10358 1.17461,-10.53706c0.06604,-0.79463 -0.19711,-1.58596 -0.2051,-2.38329c-0.00581,-0.58053 0.52318,-1.27794 0.16386,-1.73394c-0.58287,-0.73969 -4.59866,-0.78287 -5.4181,-0.98169c-0.20514,-0.04977 -0.4064,-0.11274 -0.60527,-0.1838c1.18321,2.46509 -2.87969,4.87833 -3.85294,6.13305c-1.57711,2.03323 -1.43155,5.38996 -2.06656,7.67287c-0.84866,3.05099 -2.72316,6.40114 -5.35198,8.21011c-0.44648,0.8915 -1.21624,0.96815 -1.71809,0.90558c-0.25627,0.09592 -0.51788,0.17714 -0.78467,0.24241c0,0 -1.71522,0.34716 -2.06237,-1.36807c-0.06851,-0.33853 -0.05669,-0.62376 0.00642,-0.86356c-3.70842,-6.38515 -7.78598,-12.20419 -13.45961,-17.07737c-4.12335,-3.54161 -9.25923,-5.79662 -14.02312,-8.30927c-4.38133,-2.31088 -8.48896,-4.53032 -13.48242,-3.46525c-7.72111,1.56271 -15.48182,3.07063 -23.01298,5.31984c0.1574,0.69358 0.3082,1.3961 0.45202,2.11125l0.82429,2.44339c0,0 0.55722,1.65892 -1.1017,2.21614c-1.65892,0.55722 -2.21614,-1.1017 -2.21614,-1.1017l-0.88712,-2.6517c-0.13374,-0.65688 -0.2775,-1.30905 -0.42869,-1.95761c-1.36888,0.45681 -2.72866,0.94259 -4.07769,1.46231c-3.88268,1.49578 -8.40069,1.74819 -12.16766,3.49088c-1.06548,0.49292 -1.88517,1.42806 -2.94747,1.92781c-2.44285,1.14923 -5.09108,1.08577 -7.48081,2.48499c0,0 -1.51742,0.87174 -2.38916,-0.64568c-0.87174,-1.51742 0.64569,-2.38916 0.64569,-2.38916c0.33635,-0.19028 0.67815,-0.35549 1.02392,-0.50186c-0.12795,-0.66558 0.2186,-1.27206 0.2186,-1.27206c3.63829,-6.30598 5.12568,-13.85853 8.05722,-20.52844c-3.21488,1.63796 -6.39456,3.48167 -8.88298,5.8208c-1.63073,1.53289 -2.6983,3.57147 -4.05679,5.3501c-2.71452,3.55401 -5.57745,7.08788 -7.64293,11.08201c-0.63106,1.22031 -0.99893,2.5007 -1.30561,3.78787c-1.22463,-0.92377 -2.54852,-0.61183 -3.32942,-0.27732c0.36009,-1.72325 0.6918,-3.48635 1.47743,-5.02034zM220.49245,37.82447c-1.4798,4.3357 -3.30843,9.01189 -5.45908,13.13763c0.88695,-0.2367 1.76195,-0.50897 2.60156,-0.91482c1.0438,-0.50455 1.85205,-1.42869 2.90698,-1.90954c3.87798,-1.76761 8.44232,-2.05289 12.41619,-3.59361c1.46523,-0.56809 2.94342,-1.09616 4.43238,-1.59045c-0.84918,-3.20578 -1.76974,-6.37018 -2.43427,-9.63297c-0.80417,-3.94843 -0.84491,-7.28259 -4.91938,-8.85118c-1.87937,0.33317 -3.32996,2.19826 -5.20742,3.12794c-0.14254,0.07058 -0.28588,0.14123 -0.42996,0.21198c-1.86065,3.09555 -2.73504,6.58127 -3.907,10.01502zM310.30168,64.22855c1.65558,-3.23613 2.00191,-6.34455 3.3632,-9.70258c0.59461,-1.46681 1.67976,-2.72019 2.81237,-3.82576c0.32265,-0.31495 0.39392,-0.83884 0.70533,-1.15824c-2.25651,0.40952 -4.69846,-0.55939 -7.10915,-0.05114l-0.32671,0.06612c0,0 -0.62304,0.1261 -1.19411,-0.14921c-0.11196,0.03778 -0.22224,0.07392 -0.33068,0.10822c-3.37128,1.06631 -6.7915,1.44918 -9.32211,3.93748c3.7683,4.10471 6.83103,8.69045 9.68059,13.5784c0.77274,-0.6009 1.09536,-1.57983 1.72128,-2.8033z" fill="#000000" stroke="none" stroke-width="0.5" stroke-linecap="butt"/><path d="M224.39045,27.76027c0.14408,-0.07075 0.28965,-0.14175 0.43219,-0.21233c1.87746,-0.92968 3.34869,-2.79327 5.22806,-3.12644c4.07447,1.56859 4.14602,4.92833 4.95019,8.87676c0.66453,3.26279 1.58569,6.47086 2.43487,9.67664c-1.48896,0.49429 -2.97729,1.03672 -4.44252,1.60481c-3.97387,1.54072 -8.59724,1.83435 -12.47522,3.60196c-1.05493,0.48085 -1.86783,1.40211 -2.91163,1.90666c-0.83961,0.40585 -1.71831,0.67529 -2.60526,0.91199c2.15065,-4.12574 3.96153,-8.83919 5.44134,-13.17489c1.17196,-3.43375 2.08734,-6.96961 3.94799,-10.06516z" data-paper-data="{&quot;noHover&quot;:false,&quot;origItem&quot;:[&quot;Path&quot;,{&quot;applyMatrix&quot;:true,&quot;segments&quot;:[[[440.98489,75.64894],[2.34392,-6.8675],[-2.9596,8.6714]],[[430.06673,101.9242],[4.3013,-8.25148],[1.7739,-0.4734]],[[435.26985,100.09456],[-1.67922,0.8117],[2.0876,-1.0091]],[[441.08381,96.27548],[-2.10986,0.9617],[7.75596,-3.53522]],[[465.91619,89.08826],[-7.94774,3.08144],[2.93046,-1.13618]],[[474.78095,85.90736],[-2.97792,0.98858],[-1.69836,-6.41156]],[[469.91241,66.64142],[1.32906,6.52558],[-1.60834,-7.89686]],[[460.07365,48.93906],[8.14894,3.13718],[-3.75874,0.66634]],[[449.65881,55.19494],[3.75492,-1.85936],[-0.28508,0.14116]],[[448.79889,55.6189],[0.28816,-0.1415],[-3.7213,6.1911]]],&quot;closed&quot;:true}]}" fill="#fff196" stroke="none" stroke-width="0.5" stroke-linecap="butt"/><path d="M310.31921,64.27537c-0.62592,1.22347 -0.96301,2.20548 -1.73575,2.80638c-2.84956,-4.88795 -5.95974,-9.54658 -9.72804,-13.65129c2.53061,-2.4883 5.99627,-2.89818 9.36755,-3.96449c0.10844,-0.0343 0.22059,-0.07037 0.33255,-0.10815c0.57107,0.27531 1.2009,0.15008 1.2009,0.15008l0.3284,-0.06576c2.41069,-0.50825 4.87759,0.475 7.1341,0.06548c-0.31141,0.3194 -0.38161,0.84445 -0.70426,1.1594c-1.13261,1.10557 -2.21325,2.36486 -2.80786,3.83167c-1.36129,3.35803 -1.73201,6.54055 -3.38759,9.77668z" data-paper-data="{&quot;noHover&quot;:false,&quot;origItem&quot;:[&quot;Path&quot;,{&quot;applyMatrix&quot;:true,&quot;segments&quot;:[[[620.60335,128.4571],[0,0],[3.31116,-6.47226]],[[627.32975,109.05194],[-2.72258,6.71606],[1.18922,-2.93362]],[[632.95449,101.40042],[-2.26522,2.21114],[0.6453,-0.6299]],[[634.36515,99.08394],[-0.62282,0.6388],[-4.51302,0.81904]],[[620.14685,98.98166],[4.82138,-1.0165],[0,0]],[619.49343,99.1139],[[617.10521,98.81548],[1.14214,0.55062],[-0.22392,0.07556]],[[616.44385,99.03192],[0.21688,-0.0686],[-6.74256,2.13262]],[[597.79963,106.90688],[5.06122,-4.9766],[7.5366,8.20942]],[[617.16081,134.06368],[-5.69912,-9.7759],[1.54548,-1.2018]],[[620.60337,128.45708],[-1.25184,2.44694],[0,0]]],&quot;closed&quot;:true}]}" fill="#fff196" stroke="none" stroke-width="0.5" stroke-linecap="butt"/><path d="M261.36903,76.41293c-4.54533,3.66193 -9.49719,7.16344 -12.70133,11.87984c-1.81301,2.66869 -2.70496,6.2118 -3.27914,9.29957c-0.14702,0.79064 -0.36419,1.63353 -0.58875,2.50218c-0.26719,-1.35495 -0.64577,-2.74768 -1.076,-3.92418c-1.37636,-3.7638 -3.64626,-7.30724 -4.96702,-11.16444c-0.57434,-1.67732 -1.04987,-3.32482 -1.53473,-4.95709c0.70252,-0.88995 0.03669,-1.95788 0.03669,-1.95788c-0.35469,-0.54442 -0.72917,-1.04683 -1.12108,-1.51023c-0.37657,-1.10955 -0.74716,-2.12833 -1.23563,-3.2401c-0.34577,0.11844 -0.69857,0.22102 -1.05739,0.31265c0.07035,0.33024 0.14056,0.66042 0.21007,0.99084c-5.77931,-4.37758 -14.0425,-2.97242 -21.19737,-1.5243c-2.58292,0.52277 -6.03719,0.78445 -8.33722,2.13167c-1.37793,0.80711 -2.30128,2.05609 -3.22937,3.32231c-0.35202,-0.428 -0.69089,-1.00083 -0.80849,-1.58186c-0.21626,-1.06854 0.08032,-2.1236 0.71889,-2.90776l0.09795,-0.12204c-0.06955,-0.01574 -0.05772,0.0254 -0.12589,0.00551c-1.76789,2.86521 -3.066,6.12715 -3.97431,9.47161c-0.04356,0.06368 -0.08705,0.12721 -0.13062,0.1909l-0.26041,0.39251c0,0 -0.57552,0.86731 -0.16842,1.7084c-0.62838,2.88374 -0.97665,5.76237 -1.09493,8.44149c-0.33919,8.0254 -1.67406,16.67384 -1.02831,24.67285c0.27798,3.44341 1.45067,7.10052 2.14921,10.48754c0.6752,3.27384 1.08147,7.64688 2.52376,10.66776c0.17767,0.37214 3.95845,4.594 4.09965,4.80315c1.09819,1.62671 1.80023,3.25939 2.66661,4.80244c-4.46596,-2.57042 -11.25169,-6.96697 -14.66089,-0.96816c-0.26659,0.46909 0.75522,5.18073 0.90207,5.88818c0.55,2.64959 1.62559,5.45964 3.03004,7.78342c1.33775,2.21343 3.39058,4.07467 5.0061,6.16c-0.05262,0.22916 -0.11366,0.52057 -0.07323,0.71889c-1.11439,0.02153 -1.45882,1.11811 -1.45882,1.11811l-0.67112,1.89529c-1.06004,3.93727 -2.34754,7.66379 -3.34201,11.54353c-1.67139,-3.19555 -4.26978,-5.03342 -6.04169,-8.07756c-2.24743,-3.8611 -2.61096,-8.9394 -4.0981,-13.15247c-0.63729,-1.80544 -1.29488,-3.55231 -1.93971,-5.28048c-0.9243,-4.47525 -1.85174,-8.9547 -2.53745,-13.45622c0.01268,-0.47439 0.02051,-0.94254 0.02051,-1.4025c0,-6.44822 0,-12.89643 0,-19.34465c0.33229,-2.0597 -0.13838,-4.22896 0.26185,-6.28495c0.1617,-0.83061 0.85965,-1.49886 1,-2.33334c0.94947,-5.64498 0.3997,-11.56442 0.18067,-17.42719c0.2663,-6.17324 1.07726,-12.40227 3.04453,-18.16974c0,0 0.06424,-0.19274 0.11534,-0.50083c1.62851,-2.49116 3.36212,-4.89664 5.05156,-7.20042c2.42912,-3.31244 4.10854,-6.48387 7.54704,-8.89081c0,0 2.84807,-2.03433 0.81374,-4.8824c-0.28765,-0.40271 -0.59157,-0.70781 -0.90141,-0.93484c0.30777,-1.29035 0.6767,-2.57411 1.30894,-3.7967c2.06548,-3.99413 4.93438,-7.53276 7.6489,-11.08676c1.35849,-1.77863 2.4291,-3.81911 4.05983,-5.352c2.48842,-2.33913 5.71289,-4.09363 8.92776,-5.73159c-2.93154,6.66991 -4.40995,14.21745 -8.04825,20.52343c0,0 -0.34606,0.60613 -0.21811,1.27171c-0.34577,0.14637 -0.68696,0.31114 -1.02331,0.50142c0,0 -1.51638,0.87094 -0.64464,2.38836c0.87174,1.51742 2.32823,0.5664 2.32823,0.5664c2.38973,-1.39922 5.04242,-1.33876 7.48527,-2.48799c1.0623,-0.49975 1.88419,-1.43613 2.94967,-1.92905c3.76697,-1.74269 8.29338,-1.99861 12.17606,-3.49439c1.34903,-0.51972 2.71185,-1.00635 4.08073,-1.46316c0.15119,0.64856 0.29491,1.30074 0.42865,1.95762l0.88729,2.65166c0,0 0.55871,1.65858 2.21762,1.10136c1.65892,-0.55722 1.10287,-2.21637 1.10287,-2.21637l-0.80568,-2.34514c-0.14382,-0.71515 -0.31353,-1.51587 -0.47093,-2.20945c7.53116,-2.24921 15.3081,-3.75757 23.02921,-5.32028c4.99346,-1.06507 9.1103,1.15653 13.49163,3.4674c4.76389,2.51265 9.9099,4.77239 14.03325,8.314c5.67363,4.87318 9.76287,10.70211 13.47129,17.08726c-0.06311,0.2398 -0.07461,0.5254 -0.0061,0.86393c0.34715,1.71523 2.06349,1.36943 2.06349,1.36943c0.26679,-0.06527 0.52854,-0.14632 0.78481,-0.24224c0.50185,0.06257 1.19278,0.04745 1.63926,-0.84405c2.62882,-1.80897 4.50459,-5.15755 5.35325,-8.20854c0.63501,-2.28291 0.4912,-5.63767 2.06831,-7.6709c0.97325,-1.25472 5.03683,-3.66725 3.85363,-6.13234c0.19887,0.07106 0.47192,0.06442 0.67706,0.11419c0.81944,0.19882 4.83679,0.2437 5.41967,0.98339c0.35932,0.456 -0.16926,1.15388 -0.16345,1.73441c0.00799,0.79733 0.2718,1.58945 0.20576,2.38408c-0.28538,3.43348 -0.56743,7.09357 -1.17205,10.54046c-1.85079,5.91668 -4.6846,11.62628 -6.5812,17.5269c-0.64413,2.00401 -2.18798,3.64965 -2.91963,5.67412l-0.59053,0.79627c0,0 -0.9667,1.46004 0.49162,2.42741c0.16967,0.11255 0.3327,0.19228 0.48834,0.24532c-0.61383,1.82988 0.29266,3.01469 1.07131,3.65135c-0.94996,1.38243 -0.36687,3.13172 -0.36687,3.13172c0.62414,1.87242 1.50304,3.67534 1.89454,5.60982c0.44049,2.17654 -0.07038,4.46963 0.33067,6.65378c0.16574,0.90265 0.81186,1.6588 1.05035,2.54502c1.10777,4.11641 1.62898,8.51834 2.66048,12.64351c1.26536,5.06041 3.48375,10.06118 4.63232,15.19107c0.50117,2.23838 -0.07923,4.61365 0.3082,6.8745c0.27038,1.57783 0.98785,3.10861 0.94384,4.70884c0,1.52768 0.01099,3.06171 0.011,4.59715c-1.53623,0.36991 -2.67767,1.75308 -2.67767,3.40285v3.33334c0,0.23621 0.00031,0.47374 0.00069,0.71239c-0.03269,0.14586 -0.06889,0.28578 -0.11728,0.40841c-0.93678,2.37403 -1.40963,4.91226 -2.31957,7.29671c-2.70866,7.09796 -5.49265,13.72886 -9.30965,19.91832c-0.88007,0.97428 -1.7504,1.96686 -2.57534,3.0176c-0.52155,0.59918 -1.30601,2.03492 -1.87164,1.47716c-0.8347,-0.82311 -0.67235,-2.36201 -1.20394,-3.40685c-0.83056,-1.6325 -2.23911,-2.96357 -3.25019,-4.4466c-1.57876,-2.31567 -2.54705,-5.09861 -3.90008,-7.36324c-0.83482,-1.39728 -2.47146,-2.00702 -3.47846,-3.28578c-0.88196,-1.11997 -1.28813,-2.22245 -1.88084,-3.19318c2.88016,-3.44381 4.08464,-7.90656 6.53088,-11.64759c0.86216,-3.61479 2.93518,-9.16862 1.77458,-12.93402c-0.34056,-1.10489 -0.54758,-2.59087 -1.59565,-3.07903c-0.7532,-0.35082 -1.59627,-0.20074 -2.44705,0.017c3.50781,-5.13216 6.41733,-10.76294 8.01694,-16.66115c0.88729,-3.2717 2.1994,-6.75062 1.46861,-10.12819c1.29605,-3.47951 0.00488,-7.00709 -0.7075,-10.52686c-0.07097,-0.35065 -1.25721,-6.28669 -1.3812,-6.58627c-0.29818,-0.72042 -1.08053,-1.15371 -1.42324,-1.85405c-0.23361,-0.47738 -0.46602,-0.95499 -0.69812,-1.43518c-0.0525,0.05138 -0.10478,0.10192 -0.1569,0.15154l1.71222,2.85542c0.33488,0.53675 0.52869,1.17253 0.52869,1.85178c0,0.63458 -0.26772,1.24488 -0.563,1.75808c-1.63665,-6.74677 -5.68641,-13.15284 -6.7976,-19.84056c-1.25732,-1.32592 -2.37002,-2.81243 -3.81887,-3.92587c-1.30271,-1.00113 -3.06182,-1.2263 -4.46025,-2.08867c-3.57468,-2.20441 -6.89376,-5.07628 -10.99448,-6.49371c-1.58259,-0.54703 -3.92362,-0.4391 -5.60569,-0.44038c-3.84592,-0.00293 -8.65954,-0.61369 -12.26931,1.10721c-0.00027,-0.00042 -0.00055,-0.00085 -0.00082,-0.00128c-0.00134,0.0012 -0.00266,0.00239 -0.00401,0.00359c-0.06079,0.02902 -0.12106,0.05876 -0.18115,0.08913c-1.08117,0.54636 -1.85599,1.53787 -2.7429,2.37741zM306.70048,98.96245c-0.00041,0.00042 -0.00025,0.00068 0.00039,0.0008c-0.00013,-0.00027 -0.00026,-0.00053 -0.00039,-0.0008z" data-paper-data="{&quot;noHover&quot;:false,&quot;origItem&quot;:[&quot;Path&quot;,{&quot;applyMatrix&quot;:true,&quot;segments&quot;:[[[528.24741,147.97386],[-2.16234,1.09272],[0.12018,-0.06074]],[[528.61007,147.7957],[-0.12158,0.05804],[0.00268,-0.0024]],[[528.61809,147.78852],[-0.00268,0.0024],[0.00054,0.00086]],[[528.61973,147.79108],[-0.00054,-0.00084],[7.21954,-3.4418]],[[553.18227,145.58594],[-7.69184,-0.00586],[3.36414,0.00256]],[[564.40271,146.47228],[-3.16518,-1.09406],[8.20144,2.83486]],[[586.41045,159.47656],[-7.14936,-4.40882],[2.79686,1.72474]],[[595.33621,163.66056],[-2.60542,-2.00226],[2.8977,2.22688]],[[602.97943,171.5207],[-2.51464,-2.65184],[2.22238,13.37544]],[[616.58727,211.23848],[-3.2733,-13.49354],[0.59056,-1.0264]],[[617.51559,207.75262],[0,1.26916],[0,-1.3585]],[[616.45885,204.0525],[0.66976,1.0735],[0,0]],[[613.03575,198.34734],[0,0],[0.14234,-0.13552]],[[613.46497,197.93114],[-0.14382,0.14196],[0.0109,-0.01076]],[[613.49749,197.89884],[-0.01078,0.01078],[0.47922,0.9919]],[[614.93969,200.86566],[-0.48238,-0.98578],[0.68542,1.40068]],[[617.78699,204.57754],[-0.59636,-1.44084],[0.24798,0.59916]],[[620.55101,217.76206],[-0.14194,-0.7013],[1.42476,7.03954]],[[621.96565,238.83448],[2.5921,-6.95902],[1.46158,6.75514]],[[619.02481,259.10844],[1.77458,-6.5434],[-3.19922,11.79642]],[[602.97675,292.45972],[7.01562,-10.26432],[1.70154,-0.43548]],[[607.87221,292.42374],[-1.5064,-0.70164],[2.09614,0.97632]],[[611.06199,298.58398],[-0.68112,-2.20978],[2.3212,7.5308]],[[607.50203,324.46476],[1.72432,-7.22958],[-4.89248,7.48206]],[[594.42695,347.7711],[5.76032,-6.88762],[1.18542,1.94146]],[[598.07435,353.99334],[-1.76392,-2.23994],[2.014,2.55752]],[[605.14623,360.72856],[-1.66964,-2.79456],[2.70606,4.52924]],[[612.94541,375.45572],[-3.15752,-4.63134],[2.02216,2.96606]],[[619.44591,384.34884],[-1.66112,-3.265],[1.06318,2.08968]],[[621.74039,390.9978],[-1.6694,-1.64622],[1.13126,1.11552]],[[625.48171,388.04486],[-1.0431,1.19836],[6.97086,-8.87886]],[[645.86355,361.63784],[-4.83214,10.7363],[1.94966,-4.33182]],[[649.73315,347.29498],[-1.85116,4.53742],[5.80124,-14.21966]],[[661.01233,301.24746],[-0.49638,15.31122],[0.24932,-7.69024]],[[657.62563,278.27676],[1.50922,7.45684],[-6.6177,-32.69688]],[[637.13369,180.37602],[6.66284,32.6821],[-0.85204,0.5696]],[[633.39545,180.27734],[1.58878,1.05392],[-2.91664,-1.93474]],[632.41355,175.42596],[[633.59489,173.83412],[0,0],[1.4633,-4.04894]],[[639.43649,162.49104],[-1.28826,4.00802],[3.7932,-11.80124]],[[652.60635,127.45004],[-3.70158,11.83336],[1.20924,-6.89378]],[[654.95557,106.37592],[-0.57076,6.86696],[0.13208,-1.58926]],[[654.54537,101.60934],[0.01598,1.59466],[-0.01162,-1.16106]],[[654.87309,98.14146],[0.71864,0.912],[-1.16574,-1.47938]],[[644.03689,96.17808],[1.63888,0.39764],[-0.41028,-0.09954]],[[642.82635,95.81048],[0.39774,0.14212],[2.36642,4.93018]],[[635.12047,108.07658],[1.9465,-2.50944],[-3.15422,4.06646]],[[630.98735,123.42232],[1.27002,-4.56582],[-1.69732,6.10198]],[[620.28339,139.84254],[5.25764,-3.61794],[-0.89296,1.783]],[[616.84721,141.6537],[1.0037,0.12514],[-0.51254,0.19184]],[[615.27787,142.13852],[0.53358,-0.13054],[0,0]],[[611.15313,139.40238],[0.6943,3.43046],[-0.13702,-0.67706]],[[611.16597,137.67526],[-0.12622,0.4796],[-7.41684,-12.7703]],[[584.24675,103.52052],[11.34726,9.74636],[-8.2467,-7.08322]],[[556.20051,86.90198],[9.52778,5.0253],[-8.76266,-4.62176]],[[529.23567,79.97148],[9.98692,-2.13014],[-15.44222,3.12542]],[[483.20971,90.61116],[15.06232,-4.49842],[0.3148,1.38716]],[[484.11375,94.83366],[-0.28764,-1.4303],[0,0]],[485.76233,99.72044],[[483.55893,104.15272],[3.31784,-1.11444],[-3.31784,1.11444]],[479.12665,101.94932],[[477.35241,96.64592],[0,0],[-0.26748,-1.31376]],[[476.49503,92.7307],[0.30238,1.29712],[-2.73776,0.91362]],[[468.33965,95.65532],[2.69806,-1.03944],[-7.76536,2.99156]],[[444.00433,102.63708],[7.53394,-3.48538],[-2.13096,0.98584]],[[438.10939,106.4927],[2.1246,-0.9995],[-4.8857,2.29846]],[[423.14777,111.46268],[4.77946,-2.79844],[0,0]],[[418.36945,110.17132],[1.74348,3.03484],[-1.74348,-3.03484]],[[419.66083,105.393],[0,0],[0.6727,-0.38056]],[[421.70867,104.38928],[-0.69154,0.29274],[-0.2559,-1.33116]],[[422.14587,101.84516],[0,0],[7.27658,-12.61196]],[[438.26031,60.78828],[-5.86308,13.33982],[-6.42976,3.27592]],[[420.49435,72.42988],[4.97684,-4.67826],[-3.26146,3.06578]],[[412.38077,83.13008],[2.71698,-3.55726],[-5.42904,7.10802]],[[397.09491,105.2941],[4.13096,-7.98826],[-2.2318,4.31578]],[[393.10343,118.77924],[1.17382,-4.47796],[0.46364,0.41966]],[[394.13977,120.74792],[-0.18704,-0.9242],[0.6943,3.43044]],[[391.40363,124.87268],[0,0],[-0.21138,0.03182]],[[390.77453,124.98746],[0.20802,-0.04462],[-0.20916,0.38554]],[[390.10219,126.13072],[0.23966,-0.37646],[0,0]],[[385.74713,127.40128],[2.63778,1.31826],[-5.29178,3.99192]],[[373.91925,144.21128],[2.65572,-5.1676],[-3.01376,5.8643]],[[363.81895,162.23542],[2.4438,-5.98266],[-1.12322,2.74978]],[[363.46773,171.13952],[0.10584,-2.96844],[-0.23822,6.68092]],[[360.76813,191.38016],[0.11324,-6.6972],[-0.08416,4.97668]],[[361.05831,206.58834],[0.40508,-5.15746],[-0.63276,13.72426]],[[359.59335,247.81708],[-0.1198,-13.77438],[0.06236,7.17114]],[[359.46129,269.58202],[1.43074,-7.10762],[-0.3132,1.55588]],[[357.67841,273.9969],[0.22368,-1.57126],[-0.40652,2.85536]],[[359.51745,282.4517],[-0.37184,-2.8601],[1.70252,13.09484]],[[366.75337,321.5037],[-2.62908,-12.98986],[2.58248,12.75954]],[[378.13811,358.74148],[-7.0467,-11.21462],[2.14024,3.40614]],[[385.12289,368.58298],[-2.1671,-3.38912],[0.98206,1.53582]],[[387.71935,373.39618],[-0.6771,-1.69254],[0.11354,0.28384]],[[387.69215,374.73778],[0.06092,-0.38336],[2.0039,-10.44408]],[[395.99007,344.47624],[-2.76346,10.26422],[0,0]],[397.33155,340.68494],[[400.38871,338.30542],[-2.22878,0.04306],[-0.08086,-0.39664]],[[400.39549,337.01078],[-0.10524,0.45832],[-3.23104,-4.17066]],[[390.37637,324.68326],[2.6755,4.42686],[-2.8089,-4.64756]],[[384.30997,309.10792],[1.1,5.29918],[-0.2937,-1.4149]],[[382.50195,297.32522],[-0.53318,0.93818],[6.8184,-11.99762]],[[411.99085,299.15246],[-8.93192,-5.14084],[-1.73276,-3.0861]],[[406.49265,289.66028],[2.19638,3.25342],[-0.2824,-0.4183]],[[398.28847,280.04512],[0.35534,0.74428],[-2.88458,-6.04176]],[[393.23461,258.69294],[1.3504,6.54768],[-1.39708,-6.77404]],[[388.93291,237.70042],[0.55596,6.88682],[-1.2915,-15.99802]],[[390.99379,188.3147],[-0.67838,16.0508],[0.23656,-5.35824]],[[393.18843,171.41952],[-1.25676,5.76748],[-0.81422,-1.68218]],[393.52635,168.00048],[[394.04751,167.2148],[0,0],[0.08714,-0.12738]],[[394.30891,166.83268],[-0.08712,0.12736],[1.81662,-6.68892]],[[402.26567,147.87626],[-3.53578,5.73042],[0.13634,0.03978]],[[402.67893,147.98324],[-0.1391,-0.03148],[0,0]],[[402.48317,148.22714],[0,0],[-1.27714,1.56832]],[[401.04783,154.03916],[-0.43252,-2.13708],[0.2352,1.16206]],[[402.49749,157.09332],[-0.70404,-0.856],[1.85618,-2.53244]],[[408.96037,150.44276],[-2.75586,1.61422],[4.60006,-2.69444]],[[425.64235,146.17054],[-5.16584,1.04554],[14.30976,-2.89624]],[[468.06213,149.20008],[-11.55862,-8.75516],[-0.13902,-0.66084]],[[467.64255,147.2181],[0.1407,0.66048],[0.71764,-0.18326]],[[469.75949,146.59168],[-0.69154,0.23688],[0.97694,2.22354]],[[472.32067,153.25052],[-0.75314,-2.2191],[0.78382,0.9268]],[[474.56211,156.27134],[-0.70938,-1.08884],[0,0]],[[474.49089,160.18598],[1.40504,-1.7799],[0.96972,3.26454]],[[477.56297,170.09872],[-1.14868,-3.35464],[2.6415,7.7144]],[[487.50209,192.42452],[-2.75272,-7.5276],[0.86046,2.35302]],[[489.53891,200.10956],[-0.53438,-2.7099],[0.44912,-1.7373]],[[490.72555,195.09898],[-0.29404,1.58128],[1.14836,-6.17552]],[[497.31181,176.48836],[-3.62602,5.33738],[6.40828,-9.4328]],[[522.75607,152.7275],[-9.09066,7.32386],[1.77382,-1.67908]]],&quot;closed&quot;:true,&quot;fillColor&quot;:[0,0,0,1]}]}" fill="#0077ff" stroke="none" stroke-width="0.5" stroke-linecap="butt"/><path d="M222.83708,161.22496c0.16787,0.04992 0.34008,0.06875 0.51489,0.06904c-0.13024,-0.03314 -0.31179,-0.06697 -0.51685,-0.06963c0.00065,0.00019 0.00131,0.00039 0.00196,0.00059zM226.81673,161.99572l0.66116,0.22038l-0.03975,0.11925l0.82236,0.35244c0.70399,0.1197 1.4911,0.28082 2.61836,0.46232l1.04563,-0.02382c0,0 1.09353,0.00001 1.55174,0.86443c0.7894,-0.19119 1.57518,-0.37703 2.35434,-0.53473c2.07813,-0.42061 4.16733,-0.85792 6.24545,-1.27853c0.98315,1.22767 2.12386,2.31114 3.4402,3.20083c0,0 1.48625,0.95456 2.45362,-0.50375c0.96737,-1.45831 -0.47757,-2.32661 -0.47757,-2.32661c-0.10459,-0.0678 -0.22441,-0.23501 -0.32523,-0.30464c0.40652,-0.3853 0.49236,-0.90982 0.49436,-1.25694c1.07114,-0.31177 2.15552,-0.69118 3.25496,-0.6326c2.38973,0.12732 4.73975,0.78522 7.02353,1.20267c3.6033,0.65865 6.96652,0.76387 10.06853,2.85861c0.63989,0.23011 1.28023,0.46265 1.92013,0.69277l1.79214,0.92855c0,0 1.45689,0.81198 2.2573,-0.74425c0.80041,-1.55623 -0.75499,-2.35193 -0.75499,-2.35193l-2.00353,-1.02348c-0.51045,-0.17813 -1.02029,-0.35429 -1.53074,-0.53242c1.27475,-0.36554 2.47819,-1.2374 3.67258,-1.8274c2.01169,-0.99374 5.4292,-0.79651 7.50807,-1.45516c3.345,-1.05978 6.26267,-3.19461 9.54742,-4.38488c1.09897,-0.39823 2.38876,-0.54905 3.46905,-0.99074c1.14121,1.06563 2.24157,0.00629 2.24157,0.00629l1.53152,-1.40479c0.24448,-0.30342 0.48776,-0.60874 0.72926,-0.91701c1.257,-0.59536 2.63942,-1.09459 3.9075,-1.14927c0.24092,-0.01039 -0.13624,0.46779 -0.1478,0.70866c-0.02591,0.54002 0.06716,1.08304 0.03664,1.62282c-0.17748,3.13908 -0.92134,6.19186 -1.599,9.24901c-2.23086,3.31049 -3.25922,7.33362 -5.73133,10.45905c-0.2455,-0.06971 -0.53974,-0.08523 -0.89153,-0.01403l-0.00005,0.00001c-1.71522,0.34716 -1.36827,2.06479 -1.36827,2.06479l0.06349,0.11229c-2.15542,1.6078 -5.04606,2.71554 -7.17597,4.22625c-1.84509,1.30869 -3.83109,2.43102 -5.61369,3.82365c-0.51656,0.40354 -0.68567,1.17443 -1.23261,1.53573c-1.51986,1.00399 -5.60004,1.33909 -7.13911,1.65059c-6.81862,1.38005 -13.26697,2.32364 -20.18305,2.85879c-1.6936,0.13179 -4.97419,0.46191 -6.7084,0.30256c-1.77478,-0.16307 -3.42633,-1.09828 -5.19443,-1.32246c-13.08002,-1.65843 -25.32725,-7.39441 -34.48577,-16.92464c-2.66696,-5.59388 -8.12462,-9.3439 -9.38749,-15.76808c-0.17146,-0.87219 -0.29179,-1.75887 -0.52839,-2.61569c-0.12495,-0.45253 -0.72895,-0.86294 -0.55042,-1.29713c0.63132,-1.53535 4.07362,-0.26411 4.85503,-0.00642c4.30271,1.41889 7.811,4.21245 12.2128,5.59902c5.50037,3.0359 11.30745,4.88044 17.36578,6.18628c-0.75777,0.11076 -1.49716,0.17971 -2.20011,0.18864c0.04168,0.03133 0.08323,0.06294 0.12471,0.09471z" fill="#fff196" stroke="none" stroke-width="0.5" stroke-linecap="butt"/><path d="M242.01992,149.00793c-0.29647,-0.20843 -0.73189,-0.38197 -1.23456,-0.28195c-0.0359,-0.18049 -0.07516,-0.3615 -0.11205,-0.54248c-0.22095,-1.08397 -0.54426,-2.23971 -0.69781,-3.33526c-0.10496,-0.74887 -0.01713,-1.52631 -0.08872,-2.27892c0.92795,1.90405 1.61702,4.17015 2.13314,6.43862z" data-paper-data="{&quot;noHover&quot;:false,&quot;origItem&quot;:[&quot;Path&quot;,{&quot;applyMatrix&quot;:true,&quot;segments&quot;:[[[239.90251,142.61677],[0.92795,1.90405],[0.0716,0.75261]],[[240.01154,144.88288],[-0.10496,-0.74887],[0.15355,1.09555]],[[240.67912,148.13383],[-0.22095,-1.08397],[0.03689,0.18098]],[[240.78822,148.67606],[-0.0359,-0.18049],[0.50267,-0.10002]],[[242.0042,148.96047],[-0.29647,-0.20843],[-0.51612,-2.26847]]],&quot;closed&quot;:true}]}" fill="#ffffff" stroke="none" stroke-width="0.5" stroke-linecap="butt"/><path d="M307.96666,114.97821c0.1358,1.36626 0.06715,2.74116 -0.42512,4.19379c1.03791,5.4664 -1.80295,10.81064 -4.0634,15.57327c-1.00155,2.11022 -1.45467,4.51396 -2.66299,6.5426c-1.38639,2.32759 -3.02385,4.41379 -4.6991,6.50667c-1.16854,0.53913 -2.28286,1.17863 -3.59445,1.75556c-3.95717,1.74065 -8.53069,3.93565 -12.68355,5.25686c-2.4776,0.78823 -5.70634,0.58953 -8.08681,1.69113c-1.00851,0.4667 -1.85633,1.37896 -2.9537,1.55414l-1.44032,0.72353c0,0 -0.66088,0.37937 -0.86047,1.07248c-2.48415,-0.88245 -5.09084,-1.12886 -7.83929,-1.63132c-2.52307,-0.46126 -5.16453,-1.17464 -7.79151,-1.2653c-1.23209,-0.04252 -2.56746,0.11822 -3.93101,0.38211c-0.83979,-4.01322 -1.74257,-7.99446 -2.76299,-11.97693c-0.62762,-2.44946 -0.50929,-6.26157 -4.45903,-6.56054c-3.81222,-0.28856 -3.27922,4.70788 -3.15976,6.37895c0.32776,4.58496 1.31045,9.6221 3.50213,13.79609c-0.54591,0.13624 -1.10902,0.35512 -1.62198,0.45894c-1.03895,0.21027 -2.29638,0.55981 -3.65014,0.93318l-1.90483,-1.38498c-7.03697,-1.28341 -13.77738,-3.10951 -20.04777,-6.64878c-0.26694,-0.08536 -0.62025,-0.19403 -1.02181,-0.3181c-0.1452,-0.34023 -0.34574,-0.55985 -0.34574,-0.55985c-2.51989,-2.73273 -3.31828,-5.531 -5.35701,-8.55197c-1.10364,-1.63537 -3.0642,-2.67305 -3.89691,-4.46164c-1.28439,-2.75876 -1.60011,-6.81609 -2.21284,-9.78828c-0.66919,-3.24607 -1.82463,-6.77929 -2.09112,-10.08041c-0.63368,-7.84937 0.70983,-16.40615 1.04279,-24.28415c0.11825,-2.94117 0.55601,-6.22854 1.38548,-9.45582c0.13256,-0.20893 0.26545,-0.41837 0.39802,-0.6273c2.25699,-1.55934 3.28007,-4.7689 5.53714,-6.02745c1.9407,-1.08214 5.07417,-1.26232 7.21237,-1.69509c6.68906,-1.35384 16.43742,-3.63883 20.70188,3.28668c-0.12414,0.22418 -0.23677,0.53115 -0.43612,0.73178c0.55731,1.87097 1.07599,3.75774 1.73487,5.69066c1.33211,3.90795 3.61353,7.49771 5.02069,11.30102c1.12796,3.04866 1.43744,7.15861 2.08128,10.33971l0.43303,2.11989c0.19173,0.94729 1.03698,1.49736 1.98427,1.30563c0.68472,-0.13859 1.20103,-0.66603 1.35863,-1.30186l0.77633,-2.84729l-0.01068,-0.00286c0.00949,-0.02253 0.01908,-0.04521 0.02837,-0.06784c2.23089,-5.43237 0.93593,-11.75708 4.39717,-16.87705c2.54148,-3.75945 6.7401,-7.17385 10.59776,-10.24262c0.51011,-0.09096 0.88213,-0.38758 0.88213,-0.38758c0.51245,-0.41097 0.93988,-0.93895 1.39477,-1.42363c0.30321,-0.24355 0.60216,-0.48448 0.89423,-0.72322c0.11543,-0.09435 0.23197,-0.19218 0.34909,-0.29324c0.02367,-0.01244 0.04761,-0.02456 0.07169,-0.0364c3.06745,-1.5079 7.56895,-0.79911 10.87567,-0.80176c0.829,-0.00066 3.56637,-0.08231 4.39312,0.22559c3.86339,1.43879 6.92919,4.07816 10.33824,6.17215c2.86168,1.75777 4.53158,2.32017 7.05347,4.65051c0.18415,1.60353 0.9856,3.08366 1.62146,4.56721c1.01651,2.37167 1.59002,5.00345 2.2638,7.4654c1.12627,4.11531 3.31095,7.84142 3.29399,12.15368l0.73408,2.27526c0,0 0.42623,1.27968 1.65251,1.21884z" data-paper-data="{&quot;noHover&quot;:false,&quot;origItem&quot;:[&quot;Path&quot;,{&quot;applyMatrix&quot;:true,&quot;segments&quot;:[[306.26428,113.76303],[[305.53041,111.48995],[0,0],[0.01696,-4.31226]],[[302.23921,99.34785],[1.12627,4.11531],[-0.67378,-2.46195]],[[299.97842,91.88906],[1.01651,2.37167],[-0.63586,-1.48355]],[[298.35923,87.32559],[0.18415,1.60353],[-2.52188,-2.33035]],[[291.31039,82.68099],[2.86168,1.75777],[-3.40905,-2.09399]],[[280.98093,76.51647],[3.86339,1.43879],[-0.82675,-0.3079]],[[276.59115,76.29297],[0.829,-0.00066],[-3.30671,0.00265]],[[265.72525,77.09901],[3.06745,-1.5079],[-0.02409,0.01184]],[[265.65362,77.13544],[0.02367,-0.01244],[-0.11712,0.10106]],[[265.3048,77.42877],[0.11543,-0.09435],[-0.29207,0.23874]],[[264.41132,78.15221],[0.30321,-0.24355],[-0.45489,0.48468]],[[263.0177,79.57616],[0.51245,-0.41097],[0,0]],[[262.13651,79.96398],[0.51011,-0.09096],[-3.85766,3.06876]],[[251.55308,90.20798],[2.54148,-3.75945],[-3.46123,5.11997]],[[247.17719,107.07912],[2.23089,-5.43237],[-0.00929,0.02263]],[[247.14903,107.14685],[0.00949,-0.02253],[0,0]],[247.15968,107.14973],[[246.39173,109.9913],[0,0],[-0.1576,0.63583]],[[245.0396,111.28655],[0.68472,-0.13859],[-0.94729,0.19173]],[[242.97722,109.91848],[0.19173,0.94729],[0,0]],[[242.54741,107.79487],[0,0],[-0.64384,-3.18109]],[[240.47613,97.4471],[1.12796,3.04866],[-1.40716,-3.80331]],[[235.45739,86.14495],[1.33211,3.90795],[-0.65888,-1.93292]],[[233.72383,80.45359],[0.55731,1.87097],[0.19935,-0.20063]],[[234.20495,79.81111],[-0.12414,0.22418],[-4.26447,-6.92551]],[[213.51551,76.51573],[6.68906,-1.35384],[-2.1382,0.43277]],[[206.30672,78.207],[1.9407,-1.08214],[-2.25707,1.25855]],[[200.77352,84.22914],[2.25699,-1.55934],[-0.13256,0.20893]],[[200.37582,84.85594],[0.13256,-0.20893],[-0.82948,3.22728]],[[198.99381,94.30515],[0.11825,-2.94117],[-0.33296,7.87799]],[[197.95514,118.56859],[-0.63368,-7.84937],[0.26649,3.30112]],[[200.04523,128.63965],[-0.66919,-3.24607],[0.61273,2.97219]],[[202.25538,138.41914],[-1.28439,-2.75876],[0.83271,1.78859]],[[206.15003,142.87599],[-1.10364,-1.63537],[2.03873,3.02097]],[[211.50178,151.4201],[-2.51989,-2.73273],[0,0]],[[211.84713,151.97949],[-0.1452,-0.34023],[0.40156,0.12408]],[[212.86839,152.29694],[-0.26694,-0.08536],[6.27039,3.53927]],[[232.90014,158.93343],[-7.03697,-1.28341],[0,0]],[[234.80269,160.31738],[0,0],[1.35376,-0.37337]],[[238.44967,159.38299],[-1.03895,0.21027],[0.51296,-0.10382]],[[240.04046,159.01905],[-0.54591,0.13624],[-2.19168,-4.17399]],[[236.52763,145.2182],[0.32776,4.58496],[-0.11946,-1.67106]],[[239.73938,138.75384],[-3.81222,-0.28856],[3.94974,0.29897]],[[244.18697,145.3091],[-0.62762,-2.44946],[1.02042,3.98246]],[[246.94236,157.28428],[-0.83979,-4.01322],[1.36355,-0.26388]],[[250.86852,156.90168],[-1.23209,-0.04252],[2.62698,0.09066]],[[258.65041,158.16742],[-2.52307,-0.46126],[2.74845,0.50247]],[[266.48139,159.80066],[-2.48415,-0.88245],[0.19959,-0.69312]],[267.34062,158.7286],[[268.77921,158.00572],[0,0],[1.09737,-0.17517]],[[271.72938,156.45313],[-1.00851,0.4667],[2.38047,-1.1016]],[[279.80867,154.7665],[-2.4776,0.78823],[4.15287,-1.32121]],[[292.48263,149.51877],[-3.95717,1.74065],[1.31158,-0.57692]],[[296.07502,147.76597],[-1.16854,0.53913],[1.67525,-2.09288]],[[300.77029,141.26578],[-1.38639,2.32759],[1.20832,-2.02864]],[[303.43076,134.72929],[-1.00155,2.11022],[2.26045,-4.76263]],[[307.49156,119.17064],[1.03791,5.4664],[0.49227,-1.45263]],[[307.91672,114.98067],[0.1358,1.36626],[-1.22628,0.06084]]],&quot;closed&quot;:true}]}" fill="#ffffff" stroke="none" stroke-width="0.5" stroke-linecap="butt"/><path d="M234.1817,79.76684c-0.12414,0.22418 -0.23447,0.52996 -0.43383,0.73059c0.55731,1.87097 1.07623,3.75755 1.73512,5.69047c1.33211,3.90795 3.61442,7.49701 5.02158,11.30032c1.12795,3.04866 1.4393,7.15515 2.08315,10.33625l0.43328,2.11817c0.19173,0.94729 1.02698,1.51251 1.97427,1.32078c0.68472,-0.13859 1.20039,-0.66823 1.35799,-1.30406l0.77787,-2.85067l-0.01068,-0.00286c0.00949,-0.02253 0.01913,-0.04528 0.02841,-0.06791c2.23089,-5.43237 0.94034,-11.75989 4.40157,-16.87986c3.26465,-4.82918 9.25819,-9.08887 13.76991,-12.7768c0.70055,-0.57263 1.43267,-1.27666 2.1963,-2.015c0.02081,-0.00111 0.03181,-0.00203 0.03181,-0.00203c1.50449,-0.13829 3.03885,-0.0861 4.51348,-0.41487c1.1214,-0.25002 2.06044,-1.09861 3.19107,-1.30286c0.02354,-0.00425 0.04713,-0.00843 0.07077,-0.01254c-0.35796,0.54903 -0.56598,1.20473 -0.56598,1.90902c0,1.47188 0.90855,2.73155 2.19542,3.24878l2.25919,0.96823l0.07797,-0.18194l0.2626,0.30742c0.46254,0.09354 0.92513,0.19071 1.3865,0.29411c0.27409,0.1462 0.62788,0.20617 1.01255,0.23856c1.06766,0.26507 2.12358,0.57411 3.15161,0.95969c0.14685,0.08481 0.29381,0.16922 0.44084,0.2533c1.23133,0.87707 2.41485,1.82774 3.44831,2.92343c2.98939,3.16941 4.71138,7.96957 6.84976,11.64728c0.4057,0.69774 0.85215,1.36909 1.32007,2.02655c0.38458,0.63706 0.81071,1.22458 1.28136,1.72414c0.16591,0.21723 0.33232,0.43414 0.49848,0.65121c0.1926,0.60887 0.44902,1.17464 0.90314,1.60375c0.09999,0.09448 0.20154,0.18693 0.30456,0.27751l-0.093,0.0651l2.30525,3.29321c0.62984,0.92532 1.69165,1.533 2.8954,1.533c0.45307,0 0.88604,-0.08609 1.28343,-0.2428c0.10298,0.81682 0.19195,1.63798 0.35356,2.43648c0.68466,3.38281 1.77142,6.28502 0.64663,9.60412c1.03791,5.4664 -1.80353,10.81043 -4.06398,15.57306c-1.00155,2.11022 -1.45486,4.51376 -2.66318,6.54239c-1.38639,2.32759 -3.024,4.41352 -4.69925,6.5064c-1.16854,0.53913 -2.28293,1.17854 -3.59452,1.75546c-3.95717,1.74065 -8.53075,3.93515 -12.68362,5.25637c-2.4776,0.78823 -5.70619,0.58919 -8.08666,1.69079c-1.00851,0.4667 -1.85619,1.37882 -2.95355,1.55399l-1.44024,0.72347c0,0 -0.66082,0.37932 -0.86041,1.07244c-2.48415,-0.88245 -5.09048,-1.12903 -7.83893,-1.6315c-2.52307,-0.46126 -5.16401,-1.17468 -7.79099,-1.26534c-1.23209,-0.04252 -2.5672,0.11828 -3.93076,0.38216c-0.83979,-4.01322 -1.74191,-7.9942 -2.76233,-11.97666c-0.62762,-2.44946 -0.5084,-6.26074 -4.45813,-6.55971c-3.81222,-0.28856 -3.28267,4.70587 -3.16321,6.37694c0.32776,4.58496 1.31123,9.62274 3.5029,13.79673c-0.54591,0.13624 -1.10753,0.3556 -1.62049,0.45942c-1.03895,0.21027 -2.2963,0.5599 -3.65006,0.93327l-1.90474,-1.3849c-7.03697,-1.28341 -13.77726,-3.10876 -20.04765,-6.64803c-0.26694,-0.08536 -0.62026,-0.19401 -1.02182,-0.31808c-0.1452,-0.34023 -0.34574,-0.55982 -0.34574,-0.55982c-2.51989,-2.73273 -3.31841,-5.53062 -5.35714,-8.55159c-1.10364,-1.63537 -3.06436,-2.67292 -3.89706,-4.46151c-1.28439,-2.75876 -1.60041,-6.81583 -2.21314,-9.78803c-0.66919,-3.24607 -1.82501,-6.77921 -2.09151,-10.08034c-0.63368,-7.84937 0.70906,-16.40655 1.04202,-24.28454c0.11825,-2.94117 0.55587,-6.22885 1.38535,-9.45613c0.13256,-0.20893 0.26544,-0.41839 0.39801,-0.62732c2.25699,-1.55934 3.27997,-4.76912 5.53704,-6.02767c1.9407,-1.08214 5.07408,-1.26245 7.21229,-1.69522c6.68906,-1.35384 16.43731,-3.63926 20.70177,3.28624z" fill="#ffffff" stroke="none" stroke-width="0.5" stroke-linecap="butt"/><path d="M258.88282,117.76519l-0.58333,24.11111" fill="none" stroke="#000000" stroke-width="4" stroke-linecap="round"/><path d="M247.25781,114.8763l0.66667,25.33333" fill="none" stroke="#000000" stroke-width="4" stroke-linecap="round"/><path d="M285.59115,165.20964c0,0 1.26754,5.18985 -1.65766,7.27928c-1.26545,0.90389 -4.1107,4.01809 -7.11886,5.04319c-4.74261,1.61616 -9.89015,1.01086 -9.89015,1.01086" fill="none" stroke="#000000" stroke-width="4" stroke-linecap="round"/><path d="M281.92447,165.20964l5,-3.33333" fill="none" stroke="#000000" stroke-width="4" stroke-linecap="round"/><path d="" fill="#000000" stroke="none" stroke-width="0.5" stroke-linecap="butt"/><path d="M270.14259,259.3763l6,60" fill="none" stroke="none" stroke-width="0" stroke-linecap="round"/><path d="M293.14258,325.26629l-20,-1.33333l-13.33333,5.33333l0.33333,-4.55666l-6.66666,-61.66666l13.33333,-4.11001l8,-1.88999l16.33333,67.66666l-1.66667,-4.11001" fill="none" stroke="#000000" stroke-width="3" stroke-linecap="round"/><path d="M268.03494,342.49434c-0.85246,0.42135 -1.74459,0.7873 -2.67091,1.00211c-1.54436,1.25141 -4.65639,5.21738 -2.63493,7.3668c1.19511,1.27076 4.31044,2.36086 5.90522,3.03051c1.69191,0.71044 4.76564,0.23254 6.50826,0.23254c4.90343,0 9.81007,-0.04668 14.71281,0.03344c2.28301,-1.21602 6.89727,-1.60382 8.42616,-3.88115c0.81011,-1.20668 1.30302,-2.63427 2.25775,-3.7301c0.82418,-0.94599 1.94404,-2.44457 2.43265,-3.61051c0.17732,-0.42312 0.10101,-0.9212 0.26005,-1.35152c0.05615,-0.15191 0.50797,-0.3922 0.36003,-0.32628c-2.10089,0.93602 -5.78433,0.39443 -8.26382,0.36717c-0.38486,0.23784 -0.75513,0.48518 -1.10229,0.74895l-1.41667,0.25c0,0 -1.25,0 -1.25,-1.25c0,-1.25 1.25,-1.25 1.25,-1.25l-0.08333,0.25c0.5,-0.37095 1.08717,-0.71318 1.71064,-1.04951c0.0319,-0.01898 0.06408,-0.03616 0.0962,-0.05171c1.92925,-1.0331 4.17738,-2.02142 5.26244,-3.62967c0.9992,-1.48098 1.48896,-2.87785 2.19253,-4.41413c0.77885,-1.70065 2.03413,-3.16411 1.36156,-5.31349c-0.41558,-1.32806 -3.06707,-0.53974 -3.97647,-0.62908c-3.74597,-0.368 -7.44695,-0.32907 -11.23023,-0.32907c-2.54543,0 -6.18118,-0.71631 -8.60471,-0.06414c-1.25019,0.33643 -2.33943,1.24445 -3.62552,1.39322c-4.00162,0.46287 -7.84885,0.86031 -11.63306,2.37106c-2.53334,1.01137 -5.13005,1.74934 -6.87381,3.61772c2.36386,1.23066 3.64074,3.84261 5.97714,4.98807c3.88374,1.90408 8.49266,2.86075 12.75997,2.86075l1.55055,1.03278c0,0 0.88389,0.88388 0,1.76776c-0.88389,0.88389 -1.76777,0 -1.76777,0l0.21722,-0.30055c-2.45083,0 -5.0457,-0.28802 -7.56587,-0.87613zM303.14259,339.1263c0.74667,0.06007 1.70065,-0.17636 2.21722,0.36612c1.59427,1.67424 -0.58192,5.48338 -1.41937,6.75065c-0.76715,1.16089 -2.03253,1.9492 -2.74688,3.1433c-0.44716,0.74747 -0.43506,1.73021 -0.94555,2.43595c-2.02569,2.80045 -6.87435,3.36696 -9.81822,4.77055c-5.09503,0.06502 -10.19174,0.03343 -15.28719,0.03343c-2.27866,0 -5.31381,0.40314 -7.49175,-0.43412c-1.81013,-0.69587 -5.51007,-2.10658 -6.76143,-3.63616c-3.13614,-3.83337 0.35607,-8.91212 3.36507,-11.29986c0.4214,-0.1117 0.83957,-0.24112 1.25061,-0.39001c-1.1334,-0.39243 -2.23062,-0.85172 -3.2692,-1.3791c-2.38729,-1.21224 -3.58868,-3.83147 -5.98566,-4.99272c0,0 -0.12541,-0.0627 -0.27123,-0.18812c-0.27041,0.2638 -0.73556,0.51806 -1.39544,0.18812c-1.11803,-0.55901 -0.55901,-1.67705 -0.55901,-1.67705c1.93514,-3.83997 5.50362,-4.95947 9.32964,-6.48006c3.96735,-1.57676 8.12334,-2.19909 12.35196,-2.53999c1.09545,-0.08832 1.9761,-1.00238 3.04115,-1.27345c2.75925,-0.70227 6.53364,-0.06414 9.39529,-0.06414c4.24581,0 8.45713,0.25686 12.66667,0.33334c2.03729,0.03701 3.59316,-0.3618 4.7933,2.04184c1.29174,2.58711 -0.35946,5.25832 -1.30511,7.35318c-0.76223,1.68852 -1.30604,3.34877 -2.47413,4.9192c-0.56336,0.75741 -1.28055,1.37935 -2.07225,1.9303c1.14141,-0.01417 2.27836,-0.00074 3.39153,0.08882z" fill="#000000" stroke="none" stroke-width="0.5" stroke-linecap="butt"/><path d="M268.62581,341.74072c2.52017,0.5881 5.1064,0.8562 7.55723,0.8562l-0.21782,0.29974c0,0 0.87554,0.87525 1.75942,-0.00863c0.88389,-0.88389 -0.07429,-1.70306 -0.07429,-1.70306l-1.55719,-1.05105c-4.26731,0 -8.87642,-0.97061 -12.76015,-2.87469c-2.33639,-1.14547 -3.61143,-3.76591 -5.97529,-4.99657c1.74376,-1.86838 4.34658,-2.61919 6.87993,-3.63057c3.78421,-1.51075 7.65659,-1.9277 11.6582,-2.39057c1.28609,-0.14877 2.38848,-1.05948 3.63867,-1.39591c2.42354,-0.65217 6.08592,0.06979 8.63135,0.06979c3.78328,0 7.50095,-0.02471 11.24692,0.34329c0.90941,0.08934 3.56393,-0.69445 3.97951,0.63361c0.67258,2.14938 -0.57902,3.62045 -1.35787,5.32111c-0.70358,1.53629 -1.19098,2.94135 -2.19018,4.42233c-1.08506,1.60825 -3.33225,2.60563 -5.2615,3.63872c-0.03213,0.01555 -0.06431,0.03291 -0.0962,0.05189c-0.62347,0.33633 -1.21078,0.68278 -1.71078,1.05373l0.0834,-0.25104c0,0 -1.25067,0.00584 -1.25067,1.25584c0,1.25 1.15233,1.22892 1.15233,1.22892l1.41618,-0.24793c0.34716,-0.26378 0.71686,-0.50795 1.10172,-0.74579c2.4795,0.02726 6.16256,0.57222 8.26345,-0.36381c0.14794,-0.06592 -0.20426,0.18295 -0.26041,0.33486c-0.15904,0.43032 -0.0831,0.93139 -0.26042,1.35451c-0.48861,1.16594 -1.61075,2.67356 -2.43493,3.61955c-0.95473,1.09582 -1.45207,2.53274 -2.26218,3.73941c-1.52889,2.27733 -6.15904,2.68131 -8.44205,3.89733c-4.90274,-0.08012 -9.85337,-0.02869 -14.7568,-0.02869c-1.74262,0 -4.83093,0.46956 -6.52283,-0.24088c-1.59479,-0.66965 -4.72044,-1.77137 -5.91554,-3.04212c-2.02146,-2.14943 1.08434,-6.1295 2.6287,-7.38091c0.92632,-0.21481 1.81818,-0.58181 2.67064,-1.00316z" data-paper-data="{&quot;noHover&quot;:false,&quot;origItem&quot;:[&quot;Path&quot;,{&quot;applyMatrix&quot;:true,&quot;segments&quot;:[[[268.03494,342.49434],[0,0],[-0.85246,0.42135]],[[265.36403,343.49645],[0.92632,-0.21481],[-1.54436,1.25141]],[[262.72911,350.86325],[-2.02146,-2.14943],[1.19511,1.27076]],[[268.63433,353.89376],[-1.59479,-0.66965],[1.69191,0.71044]],[[275.14259,354.1263],[-1.74262,0],[4.90343,0]],[[289.8554,354.15974],[-4.90274,-0.08012],[2.28301,-1.21602]],[[298.28156,350.2786],[-1.52889,2.27733],[0.81011,-1.20668]],[[300.53931,346.5485],[-0.95473,1.09582],[0.82418,-0.94599]],[[302.97195,342.93799],[-0.48861,1.16594],[0.17732,-0.42312]],[[303.232,341.58647],[-0.15904,0.43032],[0.05615,-0.15191]],[[303.59204,341.26019],[0.14794,-0.06592],[-2.10089,0.93602]],[[295.32821,341.62735],[2.4795,0.02726],[-0.38486,0.23784]],[[294.22592,342.3763],[0.34716,-0.26378],[0,0]],[292.80925,342.6263],[[291.55925,341.3763],[0,1.25],[0,-1.25]],[292.80925,340.1263],[[292.72592,340.3763],[0,0],[0.5,-0.37095]],[[294.43656,339.32679],[-0.62347,0.33633],[0.0319,-0.01898]],[[294.53276,339.27509],[-0.03213,0.01555],[1.92925,-1.0331]],[[299.7952,335.64542],[-1.08506,1.60825],[0.9992,-1.48098]],[[301.98774,331.23128],[-0.70358,1.53629],[0.77885,-1.70065]],[[303.34929,325.91779],[0.67258,2.14938],[-0.41558,-1.32806]],[[299.37282,325.28871],[0.90941,0.08934],[-3.74597,-0.368]],[[288.14259,324.95964],[3.78328,0],[-2.54543,0]],[[279.53787,324.89549],[2.42354,-0.65217],[-1.25019,0.33643]],[[275.91235,326.28871],[1.28609,-0.14877],[-4.00162,0.46287]],[[264.27929,328.65977],[3.78421,-1.51075],[-2.53334,1.01137]],[[257.40548,332.27748],[1.74376,-1.86838],[2.36386,1.23066]],[[263.38262,337.26556],[-2.33639,-1.14547],[3.88374,1.90408]],[[276.14259,340.1263],[-4.26731,0],[0,0]],[277.69314,341.15909],[[277.69314,342.92685],[0.88389,-0.88389],[-0.88389,0.88389]],[275.92537,342.92685],[[276.14259,342.6263],[0,0],[-2.45083,0]],[[268.57671,341.75018],[2.52017,0.5881],[0,0]]],&quot;closed&quot;:true}]}" fill="#ffffff" stroke="none" stroke-width="0.5" stroke-linecap="butt"/><path d="M241.47592,336.79297l0.93284,0.00405c0.73441,-0.4862 1.05453,-1.42307 1.64607,-2.36993c1.37025,-2.19331 4.04969,-3.53654 4.85389,-6.1839c0.17631,-0.58038 -1.11451,-0.48052 -1.65849,-0.74886c-2.23063,-1.10035 -5.35693,-2.33035 -7.05686,-4.03028c-3.88189,-0.80498 -8.41873,-0.17108 -12.38413,-0.17108c-5.71303,0 -11.42606,0 -17.13909,0c3.73055,2.36458 6.52482,6.36683 10.25515,8.78483l0.8983,0.58364c0,0 1.04819,0.68103 0.36717,1.72922c-0.50268,0.77369 -1.2054,0.60526 -1.53898,0.46399c-0.26949,0.10498 -0.50921,0.10498 -0.50921,0.10498c-1.0428,0 -4.21754,-0.44286 -5.18831,-0.09515c-1.17776,0.42186 -1.73498,1.82771 -2.76475,2.5381c-1.74904,1.20657 -3.51483,2.40133 -5.25792,3.60326c-1.35867,0.93685 -2.74458,1.83476 -4.08433,2.79847c-0.56219,0.4044 -1.16722,0.74812 -1.77698,1.07642c-0.12346,0.06647 -0.53937,0.04989 -0.40852,0.10027c3.92909,1.51301 8.87762,3.02094 13.02466,3.71723c7.85528,2.02827 15.71068,2.09473 23.78949,2.09473c2.64892,0 7.11905,0.67192 9.58624,-0.26287c2.44508,-0.9264 3.80074,-5.67762 4.55073,-7.79157c-2.02585,-1.79706 -5.61718,-2.76499 -8.28969,-3.45493l-0.55222,0.0028c-0.54289,0.19052 -1.18221,0.30532 -1.96172,0.3399h-1.33333c0,0 -1.25,0 -1.25,-1.25c0,-1.25 1.25,-1.25 1.25,-1.25h1.11305c0.36908,-0.33333 0.88695,-0.33333 0.88695,-0.33333zM254.00562,342.01407c-0.52129,3.55311 -2.34262,9.31722 -6.11594,10.8751c-2.70307,1.116 -7.50277,0.4038 -10.41376,0.4038c-8.24792,0 -16.29407,-0.07291 -24.31308,-2.15017c-3.79494,-0.65666 -8.60643,-1.98197 -12.1206,-3.59414c-0.99255,-0.45535 -2.3287,-0.77051 -2.75217,-1.77707c-0.91039,-2.16393 3.82173,-4.76033 5.04662,-5.59991c2.43171,-1.66676 4.98469,-3.14995 7.42564,-4.82166c1.17585,-0.8053 1.89736,-2.30413 3.23525,-2.79523c0.68971,-0.25317 1.95311,-0.26484 3.21127,-0.21981c-3.08879,-2.76295 -5.87162,-6.3821 -9.53049,-7.79807c0,0 -0.9037,-0.36148 -0.79725,-1.24393c-0.02394,0 -0.0479,0 -0.07184,0c0,0 -1.25,0 -1.25,-1.25c0,-1.25 1.25,-1.25 1.25,-1.25c7.77778,0 15.55555,0 23.33334,0c3.69794,0 7.70174,-0.47357 11.28254,0.49558c1.70683,1.70682 4.7088,2.83895 6.94314,3.96972c0.92022,0.46571 2.93405,1.25987 3.00817,2.58447c0.06033,1.07815 -0.7906,2.01065 -1.23386,2.99532c-0.94511,2.09949 -2.82946,2.99593 -3.91225,4.82079c-0.34572,0.58267 -0.6591,1.10733 -0.97949,1.56995c3.2922,0.93732 6.41191,2.31403 8.75477,4.78528z" fill="#000000" stroke="none" stroke-width="0.5" stroke-linecap="butt"/><path d="M240.63897,337.12659l-1.11305,0.00002c0,0 -1.2503,0.00516 -1.2503,1.25516c0,1.25 1.24939,1.25402 1.24939,1.25402l1.235,-0.01817c0.77952,-0.03458 1.41852,-0.14738 1.96141,-0.33791l0.65135,0.01035c2.67252,0.68994 6.26306,1.6623 8.28891,3.45937c-0.74999,2.11395 -2.11241,6.88134 -4.55749,7.80774c-2.4672,0.93479 -6.94752,0.27435 -9.59644,0.27435c-8.07881,0 -16.00252,-0.07082 -23.8578,-2.09909c-4.14704,-0.69629 -9.10682,-2.22352 -13.03591,-3.73654c-0.13085,-0.05039 0.28507,-0.03375 0.40853,-0.10022c0.60976,-0.32831 1.21449,-0.67301 1.77668,-1.07741c1.33975,-0.96371 2.72471,-1.86545 4.08338,-2.80231c1.7431,-1.20193 3.50787,-2.40551 5.25691,-3.61208c1.02978,-0.71039 1.58789,-2.1271 2.76566,-2.54896c0.97078,-0.34771 4.14736,0.08828 5.19017,0.08828c0,0 0.24052,-0.00212 0.51,-0.1071c0.33358,0.14128 1.04127,0.30031 1.54395,-0.47338c0.68103,-1.04819 -0.29067,-1.66561 -0.29067,-1.66561l-0.89717,-0.58479c-3.73033,-2.418 -6.59813,-6.48801 -10.32867,-8.85259c5.71303,0 11.4695,-0.0164 17.18253,-0.0164c3.9654,0 8.53213,-0.61899 12.41402,0.18599c1.69993,1.69993 4.83582,2.94406 7.06645,4.04442c0.54398,0.26835 1.83588,0.17105 1.65957,0.75144c-0.8042,2.64736 -3.48081,4.00139 -4.85106,6.1947c-0.59154,0.94686 -0.91115,1.89019 -1.64556,2.37639l-0.93284,-0.00411c0,0 -0.51786,0.0011 -0.88694,0.33443z" data-paper-data="{&quot;noHover&quot;:false,&quot;origItem&quot;:[&quot;Path&quot;,{&quot;applyMatrix&quot;:true,&quot;segments&quot;:[[241.47592,336.79297],[[242.40876,336.79703],[0,0],[0.73441,-0.4862]],[[244.05484,334.4271],[-0.59154,0.94686],[1.37025,-2.19331]],[[248.90873,328.2432],[-0.8042,2.64736],[0.17631,-0.58038]],[[247.25024,327.49433],[0.54398,0.26835],[-2.23063,-1.10035]],[[240.19338,323.46405],[1.69993,1.69993],[-3.88189,-0.80498]],[[227.80925,323.29297],[3.9654,0],[-5.71303,0]],[[210.67016,323.29297],[5.71303,0],[3.73055,2.36458]],[[220.92531,332.0778],[-3.73033,-2.418],[0,0]],[221.82361,332.66145],[[222.19078,334.39067],[0.68103,-1.04819],[-0.50268,0.77369]],[[220.6518,334.85465],[0.33358,0.14128],[-0.26949,0.10498]],[[220.14259,334.95964],[0,0],[-1.0428,0]],[[214.95427,334.86449],[0.97078,-0.34771],[-1.17776,0.42186]],[[212.18952,337.40259],[1.02978,-0.71039],[-1.74904,1.20657]],[[206.9316,341.00585],[1.7431,-1.20193],[-1.35867,0.93685]],[[202.84727,343.80432],[1.33975,-0.96371],[-0.56219,0.4044]],[[201.07029,344.88075],[0.60976,-0.32831],[-0.12346,0.06647]],[[200.66177,344.98102],[-0.13085,-0.05039],[3.92909,1.51301]],[[213.68643,348.69825],[-4.14704,-0.69629],[7.85528,2.02827]],[[237.47592,350.79297],[-8.07881,0],[2.64892,0]],[[247.06216,350.5301],[-2.4672,0.93479],[2.44508,-0.9264]],[[251.61289,342.73853],[-0.74999,2.11395],[-2.02585,-1.79706]],[[243.32319,339.28361],[2.67252,0.68994],[0,0]],[[242.77097,339.28641],[0,0],[-0.54289,0.19052]],[[240.80925,339.6263],[0.77952,-0.03458],[0,0]],[239.47592,339.6263],[[238.22592,338.3763],[0,1.25],[0,-1.25]],[239.47592,337.1263],[[240.58897,337.1263],[0,0],[0.36908,-0.33333]]],&quot;closed&quot;:true}]}" fill="#ffffff" stroke="none" stroke-width="0.5" stroke-linecap="butt"/><path d="M225.80925,191.70964l0.33333,-6l11.33333,4" fill="none" stroke="#000000" stroke-width="3" stroke-linecap="round"/><path d="M273.14258,187.37631l-23,2.33333l-25,-3" fill="none" stroke="#000000" stroke-width="3" stroke-linecap="round"/><path d="M281.80925,246.3763l-15.66667,13.33333l-25.33333,1l-16.33333,-14.66667" fill="none" stroke="#000000" stroke-width="3" stroke-linecap="round"/><path d="M251.47593,265.70963l-2.33334,-2.66666l-3,62.66666l-11,-3.44334l-21.66667,-1" fill="none" stroke="#000000" stroke-width="3" stroke-linecap="round"/><path d="M213.47592,324.04297l14.33333,-73.66667l13,11.55666h8.66667" fill="none" stroke="#000000" stroke-width="3" stroke-linecap="round"/><path d="M227.17122,258.35678c0,0 0.30386,-1.21545 1.26286,-2.06563c-0.31196,-0.21163 -0.77494,-0.68197 -0.45209,-1.4891c0.46424,-1.1606 1.62483,-0.69636 1.62483,-0.69636c1.09074,0.46408 2.05935,1.09924 2.96723,1.82022c0.68929,0.3201 1.14595,0.76427 1.44458,1.24552c0.09802,0.08999 0.19569,0.18049 0.29309,0.27137c2.12331,0.02313 3.18496,2.14643 3.18496,2.14643l0.23514,0.4832c0.03604,0.06529 0.07168,0.13067 0.10693,0.19616c0.20592,-0.03532 0.41824,-0.06395 0.63716,-0.08563c1.63396,-0.16183 3.12806,1.10614 4.49351,2.01802c0.47421,0.31669 0.88972,0.60586 1.25449,0.87719c1.57959,-0.11209 3.46459,-0.41827 4.37489,0.97226c0.40971,0.62585 -0.45236,1.43147 -0.573,2.16971c-0.25356,1.55165 -0.41499,2.80278 -0.78191,4.09259c0.70922,7.71591 0.3777,15.90791 -0.80785,23.65963c0.23056,0.30387 0.47528,0.60048 0.57784,0.96025c0.45274,1.58816 0.04536,4.37761 0.04536,6.00033c0,3.33333 0,6.66667 0,10c0,3.36756 -0.01176,6.84323 -1.4653,9.89235l0.13197,0.44098c0,0 0,1.25 -1.25,1.25c-0.46972,0 -0.76293,-0.17651 -0.94595,-0.39687c-0.25254,0.28026 -0.53538,0.52832 -0.85489,0.73308c-1.39023,0.89093 -3.30167,0.20396 -4.95165,0.14029c-2.15073,-0.083 -4.14812,-1.15139 -6.21,-1.76879c-3.01689,-0.90336 -7.19669,0.66663 -10.37083,0.12563c-1.91767,-0.32685 -4.66826,0.20751 -5.64682,-1.47377c-1.23653,-2.12452 -0.0227,-4.95664 0.50702,-7.35706c0.14808,-0.67101 1.16891,-2.27956 2.02331,-3.67158c-0.00059,-0.40732 0.00428,-0.79392 0.01449,-1.14762c-0.06457,-0.16026 -0.12946,-0.32446 -0.19478,-0.49265c-1.49194,-3.84155 0.8787,-8.14017 2.93357,-11.90502c0.00052,-0.003 0.00104,-0.00599 0.00156,-0.00899c0.32152,-1.85172 1.09521,-3.61731 1.30641,-5.48483c0.27299,-2.41389 0.13656,-4.90427 0.7848,-7.24546c0.2748,-0.99247 0.5754,-1.96834 0.88604,-2.93787c-0.01888,-0.68238 -0.03285,-1.35859 -0.03227,-2.02515c0.00179,-2.03881 -0.28219,-7.76807 1.43168,-8.98498c0.30838,-0.21896 0.60887,-0.41744 0.90165,-0.59635v-0.08533c0,-0.50776 0.10092,-0.99195 0.28378,-1.4336c0.0188,-2.73276 0.17894,-5.44541 0.82818,-8.14257zM246.35302,265.14881c0.05312,-0.07711 0.00947,-0.05421 -0.07916,0.00766c0.01143,0.01981 0.02269,0.03968 0.03376,0.05961c0.01495,-0.02262 0.03009,-0.04504 0.0454,-0.06727z" fill="#0077ff" stroke="none" stroke-width="0.5" stroke-linecap="butt"/><path d="M254.85887,268.71547c-0.38538,-0.48078 -0.677,-1.13796 -0.77668,-2.03506c-0.41412,-3.72706 3.31295,-4.14118 3.31295,-4.14118c2.90803,-0.31788 5.73222,0.20033 8.32119,-1.25115c1.9119,-1.07189 6.70037,-4.69016 8.25259,-3.9213c4.44701,2.2027 3.90206,7.82106 3.92367,11.56619c0.02274,3.94043 -0.43058,8.23292 0.55779,12.10292c0.77527,3.03562 2.20557,5.98774 3.00444,9.01822c0.85242,3.2336 1.05998,6.49351 2.80063,9.40025c1.52907,5.01362 5.94801,10.37935 6.26406,15.60073c0.1151,1.90157 0.45725,4.11485 -0.62803,5.68053c-2.89189,4.17197 -7.16351,1.89272 -10.85794,2.57233c-4.49043,0.82604 -8.58621,3.51011 -12.67252,5.37223l-3.59338,1.63336c-0.49164,0.23676 -1.04285,0.36944 -1.62504,0.36944c-2.07107,0 -3.75,-1.67893 -3.75,-3.75c0,-1.27603 0.63733,-2.40319 1.61103,-3.08055l1.75156,-1.25111c0.0209,-0.13952 0.03684,-0.28026 0.04733,-0.42234c0.2079,-2.81333 -1.06949,-4.11466 -1.66156,-6.80087c-0.83435,-3.78544 0.68715,-8.00764 -0.02152,-11.77604c-0.17545,-0.93298 -0.84332,-1.73035 -1,-2.66667c-0.48956,-2.92568 0.49224,-6.10436 0,-9c-0.60278,-3.54593 -2.34649,-7.21344 -3.26297,-10.6883c-0.96243,-3.64907 -1.08458,-7.3897 -0.95164,-11.12521c0.34726,-0.43333 0.65378,-0.91609 0.95406,-1.40641z" fill="#0077ff" stroke="none" stroke-width="0.5" stroke-linecap="butt"/><path d="M250.80925,263.59963l-6,61.66667l-23.33333,-4.66667l-6.33333,2l13.33333,-69" fill="none" stroke="#000000" stroke-width="3" stroke-linecap="round"/><path d="M274.14258,257.59963l17.66667,65.33333l-15.66667,1.66667l-16,2.66667l-5,-63.33333" fill="none" stroke="#000000" stroke-width="3" stroke-linecap="round"/></g></g></svg>