<svg version="1.1" xmlns="http://www.w3.org/2000/svg" xmlns:xlink="http://www.w3.org/1999/xlink" width="266.94624" height="302.67248" viewBox="0,0,266.94624,302.67248"><g transform="translate(-101.43252,-63.68425)"><g data-paper-data="{&quot;isPaintingLayer&quot;:true}" fill-rule="nonzero" stroke-linejoin="miter" stroke-miterlimit="10" stroke-dasharray="" stroke-dashoffset="0" style="mix-blend-mode: normal"><path d="M201.02806,67.37375c-0.21014,0 -0.40976,-0.04499 -0.58978,-0.12585c0.42635,-0.01607 0.85124,-0.03246 1.27312,-0.04618c-0.20334,0.10974 -0.43607,0.17204 -0.68334,0.17204z" fill="#000000" stroke="none" stroke-width="0.5" stroke-linecap="butt"/><path d="M323.46657,122.2066c-0.08359,0.07218 -0.16299,0.14909 -0.23779,0.2303c-0.45408,-0.94621 -0.92274,-1.88952 -1.40334,-2.82834c0.55138,0.85382 1.10135,1.72096 1.64113,2.59804z" fill="#000000" stroke="none" stroke-width="0.5" stroke-linecap="butt"/><path d="M217.81116,166.61671c1.69775,0.42443 1.27331,2.12219 1.27331,2.12219l-0.23534,0.89965c4.08343,8.13156 9.93955,15.92616 16.25844,22.28878c1.21159,2.40322 2.37405,3.57647 4.22394,5.45946l0.40897,0.19861c0.22419,-0.05892 0.39521,-0.05892 0.39521,-0.05892l-0.00006,0.00001l1.61048,0.64159c0.32132,0.53034 0.81778,0.95478 1.36287,1.27926c1.55117,-1.55316 1.81064,-4.21594 3.36656,-5.97326c1.08855,-1.22944 2.97155,-1.48107 4.20757,-2.56214c0.8679,-0.7591 1.1499,-2.00098 1.79108,-2.9593c1.29812,-2.59624 1.96623,-5.17358 3.27257,-7.7846c1.29265,-2.58365 3.05252,-4.91669 4.50399,-7.36305c0.54196,-0.91344 0.07975,-2.6573 0.31426,-3.45007c0.23793,-0.80433 0.98369,-1.38362 1.27143,-2.17151c0.30592,-0.83766 0.08429,-1.83355 0.48261,-2.63142c0.36292,-0.72696 1.28058,-1.05022 1.70213,-1.74482c0.24592,-0.40522 0.44184,-0.83398 0.60949,-1.27616c-0.3843,-0.37075 -0.79021,-1.03714 -0.3092,-1.99917c0.32765,-0.65529 0.79246,-0.89908 1.22216,-0.96106c0.0709,-0.21794 0.14617,-0.43392 0.22824,-0.64679c0.90145,-2.33826 2.01576,-4.30606 3.12614,-6.53013c0,0 0.64435,-1.2887 1.93305,-0.64435c0.78199,0.391 0.8522,1.01926 0.78652,1.45286l1.46956,1.52729c0.28255,1.13019 1.2651,1.96933 1.72398,3.04012c0.23386,0.54571 -0.10282,1.20621 0.04785,1.78049c0.23921,0.91175 1.26275,1.45218 1.59762,2.3333c0.6131,1.61322 0.70455,3.38827 1.26569,5.02029c1.15973,3.37299 3.03654,6.44429 5.23575,9.21651c0.33109,0.83708 0.78544,1.63538 0.99326,2.51125c0.11106,0.46808 -0.25289,1.00359 -0.05522,1.44219c0.31433,0.69743 1.04745,1.12133 1.49139,1.74433c0.84607,1.18735 1.28374,2.62345 2.05112,3.86312c1.34931,2.17974 3.4206,4.39084 4.30794,6.83462c0.15433,0.42503 -0.31174,0.94271 -0.1182,1.35138c0.15793,0.33347 0.73817,0.22402 0.99141,0.49238c0.59125,0.62655 1.1577,1.44989 1.40197,2.33954c0.26859,-0.462 0.61079,-0.8909 0.91658,-1.32797c0.51023,-0.72928 1.12586,-1.3792 1.66653,-2.0862c0.59856,-0.78268 0.65504,-1.86917 1.13719,-2.72847c0.2865,-0.51062 0.98911,-0.72264 1.22563,-1.25824c0.96234,-2.17921 0.65415,-5.61932 0.65269,-7.92427c0,-6.3121 0,-12.6242 0,-18.9363c0,-2.92644 0.30133,-6.02427 0.00491,-8.93765c-0.20466,-2.01152 -0.15646,-4.12675 -0.40577,-6.11767c-0.29922,-2.38946 -2.00431,-4.14583 -2.05263,-6.54883c-0.00027,-0.01324 -0.00051,-0.02649 -0.00072,-0.03973l-0.00539,0.00077l-0.40401,-2.82811c-0.01184,-0.07436 -0.01799,-0.15061 -0.01799,-0.2283c0,-0.79574 0.64507,-1.44081 1.44081,-1.44081c0.39787,0 0.75807,0.16127 1.0188,0.422l1.64663,1.64663l-0.03843,0.03843l0.15399,0.09202c1.40311,2.32311 3.64354,3.71976 5.05934,5.94168c0.28663,0.44982 0.05273,1.12228 0.35818,1.55954c0.78143,1.11862 2.14689,1.69491 3.11176,2.65978c2.15151,2.15151 3.99335,4.5545 6.41019,6.4365c1.01806,0.79277 2.24883,1.27929 3.28299,2.05095c1.92561,1.28335 3.50846,2.76628 5.33386,4.10426c0.5261,0.38562 1.21993,0.47037 1.79752,0.77346c0.04483,0.02353 0.0963,0.05669 0.15192,0.09673c-1.30959,-1.99272 -0.21574,-5.15455 -0.62885,-7.47841c-0.50089,-2.81767 -1.88156,-4.87679 -2.70027,-7.46169c-0.27056,-0.85425 0.14602,-3.34374 -0.01374,-4.17016c-0.39768,-2.05726 -2.3811,-4.06782 -3.22214,-5.95453c-0.91604,-2.05497 -1.70241,-3.62539 -2.11468,-5.92636c-2.05097,-5.07515 -4.87664,-9.74601 -6.96751,-14.75321c-1.68529,-4.03595 -2.45098,-8.4658 -3.81908,-12.59484c-0.15967,-0.48189 -0.33366,-0.96387 -0.52011,-1.44539c1.07718,-0.02465 2.00833,-0.64039 2.48176,-1.53554c0.28414,0.69672 0.54595,1.39562 0.78061,2.09566c1.31594,3.9258 2.03943,8.13829 3.58513,12.00075c0.05266,-0.00451 0.0835,-0.00451 0.0835,-0.00451h1.23498c3.44672,0 7.13703,0.3728 10.56115,0.00701c1.10855,-0.11842 2.11809,-0.70758 3.19648,-0.98949c-1.2983,-0.52517 -2.12853,-1.78305 -2.95747,-2.86785c-2.53475,-3.15766 -5.54267,-6.46048 -8.80886,-8.90658c-0.80097,-0.59986 -1.78497,-0.94458 -2.5376,-1.60407c-1.62116,-1.42055 -2.94943,-3.59366 -4.56457,-4.97337c-1.12417,-0.9603 -2.30506,-1.94051 -3.51955,-2.91289c0.03518,0.42827 0.13346,0.72309 0.13346,0.72309c0.16099,0.4726 0.30577,0.95195 0.44719,1.43271c-0.23603,-0.25671 -0.47485,-0.51209 -0.71617,-0.76619c-0.35203,-0.42081 -0.73364,-0.80767 -1.18812,-1.11096c-0.01696,-0.01132 -0.03399,-0.02247 -0.05111,-0.03347c0.01375,-0.04761 0.02687,-0.0963 0.03932,-0.1461c0.69889,-2.79557 -2.09668,-3.49447 -2.09668,-3.49447l-0.61656,0.07863c-0.73204,-0.3928 -1.6201,-0.99334 -2.54027,-1.44908c-0.21682,-0.19292 -0.43375,-0.38516 -0.65066,-0.57674c-0.31642,-0.21104 -0.63214,-0.41819 -0.9468,-0.62103c-2.35774,-1.51988 -4.57283,-2.38147 -6.76207,-4.24538c0,0 -1.01896,-0.8734 -0.24711,-1.91774c-4.11445,-3.13478 -8.78286,-5.88296 -13.40933,-7.51351c-2.61669,-0.92223 -5.16558,-2.52963 -7.83506,-3.25458c-4.04418,-1.09828 -8.6814,-0.84213 -12.83108,-1.63053c-0.73,-0.13869 -1.42091,-0.41032 -2.11248,-0.67943c-6.49071,0.0622 -12.97856,0.16221 -19.44368,0.16221c-1.75715,0 -3.53664,-0.29598 -5.27142,-0.01649c-1.49769,0.24129 -2.82185,1.07467 -4.30804,1.35703c-4.14968,0.7884 -8.7869,0.53225 -12.83108,1.63053c-2.66948,0.72495 -5.21837,2.33235 -7.83506,3.25458c-4.62647,1.63055 -9.29488,4.37873 -13.40933,7.51351c0.77186,1.04435 -0.24711,1.91774 -0.24711,1.91774c-2.18924,1.86392 -4.40434,2.72551 -6.76207,4.24538c-0.31466,0.20284 -0.63038,0.41 -0.9468,0.62103c-0.2169,0.19158 -0.43384,0.38382 -0.65066,0.57674c-0.92017,0.45573 -1.80824,1.05628 -2.54027,1.44908l-0.61656,-0.07863c0,0 -2.79557,0.69889 -2.09668,3.49447c0.01245,0.0498 0.02557,0.09849 0.03932,0.1461c-0.01711,0.011 -0.03415,0.02216 -0.05111,0.03347c-0.45448,0.30328 -0.83609,0.69015 -1.18812,1.11096c-0.24133,0.2541 -0.48015,0.50949 -0.71617,0.76619c0.14142,-0.48076 0.28621,-0.96011 0.44719,-1.43271c0,0 0.09827,-0.29482 0.13346,-0.72309c-1.21449,0.97239 -2.39538,1.95259 -3.51955,2.91289c-1.61514,1.37971 -2.9434,3.55282 -4.56457,4.97337c-0.75263,0.65949 -1.73663,1.00421 -2.5376,1.60407c-3.26619,2.44611 -6.27411,5.74893 -8.80886,8.90658c-0.82894,1.0848 -1.65917,2.34269 -2.95747,2.86785c1.07838,0.2819 2.08792,0.87107 3.19648,0.98949c3.42412,0.36579 7.11443,-0.00701 10.56115,-0.00701h1.23498c0,0 0.03084,0 0.0835,0.00451c1.5457,-3.86246 2.26919,-8.07496 3.58513,-12.00075c0.23465,-0.70003 0.49646,-1.39894 0.78061,-2.09566c0.47342,0.89515 1.40458,1.51089 2.48176,1.53554c-0.18645,0.48153 -0.36044,0.9635 -0.52011,1.44539c-1.3681,4.12903 -2.13379,8.55889 -3.81908,12.59484c-2.09086,5.00721 -4.91654,9.67806 -6.96751,14.75321c-0.41227,2.30097 -1.19864,3.87139 -2.11468,5.92636c-0.84104,1.88672 -2.82446,3.89728 -3.22214,5.95453c-0.15975,0.82642 0.25683,3.31591 -0.01374,4.17016c-0.8187,2.5849 -2.19937,4.64402 -2.70027,7.46169c-0.41311,2.32386 0.68074,5.48569 -0.62885,7.47841c0.05562,-0.04005 0.10709,-0.07321 0.15192,-0.09673c0.5776,-0.30309 1.27142,-0.38784 1.79752,-0.77346c1.8254,-1.33798 3.40825,-2.82091 5.33386,-4.10426c1.03415,-0.77166 2.26493,-1.25818 3.28299,-2.05095c2.41684,-1.882 4.25867,-4.28498 6.41019,-6.4365c0.96487,-0.96487 2.33033,-1.54116 3.11176,-2.65978c0.30545,-0.43726 0.07155,-1.10972 0.35818,-1.55954c1.4158,-2.22192 3.65622,-3.61857 5.05934,-5.94168l0.15399,-0.09202l-0.03843,-0.03843l1.64663,-1.64663c0.26074,-0.26074 0.62093,-0.422 1.0188,-0.422c0.79574,0 1.44081,0.64507 1.44081,1.44081c0,0.07769 -0.00615,0.15394 -0.01799,0.2283l-0.40401,2.82811l-0.00539,-0.00077c-0.00022,0.01324 -0.00046,0.02648 -0.00072,0.03973c-0.04832,2.403 -1.75341,4.15936 -2.05263,6.54883c-0.24931,1.99093 -0.20111,4.10615 -0.40577,6.11767c-0.29642,2.91338 0.00491,6.01121 0.00491,8.93765c0,6.3121 0,12.6242 0,18.9363c-0.00147,2.30495 -0.30965,5.74506 0.65269,7.92427c0.23652,0.5356 0.93913,0.74763 1.22563,1.25824c0.48215,0.8593 0.53863,1.94579 1.13719,2.72847c0.54068,0.70699 1.15631,1.35692 1.66653,2.0862c0.30579,0.43707 0.64799,0.86596 0.91658,1.32797c0.24427,-0.88966 0.81071,-1.71299 1.40197,-2.33954c0.25324,-0.26836 0.83347,-0.15891 0.99141,-0.49238c0.19354,-0.40867 -0.27253,-0.92635 -0.1182,-1.35138c0.88734,-2.44378 2.95863,-4.65488 4.30794,-6.83462c0.76739,-1.23966 1.20505,-2.67577 2.05112,-3.86312c0.44394,-0.623 1.17706,-1.0469 1.49139,-1.74433c0.19767,-0.43859 -0.16628,-0.9741 -0.05522,-1.44219c0.20782,-0.87586 0.66217,-1.67416 0.99326,-2.51125c2.19921,-2.77222 4.07602,-5.84352 5.23575,-9.21651c0.56114,-1.63202 0.65259,-3.40708 1.26569,-5.02029c0.33487,-0.88113 1.3584,-1.42155 1.59762,-2.3333c0.15067,-0.57427 -0.18601,-1.23477 0.04785,-1.78049c0.45888,-1.07079 1.44143,-1.90994 1.72398,-3.04012l1.88162,-1.95555c0,0 1.01881,-1.0188 2.03761,0c0.47494,0.47494 0.50707,0.94987 0.40603,1.3216c0.19581,0.21913 0.28756,0.43323 0.28756,0.43323c1.0107,2.37171 2.23909,5.19725 2.95956,7.64639c0.46308,1.57415 0.60816,3.08519 0.95019,4.61254c0.00749,0.0018 0.01499,0.00364 0.02253,0.00553zM214.84281,177.78518c-0.6628,0.97591 -1.92174,1.47593 -2.50203,2.50305c-0.85395,1.51152 -0.59027,3.50674 -1.49309,4.98958c-0.66632,1.09441 -1.54743,2.15598 -1.7536,3.42057c-0.40278,1.45827 -1.40997,2.67873 -2.18452,3.9783c-1.46361,2.45569 -0.77285,6.46511 -0.77285,9.13778c0,1.53272 -0.3491,3.09531 -0.04682,4.59793c0.53136,2.64132 3.28709,3.71998 5.2298,4.92152c2.432,1.50415 4.83163,2.17237 7.31377,3.39788c0.73028,0.36056 1.18832,1.1874 1.95265,1.46865c4.42,1.62644 10.18107,0.86402 14.80059,0.86402c6,0 12,0 18,0c2.86684,0 6.84921,0.3868 9.53286,-0.43651c0.86242,-0.26458 1.47258,-1.06509 2.29744,-1.43028c0.10562,-0.04676 4.31388,-1.10832 4.45588,-1.1201c0.43763,-0.03633 0.93164,0.49662 1.29379,0.24825c0.41097,-0.28185 0.18346,-0.99911 0.43139,-1.43139c0.46123,-0.80419 1.06629,-1.52011 1.6666,-2.22658c0.82292,-0.96845 2.42617,-1.51227 2.62186,-2.76797c0.23704,-1.52106 -0.54553,-3.04601 -0.54981,-4.58542c0.05906,-1.4258 -1.00471,-2.67274 -1.4365,-4.03287c-0.80595,-2.53867 0.45057,-5.76441 -0.44407,-8.33172c-0.28338,-0.81321 -1.2456,-1.26903 -1.52963,-2.08201c-0.66557,-1.9051 -0.09303,-4.03537 -0.0898,-6.05339c0.00232,-1.45179 -0.36185,-2.88156 -0.49149,-4.32756c-0.15686,-1.74982 0.42606,-3.55686 0.0383,-5.27038c-0.51799,-2.28895 -2.2043,-4.5842 -2.95209,-6.83413c-0.55428,-1.66771 -0.58701,-2.51227 -1.17287,-3.21394c-0.17578,0.40122 -0.36891,0.78775 -0.58613,1.15366c-0.37779,0.63639 -1.25971,0.88673 -1.59114,1.54844c-0.34834,0.69547 -0.07603,1.57707 -0.3407,2.30848c-0.25914,0.71612 -0.97642,1.21662 -1.19852,1.94507c-0.38812,1.27294 0.11261,2.78313 -0.50906,3.95979c-1.32834,2.51424 -3.2372,4.8719 -4.5525,7.45666c-1.31728,2.58866 -2.00924,5.24897 -3.31398,7.85843c-0.79483,1.19625 -1.25796,2.66646 -2.3255,3.62724c-1.2609,1.1348 -2.91868,1.09153 -4.0256,2.37776c-1.84257,2.14106 -1.78586,4.97343 -4.16772,6.64038l-0.6433,1.01539c0,0 -0.79921,1.19882 -1.99803,0.39961c-0.8981,-0.59874 -0.67484,-1.42175 -0.50632,-1.79696c-0.36268,-0.25282 -0.70865,-0.53128 -1.02807,-0.83473l-0.00003,0.00001c-0.42834,0.01613 -0.78069,-0.16004 -0.78069,-0.16004l-1.84474,-0.94317c-2.07463,-2.04469 -3.55201,-3.48631 -4.87392,-6.10835c-5.9084,-5.85588 -11.36417,-13.11459 -15.41734,-20.61208c-0.79637,1.58489 -1.44881,3.21502 -2.51247,4.78114zM271.542,165.24651c0.78652,2.35285 2.51841,4.75028 3.04791,7.16587c0.54093,2.46769 0.26029,5.67521 0.5383,8.22962c0.22843,2.09886 -0.84279,5.26317 -0.08128,7.11905c0.30581,0.74528 1.21973,1.15238 1.47037,1.91798c0.86388,2.63881 -0.31785,6.18943 0.55593,8.66828c0.57705,1.63707 1.51884,3.23191 1.5635,4.96714c-0.00582,1.81108 0.84948,3.64805 0.45018,5.41457c-0.48233,2.13386 -3.50335,4.19776 -4.71154,6.00546c-0.55746,0.83409 -0.73089,2.0166 -1.56861,2.5686c-1.23699,0.8151 -4.66738,0.42187 -6.25034,1.12815c-0.95138,0.42449 -1.70321,1.2754 -2.70256,1.56972c-3.04335,0.89629 -7.26227,0.5635 -10.46714,0.5635c-6,0 -12,0 -18,0c-5.16106,0 -11.18026,0.65542 -16.12906,-1.12593c-0.82149,-0.2957 -1.33686,-1.15081 -2.11771,-1.5414c-2.55489,-1.27799 -5.17172,-2.03189 -7.68622,-3.60212c-2.88443,-1.80124 -5.90096,-3.39303 -6.7702,-7.07848c-0.06026,-0.25547 -0.04682,-4.9319 -0.04682,-5.40206c0,-3.42381 -0.52165,-7.69593 1.22715,-10.86223c0.56811,-1.02859 1.57694,-1.87112 1.81548,-3.0217c0.37458,-1.65847 1.32578,-3.14999 2.24639,-4.57943c0.94432,-1.46626 0.63684,-3.49891 1.50692,-5.01041c0.35448,-0.61579 1.2141,-0.76136 1.71662,-1.26367c0.86443,-0.86408 2.16517,-2.84376 2.63704,-3.97053c0.4903,-1.17078 0.79592,-2.44388 1.5,-3.5l0.16546,-0.70534c-0.64613,-2.08664 -0.78106,-4.16509 -1.41793,-6.24045c-0.61259,-1.99619 -1.52835,-4.20221 -2.3918,-6.21629c-0.71691,2.3297 -2.22248,3.98438 -3.08557,6.37082c-0.56758,1.56935 -0.66095,3.2816 -1.20426,4.85951c-1.21563,3.53047 -3.13587,6.83164 -5.46738,9.71979c-0.44336,1.08934 -0.23518,2.37981 -0.7086,3.45642c-0.39971,0.909 -1.24248,1.55182 -1.80188,2.37225c-1.67251,2.45299 -3.09351,5.22631 -4.66116,7.77092c-0.43667,0.70881 -1.04968,1.3302 -1.32953,2.11427c-0.21799,0.61076 0.17904,1.36553 -0.1182,1.94189c-0.28658,0.5557 -1.05437,0.6949 -1.47855,1.15425c-1.2579,1.36222 -1.28092,3.95165 -3.44711,4.54575c-1.10099,0.30196 -2.90071,-3.35366 -3.29084,-3.91069c-0.58734,-0.83861 -2.12736,-2.44612 -2.60464,-3.53292c-0.2108,-0.48001 -0.0968,-1.07587 -0.35485,-1.53222c-0.30225,-0.53451 -1.03027,-0.77039 -1.26749,-1.33677c-1.14185,-2.72624 -0.96903,-6.35437 -0.97078,-9.24033c0,-10.1605 -0.51449,-20.48837 0.41657,-30.58157c0.24178,-2.62098 0.32236,-5.33891 1.08327,-7.80193c-0.92561,0.9108 -1.85574,1.79642 -2.51017,2.86743c-0.31198,0.51057 -0.11349,1.24961 -0.46513,1.73372c-0.91266,1.25649 -2.37666,2.00532 -3.47478,3.10344c-2.25993,2.25993 -4.21356,4.76196 -6.76289,6.73658c-1.02675,0.79529 -2.26665,1.28362 -3.30355,2.06564c-1.06557,0.71057 -2.25838,1.23618 -3.25778,2.03715c-1.46013,1.17023 -2.78308,2.77712 -4.60262,3.21379c-1.35378,0.32489 -2.96822,1.20785 -4.14992,0.47175c-0.95154,-0.59273 -0.63558,-2.22902 -0.44444,-3.33366c0.09926,-0.57365 1.01394,-0.69639 1.23498,-1.23498c0.56281,-1.37133 -0.15777,-2.96415 -0.10854,-4.44566c0.08659,-2.60593 0.74412,-5.54097 1.76835,-7.93488c0.28781,-0.6727 0.91893,-1.17147 1.16441,-1.86074c0.45438,-1.27585 -0.28557,-2.73623 -0.01374,-4.06302c0.88882,-4.3382 4.69856,-7.60829 5.36631,-11.9953c1.72297,-4.34416 4.02237,-8.38414 5.97437,-12.57901h-0.05862c-4.17458,0 -9.13426,0.73993 -13.17197,-0.47139c-0.82463,-0.24739 -4.36475,-1.49833 -4.31651,-2.88574c0.05013,-1.44173 3.47518,-3.8632 4.41244,-5.1423c2.70088,-3.35487 5.88473,-6.84223 9.35682,-9.44516c0.73644,-0.55209 1.65761,-0.84356 2.34961,-1.45043c1.60331,-1.40609 2.89114,-3.53032 4.49192,-4.90644c3.0331,-2.6074 6.53503,-5.0213 9.76261,-7.43742c0.10061,-0.07531 0.20162,-0.14955 0.30301,-0.22281c1.53424,-1.35671 3.07052,-2.67756 4.54756,-3.96811c5.2243,-4.74022 11.89111,-9.20628 18.51669,-11.54801c2.69674,-0.95313 5.32378,-2.59568 8.08241,-3.33196c0.06344,-0.01693 0.127,-0.03355 0.19069,-0.04986c1.00833,0.05732 2.05052,0.17405 2.95963,-0.03906c0.57862,-0.13564 1.10381,-0.43201 1.63533,-0.71043c1.6056,-0.1601 3.23415,-0.25976 4.83754,-0.41408c-1.31054,-0.00512 -2.62094,-0.00695 -3.93104,-0.00436c0.11151,-0.04056 0.22461,-0.07641 0.33978,-0.10612c1.85288,-0.47789 4.2784,-0.19049 6.21142,-0.36006c2.02206,-0.17738 3.95924,-0.90539 5.95863,-1.25558c0.33543,-0.05875 0.68129,-0.09873 1.0345,-0.12434c0.80254,-0.05818 1.64307,-0.04214 2.48562,-0.00335c0.00001,0 0.00001,0 0.00002,0c1.19333,0.05495 2.39073,0.15554 3.49003,0.15554c6.20361,0 12.40721,0 18.61082,0c1.89235,0 3.78469,0 5.67704,0c1.14538,0 2.29076,0 3.43614,0c1.09007,0.13908 2.23303,0.40367 3.6033,0.97609c0.59139,0.24705 1.08139,0.68286 1.59458,1.07667c0.30519,0.2342 0.61857,0.45354 0.96635,0.6095c1.39961,0.62764 2.89838,1.08543 4.40284,1.55656c0.94674,0.43973 1.89328,0.86387 2.84857,1.20151c0.77202,0.27286 1.54461,0.57457 2.31541,0.90219c0.67689,0.51675 1.32615,1.14018 2.11318,1.03676c0.03861,-0.00507 0.07711,-0.01055 0.11549,-0.01642c5.06159,2.48069 9.94564,5.97163 13.97261,9.62547c1.47704,1.29056 3.01332,2.61141 4.54756,3.96811c0.10139,0.07325 0.2024,0.1475 0.30301,0.22281c3.22758,2.41611 6.72951,4.83002 9.76261,7.43742c1.60078,1.37612 2.88861,3.50035 4.49192,4.90644c0.692,0.60688 1.61316,0.89834 2.34961,1.45043c3.47209,2.60293 6.65594,6.0903 9.35682,9.44516c0.93726,1.27911 4.36231,3.70057 4.41244,5.1423c0.04824,1.3874 -3.49188,2.63834 -4.31651,2.88574c-4.03771,1.21132 -8.99739,0.47139 -13.17197,0.47139h-0.05862c1.95201,4.19488 4.2514,8.23486 5.97437,12.57901c0.66776,4.387 4.4775,7.6571 5.36631,11.9953c0.27183,1.32678 -0.46811,2.78717 -0.01374,4.06302c0.24548,0.68927 0.8766,1.18804 1.16441,1.86074c1.02423,2.39391 1.68176,5.32895 1.76835,7.93488c0.04923,1.48151 -0.67135,3.07433 -0.10854,4.44566c0.22104,0.53858 1.13571,0.66133 1.23498,1.23498c0.19114,1.10464 0.5071,2.74093 -0.44444,3.33366c-1.1817,0.7361 -2.79615,-0.14686 -4.14992,-0.47175c-1.81954,-0.43667 -3.14249,-2.04356 -4.60262,-3.21379c-0.9994,-0.80097 -2.19221,-1.32657 -3.25778,-2.03715c-1.0369,-0.78202 -2.2768,-1.27035 -3.30355,-2.06564c-2.54932,-1.97462 -4.50296,-4.47665 -6.76289,-6.73658c-1.09812,-1.09812 -2.56212,-1.84695 -3.47478,-3.10344c-0.35164,-0.48411 -0.15315,-1.22315 -0.46513,-1.73372c-0.65443,-1.07101 -1.58456,-1.95663 -2.51017,-2.86743c0.76091,2.46302 0.84149,5.18095 1.08327,7.80193c0.93106,10.0932 0.41657,20.42108 0.41657,30.58157c-0.00175,2.88596 0.17107,6.51409 -0.97078,9.24033c-0.23722,0.56638 -0.96524,0.80226 -1.26749,1.33677c-0.25806,0.45635 -0.14405,1.05221 -0.35485,1.53222c-0.47729,1.0868 -2.0173,2.69431 -2.60464,3.53292c-0.39013,0.55703 -2.18985,4.21265 -3.29084,3.91069c-2.16618,-0.5941 -2.1892,-3.18353 -3.44711,-4.54575c-0.42418,-0.45935 -1.19196,-0.59856 -1.47855,-1.15425c-0.29724,-0.57636 0.09979,-1.33113 -0.1182,-1.94189c-0.27985,-0.78407 -0.89286,-1.40547 -1.32953,-2.11427c-1.56765,-2.5446 -2.98865,-5.31793 -4.66116,-7.77092c-0.55939,-0.82044 -1.40217,-1.46326 -1.80188,-2.37225c-0.47341,-1.07661 -0.26524,-2.36709 -0.7086,-3.45642c-2.33151,-2.88814 -4.25175,-6.18932 -5.46738,-9.71979c-0.54332,-1.57792 -0.63668,-3.29016 -1.20426,-4.85951c-0.92019,-2.54433 -2.57068,-4.25685 -3.21709,-6.84248l-0.32736,-0.31021c-0.29343,0.50074 -0.57835,1.00582 -0.82616,1.53009c-0.48389,1.02372 -0.83705,2.16761 -1.18358,3.32197c1.94603,1.3764 2.37426,2.78738 3.29953,5.55525z" fill="#000000" stroke="none" stroke-width="0.5" stroke-linecap="butt"/><path d="M217.39562,173.03359c4.05317,7.49749 9.51466,14.7072 15.42307,20.56309c1.32191,2.62204 2.76917,4.03572 4.84381,6.08041l1.83523,0.94098c0,0 0.34862,0.17583 0.77696,0.1597l0.00003,-0.00001c0.31942,0.30345 0.66071,0.58187 1.02339,0.83469c-0.16852,0.37521 -0.39342,1.19831 0.50468,1.79705c1.19882,0.79921 1.99043,-0.39847 1.99043,-0.39847l0.63996,-1.0145c2.38186,-1.66695 2.29814,-4.47929 4.14071,-6.62035c1.10692,-1.28623 2.75762,-1.22678 4.01852,-2.36158c1.06754,-0.96078 1.52938,-2.41651 2.32421,-3.61275c1.30474,-2.60946 2.00185,-5.25037 3.31913,-7.83903c1.3153,-2.58476 3.22861,-4.9351 4.55696,-7.44934c0.62167,-1.17666 0.12396,-2.68312 0.51208,-3.95606c0.2221,-0.72845 0.94006,-1.22821 1.1992,-1.94432c0.26467,-0.73141 -0.00616,-1.61148 0.34218,-2.30695c0.33143,-0.66171 1.21331,-0.91209 1.5911,-1.54848c0.21722,-0.36591 0.48032,-0.82388 0.6561,-1.22509c0.58587,0.70166 0.62151,1.54931 1.17579,3.21702c0.74779,2.24993 2.44002,4.55357 2.958,6.84252c0.38777,1.71351 -0.19216,3.52694 -0.03529,5.27676c0.12963,1.446 0.49579,2.88214 0.49347,4.33393c-0.00322,2.01802 -0.57443,4.1578 0.09114,6.0629c0.28402,0.81298 1.24627,1.27212 1.52965,2.08533c0.89464,2.56731 -0.36366,5.80522 0.44228,8.34389c0.4318,1.36013 1.49407,2.61161 1.43501,4.03741c0.00428,1.53941 0.78473,3.06914 0.54769,4.5902c-0.19569,1.25571 -1.80131,1.8037 -2.62423,2.77214c-0.60031,0.70647 -1.20743,1.42539 -1.66866,2.22958c-0.24793,0.43228 -0.02153,1.15099 -0.4325,1.43283c-0.36215,0.24837 -0.85668,-0.28394 -1.29431,-0.24761c-0.142,0.01179 -4.35386,1.07725 -4.45948,1.12401c-0.82486,0.3652 -1.43787,1.16828 -2.30029,1.43286c-2.68365,0.82331 -6.67693,0.44343 -9.54377,0.44343c-6,0 -12.03111,0.00369 -18.03111,0.00369c-4.61952,0 -10.40137,0.75287 -14.82137,-0.87357c-0.76433,-0.28125 -1.2252,-1.11047 -1.95547,-1.47103c-2.48215,-1.22552 -4.88887,-1.90169 -7.32087,-3.40584c-1.94271,-1.20154 -4.70309,-2.28816 -5.23445,-4.92948c-0.30229,-1.50262 0.04471,-3.07047 0.04471,-4.6032c0,-2.67267 -0.69321,-6.69432 0.7704,-9.15001c0.77454,-1.29956 1.78166,-2.52603 2.18444,-3.9843c0.20618,-1.26459 1.08789,-2.3319 1.75421,-3.42631c0.90282,-1.48284 0.64125,-3.48639 1.4952,-4.99791c0.58029,-1.02712 1.84133,-1.53225 2.50413,-2.50816c1.06366,-1.56611 1.80156,-3.14516 2.59793,-4.73005z" data-paper-data="{&quot;noHover&quot;:false,&quot;origItem&quot;:[&quot;Path&quot;,{&quot;applyMatrix&quot;:true,&quot;segments&quot;:[[[429.68561,355.57036],[2.12731,-3.13223],[-1.32561,1.95182]],[[424.68155,360.57645],[1.16057,-2.05424],[-1.7079,3.02304]],[[421.69538,370.55562],[1.80564,-2.96569],[-1.33264,2.18882]],[[418.18817,377.39676],[0.41236,-2.52919],[-0.80556,2.91653]],[[413.81914,385.35335],[1.54909,-2.59912],[-2.92722,4.91139]],[[412.27344,403.62891],[0,-5.34535],[0,3.06545]],[[412.17981,412.82477],[-0.60457,-3.00524],[1.06272,5.28265]],[[422.63942,422.66781],[-3.88543,-2.40307],[4.864,3.0083]],[[437.26696,429.46357],[-4.96429,-2.45103],[1.46055,0.72112]],[[441.17226,432.40088],[-1.52867,-0.56251],[8.83999,3.25289]],[[470.77344,434.12891],[-9.23903,0],[12,0]],[[506.77344,434.12891],[-12,0],[5.73368,0]],[[525.83917,433.2559],[-5.3673,1.64661],[1.72484,-0.52916]],[[530.43405,430.39533],[-1.64973,0.7304],[0.21123,-0.09352]],[[539.3458,428.15513],[-0.284,0.02357],[0.87525,-0.07265]],[[541.93338,428.65163],[-0.7243,0.49673],[0.82194,-0.56369]],[[542.79616,425.78885],[-0.49585,0.86455],[0.92247,-1.60838]],[[546.12935,421.3357],[-1.20062,1.41293],[1.64585,-1.9369]],[[551.37307,415.79975],[-0.39137,2.51141],[0.47408,-3.04213]],[[550.27344,406.62891],[0.00856,3.07883],[0.11813,-2.8516]],[[547.40044,398.56317],[0.86359,2.72025],[-1.61189,-5.07734]],[[546.5123,381.89973],[1.78928,5.13462],[-0.56676,-1.62642]],[[543.45305,377.7357],[0.56805,1.62597],[-1.33114,-3.81021]],[[543.27344,365.62891],[-0.00645,4.03604],[0.00464,-2.90358]],[[542.29047,356.97379],[0.25926,2.89199],[-0.31373,-3.49964]],[[542.36707,346.43304],[0.77553,3.42702],[-1.03597,-4.57791]],[[536.46288,332.76478],[1.49558,4.49987],[-1.10856,-3.33543]],[[534.11714,326.3369],[1.17173,1.40333],[-0.35156,0.80243]],[[532.94488,328.64422],[0.43444,-0.73182],[-0.75558,1.27278]],[[529.7626,331.7411],[0.66286,-1.32342],[-0.69668,1.39094]],[[529.0812,336.35806],[0.52934,-1.46282],[-0.51828,1.43224]],[[526.68416,340.2482],[0.4442,-1.4569],[-0.77624,2.54588]],[[525.66604,348.16778],[1.24334,-2.35332],[-2.65668,5.02848]],[[516.56104,363.0811],[2.6306,-5.16952],[-2.63456,5.17732]],[[509.93308,378.79796],[2.60948,-5.21892],[-1.58966,2.3925]],[[505.28208,386.05244],[2.13508,-1.92156],[-2.5218,2.2696]],[[497.23088,390.80796],[2.21384,-2.57246],[-3.68514,4.28212]],[[488.89544,404.08872],[4.76372,-3.3339],[0,0]],[487.60884,406.1195],[[483.61278,406.91872],[2.39764,1.59842],[-1.7962,-1.19748]],[[482.60014,403.3248],[-0.33704,0.75042],[-0.72536,-0.50564]],[[480.544,401.65534],[0.63884,0.6069],[0,0]],[[480.54394,401.65536],[0,0],[-0.85668,0.03226]],[478.98256,401.33528],[[475.29308,399.44894],[0,0],[-4.14926,-4.08938]],[[465.54524,387.23224],[2.64382,5.24408],[-11.81681,-11.71176]],[[434.71055,346.00809],[8.10634,14.99497],[-1.59274,3.16978]]],&quot;closed&quot;:true}]}" fill="#ea0000" stroke="none" stroke-width="0.5" stroke-linecap="butt"/><path d="M239.73951,197.62656l-0.40924,-0.19862c-1.84989,-1.88299 -3.01539,-3.05643 -4.22698,-5.45966c-6.35194,-6.39589 -12.25354,-14.24463 -16.33964,-22.42223c-1.28142,-2.56454 -1.19945,-4.95869 -1.95171,-7.51585c-0.72048,-2.44914 -1.95482,-5.28083 -2.96552,-7.65254c0,0 -0.09213,-0.21458 -0.28793,-0.43371c0.10104,-0.37173 0.06799,-0.84793 -0.40695,-1.32286c-1.0188,-1.0188 -1.96947,-0.0462 -1.96947,-0.0462l-1.88198,1.95501c-0.28255,1.13019 -1.26598,1.96808 -1.72486,3.03887c-0.23386,0.54571 0.102,1.20513 -0.04867,1.77941c-0.23921,0.91175 -1.26322,1.45157 -1.5981,2.3327c-0.6131,1.61322 -0.70623,3.38634 -1.26737,5.01836c-1.15973,3.37299 -3.03808,6.44271 -5.23729,9.21493c-0.33109,0.83708 -0.78593,1.63491 -0.99375,2.51077c-0.11106,0.46808 0.2524,1.00314 0.05473,1.44174c-0.31433,0.69743 -1.04749,1.1213 -1.49142,1.7443c-0.84607,1.18735 -1.28421,2.62303 -2.0516,3.8627c-1.34931,2.17974 -3.42111,4.3904 -4.30845,6.83418c-0.15433,0.42503 0.31136,0.94239 0.11782,1.35106c-0.15793,0.33347 -0.79094,0.28721 -1.04418,0.55557c-0.59125,0.62655 -1.15753,1.45002 -1.4018,2.33968c-0.26859,-0.462 -0.61139,-0.8914 -0.91718,-1.32847c-0.51023,-0.72928 -1.12685,-1.38008 -1.66752,-2.08708c-0.59856,-0.78268 -0.65604,-1.87012 -1.13818,-2.72942c-0.2865,-0.51062 -0.98974,-0.72328 -1.22626,-1.25888c-0.96234,-2.17921 -0.65638,-5.6218 -0.65492,-7.92675c0,-6.3121 -0.00505,-12.63195 -0.00505,-18.94405c0,-2.92644 -0.3034,-6.02918 -0.00698,-8.94256c0.20466,-2.01152 0.15535,-4.13048 0.40466,-6.1214c0.29922,-2.38946 2.00351,-4.15003 2.05183,-6.55303c0.00027,-0.01324 0.0005,-0.02651 0.00072,-0.03975l0.00539,0.00077l0.40379,-2.83012c0.01184,-0.07436 0.01797,-0.15078 0.01797,-0.22847c0,-0.79574 -0.64514,-1.44192 -1.44088,-1.44192c-0.39787,0 -0.67588,0.15643 -0.93661,0.41716l-1.64671,1.64558l0.03843,0.0384l-0.15399,0.09197c-1.40311,2.32311 -3.64399,3.71638 -5.05979,5.93829c-0.28663,0.44982 -0.0529,1.12138 -0.35835,1.55864c-0.78143,1.11862 -2.14713,1.69376 -3.112,2.65863c-2.15151,2.15151 -3.994,4.55202 -6.41083,6.43401c-1.01806,0.79277 -2.24899,1.27879 -3.28314,2.05045c-1.92561,1.28335 -3.5088,2.76523 -5.3342,4.10321c-0.5261,0.38562 -1.21995,0.4703 -1.79755,0.77339c-0.04483,0.02353 -0.17426,0.08317 -0.22988,0.12322c1.30959,-1.99272 0.21482,-5.15766 0.62793,-7.48152c0.50089,-2.81767 1.88089,-4.87997 2.69959,-7.46488c0.27056,-0.85425 -0.14631,-3.34577 0.01344,-4.17219c0.39768,-2.05726 2.38085,-4.07069 3.22189,-5.95741c0.91604,-2.05497 1.70237,-3.62852 2.11464,-5.92949c2.05097,-5.07515 4.87777,-9.75456 6.96864,-14.76177c1.68529,-4.03595 2.45341,-8.47294 3.82151,-12.60197c0.15967,-0.48189 0.33403,-0.96466 0.52048,-1.44619c-1.07718,-0.02465 -1.93394,-0.60512 -2.40737,-1.50027c-0.28414,0.69672 -0.54544,1.39451 -0.7801,2.09454c-1.31594,3.9258 -2.03718,8.13177 -3.58289,11.99423c-0.05266,-0.00451 -0.0835,-0.00452 -0.0835,-0.00452l-1.23493,-0.00016c-3.44672,0 -7.13676,0.37161 -10.56087,0.00582c-1.10855,-0.11842 -2.19852,-0.72516 -3.27691,-1.00707c1.2983,-0.52517 2.12891,-1.78463 2.95785,-2.86943c2.53475,-3.15766 5.54441,-6.46567 8.8106,-8.91178c0.80097,-0.59986 1.78547,-0.94574 2.53809,-1.60523c1.62116,-1.42055 2.95093,-3.59669 4.56607,-4.9764c1.12417,-0.9603 2.30622,-1.94248 3.52071,-2.91486c-0.03518,0.42827 -0.06342,0.76637 -0.06342,0.76637c-0.16099,0.4726 -0.30536,0.95127 -0.44679,1.43203c0.23603,-0.25671 0.40409,-0.55418 0.64542,-0.80828c0.35203,-0.42081 0.73409,-0.8084 1.18857,-1.11168c0.01696,-0.01132 0.03401,-0.0225 0.05112,-0.0335c-0.01375,-0.04761 -0.02684,-0.09634 -0.03929,-0.14615c-0.69889,-2.79557 2.09792,-3.49631 2.09792,-3.49631l0.61666,0.0785c0.73204,-0.3928 1.62099,-0.99453 2.54116,-1.45027c0.21682,-0.19292 0.43405,-0.38553 0.65095,-0.57712c0.31642,-0.21104 0.63252,-0.41867 0.94718,-0.62151c2.35774,-1.51988 4.57579,-2.38471 6.76503,-4.24862c0,0 1.01958,-0.874 0.24773,-1.91835c4.11445,-3.13478 8.78987,-5.88828 13.41634,-7.51883c2.61669,-0.92223 5.16999,-2.53194 7.83947,-3.25689c4.04418,-1.09828 8.68865,-0.84459 12.83833,-1.63299c1.48619,-0.28236 2.81305,-1.11629 4.31074,-1.35758c1.73478,-0.27949 3.51745,0.01608 5.2746,0.01608c6.46512,0 12.96484,-0.09936 19.45555,-0.16156c0.69158,0.26911 1.3838,0.54103 2.1138,0.67972c4.14968,0.7884 8.79408,0.53467 12.83826,1.63294c2.66948,0.72495 5.22275,2.33461 7.83944,3.25684c4.62647,1.63055 9.30187,4.38395 13.41631,7.51873c-0.77186,1.04435 0.24772,1.91833 0.24772,1.91833c2.18924,1.86392 4.40731,2.7287 6.76505,4.24858c0.31466,0.20284 0.63076,0.41046 0.94719,0.6215c0.2169,0.19158 0.43414,0.38419 0.65095,0.57711c0.92017,0.45573 1.80913,1.05746 2.54117,1.45026l0.61666,-0.0785c0,0 2.79682,0.70071 2.09793,3.49629c-0.01245,0.0498 -0.02554,0.09854 -0.03929,0.14615c0.01711,0.011 0.03416,0.02218 0.05112,0.0335c0.45448,0.30328 0.83654,0.69087 1.18857,1.11168c0.24133,0.2541 0.40979,0.55224 0.64581,0.80894c-0.14142,-0.48076 -0.2858,-0.95944 -0.44679,-1.43204c0,0 -0.02863,-0.33874 -0.06382,-0.76701c1.21449,0.97239 2.39655,1.95455 3.52072,2.91485c1.61514,1.37971 2.94494,3.55582 4.5661,4.97637c0.75263,0.65949 1.73714,1.00537 2.53811,1.60523c3.26619,2.44611 6.2759,5.75412 8.81065,8.91177c0.82894,1.0848 1.65957,2.34427 2.95787,2.86943c-1.07838,0.2819 -2.16819,0.88938 -3.27674,1.0078c-3.42412,0.36579 -7.11413,-0.00578 -10.56085,-0.00578l-1.23493,0.00016c0,0 -0.03084,0.00001 -0.0835,0.00452c-1.5457,-3.86246 -2.26689,-8.06848 -3.58283,-11.99428c-0.23465,-0.70003 -0.49595,-1.39784 -0.78009,-2.09455c-0.47342,0.89515 -1.33054,1.47487 -2.40772,1.49952c0.18645,0.48153 0.36081,0.96429 0.52048,1.44618c1.3681,4.12903 2.13628,8.56597 3.82157,12.60192c2.09086,5.00721 4.91776,9.68662 6.96873,14.76177c0.41227,2.30097 1.19863,3.87453 2.11467,5.9295c0.84104,1.88672 2.82424,3.90018 3.22192,5.95744c0.15975,0.82642 -0.2571,3.31794 0.01346,4.17219c0.8187,2.5849 2.19872,4.64724 2.69962,7.46491c0.41311,2.32386 -0.68164,5.48883 0.62795,7.48155c-0.05562,-0.04005 -0.18527,-0.09901 -0.2301,-0.12254c-0.5776,-0.30309 -1.27145,-0.38777 -1.79755,-0.77338c-1.8254,-1.33798 -3.40859,-2.81982 -5.3342,-4.10318c-1.03415,-0.77166 -2.26508,-1.25766 -3.28314,-2.05043c-2.41684,-1.882 -4.25931,-4.28244 -6.41082,-6.43395c-0.96487,-0.96487 -2.33057,-1.53997 -3.11199,-2.6586c-0.30545,-0.43726 -0.07172,-1.10881 -0.35834,-1.55864c-1.4158,-2.22192 -3.65663,-3.61512 -5.05975,-5.93823l-0.15399,-0.09197l0.03843,-0.0384l-1.6467,-1.64556c-0.26074,-0.26074 -0.53868,-0.41834 -0.93655,-0.41834c-0.79574,0 -1.44086,0.64617 -1.44086,1.44191c0,0.07769 0.00613,0.15411 0.01797,0.22847l0.40382,2.83014l0.00539,-0.00077c0.00022,0.01324 0.00045,0.02651 0.00072,0.03975c0.04832,2.403 1.75266,4.16362 2.05188,6.55309c0.24931,1.99093 0.20005,4.10993 0.40471,6.12145c0.29642,2.91338 -0.00694,6.01619 -0.00694,8.94263c0,6.3121 -0.00504,12.6321 -0.00504,18.9442c0.00147,2.30495 0.30742,5.74759 -0.65492,7.9268c-0.23652,0.5356 -0.93976,0.74827 -1.22627,1.25889c-0.48215,0.8593 -0.53963,1.94675 -1.13819,2.72943c-0.54068,0.70699 -1.1573,1.35781 -1.66752,2.08709c-0.30579,0.43707 -0.64858,0.86647 -0.91718,1.32848c-0.24427,-0.88966 -0.81054,-1.71313 -1.40179,-2.33969c-0.25324,-0.26836 -0.88668,-0.22174 -1.04461,-0.55522c-0.19354,-0.40867 0.27215,-0.92602 0.11782,-1.35105c-0.88734,-2.44378 -2.95917,-4.65441 -4.30848,-6.83415c-0.76739,-1.23966 -1.20553,-2.67532 -2.05161,-3.86267c-0.44394,-0.623 -1.1771,-1.04686 -1.49143,-1.74429c-0.19767,-0.43859 0.16579,-0.97364 0.05473,-1.44172c-0.20782,-0.87586 -0.66268,-1.67367 -0.99376,-2.51075c-2.19921,-2.77222 -4.07761,-5.84185 -5.23734,-9.21483c-0.56114,-1.63202 -0.65429,-3.40506 -1.26739,-5.01828c-0.33487,-0.88113 -1.35891,-1.42091 -1.59812,-2.33266c-0.15067,-0.57427 0.18519,-1.23366 -0.04867,-1.77937c-0.45888,-1.07079 -1.44233,-1.90861 -1.72488,-3.03879l-1.46985,-1.52683c0.06568,-0.4336 0.06556,-1.01866 -0.71644,-1.40966c-1.2887,-0.64435 -1.93407,0.64597 -1.93407,0.64597c-1.11039,2.22408 -2.23008,4.19839 -3.13153,6.53666c-0.62201,1.61343 -0.85742,3.4083 -1.75455,4.88654c-0.42155,0.69461 -1.34134,1.01939 -1.70425,1.74635c-0.39832,0.79787 -0.17832,1.79479 -0.48423,2.63245c-0.28774,0.78789 -1.03542,1.36827 -1.27335,2.1726c-0.23451,0.79276 0.22612,2.53742 -0.31584,3.45086c-1.45147,2.44636 -3.21697,4.78161 -4.50962,7.36526c-1.30634,2.61101 -1.9783,5.18935 -3.27642,7.78558c-0.64118,0.95832 -0.9248,2.2005 -1.7927,2.95959c-1.23602,1.08107 -3.12209,1.33308 -4.21064,2.56253c-1.55593,1.75731 -1.81779,4.42023 -3.36896,5.9734c-0.54509,-0.32449 -1.04239,-0.74891 -1.36371,-1.27925l-1.6115,-0.64159c0,0 -0.17127,0 -0.39546,0.05892z" data-paper-data="{&quot;noHover&quot;:false,&quot;origItem&quot;:[&quot;Path&quot;,{&quot;applyMatrix&quot;:true,&quot;segments&quot;:[[428.77344,632.62891],[[432.68561,634.18746],[0,0],[0.78054,1.2883]],[[435.9963,637.29504],[-1.32413,-0.78824],[3.7681,-3.77294]],[[444.17435,622.78482],[-3.77965,4.26886],[2.6443,-2.98656]],[[454.39536,616.56088],[-3.00254,2.62613],[2.10831,-1.844]],[[458.74625,609.37216],[-1.55756,2.32794],[3.15338,-6.30677]],[[466.69596,590.46184],[-3.17336,6.34267],[3.14011,-6.2762]],[[477.63704,572.57553],[-3.52591,5.9427],[1.31653,-2.21892]],[[478.40044,564.19464],[-0.56966,1.92578],[0.57798,-1.95387]],[[481.48899,558.91962],[-0.69897,1.91393],[0.74313,-2.03484]],[[482.66135,552.52737],[-0.9676,1.93819],[0.8816,-1.76593]],[[486.79616,548.28885],[-1.02403,1.68734],[2.17931,-3.59094]],[[491.04892,536.42664],[-1.51099,3.91933],[2.18981,-5.6801]],[[498.64294,520.56366],[-2.69735,5.40272],[0,0]],[[503.33869,518.99841],[-3.1305,-1.56525],[1.89962,0.94981]],[[505.2493,522.52769],[0.15956,-1.0533],[0,0]],[[508.81914,526.23779],[0,0],[0.68636,2.74545]],[[513.00702,533.62285],[-1.1147,-2.60116],[0.56809,1.32564]],[[513.12326,537.948],[-0.36601,-1.39502],[0.5811,2.21483]],[[517.00419,543.61605],[-0.81347,-2.14043],[1.48935,3.91882]],[[520.0788,555.81133],[-1.36311,-3.9645],[2.81721,8.19365]],[[532.79746,578.20005],[-5.34231,-6.73426],[0.80428,2.03344]],[[535.21028,584.30036],[-0.50483,-2.12764],[0.26979,1.13707]],[[535.07614,587.80372],[-0.48019,-1.06543],[0.76358,1.6942]],[[538.69902,592.04105],[-1.07841,-1.5134],[2.05528,2.88431]],[[543.6816,601.42533],[-1.86413,-3.01139],[3.27775,5.29502]],[[554.14644,618.02797],[-2.15553,-5.93642],[0.3749,1.03248]],[[553.8593,621.31074],[-0.47015,-0.99273],[0.38365,0.81007]],[[556.26762,622.50683],[-0.61517,-0.6519],[1.43627,1.52202]],[[559.67327,628.19004],[-0.59338,-2.16115],[0.65247,-1.1223]],[[561.89983,624.96415],[-0.74282,1.06172],[1.23944,-1.77156]],[[565.94817,619.89636],[-1.31341,1.71743],[1.45401,-1.90129]],[[568.71063,613.26837],[-1.17123,2.08741],[0.69597,-1.24039]],[[571.68793,610.21185],[-0.57456,1.30109],[2.33772,-5.29372]],[[573.27344,590.96224],[0.00356,5.59918],[0,-15.33333]],[[573.27344,544.96224],[0,15.33333],[0,-7.1089]],[[573.28536,523.25092],[0.72006,7.07717],[-0.49716,-4.88638]],[[572.29966,508.38988],[0.60563,4.83635],[-0.72687,-5.80448]],[[567.31341,492.48149],[0.11738,5.83735],[-0.00065,-0.03217]],[[567.31165,492.38499],[0.00053,0.03216],[0,0]],[567.29856,492.38686],[[566.31713,485.51682],[0,0],[-0.02876,-0.18063]],[[566.27344,484.96224],[0,0.18872],[0,-1.933]],[[569.77344,481.46224],[-1.933,0],[0.9665,0]],[[572.24831,482.48737],[-0.63338,-0.63338],[0,0]],[576.24831,486.48737],[576.15495,486.58073],[[576.52901,486.80427],[0,0],[3.40844,5.6433]],[[588.81914,501.23779],[-3.43925,-5.39748],[0.69627,1.09271]],[[589.68923,505.02623],[-0.742,-1.06219],[1.89824,2.71736]],[[597.24831,511.48737],[-2.34386,-2.34386],[5.22645,5.22645]],[[612.81992,527.12289],[-5.87097,-4.57174],[2.47307,1.92579]],[[620.79494,532.10505],[-2.51216,-1.87451],[4.67768,3.11752]],[[633.75194,542.07511],[-4.43426,-3.25021],[1.278,0.93674]],[[638.11848,543.95399],[-1.4031,-0.73626],[0.10891,0.05715]],[[638.48753,544.18897],[-0.13512,-0.09728],[-3.18125,-4.84071]],[[636.95992,526.02244],[1.00353,5.64511],[-1.21677,-6.84468]],[[630.40044,507.89651],[1.98879,6.27924],[-0.65725,-2.07514]],[[630.36707,497.76637],[0.38807,2.00754],[-0.96605,-4.99748]],[[622.53986,483.30163],[2.04305,4.58321],[-2.22524,-4.99193]],[[617.40289,468.90533],[1.00148,5.58951],[-4.9822,-12.32854]],[[600.47744,433.06686],[5.07912,12.16349],[-4.09391,-9.80411]],[[591.20013,402.47151],[3.32339,10.03024],[-0.38787,-1.17061]],[[589.93668,398.96037],[0.45292,1.16972],[2.61669,-0.05988]],[[595.96536,395.23024],[-1.15004,2.17449],[0.69024,1.69246]],[[597.86161,400.321],[-0.57002,-1.70052],[3.19667,9.53654]],[[606.5706,429.4732],[-3.75482,-9.38268],[0.12792,-0.01096]],[606.77344,429.46224],[[609.77344,429.46224],[0,0],[8.37277,0]],[[635.42856,429.47927],[-8.31786,0.88857],[2.69289,-0.28767]],[[643.19343,427.07561],[-2.61961,0.6848],[-3.15382,-1.27573]],[[636.00915,420.10903],[2.01367,2.63519],[-6.1574,-7.67057]],[[614.61069,398.47318],[7.93421,5.94208],[-1.94571,-1.45718]],[[608.44637,394.57658],[1.82828,1.60204],[-3.93812,-3.4508]],[[597.35814,382.49529],[3.92349,3.35158],[-2.73083,-2.33277]],[[588.80846,375.4193],[2.95023,2.36212],[0.08547,1.04036]],[[589.13265,377.17583],[0,0],[0.39107,1.14804]],[[590.21897,380.65616],[-0.34354,-1.16785],[-0.57336,-0.62359]],[[588.47924,378.79493],[0.58623,0.61726],[-0.85515,-1.02222]],[[585.59307,376.0962],[1.10401,0.73673],[-0.0412,-0.02749]],[[585.46892,376.01489],[0.04157,0.02672],[0.03341,-0.11565]],[[585.56444,375.65999],[-0.03024,0.12098],[1.69775,-6.791]],[580.47119,367.17124],[[578.97344,367.36224],[0,0],[-1.77826,-0.95419]],[[572.80262,363.84214],[2.23528,1.10707],[-0.52669,-0.46864]],[[571.22205,362.44112],[0.5269,0.46539],[-0.76865,-0.51265]],[[568.92208,360.93251],[0.76437,0.49274],[-5.72741,-3.69208]],[[552.49567,350.61964],[5.3181,4.52782],[0,0]],[[551.8954,345.96106],[-1.87499,2.53693],[-9.9948,-7.61501]],[[519.32149,327.70926],[11.2386,3.96093],[-6.35645,-2.24027]],[[500.28859,319.80325],[6.48469,1.76105],[-9.82412,-2.66793]],[[469.11936,315.84238],[10.08039,1.91518],[-1.77331,-0.33691]],[[463.98772,314.1919],[1.67998,0.65372],[-15.76721,0.1511]],[[416.75518,314.58594],[15.70505,0],[-4.26846,0]],[[403.94987,314.54588],[4.21412,-0.67894],[-3.63819,0.58615]],[[393.48478,317.84238],[3.61026,-0.68592],[-10.08039,1.91518]],[[362.31555,321.80325],[9.82412,-2.66793],[-6.48469,1.76105]],[[343.28265,329.70926],[6.35645,-2.24027],[-11.2386,3.96093]],[[310.70874,347.96106],[9.9948,-7.61501],[1.87499,2.53693]],[[310.10847,352.61964],[0,0],[-5.3181,4.52782]],[[293.68206,362.93251],[5.72741,-3.69208],[-0.76437,0.49274]],[[291.38209,364.44112],[0.76865,-0.51265],[-0.5269,0.46539]],[[289.80152,365.84214],[0.52669,-0.46864],[-2.23528,1.10707]],[[283.6307,369.36224],[1.77826,-0.95419],[0,0]],[282.13295,369.17124],[[277.0397,377.65999],[-1.69775,-6.791],[0.03024,0.12098]],[[277.13522,378.01489],[-0.03341,-0.11565],[-0.04157,0.02672]],[[277.01107,378.0962],[0.0412,-0.02749],[-1.10401,0.73673]],[[274.1249,380.79493],[0.85515,-1.02222],[-0.58623,0.61726]],[[272.38517,382.65616],[0.57336,-0.62359],[0.34354,-1.16785]],[[273.47149,379.17583],[-0.39107,1.14804],[0,0]],[[273.79568,377.4193],[-0.08547,1.04036],[-2.95023,2.36212]],[[265.246,384.49529],[2.73083,-2.33277],[-3.92349,3.35158]],[[254.15777,396.57658],[3.93812,-3.4508],[-1.82828,1.60204]],[[247.99345,400.47318],[1.94571,-1.45718],[-7.93421,5.94208]],[[226.59499,422.10903],[6.1574,-7.67057],[-2.01367,2.63519]],[[219.41071,429.07561],[3.15382,-1.27573],[2.61961,0.6848]],[[227.17558,431.47927],[-2.69289,-0.28767],[8.31786,0.88857]],[[252.8307,431.46224],[-8.37277,0],[0,0]],[255.8307,431.46224],[[256.03354,431.4732],[-0.12792,-0.01096],[3.75482,-9.38268]],[[264.74253,402.321],[-3.19667,9.53654],[0.57002,-1.70052]],[[266.63878,397.23024],[-0.69024,1.69246],[1.15004,2.17449]],[[272.66746,400.96037],[-2.61669,-0.05988],[-0.45292,1.16972]],[[271.40401,404.47151],[0.38787,-1.17061],[-3.32339,10.03024]],[[262.1267,435.06686],[4.09391,-9.80411],[-5.07912,12.16349]],[[245.20125,470.90533],[4.9822,-12.32854],[-1.00148,5.58951]],[[240.06428,485.30163],[2.22524,-4.99193],[-2.04305,4.58321]],[[232.23707,499.76637],[0.96605,-4.99748],[-0.38807,2.00754]],[[232.2037,509.89651],[0.65725,-2.07514],[-1.98879,6.27924]],[[225.64422,528.02244],[1.21677,-6.84468],[-1.00353,5.64511]],[[224.11661,546.18897],[3.18125,-4.84071],[0.13512,-0.09728]],[[224.48566,545.95399],[-0.10891,0.05715],[1.4031,-0.73626]],[[228.8522,544.07511],[-1.278,0.93674],[4.43426,-3.25021]],[[241.8092,534.10505],[-4.67768,3.11752],[2.51216,-1.87451]],[[249.78422,529.12289],[-2.47307,1.92579],[5.87097,-4.57174]],[[265.35583,513.48737],[-5.22645,5.22645],[2.34386,-2.34386]],[[272.91491,507.02623],[-1.89824,2.71736],[0.742,-1.06219]],[[273.785,503.23779],[-0.69627,1.09271],[3.43925,-5.39748]],[[286.07513,488.80427],[-3.40844,5.6433],[0,0]],[286.44919,488.58073],[286.35583,488.48737],[[290.35583,484.48737],[0,0],[0.63338,-0.63338]],[[292.8307,483.46224],[-0.9665,0],[1.933,0]],[[296.3307,486.96224],[0,-1.933],[0,0.18872]],[[296.28701,487.51682],[0.02876,-0.18063],[0,0]],[295.30558,494.38686],[[295.29249,494.38499],[0,0],[-0.00053,0.03216]],[[295.29073,494.48149],[0.00065,-0.03217],[-0.11738,5.83735]],[[290.30448,510.38988],[0.72687,-5.80448],[-0.60563,4.83635]],[[289.31878,525.25092],[0.49716,-4.88638],[-0.72006,7.07717]],[[289.3307,546.96224],[0,-7.1089],[0,15.33333]],[[289.3307,592.96224],[0,-15.33333],[-0.00356,5.59918]],[[290.91621,612.21185],[-2.33772,-5.29372],[0.57456,1.30109]],[[293.89351,615.26837],[-0.69597,-1.24039],[1.17123,2.08741]],[[296.65597,621.89636],[-1.45401,-1.90129],[1.31341,1.71743]],[[300.70431,626.96415],[-1.23944,-1.77156],[0.74282,1.06172]],[[302.93087,630.19004],[-0.65247,-1.1223],[0.59338,-2.16115]],[[306.33652,624.50683],[-1.43627,1.52202],[0.61517,-0.6519]],[[308.74484,623.31074],[-0.38365,0.81007],[0.47015,-0.99273]],[[308.4577,620.02797],[-0.3749,1.03248],[2.15553,-5.93642]],[[318.92254,603.42533],[-3.27775,5.29502],[1.86413,-3.01139]],[[323.90512,594.04105],[-2.05528,2.88431],[1.07841,-1.5134]],[[327.528,589.80372],[-0.76358,1.6942],[0.48019,-1.06543]],[[327.39386,586.30036],[-0.26979,1.13707],[0.50483,-2.12764]],[[329.80668,580.20005],[-0.80428,2.03344],[5.34231,-6.73426]],[[342.52534,557.81133],[-2.81721,8.19365],[1.36311,-3.9645]],[[345.59995,545.61605],[-1.48935,3.91882],[0.81347,-2.14043]],[[349.48088,539.948],[-0.5811,2.21483],[0.36601,-1.39502]],[[349.59712,535.62285],[-0.56809,1.32564],[1.1147,-2.60116]],[[353.785,528.23779],[-0.68636,2.74545],[0,0]],[358.35583,523.48737],[[363.30558,523.48737],[-2.47487,-2.47487],[1.15372,1.15372]],[[364.29191,526.6978],[0.24544,-0.903],[0.47565,0.53231]],[[364.99045,527.75019],[0,0],[2.4552,5.76136]],[[372.17981,546.32477],[-1.75018,-5.94944],[1.82737,6.21185]],[[376.9089,564.57364],[-3.11283,-6.22977],[9.92596,19.86501]],[[416.55913,619.02746],[-15.43012,-15.53688],[2.94319,5.8379]],[[426.81992,632.28956],[-4.49375,-4.57416],[0,0]],[[427.8134,632.77203],[0,0],[0.54461,-0.14312]]],&quot;closed&quot;:true}]}" fill="#ea0000" stroke="none" stroke-width="0.5" stroke-linecap="butt"/><path d="M205.88672,210.81446l-2.5,-10l12.5,-29l-10.5,25l12.5,-27.5" fill="none" stroke="#000000" stroke-width="3" stroke-linecap="round"/><path d="M265.88672,161.31446l4.5,7.5l6.5,29.5l-1.5,12l-6,8.5l-37,0.5l-22.5,-6" fill="none" stroke="#000000" stroke-width="3" stroke-linecap="round"/><path d="M272.88672,147.31446l-3,4.5l-22.5,43.5l-8,5l-22.5,-35.5l-11,-15.5" fill="none" stroke="#000000" stroke-width="3" stroke-linecap="round"/><path d="M187.38672,277.81446l27.5,-67l9.5,5.25l10,1l-1.5,4.25l-3.5,57.5l-52,-3.5v23.5l48,7l4.5,-28.5z" fill="#ea0000" stroke="#000000" stroke-width="3" stroke-linecap="round"/><path d="M264.88672,217.31446l11,66.5l-40.5,-1.5l-2.5,23.5l50.5,4l1,-26.5l-49,-2l11.5,-60.5z" fill="#ea0000" stroke="#000000" stroke-width="3" stroke-linecap="round"/><path d="M234.74561,303.48278l0.19775,-0.57557c0,-3.16667 0,-6.33333 0,-9.5c0,-0.57587 -0.00801,-4.20227 0.03574,-4.35186c0.73974,-2.5294 1.21208,-3.08173 2.57224,-3.08823c0.00872,-0.0187 0.0175,-0.03737 0.02634,-0.05599c-0.14004,-0.05989 -0.27904,-0.12273 -0.41695,-0.18866c0,0 -1.56525,-0.78262 -0.78262,-2.34787c0.78262,-1.56525 2.34788,-0.78262 2.34788,-0.78262c2.92418,1.5566 6.9194,0.81525 10.21738,0.81525c4.27749,0 8.62533,-0.19906 12.92387,-0.1091l-0.15526,-1.37737c-0.00916,-0.07256 -0.01388,-0.14649 -0.01388,-0.22153c0,-0.9665 0.7835,-1.75 1.75,-1.75c0.43807,0 0.83853,0.16096 1.1455,0.42696l1.9878,1.7016l-0.03513,0.04104c0.1507,0.13015 0.29176,0.27195 0.42099,0.42802c0.2468,0.29805 0.43117,0.69609 0.56714,1.16286c0.82761,0.11653 1.65289,0.24054 2.47773,0.32854c0.05989,-0.13543 0.13917,-0.26216 0.24288,-0.37781c0.92404,-1.03051 2.57052,-1.84954 3.89358,-1.44297c0.88606,0.27229 1.57861,0.93501 2.15744,1.71985c2.58891,-0.10483 5.39643,0.02446 6.53445,1.41607c0.43614,0.53332 0.35289,3.93687 0.35289,4.80384c0,4.82783 0.12316,9.67404 0,14.5c-0.05102,1.99926 0.22162,3.40256 -1.78011,4.57493c-0.15231,0.81124 -0.86442,1.42507 -1.71989,1.42507c-0.67095,0 -1.25372,-0.37759 -1.54738,-0.93187c-1.03041,-0.24103 -2.09241,-0.75842 -3.14269,-1.32833c-0.18892,-0.0204 -0.36883,-0.07088 -0.53485,-0.14653l-1.46279,-0.62691c-3.84473,0.08913 -6.82278,-0.45796 -10.57251,-1.23581c-3.19955,-0.66372 -6.69487,-0.2396 -10.09401,0.13509c-0.16702,0.04426 -0.33312,0.08928 -0.49842,0.13463c-0.27426,0.15472 -0.57771,0.22306 -0.89572,0.24836c-2.61379,0.72426 -5.07629,1.32928 -7.87447,0.01941c-0.87605,0.00165 -1.75192,-0.00192 -2.62715,-0.01803c-0.845,-0.01556 -1.80452,0.34319 -2.53406,-0.08348c-0.58741,-0.34355 -1.31776,-0.74421 -1.9063,-1.2228c-1.67917,-0.43104 -1.25739,-2.11815 -1.25739,-2.11815z" fill="#26eb00" stroke="none" stroke-width="0.5" stroke-linecap="butt"/><path d="M235.94336,281.40723l50.25,2.75l-1.25,26.5l-51,-5" fill="none" stroke="#000000" stroke-width="3" stroke-linecap="round"/><path d="M233.69336,307.65723l3,-24.75" fill="none" stroke="#000000" stroke-width="3" stroke-linecap="round"/><path d="M217.04518,207.22944c0.29339,-0.59748 0.66854,-1.13251 1.18482,-1.53319c2.9413,-2.28269 7.08181,1.67484 8.43411,3.7626c0.39081,0.60336 0.77614,1.21896 1.12949,1.85105c1.57131,-0.25802 3.10764,-0.10593 3.72181,0.70072c0.46332,0.60852 0.67527,1.24854 0.72101,1.8966h1.95695c0.9665,0 1.75,0.7835 1.75,1.75c0,0.48325 -0.19588,0.92075 -0.51257,1.23744l-1.75,1.75l-0.06659,-0.0666c-0.15359,0.16145 -0.31955,0.31114 -0.50115,0.44595c-0.72645,0.53929 -1.78215,0.22705 -2.70865,0.14705l-1.72361,1.7236c-0.31669,0.31669 -0.75418,0.51256 -1.23743,0.51256c-0.54358,0 -1.02928,-0.24784 -1.35025,-0.63667c-0.04949,0.03191 -0.0994,0.06274 -0.14975,0.09239v1.04428c0,0.9665 -0.7835,1.75 -1.75,1.75c-0.23246,0 -0.45434,-0.04533 -0.65727,-0.12762c-0.32101,0.38363 -0.80337,0.62762 -1.34273,0.62762c-0.89129,0 -1.62696,-0.66631 -1.73605,-1.52798l-0.49134,-3.43936l0.25985,-0.03712c-0.39459,-1.22923 -0.6635,-2.4556 -0.78246,-3.79611v3.05057c0,0.9665 -0.7835,1.75 -1.75,1.75c-0.9665,0 -1.75,-0.7835 -1.75,-1.75v-2.26192c-0.00005,-0.43247 -0.00539,-1.33114 -0.0008,-2.31551c-0.39356,-0.98772 -0.74662,-1.99659 -1.65385,-3.09675l-1.59354,-1.13824c-0.4544,-0.3161 -0.75181,-0.84211 -0.75181,-1.43759c0,-0.9665 0.7835,-1.75 1.75,-1.75c0.14352,0 0.28299,0.01727 0.41647,0.04986l2.21316,0.49182l-0.02234,0.10052c0.18232,0.02322 0.36343,0.05812 0.54308,0.10719c0.07026,0.01919 0.13728,0.04367 0.20145,0.07283z" fill="#ea0000" stroke="none" stroke-width="0.5" stroke-linecap="butt"/><path d="M203.44336,278.15723c3.97369,0 7.98949,-0.30572 11.87963,0.54167l0.12037,-0.04167c0,0 0.90863,0 1.41643,0.65473c3.81188,-0.43204 9.06095,-1.83537 11.16835,1.853c0.21483,0.37599 0.16522,4.24019 0.16522,4.74227c0,2.14258 0.2853,4.78129 -0.35243,6.83993c-0.75195,2.42735 -2.84035,4.46449 -3.44555,7.06706c-0.24422,1.05024 -0.13301,4.12792 -0.97548,4.84125c-2.92482,2.4765 -6.73972,-1.04938 -9.73366,-1.07333c-4.35137,-2.75977 -8.93074,-1.94278 -13.747,-2.69347c-4.10707,-0.64015 -8.13731,-0.71898 -12.34265,-0.98413c-2.38055,-0.1501 -7.96645,-1.02716 -9.41682,-3.36895c-0.50689,-0.81843 -0.1891,-1.91685 -0.2364,-2.87838c-0.12434,-2.52769 0.15356,-5.27562 0.76311,-7.71382c-0.01706,-1.99874 -0.02483,-3.69271 -0.47144,-5.65655l-0.04167,-0.87963c0,0 0,-0.47923 0.25079,-0.93613c-0.00053,-0.02103 -0.00079,-0.04232 -0.00079,-0.06387c0,-1.75 1.75,-1.75 1.75,-1.75c3.43092,0 6.9346,-0.1882 10.35874,0.00339c2.02473,0.11329 3.68799,0.99165 5.63398,1.26353c1.39097,0.19434 2.83856,-0.04045 4.2034,0.2909c0.59983,0.14562 1.19366,0.29235 1.78329,0.43561c0.5181,-0.49343 1.27059,-0.49343 1.27059,-0.49343z" fill="#26eb00" stroke="none" stroke-width="0.5" stroke-linecap="butt"/><path d="M276.88272,310.17373c1.6085,0.68936 0.91915,2.29786 0.91915,2.29786l-0.64425,1.41251c0.26727,10.45575 0.58524,21.26021 -0.72471,31.58909c-0.58905,4.64466 -2.68622,8.61124 -3.56831,13.07812c-0.87792,2.02291 -2.26306,4.74536 -4.38862,5.79617c-2.34344,1.15853 -6.79536,0.43475 -9.28262,0.43475c-3.57755,0 -7.23736,0.15998 -10.70739,-0.81083c-4.24085,-1.18646 -8.02756,-3.7393 -11.6737,-5.92716c-3.66261,-2.19774 -6.29897,-2.97844 -8.08317,-7.16014c-0.13296,-7.81971 0.0449,-15.42751 1.23533,-23.12258c1.04299,-6.74203 3.03735,-13.6362 2.97894,-20.47929c0,0 0,-1.75 1.75,-1.75c1.75,0 1.75,1.75 1.75,1.75c-0.04725,7.07621 -1.94345,14.05558 -3.02107,21.02071c-1.13377,7.3281 -1.07482,14.45044 -1.26467,21.87743c1.25791,2.90773 3.93144,3.34874 6.41683,4.83986c3.37312,2.02371 6.88689,4.4877 10.8263,5.57284c3.17243,0.87387 6.52074,0.68917 9.7926,0.68917c4.68879,0 8.25754,1.16372 10.32876,-3.76907c0.46711,-2.30751 1.65996,-3.99302 2.23216,-6.18863c0.98066,-3.76292 1.7572,-8.26838 1.94246,-12.15103c0.41192,-8.63283 -0.11463,-17.34814 0.03236,-25.99313l0.85575,-2.08749c0,0 0.68936,-1.60851 2.29787,-0.91915z" fill="#000000" stroke="none" stroke-width="0.5" stroke-linecap="butt"/><path d="M223.94336,302.53223c1.75,0 1.75,1.75 1.75,1.75v1c0,2.0813 0.00479,4.04339 -0.25338,6.10874c0.00501,2.43235 -0.39042,4.34399 -0.76922,6.67158c-0.64473,3.96169 0.28965,8.23045 -0.24432,12.21241c-0.16126,1.20259 -0.84081,2.29714 -1,3.5c-0.43292,3.27113 0.01692,6.96427 0.01692,10.25727c0,3.94024 -0.47476,7.76618 -0.54681,11.65207c-0.67772,1.19552 -0.9479,2.74348 -2.03316,3.58657c-0.77173,0.59952 -1.94432,0.20676 -2.92003,0.26136c-2.64407,0.14798 -5.35203,0.00167 -8,0c-3.20414,-0.00202 -5.65282,-0.91747 -8.70516,-1.26207c-0.63459,-0.07164 -4.09365,-0.39476 -4.63695,-0.70387c-0.69023,-0.3927 -0.89367,-1.37636 -1.57088,-1.7911c-0.58929,-0.36089 -1.3919,-0.15236 -2.03113,-0.41485c-3.23062,-1.32658 -7.38191,-3.93434 -9.05827,-7.18074c-1.37863,-2.6698 -0.9976,-5.52817 -0.9976,-8.39738c0.01818,-1.41639 -0.45545,-2.79654 -0.72192,-4.18776c-0.76286,-3.98276 0.58518,-8.5234 -0.24234,-12.46038c-1.51435,-7.2046 -1.8098,-15.93463 -0.76815,-23.34935c0,0 0.24749,-1.73241 1.9799,-1.48492c1.73241,0.24749 1.48492,1.9799 1.48492,1.9799c-1.02873,7.06587 -0.58238,15.28985 0.73185,22.15065c0.76796,4.00904 -0.58023,8.54964 0.25766,12.53962c0.33394,1.59023 0.76186,3.18741 0.77808,4.81224c0,1.82372 -0.47672,4.85516 0.5024,6.60262c1.42703,2.54686 4.67564,4.62976 7.30169,5.70564c0.83308,0.34131 1.83564,0.23772 2.6089,0.69878c0.6378,0.38029 0.81706,1.28843 1.42912,1.7089c0.92756,0.63722 2.24596,0.15996 3.36305,0.29613c2.01266,0.24533 3.65564,1.1533 5.65358,1.24131c2.94917,0.12992 5.93754,-0.00338 8.89126,-0.00338c0.94734,0 2.07021,0.82723 2.82997,0.26136c0.39793,-0.29638 0.31123,-0.94229 0.46684,-1.41343c-0.08406,-3.55721 0.45319,-7.21849 0.45319,-10.84793c0,-3.45647 -0.4436,-7.30857 0.01692,-10.74273c0.16126,-1.20259 0.84081,-2.29714 1,-3.5c0.53056,-4.00891 -0.3597,-8.28086 0.25568,-12.28759c0.34807,-2.26623 0.72649,-3.96758 0.73078,-6.32842c0.25025,-2.00202 0.24662,-3.87283 0.24662,-5.89126v-1c0,0 0,-1.75 1.75,-1.75z" fill="#000000" stroke="none" stroke-width="0.5" stroke-linecap="butt"/><path d="M182.69336,300.53223l42.25,4.375l-47,-6.75l1.75,-22" fill="none" stroke="#000000" stroke-width="3" stroke-linecap="round"/><path d="M275.44336,345.03223l1,-25.75l1,-8.25l-42.25,-3.25l41.25,3.75553l8.25,-1.25" fill="none" stroke="#000000" stroke-width="3" stroke-linecap="round"/><path d="M189.11761,350.58069c-2.11217,-1.06142 -4.86147,-2.29683 -5.81972,-4.69719c-1.14821,-2.87618 -0.10452,-7.96647 -0.10452,-11.09574c0,-9.08333 0,-18.16667 0,-27.25c0,0 0,-0.45804 0.23433,-0.90545c-0.4339,-0.17917 -0.86912,-0.56392 -0.97082,-1.37749c-0.13472,-1.07775 0.48308,-1.57021 0.97119,-1.78874c0.01408,-0.14907 0.04767,-0.30943 0.1051,-0.48172c0.5534,-1.6602 2.21359,-1.1068 2.21359,-1.1068c0.72158,0.24119 1.44074,0.54569 2.16237,0.86214c6.52743,-1.06899 13.0872,-2.6086 19.83291,-1.42626c4.82799,0.84621 9.18032,3.32886 13.5901,5.39553c1.94024,3.03741 2.14446,6.23316 1.40564,9.38009c0.13505,4.36159 0.4987,8.958 -0.05753,13.16253c-0.35228,2.66286 -1.23575,5.27215 -1.76497,7.84842c-0.54906,2.67285 -0.06386,5.43889 -0.78148,8.14042c-0.4968,1.87024 -0.25151,5.55851 -1.10211,7.58487c-0.21606,1.07067 -0.52412,2.16586 -0.97545,3.34247l-0.96873,2.47077c-0.24509,0.67057 -0.88872,1.14922 -1.64415,1.14922c-0.90837,0 -1.65509,-0.69209 -1.74163,-1.57773l-0.31522,-2.837c-0.83924,0.10251 -1.67107,0.18066 -2.49589,0.23437c-0.08204,0.01179 -0.16592,0.0179 -0.25122,0.0179c-0.01118,0 -0.02233,-0.0001 -0.03345,-0.00031c-7.65395,0.44708 -14.70646,-1.21836 -21.48834,-5.0443zM186.69336,307.53776c0,0.36341 0,0.72681 0,1.09022c0.02318,-0.03206 0.04689,-0.06364 0.07113,-0.09473c-0.04629,-0.1571 -0.07113,-0.32339 -0.07113,-0.49548c0,-0.08488 0.00604,-0.16835 0.01772,-0.25c-0.01168,-0.08165 -0.01772,-0.16512 -0.01772,-0.25c0,-0.45471 0.17342,-0.86891 0.45773,-1.18008c-0.25974,0.04355 -0.51923,0.08616 -0.77846,0.12762c0.32073,0.48782 0.32073,1.05246 0.32073,1.05246zM202.85708,351.83199c0.09938,0.01531 0.19885,0.03017 0.29843,0.04459c0.04299,-0.07739 0.09114,-0.14764 0.14313,-0.2114c-0.12982,-0.05147 -0.25201,-0.11803 -0.36442,-0.1975c-0.01285,0.12587 -0.03905,0.24779 -0.07714,0.36432zM186.69336,317.94068c0.02641,-0.30675 0.0536,-0.61362 0.08157,-0.92063c-0.02752,-0.07646 -0.05473,-0.15393 -0.08157,-0.23235c0,0.38433 0,0.76865 0,1.15298zM197.59251,304.63836c0.15358,-0.00031 0.30721,-0.00094 0.46087,-0.00187c0.10391,-0.02697 0.20798,-0.05381 0.31219,-0.08049c-0.25781,0.02548 -0.51549,0.05301 -0.77305,0.08237z" fill="#c7c7c7" stroke="none" stroke-width="0.5" stroke-linecap="butt"/><path d="M177.69336,275.65723l52,3l-4.5,28l-5.25,51.38053l-17.75,-1.75l-17.25,-7.75l-1,-7l1.25,-40l39.5,5l-40.75,-3.75" fill="none" stroke="#000000" stroke-width="3" stroke-linecap="round"/><path d="M192.44336,301.03776l30.25,3.25" fill="none" stroke="#000000" stroke-width="3" stroke-linecap="round"/><path d="M182.69336,303.78776v43" fill="none" stroke="#000000" stroke-width="3" stroke-linecap="round"/><path d="M237.72892,312.791c-0.17827,-0.00288 -0.35678,-0.00403 -0.53556,-0.00324c0,0 -1.75,0 -1.75,-1.75c0,-1.75 1.75,-1.75 1.75,-1.75c3.41465,0.01266 6.69618,0.70854 10.15322,0.50268c6.40287,-0.38129 11.75698,-0.48754 17.24698,2.71714c0.25163,-0.14004 0.5414,-0.21982 0.8498,-0.21982h2v0.18438c1.83134,-0.29928 3.80156,-0.37494 4.80384,0.41851c2.44418,1.93491 0.94297,7.02266 0.94616,9.64711c0.00616,5.07187 1.02334,11.3907 -0.03158,16.33094c-0.80833,3.78548 -1.46842,7.2048 -1.46842,11.16906c0,1.95468 0.40983,5.08946 -0.37866,6.90861c-2.12555,4.9039 -9.23891,9.08687 -14.54103,7.45818c-0.6211,-0.19079 -0.84153,-1.04164 -1.42242,-1.33273c-0.61931,-0.31034 -1.39017,-0.15896 -2.03893,-0.4018c-2.52087,-0.9436 -4.82163,-2.69583 -7.30831,-3.77376c-4.13708,-1.79334 -8.11574,-2.27442 -11.29808,-5.87107c-3.66778,-3.24527 -3.04079,-6.33827 -2.75816,-10.86149c0.40954,-6.55433 1.78279,-12.85646 2.76454,-19.38274c0.20562,-1.36689 0.74549,-2.66557 1.00365,-4.02352c0.25048,-1.31756 -0.19514,-2.80652 0.41216,-4.0023c0.4304,-0.84746 0.97542,-1.48496 1.6008,-1.96414z" fill="#c7c7c7" stroke="none" stroke-width="0.5" stroke-linecap="butt"/><path d="M276.44336,315.03776l-6,46.5l-14.25,3.25l-22.25,-9.25l-1.5,-3.75l2.5,-40.75" fill="none" stroke="#000000" stroke-width="3" stroke-linecap="round"/><path d="M279.69336,172.03776l-10.75,-16.75" fill="none" stroke="#000000" stroke-width="3" stroke-linecap="round"/><path d="M287.69336,217.53776l43.5,-12.5l6,22.5l-40.75,9.75z" fill="#ffffff" stroke="#000000" stroke-width="3" stroke-linecap="round"/><path d="M331.19336,232.03776l23.75,23.25" fill="none" stroke="#000000" stroke-width="3" stroke-linecap="round"/><path d="M355.19336,252.53776l-23,27.75" fill="none" stroke="#000000" stroke-width="3" stroke-linecap="round"/><path d="M333.44336,279.03776l-36,-12.75l12.5,-19.25" fill="none" stroke="#000000" stroke-width="3" stroke-linecap="round"/><path d="M304.69336,255.78776l-9.25,-6.75l3.75,-10.25" fill="none" stroke="#000000" stroke-width="3" stroke-linecap="round"/><path d="M352.44336,256.53776l12.75,18.75l-28.75,-4.5" fill="none" stroke="#000000" stroke-width="3" stroke-linecap="round"/><path d="M337.44336,274.78776l5.5,5.5l-9,0.75" fill="none" stroke="#000000" stroke-width="3" stroke-linecap="round"/><path d="M208.44336,158.28776l-1.5,3.25" fill="none" stroke="#000000" stroke-width="3" stroke-linecap="round"/><path d="M151.13672,192.69499l18.55664,-13.65723l12.5,-8.5" fill="none" stroke="#000000" stroke-width="3" stroke-linecap="round"/><path d="M147.63672,183.69499l45.5,30.5l-17,24l-40,-29.5z" fill="#ffffff" stroke="#000000" stroke-width="3" stroke-linecap="round"/><path d="M157.63672,249.19499l13.5,15l-28,11.5l-25,-41.5l21,-20.5" fill="none" stroke="#000000" stroke-width="3" stroke-linecap="round"/><path d="M170.63672,236.69499l8,12.5l-13.5,7" fill="none" stroke="#000000" stroke-width="3" stroke-linecap="round"/><path d="M143.13672,276.69499l-18,3.5l6,-22.5l-26,-5l16,-11.5" fill="none" stroke="#000000" stroke-width="3" stroke-linecap="round"/><path d="M175.78466,175.51768c0.09631,-0.03132 0.19326,-0.05935 0.29081,-0.08442l-0.02071,-0.05178l0.57026,-0.2281c0.24079,-0.16639 0.48985,-0.32994 0.7484,-0.49066l1.29384,-1.29384c0.31669,-0.31669 0.75419,-0.51256 1.23744,-0.51256c0.9665,0 1.75,0.7835 1.75,1.75v2.4h-0.01149c0.00343,0.02422 0.00675,0.04846 0.00997,0.07272c0.46376,3.49363 -0.56999,7.27225 -0.25804,10.84834c0.41248,1.2566 0.92702,2.82676 1.02084,3.11291l-0.04872,0.19976l0.07875,-0.00788l0.07092,0.70927c0.03325,0.06288 0.06736,0.12562 0.10235,0.18822c0.71979,1.28768 2.50553,1.64018 3.44632,2.77645c1.0966,1.32445 1.34906,2.78095 1.36696,4.42281c0.00302,0.27709 0.05298,0.58932 0.11229,0.91091c0.6073,-0.48056 1.24999,-0.90771 1.62282,-1.36265c2.21661,-2.70481 4.15162,-6.37673 5.78913,-9.48733c0.57194,-1.08645 1.62865,-3.5545 2.60722,-4.30834c0.04075,-0.03139 0.08182,-0.06227 0.1232,-0.09267l-0.01998,-0.01998l1.39802,-1.39801c1.04241,-2.66825 1.99614,-5.36868 3.27169,-7.94219c1.27536,-2.57314 2.58377,-4.88886 2.85644,-7.78838c0.67488,-2.05354 1.02201,-3.77106 2.14845,-5.62648l0.74744,-1.68174c0.0257,-0.06149 0.0548,-0.1212 0.08708,-0.1789c-0.12329,-0.47645 -0.08179,-1.10022 0.58944,-1.67556c1.3287,-1.13888 2.46758,0.18982 2.46758,0.18982c3.03841,3.55262 4.41945,6.38746 4.4213,11.13888c0.00041,1.04898 0.10675,3.79098 -0.37272,4.75808c-0.64246,1.29586 -1.92375,2.17524 -2.70708,3.39113c-0.16835,0.26132 -0.33754,0.52199 -0.50747,0.78207c-0.47226,2.2287 -1.67529,4.59258 -2.656,6.53424c-0.69405,1.90727 -1.48197,3.79707 -2.32515,5.68354l-0.02901,0.02723l0.01267,0.00633l-0.78304,1.56609c-0.28061,0.59193 -0.8836,1.00129 -1.5822,1.00129c-0.90831,0 -1.65501,-0.69201 -1.74161,-1.57758c-0.29261,0.43114 -0.58375,0.86333 -0.87304,1.29683c-1.53263,1.72999 -3.3738,3.23954 -4.88581,4.90279c-0.25842,0.28427 -0.4291,0.66628 -0.59908,1.0431c-0.05823,0.23937 -0.16571,0.45949 -0.31107,0.649l-0.07559,0.10078c-0.04467,0.06725 -0.09201,0.13106 -0.14285,0.19047l-0.97095,1.29461l-0.0473,-0.03548l-0.03066,0.13208c-0.16498,0.16519 -0.35312,0.36122 -0.56061,0.57695c-0.15143,0.69085 -0.9112,1.10056 -1.32686,1.67871c-1.05787,1.47141 -2.85616,3.37924 -4.85878,4.26579l0.16759,2.17859c0.00439,0.05053 0.00663,0.10169 0.00663,0.15336c0,0.9665 -0.7835,1.75 -1.75,1.75c-0.6986,0 -1.3016,-0.40936 -1.5822,-1.00129l-0.78305,-1.56609l0.12423,-0.06212l-0.23732,-0.22487c-0.04581,-0.3715 -0.09369,-0.74872 -0.14437,-1.13047c-3.86167,-1.38888 -6.01606,-5.92643 -9.06675,-8.39565c-4.2209,-3.41639 -9.11719,-5.40365 -13.83291,-7.97365l-1.88971,-0.75589c-0.66464,-0.24817 -1.13791,-0.8888 -1.13791,-1.63997c0,-0.67048 0.37705,-1.25288 0.93068,-1.54675l1.76944,-0.98302l0.01477,0.02657c0.05102,-0.0371 0.1026,-0.0735 0.1548,-0.10914c0.22967,-0.15684 0.48095,-0.2746 0.74351,-0.37169c-0.00871,-0.07076 -0.01319,-0.14284 -0.01319,-0.21596c0,-0.53565 0.24066,-1.0151 0.61975,-1.33611l1.39137,-1.1926l0.02294,0.02677l0.05921,-0.093c1.68321,-1.12194 3.59523,-1.88613 5.27583,-2.98336l0.03765,-0.37659c0.0784,-0.89396 0.82894,-1.59512 1.74325,-1.59512c0.17179,0 0.33779,0.02475 0.49465,0.07089c1.44019,-1.36846 3.05614,-2.97725 4.38532,-3.40953zM167.02846,191.09363c0.06112,0.03098 0.12222,0.06195 0.18332,0.09293c-0.04068,-0.0289 -0.08108,-0.05735 -0.12119,-0.08532c-0.02074,-0.0024 -0.04145,-0.00494 -0.06213,-0.00761zM175.43279,195.90129c-0.01713,-0.07019 -0.03392,-0.14053 -0.0503,-0.21101c-0.06207,0.01757 -0.12554,0.03182 -0.1902,0.04251c0.08035,0.0558 0.16052,0.11196 0.2405,0.16849z" fill="#ea0000" stroke="none" stroke-width="0.5" stroke-linecap="butt"/><path d="M187.50469,196.20632l-5,-8.6l-1,-18.2" fill="none" stroke="#000000" stroke-width="3" stroke-linecap="round"/><path d="M206.90469,159.20631l-9.4,25.4l-8.6,12.8" fill="none" stroke="#000000" stroke-width="3" stroke-linecap="round"/><path d="M156.90469,188.60632l22.6,-18" fill="none" stroke="#000000" stroke-width="3" stroke-linecap="round"/><path d="M207.90469,188.20632l-21,22.4l-32.2,-21.6" fill="none" stroke="#000000" stroke-width="3" stroke-linecap="round"/><path d="M206.90469,189.00632l3.78867,-3.96856l-23,24.5l-35.05664,-21.84277" fill="none" stroke="#000000" stroke-width="3" stroke-linecap="round"/><path d="M289.88021,210.16586c-3.78584,-5.39929 -7.58627,-10.71716 -9.29818,-16.98469c-0.83728,-0.30019 -1.97789,-0.12766 -2.72569,-0.64423c-0.90592,-0.6258 -1.51479,-1.68565 -1.85578,-2.73257c-0.35933,-1.10324 -0.01676,-2.29907 0.11073,-3.47321c-1.06779,-1.4254 -2.02275,-2.93841 -2.65511,-4.73754c-1.49665,-4.25809 -0.6719,-8.3555 -1.46575,-12.63543c-0.35311,-1.90374 -1.65109,-3.69523 -2.6198,-5.30975l-0.01331,-0.06843l-0.01788,0.00894l-1.18426,-2.36851c-0.12803,-0.24319 -0.2005,-0.52019 -0.2005,-0.81411c0,-0.9665 0.7835,-1.75 1.75,-1.75c0.31985,0 0.61966,0.08581 0.87766,0.23566l1.77221,0.98456l-0.03746,0.06744c0.13783,0.06042 0.27276,0.12812 0.40424,0.20446c0.77703,0.45113 0.92488,1.54216 1.43559,2.2814c2.32769,3.36932 4.39597,6.53895 6.30055,10.16942c1.71336,3.26596 3.92565,6.35594 5.74408,9.50048c1.65905,2.86893 2.20333,6.54367 3.49743,9.58498c0.56173,1.32012 1.77353,2.68113 2.83251,3.9752c1.08754,0.40638 2.42194,1.08673 3.22626,1.84005c0.00104,-0.01298 0.00201,-0.02565 0.0029,-0.03798c0.11174,-1.55258 0.66125,-3.10746 1.48795,-4.42638l1.83165,-0.92702c0,0 0.17836,-0.04459 0.4339,-0.04705c0.70783,-2.02716 0.22601,-3.2711 0.64205,-5.32792c0.24783,-1.22527 0.00543,-2.97499 0.91306,-3.72598c-0.19827,-0.2837 -0.31458,-0.62892 -0.31458,-1.0013c0,-0.9665 0.7835,-1.75 1.75,-1.75h2v0.08807c0.27808,-0.00349 0.55366,0.03108 0.82575,0.119c1.11218,0.3594 3.96304,5.30911 4.81755,6.55329c3.41299,4.96938 7.07098,8.58543 11.52935,12.52807l1.64667,0.91482c0.55363,0.29387 0.93068,0.87628 0.93068,1.54675c0,0.3084 -0.07978,0.59818 -0.21982,0.8498c0.22279,0.00009 0.44606,0.0002 0.66982,0.0002c0,0 1.75,0 1.75,1.75c0,1.75 -1.75,1.75 -1.75,1.75c-1.10568,0 -2.19185,-0.00023 -3.2659,0.01308c0.01049,0.07748 0.0159,0.15657 0.0159,0.23692c0,0.6986 -0.40936,1.3016 -1.00129,1.5822l-1.46956,0.73478c-2.97236,2.04909 -5.4487,1.15283 -8.8882,1.42257c-3.37783,0.2649 -6.31416,3.77363 -9.89877,3.33675c-1.2661,0.43572 -2.56968,0.79914 -3.94578,1.03907c-2.25563,0.39329 -3.41098,1.11118 -5.20184,-1.34367c-0.56906,-0.78005 -0.74229,-1.74908 -0.91156,-2.72558c-0.09347,-0.15977 -0.17891,-0.32209 -0.25748,-0.48657zM295.92478,204.4438c-0.02366,-0.01163 -0.04717,-0.02355 -0.07051,-0.03574c0.00566,0.01671 0.01132,0.03342 0.01696,0.05014c0.01787,-0.00476 0.03572,-0.00956 0.05356,-0.01441z" fill="#ea0000" stroke="none" stroke-width="0.5" stroke-linecap="butt"/><path d="M272.50469,156.00631l21.4,41l-23.8,-41.4" fill="none" stroke="#000000" stroke-width="3" stroke-linecap="round"/><path d="M300.70469,177.00631v11.6l-6.2,7.4" fill="none" stroke="#000000" stroke-width="3" stroke-linecap="round"/><path d="M277.69336,192.28776l13.75,22.25l-14.33867,-19.13145l-8.4,-26" fill="none" stroke="#000000" stroke-width="3" stroke-linecap="round"/><path d="M291.90469,215.60631l34.2,-8.8" fill="none" stroke="#000000" stroke-width="3" stroke-linecap="round"/><path d="M303.90469,178.40631l23.28867,27.63145l-25.5,-29l-1.18867,14.96855l-4.6,4" fill="none" stroke="#000000" stroke-width="3" stroke-linecap="round"/></g></g></svg>